<svg width="523" height="392" viewBox="0 0 523 392" fill="none" xmlns="http://www.w3.org/2000/svg">
<path d="M100.327 39.8424L74.859 16.6532C74.859 16.6532 69.1081 15.3356 68.0127 20.0788L66.3696 32.464L64.1788 47.2207L60.8926 74.3626C60.8926 74.3626 30.769 81.741 14.8856 86.2207C-0.997843 90.7004 4.20526 112.309 15.981 111.518L56.237 110.991L51.3077 148.41L48.0215 176.079L43.9137 208.491L39.8059 240.64L35.972 270.153L32.6858 298.349L28.8519 327.599C28.8519 327.599 20.6363 326.281 18.9932 333.396V384.254C18.9932 384.254 20.3625 391.369 27.7565 390.579H84.1699H154.276H180.566C180.566 390.579 190.15 391.106 191.52 385.045V362.383C191.52 362.383 266.555 283.856 394.991 305.464C394.991 305.464 467.836 296.241 495.221 268.309C495.221 268.309 524.797 248.018 521.784 193.734C523.302 192.655 506.723 132.072 488.648 125.221C488.648 125.221 472.491 168.964 462.359 177.396C452.226 185.829 455.786 190.836 416.899 200.059C416.899 200.059 406.219 204.275 342.96 191.363C342.96 191.363 326.255 186.883 287.642 197.16C287.642 197.16 252.589 205.065 220.274 235.369C220.274 235.369 181.661 266.727 174.815 304.937L155.097 150.782L135.106 4.00449C135.106 4.00449 131.546 -1.52929 125.248 2.42341C125.248 2.42341 107.173 35.0992 106.352 37.4708C105.53 39.8424 100.327 39.8424 100.327 39.8424Z" fill="#FA8510" stroke="#FA8510"/>
<rect x="115.018" y="274.527" width="16.4311" height="115.946" rx="8.21554" fill="black"/>
<rect x="88.1802" y="274.527" width="16.4311" height="115.946" rx="8.21554" fill="black"/>
<rect x="177.456" y="326.703" width="16.4311" height="64.2973" rx="8.21554" fill="black"/>
<rect x="18.0742" y="326.703" width="16.4311" height="64.2973" rx="8.21554" fill="black"/>
<ellipse cx="13.1449" cy="99.0272" rx="13.1449" ry="13.1757" fill="black"/>
<rect x="108.993" y="56.8652" width="22.4558" height="42.1622" rx="11.2279" fill="white"/>
<rect x="108.993" y="56.8652" width="22.4558" height="42.1622" rx="11.2279" fill="white"/>
<rect x="108.993" y="56.8652" width="22.4558" height="42.1622" rx="11.2279" fill="white"/>
<rect x="108.993" y="56.8652" width="22.4558" height="42.1622" rx="11.2279" fill="white"/>
<rect x="117.756" y="61.0811" width="12.0495" height="21.6081" rx="6.02473" fill="black"/>
<path d="M81.5723 147.605C109.572 109.533 132.572 144.105 132.572 144.105" stroke="black" stroke-width="4" stroke-linecap="round"/>
</svg>
