<svg width="329" height="330" viewBox="0 0 329 330" fill="none" xmlns="http://www.w3.org/2000/svg">
<rect width="987" height="917" transform="translate(-1)" fill="white"/>
<g filter="url(#filter0_d_459_279)">
<path d="M461.539 553.59C420.526 583.757 395.084 597.067 341.925 609.403H233.813C230.918 622.675 227.808 630.623 217.711 646.612C203.617 665.547 192.22 675.968 164.805 694.157C138.678 712.837 122.85 721.927 88.8957 731.366C60.8601 735.988 45.6575 740.207 19.888 752.037C4.10359 760.738 -2.19822 767.263 -0.814427 787.179C2.02129 802.047 4.41081 810.288 15.2874 824.388C30.7083 839.891 39.811 848.298 58.9925 861.597C70.2641 867.765 76.914 869.472 88.896 871.933H394.831L427.035 865.731C453.958 859.61 468.333 854.073 491.443 836.791C520.578 814.034 532.938 799.999 542.049 770.642C561.302 731.007 567.322 713.719 581.153 679.687C602.185 636.271 614.136 613.057 636.359 578.396C661.201 530.061 677.688 507.988 714.568 483.306C735.223 475.962 746.822 475.155 767.475 483.306C780.219 492.688 786.091 499.184 790.477 516.381L799.678 576.328C802.12 587.602 803.599 596.277 806.579 640.41C806.579 640.41 806.813 668.38 806.579 687.955L801.979 874H838.783V828.522L841.083 702.425C842.358 672.518 843.978 655.743 847.984 625.94C851.373 596.68 854.006 580.027 861.786 549.455C866.184 527.067 869.159 514.795 875.587 493.642C883.953 468.32 888.356 459.386 896.29 441.963C906.336 418.831 911.473 405.502 923.893 384.082C941.581 355.633 951.75 340.586 969.898 313.799C979.613 295.257 982.53 285.438 986 268.321V266.254C985.641 240.081 984.812 225.953 981.399 202.172C978.285 185.21 973.218 175.724 960.697 158.761C943.684 141.229 933.143 131.305 910.091 113.284L813.48 43L640.96 303.463C606.797 350.735 589.344 379.473 560.451 433.694C533.147 484.336 511.942 510.691 461.539 553.59Z" fill="#47BCEE" shape-rendering="crispEdges"/>
<path d="M461.539 553.59C420.526 583.757 395.084 597.067 341.925 609.403H233.813C230.918 622.675 227.808 630.623 217.711 646.612C203.617 665.547 192.22 675.968 164.805 694.157C138.678 712.837 122.85 721.927 88.8957 731.366C60.8601 735.988 45.6575 740.207 19.888 752.037C4.10359 760.738 -2.19822 767.263 -0.814427 787.179C2.02129 802.047 4.41081 810.288 15.2874 824.388C30.7083 839.891 39.811 848.298 58.9925 861.597C70.2641 867.765 76.914 869.472 88.896 871.933H394.831L427.035 865.731C453.958 859.61 468.333 854.073 491.443 836.791C520.578 814.034 532.938 799.999 542.049 770.642C561.302 731.007 567.322 713.719 581.153 679.687C602.185 636.271 614.136 613.057 636.359 578.396C661.201 530.061 677.688 507.988 714.568 483.306C735.223 475.962 746.822 475.155 767.475 483.306C780.219 492.688 786.091 499.184 790.477 516.381L799.678 576.328C802.12 587.602 803.599 596.277 806.579 640.41C806.579 640.41 806.813 668.38 806.579 687.955L801.979 874H838.783V828.522L841.083 702.425C842.358 672.518 843.978 655.743 847.984 625.94C851.373 596.68 854.006 580.027 861.786 549.455C866.184 527.067 869.159 514.795 875.587 493.642C883.953 468.32 888.356 459.386 896.29 441.963C906.336 418.831 911.473 405.502 923.893 384.082C941.581 355.633 951.75 340.586 969.898 313.799C979.613 295.257 982.53 285.438 986 268.321V266.254C985.641 240.081 984.812 225.953 981.399 202.172C978.285 185.21 973.218 175.724 960.697 158.761C943.684 141.229 933.143 131.305 910.091 113.284L813.48 43L640.96 303.463C606.797 350.735 589.344 379.473 560.451 433.694C533.147 484.336 511.942 510.691 461.539 553.59Z" stroke="#55ACD3" stroke-opacity="0.62" shape-rendering="crispEdges"/>
</g>
<defs>
<filter id="filter0_d_459_279" x="-105.7" y="-61.9117" width="1236.4" height="1080.61" filterUnits="userSpaceOnUse" color-interpolation-filters="sRGB">
<feFlood flood-opacity="0" result="BackgroundImageFix"/>
<feColorMatrix in="SourceAlpha" type="matrix" values="0 0 0 0 0 0 0 0 0 0 0 0 0 0 0 0 0 0 127 0" result="hardAlpha"/>
<feOffset dx="20" dy="20"/>
<feGaussianBlur stdDeviation="62.1"/>
<feComposite in2="hardAlpha" operator="out"/>
<feColorMatrix type="matrix" values="0 0 0 0 0.131111 0 0 0 0 0.827093 0 0 0 0 0.983333 0 0 0 0.25 0"/>
<feBlend mode="normal" in2="BackgroundImageFix" result="effect1_dropShadow_459_279"/>
<feBlend mode="normal" in="SourceGraphic" in2="effect1_dropShadow_459_279" result="shape"/>
</filter>
</defs>
</svg>
