<svg width="329" height="330" viewBox="0 0 329 330" fill="none" xmlns="http://www.w3.org/2000/svg">
<rect width="987" height="917" transform="translate(-331)" fill="white"/>
<g filter="url(#filter0_d_459_279)">
<path d="M131.539 553.59C90.5261 583.757 65.0837 597.067 11.9253 609.403H-96.1872C-99.0817 622.675 -102.192 630.623 -112.289 646.612C-126.383 665.547 -137.78 675.968 -165.195 694.157C-191.322 712.837 -207.15 721.927 -241.104 731.366C-269.14 735.988 -284.342 740.207 -310.112 752.037C-325.896 760.738 -332.198 767.263 -330.814 787.179C-327.979 802.047 -325.589 810.288 -314.713 824.388C-299.292 839.891 -290.189 848.298 -271.007 861.597C-259.736 867.765 -253.086 869.472 -241.104 871.933H64.8315L97.0352 865.731C123.958 859.61 138.333 854.073 161.443 836.791C190.578 814.034 202.938 799.999 212.049 770.642C231.302 731.007 237.322 713.719 251.153 679.687C272.185 636.271 284.136 613.057 306.359 578.396C331.201 530.061 347.688 507.988 384.568 483.306C405.223 475.962 416.822 475.155 437.475 483.306C450.219 492.688 456.091 499.184 460.477 516.381L469.678 576.328C472.12 587.602 473.599 596.277 476.579 640.41C476.579 640.41 476.813 668.38 476.579 687.955L471.979 874H508.783V828.522L511.083 702.425C512.358 672.518 513.978 655.743 517.984 625.94C521.373 596.68 524.006 580.027 531.786 549.455C536.184 527.067 539.159 514.795 545.587 493.642C553.953 468.32 558.356 459.386 566.29 441.963C576.336 418.831 581.473 405.502 593.893 384.082C611.581 355.633 621.75 340.586 639.898 313.799C649.613 295.257 652.53 285.438 656 268.321V266.254C655.641 240.081 654.812 225.953 651.399 202.172C648.285 185.21 643.218 175.724 630.697 158.761C613.684 141.229 603.143 131.305 580.091 113.284L483.48 43L310.96 303.463C276.797 350.735 259.344 379.473 230.451 433.694C203.147 484.336 181.942 510.691 131.539 553.59Z" fill="#47BCEE" shape-rendering="crispEdges"/>
<path d="M131.539 553.59C90.5261 583.757 65.0837 597.067 11.9253 609.403H-96.1872C-99.0817 622.675 -102.192 630.623 -112.289 646.612C-126.383 665.547 -137.78 675.968 -165.195 694.157C-191.322 712.837 -207.15 721.927 -241.104 731.366C-269.14 735.988 -284.342 740.207 -310.112 752.037C-325.896 760.738 -332.198 767.263 -330.814 787.179C-327.979 802.047 -325.589 810.288 -314.713 824.388C-299.292 839.891 -290.189 848.298 -271.007 861.597C-259.736 867.765 -253.086 869.472 -241.104 871.933H64.8315L97.0352 865.731C123.958 859.61 138.333 854.073 161.443 836.791C190.578 814.034 202.938 799.999 212.049 770.642C231.302 731.007 237.322 713.719 251.153 679.687C272.185 636.271 284.136 613.057 306.359 578.396C331.201 530.061 347.688 507.988 384.568 483.306C405.223 475.962 416.822 475.155 437.475 483.306C450.219 492.688 456.091 499.184 460.477 516.381L469.678 576.328C472.12 587.602 473.599 596.277 476.579 640.41C476.579 640.41 476.813 668.38 476.579 687.955L471.979 874H508.783V828.522L511.083 702.425C512.358 672.518 513.978 655.743 517.984 625.94C521.373 596.68 524.006 580.027 531.786 549.455C536.184 527.067 539.159 514.795 545.587 493.642C553.953 468.32 558.356 459.386 566.29 441.963C576.336 418.831 581.473 405.502 593.893 384.082C611.581 355.633 621.75 340.586 639.898 313.799C649.613 295.257 652.53 285.438 656 268.321V266.254C655.641 240.081 654.812 225.953 651.399 202.172C648.285 185.21 643.218 175.724 630.697 158.761C613.684 141.229 603.143 131.305 580.091 113.284L483.48 43L310.96 303.463C276.797 350.735 259.344 379.473 230.451 433.694C203.147 484.336 181.942 510.691 131.539 553.59Z" stroke="#55ACD3" stroke-opacity="0.62" shape-rendering="crispEdges"/>
</g>
<defs>
<filter id="filter0_d_459_279" x="-435.7" y="-61.9117" width="1236.4" height="1080.61" filterUnits="userSpaceOnUse" color-interpolation-filters="sRGB">
<feFlood flood-opacity="0" result="BackgroundImageFix"/>
<feColorMatrix in="SourceAlpha" type="matrix" values="0 0 0 0 0 0 0 0 0 0 0 0 0 0 0 0 0 0 127 0" result="hardAlpha"/>
<feOffset dx="20" dy="20"/>
<feGaussianBlur stdDeviation="62.1"/>
<feComposite in2="hardAlpha" operator="out"/>
<feColorMatrix type="matrix" values="0 0 0 0 0.131111 0 0 0 0 0.827093 0 0 0 0 0.983333 0 0 0 0.25 0"/>
<feBlend mode="normal" in2="BackgroundImageFix" result="effect1_dropShadow_459_279"/>
<feBlend mode="normal" in="SourceGraphic" in2="effect1_dropShadow_459_279" result="shape"/>
</filter>
</defs>
</svg>
