<svg width="330" height="330" viewBox="0 0 330 330" fill="none" xmlns="http://www.w3.org/2000/svg">
<rect width="990" height="990" transform="translate(-660)" fill="white"/>
<g filter="url(#filter0_d_459_279)">
<path d="M-197.461 553.59C-238.474 583.757 -263.916 597.067 -317.075 609.403H-425.187C-428.082 622.675 -431.192 630.623 -441.289 646.612C-455.383 665.547 -466.78 675.968 -494.195 694.157C-520.322 712.837 -536.15 721.927 -570.104 731.366C-598.14 735.988 -613.342 740.207 -639.112 752.037C-654.896 760.738 -661.198 767.263 -659.814 787.179C-656.979 802.047 -654.589 810.288 -643.713 824.388C-628.292 839.891 -619.189 848.298 -600.007 861.597C-588.736 867.765 -582.086 869.472 -570.104 871.933H-264.169L-231.965 865.731C-205.042 859.61 -190.667 854.073 -167.557 836.791C-138.422 814.034 -126.062 799.999 -116.951 770.642C-97.6981 731.007 -91.6779 713.719 -77.8469 679.687C-56.815 636.271 -44.8635 613.057 -22.6406 578.396C2.20062 530.061 18.6876 507.988 55.5685 483.306C76.223 475.962 87.8223 475.155 108.475 483.306C121.219 492.688 127.091 499.184 131.477 516.381L140.678 576.328C143.12 587.602 144.599 596.277 147.579 640.41C147.579 640.41 147.813 668.38 147.579 687.955L142.979 874H179.783V828.522L182.083 702.425C183.358 672.518 184.978 655.743 188.984 625.94C192.373 596.68 195.006 580.027 202.786 549.455C207.184 527.067 210.159 514.795 216.587 493.642C224.953 468.32 229.356 459.386 237.29 441.963C247.336 418.831 252.473 405.502 264.893 384.082C282.581 355.633 292.75 340.586 310.898 313.799C320.613 295.257 323.53 285.438 327 268.321V266.254C326.641 240.081 325.812 225.953 322.399 202.172C319.285 185.21 314.218 175.724 301.697 158.761C284.684 141.229 274.143 131.305 251.091 113.284L154.48 43L-18.04 303.463C-52.2026 350.735 -69.6561 379.473 -98.5494 433.694C-125.853 484.336 -147.058 510.691 -197.461 553.59Z" fill="#47BCEE" shape-rendering="crispEdges"/>
<path d="M-197.461 553.59C-238.474 583.757 -263.916 597.067 -317.075 609.403H-425.187C-428.082 622.675 -431.192 630.623 -441.289 646.612C-455.383 665.547 -466.78 675.968 -494.195 694.157C-520.322 712.837 -536.15 721.927 -570.104 731.366C-598.14 735.988 -613.342 740.207 -639.112 752.037C-654.896 760.738 -661.198 767.263 -659.814 787.179C-656.979 802.047 -654.589 810.288 -643.713 824.388C-628.292 839.891 -619.189 848.298 -600.007 861.597C-588.736 867.765 -582.086 869.472 -570.104 871.933H-264.169L-231.965 865.731C-205.042 859.61 -190.667 854.073 -167.557 836.791C-138.422 814.034 -126.062 799.999 -116.951 770.642C-97.6981 731.007 -91.6779 713.719 -77.8469 679.687C-56.815 636.271 -44.8635 613.057 -22.6406 578.396C2.20062 530.061 18.6876 507.988 55.5685 483.306C76.223 475.962 87.8223 475.155 108.475 483.306C121.219 492.688 127.091 499.184 131.477 516.381L140.678 576.328C143.12 587.602 144.599 596.277 147.579 640.41C147.579 640.41 147.813 668.38 147.579 687.955L142.979 874H179.783V828.522L182.083 702.425C183.358 672.518 184.978 655.743 188.984 625.94C192.373 596.68 195.006 580.027 202.786 549.455C207.184 527.067 210.159 514.795 216.587 493.642C224.953 468.32 229.356 459.386 237.29 441.963C247.336 418.831 252.473 405.502 264.893 384.082C282.581 355.633 292.75 340.586 310.898 313.799C320.613 295.257 323.53 285.438 327 268.321V266.254C326.641 240.081 325.812 225.953 322.399 202.172C319.285 185.21 314.218 175.724 301.697 158.761C284.684 141.229 274.143 131.305 251.091 113.284L154.48 43L-18.04 303.463C-52.2026 350.735 -69.6561 379.473 -98.5494 433.694C-125.853 484.336 -147.058 510.691 -197.461 553.59Z" stroke="#55ACD3" stroke-opacity="0.62" shape-rendering="crispEdges"/>
</g>
<defs>
<filter id="filter0_d_459_279" x="-764.7" y="-61.9117" width="1236.4" height="1080.61" filterUnits="userSpaceOnUse" color-interpolation-filters="sRGB">
<feFlood flood-opacity="0" result="BackgroundImageFix"/>
<feColorMatrix in="SourceAlpha" type="matrix" values="0 0 0 0 0 0 0 0 0 0 0 0 0 0 0 0 0 0 127 0" result="hardAlpha"/>
<feOffset dx="20" dy="20"/>
<feGaussianBlur stdDeviation="62.1"/>
<feComposite in2="hardAlpha" operator="out"/>
<feColorMatrix type="matrix" values="0 0 0 0 0.131111 0 0 0 0 0.827093 0 0 0 0 0.983333 0 0 0 0.25 0"/>
<feBlend mode="normal" in2="BackgroundImageFix" result="effect1_dropShadow_459_279"/>
<feBlend mode="normal" in="SourceGraphic" in2="effect1_dropShadow_459_279" result="shape"/>
</filter>
</defs>
</svg>
