<svg width="330" height="330" viewBox="0 0 330 330" fill="none" xmlns="http://www.w3.org/2000/svg">
<rect width="990" height="990" transform="translate(-660 -330)" fill="white"/>
<g filter="url(#filter0_d_459_279)">
<path d="M-197.461 223.59C-238.474 253.757 -263.916 267.067 -317.075 279.403H-425.187C-428.082 292.675 -431.192 300.623 -441.289 316.612C-455.383 335.547 -466.78 345.968 -494.195 364.157C-520.322 382.837 -536.15 391.927 -570.104 401.366C-598.14 405.988 -613.342 410.207 -639.112 422.037C-654.896 430.738 -661.198 437.263 -659.814 457.179C-656.979 472.047 -654.589 480.288 -643.713 494.388C-628.292 509.891 -619.189 518.298 -600.007 531.597C-588.736 537.765 -582.086 539.472 -570.104 541.933H-264.169L-231.965 535.731C-205.042 529.61 -190.667 524.073 -167.557 506.791C-138.422 484.034 -126.062 469.999 -116.951 440.642C-97.6981 401.007 -91.6779 383.719 -77.8469 349.687C-56.815 306.271 -44.8635 283.057 -22.6406 248.396C2.20062 200.061 18.6876 177.988 55.5685 153.306C76.223 145.962 87.8223 145.155 108.475 153.306C121.219 162.688 127.091 169.184 131.477 186.381L140.678 246.328C143.12 257.602 144.599 266.277 147.579 310.41C147.579 310.41 147.813 338.38 147.579 357.955L142.979 544H179.783V498.522L182.083 372.425C183.358 342.518 184.978 325.743 188.984 295.94C192.373 266.68 195.006 250.027 202.786 219.455C207.184 197.067 210.159 184.795 216.587 163.642C224.953 138.32 229.356 129.386 237.29 111.963C247.336 88.8315 252.473 75.5021 264.893 54.0821C282.581 25.633 292.75 10.586 310.898 -16.2015C320.613 -34.7431 323.53 -44.562 327 -61.6791V-63.7463C326.641 -89.9193 325.812 -104.047 322.399 -127.828C319.285 -144.79 314.218 -154.276 301.697 -171.239C284.684 -188.771 274.143 -198.695 251.091 -216.716L154.48 -287L-18.04 -26.5373C-52.2026 20.7348 -69.6561 49.4731 -98.5494 103.694C-125.853 154.336 -147.058 180.691 -197.461 223.59Z" fill="#47BCEE" shape-rendering="crispEdges"/>
<path d="M-197.461 223.59C-238.474 253.757 -263.916 267.067 -317.075 279.403H-425.187C-428.082 292.675 -431.192 300.623 -441.289 316.612C-455.383 335.547 -466.78 345.968 -494.195 364.157C-520.322 382.837 -536.15 391.927 -570.104 401.366C-598.14 405.988 -613.342 410.207 -639.112 422.037C-654.896 430.738 -661.198 437.263 -659.814 457.179C-656.979 472.047 -654.589 480.288 -643.713 494.388C-628.292 509.891 -619.189 518.298 -600.007 531.597C-588.736 537.765 -582.086 539.472 -570.104 541.933H-264.169L-231.965 535.731C-205.042 529.61 -190.667 524.073 -167.557 506.791C-138.422 484.034 -126.062 469.999 -116.951 440.642C-97.6981 401.007 -91.6779 383.719 -77.8469 349.687C-56.815 306.271 -44.8635 283.057 -22.6406 248.396C2.20062 200.061 18.6876 177.988 55.5685 153.306C76.223 145.962 87.8223 145.155 108.475 153.306C121.219 162.688 127.091 169.184 131.477 186.381L140.678 246.328C143.12 257.602 144.599 266.277 147.579 310.41C147.579 310.41 147.813 338.38 147.579 357.955L142.979 544H179.783V498.522L182.083 372.425C183.358 342.518 184.978 325.743 188.984 295.94C192.373 266.68 195.006 250.027 202.786 219.455C207.184 197.067 210.159 184.795 216.587 163.642C224.953 138.32 229.356 129.386 237.29 111.963C247.336 88.8315 252.473 75.5021 264.893 54.0821C282.581 25.633 292.75 10.586 310.898 -16.2015C320.613 -34.7431 323.53 -44.562 327 -61.6791V-63.7463C326.641 -89.9193 325.812 -104.047 322.399 -127.828C319.285 -144.79 314.218 -154.276 301.697 -171.239C284.684 -188.771 274.143 -198.695 251.091 -216.716L154.48 -287L-18.04 -26.5373C-52.2026 20.7348 -69.6561 49.4731 -98.5494 103.694C-125.853 154.336 -147.058 180.691 -197.461 223.59Z" stroke="#55ACD3" stroke-opacity="0.62" shape-rendering="crispEdges"/>
</g>
<defs>
<filter id="filter0_d_459_279" x="-764.7" y="-391.912" width="1236.4" height="1080.61" filterUnits="userSpaceOnUse" color-interpolation-filters="sRGB">
<feFlood flood-opacity="0" result="BackgroundImageFix"/>
<feColorMatrix in="SourceAlpha" type="matrix" values="0 0 0 0 0 0 0 0 0 0 0 0 0 0 0 0 0 0 127 0" result="hardAlpha"/>
<feOffset dx="20" dy="20"/>
<feGaussianBlur stdDeviation="62.1"/>
<feComposite in2="hardAlpha" operator="out"/>
<feColorMatrix type="matrix" values="0 0 0 0 0.131111 0 0 0 0 0.827093 0 0 0 0 0.983333 0 0 0 0.25 0"/>
<feBlend mode="normal" in2="BackgroundImageFix" result="effect1_dropShadow_459_279"/>
<feBlend mode="normal" in="SourceGraphic" in2="effect1_dropShadow_459_279" result="shape"/>
</filter>
</defs>
</svg>
