<svg width="329" height="330" viewBox="0 0 329 330" fill="none" xmlns="http://www.w3.org/2000/svg">
<rect width="987" height="917" transform="translate(-1 -330)" fill="white"/>
<g filter="url(#filter0_d_459_279)">
<path d="M461.539 223.59C420.526 253.757 395.084 267.067 341.925 279.403H233.813C230.918 292.675 227.808 300.623 217.711 316.612C203.617 335.547 192.22 345.968 164.805 364.157C138.678 382.837 122.85 391.927 88.8957 401.366C60.8601 405.988 45.6575 410.207 19.888 422.037C4.10359 430.738 -2.19822 437.263 -0.814427 457.179C2.02129 472.047 4.41081 480.288 15.2874 494.388C30.7083 509.891 39.811 518.298 58.9925 531.597C70.2641 537.765 76.914 539.472 88.896 541.933H394.831L427.035 535.731C453.958 529.61 468.333 524.073 491.443 506.791C520.578 484.034 532.938 469.999 542.049 440.642C561.302 401.007 567.322 383.719 581.153 349.687C602.185 306.271 614.136 283.057 636.359 248.396C661.201 200.061 677.688 177.988 714.568 153.306C735.223 145.962 746.822 145.155 767.475 153.306C780.219 162.688 786.091 169.184 790.477 186.381L799.678 246.328C802.12 257.602 803.599 266.277 806.579 310.41C806.579 310.41 806.813 338.38 806.579 357.955L801.979 544H838.783V498.522L841.083 372.425C842.358 342.518 843.978 325.743 847.984 295.94C851.373 266.68 854.006 250.027 861.786 219.455C866.184 197.067 869.159 184.795 875.587 163.642C883.953 138.32 888.356 129.386 896.29 111.963C906.336 88.8315 911.473 75.5021 923.893 54.0821C941.581 25.633 951.75 10.586 969.898 -16.2015C979.613 -34.7431 982.53 -44.562 986 -61.6791V-63.7463C985.641 -89.9193 984.812 -104.047 981.399 -127.828C978.285 -144.79 973.218 -154.276 960.697 -171.239C943.684 -188.771 933.143 -198.695 910.091 -216.716L813.48 -287L640.96 -26.5373C606.797 20.7348 589.344 49.4731 560.451 103.694C533.147 154.336 511.942 180.691 461.539 223.59Z" fill="#47BCEE" shape-rendering="crispEdges"/>
<path d="M461.539 223.59C420.526 253.757 395.084 267.067 341.925 279.403H233.813C230.918 292.675 227.808 300.623 217.711 316.612C203.617 335.547 192.22 345.968 164.805 364.157C138.678 382.837 122.85 391.927 88.8957 401.366C60.8601 405.988 45.6575 410.207 19.888 422.037C4.10359 430.738 -2.19822 437.263 -0.814427 457.179C2.02129 472.047 4.41081 480.288 15.2874 494.388C30.7083 509.891 39.811 518.298 58.9925 531.597C70.2641 537.765 76.914 539.472 88.896 541.933H394.831L427.035 535.731C453.958 529.61 468.333 524.073 491.443 506.791C520.578 484.034 532.938 469.999 542.049 440.642C561.302 401.007 567.322 383.719 581.153 349.687C602.185 306.271 614.136 283.057 636.359 248.396C661.201 200.061 677.688 177.988 714.568 153.306C735.223 145.962 746.822 145.155 767.475 153.306C780.219 162.688 786.091 169.184 790.477 186.381L799.678 246.328C802.12 257.602 803.599 266.277 806.579 310.41C806.579 310.41 806.813 338.38 806.579 357.955L801.979 544H838.783V498.522L841.083 372.425C842.358 342.518 843.978 325.743 847.984 295.94C851.373 266.68 854.006 250.027 861.786 219.455C866.184 197.067 869.159 184.795 875.587 163.642C883.953 138.32 888.356 129.386 896.29 111.963C906.336 88.8315 911.473 75.5021 923.893 54.0821C941.581 25.633 951.75 10.586 969.898 -16.2015C979.613 -34.7431 982.53 -44.562 986 -61.6791V-63.7463C985.641 -89.9193 984.812 -104.047 981.399 -127.828C978.285 -144.79 973.218 -154.276 960.697 -171.239C943.684 -188.771 933.143 -198.695 910.091 -216.716L813.48 -287L640.96 -26.5373C606.797 20.7348 589.344 49.4731 560.451 103.694C533.147 154.336 511.942 180.691 461.539 223.59Z" stroke="#55ACD3" stroke-opacity="0.62" shape-rendering="crispEdges"/>
</g>
<defs>
<filter id="filter0_d_459_279" x="-105.7" y="-391.912" width="1236.4" height="1080.61" filterUnits="userSpaceOnUse" color-interpolation-filters="sRGB">
<feFlood flood-opacity="0" result="BackgroundImageFix"/>
<feColorMatrix in="SourceAlpha" type="matrix" values="0 0 0 0 0 0 0 0 0 0 0 0 0 0 0 0 0 0 127 0" result="hardAlpha"/>
<feOffset dx="20" dy="20"/>
<feGaussianBlur stdDeviation="62.1"/>
<feComposite in2="hardAlpha" operator="out"/>
<feColorMatrix type="matrix" values="0 0 0 0 0.131111 0 0 0 0 0.827093 0 0 0 0 0.983333 0 0 0 0.25 0"/>
<feBlend mode="normal" in2="BackgroundImageFix" result="effect1_dropShadow_459_279"/>
<feBlend mode="normal" in="SourceGraphic" in2="effect1_dropShadow_459_279" result="shape"/>
</filter>
</defs>
</svg>
