<svg width="329" height="330" viewBox="0 0 329 330" fill="none" xmlns="http://www.w3.org/2000/svg">
<rect width="987" height="917" transform="translate(-330 -330)" fill="white"/>
<g filter="url(#filter0_d_459_279)">
<path d="M132.539 223.59C91.5261 253.757 66.0837 267.067 12.9253 279.403H-95.1872C-98.0817 292.675 -101.192 300.623 -111.289 316.612C-125.383 335.547 -136.78 345.968 -164.195 364.157C-190.322 382.837 -206.15 391.927 -240.104 401.366C-268.14 405.988 -283.342 410.207 -309.112 422.037C-324.896 430.738 -331.198 437.263 -329.814 457.179C-326.979 472.047 -324.589 480.288 -313.713 494.388C-298.292 509.891 -289.189 518.298 -270.007 531.597C-258.736 537.765 -252.086 539.472 -240.104 541.933H65.8315L98.0352 535.731C124.958 529.61 139.333 524.073 162.443 506.791C191.578 484.034 203.938 469.999 213.049 440.642C232.302 401.007 238.322 383.719 252.153 349.687C273.185 306.271 285.136 283.057 307.359 248.396C332.201 200.061 348.688 177.988 385.568 153.306C406.223 145.962 417.822 145.155 438.475 153.306C451.219 162.688 457.091 169.184 461.477 186.381L470.678 246.328C473.12 257.602 474.599 266.277 477.579 310.41C477.579 310.41 477.813 338.38 477.579 357.955L472.979 544H509.783V498.522L512.083 372.425C513.358 342.518 514.978 325.743 518.984 295.94C522.373 266.68 525.006 250.027 532.786 219.455C537.184 197.067 540.159 184.795 546.587 163.642C554.953 138.32 559.356 129.386 567.29 111.963C577.336 88.8315 582.473 75.5021 594.893 54.0821C612.581 25.633 622.75 10.586 640.898 -16.2015C650.613 -34.7431 653.53 -44.562 657 -61.6791V-63.7463C656.641 -89.9193 655.812 -104.047 652.399 -127.828C649.285 -144.79 644.218 -154.276 631.697 -171.239C614.684 -188.771 604.143 -198.695 581.091 -216.716L484.48 -287L311.96 -26.5373C277.797 20.7348 260.344 49.4731 231.451 103.694C204.147 154.336 182.942 180.691 132.539 223.59Z" fill="#47BCEE" shape-rendering="crispEdges"/>
<path d="M132.539 223.59C91.5261 253.757 66.0837 267.067 12.9253 279.403H-95.1872C-98.0817 292.675 -101.192 300.623 -111.289 316.612C-125.383 335.547 -136.78 345.968 -164.195 364.157C-190.322 382.837 -206.15 391.927 -240.104 401.366C-268.14 405.988 -283.342 410.207 -309.112 422.037C-324.896 430.738 -331.198 437.263 -329.814 457.179C-326.979 472.047 -324.589 480.288 -313.713 494.388C-298.292 509.891 -289.189 518.298 -270.007 531.597C-258.736 537.765 -252.086 539.472 -240.104 541.933H65.8315L98.0352 535.731C124.958 529.61 139.333 524.073 162.443 506.791C191.578 484.034 203.938 469.999 213.049 440.642C232.302 401.007 238.322 383.719 252.153 349.687C273.185 306.271 285.136 283.057 307.359 248.396C332.201 200.061 348.688 177.988 385.568 153.306C406.223 145.962 417.822 145.155 438.475 153.306C451.219 162.688 457.091 169.184 461.477 186.381L470.678 246.328C473.12 257.602 474.599 266.277 477.579 310.41C477.579 310.41 477.813 338.38 477.579 357.955L472.979 544H509.783V498.522L512.083 372.425C513.358 342.518 514.978 325.743 518.984 295.94C522.373 266.68 525.006 250.027 532.786 219.455C537.184 197.067 540.159 184.795 546.587 163.642C554.953 138.32 559.356 129.386 567.29 111.963C577.336 88.8315 582.473 75.5021 594.893 54.0821C612.581 25.633 622.75 10.586 640.898 -16.2015C650.613 -34.7431 653.53 -44.562 657 -61.6791V-63.7463C656.641 -89.9193 655.812 -104.047 652.399 -127.828C649.285 -144.79 644.218 -154.276 631.697 -171.239C614.684 -188.771 604.143 -198.695 581.091 -216.716L484.48 -287L311.96 -26.5373C277.797 20.7348 260.344 49.4731 231.451 103.694C204.147 154.336 182.942 180.691 132.539 223.59Z" stroke="#55ACD3" stroke-opacity="0.62" shape-rendering="crispEdges"/>
</g>
<defs>
<filter id="filter0_d_459_279" x="-434.7" y="-391.912" width="1236.4" height="1080.61" filterUnits="userSpaceOnUse" color-interpolation-filters="sRGB">
<feFlood flood-opacity="0" result="BackgroundImageFix"/>
<feColorMatrix in="SourceAlpha" type="matrix" values="0 0 0 0 0 0 0 0 0 0 0 0 0 0 0 0 0 0 127 0" result="hardAlpha"/>
<feOffset dx="20" dy="20"/>
<feGaussianBlur stdDeviation="62.1"/>
<feComposite in2="hardAlpha" operator="out"/>
<feColorMatrix type="matrix" values="0 0 0 0 0.131111 0 0 0 0 0.827093 0 0 0 0 0.983333 0 0 0 0.25 0"/>
<feBlend mode="normal" in2="BackgroundImageFix" result="effect1_dropShadow_459_279"/>
<feBlend mode="normal" in="SourceGraphic" in2="effect1_dropShadow_459_279" result="shape"/>
</filter>
</defs>
</svg>
