<svg width="329" height="330" viewBox="0 0 329 330" fill="none" xmlns="http://www.w3.org/2000/svg">
<rect width="987" height="990" transform="translate(-331 -660)" fill="white"/>
<g filter="url(#filter0_d_459_279)">
<path d="M131.539 -106.41C90.5261 -76.2428 65.0837 -62.9332 11.9253 -50.597H-96.1872C-99.0817 -37.3253 -102.192 -29.3773 -112.289 -13.3881C-126.383 5.54712 -137.78 15.9676 -165.195 34.1567C-191.322 52.8367 -207.15 61.9268 -241.104 71.3657C-269.14 75.988 -284.342 80.2066 -310.112 92.0373C-325.896 100.738 -332.198 107.263 -330.814 127.179C-327.979 142.047 -325.589 150.288 -314.713 164.388C-299.292 179.891 -290.189 188.298 -271.007 201.597C-259.736 207.765 -253.086 209.472 -241.104 211.933H64.8315L97.0352 205.731C123.958 199.61 138.333 194.073 161.443 176.791C190.578 154.034 202.938 139.999 212.049 110.642C231.302 71.007 237.322 53.7194 251.153 19.6866C272.185 -23.7294 284.136 -46.9432 306.359 -81.6045C331.201 -129.939 347.688 -152.012 384.568 -176.694C405.223 -184.038 416.822 -184.845 437.475 -176.694C450.219 -167.312 456.091 -160.816 460.477 -143.619L469.678 -83.6716C472.12 -72.3977 473.599 -63.7227 476.579 -19.5895C476.579 -19.5895 476.813 8.37952 476.579 27.9553L471.979 214H508.783V168.522L511.083 42.4254C512.358 12.5181 513.978 -4.25726 517.984 -34.0597C521.373 -63.3198 524.006 -79.9731 531.786 -110.545C536.184 -132.933 539.159 -145.205 545.587 -166.358C553.953 -191.68 558.356 -200.614 566.29 -218.037C576.336 -241.169 581.473 -254.498 593.893 -275.918C611.581 -304.367 621.75 -319.414 639.898 -346.201C649.613 -364.743 652.53 -374.562 656 -391.679V-393.746C655.641 -419.919 654.812 -434.047 651.399 -457.828C648.285 -474.79 643.218 -484.276 630.697 -501.239C613.684 -518.771 603.143 -528.695 580.091 -546.716L483.48 -617L310.96 -356.537C276.797 -309.265 259.344 -280.527 230.451 -226.306C203.147 -175.664 181.942 -149.309 131.539 -106.41Z" fill="#47BCEE" shape-rendering="crispEdges"/>
<path d="M131.539 -106.41C90.5261 -76.2428 65.0837 -62.9332 11.9253 -50.597H-96.1872C-99.0817 -37.3253 -102.192 -29.3773 -112.289 -13.3881C-126.383 5.54712 -137.78 15.9676 -165.195 34.1567C-191.322 52.8367 -207.15 61.9268 -241.104 71.3657C-269.14 75.988 -284.342 80.2066 -310.112 92.0373C-325.896 100.738 -332.198 107.263 -330.814 127.179C-327.979 142.047 -325.589 150.288 -314.713 164.388C-299.292 179.891 -290.189 188.298 -271.007 201.597C-259.736 207.765 -253.086 209.472 -241.104 211.933H64.8315L97.0352 205.731C123.958 199.61 138.333 194.073 161.443 176.791C190.578 154.034 202.938 139.999 212.049 110.642C231.302 71.007 237.322 53.7194 251.153 19.6866C272.185 -23.7294 284.136 -46.9432 306.359 -81.6045C331.201 -129.939 347.688 -152.012 384.568 -176.694C405.223 -184.038 416.822 -184.845 437.475 -176.694C450.219 -167.312 456.091 -160.816 460.477 -143.619L469.678 -83.6716C472.12 -72.3977 473.599 -63.7227 476.579 -19.5895C476.579 -19.5895 476.813 8.37952 476.579 27.9553L471.979 214H508.783V168.522L511.083 42.4254C512.358 12.5181 513.978 -4.25726 517.984 -34.0597C521.373 -63.3198 524.006 -79.9731 531.786 -110.545C536.184 -132.933 539.159 -145.205 545.587 -166.358C553.953 -191.68 558.356 -200.614 566.29 -218.037C576.336 -241.169 581.473 -254.498 593.893 -275.918C611.581 -304.367 621.75 -319.414 639.898 -346.201C649.613 -364.743 652.53 -374.562 656 -391.679V-393.746C655.641 -419.919 654.812 -434.047 651.399 -457.828C648.285 -474.79 643.218 -484.276 630.697 -501.239C613.684 -518.771 603.143 -528.695 580.091 -546.716L483.48 -617L310.96 -356.537C276.797 -309.265 259.344 -280.527 230.451 -226.306C203.147 -175.664 181.942 -149.309 131.539 -106.41Z" stroke="#55ACD3" stroke-opacity="0.62" shape-rendering="crispEdges"/>
</g>
<defs>
<filter id="filter0_d_459_279" x="-435.7" y="-721.912" width="1236.4" height="1080.61" filterUnits="userSpaceOnUse" color-interpolation-filters="sRGB">
<feFlood flood-opacity="0" result="BackgroundImageFix"/>
<feColorMatrix in="SourceAlpha" type="matrix" values="0 0 0 0 0 0 0 0 0 0 0 0 0 0 0 0 0 0 127 0" result="hardAlpha"/>
<feOffset dx="20" dy="20"/>
<feGaussianBlur stdDeviation="62.1"/>
<feComposite in2="hardAlpha" operator="out"/>
<feColorMatrix type="matrix" values="0 0 0 0 0.131111 0 0 0 0 0.827093 0 0 0 0 0.983333 0 0 0 0.25 0"/>
<feBlend mode="normal" in2="BackgroundImageFix" result="effect1_dropShadow_459_279"/>
<feBlend mode="normal" in="SourceGraphic" in2="effect1_dropShadow_459_279" result="shape"/>
</filter>
</defs>
</svg>
