<svg width="330" height="330" viewBox="0 0 330 330" fill="none" xmlns="http://www.w3.org/2000/svg">
<rect width="990" height="990" transform="translate(-660 -660)" fill="white"/>
<g filter="url(#filter0_d_459_279)">
<path d="M-197.461 -106.41C-238.474 -76.2428 -263.916 -62.9332 -317.075 -50.597H-425.187C-428.082 -37.3253 -431.192 -29.3773 -441.289 -13.3881C-455.383 5.54712 -466.78 15.9676 -494.195 34.1567C-520.322 52.8367 -536.15 61.9268 -570.104 71.3657C-598.14 75.988 -613.342 80.2066 -639.112 92.0373C-654.896 100.738 -661.198 107.263 -659.814 127.179C-656.979 142.047 -654.589 150.288 -643.713 164.388C-628.292 179.891 -619.189 188.298 -600.007 201.597C-588.736 207.765 -582.086 209.472 -570.104 211.933H-264.169L-231.965 205.731C-205.042 199.61 -190.667 194.073 -167.557 176.791C-138.422 154.034 -126.062 139.999 -116.951 110.642C-97.6981 71.007 -91.6779 53.7194 -77.8469 19.6866C-56.815 -23.7294 -44.8635 -46.9432 -22.6406 -81.6045C2.20062 -129.939 18.6876 -152.012 55.5685 -176.694C76.223 -184.038 87.8223 -184.845 108.475 -176.694C121.219 -167.312 127.091 -160.816 131.477 -143.619L140.678 -83.6716C143.12 -72.3977 144.599 -63.7227 147.579 -19.5895C147.579 -19.5895 147.813 8.37952 147.579 27.9553L142.979 214H179.783V168.522L182.083 42.4254C183.358 12.5181 184.978 -4.25726 188.984 -34.0597C192.373 -63.3198 195.006 -79.9731 202.786 -110.545C207.184 -132.933 210.159 -145.205 216.587 -166.358C224.953 -191.68 229.356 -200.614 237.29 -218.037C247.336 -241.169 252.473 -254.498 264.893 -275.918C282.581 -304.367 292.75 -319.414 310.898 -346.201C320.613 -364.743 323.53 -374.562 327 -391.679V-393.746C326.641 -419.919 325.812 -434.047 322.399 -457.828C319.285 -474.79 314.218 -484.276 301.697 -501.239C284.684 -518.771 274.143 -528.695 251.091 -546.716L154.48 -617L-18.04 -356.537C-52.2026 -309.265 -69.6561 -280.527 -98.5494 -226.306C-125.853 -175.664 -147.058 -149.309 -197.461 -106.41Z" fill="#47BCEE" shape-rendering="crispEdges"/>
<path d="M-197.461 -106.41C-238.474 -76.2428 -263.916 -62.9332 -317.075 -50.597H-425.187C-428.082 -37.3253 -431.192 -29.3773 -441.289 -13.3881C-455.383 5.54712 -466.78 15.9676 -494.195 34.1567C-520.322 52.8367 -536.15 61.9268 -570.104 71.3657C-598.14 75.988 -613.342 80.2066 -639.112 92.0373C-654.896 100.738 -661.198 107.263 -659.814 127.179C-656.979 142.047 -654.589 150.288 -643.713 164.388C-628.292 179.891 -619.189 188.298 -600.007 201.597C-588.736 207.765 -582.086 209.472 -570.104 211.933H-264.169L-231.965 205.731C-205.042 199.61 -190.667 194.073 -167.557 176.791C-138.422 154.034 -126.062 139.999 -116.951 110.642C-97.6981 71.007 -91.6779 53.7194 -77.8469 19.6866C-56.815 -23.7294 -44.8635 -46.9432 -22.6406 -81.6045C2.20062 -129.939 18.6876 -152.012 55.5685 -176.694C76.223 -184.038 87.8223 -184.845 108.475 -176.694C121.219 -167.312 127.091 -160.816 131.477 -143.619L140.678 -83.6716C143.12 -72.3977 144.599 -63.7227 147.579 -19.5895C147.579 -19.5895 147.813 8.37952 147.579 27.9553L142.979 214H179.783V168.522L182.083 42.4254C183.358 12.5181 184.978 -4.25726 188.984 -34.0597C192.373 -63.3198 195.006 -79.9731 202.786 -110.545C207.184 -132.933 210.159 -145.205 216.587 -166.358C224.953 -191.68 229.356 -200.614 237.29 -218.037C247.336 -241.169 252.473 -254.498 264.893 -275.918C282.581 -304.367 292.75 -319.414 310.898 -346.201C320.613 -364.743 323.53 -374.562 327 -391.679V-393.746C326.641 -419.919 325.812 -434.047 322.399 -457.828C319.285 -474.79 314.218 -484.276 301.697 -501.239C284.684 -518.771 274.143 -528.695 251.091 -546.716L154.48 -617L-18.04 -356.537C-52.2026 -309.265 -69.6561 -280.527 -98.5494 -226.306C-125.853 -175.664 -147.058 -149.309 -197.461 -106.41Z" stroke="#55ACD3" stroke-opacity="0.62" shape-rendering="crispEdges"/>
</g>
<defs>
<filter id="filter0_d_459_279" x="-764.7" y="-721.912" width="1236.4" height="1080.61" filterUnits="userSpaceOnUse" color-interpolation-filters="sRGB">
<feFlood flood-opacity="0" result="BackgroundImageFix"/>
<feColorMatrix in="SourceAlpha" type="matrix" values="0 0 0 0 0 0 0 0 0 0 0 0 0 0 0 0 0 0 127 0" result="hardAlpha"/>
<feOffset dx="20" dy="20"/>
<feGaussianBlur stdDeviation="62.1"/>
<feComposite in2="hardAlpha" operator="out"/>
<feColorMatrix type="matrix" values="0 0 0 0 0.131111 0 0 0 0 0.827093 0 0 0 0 0.983333 0 0 0 0.25 0"/>
<feBlend mode="normal" in2="BackgroundImageFix" result="effect1_dropShadow_459_279"/>
<feBlend mode="normal" in="SourceGraphic" in2="effect1_dropShadow_459_279" result="shape"/>
</filter>
</defs>
</svg>
