<svg width="329" height="330" viewBox="0 0 329 330" fill="none" xmlns="http://www.w3.org/2000/svg">
<rect width="987" height="990" transform="translate(-1 -660)" fill="white"/>
<g filter="url(#filter0_d_459_279)">
<path d="M461.539 -106.41C420.526 -76.2428 395.084 -62.9332 341.925 -50.597H233.813C230.918 -37.3253 227.808 -29.3773 217.711 -13.3881C203.617 5.54712 192.22 15.9676 164.805 34.1567C138.678 52.8367 122.85 61.9268 88.8957 71.3657C60.8601 75.988 45.6575 80.2066 19.888 92.0373C4.10359 100.738 -2.19822 107.263 -0.814427 127.179C2.02129 142.047 4.41081 150.288 15.2874 164.388C30.7083 179.891 39.811 188.298 58.9925 201.597C70.2641 207.765 76.914 209.472 88.896 211.933H394.831L427.035 205.731C453.958 199.61 468.333 194.073 491.443 176.791C520.578 154.034 532.938 139.999 542.049 110.642C561.302 71.007 567.322 53.7194 581.153 19.6866C602.185 -23.7294 614.136 -46.9432 636.359 -81.6045C661.201 -129.939 677.688 -152.012 714.568 -176.694C735.223 -184.038 746.822 -184.845 767.475 -176.694C780.219 -167.312 786.091 -160.816 790.477 -143.619L799.678 -83.6716C802.12 -72.3977 803.599 -63.7227 806.579 -19.5895C806.579 -19.5895 806.813 8.37952 806.579 27.9553L801.979 214H838.783V168.522L841.083 42.4254C842.358 12.5181 843.978 -4.25726 847.984 -34.0597C851.373 -63.3198 854.006 -79.9731 861.786 -110.545C866.184 -132.933 869.159 -145.205 875.587 -166.358C883.953 -191.68 888.356 -200.614 896.29 -218.037C906.336 -241.169 911.473 -254.498 923.893 -275.918C941.581 -304.367 951.75 -319.414 969.898 -346.201C979.613 -364.743 982.53 -374.562 986 -391.679V-393.746C985.641 -419.919 984.812 -434.047 981.399 -457.828C978.285 -474.79 973.218 -484.276 960.697 -501.239C943.684 -518.771 933.143 -528.695 910.091 -546.716L813.48 -617L640.96 -356.537C606.797 -309.265 589.344 -280.527 560.451 -226.306C533.147 -175.664 511.942 -149.309 461.539 -106.41Z" fill="#47BCEE" shape-rendering="crispEdges"/>
<path d="M461.539 -106.41C420.526 -76.2428 395.084 -62.9332 341.925 -50.597H233.813C230.918 -37.3253 227.808 -29.3773 217.711 -13.3881C203.617 5.54712 192.22 15.9676 164.805 34.1567C138.678 52.8367 122.85 61.9268 88.8957 71.3657C60.8601 75.988 45.6575 80.2066 19.888 92.0373C4.10359 100.738 -2.19822 107.263 -0.814427 127.179C2.02129 142.047 4.41081 150.288 15.2874 164.388C30.7083 179.891 39.811 188.298 58.9925 201.597C70.2641 207.765 76.914 209.472 88.896 211.933H394.831L427.035 205.731C453.958 199.61 468.333 194.073 491.443 176.791C520.578 154.034 532.938 139.999 542.049 110.642C561.302 71.007 567.322 53.7194 581.153 19.6866C602.185 -23.7294 614.136 -46.9432 636.359 -81.6045C661.201 -129.939 677.688 -152.012 714.568 -176.694C735.223 -184.038 746.822 -184.845 767.475 -176.694C780.219 -167.312 786.091 -160.816 790.477 -143.619L799.678 -83.6716C802.12 -72.3977 803.599 -63.7227 806.579 -19.5895C806.579 -19.5895 806.813 8.37952 806.579 27.9553L801.979 214H838.783V168.522L841.083 42.4254C842.358 12.5181 843.978 -4.25726 847.984 -34.0597C851.373 -63.3198 854.006 -79.9731 861.786 -110.545C866.184 -132.933 869.159 -145.205 875.587 -166.358C883.953 -191.68 888.356 -200.614 896.29 -218.037C906.336 -241.169 911.473 -254.498 923.893 -275.918C941.581 -304.367 951.75 -319.414 969.898 -346.201C979.613 -364.743 982.53 -374.562 986 -391.679V-393.746C985.641 -419.919 984.812 -434.047 981.399 -457.828C978.285 -474.79 973.218 -484.276 960.697 -501.239C943.684 -518.771 933.143 -528.695 910.091 -546.716L813.48 -617L640.96 -356.537C606.797 -309.265 589.344 -280.527 560.451 -226.306C533.147 -175.664 511.942 -149.309 461.539 -106.41Z" stroke="#55ACD3" stroke-opacity="0.62" shape-rendering="crispEdges"/>
</g>
<defs>
<filter id="filter0_d_459_279" x="-105.7" y="-721.912" width="1236.4" height="1080.61" filterUnits="userSpaceOnUse" color-interpolation-filters="sRGB">
<feFlood flood-opacity="0" result="BackgroundImageFix"/>
<feColorMatrix in="SourceAlpha" type="matrix" values="0 0 0 0 0 0 0 0 0 0 0 0 0 0 0 0 0 0 127 0" result="hardAlpha"/>
<feOffset dx="20" dy="20"/>
<feGaussianBlur stdDeviation="62.1"/>
<feComposite in2="hardAlpha" operator="out"/>
<feColorMatrix type="matrix" values="0 0 0 0 0.131111 0 0 0 0 0.827093 0 0 0 0 0.983333 0 0 0 0.25 0"/>
<feBlend mode="normal" in2="BackgroundImageFix" result="effect1_dropShadow_459_279"/>
<feBlend mode="normal" in="SourceGraphic" in2="effect1_dropShadow_459_279" result="shape"/>
</filter>
</defs>
</svg>
