<svg width="1302" height="1080" viewBox="0 0 1302 1080" fill="none" xmlns="http://www.w3.org/2000/svg">
<g filter="url(#filter0_d_454_278)">
<path d="M598 621.154C554.286 653.246 527.168 667.404 470.509 680.527H355.277C352.192 694.646 348.876 703.101 338.114 720.109C323.092 740.252 310.945 751.337 281.724 770.687C253.876 790.558 237.006 800.228 200.816 810.269C170.934 815.186 154.73 819.674 127.264 832.259C110.44 841.515 103.723 848.456 105.198 869.642C108.22 885.457 110.767 894.224 122.36 909.224C138.796 925.715 148.499 934.659 168.943 948.806C180.957 955.367 188.045 957.184 200.816 959.801H526.899L561.224 953.204C589.92 946.692 605.242 940.803 629.873 922.418C660.927 898.209 674.101 883.279 683.812 852.05C704.333 809.887 710.75 791.497 725.491 755.294C747.908 709.109 760.647 684.414 784.333 647.542C810.811 596.125 828.383 572.645 867.693 546.388C889.708 538.576 902.071 537.718 924.083 546.388C937.667 556.368 943.926 563.279 948.601 581.572L958.408 645.343C961.01 657.336 962.587 666.565 965.763 713.512C965.763 713.512 966.012 743.265 965.763 764.09L960.86 962H1000.09V913.622L1002.54 779.483C1003.9 747.668 1005.63 729.823 1009.89 698.119C1013.51 666.993 1016.31 649.278 1024.61 616.756C1029.29 592.94 1032.46 579.886 1039.32 557.383C1048.23 530.446 1052.93 520.942 1061.38 502.408C1072.09 477.802 1077.56 463.622 1090.8 440.836C1109.66 410.572 1120.49 394.566 1139.84 366.07C1150.19 346.345 1153.3 335.9 1157 317.692V315.493C1156.62 287.65 1155.73 272.621 1152.1 247.323C1148.78 229.28 1143.38 219.189 1130.03 201.144C1111.9 182.494 1100.66 171.937 1076.09 152.766L973.118 78L789.237 355.075C752.825 405.362 734.222 435.933 703.426 493.612C674.324 547.484 651.722 575.519 598 621.154Z" fill="#47BCEE" shape-rendering="crispEdges"/>
<path d="M598 621.154C554.286 653.246 527.168 667.404 470.509 680.527H355.277C352.192 694.646 348.876 703.101 338.114 720.109C323.092 740.252 310.945 751.337 281.724 770.687C253.876 790.558 237.006 800.228 200.816 810.269C170.934 815.186 154.73 819.674 127.264 832.259C110.44 841.515 103.723 848.456 105.198 869.642C108.22 885.457 110.767 894.224 122.36 909.224C138.796 925.715 148.499 934.659 168.943 948.806C180.957 955.367 188.045 957.184 200.816 959.801H526.899L561.224 953.204C589.92 946.692 605.242 940.803 629.873 922.418C660.927 898.209 674.101 883.279 683.812 852.05C704.333 809.887 710.75 791.497 725.491 755.294C747.908 709.109 760.647 684.414 784.333 647.542C810.811 596.125 828.383 572.645 867.693 546.388C889.708 538.576 902.071 537.718 924.083 546.388C937.667 556.368 943.926 563.279 948.601 581.572L958.408 645.343C961.01 657.336 962.587 666.565 965.763 713.512C965.763 713.512 966.012 743.265 965.763 764.09L960.86 962H1000.09V913.622L1002.54 779.483C1003.9 747.668 1005.63 729.823 1009.89 698.119C1013.51 666.993 1016.31 649.278 1024.61 616.756C1029.29 592.94 1032.46 579.886 1039.32 557.383C1048.23 530.446 1052.93 520.942 1061.38 502.408C1072.09 477.802 1077.56 463.622 1090.8 440.836C1109.66 410.572 1120.49 394.566 1139.84 366.07C1150.19 346.345 1153.3 335.9 1157 317.692V315.493C1156.62 287.65 1155.73 272.621 1152.1 247.323C1148.78 229.28 1143.38 219.189 1130.03 201.144C1111.9 182.494 1100.66 171.937 1076.09 152.766L973.118 78L789.237 355.075C752.825 405.362 734.222 435.933 703.426 493.612C674.324 547.484 651.722 575.519 598 621.154Z" stroke="#55ACD3" stroke-opacity="0.62" shape-rendering="crispEdges"/>
</g>
<defs>
<filter id="filter0_d_454_278" x="0.300003" y="-26.9109" width="1301.4" height="1133.61" filterUnits="userSpaceOnUse" color-interpolation-filters="sRGB">
<feFlood flood-opacity="0" result="BackgroundImageFix"/>
<feColorMatrix in="SourceAlpha" type="matrix" values="0 0 0 0 0 0 0 0 0 0 0 0 0 0 0 0 0 0 127 0" result="hardAlpha"/>
<feOffset dx="20" dy="20"/>
<feGaussianBlur stdDeviation="62.1"/>
<feComposite in2="hardAlpha" operator="out"/>
<feColorMatrix type="matrix" values="0 0 0 0 0.131111 0 0 0 0 0.827093 0 0 0 0 0.983333 0 0 0 0.25 0"/>
<feBlend mode="normal" in2="BackgroundImageFix" result="effect1_dropShadow_454_278"/>
<feBlend mode="normal" in="SourceGraphic" in2="effect1_dropShadow_454_278" result="shape"/>
</filter>
</defs>
</svg>
