<svg width="1916" height="1080" viewBox="0 0 1916 1080" fill="none" xmlns="http://www.w3.org/2000/svg">
<path d="M4.77002 1073.98L6.12289 644.385" stroke="#BAC9BC" stroke-width="8" stroke-linecap="square"/>
<path d="M6.46143 536.988L8.15251 0.00088657" stroke="#BAC9BC" stroke-width="8" stroke-linecap="square"/>
<path d="M133.005 644.785L133.682 429.99" stroke="#BAC9BC" stroke-width="8" stroke-linecap="square"/>
<path d="M134.02 322.593L134.358 215.195" stroke="#BAC9BC" stroke-width="8" stroke-linecap="square"/>
<path d="M258.873 967.377L259.211 859.979" stroke="#BAC9BC" stroke-width="8" stroke-linecap="square"/>
<path d="M260.564 430.39L261.579 108.197" stroke="#BAC9BC" stroke-width="8" stroke-linecap="square"/>
<path d="M386.093 860.379L387.446 430.789" stroke="#BAC9BC" stroke-width="8" stroke-linecap="square"/>
<path d="M387.784 323.392L388.799 1.19916" stroke="#BAC9BC" stroke-width="8" stroke-linecap="square"/>
<path d="M512.298 1075.57L512.636 968.176" stroke="#BAC9BC" stroke-width="8" stroke-linecap="square"/>
<path d="M513.312 753.381L513.651 645.984" stroke="#BAC9BC" stroke-width="8" stroke-linecap="square"/>
<path d="M514.328 431.189L515.342 108.997" stroke="#BAC9BC" stroke-width="8" stroke-linecap="square"/>
<path d="M641.209 431.588L641.548 324.191" stroke="#BAC9BC" stroke-width="8" stroke-linecap="square"/>
<path d="M766.401 968.976L767.077 754.181" stroke="#BAC9BC" stroke-width="8" stroke-linecap="square"/>
<path d="M767.416 646.783L768.092 431.988" stroke="#BAC9BC" stroke-width="8" stroke-linecap="square"/>
<path d="M768.769 217.193L769.445 2.39793" stroke="#BAC9BC" stroke-width="8" stroke-linecap="square"/>
<path d="M892.945 1076.77L893.283 969.375" stroke="#BAC9BC" stroke-width="8" stroke-linecap="square"/>
<path d="M893.959 754.58L894.298 647.183" stroke="#BAC9BC" stroke-width="8" stroke-linecap="square"/>
<path d="M895.65 217.592L895.988 110.195" stroke="#BAC9BC" stroke-width="8" stroke-linecap="square"/>
<path d="M1020.5 862.377L1021.52 540.185" stroke="#BAC9BC" stroke-width="8" stroke-linecap="square"/>
<path d="M1021.86 432.788L1022.53 217.993" stroke="#BAC9BC" stroke-width="8" stroke-linecap="square"/>
<path d="M1148.06 647.981L1148.74 433.187" stroke="#BAC9BC" stroke-width="8" stroke-linecap="square"/>
<path d="M1149.75 110.994L1150.09 3.59667" stroke="#BAC9BC" stroke-width="8" stroke-linecap="square"/>
<path d="M1273.59 1077.97L1273.93 970.574" stroke="#BAC9BC" stroke-width="8" stroke-linecap="square"/>
<path d="M1274.6 755.779L1274.94 648.381" stroke="#BAC9BC" stroke-width="8" stroke-linecap="square"/>
<path d="M1275.28 540.984L1276.3 218.791" stroke="#BAC9BC" stroke-width="8" stroke-linecap="square"/>
<path d="M1400.81 970.973L1401.49 756.178" stroke="#BAC9BC" stroke-width="8" stroke-linecap="square"/>
<path d="M1402.16 541.383L1402.5 433.986" stroke="#BAC9BC" stroke-width="8" stroke-linecap="square"/>
<path d="M1403.18 219.191L1403.85 4.39646" stroke="#BAC9BC" stroke-width="8" stroke-linecap="square"/>
<path d="M1527.69 971.373L1528.37 756.578" stroke="#BAC9BC" stroke-width="8" stroke-linecap="square"/>
<path d="M1529.05 541.783L1530.06 219.591" stroke="#BAC9BC" stroke-width="8" stroke-linecap="square"/>
<path d="M1530.4 112.193L1530.74 4.79589" stroke="#BAC9BC" stroke-width="8" stroke-linecap="square"/>
<path d="M1654.57 971.772L1655.25 756.978" stroke="#BAC9BC" stroke-width="8" stroke-linecap="square"/>
<path d="M1655.59 649.58L1655.93 542.183" stroke="#BAC9BC" stroke-width="8" stroke-linecap="square"/>
<path d="M1656.27 434.785L1657.28 112.593" stroke="#BAC9BC" stroke-width="8" stroke-linecap="square"/>
<path d="M1781.12 1079.57L1781.46 972.172" stroke="#BAC9BC" stroke-width="8" stroke-linecap="square"/>
<path d="M1782.13 757.377L1782.47 649.979" stroke="#BAC9BC" stroke-width="8" stroke-linecap="square"/>
<path d="M1782.81 542.582L1783.82 220.39" stroke="#BAC9BC" stroke-width="8" stroke-linecap="square"/>
<path d="M1784.16 112.992L1784.5 5.59472" stroke="#BAC9BC" stroke-width="8" stroke-linecap="square"/>
<path d="M1908 1079.97L1911.38 5.99445" stroke="#BAC9BC" stroke-width="8" stroke-linecap="square"/>
<path d="M4.77002 1073.98L1908 1079.97" stroke="#BAC9BC" stroke-width="8" stroke-linecap="square"/>
<path d="M131.991 966.978L766.401 968.975" stroke="#BAC9BC" stroke-width="8" stroke-linecap="square"/>
<path d="M893.283 969.375L1147.05 970.174" stroke="#BAC9BC" stroke-width="8" stroke-linecap="square"/>
<path d="M132.329 859.58L259.211 859.98" stroke="#BAC9BC" stroke-width="8" stroke-linecap="square"/>
<path d="M386.093 860.379L512.975 860.778" stroke="#BAC9BC" stroke-width="8" stroke-linecap="square"/>
<path d="M893.621 861.978L1401.15 863.576" stroke="#BAC9BC" stroke-width="8" stroke-linecap="square"/>
<path d="M1654.91 864.375L1908.68 865.174" stroke="#BAC9BC" stroke-width="8" stroke-linecap="square"/>
<path d="M5.78516 751.783L386.431 752.982" stroke="#BAC9BC" stroke-width="8" stroke-linecap="square"/>
<path d="M1020.84 754.979L1274.6 755.779" stroke="#BAC9BC" stroke-width="8" stroke-linecap="square"/>
<path d="M1401.49 756.178L1528.37 756.578" stroke="#BAC9BC" stroke-width="8" stroke-linecap="square"/>
<path d="M133.005 644.785L259.887 645.185" stroke="#BAC9BC" stroke-width="8" stroke-linecap="square"/>
<path d="M386.77 645.584L513.652 645.984" stroke="#BAC9BC" stroke-width="8" stroke-linecap="square"/>
<path d="M767.416 646.783L1021.18 647.582" stroke="#BAC9BC" stroke-width="8" stroke-linecap="square"/>
<path d="M1274.94 648.381L1528.71 649.181" stroke="#BAC9BC" stroke-width="8" stroke-linecap="square"/>
<path d="M1782.47 649.979L1909.35 650.379" stroke="#BAC9BC" stroke-width="8" stroke-linecap="square"/>
<path d="M260.226 537.787L387.108 538.187" stroke="#BAC9BC" stroke-width="8" stroke-linecap="square"/>
<path d="M1148.4 540.584L1275.28 540.984" stroke="#BAC9BC" stroke-width="8" stroke-linecap="square"/>
<path d="M1529.05 541.783L1655.93 542.183" stroke="#BAC9BC" stroke-width="8" stroke-linecap="square"/>
<path d="M133.682 429.99L260.564 430.39" stroke="#BAC9BC" stroke-width="8" stroke-linecap="square"/>
<path d="M387.446 430.789L514.328 431.189" stroke="#BAC9BC" stroke-width="8" stroke-linecap="square"/>
<path d="M768.092 431.988L1148.74 433.187" stroke="#BAC9BC" stroke-width="8" stroke-linecap="square"/>
<path d="M1402.5 433.986L1529.38 434.385" stroke="#BAC9BC" stroke-width="8" stroke-linecap="square"/>
<path d="M260.902 322.992L387.784 323.392" stroke="#BAC9BC" stroke-width="8" stroke-linecap="square"/>
<path d="M514.666 323.791L895.312 324.99" stroke="#BAC9BC" stroke-width="8" stroke-linecap="square"/>
<path d="M1149.08 325.789L1402.84 326.588" stroke="#BAC9BC" stroke-width="8" stroke-linecap="square"/>
<path d="M1529.72 326.988L1656.6 327.387" stroke="#BAC9BC" stroke-width="8" stroke-linecap="square"/>
<path d="M134.358 215.195L261.24 215.595" stroke="#BAC9BC" stroke-width="8" stroke-linecap="square"/>
<path d="M515.004 216.394L641.886 216.794" stroke="#BAC9BC" stroke-width="8" stroke-linecap="square"/>
<path d="M895.65 217.592L1149.41 218.391" stroke="#BAC9BC" stroke-width="8" stroke-linecap="square"/>
<path d="M1276.3 218.792L1403.18 219.191" stroke="#BAC9BC" stroke-width="8" stroke-linecap="square"/>
<path d="M1783.82 220.39L1910.71 220.789" stroke="#BAC9BC" stroke-width="8" stroke-linecap="square"/>
<path d="M7.81396 107.398L134.696 107.798" stroke="#BAC9BC" stroke-width="8" stroke-linecap="square"/>
<path d="M642.224 109.396L769.106 109.796" stroke="#BAC9BC" stroke-width="8" stroke-linecap="square"/>
<path d="M1022.87 110.595L1276.63 111.394" stroke="#BAC9BC" stroke-width="8" stroke-linecap="square"/>
<path d="M1657.28 112.593L1784.16 112.992" stroke="#BAC9BC" stroke-width="8" stroke-linecap="square"/>
<path d="M8.15234 0.000488281L1911.38 5.99415" stroke="#BAC9BC" stroke-width="8" stroke-linecap="square"/>
</svg>
