<svg width="240" height="246" viewBox="0 0 240 246" fill="none" xmlns="http://www.w3.org/2000/svg">
<path d="M33.5689 110.638L127.618 106.385L126.399 136.462L33.5689 110.638Z" fill="#FFF6E9"/>
<path d="M29.1202 126.492L123.162 122.232L121.942 152.309L29.1202 126.492Z" fill="#FFF6E9"/>
<path d="M73.5884 190.045L130.71 122.094L102.697 105.971L73.5884 190.045Z" fill="#FFF6E9"/>
<path d="M57.1917 179.664L95.832 99.1138L121.176 119.368L57.1917 179.664Z" fill="#FFF6E9"/>
<path d="M20.6209 167.906L108.189 141.094L90.6145 114.225L20.6209 167.906Z" fill="#FFF6E9"/>
<path d="M106.331 66.6643L142.144 49.5494C153.038 44.3712 166.082 43.8955 178.421 48.2266C190.761 52.5577 201.39 61.3427 207.983 72.6583L211.544 78.7923C216.682 87.6459 219.028 97.551 218.253 107.117C217.378 100.752 215.191 94.4829 211.826 88.7003L208.278 82.5659C201.686 71.2503 191.056 62.4653 178.717 58.1342C166.377 53.8031 153.333 54.2787 142.44 59.457L106.632 76.5649C100.082 79.7065 94.5764 84.4359 90.5772 90.3573C86.578 96.2787 84.2011 103.22 83.6453 110.6C82.3613 101.405 83.8251 92.345 87.8562 84.5377C91.8874 76.7304 98.3095 70.5172 106.331 66.6643Z" fill="#EA83AA"/>
<path d="M106.63 76.5511L142.438 59.4433C153.332 54.265 166.376 53.7893 178.715 58.1205C191.055 62.4516 201.684 71.2366 208.277 82.5522L211.824 88.6866C215.187 94.4744 217.371 100.748 218.239 107.117C217.674 114.495 215.289 121.431 211.283 127.347C207.277 133.262 201.767 137.985 195.214 141.119L159.423 158.206C148.525 163.373 135.483 163.842 123.145 159.511C110.808 155.18 100.178 146.401 93.5772 135.091L90.0236 128.963C86.6629 123.18 84.48 116.911 83.6105 110.546C84.1756 103.17 86.5604 96.2355 90.5652 90.3213C94.5701 84.407 100.079 79.6854 106.63 76.5511Z" fill="#EA83AA"/>
<path d="M144.625 142.579L165.34 63.233" stroke="white" stroke-opacity="0.59" stroke-width="2.5" stroke-miterlimit="10" stroke-linecap="round"/>
<path d="M162.88 138.307L181.056 70.7736" stroke="white" stroke-opacity="0.59" stroke-width="2.5" stroke-miterlimit="10" stroke-linecap="round"/>
<path d="M127.795 138.305L146.974 64.8323" stroke="white" stroke-opacity="0.59" stroke-width="2.5" stroke-miterlimit="10" stroke-linecap="round"/>
<path d="M111.874 127.583L125.938 73.7026" stroke="white" stroke-opacity="0.59" stroke-width="2.5" stroke-miterlimit="10" stroke-linecap="round"/>
<path d="M115.818 93.1817L184.557 117.332" stroke="white" stroke-opacity="0.59" stroke-width="2.27" stroke-miterlimit="10" stroke-linecap="round"/>
<path d="M107.407 106.564L174.071 130.57" stroke="white" stroke-opacity="0.59" stroke-width="2.27" stroke-miterlimit="10" stroke-linecap="round"/>
<path d="M118.587 77.1584L182.235 99.5122" stroke="white" stroke-opacity="0.59" stroke-width="2.27" stroke-miterlimit="10" stroke-linecap="round"/>
<path d="M141.85 70.3392L188.52 86.7311" stroke="white" stroke-opacity="0.59" stroke-width="2.27" stroke-miterlimit="10" stroke-linecap="round"/>
</svg>
