<svg width="188" height="175" viewBox="0 0 188 175" fill="none" xmlns="http://www.w3.org/2000/svg">
<path d="M35.355 29.245C35.4164 23.2659 54.9939 21.1176 65.9358 19.7779C77.9108 18.312 101.22 16.236 102.225 21.659C104.073 31.6569 79.4258 35.085 66.7295 36.2986C55.3788 37.3836 35.2633 38.2781 35.3562 29.245L35.355 29.245Z" fill="#273051"/>
<path d="M94.6066 55.1033L52.2435 60.8158C51.8185 57.2059 50.9096 53.6147 48.7841 50.1436C46.7328 46.7938 43.5675 43.5866 38.6728 40.5815L98.8884 33.8558C94.287 41.5184 93.9169 48.4311 94.6066 55.1033Z" fill="#FFF6E9" stroke="#273051"/>
<path d="M50.352 36.3756C48.885 35.971 47.799 35.4519 47.1313 34.8391C47.2168 34.2229 47.1498 33.488 46.9866 32.693C46.7952 31.7613 46.4608 30.6976 46.0245 29.5588C45.1517 27.2802 43.8545 24.6575 42.4164 22.1115C40.9776 19.5642 39.3906 17.0813 37.9329 15.0817C37.2042 14.0821 36.5042 13.1985 35.8682 12.4861C35.7831 12.3908 35.6988 12.2981 35.6153 12.2082C43.874 13.8988 54.9017 14.0372 65.7201 12.9215C76.9613 11.7623 88.0476 9.24173 95.6267 5.65028C95.4709 6.09365 95.221 6.6836 94.9054 7.41211C94.8458 7.54977 94.784 7.69187 94.7204 7.83822C94.0593 9.35963 93.1984 11.3406 92.4463 13.5668C90.8225 18.3729 89.6547 24.4624 92.1933 29.6992C92.0119 30.2636 91.4269 30.9053 90.3481 31.5825C89.1968 32.3053 87.5895 33.0021 85.6461 33.6469C81.7637 34.9352 76.6263 35.988 71.3307 36.6428C66.0359 37.2974 60.6081 37.551 56.1469 37.2512C53.9156 37.1013 51.941 36.8138 50.352 36.3756Z" fill="#FFF6E9" stroke="#273051"/>
<path d="M33.4166 10.0557C33.0163 9.43681 32.8759 8.89457 32.9116 8.41577C32.9473 7.93717 33.1634 7.46063 33.5885 6.98133C34.4569 6.0021 36.1211 5.09779 38.4585 4.30033C43.1072 2.71438 50.1086 1.65031 57.6921 1.06095C65.2656 0.472373 73.3801 0.360033 80.2344 0.662185C83.6616 0.813265 86.7678 1.06772 89.3302 1.41673C91.9043 1.76733 93.8911 2.20858 95.1034 2.71812L95.2972 2.25718L95.1034 2.71813C95.9228 3.06249 96.3324 3.40174 96.4973 3.67998C96.6301 3.9042 96.6383 4.14611 96.4279 4.48573C96.1996 4.85416 95.7369 5.28445 95.0089 5.75723C94.2899 6.22408 93.3517 6.7073 92.221 7.1964C87.6903 9.15623 80.2651 11.1274 72.1388 12.5421C64.0173 13.956 55.2385 14.8065 48.0089 14.5432C44.3927 14.4115 41.1857 14.0017 38.65 13.2554C36.1001 12.5049 34.3108 11.4381 33.4166 10.0557Z" fill="#FFF6E9" stroke="#273051"/>
<path d="M94.513 18.5446C96.12 18.4523 98.0323 18.5229 100.006 18.7731C102.725 19.118 105.521 19.7991 107.756 20.8349C110.011 21.8798 111.588 23.2341 112.067 24.8646C112.534 26.4588 112.005 28.5257 109.543 31.1492C108.385 32.3833 106.442 33.608 103.851 34.7782C101.27 35.9442 98.0839 37.039 94.4761 38.0309C87.2612 40.0145 78.3966 41.5766 69.3855 42.4803C60.374 43.384 51.2334 43.6276 43.4658 42.9813C35.6681 42.3325 29.3561 40.7937 25.9117 38.2121L25.9117 38.212C24.4079 37.0851 23.5799 36.0509 23.2199 35.1282C22.8683 34.227 22.9463 33.3912 23.3469 32.5906C23.7568 31.7715 24.5128 30.9764 25.534 30.2214C26.5511 29.4695 27.8019 28.7788 29.1612 28.1583C31.8799 26.9172 34.9828 25.9795 37.3958 25.3975C38.462 25.1403 39.3866 24.9543 40.077 24.8425C39.9918 24.9338 39.9039 25.0306 39.8146 25.1323C39.1669 25.8701 38.4036 26.9138 38.0799 28.0496C37.916 28.6244 37.8598 29.24 38.0033 29.8565C38.148 30.478 38.4882 31.0669 39.0638 31.593C40.1954 32.6273 42.2351 33.4189 45.5586 33.8397L45.5899 33.8436H45.5903C58.4747 35.4705 71.5614 34.3856 81.351 32.2231C86.2474 31.1415 90.3421 29.7853 93.182 28.3503C94.5993 27.6341 95.731 26.8849 96.4931 26.1203C97.2475 25.3633 97.7115 24.515 97.5963 23.623L97.1004 23.687L97.5963 23.6229C97.4825 22.7428 96.9535 21.447 96.1601 20.3038C95.713 19.6596 95.1586 19.03 94.513 18.5446Z" fill="#FFF6E9" stroke="#273051"/>
<path d="M142.874 56.8175L143.208 56.4458L142.874 56.8176C143.608 57.478 144.365 58.7416 145.1 60.4047C145.827 62.0503 146.506 64.0245 147.107 66.0458C148.31 70.0881 149.192 74.274 149.534 76.2968C151.434 87.5382 153.355 104.985 152.02 121.102C151.353 129.16 149.873 136.861 147.186 143.28C144.499 149.697 140.62 154.8 135.17 157.723C126.95 162.131 117.592 161.839 108.174 161.195C107.439 161.145 106.703 161.092 105.967 161.04C97.3389 160.424 88.725 159.81 81.2338 162.762C79.9985 163.249 78.4526 163.945 76.696 164.736C75.7045 165.183 74.6459 165.659 73.5381 166.146C70.4515 167.501 66.9488 168.947 63.3359 170.084C56.0719 172.369 48.5219 173.349 43.0141 170.022C27.988 160.947 14.6503 142.805 7.07571 123.298C-0.504361 103.777 -2.25316 83.0483 5.67381 68.7731C9.09838 62.6057 16.0545 59.5064 23.8356 57.9282C30.8793 56.4995 38.4825 56.3392 44.5124 56.2122C45.0584 56.2006 45.5915 56.1894 46.1101 56.1775L46.112 56.1793L46.3243 56.1744C63.2432 55.7774 81.6963 52.9547 95.649 50.8204L96.111 50.7497C115.678 47.7568 131.555 46.637 142.874 56.8175Z" fill="#FFF6E9" stroke="#273051"/>
<path fill-rule="evenodd" clip-rule="evenodd" d="M44.6418 48.65C44.6382 48.7505 44.3398 48.8388 43.7928 48.9438C43.5193 48.9963 43.1842 49.0537 42.7996 49.1287C42.4149 49.2037 41.9805 49.2958 41.5167 49.4293C41.2283 49.5213 40.9295 49.6154 40.667 49.7254C40.4045 49.8354 40.1782 49.961 40.0636 50.1292C40.0088 50.2088 39.9717 50.285 39.9967 50.3232C39.9923 50.3677 40.0528 50.4538 40.1223 50.5678C40.2493 50.7797 40.4766 50.9739 40.7798 51.1707C41.0831 51.3674 41.4624 51.5666 41.8715 51.7981C42.6277 52.1873 43.5658 52.4798 44.6271 52.7349C45.8028 53.0116 47.1021 53.2051 48.5031 53.3521C50.0295 53.5117 51.6491 53.6091 53.3514 53.6509C55.0538 53.6928 56.8391 53.6791 58.6918 53.6323C62.4669 53.5338 66.4873 53.2631 70.6524 52.8497C70.7995 52.8351 70.9467 52.8203 71.0942 52.8053C75.1464 52.3937 79.0361 51.8756 82.6755 51.285C86.4655 50.6687 89.9627 49.9836 93.0605 49.2085C94.51 48.8457 95.8599 48.4687 97.0947 48.0606C98.2003 47.6926 99.1937 47.3195 100.044 46.897C100.739 46.5368 101.315 46.2141 101.657 45.8384C101.792 45.6921 101.899 45.5591 101.945 45.4379C101.994 45.3287 102.013 45.2087 101.996 45.1008C101.984 44.9647 101.896 44.8117 101.783 44.6588C101.619 44.4409 101.38 44.2453 101.133 44.0626C100.75 43.7822 100.361 43.5591 100.011 43.3689C99.6598 43.1787 99.3463 43.022 99.093 42.8883C98.5862 42.621 98.3233 42.4437 98.3679 42.3452C98.4126 42.2467 98.7581 42.2289 99.3821 42.3214C99.694 42.3676 100.076 42.4425 100.519 42.5654C100.961 42.6883 101.466 42.8587 102.011 43.1156C102.373 43.2858 102.76 43.5091 103.127 43.8284C103.393 44.0581 103.634 44.3533 103.792 44.7272C103.919 45.0492 103.957 45.3999 103.885 45.7542C103.807 46.1102 103.648 46.4429 103.432 46.7323C102.922 47.412 102.191 47.984 101.42 48.4397C100.472 49.0186 99.3882 49.5321 98.2393 49.9964C96.9485 50.5206 95.5426 51.0036 94.0558 51.4534C90.8817 52.414 87.284 53.2519 83.4204 53.964C79.7034 54.6501 75.7143 55.2263 71.5569 55.6484C71.4056 55.6636 71.2545 55.6789 71.1036 55.6937C66.8322 56.1155 62.6725 56.3444 58.7559 56.3583C56.8423 56.3666 54.9725 56.3262 53.175 56.2177C51.3771 56.1091 49.6512 55.9323 48.0206 55.684C46.5194 55.4562 45.0777 55.1524 43.751 54.7502C42.5555 54.3928 41.422 53.9228 40.464 53.3274C40.0267 53.0726 39.5829 52.7693 39.195 52.4177C38.807 52.0661 38.4748 51.6664 38.237 51.2246C38.0617 50.9001 37.9983 50.5122 38.0738 50.1087C38.1768 49.7108 38.411 49.3955 38.7066 49.1667C39.1442 48.8489 39.5952 48.6583 40.0181 48.5351C40.4411 48.412 40.8362 48.3566 41.1842 48.3286C41.7571 48.2667 42.2608 48.2563 42.6931 48.2682C43.1253 48.2803 43.4862 48.3149 43.7751 48.3569C44.3528 48.4408 44.6442 48.5497 44.6416 48.6501L44.6418 48.65Z" fill="#273051"/>
<path d="M34.7022 70.0036C22.9876 69.1713 11.0923 75.84 6.79372 85.0617C-5.62645 111.706 13.4813 155.988 41.8381 172.14C52.5263 178.227 71.7824 169.656 79.0304 166.927C94.1159 161.248 110.863 171.567 126.645 163.516C147.722 152.763 148.128 114.307 144.704 94.2832C144.083 90.6544 139.055 73.191 135.997 70.5849C125.239 61.4151 118.333 60.268 91.1102 68.1178C62.3417 76.4134 46.9162 70.8736 34.705 70.0059L34.7022 70.0036Z" fill="#EA83AA"/>
<path fill-rule="evenodd" clip-rule="evenodd" d="M43.7715 48.6503C43.8117 48.6983 43.7901 48.7767 43.7239 48.8829C43.6578 48.9891 43.5415 49.1222 43.4619 49.2828C43.4274 49.3779 43.3915 49.4593 43.4584 49.4485C43.4663 49.4144 43.5114 49.3952 43.5315 49.3991C43.5971 49.4269 43.7209 49.4396 43.8994 49.4827C44.1431 49.5317 44.4175 49.564 44.7297 49.5847C45.0419 49.6054 45.392 49.6144 45.7838 49.6299C46.6796 49.6546 47.7049 49.6437 48.8625 49.615C50.0898 49.584 51.4413 49.532 52.9031 49.4562C54.3649 49.3804 55.937 49.2807 57.6051 49.1677C60.8946 48.9438 64.5283 48.6515 68.3687 48.292C69.2084 48.2134 70.0575 48.1317 70.9142 48.0466C73.9004 47.75 76.7746 47.4313 79.4763 47.0974C83.1171 46.6465 86.4216 46.1733 89.2524 45.6672C90.6769 45.4122 91.9686 45.1537 93.1149 44.8842C94.2468 44.6156 95.213 44.3525 96.0108 44.0707C96.4023 43.9251 96.7478 43.7959 97.0375 43.6642C97.3272 43.5327 97.562 43.399 97.7517 43.2623C97.9517 43.1206 98.1004 42.9903 98.1993 42.8676C98.3094 42.7378 98.3724 42.6091 98.4271 42.5141C98.4818 42.4191 98.5303 42.355 98.5988 42.3415C98.6673 42.328 98.7561 42.3658 98.8415 42.4752C98.9268 42.5846 99.0097 42.7684 98.9954 43.0267C98.9805 43.2593 98.8885 43.5412 98.6955 43.8169C98.5225 44.0656 98.2829 44.3248 97.9808 44.5756C97.6786 44.8264 97.3132 45.0685 96.9183 45.2886C96.1057 45.7557 95.09 46.2051 93.9468 46.6179C92.7809 47.0409 91.4552 47.4431 90.0116 47.8196C87.1453 48.5676 83.7643 49.235 80.0762 49.7996C77.3332 50.2201 74.4068 50.5887 71.3666 50.8906C70.4944 50.9772 69.63 51.0567 68.7755 51.1297C64.8676 51.4636 61.1498 51.658 57.7843 51.7251C56.0847 51.7593 54.4665 51.7643 52.9564 51.7316C51.4462 51.6991 50.0443 51.629 48.7754 51.5266C47.5807 51.4308 46.482 51.3001 45.5263 51.1254C44.7334 50.9867 43.9538 50.7916 43.3399 50.5177C43.1068 50.4217 42.8556 50.271 42.6495 50.079C42.4505 49.9054 42.3647 49.658 42.386 49.4073C42.4713 49.0931 42.6555 48.9358 42.8191 48.848C43.0895 48.6851 43.3128 48.6272 43.4727 48.6055C43.6326 48.5837 43.7319 48.6021 43.7721 48.6502L43.7715 48.6503Z" fill="#273051"/>
<path d="M187.307 28.611C187.307 29.4072 186.602 30.281 185.105 30.9851C183.647 31.6707 181.598 32.1084 179.308 32.1084C177.017 32.1084 174.968 31.6707 173.51 30.9851C172.013 30.281 171.308 29.4072 171.308 28.611C171.308 27.8147 172.013 26.9409 173.51 26.2368C174.968 25.5512 177.017 25.1135 179.308 25.1135C181.598 25.1135 183.647 25.5512 185.105 26.2368C186.602 26.9409 187.307 27.8147 187.307 28.611Z" stroke="#273051"/>
</svg>
