<svg width="110" height="134" viewBox="0 0 110 134" fill="none" xmlns="http://www.w3.org/2000/svg">
<path d="M100.044 57.1937C84.8696 42.3541 59.3978 51.0105 48.5587 57.1937C24.1709 46.5934 7.91231 57.1937 2.49277 67.794C-2.92675 78.3942 -4.78969 136.562 54.8251 133.912C114.44 131.262 119.013 75.7431 100.044 57.1937Z" fill="#EA83AA"/>
<path d="M61.1007 62.4716C70.0776 66.0668 61.9287 71.8791 56.1101 73.5422C54.3428 74.0473 52.4694 73.5691 51.0062 72.4566C27.5372 54.612 69.3089 2.45531 84.3415 0.218284C96.7366 -1.62626 103.278 8.67244 105 14.0524C63.4091 12.3333 46.7727 56.7333 61.1007 62.4716Z" fill="#FFF6E9"/>
</svg>
