<svg width="514" height="518" viewBox="0 0 514 518" fill="none" xmlns="http://www.w3.org/2000/svg">
<path d="M285.615 229.443C285.544 229.35 285.502 229.28 285.479 229.233L291.131 220.596C291.185 220.596 291.267 220.602 291.386 220.624C291.707 220.682 292.169 220.828 292.75 221.063C293.902 221.53 295.428 222.312 297.049 223.302C298.67 224.291 300.056 225.287 300.988 226.092C301.456 226.498 301.791 226.838 301.983 227.094C302.054 227.188 302.096 227.257 302.119 227.304L296.467 235.941C296.414 235.942 296.331 235.935 296.213 235.914C295.891 235.855 295.429 235.71 294.849 235.474C293.696 235.007 292.17 234.225 290.549 233.235C288.929 232.246 287.542 231.25 286.611 230.445C286.142 230.04 285.807 229.699 285.615 229.443ZM291.068 220.601C291.068 220.601 291.069 220.6 291.07 220.6C291.069 220.6 291.068 220.601 291.068 220.601ZM302.142 227.361C302.142 227.361 302.141 227.36 302.141 227.359C302.141 227.36 302.142 227.361 302.142 227.361ZM296.531 235.937C296.531 235.937 296.53 235.937 296.528 235.937C296.53 235.937 296.531 235.937 296.531 235.937ZM285.457 229.178C285.457 229.177 285.457 229.176 285.457 229.176C285.457 229.176 285.457 229.177 285.457 229.178Z" fill="#FFF6E9" stroke="#EA83AA"/>
<path d="M287.023 226.864L287.634 225.933C289.459 223.151 293.397 222.385 296.436 224.245C299.475 226.104 300.44 229.87 298.615 232.652L298.004 233.584C296.179 236.366 292.241 237.131 289.202 235.272C286.163 233.412 285.198 229.646 287.023 226.864Z" fill="#FFF6E9" stroke="#EA83AA"/>
<path d="M241.937 207.968C223.059 206.862 208.045 191.499 208.394 173.704C208.743 155.908 224.324 142.333 243.202 143.439C262.08 144.545 277.094 159.913 276.745 177.708C276.396 195.503 260.815 209.074 241.937 207.968ZM243.078 149.79C227.954 148.904 215.43 159.777 215.15 174.099C214.869 188.417 226.938 200.735 242.061 201.621C257.185 202.507 269.709 191.629 269.99 177.312C270.271 162.99 258.201 150.676 243.078 149.79Z" fill="#FFF6E9" stroke="#EA83AA"/>
<path d="M236.018 182.826C236.013 182.821 236.01 182.817 236.007 182.813L236.282 168.803C236.285 168.799 236.289 168.795 236.294 168.791C236.333 168.751 236.416 168.691 236.564 168.623C236.859 168.487 237.319 168.36 237.929 168.261C239.14 168.065 240.835 167.994 242.72 168.105C244.605 168.215 246.293 168.484 247.494 168.822C248.098 168.992 248.552 169.172 248.841 169.343C248.986 169.428 249.066 169.497 249.105 169.542C249.109 169.547 249.113 169.551 249.115 169.555L248.84 183.566C248.837 183.569 248.834 183.573 248.829 183.577C248.789 183.617 248.707 183.677 248.559 183.745C248.263 183.881 247.804 184.008 247.194 184.107C245.982 184.304 244.288 184.374 242.403 184.264C240.517 184.153 238.829 183.884 237.629 183.546C237.024 183.376 236.571 183.196 236.281 183.026C236.136 182.94 236.056 182.871 236.018 182.826Z" fill="#FFF6E9" stroke="#EA83AA"/>
<path d="M236.079 178.921L236.109 177.434C236.205 172.773 239.263 169.399 242.694 169.605C246.125 169.811 249.038 173.544 248.942 178.205L248.912 179.692C248.816 184.353 245.758 187.727 242.327 187.521C238.896 187.315 235.983 183.582 236.079 178.921Z" fill="#FFF6E9" stroke="#EA83AA"/>
<path d="M232.269 211.104L232.858 181.104C232.863 180.869 233.015 180.575 233.476 180.254C233.93 179.938 234.616 179.648 235.506 179.413C237.281 178.946 239.757 178.729 242.507 178.89C245.257 179.051 247.719 179.558 249.471 180.232C250.35 180.57 251.023 180.94 251.464 181.309C251.911 181.683 252.052 181.995 252.047 182.23L251.458 212.229C251.454 212.464 251.301 212.758 250.84 213.079C250.386 213.395 249.7 213.686 248.81 213.92C247.035 214.388 244.559 214.604 241.809 214.443C239.059 214.282 236.598 213.775 234.845 213.101C233.966 212.763 233.293 212.393 232.852 212.024C232.405 211.65 232.265 211.339 232.269 211.104Z" fill="#FFF6E9" stroke="#EA83AA"/>
<path d="M232.426 202.74L232.49 199.571C232.593 194.511 233.802 190.022 235.65 186.856C237.511 183.67 239.94 181.937 242.45 182.089C244.959 182.242 247.313 184.264 249.04 187.669C250.756 191.051 251.781 195.675 251.678 200.736L251.614 203.904C251.512 208.964 250.302 213.453 248.454 216.619C246.594 219.806 244.164 221.538 241.655 221.386C239.145 221.234 236.792 219.211 235.065 215.806C233.349 212.424 232.324 207.8 232.426 202.74Z" fill="#FFF6E9" stroke="#EA83AA"/>
<path d="M226.759 200.644C226.845 196.22 229.879 192.993 233.328 193.195L251.102 194.236C254.552 194.438 257.451 198.013 257.365 202.437C257.278 206.86 254.245 210.088 250.795 209.885L233.021 208.844C229.572 208.642 226.672 205.067 226.759 200.644Z" fill="#FFF6E9" stroke="#EA83AA"/>
<path d="M230.077 213.901C230.098 212.828 230.445 211.895 230.963 211.253C231.482 210.611 232.146 210.285 232.824 210.325L250.938 211.386C251.616 211.426 252.266 211.828 252.758 212.53C253.25 213.231 253.56 214.202 253.539 215.275C253.518 216.348 253.171 217.281 252.652 217.923C252.134 218.565 251.47 218.891 250.792 218.851L232.677 217.79C231.999 217.75 231.35 217.348 230.857 216.646C230.365 215.945 230.056 214.974 230.077 213.901Z" fill="#FFF6E9" stroke="#EA83AA"/>
<path d="M231.641 191.365C227.984 190.04 225.791 187.282 224.445 183.602L259.549 185.659C259.193 186.777 258.7 187.858 257.757 188.912C256.654 190.146 254.906 191.375 251.963 192.556L231.641 191.365Z" fill="#FFF6E9" stroke="#EA83AA"/>
<path d="M259.794 179.716L224.362 177.796C224.505 176.291 225.088 175.617 225.577 175.302C225.859 175.12 226.138 175.038 226.346 175.003C226.449 174.985 226.533 174.979 226.588 174.977C226.61 174.977 226.626 174.977 226.637 174.977L226.663 174.978L257.875 176.807C257.872 176.807 257.872 176.807 257.875 176.807C257.91 176.811 258.353 176.865 258.797 177.244C259.212 177.598 259.702 178.301 259.794 179.716Z" fill="#FFF6E9" stroke="#EA83AA"/>
<path d="M239.253 182.621L239.294 180.533C239.306 179.904 239.48 179.368 239.724 179.009C239.973 178.643 240.242 178.524 240.45 178.536C240.658 178.548 240.923 178.698 241.156 179.093C241.386 179.479 241.538 180.035 241.525 180.663L241.484 182.752C241.472 183.381 241.299 183.917 241.055 184.275C240.806 184.641 240.536 184.76 240.328 184.748C240.121 184.736 239.856 184.586 239.622 184.191C239.393 183.805 239.241 183.25 239.253 182.621Z" fill="#FFF6E9" stroke="#EA83AA"/>
<path d="M242.542 180.758L242.501 182.847C242.488 183.475 242.64 184.031 242.87 184.417C243.104 184.811 243.368 184.961 243.576 184.974C243.784 184.986 244.054 184.867 244.302 184.501C244.546 184.142 244.72 183.606 244.732 182.977L244.773 180.889C244.785 180.26 244.633 179.705 244.404 179.318C244.17 178.924 243.906 178.774 243.698 178.762C243.49 178.75 243.22 178.868 242.971 179.234C242.727 179.593 242.554 180.129 242.542 180.758Z" fill="#FFF6E9" stroke="#EA83AA"/>
<path d="M236.159 182.556L236.205 180.235C236.216 179.638 236.381 179.131 236.611 178.792C236.846 178.447 237.097 178.34 237.285 178.351C237.472 178.362 237.718 178.498 237.939 178.87C238.156 179.235 238.3 179.761 238.288 180.357L238.243 182.678C238.231 183.275 238.066 183.782 237.836 184.121C237.601 184.467 237.35 184.574 237.163 184.563C236.975 184.552 236.729 184.416 236.508 184.043C236.292 183.679 236.147 183.153 236.159 182.556Z" fill="#FFF6E9" stroke="#EA83AA"/>
<path d="M245.794 180.832L245.748 183.154C245.737 183.75 245.881 184.276 246.097 184.64C246.318 185.013 246.565 185.149 246.752 185.16C246.94 185.171 247.191 185.064 247.426 184.718C247.656 184.38 247.82 183.872 247.832 183.276L247.878 180.955C247.889 180.358 247.745 179.832 247.529 179.468C247.308 179.095 247.061 178.959 246.874 178.948C246.686 178.937 246.435 179.044 246.2 179.39C245.97 179.728 245.806 180.236 245.794 180.832Z" fill="#FFF6E9" stroke="#EA83AA"/>
<path d="M233.254 182.545L233.305 179.906C233.316 179.353 233.469 178.885 233.68 178.574C233.896 178.256 234.122 178.166 234.281 178.175C234.441 178.184 234.662 178.301 234.866 178.644C235.064 178.978 235.198 179.464 235.187 180.016L235.136 182.655C235.125 183.208 234.972 183.677 234.761 183.987C234.545 184.306 234.319 184.396 234.16 184.387C234 184.377 233.778 184.261 233.575 183.918C233.377 183.583 233.243 183.098 233.254 182.545Z" fill="#FFF6E9" stroke="#EA83AA"/>
<path d="M248.897 180.855L248.845 183.494C248.834 184.047 248.968 184.532 249.166 184.867C249.37 185.209 249.591 185.326 249.751 185.335C249.91 185.345 250.136 185.254 250.352 184.936C250.563 184.625 250.716 184.157 250.727 183.604L250.779 180.965C250.789 180.412 250.656 179.927 250.457 179.592C250.254 179.25 250.032 179.133 249.873 179.124C249.713 179.114 249.488 179.205 249.271 179.523C249.06 179.834 248.907 180.302 248.897 180.855Z" fill="#FFF6E9" stroke="#EA83AA"/>
<path d="M230.609 182.592L230.669 179.55C230.678 179.053 230.816 178.634 231.003 178.358C231.195 178.075 231.388 178.005 231.513 178.013C231.637 178.02 231.827 178.112 232.008 178.417C232.184 178.714 232.304 179.148 232.295 179.645L232.235 182.687C232.225 183.184 232.088 183.603 231.901 183.879C231.708 184.162 231.515 184.232 231.391 184.224C231.267 184.217 231.077 184.125 230.896 183.82C230.72 183.523 230.599 183.089 230.609 182.592Z" fill="#FFF6E9" stroke="#EA83AA"/>
<path d="M251.793 180.823L251.734 183.865C251.724 184.362 251.844 184.796 252.02 185.093C252.201 185.398 252.391 185.49 252.515 185.498C252.64 185.505 252.833 185.435 253.025 185.152C253.212 184.876 253.35 184.457 253.359 183.96L253.419 180.918C253.429 180.421 253.308 179.987 253.132 179.69C252.951 179.385 252.761 179.293 252.637 179.286C252.513 179.279 252.32 179.348 252.128 179.631C251.94 179.907 251.803 180.326 251.793 180.823Z" fill="#FFF6E9" stroke="#EA83AA"/>
<path d="M228.34 182.757L228.411 179.119C228.419 178.704 228.534 178.359 228.686 178.135C228.843 177.904 228.988 177.865 229.06 177.869C229.132 177.873 229.275 177.929 229.423 178.178C229.566 178.419 229.667 178.777 229.659 179.192L229.587 182.83C229.579 183.245 229.465 183.591 229.312 183.814C229.155 184.046 229.01 184.085 228.938 184.081C228.866 184.076 228.723 184.02 228.575 183.771C228.432 183.53 228.331 183.172 228.34 182.757Z" fill="#FFF6E9" stroke="#EA83AA"/>
<path d="M254.442 180.68L254.37 184.318C254.362 184.732 254.463 185.091 254.606 185.332C254.754 185.581 254.897 185.637 254.969 185.641C255.041 185.645 255.186 185.606 255.343 185.375C255.495 185.151 255.61 184.805 255.618 184.391L255.689 180.753C255.698 180.338 255.597 179.98 255.454 179.739C255.306 179.49 255.163 179.434 255.091 179.429C255.019 179.425 254.874 179.464 254.716 179.695C254.564 179.919 254.45 180.265 254.442 180.68Z" fill="#FFF6E9" stroke="#EA83AA"/>
<path d="M226.48 182.966L226.564 178.693C226.57 178.366 226.66 178.098 226.775 177.93C226.894 177.754 226.988 177.747 227.005 177.748C227.021 177.749 227.115 177.767 227.227 177.956C227.334 178.137 227.414 178.415 227.408 178.742L227.324 183.016C227.318 183.343 227.227 183.61 227.113 183.779C226.993 183.954 226.899 183.961 226.883 183.96C226.867 183.959 226.773 183.942 226.661 183.752C226.553 183.571 226.473 183.293 226.48 182.966Z" fill="#FFF6E9" stroke="#EA83AA"/>
<path d="M256.71 180.495L256.626 184.768C256.619 185.095 256.699 185.373 256.807 185.554C256.919 185.743 257.013 185.761 257.029 185.762C257.045 185.763 257.139 185.756 257.259 185.581C257.373 185.412 257.464 185.145 257.47 184.818L257.554 180.544C257.56 180.217 257.48 179.939 257.373 179.758C257.261 179.569 257.167 179.551 257.151 179.55C257.134 179.549 257.04 179.556 256.921 179.732C256.806 179.9 256.716 180.167 256.71 180.495Z" fill="#FFF6E9" stroke="#EA83AA"/>
<path d="M225.101 183.272L225.2 178.226C225.204 178.006 225.266 177.833 225.334 177.732C225.356 177.699 225.375 177.68 225.388 177.668C225.401 177.681 225.419 177.703 225.44 177.738C225.504 177.847 225.559 178.027 225.554 178.247L225.455 183.293C225.451 183.513 225.39 183.686 225.321 183.787C225.299 183.82 225.281 183.839 225.267 183.851C225.254 183.838 225.236 183.816 225.216 183.781C225.151 183.672 225.097 183.492 225.101 183.272ZM225.414 177.651C225.414 177.651 225.413 177.652 225.41 177.653C225.412 177.651 225.414 177.651 225.414 177.651ZM225.367 177.65C225.365 177.649 225.364 177.648 225.364 177.648C225.364 177.648 225.365 177.649 225.367 177.65ZM225.242 183.868C225.242 183.868 225.243 183.867 225.245 183.867C225.243 183.868 225.242 183.868 225.242 183.868ZM225.288 183.869C225.291 183.87 225.292 183.871 225.292 183.871C225.292 183.871 225.29 183.87 225.288 183.869Z" fill="#FFF6E9" stroke="#EA83AA"/>
<path d="M258.578 180.217L258.479 185.263C258.475 185.484 258.529 185.663 258.594 185.772C258.615 185.807 258.632 185.829 258.645 185.842C258.659 185.831 258.677 185.811 258.699 185.778C258.768 185.677 258.829 185.504 258.834 185.284L258.933 180.238C258.937 180.018 258.883 179.838 258.818 179.729C258.797 179.694 258.78 179.672 258.767 179.659C258.753 179.671 258.735 179.691 258.713 179.723C258.644 179.824 258.583 179.997 258.578 180.217ZM258.67 185.862C258.67 185.862 258.669 185.861 258.666 185.86C258.669 185.862 258.67 185.862 258.67 185.862ZM258.624 185.858C258.621 185.858 258.62 185.859 258.62 185.859C258.62 185.859 258.621 185.859 258.624 185.858ZM258.742 179.639C258.742 179.64 258.743 179.64 258.746 179.641C258.743 179.64 258.742 179.639 258.742 179.639ZM258.788 179.644C258.791 179.643 258.792 179.642 258.792 179.642C258.792 179.642 258.791 179.642 258.788 179.644Z" fill="#FFF6E9" stroke="#EA83AA"/>
<path d="M224.428 177.549C224.428 177.549 224.428 177.549 224.427 177.549L224.428 177.549Z" fill="#FFF6E9" stroke="#EA83AA"/>
<path d="M259.884 185.978C259.884 185.978 259.884 185.978 259.883 185.977L259.884 185.978Z" fill="#FFF6E9" stroke="#EA83AA"/>
<mask id="path-28-inside-1_177_98" fill="white">
<path d="M223.59 177.277L223.457 184.031C223.455 184.153 223.516 184.256 223.594 184.261C223.671 184.265 223.736 184.17 223.738 184.048L223.871 177.293C223.873 177.171 223.812 177.068 223.735 177.063C223.657 177.059 223.592 177.154 223.59 177.277Z"/>
</mask>
<path d="M223.59 177.277L223.457 184.031C223.455 184.153 223.516 184.256 223.594 184.261C223.671 184.265 223.736 184.17 223.738 184.048L223.871 177.293C223.873 177.171 223.812 177.068 223.735 177.063C223.657 177.059 223.592 177.154 223.59 177.277Z" fill="#FFF6E9"/>
<path d="M224.469 184.09L224.601 177.336L222.578 177.217L222.446 183.972L224.469 184.09ZM224.601 177.336C224.6 177.428 224.575 177.557 224.484 177.691C224.403 177.81 224.157 178.075 223.715 178.049L223.754 176.078C223.235 176.048 222.917 176.357 222.784 176.554C222.64 176.765 222.583 177.003 222.578 177.217L224.601 177.336ZM223.715 178.049C223.274 178.023 223.039 177.731 222.962 177.602C222.877 177.458 222.858 177.326 222.859 177.234L224.882 177.352C224.887 177.138 224.838 176.894 224.703 176.666C224.578 176.455 224.273 176.108 223.754 176.078L223.715 178.049ZM222.859 177.234L222.727 183.988L224.75 184.107L224.882 177.352L222.859 177.234ZM222.727 183.988C222.729 183.896 222.753 183.767 222.844 183.633C222.925 183.513 223.172 183.249 223.613 183.275L223.574 185.246C224.093 185.277 224.411 184.967 224.544 184.77C224.688 184.559 224.746 184.321 224.75 184.107L222.727 183.988ZM223.613 183.275C224.054 183.301 224.29 183.593 224.366 183.722C224.452 183.867 224.471 183.998 224.469 184.09L222.446 183.972C222.442 184.186 222.49 184.43 222.625 184.658C222.751 184.87 223.056 185.216 223.574 185.246L223.613 183.275Z" fill="#EA83AA" mask="url(#path-28-inside-1_177_98)"/>
<mask id="path-30-inside-2_177_98" fill="white">
<path d="M260.158 186.217L260.291 179.463C260.293 179.34 260.358 179.245 260.435 179.249C260.513 179.254 260.574 179.357 260.572 179.479L260.439 186.234C260.437 186.356 260.372 186.451 260.294 186.447C260.217 186.442 260.156 186.339 260.158 186.217Z"/>
</mask>
<path d="M260.158 186.217L260.291 179.463C260.293 179.34 260.358 179.245 260.435 179.249C260.513 179.254 260.574 179.357 260.572 179.479L260.439 186.234C260.437 186.356 260.372 186.451 260.294 186.447C260.217 186.442 260.156 186.339 260.158 186.217Z" fill="#FFF6E9"/>
<path d="M261.302 179.522L261.17 186.276L259.147 186.158L259.279 179.403L261.302 179.522ZM261.17 186.276C261.172 186.184 261.152 186.052 261.067 185.908C260.99 185.779 260.755 185.487 260.314 185.461L260.275 187.432C259.756 187.402 259.451 187.056 259.326 186.844C259.191 186.616 259.142 186.372 259.147 186.158L261.17 186.276ZM260.314 185.461C259.873 185.435 259.626 185.699 259.545 185.819C259.454 185.953 259.429 186.082 259.428 186.174L261.451 186.293C261.447 186.507 261.389 186.745 261.245 186.956C261.111 187.153 260.794 187.462 260.275 187.432L260.314 185.461ZM259.428 186.174L259.56 179.42L261.583 179.538L261.451 186.293L259.428 186.174ZM259.56 179.42C259.558 179.512 259.577 179.644 259.663 179.788C259.739 179.917 259.975 180.209 260.416 180.235L260.455 178.264C260.973 178.294 261.278 178.64 261.404 178.852C261.539 179.08 261.587 179.324 261.583 179.538L259.56 179.42ZM260.416 180.235C260.857 180.261 261.104 179.997 261.185 179.877C261.276 179.743 261.3 179.614 261.302 179.522L259.279 179.403C259.283 179.189 259.341 178.951 259.485 178.74C259.618 178.543 259.936 178.234 260.455 178.264L260.416 180.235Z" fill="#EA83AA" mask="url(#path-30-inside-2_177_98)"/>
<path d="M186.698 229.496C186.579 229.504 186.496 229.501 186.442 229.494L181.143 220.215C181.168 220.171 181.212 220.107 181.286 220.021C181.489 219.789 181.836 219.488 182.319 219.138C183.28 218.444 184.703 217.613 186.358 216.816C188.014 216.018 189.568 215.416 190.736 215.085C191.324 214.919 191.791 214.827 192.114 214.807C192.233 214.799 192.316 214.803 192.369 214.809L197.669 224.088C197.644 224.132 197.599 224.197 197.525 224.282C197.323 224.515 196.976 224.815 196.492 225.165C195.531 225.859 194.109 226.69 192.453 227.488C190.797 228.285 189.244 228.887 188.076 229.218C187.488 229.385 187.021 229.476 186.698 229.496ZM181.118 220.269C181.118 220.269 181.118 220.269 181.119 220.267C181.118 220.269 181.118 220.269 181.118 220.269ZM192.432 214.821C192.432 214.821 192.431 214.821 192.429 214.82C192.431 214.821 192.432 214.821 192.432 214.821ZM197.693 224.034C197.693 224.034 197.693 224.035 197.693 224.036C197.693 224.035 197.693 224.034 197.693 224.034ZM186.382 229.483C186.38 229.483 186.38 229.482 186.38 229.482C186.38 229.482 186.381 229.482 186.382 229.483Z" fill="#FFF6E9" stroke="#EA83AA"/>
<path d="M184.986 226.955L184.415 225.952C182.71 222.96 183.83 219.318 186.938 217.825C190.047 216.333 193.943 217.566 195.648 220.558L196.219 221.56C197.924 224.553 196.804 228.195 193.696 229.687C190.587 231.18 186.691 229.947 184.986 226.955Z" fill="#FFF6E9" stroke="#EA83AA"/>
<path d="M241.714 219.548C270.523 221.235 297.937 233.664 317.927 254.095C337.915 274.525 348.842 301.284 348.309 328.482C347.776 355.681 335.826 381.099 315.082 399.143C294.339 417.188 266.501 426.379 237.692 424.692C208.883 423.004 181.469 410.575 161.479 390.144C141.491 369.714 130.564 342.956 131.097 315.757C131.63 288.558 143.58 263.14 164.324 245.096C185.067 227.051 212.905 217.86 241.714 219.548Z" fill="#FFF6E9" stroke="#EA83AA"/>
<path d="M241.488 230.8C267.144 232.304 291.558 243.372 309.359 261.567C327.16 279.761 336.89 303.589 336.415 327.81C335.94 352.031 325.299 374.666 306.826 390.735C288.353 406.804 263.562 414.99 237.906 413.487C212.25 411.984 187.836 400.915 170.035 382.721C152.234 364.527 142.503 340.698 142.978 316.477C143.453 292.257 154.095 269.622 172.567 253.553C191.041 237.483 215.832 229.297 241.488 230.8Z" fill="#FFF6E9" stroke="#EA83AA"/>
<path d="M237.704 123.328L237.978 137.79C238.012 139.588 239.557 141.089 241.429 141.142L241.429 141.142C243.301 141.195 244.792 139.78 244.758 137.982L244.484 123.52C244.45 121.722 242.905 120.221 241.033 120.168L241.033 120.168C239.16 120.115 237.67 121.53 237.704 123.328Z" stroke="#EA83AA" stroke-width="11.6964" stroke-linecap="round" stroke-linejoin="round"/>
<path d="M239.465 102.881L239.827 121.993C239.838 122.607 240.365 123.118 241.003 123.136C241.642 123.154 242.15 122.672 242.138 122.059L241.777 102.946C241.765 102.333 241.239 101.821 240.6 101.803C239.962 101.785 239.454 102.267 239.465 102.881Z" stroke="#EA83AA" stroke-width="11.6964" stroke-linecap="round" stroke-linejoin="round"/>
<path d="M236.974 87.0085L237.247 101.47C237.281 103.268 238.826 104.769 240.699 104.822L240.699 104.822C242.571 104.875 244.061 103.46 244.027 101.662L243.754 87.2005C243.72 85.4023 242.175 83.9015 240.302 83.8485L240.302 83.8485C238.43 83.7955 236.94 85.2102 236.974 87.0085Z" stroke="#EA83AA" stroke-width="11.6964" stroke-linecap="round" stroke-linejoin="round"/>
<path d="M238.733 66.5614L239.094 85.6744C239.106 86.2874 239.633 86.7991 240.271 86.8172C240.909 86.8352 241.417 86.3529 241.406 85.7398L241.045 66.6269C241.033 66.0138 240.506 65.5022 239.868 65.4841C239.23 65.466 238.721 65.9483 238.733 66.5614Z" stroke="#EA83AA" stroke-width="11.6964" stroke-linecap="round" stroke-linejoin="round"/>
<path d="M236.198 50.6401L236.472 65.1014C236.506 66.8997 238.051 68.4004 239.923 68.4534L239.923 68.4534C241.796 68.5065 243.286 67.0917 243.252 65.2935L242.979 50.8321C242.945 49.0339 241.399 47.5331 239.527 47.4801L239.527 47.4801C237.655 47.4271 236.164 48.8418 236.198 50.6401Z" stroke="#EA83AA" stroke-width="11.6964" stroke-linecap="round" stroke-linejoin="round"/>
<path d="M237.96 30.1925L238.321 49.3055C238.332 49.9185 238.859 50.4302 239.498 50.4483C240.136 50.4663 240.644 49.984 240.632 49.3709L240.271 30.258C240.26 29.6449 239.733 29.1333 239.094 29.1152C238.456 29.0971 237.948 29.5794 237.96 30.1925Z" stroke="#EA83AA" stroke-width="11.6964" stroke-linecap="round" stroke-linejoin="round"/>
<path d="M235.337 14.1894L235.61 28.6508C235.644 30.449 237.19 31.9497 239.062 32.0028L239.062 32.0028C240.934 32.0558 242.424 30.641 242.39 28.8428L242.117 14.3814C242.083 12.5832 240.538 11.0824 238.666 11.0294L238.665 11.0294C236.793 10.9764 235.303 12.3912 235.337 14.1894Z" stroke="#EA83AA" stroke-width="11.6964" stroke-linecap="round" stroke-linejoin="round"/>
</svg>
