<svg width="575" height="120" viewBox="0 0 575 120" fill="none" xmlns="http://www.w3.org/2000/svg">
<line x1="61.5" x2="61.5" y2="119" stroke="white" stroke-width="5"/>
<line x1="0.032681" y1="56.5002" x2="119.023" y2="58.0558" stroke="white" stroke-width="5"/>
<line x1="516.5" y1="1" x2="516.5" y2="120" stroke="white" stroke-width="5"/>
<line x1="455.033" y1="57.5002" x2="574.023" y2="59.0558" stroke="white" stroke-width="5"/>
<path d="M60.669 77.7869C61.067 77.2706 61.8447 77.2673 62.2475 77.78L65.9488 82.4917C66.463 83.1463 65.9994 84.1057 65.1672 84.1093L57.8093 84.1414C56.977 84.145 56.5045 83.1898 57.0125 82.5308L60.669 77.7869Z" fill="white"/>
<path d="M50.1129 72.5425C49.7582 76.0433 52.4941 78.7114 56.1213 78.7204C58.1499 78.7255 60.044 78.0787 61.1577 76.3353V60.1261C61.1577 60.1261 50.1129 66.3041 50.1129 72.5425Z" fill="#EA83AA"/>
<path d="M72.8807 72.5425C73.2354 76.0433 70.4994 78.7114 66.8721 78.7204C64.8434 78.7255 62.9492 78.0787 61.8354 76.3353V60.1262C61.8354 60.1262 72.8807 66.3041 72.8807 72.5425Z" fill="#EA83AA"/>
<path d="M62.2929 36.8193C61.8949 37.3356 61.1172 37.339 60.7145 36.8262L57.0132 32.1145C56.4989 31.4599 56.9625 30.5005 57.7947 30.4969L65.1526 30.4648C65.9849 30.4612 66.4575 31.4164 65.9495 32.0754L62.2929 36.8193Z" fill="white"/>
<path d="M72.85 42.0637C73.2047 38.5629 70.4688 35.8948 66.8416 35.8858C64.813 35.8807 62.9189 36.5275 61.8052 38.2709V54.4801C61.8052 54.4801 72.85 48.3021 72.85 42.0637Z" fill="#EA83AA"/>
<path d="M50.0817 42.0637C49.727 38.5629 52.463 35.8948 56.0903 35.8858C58.119 35.8807 60.0132 36.5275 61.127 38.2709V54.48C61.127 54.48 50.0817 48.3021 50.0817 42.0637Z" fill="#EA83AA"/>
<path d="M40.1039 56.421C40.6613 56.8176 40.6652 57.644 40.1116 58.0454L35.186 61.617C34.5266 62.0951 33.6026 61.6263 33.5987 60.8117L33.5652 53.7116C33.5613 52.8971 34.4809 52.4202 35.1447 52.8925L40.1039 56.421Z" fill="white"/>
<path d="M45.6378 46.332C41.9941 45.9912 39.2169 48.6197 39.2075 52.1046C39.2023 54.0536 39.8755 55.8734 41.6901 56.9434H58.5613C58.5613 56.9434 52.1311 46.332 45.6378 46.332Z" fill="#EA83AA"/>
<path d="M45.6378 68.2068C41.9941 68.5476 39.2169 65.9189 39.2075 62.4339C39.2023 60.4849 39.8755 58.665 41.6901 57.595H58.5613C58.5613 57.595 52.131 68.2068 45.6378 68.2068Z" fill="#EA83AA"/>
<path d="M82.8961 58.1181C82.3387 57.7215 82.3348 56.8951 82.8884 56.4937L87.814 52.922C88.4734 52.444 89.3974 52.9128 89.4013 53.7273L89.4348 60.8274C89.4387 61.642 88.5191 62.1189 87.8553 61.6465L82.8961 58.1181Z" fill="white"/>
<path d="M77.3622 68.2071C81.0059 68.5478 83.7831 65.9193 83.7925 62.4345C83.7977 60.4855 83.1245 58.6657 81.3099 57.5957H64.4387C64.4387 57.5957 70.8689 68.2071 77.3622 68.2071Z" fill="#EA83AA"/>
<path d="M77.3622 46.332C81.0059 45.9913 83.7831 48.6199 83.7925 52.1049C83.7977 54.0539 83.1245 55.8738 81.3099 56.9438H64.4387C64.4387 56.9438 70.869 46.332 77.3622 46.332Z" fill="#EA83AA"/>
<path d="M515.669 79.7869C516.067 79.2706 516.845 79.2673 517.247 79.78L520.949 84.4917C521.463 85.1463 520.999 86.1057 520.167 86.1093L512.809 86.1414C511.977 86.145 511.504 85.1898 512.012 84.5308L515.669 79.7869Z" fill="white"/>
<path d="M505.113 74.5425C504.758 78.0433 507.494 80.7114 511.121 80.7204C513.15 80.7255 515.044 80.0787 516.158 78.3353V62.1261C516.158 62.1261 505.113 68.3041 505.113 74.5425Z" fill="#EA83AA"/>
<path d="M527.881 74.5425C528.235 78.0433 525.499 80.7114 521.872 80.7204C519.843 80.7255 517.949 80.0787 516.835 78.3353V62.1262C516.835 62.1262 527.881 68.3041 527.881 74.5425Z" fill="#EA83AA"/>
<path d="M517.293 38.8193C516.895 39.3356 516.117 39.339 515.714 38.8262L512.013 34.1145C511.499 33.4599 511.962 32.5005 512.795 32.4969L520.153 32.4648C520.985 32.4612 521.457 33.4164 520.949 34.0754L517.293 38.8193Z" fill="white"/>
<path d="M527.85 44.0637C528.205 40.5629 525.469 37.8948 521.842 37.8858C519.813 37.8807 517.919 38.5275 516.805 40.2709V56.4801C516.805 56.4801 527.85 50.3021 527.85 44.0637Z" fill="#EA83AA"/>
<path d="M505.082 44.0637C504.727 40.5629 507.463 37.8948 511.09 37.8858C513.119 37.8807 515.013 38.5275 516.127 40.2709V56.48C516.127 56.48 505.082 50.3021 505.082 44.0637Z" fill="#EA83AA"/>
<path d="M495.104 58.421C495.661 58.8176 495.665 59.644 495.112 60.0454L490.186 63.617C489.527 64.0951 488.603 63.6263 488.599 62.8117L488.565 55.7116C488.561 54.8971 489.481 54.4202 490.145 54.8925L495.104 58.421Z" fill="white"/>
<path d="M500.638 48.332C496.994 47.9912 494.217 50.6197 494.208 54.1046C494.202 56.0536 494.876 57.8734 496.69 58.9434H513.561C513.561 58.9434 507.131 48.332 500.638 48.332Z" fill="#EA83AA"/>
<path d="M500.638 70.2068C496.994 70.5476 494.217 67.9189 494.208 64.4339C494.202 62.4849 494.876 60.665 496.69 59.595H513.561C513.561 59.595 507.131 70.2068 500.638 70.2068Z" fill="#EA83AA"/>
<path d="M537.896 60.1181C537.339 59.7215 537.335 58.8951 537.888 58.4937L542.814 54.922C543.473 54.444 544.397 54.9128 544.401 55.7273L544.435 62.8274C544.439 63.642 543.519 64.1189 542.855 63.6465L537.896 60.1181Z" fill="white"/>
<path d="M532.362 70.2071C536.006 70.5478 538.783 67.9193 538.792 64.4345C538.798 62.4855 538.124 60.6657 536.31 59.5957H519.439C519.439 59.5957 525.869 70.2071 532.362 70.2071Z" fill="#EA83AA"/>
<path d="M532.362 48.332C536.006 47.9913 538.783 50.6199 538.792 54.1049C538.798 56.0539 538.124 57.8738 536.31 58.9438H519.439C519.439 58.9438 525.869 48.332 532.362 48.332Z" fill="#EA83AA"/>
</svg>
