<svg width="741" height="956" viewBox="0 0 741 956" fill="none" xmlns="http://www.w3.org/2000/svg">
<path d="M357.91 198.88C357.894 191.213 361.422 186.042 368.565 182.93C371.064 181.875 371.497 181.869 373.505 182.593C375.14 183.254 375.353 183.647 375.52 186.725C375.625 188.596 375.609 190.607 375.419 191.185C375.148 192.139 375.36 192.107 379.098 190.677C384.791 188.398 392.008 187.405 397.152 188.254L401.328 188.948L403.674 187.004C408.576 183.081 414.543 181.977 421.907 183.518C432.893 185.9 444.751 195.451 449.764 206.06C452.509 211.905 453.354 220.601 451.752 226.448C450.042 232.921 449.695 235.957 450.079 241.133C450.319 245.052 450.593 245.801 451.439 245.67C452.78 245.463 452.78 245.463 451.316 249.159C449.962 252.655 449.798 261.385 451.075 264.17C451.46 265.145 453.534 268.356 455.556 271.269C459.106 276.321 459.339 276.833 460.451 283.296C461.544 289.64 461.525 290.374 459.992 294.932C458.209 300.564 451.656 315.941 449.325 320.075C447.376 323.48 443.58 325.832 436.637 328C433.745 328.872 431.226 329.809 431.045 330.02C430.864 330.23 431.965 331.156 433.57 332.064C437.497 334.258 440.905 334.28 458.707 332.078L473.173 330.27L475.557 332.337C476.84 333.478 479.763 337.409 482.059 341.072C485.995 347.525 486.218 347.977 486.966 354.009C487.878 360.99 487.118 364.151 482.9 372.046C480.329 376.887 480.309 377.194 486.06 398.401C491.527 418.801 490.859 417.443 502.114 428.122C512.864 438.392 520.474 446.408 535.079 463.083L548.613 478.584L560.617 476.365C567.219 475.163 575.655 473.252 579.374 472.13L586.055 470.124L590.292 471.174C598.615 473.236 602.311 476.196 597.513 476.937C595.749 477.209 595.921 477.365 599.969 479.418C609.185 484.143 609.195 484.202 608.178 485.029C606.96 485.947 597.515 487.467 594.076 487.268C592.685 487.178 589.438 487.253 586.867 487.468C583.006 487.76 582.452 487.906 583.683 488.325C586.932 489.527 590.475 491.598 590.598 492.309C590.761 493.258 588.555 494.329 586.79 494.175C586.054 494.106 579.4 494.586 571.899 495.197C556.908 496.477 551.311 496.368 546.115 494.796C540.838 493.176 511.843 475.802 496.766 465.226C493.384 462.827 492.627 462.639 488.715 462.635C486.395 462.628 483.572 462.638 482.483 462.623C480.164 462.616 471.24 467.586 472.431 468.193C472.825 468.376 478.033 470.858 483.958 473.717C497.917 480.327 509.91 486.874 524.569 495.871C542.793 507.057 551.397 513.276 580.404 536.188C607.411 557.582 618.66 565.279 641.323 577.849C656.395 586.295 657.84 587.533 657.073 591.912C656.864 593.223 655.559 596.164 654.132 598.393C652.715 600.681 651.61 602.678 651.64 602.856C651.671 603.033 655.62 606.197 660.306 609.856C678.092 623.544 690.274 634.141 697.833 642.287L701.047 645.808L696.572 651.369C685.016 665.875 667.936 676.06 647.305 680.768C644.241 681.485 637.588 682.391 632.587 682.798L623.433 683.481L619.99 686.204C613.93 690.975 597.275 701.947 588.634 706.873C570.424 717.232 554.032 723.416 545.43 723.101C543.312 723.002 539.469 722.135 536.845 721.201L532.062 719.505L527.376 720.898C521.027 722.731 519.889 723.272 505.023 731.167C490.227 739.052 481.895 742.409 472.32 744.435C468.61 745.191 465.214 746.08 464.832 746.383C463.613 747.302 473.172 809.982 476.65 824.297C480.677 840.536 482.165 843.714 499.936 874.57C504.56 882.499 505.929 885.818 505.621 888.24C505.245 891.524 498.091 894.15 491.253 893.563C482.066 892.79 477.593 889.951 470.192 880.198C467.29 876.385 462.296 870.522 459.174 867.108C449.573 856.782 448.985 855.473 450.642 847C451.191 844.298 451.436 841.095 451.222 839.85C450.528 835.818 446.733 829.343 436.832 815.168C416.282 785.837 405.865 766.142 398.688 742.963C397.267 738.496 396.059 734.847 395.979 734.799C395.898 734.75 394.01 733.885 391.8 732.827L387.702 730.903L383.875 733.077C381.689 734.266 370.429 740.388 358.755 746.634C319.826 767.498 302.756 777.317 294.762 783.482L290.866 786.519L288.81 796.454C286.364 808.336 283.767 815.554 280.238 820.299C275.522 826.566 270.272 828.473 265.104 825.801L262.237 824.296L261.406 817.364C260.821 812.28 260.844 808.625 261.599 803.334C262.155 799.413 262.504 792.603 262.344 788.306C261.981 778.623 262.646 773.225 264.436 771C265.803 769.267 267.486 768.521 275.174 766.055C282.026 763.779 285.882 760.932 292.894 752.849C298.939 745.889 304.017 738.775 314.952 721.929C320.39 713.542 320.996 714.118 308.475 715.443C301.792 716.171 299.251 716.137 290.748 715.137C285.05 714.434 276.808 712.846 271.259 711.329C266.023 709.947 259.344 708.178 256.459 707.406L251.152 706.035L228.864 709.111C204.53 712.504 205.327 712.503 195.026 709.894C188.66 708.259 175.39 703.126 167.86 699.359C163.822 697.365 158.826 694.85 156.686 693.78C153.759 692.345 150.884 691.633 143.702 690.733C138.669 690.11 131.346 688.806 127.422 687.891C117.919 685.706 113.547 683.033 107.199 675.614C101.327 668.851 99.3367 666.967 91.9953 661.771C75.5653 650.064 69.7683 640.795 72.6715 630.729L73.7526 626.91L79.1117 624.378C90.1725 619.2 112.608 604.779 131.626 590.703C152.759 575.022 157.469 570.825 168.746 558.066C183.232 541.646 186.965 537.661 195.519 529.705C216.935 509.78 240.476 493.362 267.712 479.478C279.155 473.572 279.547 473.329 278.809 471.982C276.257 466.837 273.387 444.271 275.118 442.969C275.441 442.737 276.934 443.419 278.489 444.457C282.619 447.411 299.996 453.675 300.972 452.611C301.082 452.412 301.149 450.271 301.153 447.775C301.11 441.633 303.618 435.159 307.823 430.553C312.028 425.947 315.574 424.243 319.347 425.121C322.585 425.839 327.151 429.638 329.963 433.769C331.136 435.536 332.319 436.935 332.601 436.892C333.236 436.794 334.701 423.846 334.334 421.711L334.058 420.11L329.413 421.315C320.554 423.718 305.524 425.613 299.07 425.149C286.171 424.28 276.667 421.669 262.416 415.044C257.854 412.949 253.282 411.22 252.264 411.194C240.557 410.933 230.206 408.453 222.342 404.007C217.133 401.098 208.679 394.491 208.455 393.186C208.393 392.83 206.838 391.366 204.908 389.838C200.868 386.567 197.603 382.749 196.408 380.012C194.543 375.491 194.473 375.502 192.739 380.579L191.105 385.396L189.53 384.239C186.207 381.77 183.178 370.064 184.02 362.751C184.594 357.671 184.493 357.504 182.765 360.51L181.198 363.187L180.547 360.67C178.23 351.837 186.247 337.816 199.415 327.626C209.643 319.716 217.66 315.373 244.396 303.21C254.208 298.773 265.027 293.45 268.511 291.39C281.835 283.367 289.815 275.439 296.867 262.967C309.104 241.478 319.809 230.025 335.139 221.875C342.512 217.997 346.802 215.143 346.115 214.519C345.922 214.244 343.956 214.183 341.809 214.332C333.864 214.889 328.767 212.633 328.022 208.304C327.4 204.687 335.735 197.983 341.37 197.478C342.005 197.38 345.749 198.506 349.744 199.837C353.75 201.227 357.181 202.219 357.443 202.056C357.694 201.835 357.893 200.465 357.91 198.88Z" fill="#EA83AA"/>
<path d="M417.477 80.3136C432.271 40.7589 439.77 22.8679 446.927 10.0679C451.807 1.40921 452.888 0.281394 456.228 0.670184L459.998 1.24904L459.691 27.652C459.532 42.1736 458.918 63.8606 458.23 75.74C457.543 87.6195 456.396 107.607 455.813 120.241C454.417 149.847 447.684 195.653 442.012 215.248C439.829 222.973 435.257 236.347 432.101 245.012C428.839 253.488 426.221 262.343 426.214 264.606C426.206 266.681 428.765 274.611 431.973 281.977C435.18 289.344 433.703 284.947 434.232 287.778C426.947 287.753 318.445 287.377 312.388 287.356C310.308 259.8 306.994 244.545 300.349 230.221C293.716 216.053 288.696 203.022 286.892 194.906C286.042 191.32 284.176 170.002 282.746 147.365C280.293 108.882 280.202 104.167 281.384 74.1832C282.799 39.1085 284.355 25.5346 288.608 11.0272C290.899 3.1139 291.874 1.60852 294.46 1.6175C299.849 1.6362 310.802 12.9901 318.301 26.0296C324.406 36.9896 326.327 42.2771 333.884 69.6504C338.674 86.8296 344.311 108.35 346.434 117.598C348.558 126.659 351.533 139.116 353.237 144.969C354.941 150.821 359.709 174.224 363.833 197.059C368.065 219.706 371.983 239.9 372.514 241.976C374.539 248.584 376.395 241.801 377.86 223.323C380.914 181.653 384.515 168.841 417.477 80.3136Z" fill="#EA83AA"/>
</svg>
