<svg width="410" height="673" viewBox="0 0 410 673" fill="none" xmlns="http://www.w3.org/2000/svg">
<path d="M222.357 5.513C220.959 3.6062 218.278 2.31635 212.801 0.914307C204.235 -1.32898 201.904 0.12915 197.767 10.1117L195.203 16.1686L193.106 15.8321C191.94 15.6639 187.104 15.3273 182.326 15.103C174.052 14.7665 173.585 14.7104 171.837 13.2523C166.477 8.8219 161.99 6.80286 159.892 7.86841C157.911 8.93396 154.764 13.5888 153.366 17.6267C152.2 20.9916 151.559 21.8328 146.315 26.6559C139.031 33.3296 134.72 39.4987 128.135 52.5097C120.094 68.437 117.763 76.2884 114.383 99.0576C110.538 125.192 108.265 134.109 100.807 151.887C90.4345 176.563 88.1621 185.816 90.1432 194.902C92.1827 204.267 96.7277 210.212 104.711 213.969C107.275 215.203 110.712 217.278 112.344 218.568C115.957 221.484 118.637 222.774 121.958 223.279C123.94 223.559 132.797 226.139 133.438 226.588C133.496 226.588 133.904 229.672 134.428 233.374C136.001 244.927 139.381 253.956 144.567 260.573C145.907 262.256 147.014 263.938 147.014 264.275C147.014 264.611 143.518 267.528 139.265 270.724C66.3691 325.629 60.8336 330.059 42.129 348.061C22.4338 367.073 6.5845 385.019 2.15601 393.375C0.0582886 397.245 -3.05176e-05 397.694 -3.05176e-05 402.629C0.0582581 406.667 0.407928 408.798 1.5733 412.163C3.03006 416.425 3.08832 416.649 2.21426 419.846C1.74811 421.641 1.34021 423.94 1.34021 425.006C1.34021 429.773 5.30255 438.409 10.4303 444.746C17.8888 454 34.4956 469.759 44.2849 476.825C47.2567 479.013 48.6552 480.415 49.1214 481.761C49.9954 484.396 56.5216 490.173 62.3486 493.482C68.3503 496.847 77.3822 500.997 88.1621 505.371C94.63 507.951 96.6694 509.072 96.7859 509.858C96.8442 510.474 95.7371 514.737 94.2804 519.335C90.6094 530.888 87.0549 545.021 86.414 550.629C85.6565 556.91 85.6564 569.024 86.5305 594.934C87.0549 612.263 87.0549 617.086 86.4722 618.937C86.0643 620.227 84.0832 624.938 82.0437 629.368C80.0043 633.799 77.6735 639.407 76.8577 641.818C70.9725 659.877 75.9837 673.056 88.803 673C95.3875 673 101.273 669.298 103.953 663.522C105.759 659.596 106.226 654.493 106.226 638.566V623.087L108.79 616.694C113.509 604.692 116.714 597.794 133.321 564.537C137.4 556.349 143.343 544.124 146.548 537.338C149.753 530.552 152.55 524.831 152.783 524.607C153.016 524.327 155.813 524.831 158.96 525.56C162.165 526.346 170.614 527.804 177.723 528.757C187.104 530.047 190.775 530.776 191.008 531.337C191.766 533.3 191.94 555.957 191.358 575.473C190.6 600.149 190.017 606.935 187.978 616.974C187.162 620.956 186.463 625.667 186.405 627.349C186.346 630.658 186.58 631.051 192.931 639.014C194.446 640.921 197.592 645.52 199.923 649.165C205.284 657.689 207.965 660.55 212.451 662.681C220.842 666.606 230.69 666.775 234.419 662.961C235.584 661.783 235.701 661.167 235.468 657.746C235.293 654.044 235.118 653.595 230.981 647.483C218.22 628.583 214.025 621.292 214.025 618.096C214.025 615.123 215.248 612.151 223.289 596.055C231.68 579.287 234.594 572.445 239.255 558.649C243.451 546.311 245.315 539.525 246.947 531C247.704 527.187 248.462 523.934 248.578 523.766C248.753 523.598 254.347 522.027 261.048 520.233C299.331 509.914 324.562 500.324 340.761 489.892C351.891 482.714 369.197 467.011 378.986 455.178C384.813 448.167 396.584 432.128 400.837 425.454C404.159 420.183 408.645 410.985 409.752 407.116C410.51 404.48 409.694 402.741 404.974 397.301C401.42 393.151 379.452 369.933 364.652 354.511C345.539 334.714 315.414 306.28 305.1 298.373C294.087 289.848 275.849 278.8 259.591 270.724C254.405 268.145 250.152 265.901 250.152 265.677C250.21 265.509 253.124 263.434 256.678 261.134C260.291 258.835 265.477 254.853 268.332 252.273C276.49 244.814 278.296 239.991 276.082 231.747C275.033 227.878 270.255 216.493 265.418 206.342L261.864 198.94L264.428 193.724C267.633 187.162 268.798 182.788 268.798 177.348C268.798 173.59 268.565 172.693 266.992 170.001C265.244 167.029 265.185 166.805 266.059 165.066C266.584 164.113 267.924 159.963 269.148 155.981C270.954 150.036 271.362 147.849 271.304 144.204C271.187 139.1 269.264 132.258 266.292 126.874C263.845 122.444 257.435 116.219 251.317 112.349C248.578 110.667 244.674 107.638 242.635 105.731C239.022 102.254 238.964 102.142 239.197 99.6185C239.372 97.7117 240.188 96.0292 242.111 93.3373C244.733 89.6359 245.315 88.0656 247.238 78.5878C247.646 76.7371 248.578 73.316 249.278 71.0167C253.357 58.3422 251.259 53.1826 237.216 40.9007C229.699 34.3391 219.269 25.7025 215.19 22.7301L213.209 21.272L217.404 16.5611C219.735 13.9813 222.008 10.7847 222.59 9.43872C223.464 7.1394 223.464 6.97113 222.357 5.513Z" fill="#EA83AA"/>
</svg>
