<svg width="157" height="118" viewBox="0 0 157 118" fill="none" xmlns="http://www.w3.org/2000/svg">
<path d="M155.351 114.984C142.46 111.56 124.573 105.139 105.557 95.6313M9.11672 1.50343C10.9833 6.55078 13.1911 11.4285 15.6943 16.1378M1.23046 13.7187L15.6943 16.1378M15.6943 16.1378L22.5387 4.70441M15.6943 16.1378C19.2067 22.7458 23.3008 29.022 27.85 34.9693M7.56238 36.3919L27.85 34.9693M27.85 34.9693L34.297 20.7733M27.85 34.9693C32.2445 40.7144 37.0638 46.1526 42.1937 51.2866M22.0342 56.169L42.1937 51.2866M42.1937 51.2866L48.4069 37.2518M42.1937 51.2866C47.9109 57.0083 54.014 62.3522 60.3451 67.3217M45.4055 72.9667L60.3451 67.3217M60.3451 67.3217L63.9639 52.904M60.3451 67.3217C67.2892 72.7723 74.5075 77.7727 81.7917 82.3276M63.929 87.6257L81.7917 82.3276M81.7917 82.3276L84.0068 67.3963M81.7917 82.3276C89.7251 87.2885 97.7367 91.721 105.557 95.6313M87.9877 103.68L105.557 95.6313M105.557 95.6313L106.871 79.576" stroke="#EA83AA" stroke-width="6" stroke-miterlimit="10" stroke-linejoin="round"/>
</svg>
