<svg width="126" height="126" viewBox="0 0 126 126" fill="none" xmlns="http://www.w3.org/2000/svg">
<path d="M117.56 31.5C109.205 17.0299 95.4449 6.47119 79.3056 2.14668C63.1663 -2.17784 45.9701 0.0860825 31.5 8.4404C17.0299 16.7947 6.47119 30.5551 2.14668 46.6944C-2.17784 62.8337 0.0860765 80.0299 8.44039 94.5L63 63L117.56 31.5Z" fill="#EA83AA"/>
<path d="M105.16 38.6592C98.7043 27.4777 88.0712 19.3187 75.6 15.977C63.1287 12.6354 49.8407 14.3848 38.6593 20.8404C27.4778 27.296 19.3188 37.929 15.9772 50.4003C12.6355 62.8716 14.3849 76.1595 20.8405 87.341L63.0002 63.0001L105.16 38.6592Z" fill="#EA83AA"/>
<path d="M72.9199 57.2728C71.4009 54.6418 68.899 52.7221 65.9646 51.9358C63.0302 51.1495 59.9036 51.5611 57.2727 53.0801C54.6418 54.5991 52.722 57.101 51.9357 60.0354C51.1494 62.9698 51.5611 66.0964 53.08 68.7273L63 63L72.9199 57.2728Z" fill="#CEF9E9"/>
</svg>
