<svg width="171" height="140" viewBox="0 0 171 140" fill="none" xmlns="http://www.w3.org/2000/svg">
<path d="M85.3795 57.1338C78.8983 56.6971 72.5311 55.3459 66.5059 53.1287L71.5901 30.0273L103.169 32.2886L105.558 55.6678C98.9645 57.1523 92.1487 57.6475 85.3795 57.1338Z" fill="white"/>
<path d="M107.59 75.4155C107.485 76.594 97.2742 76.8335 84.7795 75.9425C72.2847 75.0514 62.2321 73.3554 62.3374 72.1769C62.3237 72.1396 62.3237 72.0992 62.3374 72.0619L65.4005 57.9673C78.2848 62.8099 92.5505 63.7045 106.043 60.516C106.043 60.516 107.59 75.3771 107.59 75.4155Z" fill="white"/>
<path d="M130.379 35.0384C130.305 35.8775 130.16 36.7103 129.948 37.5296C127.769 46.0189 118.369 52.7069 105.59 55.6676C92.5875 58.5301 78.9294 57.6427 66.5055 53.1285C53.9792 48.4335 45.4529 40.3274 44.7266 31.4357C44.6582 30.5968 44.6582 29.7545 44.7266 28.9157C44.771 28.3466 44.8518 27.7803 44.9687 27.2197C44.9687 27.4976 44.9687 27.7755 44.9687 28.0437C45.6845 36.9355 54.2213 45.0512 66.7476 49.7462C79.1773 54.2675 92.8457 55.1517 105.853 52.2757C118.59 49.3246 128.021 42.6366 130.211 34.1473C130.284 33.879 130.348 33.6011 130.4 33.3328C130.442 33.9077 130.421 34.4826 130.379 35.0384Z" fill="#EA83AA"/>
<path d="M130.432 33.3233C130.432 33.5916 130.316 33.8695 130.243 34.1378C129.285 20.551 112.348 3.39025 90.1583 1.7997C67.9689 0.209148 48.3057 14.7541 45.0215 28.0438C45.0215 27.7755 45.0215 27.4977 45.0215 27.2198C47.6636 13.7097 67.6636 -1.52513 90.3478 0.122913C113.032 1.77096 130.148 19.612 130.432 33.3233Z" fill="#EA83AA"/>
<path d="M130.243 34.157C128.053 42.6368 118.664 49.3248 105.885 52.2759C92.8841 55.1478 79.2238 54.2637 66.8004 49.7464C54.2741 45.0514 45.7478 36.9453 45.0215 28.0631C48.3057 14.7734 67.9478 0.228427 90.1583 1.81898C112.369 3.40953 129.285 20.5703 130.243 34.157Z" fill="#EA83AA"/>
<path d="M106.084 60.516C92.5923 63.7046 78.3267 62.81 65.4424 57.9673L66.495 53.1765C78.9188 57.6908 92.577 58.5781 105.579 55.7156L106.084 60.516Z" fill="white"/>
<path d="M47.9582 119.232C41.5914 120.418 35.0608 120.696 28.6003 120.056L26.5371 96.5623L57.6319 90.9187L66.9055 112.851C61.0141 115.904 54.6138 118.06 47.9582 119.232Z" fill="white"/>
<path d="M74.7371 131.334C74.9897 132.493 65.2634 135.253 52.9476 137.485C40.6318 139.718 30.4739 140.58 30.2213 139.402C30.2109 139.361 30.2109 139.318 30.2213 139.277L29.0107 124.972C42.8568 126.443 56.8528 123.773 68.8844 117.364C68.8844 117.364 74.7266 131.286 74.7371 131.334Z" fill="white"/>
<path d="M84.611 86.8368C84.7871 87.662 84.8962 88.4979 84.9373 89.3376C85.3689 98.0474 78.2952 106.824 66.9163 112.822C55.2575 118.79 41.8516 121.318 28.5478 120.056C15.0952 118.6 4.45311 112.947 1.11627 104.563C0.798628 103.773 0.545311 102.963 0.358373 102.139C0.236826 101.578 0.148976 101.012 0.0952148 100.443C0.179425 100.711 0.274163 100.979 0.379426 101.238C3.74785 109.612 14.3584 115.313 27.8215 116.684C41.126 117.958 54.5361 115.429 66.1899 109.45C77.5689 103.451 84.6426 94.6746 84.211 85.9649C84.211 85.6966 84.211 85.4187 84.1478 85.1409C84.3344 85.6985 84.489 86.2646 84.611 86.8368Z" fill="#EA83AA"/>
<path d="M84.1478 85.1791C84.1478 85.457 84.2004 85.7349 84.211 86.0032C79.232 73.1638 57.832 60.8322 35.9794 64.799C14.1268 68.7658 -0.462713 87.6512 0.389919 101.248C0.284656 100.989 0.189918 100.721 0.105708 100.452C-1.39956 86.808 13.3057 67.2231 35.6215 63.1701C57.9373 59.1171 79.7689 72.0427 84.1478 85.1791Z" fill="#EA83AA"/>
<path d="M84.2111 86.0224C84.6427 94.7226 77.5585 103.499 66.1901 109.488C54.5316 115.454 41.1217 117.969 27.8217 116.684C14.369 115.275 3.73744 109.584 0.390076 101.209C-0.430976 87.613 14.0743 68.7563 35.9796 64.7991C57.8848 60.8419 79.2322 73.183 84.2111 86.0224Z" fill="#EA83AA"/>
<path d="M68.8425 117.364C56.8228 123.764 42.8431 126.435 29.0109 124.972L28.5898 120.056C41.8729 121.316 55.2585 118.799 66.9057 112.851L68.8425 117.364Z" fill="white"/>
<path d="M112.516 107.236C107.896 103.073 104.017 98.2786 101.021 93.0264L121.369 78.4719L143.79 98.8808L128.927 118.044C122.843 115.284 117.299 111.633 112.516 107.236Z" fill="white"/>
<path d="M116.379 134.266C115.463 135.099 107.527 129.245 98.6634 121.177C89.8002 113.11 83.3581 105.847 84.2844 105.042C84.3152 105.012 84.3558 104.992 84.4002 104.984L96.7897 96.083C103.129 107.377 113.329 116.49 125.853 122.049C125.853 122.049 116.379 134.237 116.379 134.266Z" fill="white"/>
<path d="M162.485 117.038C161.833 117.636 161.129 118.184 160.38 118.677C152.664 123.841 140.716 123.353 128.916 118.063C116.985 112.557 107.232 103.806 101.011 93.0266C94.8321 82.0557 94.1374 70.8451 99.9584 63.6589C100.5 62.9764 101.102 62.3355 101.758 61.7426C102.196 61.3348 102.66 60.9509 103.148 60.5928C102.958 60.8036 102.769 61.0239 102.59 61.2443C96.79 68.4306 97.4847 79.6411 103.643 90.6217C109.872 101.399 119.628 110.148 131.558 115.658C143.348 120.938 155.295 121.407 163.011 116.272C163.264 116.106 163.506 115.933 163.737 115.754C163.348 116.204 162.929 116.633 162.485 117.038Z" fill="#EA83AA"/>
<path d="M163.748 115.725C163.516 115.904 163.274 116.077 163.021 116.243C171.99 105.349 171.379 82.3047 155.653 67.961C139.927 53.6172 114.6 53.0711 102.611 61.2538C102.79 61.0334 102.979 60.8131 103.169 60.6023C114.821 51.8926 140.874 52.1513 156.969 66.8016C173.063 81.4519 173.316 105.186 163.748 115.725Z" fill="#EA83AA"/>
<path d="M163.011 116.281C155.295 121.436 143.358 120.947 131.569 115.668C119.638 110.157 109.883 101.409 103.653 90.6311C97.4847 79.6601 96.7899 68.4496 102.6 61.273C114.579 53.1094 139.895 53.6556 155.643 67.9801C171.39 82.3047 171.979 105.387 163.011 116.281Z" fill="#EA83AA"/>
<path d="M125.853 122.049C113.322 116.494 103.114 107.38 96.769 96.0832L100.98 93.0266C107.201 103.806 116.954 112.557 128.885 118.063L125.853 122.049Z" fill="white"/>
</svg>
