<svg width="244" height="225" viewBox="0 0 244 225" fill="none" xmlns="http://www.w3.org/2000/svg">
<path d="M109.671 109.026C124.153 95.6717 127.434 77.0453 116.999 67.4229C106.564 57.8005 86.3647 60.8258 71.8827 74.1802C57.4007 87.5345 54.1199 106.161 64.5548 115.783C74.9898 125.406 95.1891 122.38 109.671 109.026Z" fill="#EA83AA"/>
<path d="M73.9561 116.294C74.9288 115.397 73.4861 112.612 70.7339 110.074C67.9816 107.537 64.962 106.206 63.9893 107.103C63.0166 108 64.4592 110.785 67.2114 113.323C69.9637 115.861 72.9834 117.191 73.9561 116.294Z" fill="#EA83AA"/>
<path d="M89.3871 76.4058C81.8332 74.1467 77.9542 84.5915 76.4352 82.3323C74.9163 80.0732 79.0485 75.0579 85.7449 71.1345C92.4414 67.2111 99.1296 65.8632 100.689 68.1223C102.249 70.3815 102.298 80.3066 89.3871 76.4058Z" fill="#EA83AA"/>
<path d="M183.856 107.069C185.755 89.7023 176.295 74.6003 162.725 73.338C149.155 72.0758 136.615 85.1314 134.715 102.498C132.815 119.866 142.275 134.968 155.845 136.23C169.415 137.492 181.956 124.436 183.856 107.069Z" fill="#EA83AA"/>
<path d="M162.906 131.531C163.034 130.364 160.234 129.148 156.653 128.815C153.072 128.482 150.066 129.158 149.938 130.325C149.811 131.492 152.61 132.708 156.191 133.041C159.772 133.374 162.778 132.698 162.906 131.531Z" fill="#EA83AA"/>
<path d="M148.67 94.6794C141.835 97.1268 145.706 106.675 143.158 105.9C140.61 105.124 140.422 99.288 142.725 92.8645C145.028 86.441 148.932 81.8399 151.504 82.6381C154.077 83.4363 160.365 90.4849 148.67 94.6794Z" fill="#EA83AA"/>
<path d="M113.971 166.749C129.382 160.538 137.94 147.201 133.086 136.962C128.233 126.722 111.805 123.456 96.3946 129.668C80.984 135.879 72.4259 149.215 77.2796 159.455C82.1333 169.695 98.5608 172.96 113.971 166.749Z" fill="#EA83AA"/>
<path d="M84.3108 162.449C85.344 162.033 85.1433 159.505 83.8626 156.803C82.5819 154.101 80.7061 152.249 79.6729 152.665C78.6398 153.081 78.8405 155.609 80.1212 158.311C81.4019 161.013 83.2777 162.866 84.3108 162.449Z" fill="#EA83AA"/>
<path d="M109.044 136.217C104.013 132.407 97.6842 139.335 97.2269 137.173C96.7695 135.012 101.58 132.339 107.974 131.149C114.368 129.959 119.929 130.803 120.387 132.964C120.844 135.125 117.667 142.738 109.044 136.217Z" fill="#EA83AA"/>
</svg>
