<svg width="198" height="198" viewBox="0 0 198 198" fill="none" xmlns="http://www.w3.org/2000/svg">
<g clip-path="url(#clip0_28_909)">
<path d="M28.6197 130.483C9.14606 111.66 14.447 93.6231 29.2132 74.3852L38.5982 83.4568C28.2172 99.8762 26.5052 115.608 43.3792 131.918C57.2362 145.312 80.9442 156.509 104.465 160.383C76.5933 159.746 45.3983 146.701 28.6197 130.483Z" fill="#EA83AA"/>
<path d="M79.7464 37.689L71.9593 30.162C85.8249 18.8003 99.1375 12.5925 113.049 17.7207C102.011 19.4758 91.0982 27.2336 79.7464 37.689Z" fill="#EA83AA"/>
<path d="M43.3797 131.918C26.5057 115.608 28.2176 99.8761 38.5987 83.4567C44.8228 73.605 54.1606 63.4911 64.4517 52.8444C69.6668 47.4491 74.6894 42.2529 79.7468 37.689C91.0772 27.2557 101.987 19.4527 113.05 17.7207C118.634 19.9329 123.744 23.3304 128.005 27.6639C155.003 53.7606 174.921 117.537 147.478 145.929C137.091 156.675 121.395 160.814 104.466 160.383C80.9447 156.509 57.2366 145.312 43.3797 131.918Z" fill="#EA83AA"/>
<path d="M38.5987 83.4568L28.3192 73.5207L71.0653 29.2976L79.7468 37.689C74.749 42.3106 69.6668 47.4492 64.4517 52.8444C54.1606 63.4911 44.8228 73.6051 38.5987 83.4568Z" fill="#FFF6E9"/>
<path d="M79.2751 122.775L38.5986 83.4569C44.8227 73.6052 54.1606 63.4913 64.4517 52.8445C69.6667 47.4493 74.6894 42.2531 79.7467 37.6892L122.021 78.5516C123.688 80.1627 124.693 82.3216 124.815 84.5535C124.938 86.7854 124.168 88.9074 122.674 90.4526L91.1914 123.023C89.6978 124.568 87.6032 125.41 85.3684 125.364C83.1337 125.317 80.9418 124.386 79.2751 122.775Z" fill="#FFF6E9"/>
</g>
<defs>
<clipPath id="clip0_28_909">
<rect width="143" height="136" fill="white" transform="translate(197.17 94.5195) rotate(134.027)"/>
</clipPath>
</defs>
</svg>
