<svg width="164" height="115" viewBox="0 0 164 115" fill="none" xmlns="http://www.w3.org/2000/svg">
<path d="M162.975 103.806C150.258 99.5051 124.63 72.7366 124.584 71.8714C124.556 71.3395 89.1844 66.0798 74.3432 57.4434C63.7549 51.2817 51.8786 26.18 51.2835 26.4568C35.4413 33.8516 8.69791 8.94571 1.2949 0.599327C5.23667 9.24365 6.93485 17.8231 1.29384 29.1949C14.1644 39.149 17.9704 46.7612 13.902 58.4205C33.8818 64.4043 44.5484 76.1781 36.2963 89.1571C46.2406 92.1738 56.184 95.2151 65.8894 108.469C78.3302 97.1969 88.7926 103.788 101.875 113.853C102.28 106.714 117.276 101.908 132.891 110.969C133.488 111.316 144.482 99.116 162.975 103.806L162.975 103.806Z" fill="#EA83AA" stroke="#EA83AA" stroke-width="1.0241"/>
</svg>
