<svg width="520" height="526" viewBox="0 0 520 526" fill="none" xmlns="http://www.w3.org/2000/svg">
<path d="M310.385 0C278.023 0 257.674 60.8075 251.545 91.2112C229.481 63.2398 172.11 11.675 133.865 29.1876C95.619 46.7002 110.574 111.886 122.832 142.29C93.4125 125.263 29.4247 104.346 8.83093 156.883C-11.7628 209.421 46.8316 244.446 78.703 255.391C44.38 269.985 -18.382 311.578 5.15379 361.197C28.6895 410.815 83.6074 394.033 108.124 379.439C105.673 418.356 111.066 497.648 152.254 503.486C193.441 509.324 215.997 459.705 222.126 434.165C235.61 474.298 273.608 532.674 328.772 525.377C386.214 517.779 375.353 442.679 365.547 415.923C399.87 417.139 472.193 410.815 486.903 375.79C501.613 340.765 446.451 300.389 417.031 284.579C451.354 277.282 520 253.202 520 215.259C520 177.315 466.064 170.261 439.096 171.477C461.161 156.883 497.935 118.939 468.516 83.9143C439.096 48.8892 387.611 74.1851 365.547 91.2112C360.643 60.8075 342.746 0 310.385 0Z" fill="#EA83AA"/>
</svg>
