<svg width="120" height="211" viewBox="0 0 120 211" fill="none" xmlns="http://www.w3.org/2000/svg">
<path d="M59.3505 0C66.0297 5.13043 58.5232 23.7995 53.935 32.4928C44.1194 51.0906 17.8315 56.221 7.00049 59C12.5597 43.1812 19.6367 36.5543 32.9499 36.5543C23.2019 33.4761 20.0128 21.8756 19.6367 16.4601C24.977 16.2464 36.5151 18.7688 39.9449 30.5688C39.9449 21.163 49.4221 7.69565 59.3505 0Z" fill="#EA83AA"/>
<path d="M98.5783 196C89.7244 194.914 82.3921 179.544 82.0218 169.695C81.2296 148.625 102.741 143.863 111.237 136C114.477 152.517 110.826 154.22 98.5784 160.924C109.172 158.685 116.794 169.34 120 173.847C115.201 176.721 106.018 180.507 96.6309 172.001C101.598 180.157 103.648 184.328 98.5783 196Z" fill="#EA83AA"/>
<path d="M23.5668 81.036C11.6597 55.8168 32.3173 45.1813 45.2463 42.8559C46.3805 42.6519 47.1593 41.5825 47.0606 40.4342C46.0569 28.7525 54.5407 18.5869 72.7023 20.1616C111.422 23.5189 99.874 59.1033 102.365 70.9649C104.855 82.8264 108.252 99.3878 98.289 104.535C88.326 109.683 83.3445 105.654 69.3058 102.521C55.2671 99.3878 34.662 104.535 23.5668 81.036Z" fill="#EA83AA"/>
<path d="M83.0856 117.962C105.869 133.731 93.3616 153.154 83.3747 161.593C82.4941 162.337 82.3543 163.653 83.0136 164.599C89.6713 174.149 87.4037 187.109 70.9749 194.789C35.9347 211.168 28.2114 174.805 20.1724 165.839C12.1334 156.872 0.979156 144.313 7.00924 134.927C13.0393 125.54 19.334 126.527 32.9904 122.237C46.6468 117.947 61.8494 103.265 83.0856 117.962Z" fill="#EA83AA"/>
<path d="M54.4101 69.756C47.3013 64.2916 49.9021 50.5364 54.4101 46.9562C58.918 43.376 67.4139 43.1876 72.2687 45.6372C77.1234 48.0867 86.1394 83.6997 83.5387 85.7724C80.9379 87.8451 61.5188 75.2204 54.4101 69.756Z" fill="#FFF6E9"/>
<path d="M62.1496 142.513C71.2281 143.626 75.8397 156.959 73.6303 162.398C71.421 167.837 63.9545 172.367 58.4002 172.725C52.846 173.083 26.889 146.656 28.16 143.512C29.431 140.367 53.0712 141.4 62.1496 142.513Z" fill="#FFF6E9"/>
</svg>
