<svg width="187" height="125" viewBox="0 0 187 125" fill="none" xmlns="http://www.w3.org/2000/svg">
<path d="M0.395508 11.1525C0.395508 11.1525 -1.58878 16.1655 3.33178 24.1855C8.62798 32.8181 22.0815 33.8503 28.1248 60.8647C38.3056 106.375 49.2646 120.918 63.9185 123.908C79.7839 125.404 89.7444 125.423 100.415 123.59C105.574 122.538 110.008 120.123 114.021 115.457L114.124 115.794C114.124 115.794 134.342 108.003 162.262 88.9743C177.505 78.5858 185.046 64.9422 186.662 52.8106C187.471 46.745 186.84 41.0624 184.636 36.1472C182.432 31.2321 178.039 26.775 172.312 26.0895C165.325 25.2536 160.907 28.244 154.818 31.4654C151.845 33.0382 148.709 34.861 145.554 36.8215C150.499 31.5052 155.461 29.0624 158.271 24.4824C163.192 16.4623 161.228 11.4494 161.228 11.4494C100.415 -3.76647 55.583 -3.76646 0.396882 11.1518L0.395508 11.1525ZM170.53 42.4556C170.605 42.6007 170.69 42.7813 170.82 43.0706C171.407 44.3795 171.943 47.1093 171.482 50.5688C170.559 57.4887 166.063 67.1954 153.988 75.4249C142.755 83.0805 133.038 88.729 125.514 92.7231C128.113 85.0808 130.667 75.6775 133.31 64.1572C136.51 61.8728 140.04 59.385 143.752 56.8965C149.856 52.8039 156.327 48.785 161.618 45.9856C165.57 43.8946 169.459 42.8967 170.53 42.4545L170.53 42.4556Z" fill="#EA83AA"/>
</svg>
