<svg width="211" height="212" viewBox="0 0 211 212" fill="none" xmlns="http://www.w3.org/2000/svg">
<path d="M16.4929 74.8599C14.7849 75.246 13.1411 75.9436 11.659 77.0334C6.57671 80.4667 3.57575 87.4959 4.58526 94.1324C4.53439 95.9022 5.4737 97.5174 5.3483 99.3032C5.33668 99.4074 5.32474 99.5116 5.31573 99.6168C4.98177 100.447 5.04388 101.419 4.8678 102.308C4.97903 102.245 5.0909 102.184 5.20346 102.125C5.0909 102.184 4.97903 102.245 4.8678 102.308C4.74929 102.657 4.71216 103.034 4.6906 103.409C4.42715 104.766 3.93013 106.041 3.49308 107.334C2.24766 108.939 1.8034 111.392 0.0970542 112.613C-0.262201 113.281 0.464681 113.425 0.833516 113.614C4.02969 114.202 7.80762 113.056 10.2902 110.849C10.7248 110.576 11.1178 110.24 11.5034 109.892C11.8016 109.807 12.2303 109.677 12.2398 110.189C12.5164 112.088 14.2158 113.318 15.842 113.314C19.1004 113.507 22.1386 111.649 24.7791 109.8C26.5371 114.684 31.9654 113.407 35.2179 111.396C36.0023 110.861 36.6799 109.994 37.602 109.793C39.7767 114.631 45.9056 113.594 48.9808 110.442C49.2167 110.316 49.4083 110.112 49.582 109.899C49.8838 109.872 50.1748 109.383 50.4502 109.642C52.4716 114.444 58.6771 113.457 61.6626 110.429C61.9368 110.251 62.1836 110.024 62.3919 109.758C62.653 109.697 62.9139 109.431 63.1858 109.555C65.3988 114.099 71.5 113.582 74.5069 110.334C74.7584 110.119 75.0198 109.894 75.203 109.605C75.5527 109.612 76.04 109.261 76.1561 109.924C78.1105 113.055 81.9019 113.17 84.879 112.23C86.5974 115.237 88.4859 118.164 89.8032 121.444C90.4198 123.188 91.2171 124.852 91.859 126.587C99.1997 146.295 100.277 169.291 93.3598 189.339C92.5227 191.151 92.3096 193.685 90.6151 194.778C88.4356 195.719 86.2202 196.674 84.3042 198.202C79.0782 200.941 74.6796 205.75 72.238 211.639C73.9444 212 76.2091 211.65 78.0916 211.754C78.6029 211.79 79.1153 211.784 79.6315 211.794C81.1559 211.755 82.6813 211.747 84.2069 211.798C85.9697 211.728 87.7351 211.796 89.499 211.755C90.336 211.8 91.1741 211.75 92.0148 211.8C93.3668 211.744 94.7202 211.785 96.0734 211.754C102.021 211.796 107.971 211.739 113.92 211.781C118.706 211.761 123.493 211.751 128.279 211.788C130.84 211.747 133.402 211.766 135.965 211.778C137.684 211.686 139.639 211.927 141.202 211.651C140.456 209.865 139.427 207.973 138.152 206.639C135.86 202.238 131.847 199.242 127.689 197.284C127.279 196.733 126.575 196.504 125.999 196.2C124.398 195.04 122.255 194.659 120.727 193.477C111.333 167.06 114.467 135.507 128.521 111.965C128.884 111.082 129.833 111.924 130.385 112.001C133.186 113.229 136.802 112.572 138.59 109.652C138.838 108.721 139.352 109.729 139.792 109.764C142.687 112.878 148.476 113.925 151.064 109.803C151.335 108.53 152.476 110.012 153.075 110.311C156.172 112.96 161.974 114.078 164.182 109.476C164.678 109.107 164.89 110.345 165.474 110.019C166.105 110.558 166.808 110.99 167.57 111.246C170.439 113.016 175.526 113.527 176.918 109.255C178.094 109.425 178.767 110.925 179.951 111.022C182.41 112.412 185.34 112.822 187.982 111.916C188.961 111.437 189.241 110.142 189.747 109.271C191.559 109.952 193.204 111.5 195.225 111.797C197.4 112.652 201.063 113.516 202.33 110.505C202.607 109.966 202.436 109.023 203.196 109.326C205.531 111.066 208.281 111.924 211 112.523C210.849 111.842 210.228 111.472 209.837 110.986C205.94 106.562 204.431 99.9488 205.482 93.8893C206.567 85.5087 201.292 77.1559 194.256 74.8603H25.0826C25.0825 74.8603 25.0826 74.8602 25.0826 74.8603H16.4973L16.4929 74.8599ZM176.23 109.616C176.245 109.619 176.258 109.625 176.27 109.634C176.258 109.625 176.245 109.619 176.23 109.616Z" fill="#EA83AA"/>
<path d="M24.5078 60C24.5078 26.8629 51.3707 0 84.5078 0H126.583C159.72 0 186.583 26.8629 186.583 60V65.7498C186.583 71.2726 182.106 75.7498 176.583 75.7498H34.5078C28.985 75.7498 24.5078 71.2726 24.5078 65.7498V60Z" fill="#FFF6E9"/>
<rect x="25.0078" y="25.3391" width="161.075" height="15.8583" stroke="#CDA2AC"/>
<rect x="25.0078" y="31.2239" width="161.075" height="4.61942" fill="#EA83AA" stroke="#FFF6E9"/>
<path d="M88.0803 24.6543C86.8258 24.6628 85.5645 25.0275 84.6836 26.0702C83.3844 26.964 82.0312 28.6236 81.689 30.3993C81.0024 31.6317 81.0615 33.2053 81.474 34.5978C81.8866 35.9908 82.6861 37.3205 83.6411 38.107C84.3182 39.2042 85.1966 39.8818 86.1921 40.2336C87.1999 40.5898 88.2924 40.6002 89.3633 40.4285C91.4784 40.0895 93.6398 39.0155 95.1606 38.2356C97.9213 37.2504 100.623 35.8952 103.183 34.398L103.405 34.2678L103.428 34.0109C103.43 33.9853 103.433 33.9595 103.435 33.9333C103.496 33.2493 103.576 32.3642 103.415 31.6392C103.329 31.2523 103.164 30.8607 102.85 30.5634C102.561 30.2906 102.187 30.1361 101.741 30.101C100.501 29.2038 99.0474 28.4927 97.5683 27.8685C96.6851 27.4958 95.7614 27.142 94.8647 26.7985C94.2438 26.5606 93.6357 26.3278 93.0631 26.097C91.8704 25.3834 89.9145 24.6418 88.0803 24.6543ZM88.0803 24.6543L88.0837 25.1543M88.0803 24.6543C88.0803 24.6543 88.0803 24.6543 88.0803 24.6543L88.0837 25.1543M88.0837 25.1543C86.8965 25.1624 85.7801 25.5113 85.0233 26.4439C83.7646 27.2876 82.4542 28.9058 82.1654 30.5737L88.0837 25.1543ZM117.998 63.5134C117.366 63.5033 116.736 63.5083 116.113 63.5133L115.993 63.5142C115.133 63.521 114.286 63.5258 113.444 63.491C113.165 63.1258 112.969 62.668 112.74 62.1345L112.729 62.1082C112.512 61.601 112.261 61.0199 111.858 60.5353C111.92 60.1938 111.873 59.8028 111.566 59.491C111.082 58.6294 110.743 57.6462 110.56 56.6346C110.43 55.3876 110.364 54.1192 110.305 52.8345C110.297 52.6422 110.288 52.4495 110.28 52.2564C110.231 51.1575 110.181 50.0477 110.097 48.9455C109.898 46.3652 109.502 43.781 108.435 41.3389C108.27 40.717 108.078 40.1094 107.888 39.5142C107.875 39.4726 107.861 39.431 107.848 39.3896C107.673 38.8426 107.502 38.306 107.35 37.7625C107.318 36.5386 106.506 35.7302 105.579 35.6707C105.111 35.6408 104.636 35.8099 104.29 36.1938C103.961 36.5577 103.782 37.0733 103.778 37.6991C103.699 37.931 103.613 38.1678 103.526 38.4092C103.191 39.3346 102.832 40.3283 102.7 41.3729C101.232 45.2526 100.577 49.6102 100.976 53.8327C100.964 54.8489 100.729 55.8251 100.427 56.8279C100.344 57.1046 100.255 57.3865 100.165 57.6723C99.9388 58.3853 99.7054 59.1223 99.5408 59.8638C99.2124 60.4589 98.9178 61.0742 98.6303 61.6745L98.582 61.7754C98.3019 62.36 98.0266 62.9299 97.7235 63.4764C97.1068 63.556 96.4587 63.5281 95.7611 63.498C95.6346 63.4926 95.5065 63.4871 95.3767 63.4821C94.637 63.4539 93.8451 63.4449 93.0814 63.6268C93.0967 63.6097 93.1114 63.5918 93.1254 63.5733C95.7032 60.323 97.961 56.2212 97.5997 51.5252L97.5998 51.5252L97.5992 51.519C97.4443 49.7897 97.8343 48.1579 98.4454 46.5445C98.7512 45.7374 99.1095 44.9418 99.4792 44.1425C99.5499 43.9899 99.621 43.8369 99.6923 43.6836C99.9863 43.0511 100.282 42.4141 100.553 41.7785C100.57 41.7508 100.587 41.7231 100.604 41.6953C101.154 40.8101 101.735 39.8726 102.164 38.8503L102.694 37.5881L101.475 38.2119C100.774 38.5709 100.167 39.0875 99.612 39.6086C99.4137 39.795 99.2253 39.9785 99.0411 40.1579C98.697 40.4931 98.3675 40.814 98.0153 41.1124C96.4337 42.2466 94.8081 43.3881 93.0999 44.1757C91.396 44.9613 89.6423 45.3788 87.8076 45.0921C86.8004 44.8874 85.8991 44.356 85.0447 43.6424C84.2109 42.9461 83.4499 42.1013 82.6883 41.2557C82.6838 41.2507 82.6794 41.2458 82.6749 41.2408C82.2149 40.0518 81.7765 38.9085 81.5417 37.6915L81.5396 37.6804L81.5369 37.6694C81.2607 36.5201 81.1798 35.3377 81.1621 34.1216C81.1542 33.5778 81.159 33.0325 81.1637 32.4807C81.1643 32.4153 81.1649 32.3498 81.1654 32.2842C81.1705 31.6678 81.1739 31.044 81.157 30.4209L81.1571 30.4209L81.1569 30.4161C81.1338 29.7884 81.2253 29.1699 81.3485 28.5192C81.3769 28.3692 81.4074 28.2161 81.4383 28.0605C81.5363 27.5677 81.6392 27.05 81.6978 26.5302C82.2014 24.5001 83.4792 22.8981 84.9725 21.5782C87.7127 19.603 90.5757 19.8944 93.3922 21.2188C96.2159 22.5467 98.907 24.8769 101.227 26.8854L101.255 26.9099C101.917 27.7101 102.653 28.4353 103.366 29.1377C103.561 29.329 103.753 29.5186 103.942 29.7076L104.188 29.9539L104.505 29.8084C104.838 29.6549 105.186 29.63 105.59 29.6616C105.777 29.6762 105.966 29.7019 106.172 29.7299C106.191 29.7326 106.211 29.7352 106.231 29.7379C106.454 29.7681 106.696 29.7998 106.943 29.813L107.2 29.8267L107.361 29.6249C107.879 28.9727 108.447 28.4081 109.038 27.8204C109.328 27.5323 109.623 27.2385 109.921 26.9262C111.525 25.4914 113.218 24.1933 114.93 22.8801L115.041 22.7954C115.527 22.4904 116.032 22.2208 116.554 21.942C116.593 21.9209 116.633 21.8996 116.673 21.8783C117.232 21.5791 117.809 21.2667 118.364 20.9002C119.33 20.3656 120.374 20.1106 121.426 20.0976L121.426 20.0977C124.895 20.0552 128.46 22.6529 129.474 26.529C129.511 26.7215 129.549 26.9118 129.586 27.1004C129.812 28.2357 130.026 29.3096 130.002 30.4269L130.002 30.4294C129.992 31.0538 129.997 31.6698 130.002 32.2789C130.016 34.1267 130.03 35.91 129.624 37.666C129.613 37.7079 129.603 37.7497 129.592 37.7915C129.249 39.1641 128.924 40.4636 128.19 41.4811L128.19 41.481L128.182 41.4918C126.187 44.4154 122.712 45.9024 119.644 44.8167C117.569 44.0367 115.342 42.8889 113.426 41.2854L113.409 41.2711L113.391 41.2585C113.355 41.2333 113.301 41.1967 113.25 41.1618L113.249 41.161C113.205 41.1308 113.163 41.1019 113.131 41.0801C112.765 40.7749 112.419 40.4524 112.061 40.1194C111.884 39.955 111.705 39.7881 111.519 39.6194C110.964 39.1157 110.371 38.6154 109.702 38.2216L108.333 37.4152L108.994 38.8604C109.318 39.5701 109.702 40.2688 110.075 40.9482C110.282 41.324 110.485 41.6939 110.673 42.0565L110.677 42.064L110.681 42.0713C110.976 42.5968 111.223 43.1578 111.474 43.7442C111.503 43.8107 111.531 43.8777 111.56 43.9449C111.78 44.4602 112.007 44.994 112.269 45.5082C113.58 48.3282 113.65 51.1563 113.681 54.5713L113.682 54.6341L113.698 54.6948C113.71 54.7395 113.718 54.8125 113.724 54.9384C113.725 54.9617 113.727 54.9877 113.728 55.0155C113.732 55.1142 113.737 55.2364 113.749 55.3469C113.764 55.4885 113.797 55.6798 113.894 55.8555C113.942 55.9415 114.003 56.021 114.08 56.0883C114.135 56.7715 114.351 57.3729 114.614 57.9407C114.753 58.2417 114.91 58.5411 115.065 58.8364L115.095 58.8954C115.262 59.2136 115.427 59.5312 115.58 59.8675L115.592 59.8938L115.607 59.9186C115.806 60.2473 116.023 60.5695 116.233 60.8811C116.246 60.9004 116.259 60.9196 116.271 60.9388C116.521 61.6376 116.976 62.1975 117.365 62.6771L117.392 62.71C117.625 62.9966 117.832 63.2553 117.998 63.5134ZM122.98 24.696V24.696C121.165 24.7057 119.278 25.4638 118 26.0986C115.156 27.2046 111.999 28.4978 109.433 30.0878C108.939 30.0977 108.53 30.2873 108.226 30.6075C107.904 30.9471 107.733 31.3982 107.654 31.8405C107.498 32.712 107.665 33.7531 108.048 34.4122L108.122 34.5404L108.254 34.6073C108.842 34.9055 109.436 35.2213 110.037 35.5405C111.952 36.559 113.933 37.6123 116.005 38.2385C117.501 39.0036 119.665 39.9497 121.79 40.2338C123.915 40.5181 126.123 40.1475 127.498 38.1217C128.484 37.3138 129.266 35.9855 129.663 34.5951C130.06 33.2071 130.102 31.6566 129.476 30.4205C129.156 28.564 127.688 27.01 126.463 26.0675C125.489 25.0403 124.233 24.6894 122.98 24.696Z" fill="#EA83AA" stroke="#EA83AA"/>
<path d="M33.6471 70.1316C33.6471 73.0186 31.5904 75.251 29.1786 75.251C26.7667 75.251 24.71 73.0186 24.71 70.1316C24.71 67.2446 26.7667 65.0122 29.1786 65.0122C31.5904 65.0122 33.6471 67.2446 33.6471 70.1316Z" fill="#FFF6E9" stroke="#EA83AA"/>
<path d="M62.2658 70.1314C62.2658 73.0184 60.2091 75.2508 57.7972 75.2508C55.3853 75.2508 53.3286 73.0184 53.3286 70.1314C53.3286 67.2444 55.3853 65.012 57.7972 65.012C60.2091 65.012 62.2658 67.2444 62.2658 70.1314Z" fill="#FFF6E9" stroke="#EA83AA"/>
<path d="M52.7262 70.1314C52.7262 73.0184 50.6695 75.2508 48.2577 75.2508C45.8458 75.2508 43.7891 73.0184 43.7891 70.1314C43.7891 67.2444 45.8458 65.012 48.2577 65.012C50.6695 65.012 52.7262 67.2444 52.7262 70.1314Z" fill="#FFF6E9" stroke="#EA83AA"/>
<path d="M43.1867 70.1314C43.1867 73.0184 41.13 75.2508 38.7181 75.2508C36.3062 75.2508 34.2495 73.0184 34.2495 70.1314C34.2495 67.2444 36.3062 65.012 38.7181 65.012C41.13 65.012 43.1867 67.2444 43.1867 70.1314Z" fill="#FFF6E9" stroke="#EA83AA"/>
<path d="M71.8058 70.1314C71.8058 73.0184 69.7491 75.2508 67.3372 75.2508C64.9254 75.2508 62.8687 73.0184 62.8687 70.1314C62.8687 67.2444 64.9254 65.012 67.3372 65.012C69.7491 65.012 71.8058 67.2444 71.8058 70.1314Z" fill="#FFF6E9" stroke="#EA83AA"/>
<path d="M129.044 70.1314C129.044 73.0184 126.987 75.2508 124.575 75.2508C122.163 75.2508 120.106 73.0184 120.106 70.1314C120.106 67.2444 122.163 65.012 124.575 65.012C126.987 65.012 129.044 67.2444 129.044 70.1314Z" fill="#FFF6E9" stroke="#EA83AA"/>
<path d="M109.965 70.1314C109.965 73.0184 107.908 75.2508 105.496 75.2508C103.084 75.2508 101.027 73.0184 101.027 70.1314C101.027 67.2444 103.084 65.012 105.496 65.012C107.908 65.012 109.965 67.2444 109.965 70.1314Z" fill="#FFF6E9" stroke="#EA83AA"/>
<path d="M90.8854 70.1314C90.8854 73.0184 88.8287 75.2508 86.4168 75.2508C84.005 75.2508 81.9482 73.0184 81.9482 70.1314C81.9482 67.2444 84.005 65.012 86.4168 65.012C88.8287 65.012 90.8854 67.2444 90.8854 70.1314Z" fill="#FFF6E9" stroke="#EA83AA"/>
<path d="M81.3454 70.1314C81.3454 73.0184 79.2887 75.2508 76.8768 75.2508C74.4649 75.2508 72.4082 73.0184 72.4082 70.1314C72.4082 67.2444 74.4649 65.012 76.8768 65.012C79.2887 65.012 81.3454 67.2444 81.3454 70.1314Z" fill="#FFF6E9" stroke="#EA83AA"/>
<path d="M138.584 70.1314C138.584 73.0184 136.527 75.2508 134.115 75.2508C131.703 75.2508 129.646 73.0184 129.646 70.1314C129.646 67.2444 131.703 65.012 134.115 65.012C136.527 65.012 138.584 67.2444 138.584 70.1314Z" fill="#FFF6E9" stroke="#EA83AA"/>
<path d="M119.504 70.1314C119.504 73.0184 117.447 75.2508 115.035 75.2508C112.624 75.2508 110.567 73.0184 110.567 70.1314C110.567 67.2444 112.624 65.012 115.035 65.012C117.447 65.012 119.504 67.2444 119.504 70.1314Z" fill="#FFF6E9" stroke="#EA83AA"/>
<path d="M100.425 70.1314C100.425 73.0184 98.3683 75.2508 95.9564 75.2508C93.5445 75.2508 91.4878 73.0184 91.4878 70.1314C91.4878 67.2444 93.5445 65.012 95.9564 65.012C98.3683 65.012 100.425 67.2444 100.425 70.1314Z" fill="#FFF6E9" stroke="#EA83AA"/>
<path d="M148.123 70.1314C148.123 73.0184 146.066 75.2508 143.655 75.2508C141.243 75.2508 139.186 73.0184 139.186 70.1314C139.186 67.2444 141.243 65.012 143.655 65.012C146.066 65.012 148.123 67.2444 148.123 70.1314Z" fill="#FFF6E9" stroke="#EA83AA"/>
<path d="M176.742 70.1314C176.742 73.0184 174.686 75.2508 172.274 75.2508C169.862 75.2508 167.805 73.0184 167.805 70.1314C167.805 67.2444 169.862 65.012 172.274 65.012C174.686 65.012 176.742 67.2444 176.742 70.1314Z" fill="#FFF6E9" stroke="#EA83AA"/>
<path d="M167.203 70.1314C167.203 73.0184 165.146 75.2508 162.734 75.2508C160.322 75.2508 158.266 73.0184 158.266 70.1314C158.266 67.2444 160.322 65.012 162.734 65.012C165.146 65.012 167.203 67.2444 167.203 70.1314Z" fill="#FFF6E9" stroke="#EA83AA"/>
<path d="M157.663 70.1314C157.663 73.0184 155.607 75.2508 153.195 75.2508C150.783 75.2508 148.726 73.0184 148.726 70.1314C148.726 67.2444 150.783 65.012 153.195 65.012C155.607 65.012 157.663 67.2444 157.663 70.1314Z" fill="#FFF6E9" stroke="#EA83AA"/>
<path d="M186.282 70.1314C186.282 73.0184 184.225 75.2508 181.813 75.2508C179.401 75.2508 177.345 73.0184 177.345 70.1314C177.345 67.2444 179.401 65.012 181.813 65.012C184.225 65.012 186.282 67.2444 186.282 70.1314Z" fill="#FFF6E9" stroke="#EA83AA"/>
<mask id="path-23-inside-1_46_42" fill="white">
<ellipse cx="100.185" cy="6.90138" rx="0.984142" ry="1.11305"/>
</mask>
<ellipse cx="100.185" cy="6.90138" rx="0.984142" ry="1.11305" fill="#FFF6E9"/>
<path d="M100.169 6.90138C100.169 6.97066 100.145 7.0118 100.132 7.02604C100.126 7.03254 100.127 7.02981 100.137 7.02487C100.148 7.01933 100.166 7.01444 100.185 7.01444V9.01444C101.393 9.01444 102.169 7.94915 102.169 6.90138H100.169ZM100.185 7.01444C100.205 7.01444 100.222 7.01933 100.234 7.02487C100.244 7.02981 100.244 7.03254 100.239 7.02604C100.226 7.0118 100.201 6.97066 100.201 6.90138H98.2012C98.2012 7.94915 98.9774 9.01444 100.185 9.01444V7.01444ZM100.201 6.90138C100.201 6.83211 100.226 6.79096 100.239 6.77673C100.244 6.77022 100.244 6.77295 100.234 6.7779C100.222 6.78344 100.205 6.78833 100.185 6.78833V4.78833C98.9774 4.78833 98.2012 5.85362 98.2012 6.90138H100.201ZM100.185 6.78833C100.166 6.78833 100.148 6.78344 100.137 6.7779C100.127 6.77295 100.126 6.77022 100.132 6.77673C100.145 6.79096 100.169 6.83211 100.169 6.90138H102.169C102.169 5.85362 101.393 4.78833 100.185 4.78833V6.78833Z" fill="#EA83AA" mask="url(#path-23-inside-1_46_42)"/>
<mask id="path-25-inside-2_46_42" fill="white">
<ellipse cx="102.154" cy="11.3535" rx="0.984142" ry="1.11305"/>
</mask>
<ellipse cx="102.154" cy="11.3535" rx="0.984142" ry="1.11305" fill="#FFF6E9"/>
<path d="M102.138 11.3535C102.138 11.4228 102.113 11.4639 102.1 11.4782C102.095 11.4847 102.095 11.482 102.105 11.477C102.117 11.4715 102.134 11.4666 102.154 11.4666V13.4666C103.362 13.4666 104.138 12.4013 104.138 11.3535H102.138ZM102.154 11.4666C102.173 11.4666 102.19 11.4715 102.202 11.477C102.212 11.482 102.213 11.4847 102.207 11.4782C102.194 11.4639 102.169 11.4228 102.169 11.3535H100.169C100.169 12.4013 100.946 13.4666 102.154 13.4666V11.4666ZM102.169 11.3535C102.169 11.2843 102.194 11.2431 102.207 11.2289C102.213 11.2224 102.212 11.2251 102.202 11.23C102.19 11.2356 102.173 11.2405 102.154 11.2405V9.24048C100.946 9.24048 100.169 10.3058 100.169 11.3535H102.169ZM102.154 11.2405C102.134 11.2405 102.117 11.2356 102.105 11.23C102.095 11.2251 102.095 11.2224 102.1 11.2289C102.113 11.2431 102.138 11.2843 102.138 11.3535H104.138C104.138 10.3058 103.362 9.24048 102.154 9.24048V11.2405Z" fill="#EA83AA" mask="url(#path-25-inside-2_46_42)"/>
<mask id="path-27-inside-3_46_42" fill="white">
<ellipse cx="104.122" cy="6.90138" rx="0.984142" ry="1.11305"/>
</mask>
<ellipse cx="104.122" cy="6.90138" rx="0.984142" ry="1.11305" fill="#FFF6E9"/>
<path d="M104.106 6.90138C104.106 6.97066 104.082 7.0118 104.069 7.02604C104.063 7.03254 104.064 7.02981 104.074 7.02487C104.085 7.01933 104.103 7.01444 104.122 7.01444V9.01444C105.33 9.01444 106.106 7.94915 106.106 6.90138H104.106ZM104.122 7.01444C104.142 7.01444 104.159 7.01933 104.171 7.02487C104.181 7.02981 104.181 7.03254 104.176 7.02604C104.163 7.0118 104.138 6.97066 104.138 6.90138H102.138C102.138 7.94915 102.914 9.01444 104.122 9.01444V7.01444ZM104.138 6.90138C104.138 6.83211 104.163 6.79096 104.176 6.77673C104.181 6.77022 104.181 6.77295 104.171 6.7779C104.159 6.78344 104.142 6.78833 104.122 6.78833V4.78833C102.914 4.78833 102.138 5.85362 102.138 6.90138H104.138ZM104.122 6.78833C104.103 6.78833 104.085 6.78344 104.074 6.7779C104.064 6.77295 104.063 6.77022 104.069 6.77673C104.082 6.79096 104.106 6.83211 104.106 6.90138H106.106C106.106 5.85362 105.33 4.78833 104.122 4.78833V6.78833Z" fill="#EA83AA" mask="url(#path-27-inside-3_46_42)"/>
<mask id="path-29-inside-4_46_42" fill="white">
<ellipse cx="102.154" cy="6.90138" rx="0.984142" ry="1.11305"/>
</mask>
<ellipse cx="102.154" cy="6.90138" rx="0.984142" ry="1.11305" fill="#FFF6E9"/>
<path d="M102.138 6.90138C102.138 6.97066 102.113 7.0118 102.1 7.02604C102.095 7.03254 102.095 7.02981 102.105 7.02487C102.117 7.01933 102.134 7.01444 102.154 7.01444V9.01444C103.362 9.01444 104.138 7.94915 104.138 6.90138H102.138ZM102.154 7.01444C102.173 7.01444 102.19 7.01933 102.202 7.02487C102.212 7.02981 102.213 7.03254 102.207 7.02604C102.194 7.0118 102.169 6.97066 102.169 6.90138H100.169C100.169 7.94915 100.946 9.01444 102.154 9.01444V7.01444ZM102.169 6.90138C102.169 6.83211 102.194 6.79096 102.207 6.77673C102.213 6.77022 102.212 6.77295 102.202 6.7779C102.19 6.78344 102.173 6.78833 102.154 6.78833V4.78833C100.946 4.78833 100.169 5.85362 100.169 6.90138H102.169ZM102.154 6.78833C102.134 6.78833 102.117 6.78344 102.105 6.7779C102.095 6.77295 102.095 6.77022 102.1 6.77673C102.113 6.79096 102.138 6.83211 102.138 6.90138H104.138C104.138 5.85362 103.362 4.78833 102.154 4.78833V6.78833Z" fill="#EA83AA" mask="url(#path-29-inside-4_46_42)"/>
<mask id="path-31-inside-5_46_42" fill="white">
<ellipse cx="102.154" cy="9.12721" rx="0.984142" ry="1.11305"/>
</mask>
<ellipse cx="102.154" cy="9.12721" rx="0.984142" ry="1.11305" fill="#FFF6E9"/>
<path d="M102.138 9.12721C102.138 9.19649 102.113 9.23763 102.1 9.25187C102.095 9.25837 102.095 9.25564 102.105 9.2507C102.117 9.24516 102.134 9.24027 102.154 9.24027V11.2403C103.362 11.2403 104.138 10.175 104.138 9.12721H102.138ZM102.154 9.24027C102.173 9.24027 102.19 9.24516 102.202 9.2507C102.212 9.25564 102.213 9.25837 102.207 9.25187C102.194 9.23763 102.169 9.19649 102.169 9.12721H100.169C100.169 10.175 100.946 11.2403 102.154 11.2403V9.24027ZM102.169 9.12721C102.169 9.05794 102.194 9.01679 102.207 9.00256C102.213 8.99605 102.212 8.99878 102.202 9.00373C102.19 9.00927 102.173 9.01416 102.154 9.01416V7.01416C100.946 7.01416 100.169 8.07945 100.169 9.12721H102.169ZM102.154 9.01416C102.134 9.01416 102.117 9.00927 102.105 9.00373C102.095 8.99878 102.095 8.99605 102.1 9.00256C102.113 9.01679 102.138 9.05794 102.138 9.12721H104.138C104.138 8.07945 103.362 7.01416 102.154 7.01416V9.01416Z" fill="#EA83AA" mask="url(#path-31-inside-5_46_42)"/>
<mask id="path-33-inside-6_46_42" fill="white">
<ellipse cx="102.154" cy="15.8057" rx="0.984142" ry="1.11305"/>
</mask>
<ellipse cx="102.154" cy="15.8057" rx="0.984142" ry="1.11305" fill="#FFF6E9"/>
<path d="M102.138 15.8057C102.138 15.875 102.113 15.9161 102.1 15.9303C102.095 15.9368 102.095 15.9341 102.105 15.9292C102.117 15.9236 102.134 15.9187 102.154 15.9187V17.9187C103.362 17.9187 104.138 16.8534 104.138 15.8057H102.138ZM102.154 15.9187C102.173 15.9187 102.19 15.9236 102.202 15.9292C102.212 15.9341 102.213 15.9368 102.207 15.9303C102.194 15.9161 102.169 15.875 102.169 15.8057H100.169C100.169 16.8534 100.946 17.9187 102.154 17.9187V15.9187ZM102.169 15.8057C102.169 15.7364 102.194 15.6953 102.207 15.681C102.213 15.6745 102.212 15.6773 102.202 15.6822C102.19 15.6877 102.173 15.6926 102.154 15.6926V13.6926C100.946 13.6926 100.169 14.7579 100.169 15.8057H102.169ZM102.154 15.6926C102.134 15.6926 102.117 15.6877 102.105 15.6822C102.095 15.6773 102.095 15.6745 102.1 15.681C102.113 15.6953 102.138 15.7364 102.138 15.8057H104.138C104.138 14.7579 103.362 13.6926 102.154 13.6926V15.6926Z" fill="#EA83AA" mask="url(#path-33-inside-6_46_42)"/>
<mask id="path-35-inside-7_46_42" fill="white">
<ellipse cx="102.154" cy="13.5794" rx="0.984142" ry="1.11305"/>
</mask>
<ellipse cx="102.154" cy="13.5794" rx="0.984142" ry="1.11305" fill="#FFF6E9"/>
<path d="M102.138 13.5794C102.138 13.6486 102.113 13.6898 102.1 13.704C102.095 13.7105 102.095 13.7078 102.105 13.7028C102.117 13.6973 102.134 13.6924 102.154 13.6924V15.6924C103.362 15.6924 104.138 14.6271 104.138 13.5794H102.138ZM102.154 13.6924C102.173 13.6924 102.19 13.6973 102.202 13.7028C102.212 13.7078 102.213 13.7105 102.207 13.704C102.194 13.6898 102.169 13.6486 102.169 13.5794H100.169C100.169 14.6271 100.946 15.6924 102.154 15.6924V13.6924ZM102.169 13.5794C102.169 13.5101 102.194 13.4689 102.207 13.4547C102.213 13.4482 102.212 13.4509 102.202 13.4559C102.19 13.4614 102.173 13.4663 102.154 13.4663V11.4663C100.946 11.4663 100.169 12.5316 100.169 13.5794H102.169ZM102.154 13.4663C102.134 13.4663 102.117 13.4614 102.105 13.4559C102.095 13.4509 102.095 13.4482 102.1 13.4547C102.113 13.4689 102.138 13.5101 102.138 13.5794H104.138C104.138 12.5316 103.362 11.4663 102.154 11.4663V13.4663Z" fill="#EA83AA" mask="url(#path-35-inside-7_46_42)"/>
<mask id="path-37-inside-8_46_42" fill="white">
<ellipse cx="92.3128" cy="6.90138" rx="0.984142" ry="1.11305"/>
</mask>
<ellipse cx="92.3128" cy="6.90138" rx="0.984142" ry="1.11305" fill="#FFF6E9"/>
<path d="M92.2969 6.90138C92.2969 6.97066 92.2721 7.0118 92.2595 7.02604C92.2537 7.03254 92.254 7.02981 92.2643 7.02487C92.2759 7.01933 92.2934 7.01444 92.3128 7.01444V9.01444C93.5207 9.01444 94.2969 7.94915 94.2969 6.90138H92.2969ZM92.3128 7.01444C92.3321 7.01444 92.3496 7.01933 92.3612 7.02487C92.3715 7.02981 92.3718 7.03254 92.366 7.02604C92.3534 7.0118 92.3286 6.97066 92.3286 6.90138H90.3286C90.3286 7.94915 91.1048 9.01444 92.3128 9.01444V7.01444ZM92.3286 6.90138C92.3286 6.83211 92.3534 6.79096 92.366 6.77673C92.3718 6.77022 92.3715 6.77295 92.3612 6.7779C92.3496 6.78344 92.3321 6.78833 92.3128 6.78833V4.78833C91.1048 4.78833 90.3286 5.85362 90.3286 6.90138H92.3286ZM92.3128 6.78833C92.2934 6.78833 92.2759 6.78344 92.2643 6.7779C92.254 6.77295 92.2537 6.77022 92.2595 6.77673C92.2721 6.79096 92.2969 6.83211 92.2969 6.90138H94.2969C94.2969 5.85362 93.5207 4.78833 92.3128 4.78833V6.78833Z" fill="#EA83AA" mask="url(#path-37-inside-8_46_42)"/>
<mask id="path-39-inside-9_46_42" fill="white">
<ellipse cx="96.2488" cy="11.3535" rx="0.984142" ry="1.11305"/>
</mask>
<ellipse cx="96.2488" cy="11.3535" rx="0.984142" ry="1.11305" fill="#FFF6E9"/>
<path d="M96.2329 11.3535C96.2329 11.4228 96.2081 11.4639 96.1955 11.4782C96.1898 11.4847 96.19 11.482 96.2003 11.477C96.2119 11.4715 96.2295 11.4666 96.2488 11.4666V13.4666C97.4567 13.4666 98.2329 12.4013 98.2329 11.3535H96.2329ZM96.2488 11.4666C96.2681 11.4666 96.2857 11.4715 96.2973 11.477C96.3076 11.482 96.3078 11.4847 96.3021 11.4782C96.2895 11.4639 96.2646 11.4228 96.2646 11.3535H94.2646C94.2646 12.4013 95.0408 13.4666 96.2488 13.4666V11.4666ZM96.2646 11.3535C96.2646 11.2843 96.2895 11.2431 96.3021 11.2289C96.3078 11.2224 96.3076 11.2251 96.2973 11.23C96.2857 11.2356 96.2681 11.2405 96.2488 11.2405V9.24048C95.0408 9.24048 94.2646 10.3058 94.2646 11.3535H96.2646ZM96.2488 11.2405C96.2295 11.2405 96.2119 11.2356 96.2003 11.23C96.19 11.2251 96.1898 11.2224 96.1955 11.2289C96.2081 11.2431 96.2329 11.2843 96.2329 11.3535H98.2329C98.2329 10.3058 97.4567 9.24048 96.2488 9.24048V11.2405Z" fill="#EA83AA" mask="url(#path-39-inside-9_46_42)"/>
<mask id="path-41-inside-10_46_42" fill="white">
<ellipse cx="94.2805" cy="11.3535" rx="0.984142" ry="1.11305"/>
</mask>
<ellipse cx="94.2805" cy="11.3535" rx="0.984142" ry="1.11305" fill="#FFF6E9"/>
<path d="M94.2647 11.3535C94.2647 11.4228 94.2399 11.4639 94.2273 11.4782C94.2215 11.4847 94.2217 11.482 94.2321 11.477C94.2437 11.4715 94.2612 11.4666 94.2805 11.4666V13.4666C95.4885 13.4666 96.2647 12.4013 96.2647 11.3535H94.2647ZM94.2805 11.4666C94.2999 11.4666 94.3174 11.4715 94.329 11.477C94.3393 11.482 94.3395 11.4847 94.3338 11.4782C94.3212 11.4639 94.2964 11.4228 94.2964 11.3535H92.2964C92.2964 12.4013 93.0726 13.4666 94.2805 13.4666V11.4666ZM94.2964 11.3535C94.2964 11.2843 94.3212 11.2431 94.3338 11.2289C94.3395 11.2224 94.3393 11.2251 94.329 11.23C94.3174 11.2356 94.2999 11.2405 94.2805 11.2405V9.24048C93.0726 9.24048 92.2964 10.3058 92.2964 11.3535H94.2964ZM94.2805 11.2405C94.2612 11.2405 94.2437 11.2356 94.2321 11.23C94.2217 11.2251 94.2215 11.2224 94.2273 11.2289C94.2399 11.2431 94.2647 11.2843 94.2647 11.3535H96.2647C96.2647 10.3058 95.4885 9.24048 94.2805 9.24048V11.2405Z" fill="#EA83AA" mask="url(#path-41-inside-10_46_42)"/>
<mask id="path-43-inside-11_46_42" fill="white">
<ellipse cx="96.2488" cy="6.90138" rx="0.984142" ry="1.11305"/>
</mask>
<ellipse cx="96.2488" cy="6.90138" rx="0.984142" ry="1.11305" fill="#FFF6E9"/>
<path d="M96.2329 6.90138C96.2329 6.97066 96.2081 7.0118 96.1955 7.02604C96.1898 7.03254 96.19 7.02981 96.2003 7.02487C96.2119 7.01933 96.2295 7.01444 96.2488 7.01444V9.01444C97.4567 9.01444 98.2329 7.94915 98.2329 6.90138H96.2329ZM96.2488 7.01444C96.2681 7.01444 96.2857 7.01933 96.2973 7.02487C96.3076 7.02981 96.3078 7.03254 96.3021 7.02604C96.2895 7.0118 96.2646 6.97066 96.2646 6.90138H94.2646C94.2646 7.94915 95.0408 9.01444 96.2488 9.01444V7.01444ZM96.2646 6.90138C96.2646 6.83211 96.2895 6.79096 96.3021 6.77673C96.3078 6.77022 96.3076 6.77295 96.2973 6.7779C96.2857 6.78344 96.2681 6.78833 96.2488 6.78833V4.78833C95.0408 4.78833 94.2646 5.85362 94.2646 6.90138H96.2646ZM96.2488 6.78833C96.2295 6.78833 96.2119 6.78344 96.2003 6.7779C96.19 6.77295 96.1898 6.77022 96.1955 6.77673C96.2081 6.79096 96.2329 6.83211 96.2329 6.90138H98.2329C98.2329 5.85362 97.4567 4.78833 96.2488 4.78833V6.78833Z" fill="#EA83AA" mask="url(#path-43-inside-11_46_42)"/>
<mask id="path-45-inside-12_46_42" fill="white">
<ellipse cx="94.2805" cy="6.90138" rx="0.984142" ry="1.11305"/>
</mask>
<ellipse cx="94.2805" cy="6.90138" rx="0.984142" ry="1.11305" fill="#FFF6E9"/>
<path d="M94.2647 6.90138C94.2647 6.97066 94.2399 7.0118 94.2273 7.02604C94.2215 7.03254 94.2217 7.02981 94.2321 7.02487C94.2437 7.01933 94.2612 7.01444 94.2805 7.01444V9.01444C95.4885 9.01444 96.2647 7.94915 96.2647 6.90138H94.2647ZM94.2805 7.01444C94.2999 7.01444 94.3174 7.01933 94.329 7.02487C94.3393 7.02981 94.3395 7.03254 94.3338 7.02604C94.3212 7.0118 94.2964 6.97066 94.2964 6.90138H92.2964C92.2964 7.94915 93.0726 9.01444 94.2805 9.01444V7.01444ZM94.2964 6.90138C94.2964 6.83211 94.3212 6.79096 94.3338 6.77673C94.3395 6.77022 94.3393 6.77295 94.329 6.7779C94.3174 6.78344 94.2999 6.78833 94.2805 6.78833V4.78833C93.0726 4.78833 92.2964 5.85362 92.2964 6.90138H94.2964ZM94.2805 6.78833C94.2612 6.78833 94.2437 6.78344 94.2321 6.7779C94.2217 6.77295 94.2215 6.77022 94.2273 6.77673C94.2399 6.79096 94.2647 6.83211 94.2647 6.90138H96.2647C96.2647 5.85362 95.4885 4.78833 94.2805 4.78833V6.78833Z" fill="#EA83AA" mask="url(#path-45-inside-12_46_42)"/>
<mask id="path-47-inside-13_46_42" fill="white">
<ellipse cx="92.3128" cy="11.3535" rx="0.984142" ry="1.11305"/>
</mask>
<ellipse cx="92.3128" cy="11.3535" rx="0.984142" ry="1.11305" fill="#FFF6E9"/>
<path d="M92.2969 11.3535C92.2969 11.4228 92.2721 11.4639 92.2595 11.4782C92.2537 11.4847 92.254 11.482 92.2643 11.477C92.2759 11.4715 92.2934 11.4666 92.3128 11.4666V13.4666C93.5207 13.4666 94.2969 12.4013 94.2969 11.3535H92.2969ZM92.3128 11.4666C92.3321 11.4666 92.3496 11.4715 92.3612 11.477C92.3715 11.482 92.3718 11.4847 92.366 11.4782C92.3534 11.4639 92.3286 11.4228 92.3286 11.3535H90.3286C90.3286 12.4013 91.1048 13.4666 92.3128 13.4666V11.4666ZM92.3286 11.3535C92.3286 11.2843 92.3534 11.2431 92.366 11.2289C92.3718 11.2224 92.3715 11.2251 92.3612 11.23C92.3496 11.2356 92.3321 11.2405 92.3128 11.2405V9.24048C91.1048 9.24048 90.3286 10.3058 90.3286 11.3535H92.3286ZM92.3128 11.2405C92.2934 11.2405 92.2759 11.2356 92.2643 11.23C92.254 11.2251 92.2537 11.2224 92.2595 11.2289C92.2721 11.2431 92.2969 11.2843 92.2969 11.3535H94.2969C94.2969 10.3058 93.5207 9.24048 92.3128 9.24048V11.2405Z" fill="#EA83AA" mask="url(#path-47-inside-13_46_42)"/>
<mask id="path-49-inside-14_46_42" fill="white">
<ellipse cx="96.2488" cy="9.12721" rx="0.984142" ry="1.11305"/>
</mask>
<ellipse cx="96.2488" cy="9.12721" rx="0.984142" ry="1.11305" fill="#FFF6E9"/>
<path d="M96.2329 9.12721C96.2329 9.19649 96.2081 9.23763 96.1955 9.25187C96.1898 9.25837 96.19 9.25564 96.2003 9.2507C96.2119 9.24516 96.2295 9.24027 96.2488 9.24027V11.2403C97.4567 11.2403 98.2329 10.175 98.2329 9.12721H96.2329ZM96.2488 9.24027C96.2681 9.24027 96.2857 9.24516 96.2973 9.2507C96.3076 9.25564 96.3078 9.25837 96.3021 9.25187C96.2895 9.23763 96.2646 9.19649 96.2646 9.12721H94.2646C94.2646 10.175 95.0408 11.2403 96.2488 11.2403V9.24027ZM96.2646 9.12721C96.2646 9.05794 96.2895 9.01679 96.3021 9.00256C96.3078 8.99605 96.3076 8.99878 96.2973 9.00373C96.2857 9.00927 96.2681 9.01416 96.2488 9.01416V7.01416C95.0408 7.01416 94.2646 8.07945 94.2646 9.12721H96.2646ZM96.2488 9.01416C96.2295 9.01416 96.2119 9.00927 96.2003 9.00373C96.19 8.99878 96.1898 8.99605 96.1955 9.00256C96.2081 9.01679 96.2329 9.05794 96.2329 9.12721H98.2329C98.2329 8.07945 97.4567 7.01416 96.2488 7.01416V9.01416Z" fill="#EA83AA" mask="url(#path-49-inside-14_46_42)"/>
<mask id="path-51-inside-15_46_42" fill="white">
<ellipse cx="92.3128" cy="9.12721" rx="0.984142" ry="1.11305"/>
</mask>
<ellipse cx="92.3128" cy="9.12721" rx="0.984142" ry="1.11305" fill="#FFF6E9"/>
<path d="M92.2969 9.12721C92.2969 9.19649 92.2721 9.23763 92.2595 9.25187C92.2537 9.25837 92.254 9.25564 92.2643 9.2507C92.2759 9.24516 92.2934 9.24027 92.3128 9.24027V11.2403C93.5207 11.2403 94.2969 10.175 94.2969 9.12721H92.2969ZM92.3128 9.24027C92.3321 9.24027 92.3496 9.24516 92.3612 9.2507C92.3715 9.25564 92.3718 9.25837 92.366 9.25187C92.3534 9.23763 92.3286 9.19649 92.3286 9.12721H90.3286C90.3286 10.175 91.1048 11.2403 92.3128 11.2403V9.24027ZM92.3286 9.12721C92.3286 9.05794 92.3534 9.01679 92.366 9.00256C92.3718 8.99605 92.3715 8.99878 92.3612 9.00373C92.3496 9.00927 92.3321 9.01416 92.3128 9.01416V7.01416C91.1048 7.01416 90.3286 8.07945 90.3286 9.12721H92.3286ZM92.3128 9.01416C92.2934 9.01416 92.2759 9.00927 92.2643 9.00373C92.254 8.99878 92.2537 8.99605 92.2595 9.00256C92.2721 9.01679 92.2969 9.05794 92.2969 9.12721H94.2969C94.2969 8.07945 93.5207 7.01416 92.3128 7.01416V9.01416Z" fill="#EA83AA" mask="url(#path-51-inside-15_46_42)"/>
<mask id="path-53-inside-16_46_42" fill="white">
<ellipse cx="96.2488" cy="15.8057" rx="0.984142" ry="1.11305"/>
</mask>
<ellipse cx="96.2488" cy="15.8057" rx="0.984142" ry="1.11305" fill="#FFF6E9"/>
<path d="M96.2329 15.8057C96.2329 15.875 96.2081 15.9161 96.1955 15.9303C96.1898 15.9368 96.19 15.9341 96.2003 15.9292C96.2119 15.9236 96.2295 15.9187 96.2488 15.9187V17.9187C97.4567 17.9187 98.2329 16.8534 98.2329 15.8057H96.2329ZM96.2488 15.9187C96.2681 15.9187 96.2857 15.9236 96.2973 15.9292C96.3076 15.9341 96.3078 15.9368 96.3021 15.9303C96.2895 15.9161 96.2646 15.875 96.2646 15.8057H94.2646C94.2646 16.8534 95.0408 17.9187 96.2488 17.9187V15.9187ZM96.2646 15.8057C96.2646 15.7364 96.2895 15.6953 96.3021 15.681C96.3078 15.6745 96.3076 15.6773 96.2973 15.6822C96.2857 15.6877 96.2681 15.6926 96.2488 15.6926V13.6926C95.0408 13.6926 94.2646 14.7579 94.2646 15.8057H96.2646ZM96.2488 15.6926C96.2295 15.6926 96.2119 15.6877 96.2003 15.6822C96.19 15.6773 96.1898 15.6745 96.1955 15.681C96.2081 15.6953 96.2329 15.7364 96.2329 15.8057H98.2329C98.2329 14.7579 97.4567 13.6926 96.2488 13.6926V15.6926Z" fill="#EA83AA" mask="url(#path-53-inside-16_46_42)"/>
<mask id="path-55-inside-17_46_42" fill="white">
<ellipse cx="92.3128" cy="15.8057" rx="0.984142" ry="1.11305"/>
</mask>
<ellipse cx="92.3128" cy="15.8057" rx="0.984142" ry="1.11305" fill="#FFF6E9"/>
<path d="M92.2969 15.8057C92.2969 15.875 92.2721 15.9161 92.2595 15.9303C92.2537 15.9368 92.254 15.9341 92.2643 15.9292C92.2759 15.9236 92.2934 15.9187 92.3128 15.9187V17.9187C93.5207 17.9187 94.2969 16.8534 94.2969 15.8057H92.2969ZM92.3128 15.9187C92.3321 15.9187 92.3496 15.9236 92.3612 15.9292C92.3715 15.9341 92.3718 15.9368 92.366 15.9303C92.3534 15.9161 92.3286 15.875 92.3286 15.8057H90.3286C90.3286 16.8534 91.1048 17.9187 92.3128 17.9187V15.9187ZM92.3286 15.8057C92.3286 15.7364 92.3534 15.6953 92.366 15.681C92.3718 15.6745 92.3715 15.6773 92.3612 15.6822C92.3496 15.6877 92.3321 15.6926 92.3128 15.6926V13.6926C91.1048 13.6926 90.3286 14.7579 90.3286 15.8057H92.3286ZM92.3128 15.6926C92.2934 15.6926 92.2759 15.6877 92.2643 15.6822C92.254 15.6773 92.2537 15.6745 92.2595 15.681C92.2721 15.6953 92.2969 15.7364 92.2969 15.8057H94.2969C94.2969 14.7579 93.5207 13.6926 92.3128 13.6926V15.6926Z" fill="#EA83AA" mask="url(#path-55-inside-17_46_42)"/>
<mask id="path-57-inside-18_46_42" fill="white">
<ellipse cx="96.2488" cy="13.5794" rx="0.984142" ry="1.11305"/>
</mask>
<ellipse cx="96.2488" cy="13.5794" rx="0.984142" ry="1.11305" fill="#FFF6E9"/>
<path d="M96.2329 13.5794C96.2329 13.6486 96.2081 13.6898 96.1955 13.704C96.1898 13.7105 96.19 13.7078 96.2003 13.7028C96.2119 13.6973 96.2295 13.6924 96.2488 13.6924V15.6924C97.4567 15.6924 98.2329 14.6271 98.2329 13.5794H96.2329ZM96.2488 13.6924C96.2681 13.6924 96.2857 13.6973 96.2973 13.7028C96.3076 13.7078 96.3078 13.7105 96.3021 13.704C96.2895 13.6898 96.2646 13.6486 96.2646 13.5794H94.2646C94.2646 14.6271 95.0408 15.6924 96.2488 15.6924V13.6924ZM96.2646 13.5794C96.2646 13.5101 96.2895 13.4689 96.3021 13.4547C96.3078 13.4482 96.3076 13.4509 96.2973 13.4559C96.2857 13.4614 96.2681 13.4663 96.2488 13.4663V11.4663C95.0408 11.4663 94.2646 12.5316 94.2646 13.5794H96.2646ZM96.2488 13.4663C96.2295 13.4663 96.2119 13.4614 96.2003 13.4559C96.19 13.4509 96.1898 13.4482 96.1955 13.4547C96.2081 13.4689 96.2329 13.5101 96.2329 13.5794H98.2329C98.2329 12.5316 97.4567 11.4663 96.2488 11.4663V13.4663Z" fill="#EA83AA" mask="url(#path-57-inside-18_46_42)"/>
<mask id="path-59-inside-19_46_42" fill="white">
<ellipse cx="92.3128" cy="13.5794" rx="0.984142" ry="1.11305"/>
</mask>
<ellipse cx="92.3128" cy="13.5794" rx="0.984142" ry="1.11305" fill="#FFF6E9"/>
<path d="M92.2969 13.5794C92.2969 13.6486 92.2721 13.6898 92.2595 13.704C92.2537 13.7105 92.254 13.7078 92.2643 13.7028C92.2759 13.6973 92.2934 13.6924 92.3128 13.6924V15.6924C93.5207 15.6924 94.2969 14.6271 94.2969 13.5794H92.2969ZM92.3128 13.6924C92.3321 13.6924 92.3496 13.6973 92.3612 13.7028C92.3715 13.7078 92.3718 13.7105 92.366 13.704C92.3534 13.6898 92.3286 13.6486 92.3286 13.5794H90.3286C90.3286 14.6271 91.1048 15.6924 92.3128 15.6924V13.6924ZM92.3286 13.5794C92.3286 13.5101 92.3534 13.4689 92.366 13.4547C92.3718 13.4482 92.3715 13.4509 92.3612 13.4559C92.3496 13.4614 92.3321 13.4663 92.3128 13.4663V11.4663C91.1048 11.4663 90.3286 12.5316 90.3286 13.5794H92.3286ZM92.3128 13.4663C92.2934 13.4663 92.2759 13.4614 92.2643 13.4559C92.254 13.4509 92.2537 13.4482 92.2595 13.4547C92.2721 13.4689 92.2969 13.5101 92.2969 13.5794H94.2969C94.2969 12.5316 93.5207 11.4663 92.3128 11.4663V13.4663Z" fill="#EA83AA" mask="url(#path-59-inside-19_46_42)"/>
<mask id="path-61-inside-20_46_42" fill="white">
<ellipse cx="84.4392" cy="6.90138" rx="0.984142" ry="1.11305"/>
</mask>
<ellipse cx="84.4392" cy="6.90138" rx="0.984142" ry="1.11305" fill="#FFF6E9"/>
<path d="M84.4234 6.90138C84.4234 6.97066 84.3985 7.0118 84.386 7.02604C84.3802 7.03254 84.3804 7.02981 84.3908 7.02487C84.4024 7.01933 84.4199 7.01444 84.4392 7.01444V9.01444C85.6472 9.01444 86.4234 7.94915 86.4234 6.90138H84.4234ZM84.4392 7.01444C84.4586 7.01444 84.4761 7.01933 84.4877 7.02487C84.498 7.02981 84.4982 7.03254 84.4925 7.02604C84.4799 7.0118 84.4551 6.97066 84.4551 6.90138H82.4551C82.4551 7.94915 83.2313 9.01444 84.4392 9.01444V7.01444ZM84.4551 6.90138C84.4551 6.83211 84.4799 6.79096 84.4925 6.77673C84.4982 6.77022 84.498 6.77295 84.4877 6.7779C84.4761 6.78344 84.4586 6.78833 84.4392 6.78833V4.78833C83.2313 4.78833 82.4551 5.85362 82.4551 6.90138H84.4551ZM84.4392 6.78833C84.4199 6.78833 84.4024 6.78344 84.3908 6.7779C84.3804 6.77295 84.3802 6.77022 84.386 6.77673C84.3985 6.79096 84.4234 6.83211 84.4234 6.90138H86.4234C86.4234 5.85362 85.6472 4.78833 84.4392 4.78833V6.78833Z" fill="#EA83AA" mask="url(#path-61-inside-20_46_42)"/>
<mask id="path-63-inside-21_46_42" fill="white">
<ellipse cx="88.3757" cy="11.3535" rx="0.984142" ry="1.11305"/>
</mask>
<ellipse cx="88.3757" cy="11.3535" rx="0.984142" ry="1.11305" fill="#FFF6E9"/>
<path d="M88.3599 11.3535C88.3599 11.4228 88.3351 11.4639 88.3225 11.4782C88.3167 11.4847 88.317 11.482 88.3273 11.477C88.3389 11.4715 88.3564 11.4666 88.3757 11.4666V13.4666C89.5837 13.4666 90.3599 12.4013 90.3599 11.3535H88.3599ZM88.3757 11.4666C88.3951 11.4666 88.4126 11.4715 88.4242 11.477C88.4345 11.482 88.4348 11.4847 88.429 11.4782C88.4164 11.4639 88.3916 11.4228 88.3916 11.3535H86.3916C86.3916 12.4013 87.1678 13.4666 88.3757 13.4666V11.4666ZM88.3916 11.3535C88.3916 11.2843 88.4164 11.2431 88.429 11.2289C88.4348 11.2224 88.4345 11.2251 88.4242 11.23C88.4126 11.2356 88.3951 11.2405 88.3757 11.2405V9.24048C87.1678 9.24048 86.3916 10.3058 86.3916 11.3535H88.3916ZM88.3757 11.2405C88.3564 11.2405 88.3389 11.2356 88.3273 11.23C88.317 11.2251 88.3167 11.2224 88.3225 11.2289C88.3351 11.2431 88.3599 11.2843 88.3599 11.3535H90.3599C90.3599 10.3058 89.5837 9.24048 88.3757 9.24048V11.2405Z" fill="#EA83AA" mask="url(#path-63-inside-21_46_42)"/>
<mask id="path-65-inside-22_46_42" fill="white">
<ellipse cx="86.4075" cy="11.3535" rx="0.984142" ry="1.11305"/>
</mask>
<ellipse cx="86.4075" cy="11.3535" rx="0.984142" ry="1.11305" fill="#FFF6E9"/>
<path d="M86.3916 11.3535C86.3916 11.4228 86.3668 11.4639 86.3542 11.4782C86.3485 11.4847 86.3487 11.482 86.359 11.477C86.3706 11.4715 86.3881 11.4666 86.4075 11.4666V13.4666C87.6154 13.4666 88.3916 12.4013 88.3916 11.3535H86.3916ZM86.4075 11.4666C86.4268 11.4666 86.4444 11.4715 86.4559 11.477C86.4663 11.482 86.4665 11.4847 86.4607 11.4782C86.4482 11.4639 86.4233 11.4228 86.4233 11.3535H84.4233C84.4233 12.4013 85.1995 13.4666 86.4075 13.4666V11.4666ZM86.4233 11.3535C86.4233 11.2843 86.4482 11.2431 86.4607 11.2289C86.4665 11.2224 86.4663 11.2251 86.4559 11.23C86.4444 11.2356 86.4268 11.2405 86.4075 11.2405V9.24048C85.1995 9.24048 84.4233 10.3058 84.4233 11.3535H86.4233ZM86.4075 11.2405C86.3881 11.2405 86.3706 11.2356 86.359 11.23C86.3487 11.2251 86.3485 11.2224 86.3542 11.2289C86.3668 11.2431 86.3916 11.2843 86.3916 11.3535H88.3916C88.3916 10.3058 87.6154 9.24048 86.4075 9.24048V11.2405Z" fill="#EA83AA" mask="url(#path-65-inside-22_46_42)"/>
<mask id="path-67-inside-23_46_42" fill="white">
<ellipse cx="88.3757" cy="6.90138" rx="0.984142" ry="1.11305"/>
</mask>
<ellipse cx="88.3757" cy="6.90138" rx="0.984142" ry="1.11305" fill="#FFF6E9"/>
<path d="M88.3599 6.90138C88.3599 6.97066 88.3351 7.0118 88.3225 7.02604C88.3167 7.03254 88.317 7.02981 88.3273 7.02487C88.3389 7.01933 88.3564 7.01444 88.3757 7.01444V9.01444C89.5837 9.01444 90.3599 7.94915 90.3599 6.90138H88.3599ZM88.3757 7.01444C88.3951 7.01444 88.4126 7.01933 88.4242 7.02487C88.4345 7.02981 88.4348 7.03254 88.429 7.02604C88.4164 7.0118 88.3916 6.97066 88.3916 6.90138H86.3916C86.3916 7.94915 87.1678 9.01444 88.3757 9.01444V7.01444ZM88.3916 6.90138C88.3916 6.83211 88.4164 6.79096 88.429 6.77673C88.4348 6.77022 88.4345 6.77295 88.4242 6.7779C88.4126 6.78344 88.3951 6.78833 88.3757 6.78833V4.78833C87.1678 4.78833 86.3916 5.85362 86.3916 6.90138H88.3916ZM88.3757 6.78833C88.3564 6.78833 88.3389 6.78344 88.3273 6.7779C88.317 6.77295 88.3167 6.77022 88.3225 6.77673C88.3351 6.79096 88.3599 6.83211 88.3599 6.90138H90.3599C90.3599 5.85362 89.5837 4.78833 88.3757 4.78833V6.78833Z" fill="#EA83AA" mask="url(#path-67-inside-23_46_42)"/>
<mask id="path-69-inside-24_46_42" fill="white">
<ellipse cx="86.4075" cy="6.90138" rx="0.984142" ry="1.11305"/>
</mask>
<ellipse cx="86.4075" cy="6.90138" rx="0.984142" ry="1.11305" fill="#FFF6E9"/>
<path d="M86.3916 6.90138C86.3916 6.97066 86.3668 7.0118 86.3542 7.02604C86.3485 7.03254 86.3487 7.02981 86.359 7.02487C86.3706 7.01933 86.3881 7.01444 86.4075 7.01444V9.01444C87.6154 9.01444 88.3916 7.94915 88.3916 6.90138H86.3916ZM86.4075 7.01444C86.4268 7.01444 86.4444 7.01933 86.4559 7.02487C86.4663 7.02981 86.4665 7.03254 86.4607 7.02604C86.4482 7.0118 86.4233 6.97066 86.4233 6.90138H84.4233C84.4233 7.94915 85.1995 9.01444 86.4075 9.01444V7.01444ZM86.4233 6.90138C86.4233 6.83211 86.4482 6.79096 86.4607 6.77673C86.4665 6.77022 86.4663 6.77295 86.4559 6.7779C86.4444 6.78344 86.4268 6.78833 86.4075 6.78833V4.78833C85.1995 4.78833 84.4233 5.85362 84.4233 6.90138H86.4233ZM86.4075 6.78833C86.3881 6.78833 86.3706 6.78344 86.359 6.7779C86.3487 6.77295 86.3485 6.77022 86.3542 6.77673C86.3668 6.79096 86.3916 6.83211 86.3916 6.90138H88.3916C88.3916 5.85362 87.6154 4.78833 86.4075 4.78833V6.78833Z" fill="#EA83AA" mask="url(#path-69-inside-24_46_42)"/>
<mask id="path-71-inside-25_46_42" fill="white">
<ellipse cx="84.4392" cy="11.3535" rx="0.984142" ry="1.11305"/>
</mask>
<ellipse cx="84.4392" cy="11.3535" rx="0.984142" ry="1.11305" fill="#FFF6E9"/>
<path d="M84.4234 11.3535C84.4234 11.4228 84.3985 11.4639 84.386 11.4782C84.3802 11.4847 84.3804 11.482 84.3908 11.477C84.4024 11.4715 84.4199 11.4666 84.4392 11.4666V13.4666C85.6472 13.4666 86.4234 12.4013 86.4234 11.3535H84.4234ZM84.4392 11.4666C84.4586 11.4666 84.4761 11.4715 84.4877 11.477C84.498 11.482 84.4982 11.4847 84.4925 11.4782C84.4799 11.4639 84.4551 11.4228 84.4551 11.3535H82.4551C82.4551 12.4013 83.2313 13.4666 84.4392 13.4666V11.4666ZM84.4551 11.3535C84.4551 11.2843 84.4799 11.2431 84.4925 11.2289C84.4982 11.2224 84.498 11.2251 84.4877 11.23C84.4761 11.2356 84.4586 11.2405 84.4392 11.2405V9.24048C83.2313 9.24048 82.4551 10.3058 82.4551 11.3535H84.4551ZM84.4392 11.2405C84.4199 11.2405 84.4024 11.2356 84.3908 11.23C84.3804 11.2251 84.3802 11.2224 84.386 11.2289C84.3985 11.2431 84.4234 11.2843 84.4234 11.3535H86.4234C86.4234 10.3058 85.6472 9.24048 84.4392 9.24048V11.2405Z" fill="#EA83AA" mask="url(#path-71-inside-25_46_42)"/>
<mask id="path-73-inside-26_46_42" fill="white">
<ellipse cx="84.4392" cy="9.12721" rx="0.984142" ry="1.11305"/>
</mask>
<ellipse cx="84.4392" cy="9.12721" rx="0.984142" ry="1.11305" fill="#FFF6E9"/>
<path d="M84.4234 9.12721C84.4234 9.19649 84.3985 9.23763 84.386 9.25187C84.3802 9.25837 84.3804 9.25564 84.3908 9.2507C84.4024 9.24516 84.4199 9.24027 84.4392 9.24027V11.2403C85.6472 11.2403 86.4234 10.175 86.4234 9.12721H84.4234ZM84.4392 9.24027C84.4586 9.24027 84.4761 9.24516 84.4877 9.2507C84.498 9.25564 84.4982 9.25837 84.4925 9.25187C84.4799 9.23763 84.4551 9.19649 84.4551 9.12721H82.4551C82.4551 10.175 83.2313 11.2403 84.4392 11.2403V9.24027ZM84.4551 9.12721C84.4551 9.05794 84.4799 9.01679 84.4925 9.00256C84.4982 8.99605 84.498 8.99878 84.4877 9.00373C84.4761 9.00927 84.4586 9.01416 84.4392 9.01416V7.01416C83.2313 7.01416 82.4551 8.07945 82.4551 9.12721H84.4551ZM84.4392 9.01416C84.4199 9.01416 84.4024 9.00927 84.3908 9.00373C84.3804 8.99878 84.3802 8.99605 84.386 9.00256C84.3985 9.01679 84.4234 9.05794 84.4234 9.12721H86.4234C86.4234 8.07945 85.6472 7.01416 84.4392 7.01416V9.01416Z" fill="#EA83AA" mask="url(#path-73-inside-26_46_42)"/>
<mask id="path-75-inside-27_46_42" fill="white">
<ellipse cx="88.3757" cy="15.8057" rx="0.984142" ry="1.11305"/>
</mask>
<ellipse cx="88.3757" cy="15.8057" rx="0.984142" ry="1.11305" fill="#FFF6E9"/>
<path d="M88.3599 15.8057C88.3599 15.875 88.3351 15.9161 88.3225 15.9303C88.3167 15.9368 88.317 15.9341 88.3273 15.9292C88.3389 15.9236 88.3564 15.9187 88.3757 15.9187V17.9187C89.5837 17.9187 90.3599 16.8534 90.3599 15.8057H88.3599ZM88.3757 15.9187C88.3951 15.9187 88.4126 15.9236 88.4242 15.9292C88.4345 15.9341 88.4348 15.9368 88.429 15.9303C88.4164 15.9161 88.3916 15.875 88.3916 15.8057H86.3916C86.3916 16.8534 87.1678 17.9187 88.3757 17.9187V15.9187ZM88.3916 15.8057C88.3916 15.7364 88.4164 15.6953 88.429 15.681C88.4348 15.6745 88.4345 15.6773 88.4242 15.6822C88.4126 15.6877 88.3951 15.6926 88.3757 15.6926V13.6926C87.1678 13.6926 86.3916 14.7579 86.3916 15.8057H88.3916ZM88.3757 15.6926C88.3564 15.6926 88.3389 15.6877 88.3273 15.6822C88.317 15.6773 88.3167 15.6745 88.3225 15.681C88.3351 15.6953 88.3599 15.7364 88.3599 15.8057H90.3599C90.3599 14.7579 89.5837 13.6926 88.3757 13.6926V15.6926Z" fill="#EA83AA" mask="url(#path-75-inside-27_46_42)"/>
<mask id="path-77-inside-28_46_42" fill="white">
<ellipse cx="86.4075" cy="15.8057" rx="0.984142" ry="1.11305"/>
</mask>
<ellipse cx="86.4075" cy="15.8057" rx="0.984142" ry="1.11305" fill="#FFF6E9"/>
<path d="M86.3916 15.8057C86.3916 15.875 86.3668 15.9161 86.3542 15.9303C86.3485 15.9368 86.3487 15.9341 86.359 15.9292C86.3706 15.9236 86.3881 15.9187 86.4075 15.9187V17.9187C87.6154 17.9187 88.3916 16.8534 88.3916 15.8057H86.3916ZM86.4075 15.9187C86.4268 15.9187 86.4444 15.9236 86.4559 15.9292C86.4663 15.9341 86.4665 15.9368 86.4607 15.9303C86.4482 15.9161 86.4233 15.875 86.4233 15.8057H84.4233C84.4233 16.8534 85.1995 17.9187 86.4075 17.9187V15.9187ZM86.4233 15.8057C86.4233 15.7364 86.4482 15.6953 86.4607 15.681C86.4665 15.6745 86.4663 15.6773 86.4559 15.6822C86.4444 15.6877 86.4268 15.6926 86.4075 15.6926V13.6926C85.1995 13.6926 84.4233 14.7579 84.4233 15.8057H86.4233ZM86.4075 15.6926C86.3881 15.6926 86.3706 15.6877 86.359 15.6822C86.3487 15.6773 86.3485 15.6745 86.3542 15.681C86.3668 15.6953 86.3916 15.7364 86.3916 15.8057H88.3916C88.3916 14.7579 87.6154 13.6926 86.4075 13.6926V15.6926Z" fill="#EA83AA" mask="url(#path-77-inside-28_46_42)"/>
<mask id="path-79-inside-29_46_42" fill="white">
<ellipse cx="84.4392" cy="15.8057" rx="0.984142" ry="1.11305"/>
</mask>
<ellipse cx="84.4392" cy="15.8057" rx="0.984142" ry="1.11305" fill="#FFF6E9"/>
<path d="M84.4234 15.8057C84.4234 15.875 84.3985 15.9161 84.386 15.9303C84.3802 15.9368 84.3804 15.9341 84.3908 15.9292C84.4024 15.9236 84.4199 15.9187 84.4392 15.9187V17.9187C85.6472 17.9187 86.4234 16.8534 86.4234 15.8057H84.4234ZM84.4392 15.9187C84.4586 15.9187 84.4761 15.9236 84.4877 15.9292C84.498 15.9341 84.4982 15.9368 84.4925 15.9303C84.4799 15.9161 84.4551 15.875 84.4551 15.8057H82.4551C82.4551 16.8534 83.2313 17.9187 84.4392 17.9187V15.9187ZM84.4551 15.8057C84.4551 15.7364 84.4799 15.6953 84.4925 15.681C84.4982 15.6745 84.498 15.6773 84.4877 15.6822C84.4761 15.6877 84.4586 15.6926 84.4392 15.6926V13.6926C83.2313 13.6926 82.4551 14.7579 82.4551 15.8057H84.4551ZM84.4392 15.6926C84.4199 15.6926 84.4024 15.6877 84.3908 15.6822C84.3804 15.6773 84.3802 15.6745 84.386 15.681C84.3985 15.6953 84.4234 15.7364 84.4234 15.8057H86.4234C86.4234 14.7579 85.6472 13.6926 84.4392 13.6926V15.6926Z" fill="#EA83AA" mask="url(#path-79-inside-29_46_42)"/>
<mask id="path-81-inside-30_46_42" fill="white">
<ellipse cx="84.4392" cy="13.5794" rx="0.984142" ry="1.11305"/>
</mask>
<ellipse cx="84.4392" cy="13.5794" rx="0.984142" ry="1.11305" fill="#FFF6E9"/>
<path d="M84.4234 13.5794C84.4234 13.6486 84.3985 13.6898 84.386 13.704C84.3802 13.7105 84.3804 13.7078 84.3908 13.7028C84.4024 13.6973 84.4199 13.6924 84.4392 13.6924V15.6924C85.6472 15.6924 86.4234 14.6271 86.4234 13.5794H84.4234ZM84.4392 13.6924C84.4586 13.6924 84.4761 13.6973 84.4877 13.7028C84.498 13.7078 84.4982 13.7105 84.4925 13.704C84.4799 13.6898 84.4551 13.6486 84.4551 13.5794H82.4551C82.4551 14.6271 83.2313 15.6924 84.4392 15.6924V13.6924ZM84.4551 13.5794C84.4551 13.5101 84.4799 13.4689 84.4925 13.4547C84.4982 13.4482 84.498 13.4509 84.4877 13.4559C84.4761 13.4614 84.4586 13.4663 84.4392 13.4663V11.4663C83.2313 11.4663 82.4551 12.5316 82.4551 13.5794H84.4551ZM84.4392 13.4663C84.4199 13.4663 84.4024 13.4614 84.3908 13.4559C84.3804 13.4509 84.3802 13.4482 84.386 13.4547C84.3985 13.4689 84.4234 13.5101 84.4234 13.5794H86.4234C86.4234 12.5316 85.6472 11.4663 84.4392 11.4663V13.4663Z" fill="#EA83AA" mask="url(#path-81-inside-30_46_42)"/>
<mask id="path-83-inside-31_46_42" fill="white">
<ellipse cx="115.341" cy="10.6861" rx="0.984142" ry="1.11305"/>
</mask>
<ellipse cx="115.341" cy="10.6861" rx="0.984142" ry="1.11305" fill="#FFF6E9"/>
<path d="M115.325 10.6861C115.325 10.7553 115.3 10.7965 115.288 10.8107C115.282 10.8172 115.282 10.8145 115.293 10.8095C115.304 10.804 115.322 10.7991 115.341 10.7991V12.7991C116.549 12.7991 117.325 11.7338 117.325 10.6861H115.325ZM115.341 10.7991C115.36 10.7991 115.378 10.804 115.39 10.8095C115.4 10.8145 115.4 10.8172 115.394 10.8107C115.382 10.7965 115.357 10.7553 115.357 10.6861H113.357C113.357 11.7338 114.133 12.7991 115.341 12.7991V10.7991ZM115.357 10.6861C115.357 10.6168 115.382 10.5756 115.394 10.5614C115.4 10.5549 115.4 10.5576 115.39 10.5626C115.378 10.5681 115.36 10.573 115.341 10.573V8.573C114.133 8.573 113.357 9.63828 113.357 10.6861H115.357ZM115.341 10.573C115.322 10.573 115.304 10.5681 115.293 10.5626C115.282 10.5576 115.282 10.5549 115.288 10.5614C115.3 10.5756 115.325 10.6168 115.325 10.6861H117.325C117.325 9.63828 116.549 8.573 115.341 8.573V10.573Z" fill="#EA83AA" mask="url(#path-83-inside-31_46_42)"/>
<mask id="path-85-inside-32_46_42" fill="white">
<ellipse cx="111.995" cy="6.90138" rx="0.984142" ry="1.11305"/>
</mask>
<ellipse cx="111.995" cy="6.90138" rx="0.984142" ry="1.11305" fill="#FFF6E9"/>
<path d="M111.98 6.90138C111.98 6.97066 111.955 7.0118 111.942 7.02604C111.936 7.03254 111.937 7.02981 111.947 7.02487C111.959 7.01933 111.976 7.01444 111.995 7.01444V9.01444C113.203 9.01444 113.98 7.94915 113.98 6.90138H111.98ZM111.995 7.01444C112.015 7.01444 112.032 7.01933 112.044 7.02487C112.054 7.02981 112.054 7.03254 112.049 7.02604C112.036 7.0118 112.011 6.97066 112.011 6.90138H110.011C110.011 7.94915 110.787 9.01444 111.995 9.01444V7.01444ZM112.011 6.90138C112.011 6.83211 112.036 6.79096 112.049 6.77673C112.054 6.77022 112.054 6.77295 112.044 6.7779C112.032 6.78344 112.015 6.78833 111.995 6.78833V4.78833C110.787 4.78833 110.011 5.85362 110.011 6.90138H112.011ZM111.995 6.78833C111.976 6.78833 111.959 6.78344 111.947 6.7779C111.937 6.77295 111.936 6.77022 111.942 6.77673C111.955 6.79096 111.98 6.83211 111.98 6.90138H113.98C113.98 5.85362 113.203 4.78833 111.995 4.78833V6.78833Z" fill="#EA83AA" mask="url(#path-85-inside-32_46_42)"/>
<mask id="path-87-inside-33_46_42" fill="white">
<ellipse cx="111.995" cy="11.3535" rx="0.984142" ry="1.11305"/>
</mask>
<ellipse cx="111.995" cy="11.3535" rx="0.984142" ry="1.11305" fill="#FFF6E9"/>
<path d="M111.98 11.3535C111.98 11.4228 111.955 11.4639 111.942 11.4782C111.936 11.4847 111.937 11.482 111.947 11.477C111.959 11.4715 111.976 11.4666 111.995 11.4666V13.4666C113.203 13.4666 113.98 12.4013 113.98 11.3535H111.98ZM111.995 11.4666C112.015 11.4666 112.032 11.4715 112.044 11.477C112.054 11.482 112.054 11.4847 112.049 11.4782C112.036 11.4639 112.011 11.4228 112.011 11.3535H110.011C110.011 12.4013 110.787 13.4666 111.995 13.4666V11.4666ZM112.011 11.3535C112.011 11.2843 112.036 11.2431 112.049 11.2289C112.054 11.2224 112.054 11.2251 112.044 11.23C112.032 11.2356 112.015 11.2405 111.995 11.2405V9.24048C110.787 9.24048 110.011 10.3058 110.011 11.3535H112.011ZM111.995 11.2405C111.976 11.2405 111.959 11.2356 111.947 11.23C111.937 11.2251 111.936 11.2224 111.942 11.2289C111.955 11.2431 111.98 11.2843 111.98 11.3535H113.98C113.98 10.3058 113.203 9.24048 111.995 9.24048V11.2405Z" fill="#EA83AA" mask="url(#path-87-inside-33_46_42)"/>
<mask id="path-89-inside-34_46_42" fill="white">
<ellipse cx="113.963" cy="9.12721" rx="0.984142" ry="1.11305"/>
</mask>
<ellipse cx="113.963" cy="9.12721" rx="0.984142" ry="1.11305" fill="#FFF6E9"/>
<path d="M113.947 9.12721C113.947 9.19649 113.922 9.23763 113.91 9.25187C113.904 9.25837 113.904 9.25564 113.915 9.2507C113.926 9.24516 113.944 9.24027 113.963 9.24027V11.2403C115.171 11.2403 115.947 10.175 115.947 9.12721H113.947ZM113.963 9.24027C113.982 9.24027 114 9.24516 114.012 9.2507C114.022 9.25564 114.022 9.25837 114.016 9.25187C114.004 9.23763 113.979 9.19649 113.979 9.12721H111.979C111.979 10.175 112.755 11.2403 113.963 11.2403V9.24027ZM113.979 9.12721C113.979 9.05794 114.004 9.01679 114.016 9.00256C114.022 8.99605 114.022 8.99878 114.012 9.00373C114 9.00927 113.982 9.01416 113.963 9.01416V7.01416C112.755 7.01416 111.979 8.07945 111.979 9.12721H113.979ZM113.963 9.01416C113.944 9.01416 113.926 9.00927 113.915 9.00373C113.904 8.99878 113.904 8.99605 113.91 9.00256C113.922 9.01679 113.947 9.05794 113.947 9.12721H115.947C115.947 8.07945 115.171 7.01416 113.963 7.01416V9.01416Z" fill="#EA83AA" mask="url(#path-89-inside-34_46_42)"/>
<mask id="path-91-inside-35_46_42" fill="white">
<ellipse cx="111.995" cy="9.12721" rx="0.984142" ry="1.11305"/>
</mask>
<ellipse cx="111.995" cy="9.12721" rx="0.984142" ry="1.11305" fill="#FFF6E9"/>
<path d="M111.98 9.12721C111.98 9.19649 111.955 9.23763 111.942 9.25187C111.936 9.25837 111.937 9.25564 111.947 9.2507C111.959 9.24516 111.976 9.24027 111.995 9.24027V11.2403C113.203 11.2403 113.98 10.175 113.98 9.12721H111.98ZM111.995 9.24027C112.015 9.24027 112.032 9.24516 112.044 9.2507C112.054 9.25564 112.054 9.25837 112.049 9.25187C112.036 9.23763 112.011 9.19649 112.011 9.12721H110.011C110.011 10.175 110.787 11.2403 111.995 11.2403V9.24027ZM112.011 9.12721C112.011 9.05794 112.036 9.01679 112.049 9.00256C112.054 8.99605 112.054 8.99878 112.044 9.00373C112.032 9.00927 112.015 9.01416 111.995 9.01416V7.01416C110.787 7.01416 110.011 8.07945 110.011 9.12721H112.011ZM111.995 9.01416C111.976 9.01416 111.959 9.00927 111.947 9.00373C111.937 8.99878 111.936 8.99605 111.942 9.00256C111.955 9.01679 111.98 9.05794 111.98 9.12721H113.98C113.98 8.07945 113.203 7.01416 111.995 7.01416V9.01416Z" fill="#EA83AA" mask="url(#path-91-inside-35_46_42)"/>
<mask id="path-93-inside-36_46_42" fill="white">
<ellipse cx="111.995" cy="15.8057" rx="0.984142" ry="1.11305"/>
</mask>
<ellipse cx="111.995" cy="15.8057" rx="0.984142" ry="1.11305" fill="#FFF6E9"/>
<path d="M111.98 15.8057C111.98 15.875 111.955 15.9161 111.942 15.9303C111.936 15.9368 111.937 15.9341 111.947 15.9292C111.959 15.9236 111.976 15.9187 111.995 15.9187V17.9187C113.203 17.9187 113.98 16.8534 113.98 15.8057H111.98ZM111.995 15.9187C112.015 15.9187 112.032 15.9236 112.044 15.9292C112.054 15.9341 112.054 15.9368 112.049 15.9303C112.036 15.9161 112.011 15.875 112.011 15.8057H110.011C110.011 16.8534 110.787 17.9187 111.995 17.9187V15.9187ZM112.011 15.8057C112.011 15.7364 112.036 15.6953 112.049 15.681C112.054 15.6745 112.054 15.6773 112.044 15.6822C112.032 15.6877 112.015 15.6926 111.995 15.6926V13.6926C110.787 13.6926 110.011 14.7579 110.011 15.8057H112.011ZM111.995 15.6926C111.976 15.6926 111.959 15.6877 111.947 15.6822C111.937 15.6773 111.936 15.6745 111.942 15.681C111.955 15.6953 111.98 15.7364 111.98 15.8057H113.98C113.98 14.7579 113.203 13.6926 111.995 13.6926V15.6926Z" fill="#EA83AA" mask="url(#path-93-inside-36_46_42)"/>
<mask id="path-95-inside-37_46_42" fill="white">
<ellipse cx="111.995" cy="13.5794" rx="0.984142" ry="1.11305"/>
</mask>
<ellipse cx="111.995" cy="13.5794" rx="0.984142" ry="1.11305" fill="#FFF6E9"/>
<path d="M111.98 13.5794C111.98 13.6486 111.955 13.6898 111.942 13.704C111.936 13.7105 111.937 13.7078 111.947 13.7028C111.959 13.6973 111.976 13.6924 111.995 13.6924V15.6924C113.203 15.6924 113.98 14.6271 113.98 13.5794H111.98ZM111.995 13.6924C112.015 13.6924 112.032 13.6973 112.044 13.7028C112.054 13.7078 112.054 13.7105 112.049 13.704C112.036 13.6898 112.011 13.6486 112.011 13.5794H110.011C110.011 14.6271 110.787 15.6924 111.995 15.6924V13.6924ZM112.011 13.5794C112.011 13.5101 112.036 13.4689 112.049 13.4547C112.054 13.4482 112.054 13.4509 112.044 13.4559C112.032 13.4614 112.015 13.4663 111.995 13.4663V11.4663C110.787 11.4663 110.011 12.5316 110.011 13.5794H112.011ZM111.995 13.4663C111.976 13.4663 111.959 13.4614 111.947 13.4559C111.937 13.4509 111.936 13.4482 111.942 13.4547C111.955 13.4689 111.98 13.5101 111.98 13.5794H113.98C113.98 12.5316 113.203 11.4663 111.995 11.4663V13.4663Z" fill="#EA83AA" mask="url(#path-95-inside-37_46_42)"/>
<mask id="path-97-inside-38_46_42" fill="white">
<ellipse cx="118.688" cy="11.3535" rx="0.984142" ry="1.11305"/>
</mask>
<ellipse cx="118.688" cy="11.3535" rx="0.984142" ry="1.11305" fill="#FFF6E9"/>
<path d="M118.672 11.3535C118.672 11.4228 118.647 11.4639 118.634 11.4782C118.629 11.4847 118.629 11.482 118.639 11.477C118.651 11.4715 118.668 11.4666 118.688 11.4666V13.4666C119.896 13.4666 120.672 12.4013 120.672 11.3535H118.672ZM118.688 11.4666C118.707 11.4666 118.725 11.4715 118.736 11.477C118.747 11.482 118.747 11.4847 118.741 11.4782C118.728 11.4639 118.704 11.4228 118.704 11.3535H116.704C116.704 12.4013 117.48 13.4666 118.688 13.4666V11.4666ZM118.704 11.3535C118.704 11.2843 118.728 11.2431 118.741 11.2289C118.747 11.2224 118.747 11.2251 118.736 11.23C118.725 11.2356 118.707 11.2405 118.688 11.2405V9.24048C117.48 9.24048 116.704 10.3058 116.704 11.3535H118.704ZM118.688 11.2405C118.668 11.2405 118.651 11.2356 118.639 11.23C118.629 11.2251 118.629 11.2224 118.634 11.2289C118.647 11.2431 118.672 11.2843 118.672 11.3535H120.672C120.672 10.3058 119.896 9.24048 118.688 9.24048V11.2405Z" fill="#EA83AA" mask="url(#path-97-inside-38_46_42)"/>
<mask id="path-99-inside-39_46_42" fill="white">
<ellipse cx="118.688" cy="6.90138" rx="0.984142" ry="1.11305"/>
</mask>
<ellipse cx="118.688" cy="6.90138" rx="0.984142" ry="1.11305" fill="#FFF6E9"/>
<path d="M118.672 6.90138C118.672 6.97066 118.647 7.0118 118.634 7.02604C118.629 7.03254 118.629 7.02981 118.639 7.02487C118.651 7.01933 118.668 7.01444 118.688 7.01444V9.01444C119.896 9.01444 120.672 7.94915 120.672 6.90138H118.672ZM118.688 7.01444C118.707 7.01444 118.725 7.01933 118.736 7.02487C118.747 7.02981 118.747 7.03254 118.741 7.02604C118.728 7.0118 118.704 6.97066 118.704 6.90138H116.704C116.704 7.94915 117.48 9.01444 118.688 9.01444V7.01444ZM118.704 6.90138C118.704 6.83211 118.728 6.79096 118.741 6.77673C118.747 6.77022 118.747 6.77295 118.736 6.7779C118.725 6.78344 118.707 6.78833 118.688 6.78833V4.78833C117.48 4.78833 116.704 5.85362 116.704 6.90138H118.704ZM118.688 6.78833C118.668 6.78833 118.651 6.78344 118.639 6.7779C118.629 6.77295 118.629 6.77022 118.634 6.77673C118.647 6.79096 118.672 6.83211 118.672 6.90138H120.672C120.672 5.85362 119.896 4.78833 118.688 4.78833V6.78833Z" fill="#EA83AA" mask="url(#path-99-inside-39_46_42)"/>
<mask id="path-101-inside-40_46_42" fill="white">
<ellipse cx="118.688" cy="9.12721" rx="0.984142" ry="1.11305"/>
</mask>
<ellipse cx="118.688" cy="9.12721" rx="0.984142" ry="1.11305" fill="#FFF6E9"/>
<path d="M118.672 9.12721C118.672 9.19649 118.647 9.23763 118.634 9.25187C118.629 9.25837 118.629 9.25564 118.639 9.2507C118.651 9.24516 118.668 9.24027 118.688 9.24027V11.2403C119.896 11.2403 120.672 10.175 120.672 9.12721H118.672ZM118.688 9.24027C118.707 9.24027 118.725 9.24516 118.736 9.2507C118.747 9.25564 118.747 9.25837 118.741 9.25187C118.728 9.23763 118.704 9.19649 118.704 9.12721H116.704C116.704 10.175 117.48 11.2403 118.688 11.2403V9.24027ZM118.704 9.12721C118.704 9.05794 118.728 9.01679 118.741 9.00256C118.747 8.99605 118.747 8.99878 118.736 9.00373C118.725 9.00927 118.707 9.01416 118.688 9.01416V7.01416C117.48 7.01416 116.704 8.07945 116.704 9.12721H118.704ZM118.688 9.01416C118.668 9.01416 118.651 9.00927 118.639 9.00373C118.629 8.99878 118.629 8.99605 118.634 9.00256C118.647 9.01679 118.672 9.05794 118.672 9.12721H120.672C120.672 8.07945 119.896 7.01416 118.688 7.01416V9.01416Z" fill="#EA83AA" mask="url(#path-101-inside-40_46_42)"/>
<mask id="path-103-inside-41_46_42" fill="white">
<ellipse cx="116.719" cy="9.12721" rx="0.984142" ry="1.11305"/>
</mask>
<ellipse cx="116.719" cy="9.12721" rx="0.984142" ry="1.11305" fill="#FFF6E9"/>
<path d="M116.703 9.12721C116.703 9.19649 116.678 9.23763 116.666 9.25187C116.66 9.25837 116.66 9.25564 116.671 9.2507C116.682 9.24516 116.7 9.24027 116.719 9.24027V11.2403C117.927 11.2403 118.703 10.175 118.703 9.12721H116.703ZM116.719 9.24027C116.738 9.24027 116.756 9.24516 116.767 9.2507C116.778 9.25564 116.778 9.25837 116.772 9.25187C116.76 9.23763 116.735 9.19649 116.735 9.12721H114.735C114.735 10.175 115.511 11.2403 116.719 11.2403V9.24027ZM116.735 9.12721C116.735 9.05794 116.76 9.01679 116.772 9.00256C116.778 8.99605 116.778 8.99878 116.767 9.00373C116.756 9.00927 116.738 9.01416 116.719 9.01416V7.01416C115.511 7.01416 114.735 8.07945 114.735 9.12721H116.735ZM116.719 9.01416C116.7 9.01416 116.682 9.00927 116.671 9.00373C116.66 8.99878 116.66 8.99605 116.666 9.00256C116.678 9.01679 116.703 9.05794 116.703 9.12721H118.703C118.703 8.07945 117.927 7.01416 116.719 7.01416V9.01416Z" fill="#EA83AA" mask="url(#path-103-inside-41_46_42)"/>
<mask id="path-105-inside-42_46_42" fill="white">
<ellipse cx="118.688" cy="15.8057" rx="0.984142" ry="1.11305"/>
</mask>
<ellipse cx="118.688" cy="15.8057" rx="0.984142" ry="1.11305" fill="#FFF6E9"/>
<path d="M118.672 15.8057C118.672 15.875 118.647 15.9161 118.634 15.9303C118.629 15.9368 118.629 15.9341 118.639 15.9292C118.651 15.9236 118.668 15.9187 118.688 15.9187V17.9187C119.896 17.9187 120.672 16.8534 120.672 15.8057H118.672ZM118.688 15.9187C118.707 15.9187 118.725 15.9236 118.736 15.9292C118.747 15.9341 118.747 15.9368 118.741 15.9303C118.728 15.9161 118.704 15.875 118.704 15.8057H116.704C116.704 16.8534 117.48 17.9187 118.688 17.9187V15.9187ZM118.704 15.8057C118.704 15.7364 118.728 15.6953 118.741 15.681C118.747 15.6745 118.747 15.6773 118.736 15.6822C118.725 15.6877 118.707 15.6926 118.688 15.6926V13.6926C117.48 13.6926 116.704 14.7579 116.704 15.8057H118.704ZM118.688 15.6926C118.668 15.6926 118.651 15.6877 118.639 15.6822C118.629 15.6773 118.629 15.6745 118.634 15.681C118.647 15.6953 118.672 15.7364 118.672 15.8057H120.672C120.672 14.7579 119.896 13.6926 118.688 13.6926V15.6926Z" fill="#EA83AA" mask="url(#path-105-inside-42_46_42)"/>
<mask id="path-107-inside-43_46_42" fill="white">
<ellipse cx="118.688" cy="13.5794" rx="0.984142" ry="1.11305"/>
</mask>
<ellipse cx="118.688" cy="13.5794" rx="0.984142" ry="1.11305" fill="#FFF6E9"/>
<path d="M118.672 13.5794C118.672 13.6486 118.647 13.6898 118.634 13.704C118.629 13.7105 118.629 13.7078 118.639 13.7028C118.651 13.6973 118.668 13.6924 118.688 13.6924V15.6924C119.896 15.6924 120.672 14.6271 120.672 13.5794H118.672ZM118.688 13.6924C118.707 13.6924 118.725 13.6973 118.736 13.7028C118.747 13.7078 118.747 13.7105 118.741 13.704C118.728 13.6898 118.704 13.6486 118.704 13.5794H116.704C116.704 14.6271 117.48 15.6924 118.688 15.6924V13.6924ZM118.704 13.5794C118.704 13.5101 118.728 13.4689 118.741 13.4547C118.747 13.4482 118.747 13.4509 118.736 13.4559C118.725 13.4614 118.707 13.4663 118.688 13.4663V11.4663C117.48 11.4663 116.704 12.5316 116.704 13.5794H118.704ZM118.688 13.4663C118.668 13.4663 118.651 13.4614 118.639 13.4559C118.629 13.4509 118.629 13.4482 118.634 13.4547C118.647 13.4689 118.672 13.5101 118.672 13.5794H120.672C120.672 12.5316 119.896 11.4663 118.688 11.4663V13.4663Z" fill="#EA83AA" mask="url(#path-107-inside-43_46_42)"/>
<mask id="path-109-inside-44_46_42" fill="white">
<ellipse cx="122.624" cy="6.90138" rx="0.984142" ry="1.11305"/>
</mask>
<ellipse cx="122.624" cy="6.90138" rx="0.984142" ry="1.11305" fill="#FFF6E9"/>
<path d="M122.608 6.90138C122.608 6.97066 122.583 7.0118 122.571 7.02604C122.565 7.03254 122.565 7.02981 122.575 7.02487C122.587 7.01933 122.604 7.01444 122.624 7.01444V9.01444C123.832 9.01444 124.608 7.94915 124.608 6.90138H122.608ZM122.624 7.01444C122.643 7.01444 122.661 7.01933 122.672 7.02487C122.683 7.02981 122.683 7.03254 122.677 7.02604C122.664 7.0118 122.64 6.97066 122.64 6.90138H120.64C120.64 7.94915 121.416 9.01444 122.624 9.01444V7.01444ZM122.64 6.90138C122.64 6.83211 122.664 6.79096 122.677 6.77673C122.683 6.77022 122.683 6.77295 122.672 6.7779C122.661 6.78344 122.643 6.78833 122.624 6.78833V4.78833C121.416 4.78833 120.64 5.85362 120.64 6.90138H122.64ZM122.624 6.78833C122.604 6.78833 122.587 6.78344 122.575 6.7779C122.565 6.77295 122.565 6.77022 122.571 6.77673C122.583 6.79096 122.608 6.83211 122.608 6.90138H124.608C124.608 5.85362 123.832 4.78833 122.624 4.78833V6.78833Z" fill="#EA83AA" mask="url(#path-109-inside-44_46_42)"/>
<mask id="path-111-inside-45_46_42" fill="white">
<ellipse cx="126.56" cy="11.3535" rx="0.984142" ry="1.11305"/>
</mask>
<ellipse cx="126.56" cy="11.3535" rx="0.984142" ry="1.11305" fill="#FFF6E9"/>
<path d="M126.544 11.3535C126.544 11.4228 126.52 11.4639 126.507 11.4782C126.501 11.4847 126.502 11.482 126.512 11.477C126.523 11.4715 126.541 11.4666 126.56 11.4666V13.4666C127.768 13.4666 128.544 12.4013 128.544 11.3535H126.544ZM126.56 11.4666C126.58 11.4666 126.597 11.4715 126.609 11.477C126.619 11.482 126.619 11.4847 126.614 11.4782C126.601 11.4639 126.576 11.4228 126.576 11.3535H124.576C124.576 12.4013 125.352 13.4666 126.56 13.4666V11.4666ZM126.576 11.3535C126.576 11.2843 126.601 11.2431 126.614 11.2289C126.619 11.2224 126.619 11.2251 126.609 11.23C126.597 11.2356 126.58 11.2405 126.56 11.2405V9.24048C125.352 9.24048 124.576 10.3058 124.576 11.3535H126.576ZM126.56 11.2405C126.541 11.2405 126.523 11.2356 126.512 11.23C126.502 11.2251 126.501 11.2224 126.507 11.2289C126.52 11.2431 126.544 11.2843 126.544 11.3535H128.544C128.544 10.3058 127.768 9.24048 126.56 9.24048V11.2405Z" fill="#EA83AA" mask="url(#path-111-inside-45_46_42)"/>
<mask id="path-113-inside-46_46_42" fill="white">
<ellipse cx="124.593" cy="11.3535" rx="0.984142" ry="1.11305"/>
</mask>
<ellipse cx="124.593" cy="11.3535" rx="0.984142" ry="1.11305" fill="#FFF6E9"/>
<path d="M124.577 11.3535C124.577 11.4228 124.552 11.4639 124.539 11.4782C124.534 11.4847 124.534 11.482 124.544 11.477C124.556 11.4715 124.573 11.4666 124.593 11.4666V13.4666C125.8 13.4666 126.577 12.4013 126.577 11.3535H124.577ZM124.593 11.4666C124.612 11.4666 124.629 11.4715 124.641 11.477C124.651 11.482 124.652 11.4847 124.646 11.4782C124.633 11.4639 124.608 11.4228 124.608 11.3535H122.608C122.608 12.4013 123.385 13.4666 124.593 13.4666V11.4666ZM124.608 11.3535C124.608 11.2843 124.633 11.2431 124.646 11.2289C124.652 11.2224 124.651 11.2251 124.641 11.23C124.629 11.2356 124.612 11.2405 124.593 11.2405V9.24048C123.385 9.24048 122.608 10.3058 122.608 11.3535H124.608ZM124.593 11.2405C124.573 11.2405 124.556 11.2356 124.544 11.23C124.534 11.2251 124.534 11.2224 124.539 11.2289C124.552 11.2431 124.577 11.2843 124.577 11.3535H126.577C126.577 10.3058 125.8 9.24048 124.593 9.24048V11.2405Z" fill="#EA83AA" mask="url(#path-113-inside-46_46_42)"/>
<mask id="path-115-inside-47_46_42" fill="white">
<ellipse cx="126.56" cy="6.90138" rx="0.984142" ry="1.11305"/>
</mask>
<ellipse cx="126.56" cy="6.90138" rx="0.984142" ry="1.11305" fill="#FFF6E9"/>
<path d="M126.544 6.90138C126.544 6.97066 126.52 7.0118 126.507 7.02604C126.501 7.03254 126.502 7.02981 126.512 7.02487C126.523 7.01933 126.541 7.01444 126.56 7.01444V9.01444C127.768 9.01444 128.544 7.94915 128.544 6.90138H126.544ZM126.56 7.01444C126.58 7.01444 126.597 7.01933 126.609 7.02487C126.619 7.02981 126.619 7.03254 126.614 7.02604C126.601 7.0118 126.576 6.97066 126.576 6.90138H124.576C124.576 7.94915 125.352 9.01444 126.56 9.01444V7.01444ZM126.576 6.90138C126.576 6.83211 126.601 6.79096 126.614 6.77673C126.619 6.77022 126.619 6.77295 126.609 6.7779C126.597 6.78344 126.58 6.78833 126.56 6.78833V4.78833C125.352 4.78833 124.576 5.85362 124.576 6.90138H126.576ZM126.56 6.78833C126.541 6.78833 126.523 6.78344 126.512 6.7779C126.502 6.77295 126.501 6.77022 126.507 6.77673C126.52 6.79096 126.544 6.83211 126.544 6.90138H128.544C128.544 5.85362 127.768 4.78833 126.56 4.78833V6.78833Z" fill="#EA83AA" mask="url(#path-115-inside-47_46_42)"/>
<mask id="path-117-inside-48_46_42" fill="white">
<ellipse cx="124.593" cy="6.90138" rx="0.984142" ry="1.11305"/>
</mask>
<ellipse cx="124.593" cy="6.90138" rx="0.984142" ry="1.11305" fill="#FFF6E9"/>
<path d="M124.577 6.90138C124.577 6.97066 124.552 7.0118 124.539 7.02604C124.534 7.03254 124.534 7.02981 124.544 7.02487C124.556 7.01933 124.573 7.01444 124.593 7.01444V9.01444C125.8 9.01444 126.577 7.94915 126.577 6.90138H124.577ZM124.593 7.01444C124.612 7.01444 124.629 7.01933 124.641 7.02487C124.651 7.02981 124.652 7.03254 124.646 7.02604C124.633 7.0118 124.608 6.97066 124.608 6.90138H122.608C122.608 7.94915 123.385 9.01444 124.593 9.01444V7.01444ZM124.608 6.90138C124.608 6.83211 124.633 6.79096 124.646 6.77673C124.652 6.77022 124.651 6.77295 124.641 6.7779C124.629 6.78344 124.612 6.78833 124.593 6.78833V4.78833C123.385 4.78833 122.608 5.85362 122.608 6.90138H124.608ZM124.593 6.78833C124.573 6.78833 124.556 6.78344 124.544 6.7779C124.534 6.77295 124.534 6.77022 124.539 6.77673C124.552 6.79096 124.577 6.83211 124.577 6.90138H126.577C126.577 5.85362 125.8 4.78833 124.593 4.78833V6.78833Z" fill="#EA83AA" mask="url(#path-117-inside-48_46_42)"/>
<mask id="path-119-inside-49_46_42" fill="white">
<ellipse cx="122.624" cy="11.3535" rx="0.984142" ry="1.11305"/>
</mask>
<ellipse cx="122.624" cy="11.3535" rx="0.984142" ry="1.11305" fill="#FFF6E9"/>
<path d="M122.608 11.3535C122.608 11.4228 122.583 11.4639 122.571 11.4782C122.565 11.4847 122.565 11.482 122.575 11.477C122.587 11.4715 122.604 11.4666 122.624 11.4666V13.4666C123.832 13.4666 124.608 12.4013 124.608 11.3535H122.608ZM122.624 11.4666C122.643 11.4666 122.661 11.4715 122.672 11.477C122.683 11.482 122.683 11.4847 122.677 11.4782C122.664 11.4639 122.64 11.4228 122.64 11.3535H120.64C120.64 12.4013 121.416 13.4666 122.624 13.4666V11.4666ZM122.64 11.3535C122.64 11.2843 122.664 11.2431 122.677 11.2289C122.683 11.2224 122.683 11.2251 122.672 11.23C122.661 11.2356 122.643 11.2405 122.624 11.2405V9.24048C121.416 9.24048 120.64 10.3058 120.64 11.3535H122.64ZM122.624 11.2405C122.604 11.2405 122.587 11.2356 122.575 11.23C122.565 11.2251 122.565 11.2224 122.571 11.2289C122.583 11.2431 122.608 11.2843 122.608 11.3535H124.608C124.608 10.3058 123.832 9.24048 122.624 9.24048V11.2405Z" fill="#EA83AA" mask="url(#path-119-inside-49_46_42)"/>
<mask id="path-121-inside-50_46_42" fill="white">
<ellipse cx="122.624" cy="9.12721" rx="0.984142" ry="1.11305"/>
</mask>
<ellipse cx="122.624" cy="9.12721" rx="0.984142" ry="1.11305" fill="#FFF6E9"/>
<path d="M122.608 9.12721C122.608 9.19649 122.583 9.23763 122.571 9.25187C122.565 9.25837 122.565 9.25564 122.575 9.2507C122.587 9.24516 122.604 9.24027 122.624 9.24027V11.2403C123.832 11.2403 124.608 10.175 124.608 9.12721H122.608ZM122.624 9.24027C122.643 9.24027 122.661 9.24516 122.672 9.2507C122.683 9.25564 122.683 9.25837 122.677 9.25187C122.664 9.23763 122.64 9.19649 122.64 9.12721H120.64C120.64 10.175 121.416 11.2403 122.624 11.2403V9.24027ZM122.64 9.12721C122.64 9.05794 122.664 9.01679 122.677 9.00256C122.683 8.99605 122.683 8.99878 122.672 9.00373C122.661 9.00927 122.643 9.01416 122.624 9.01416V7.01416C121.416 7.01416 120.64 8.07945 120.64 9.12721H122.64ZM122.624 9.01416C122.604 9.01416 122.587 9.00927 122.575 9.00373C122.565 8.99878 122.565 8.99605 122.571 9.00256C122.583 9.01679 122.608 9.05794 122.608 9.12721H124.608C124.608 8.07945 123.832 7.01416 122.624 7.01416V9.01416Z" fill="#EA83AA" mask="url(#path-121-inside-50_46_42)"/>
<mask id="path-123-inside-51_46_42" fill="white">
<ellipse cx="126.56" cy="15.8057" rx="0.984142" ry="1.11305"/>
</mask>
<ellipse cx="126.56" cy="15.8057" rx="0.984142" ry="1.11305" fill="#FFF6E9"/>
<path d="M126.544 15.8057C126.544 15.875 126.52 15.9161 126.507 15.9303C126.501 15.9368 126.502 15.9341 126.512 15.9292C126.523 15.9236 126.541 15.9187 126.56 15.9187V17.9187C127.768 17.9187 128.544 16.8534 128.544 15.8057H126.544ZM126.56 15.9187C126.58 15.9187 126.597 15.9236 126.609 15.9292C126.619 15.9341 126.619 15.9368 126.614 15.9303C126.601 15.9161 126.576 15.875 126.576 15.8057H124.576C124.576 16.8534 125.352 17.9187 126.56 17.9187V15.9187ZM126.576 15.8057C126.576 15.7364 126.601 15.6953 126.614 15.681C126.619 15.6745 126.619 15.6773 126.609 15.6822C126.597 15.6877 126.58 15.6926 126.56 15.6926V13.6926C125.352 13.6926 124.576 14.7579 124.576 15.8057H126.576ZM126.56 15.6926C126.541 15.6926 126.523 15.6877 126.512 15.6822C126.502 15.6773 126.501 15.6745 126.507 15.681C126.52 15.6953 126.544 15.7364 126.544 15.8057H128.544C128.544 14.7579 127.768 13.6926 126.56 13.6926V15.6926Z" fill="#EA83AA" mask="url(#path-123-inside-51_46_42)"/>
<mask id="path-125-inside-52_46_42" fill="white">
<ellipse cx="124.593" cy="15.8057" rx="0.984142" ry="1.11305"/>
</mask>
<ellipse cx="124.593" cy="15.8057" rx="0.984142" ry="1.11305" fill="#FFF6E9"/>
<path d="M124.577 15.8057C124.577 15.875 124.552 15.9161 124.539 15.9303C124.534 15.9368 124.534 15.9341 124.544 15.9292C124.556 15.9236 124.573 15.9187 124.593 15.9187V17.9187C125.8 17.9187 126.577 16.8534 126.577 15.8057H124.577ZM124.593 15.9187C124.612 15.9187 124.629 15.9236 124.641 15.9292C124.651 15.9341 124.652 15.9368 124.646 15.9303C124.633 15.9161 124.608 15.875 124.608 15.8057H122.608C122.608 16.8534 123.385 17.9187 124.593 17.9187V15.9187ZM124.608 15.8057C124.608 15.7364 124.633 15.6953 124.646 15.681C124.652 15.6745 124.651 15.6773 124.641 15.6822C124.629 15.6877 124.612 15.6926 124.593 15.6926V13.6926C123.385 13.6926 122.608 14.7579 122.608 15.8057H124.608ZM124.593 15.6926C124.573 15.6926 124.556 15.6877 124.544 15.6822C124.534 15.6773 124.534 15.6745 124.539 15.681C124.552 15.6953 124.577 15.7364 124.577 15.8057H126.577C126.577 14.7579 125.8 13.6926 124.593 13.6926V15.6926Z" fill="#EA83AA" mask="url(#path-125-inside-52_46_42)"/>
<mask id="path-127-inside-53_46_42" fill="white">
<ellipse cx="122.624" cy="15.8057" rx="0.984142" ry="1.11305"/>
</mask>
<ellipse cx="122.624" cy="15.8057" rx="0.984142" ry="1.11305" fill="#FFF6E9"/>
<path d="M122.608 15.8057C122.608 15.875 122.583 15.9161 122.571 15.9303C122.565 15.9368 122.565 15.9341 122.575 15.9292C122.587 15.9236 122.604 15.9187 122.624 15.9187V17.9187C123.832 17.9187 124.608 16.8534 124.608 15.8057H122.608ZM122.624 15.9187C122.643 15.9187 122.661 15.9236 122.672 15.9292C122.683 15.9341 122.683 15.9368 122.677 15.9303C122.664 15.9161 122.64 15.875 122.64 15.8057H120.64C120.64 16.8534 121.416 17.9187 122.624 17.9187V15.9187ZM122.64 15.8057C122.64 15.7364 122.664 15.6953 122.677 15.681C122.683 15.6745 122.683 15.6773 122.672 15.6822C122.661 15.6877 122.643 15.6926 122.624 15.6926V13.6926C121.416 13.6926 120.64 14.7579 120.64 15.8057H122.64ZM122.624 15.6926C122.604 15.6926 122.587 15.6877 122.575 15.6822C122.565 15.6773 122.565 15.6745 122.571 15.681C122.583 15.6953 122.608 15.7364 122.608 15.8057H124.608C124.608 14.7579 123.832 13.6926 122.624 13.6926V15.6926Z" fill="#EA83AA" mask="url(#path-127-inside-53_46_42)"/>
<mask id="path-129-inside-54_46_42" fill="white">
<ellipse cx="122.624" cy="13.5794" rx="0.984142" ry="1.11305"/>
</mask>
<ellipse cx="122.624" cy="13.5794" rx="0.984142" ry="1.11305" fill="#FFF6E9"/>
<path d="M122.608 13.5794C122.608 13.6486 122.583 13.6898 122.571 13.704C122.565 13.7105 122.565 13.7078 122.575 13.7028C122.587 13.6973 122.604 13.6924 122.624 13.6924V15.6924C123.832 15.6924 124.608 14.6271 124.608 13.5794H122.608ZM122.624 13.6924C122.643 13.6924 122.661 13.6973 122.672 13.7028C122.683 13.7078 122.683 13.7105 122.677 13.704C122.664 13.6898 122.64 13.6486 122.64 13.5794H120.64C120.64 14.6271 121.416 15.6924 122.624 15.6924V13.6924ZM122.64 13.5794C122.64 13.5101 122.664 13.4689 122.677 13.4547C122.683 13.4482 122.683 13.4509 122.672 13.4559C122.661 13.4614 122.643 13.4663 122.624 13.4663V11.4663C121.416 11.4663 120.64 12.5316 120.64 13.5794H122.64ZM122.624 13.4663C122.604 13.4663 122.587 13.4614 122.575 13.4559C122.565 13.4509 122.565 13.4482 122.571 13.4547C122.583 13.4689 122.608 13.5101 122.608 13.5794H124.608C124.608 12.5316 123.832 11.4663 122.624 11.4663V13.4663Z" fill="#EA83AA" mask="url(#path-129-inside-54_46_42)"/>
</svg>
