<svg width="374" height="557" viewBox="0 0 374 557" fill="none" xmlns="http://www.w3.org/2000/svg">
<path d="M340.352 556.295C340.381 556.272 340.417 556.243 340.461 556.207C340.67 556.237 340.629 556.266 340.352 556.295C340.253 556.374 340.245 556.372 340.318 556.298C330.126 557.281 40.0342 557.228 40.7967 556.207C41.134 555.756 41.8187 553.315 42.3197 550.784C43.294 545.841 44.1675 544.768 48.8626 542.744C55.1411 540.035 59.2042 539.464 67.9649 540.05L76.5519 540.626L75.9956 531.574C75.1648 518.048 73.5385 505.375 72.4082 503.631C71.6353 502.438 71.9425 501.561 73.7576 499.78C77.5614 496.047 79.3891 490.57 77.2593 489.283C75.9049 488.466 75.5475 486.913 75.5475 481.869C75.5475 472.126 73.5008 470.351 58.8845 467.421C48.7191 465.384 43.3217 463.101 39.4171 459.192L36.3232 456.09L36.3786 441.174C36.4113 432.97 36.8493 425.656 37.3553 424.92C39.0319 422.48 49.58 395.406 50.9948 389.909C53.4745 380.279 52.2083 376.151 43.8151 366.504C39.1528 361.147 36.3005 356.057 35.5856 351.827C35.1979 349.537 34.5459 348.387 33.7755 348.632C30.4173 349.697 30.0271 347.861 29.4732 328.42L28.9219 309.123L26.5454 308.377C24.1916 307.639 24.2218 307.572 29.9843 301.156C37.3276 292.981 39.3995 288.373 36.804 286.003C35.0569 284.411 35.0997 284.23 38.0627 280.468C41.0837 276.633 41.3707 273.825 38.6493 274.685C37.5995 275.018 37.4157 274.61 37.8966 273.024C38.3648 271.484 37.9142 270.376 36.2099 268.88C34.931 267.755 33.7604 266.186 33.6094 265.392C32.1115 257.597 30.8528 253.887 29.0125 251.829C26.6738 249.221 24.1916 248.609 24.1916 250.644C24.1916 251.33 23.8518 251.879 23.4364 251.865C22.4093 251.829 17.1428 244.579 17.1428 243.199C17.1428 242.59 16.5109 241.892 15.7355 241.646C14.9148 241.386 14.0413 239.36 13.6385 236.776C13.2583 234.344 12.2891 230.195 11.4886 227.558C9.39157 220.663 11.1185 211.176 16.0426 202.563C17.1327 200.657 18.2857 197.786 18.6079 196.186C18.9302 194.585 20.6596 191.887 22.447 190.189C28.6978 184.261 36.4692 169.979 39.7721 158.356C40.6809 155.155 41.8515 151.386 42.3751 149.983C42.8962 148.578 43.3242 147.011 43.3242 146.5C43.3242 145.645 30.2687 129.179 26.2081 124.914C25.2389 123.895 23.449 120.902 22.2305 118.262C21.0096 115.62 18.9075 111.588 17.5557 109.302C16.2038 107.015 15.1037 104.866 15.1137 104.525C15.1213 104.184 13.5428 101.068 11.6044 97.6034C9.66595 94.1384 8.07997 90.7649 8.07997 90.1059C8.07997 89.447 7.67468 88.2602 7.18126 87.4662C4.85011 83.7268 3.5385 76.747 0.965668 54.4273C-4.0516 10.9124 10.5999 4.99056 42.1687 37.7779C47.4629 43.2758 53.8018 49.6466 56.2512 51.933C68.2267 63.1074 84.2603 90.106 89.333 107.639C89.5973 108.553 90.1814 110.05 90.6295 110.964C91.0776 111.879 92.2104 114.404 93.1469 116.577L94.8462 120.526L100.553 120.542C103.692 120.551 110.792 121.147 116.33 121.867C135.007 124.292 133.333 124.35 134.667 121.218C136.369 117.223 137.726 109.688 138.461 100.156C139.09 92.0058 140.515 85.9696 142.177 84.4003C142.637 83.9659 143.015 82.9848 143.015 82.2199C143.015 77.4703 162.558 47.2188 169.295 41.5401C170.108 40.8542 171.862 38.9835 173.192 37.383C175.991 34.0157 211.666 3.94504 215.729 1.52558C220.681 -1.41976 228.001 0.0830491 230.025 4.45844C232.112 8.96686 232.208 32.991 230.184 43.203C226.342 62.5711 224.568 72.7333 223.505 81.4487C222.448 90.1122 221.355 94.419 218.344 101.819C216.026 107.512 211.462 116.358 209.979 118.032C209.372 118.717 207.567 121.336 205.966 123.852C202.862 128.732 199.808 132.818 189.673 145.643C182.745 154.411 182.418 155.336 185.056 158.647C186.025 159.863 187.372 161.605 188.052 162.517C190.406 165.685 195.609 175.034 200.08 184.13C202.553 189.16 206.095 195.895 207.952 199.096C210.392 203.305 211.328 206.067 211.326 209.073C211.326 211.359 211.993 214.756 212.811 216.618C214.198 219.782 214.171 220.073 212.391 220.992C210.837 221.792 210.482 222.974 210.482 227.371C210.482 232.257 210.286 232.769 208.418 232.769C205.148 232.769 202.479 238.51 203.552 243.245C205.254 250.761 213.174 260.189 221.818 264.987C224.651 266.558 225.338 267.352 224.545 268.14C223.43 269.248 228.18 273.575 243.547 285.45C250.102 290.516 257.81 298.784 257.81 300.75C257.81 301.588 260.844 307.055 264.698 313.157C266.193 315.529 269.715 319.458 272.522 321.887C283.317 331.233 292.327 340.977 295.084 346.29C297.558 351.054 297.558 351.068 294.933 350.38C289.988 349.086 298.029 360.669 305.612 365.77C318.861 374.683 326.889 382.569 323.732 383.569C322.342 384.01 322.342 384.309 323.732 386.527C324.583 387.884 325.278 389.416 325.278 389.929C325.278 391.05 331.853 399.325 340.461 409.031C346.855 416.244 353.753 425.429 356.693 430.649C370.559 455.265 373.895 466.4 373.998 488.433C374.089 507.452 371.176 520.902 364.187 533.775C363.053 535.863 341.476 555.13 340.318 556.298C340.33 556.297 340.341 556.296 340.352 556.295Z" fill="white"/>
<path d="M123.352 199.911C123.352 194.378 133.001 186.33 140.853 185.311C159.019 182.956 168.024 194.266 152.884 200.42C145.525 203.411 123.352 203.029 123.352 199.911Z" fill="#FCF2F7"/>
<ellipse cx="141.984" cy="193.723" rx="7.04884" ry="5.82" fill="#EA83AA"/>
<ellipse cx="145.006" cy="191.228" rx="2.01395" ry="1.66286" fill="white"/>
<path d="M45.346 198.658C36.18 198.677 31.845 188.976 38.3853 183.077C43.8003 178.19 51.977 181.605 55.6952 190.306C58.7967 197.562 57.4725 198.631 45.346 198.658Z" fill="#FCF2F7"/>
<ellipse cx="46.3213" cy="191.229" rx="7.04884" ry="5.82" fill="#EA83AA"/>
<ellipse cx="49.3431" cy="188.733" rx="2.01395" ry="1.66286" fill="white"/>
</svg>
