<svg width="129" height="125" viewBox="0 0 129 125" fill="none" xmlns="http://www.w3.org/2000/svg">
<ellipse cx="62.5" cy="64.5" rx="62.5" ry="64.5" transform="matrix(0 -1 -1 0 129 125)" fill="white"/>
<ellipse cx="62.5" cy="64.5" rx="62.5" ry="64.5" transform="matrix(0 -1 -1 0 129 125)" fill="white"/>
<path d="M60.818 99.182C62.5754 100.939 65.4246 100.939 67.182 99.182L95.8198 70.5442C97.5772 68.7868 97.5772 65.9376 95.8198 64.1802C94.0624 62.4228 91.2132 62.4228 89.4558 64.1802L64 89.636L38.5442 64.1802C36.7868 62.4228 33.9376 62.4228 32.1802 64.1802C30.4228 65.9376 30.4228 68.7868 32.1802 70.5442L60.818 99.182ZM59.5 23L59.5 96L68.5 96L68.5 23L59.5 23Z" fill="#279B61"/>
<path d="M60.818 99.182C62.5754 100.939 65.4246 100.939 67.182 99.182L95.8198 70.5442C97.5772 68.7868 97.5772 65.9376 95.8198 64.1802C94.0624 62.4228 91.2132 62.4228 89.4558 64.1802L64 89.636L38.5442 64.1802C36.7868 62.4228 33.9376 62.4228 32.1802 64.1802C30.4228 65.9376 30.4228 68.7868 32.1802 70.5442L60.818 99.182ZM59.5 23L59.5 96L68.5 96L68.5 23L59.5 23Z" fill="#279B61"/>
</svg>
