<svg width="1861" height="1080" viewBox="0 0 1861 1080" fill="none" xmlns="http://www.w3.org/2000/svg">
<ellipse cx="327.577" cy="1049.27" rx="78.229" ry="76.5" transform="rotate(-61.4646 327.577 1049.27)" fill="#5CD398"/>
<path fill-rule="evenodd" clip-rule="evenodd" d="M389.638 1001.39C392.626 1017.66 390.278 1035 381.771 1050.65C361.992 1087.02 316.406 1100.44 279.951 1080.62C267.427 1073.81 257.609 1063.96 250.92 1052.49C251.675 1079.01 265.838 1104.21 290.43 1117.59C327.547 1137.77 374.368 1123.36 395.007 1085.41C410.131 1057.59 406.999 1024.85 389.638 1001.39Z" fill="#279B61"/>
<path d="M359.02 1083.33C361.493 1078.78 359.919 1073.06 355.377 1070.59C350.834 1068.12 345.177 1069.91 342.704 1074.46C340.231 1079 341.805 1084.73 346.348 1087.19C350.89 1089.66 356.547 1087.88 359.02 1083.33Z" fill="#279B61" stroke="#7AD6FF" stroke-width="4"/>
<path d="M281.909 1079.3C283.338 1076.67 282.44 1073.33 279.776 1071.88C277.112 1070.44 273.823 1071.5 272.395 1074.12C270.966 1076.75 271.864 1080.09 274.528 1081.53C277.193 1082.98 280.481 1081.92 281.909 1079.3Z" fill="#279B61" stroke="#7AD6FF" stroke-width="4"/>
<path d="M277.442 1016.97C278.87 1014.35 277.972 1011.01 275.308 1009.56C272.644 1008.11 269.356 1009.17 267.927 1011.8C266.498 1014.43 267.396 1017.76 270.061 1019.21C272.725 1020.66 276.013 1019.6 277.442 1016.97Z" fill="#279B61" stroke="#279B61" stroke-width="4"/>
<path d="M366.67 1013.02C371.539 1004.06 368.414 992.873 359.564 988.061C350.714 983.248 339.622 986.709 334.753 995.663C329.885 1004.62 333.009 1015.81 341.86 1020.62C350.71 1025.43 361.802 1021.97 366.67 1013.02Z" fill="#279B61" stroke="#7AD6FF" stroke-width="4"/>
<path d="M366.67 1013.02C371.539 1004.06 368.414 992.873 359.564 988.061C350.714 983.248 339.622 986.709 334.753 995.663C329.885 1004.62 333.009 1015.81 341.86 1020.62C350.71 1025.43 361.802 1021.97 366.67 1013.02Z" fill="#279B61" stroke="#279B61" stroke-width="4"/>
<path d="M342.404 1050.97C345.246 1045.75 343.433 1039.18 338.228 1036.35C333.023 1033.52 326.53 1035.57 323.689 1040.79C320.847 1046.02 322.66 1052.58 327.865 1055.41C333.07 1058.24 339.563 1056.2 342.404 1050.97Z" fill="#279B61" stroke="#279B61" stroke-width="4"/>
<path d="M282.029 1055.25C284.133 1051.37 282.798 1046.5 278.918 1044.39C275.039 1042.28 270.218 1043.81 268.114 1047.68C266.009 1051.55 267.345 1056.43 271.224 1058.54C275.104 1060.65 279.924 1059.12 282.029 1055.25Z" fill="#279B61" stroke="#279B61" stroke-width="4"/>
<path d="M306.523 1061.67C307.768 1059.38 306.989 1056.47 304.656 1055.2C302.323 1053.93 299.453 1054.86 298.208 1057.15C296.964 1059.44 297.743 1062.36 300.076 1063.62C302.409 1064.89 305.279 1063.96 306.523 1061.67Z" fill="#279B61" stroke="#7AD6FF" stroke-width="4"/>
<ellipse cx="1464.58" cy="229.27" rx="78.229" ry="76.5" transform="rotate(-61.4646 1464.58 229.27)" fill="#5CD398"/>
<path fill-rule="evenodd" clip-rule="evenodd" d="M1526.64 181.395C1529.63 197.659 1527.28 215.002 1518.77 230.646C1498.99 267.021 1453.41 280.439 1416.95 260.617C1404.43 253.807 1394.61 243.959 1387.92 232.489C1388.67 259.014 1402.84 284.215 1427.43 297.587C1464.55 317.77 1511.37 303.361 1532.01 265.405C1547.13 237.59 1544 204.848 1526.64 181.395Z" fill="#279B61"/>
<path d="M1496.02 263.328C1498.49 258.78 1496.92 253.06 1492.38 250.59C1487.83 248.12 1482.18 249.909 1479.7 254.457C1477.23 259.005 1478.81 264.725 1483.35 267.195C1487.89 269.665 1493.55 267.876 1496.02 263.328Z" fill="#279B61" stroke="#279B61" stroke-width="4"/>
<path d="M1418.91 259.297C1420.34 256.669 1419.44 253.333 1416.78 251.885C1414.11 250.436 1410.82 251.495 1409.39 254.123C1407.97 256.751 1408.86 260.086 1411.53 261.535C1414.19 262.984 1417.48 261.924 1418.91 259.297Z" fill="#279B61" stroke="#279B61" stroke-width="4"/>
<path d="M1414.44 196.973C1415.87 194.345 1414.97 191.01 1412.31 189.561C1409.64 188.112 1406.36 189.172 1404.93 191.799C1403.5 194.427 1404.4 197.763 1407.06 199.211C1409.72 200.66 1413.01 199.601 1414.44 196.973Z" fill="#279B61" stroke="#5CD398" stroke-width="4"/>
<path d="M1455.52 208.177C1458.05 203.516 1456.44 197.656 1451.78 195.126C1447.13 192.596 1441.34 194.427 1438.8 199.088C1436.27 203.749 1437.88 209.61 1442.53 212.14C1447.19 214.67 1452.98 212.838 1455.52 208.177Z" fill="#279B61" stroke="#5CD398" stroke-width="4"/>
<path d="M1503.67 193.018C1508.54 184.065 1505.41 172.874 1496.56 168.061C1487.71 163.249 1476.62 166.71 1471.75 175.663C1466.88 184.617 1470.01 195.808 1478.86 200.62C1487.71 205.433 1498.8 201.972 1503.67 193.018Z" fill="#279B61" stroke="#5CD398" stroke-width="4"/>
<path d="M1503.67 193.018C1508.54 184.064 1505.41 172.873 1496.56 168.061C1487.71 163.248 1476.62 166.709 1471.75 175.663C1466.88 184.616 1470.01 195.807 1478.86 200.62C1487.71 205.432 1498.8 201.972 1503.67 193.018Z" fill="#279B61" stroke="#5CD398" stroke-width="4"/>
<path d="M1479.4 230.972C1482.25 225.746 1480.43 219.184 1475.23 216.354C1470.02 213.523 1463.53 215.569 1460.69 220.795C1457.85 226.021 1459.66 232.583 1464.86 235.413C1470.07 238.243 1476.56 236.198 1479.4 230.972Z" fill="#279B61" stroke="#5CD398" stroke-width="4"/>
<path d="M1419.03 235.245C1421.13 231.375 1419.8 226.496 1415.92 224.387C1412.04 222.277 1407.22 223.808 1405.11 227.679C1403.01 231.549 1404.34 236.428 1408.22 238.537C1412.1 240.646 1416.92 239.115 1419.03 235.245Z" fill="#279B61" stroke="#5CD398" stroke-width="4"/>
<path d="M1443.52 241.673C1444.77 239.384 1443.99 236.47 1441.66 235.201C1439.32 233.933 1436.45 234.863 1435.21 237.152C1433.96 239.441 1434.74 242.356 1437.08 243.624C1439.41 244.893 1442.28 243.962 1443.52 241.673Z" fill="#279B61" stroke="#5CD398" stroke-width="4"/>
<path d="M318.517 1028.18C321.051 1023.52 319.437 1017.66 314.785 1015.13C310.132 1012.6 304.336 1014.43 301.801 1019.09C299.267 1023.75 300.881 1029.61 305.533 1032.14C310.186 1034.67 315.982 1032.84 318.517 1028.18Z" fill="#279B61" stroke="#279B61" stroke-width="4"/>
<ellipse cx="1771.36" cy="30.0718" rx="78.229" ry="76.5" transform="rotate(118.159 1771.36 30.0718)" fill="#5CD398"/>
<path fill-rule="evenodd" clip-rule="evenodd" d="M1709.62 78.3538C1706.52 62.1101 1708.76 44.7519 1717.16 29.0517C1736.7 -7.45222 1782.2 -21.1698 1818.78 -1.58737C1831.35 5.14053 1841.23 14.9238 1848 26.3493C1847.07 -0.169925 1832.74 -25.2775 1808.06 -38.4876C1770.81 -58.426 1724.09 -43.7105 1703.7 -5.61941C1688.76 22.2944 1692.1 55.0151 1709.62 78.3538Z" fill="#279B61"/>
<path d="M1739.7 -3.77915C1737.25 0.785047 1738.87 6.49486 1743.42 8.93481C1747.98 11.3748 1753.63 9.54926 1756.07 4.98506C1758.51 0.420867 1756.9 -5.28895 1752.34 -7.7289C1747.79 -10.1688 1742.14 -8.34335 1739.7 -3.77915Z" fill="#279B61" stroke="#279B61" stroke-width="4"/>
<path d="M1816.83 -0.254213C1815.42 2.38276 1816.34 5.71246 1819.02 7.14361C1821.69 8.57477 1824.97 7.49381 1826.38 4.85684C1827.79 2.21987 1826.87 -1.10983 1824.2 -2.54099C1821.53 -3.97214 1818.24 -2.89118 1816.83 -0.254213Z" fill="#279B61" stroke="#279B61" stroke-width="4"/>
<path d="M1821.71 62.0383C1820.3 64.6752 1821.22 68.0049 1823.89 69.4361C1826.57 70.8672 1829.85 69.7863 1831.26 67.1493C1832.67 64.5123 1831.75 61.1826 1829.08 59.7515C1826.4 58.3203 1823.12 59.4013 1821.71 62.0383Z" fill="#279B61" stroke="#5CD398" stroke-width="4"/>
<path d="M1780.56 51.1043C1778.06 55.7819 1779.71 61.6317 1784.38 64.131C1789.05 66.6303 1794.83 64.761 1797.34 60.0834C1799.84 55.4058 1798.19 49.556 1793.52 47.0567C1788.85 44.5574 1783.07 46.4267 1780.56 51.1043Z" fill="#279B61" stroke="#5CD398" stroke-width="4"/>
<path d="M1732.51 66.5799C1727.7 75.5654 1730.9 86.7354 1739.78 91.4897C1748.66 96.2439 1759.73 92.7104 1764.54 83.7249C1769.35 74.7394 1766.15 63.5693 1757.27 58.8151C1748.39 54.0609 1737.32 57.5944 1732.51 66.5799Z" fill="#279B61" stroke="#5CD398" stroke-width="4"/>
<path d="M1732.51 66.5799C1727.7 75.5654 1730.9 86.7354 1739.78 91.4897C1748.66 96.2439 1759.73 92.7104 1764.54 83.7249C1769.35 74.7394 1766.15 63.5693 1757.27 58.8151C1748.39 54.0609 1737.32 57.5944 1732.51 66.5799Z" fill="#279B61" stroke="#5CD398" stroke-width="4"/>
<path d="M1756.53 28.4673C1753.72 33.7117 1755.57 40.2616 1760.8 43.0575C1766.02 45.8535 1772.5 43.7653 1775.31 38.5209C1778.11 33.2765 1776.26 26.7266 1771.04 23.9306C1765.81 21.1346 1759.33 23.2229 1756.53 28.4673Z" fill="#279B61" stroke="#5CD398" stroke-width="4"/>
<path d="M1816.87 23.7976C1814.79 27.6816 1816.16 32.5514 1820.05 34.6353C1823.95 36.7192 1828.76 35.1565 1830.84 31.2725C1832.91 27.3885 1831.55 22.5187 1827.65 20.4348C1823.76 18.3509 1818.95 19.9136 1816.87 23.7976Z" fill="#279B61" stroke="#5CD398" stroke-width="4"/>
<path d="M1792.34 17.5305C1791.11 19.8274 1791.9 22.7371 1794.25 23.9902C1796.59 25.2433 1799.45 24.2938 1800.68 21.9969C1801.91 19.7 1801.11 16.7903 1798.77 15.5372C1796.43 14.2841 1793.56 15.2336 1792.34 17.5305Z" fill="#279B61" stroke="#5CD398" stroke-width="4"/>
<ellipse cx="539.229" cy="100.5" rx="78.229" ry="76.5" fill="#5CD398"/>
<path fill-rule="evenodd" clip-rule="evenodd" d="M610.935 132.152C598.074 142.545 581.716 148.768 563.909 148.768C522.504 148.768 488.939 115.129 488.939 73.634C488.939 59.3776 492.901 46.0485 499.782 34.6924C476.84 48.0271 461.466 72.5079 461.466 100.5C461.466 142.75 496.49 177 539.695 177C571.356 177 598.624 158.607 610.935 132.152Z" fill="#279B61"/>
<path d="M524.328 144.393C529.505 144.393 533.779 140.277 533.779 135.107C533.779 129.937 529.505 125.821 524.328 125.821C519.151 125.821 514.878 129.937 514.878 135.107C514.878 140.277 519.151 144.393 524.328 144.393Z" fill="#279B61" stroke="#279B61" stroke-width="4"/>
<path d="M491.034 74.7234C494.025 74.7234 496.527 72.3409 496.527 69.3082C496.527 66.2756 494.025 63.8931 491.034 63.8931C488.043 63.8931 485.542 66.2756 485.542 69.3082C485.542 72.3409 488.043 74.7234 491.034 74.7234Z" fill="#279B61" stroke="#279B61" stroke-width="4"/>
<path d="M543.653 41.0266C546.643 41.0266 549.145 38.6441 549.145 35.6115C549.145 32.5788 546.643 30.1963 543.653 30.1963C540.662 30.1963 538.16 32.5788 538.16 35.6115C538.16 38.6441 540.662 41.0266 543.653 41.0266Z" fill="#279B61" stroke="#279B61" stroke-width="4"/>
<path d="M553.431 82.4643C558.737 82.4643 563.114 78.2469 563.114 72.9509C563.114 67.6549 558.737 63.4375 553.431 63.4375C548.126 63.4375 543.748 67.6549 543.748 72.9509C543.748 78.2469 548.126 82.4643 553.431 82.4643Z" fill="#279B61" stroke="#279B61" stroke-width="4"/>
<path d="M589.752 117.527C599.943 117.527 608.282 109.436 608.282 99.3615C608.282 89.2872 599.943 81.1963 589.752 81.1963C579.56 81.1963 571.221 89.2872 571.221 99.3615C571.221 109.436 579.56 117.527 589.752 117.527Z" fill="#279B61" stroke="#7AD6FF" stroke-width="4"/>
<path d="M589.752 117.527C599.944 117.527 608.283 109.436 608.283 99.3615C608.283 89.2872 599.944 81.1963 589.752 81.1963C579.56 81.1963 571.222 89.2872 571.222 99.3615C571.222 109.436 579.56 117.527 589.752 117.527Z" fill="#279B61" stroke="#279B61" stroke-width="4"/>
<path d="M544.817 114.339C550.765 114.339 555.664 109.612 555.664 103.687C555.664 97.7627 550.765 93.0356 544.817 93.0356C538.869 93.0356 533.97 97.7627 533.97 103.687C533.97 109.612 538.869 114.339 544.817 114.339Z" fill="#279B61" stroke="#279B61" stroke-width="4"/>
<path d="M512.221 63.3393C516.627 63.3393 520.275 59.8354 520.275 55.4196C520.275 51.0038 516.627 47.5 512.221 47.5C507.816 47.5 504.168 51.0038 504.168 55.4196C504.168 59.8354 507.816 63.3393 512.221 63.3393Z" fill="#279B61" stroke="#279B61" stroke-width="4"/>
<path d="M518.275 87.9286C520.88 87.9286 523.069 85.8519 523.069 83.1965C523.069 80.5411 520.88 78.4644 518.275 78.4644C515.67 78.4644 513.481 80.5411 513.481 83.1965C513.481 85.8519 515.67 87.9286 518.275 87.9286Z" fill="#279B61" stroke="#279B61" stroke-width="4"/>
<ellipse cx="105.089" cy="490.382" rx="78.229" ry="76.5" transform="rotate(-28.1912 105.089 490.382)" fill="#5CD398"/>
<path fill-rule="evenodd" clip-rule="evenodd" d="M183.241 484.404C176.816 499.64 165.339 512.852 149.643 521.265C113.15 540.825 67.6754 527.034 48.0724 490.461C41.3374 477.895 38.5325 464.276 39.2321 451.016C25.3115 473.607 23.3261 502.447 36.5501 527.119C56.5095 564.356 103.559 577.998 141.639 557.587C169.544 542.63 184.889 513.537 183.241 484.404Z" fill="#279B61"/>
<path d="M112.692 536.107C117.254 533.661 119.077 528.015 116.634 523.458C114.192 518.901 108.481 517.293 103.918 519.739C99.3553 522.184 97.533 527.83 99.9755 532.387C102.418 536.944 108.129 538.553 112.692 536.107Z" fill="#279B61" stroke="#279B61" stroke-width="4"/>
<path d="M50.4343 490.431C53.0704 489.018 54.1495 485.736 52.7169 483.063C51.2842 480.39 47.954 479.472 45.3178 480.885C42.6817 482.298 41.6025 485.58 43.0352 488.253C44.4679 490.926 47.7981 491.844 50.4343 490.431Z" fill="#279B61" stroke="#279B61" stroke-width="4"/>
<path d="M80.8918 435.874C83.528 434.461 84.6071 431.179 83.1744 428.506C81.7417 425.833 78.4115 424.915 75.7753 426.328C73.1392 427.741 72.0601 431.023 73.4927 433.696C74.9254 436.368 78.2556 437.287 80.8918 435.874Z" fill="#279B61" stroke="#5CD398" stroke-width="4"/>
<path d="M109.086 467.776C113.762 465.27 115.628 459.485 113.126 454.817C110.624 450.149 104.774 448.5 100.097 451.007C95.4213 453.513 93.5553 459.298 96.0572 463.966C98.5591 468.634 104.41 470.283 109.086 467.776Z" fill="#279B61" stroke="#5CD398" stroke-width="4"/>
<path d="M157.662 481.521C166.645 476.706 170.172 465.636 165.413 456.756C160.654 447.877 149.482 444.685 140.499 449.5C131.517 454.315 127.989 465.385 132.748 474.265C137.508 483.144 148.68 486.336 157.662 481.521Z" fill="#279B61" stroke="#5CD398" stroke-width="4"/>
<path d="M157.662 481.521C166.645 476.706 170.172 465.636 165.413 456.756C160.654 447.877 149.482 444.685 140.499 449.5C131.517 454.315 127.989 465.385 132.748 474.265C137.508 483.144 148.68 486.336 157.662 481.521Z" fill="#279B61" stroke="#5CD398" stroke-width="4"/>
<path d="M116.552 499.94C121.795 497.129 123.879 490.649 121.08 485.427C118.281 480.205 111.731 478.353 106.488 481.163C101.245 483.973 99.1603 490.454 101.959 495.676C104.758 500.898 111.309 502.75 116.552 499.94Z" fill="#279B61" stroke="#5CD398" stroke-width="4"/>
<path d="M63.7297 470.388C67.6125 468.307 69.1725 463.495 67.0864 459.603C65.0003 455.711 60.1298 454.347 56.247 456.428C52.3641 458.509 50.8041 463.321 52.8902 467.213C54.9763 471.105 59.8469 472.469 63.7297 470.388Z" fill="#279B61" stroke="#5CD398" stroke-width="4"/>
<path d="M80.6816 489.201C82.9778 487.97 83.9257 485.106 82.6713 482.765C81.4168 480.425 78.5067 479.629 76.2105 480.859C73.9143 482.09 72.9664 484.954 74.2208 487.295C75.4753 489.635 78.3854 490.432 80.6816 489.201Z" fill="#279B61" stroke="#5CD398" stroke-width="4"/>
<ellipse cx="709.74" cy="384.025" rx="50.4301" ry="49.0157" transform="rotate(-28.1912 709.74 384.025)" fill="#5CD398"/>
<path fill-rule="evenodd" clip-rule="evenodd" d="M760.062 380.062C755.901 389.848 748.49 398.344 738.372 403.767C714.847 416.376 685.594 407.602 673.034 384.169C668.719 376.118 666.936 367.384 667.407 358.876C658.409 373.393 657.084 391.9 665.557 407.708C678.345 431.567 708.612 440.243 733.16 427.085C751.15 417.443 761.075 398.751 760.062 380.062Z" fill="#279B61"/>
<path d="M714.899 413.984C718.163 412.234 719.51 408.186 717.745 404.893C715.98 401.6 711.863 400.48 708.599 402.23C705.335 403.979 703.988 408.028 705.753 411.32C707.518 414.613 711.635 415.733 714.899 413.984Z" fill="#279B61" stroke="#279B61" stroke-width="4"/>
<path d="M674.894 384.78C676.916 383.696 677.78 381.165 676.663 379.08C675.545 376.994 672.959 376.313 670.937 377.397C668.915 378.481 668.051 381.011 669.168 383.097C670.286 385.182 672.872 385.863 674.894 384.78Z" fill="#279B61" stroke="#279B61" stroke-width="4"/>
<path d="M694.591 349.725C696.613 348.642 697.477 346.111 696.359 344.026C695.241 341.94 692.656 341.259 690.634 342.343C688.612 343.426 687.747 345.957 688.865 348.042C689.983 350.128 692.569 350.809 694.591 349.725Z" fill="#279B61" stroke="#5CD398" stroke-width="4"/>
<path d="M712.69 370.149C716.027 368.36 717.402 364.222 715.599 360.858C713.796 357.494 709.589 356.349 706.252 358.137C702.915 359.926 701.54 364.064 703.343 367.428C705.146 370.791 709.353 371.937 712.69 370.149Z" fill="#279B61" stroke="#5CD398" stroke-width="4"/>
<path d="M743.939 378.888C750.052 375.611 752.506 368.079 749.256 362.017C746.007 355.955 738.376 353.828 732.263 357.104C726.15 360.381 723.697 367.913 726.946 373.975C730.196 380.037 737.826 382.164 743.939 378.888Z" fill="#279B61" stroke="#5CD398" stroke-width="4"/>
<path d="M743.939 378.888C750.052 375.611 752.506 368.079 749.256 362.017C746.007 355.955 738.376 353.828 732.263 357.104C726.15 360.381 723.697 367.913 726.946 373.975C730.196 380.037 737.826 382.164 743.939 378.888Z" fill="#279B61" stroke="#5CD398" stroke-width="4"/>
<path d="M717.443 390.772C721.145 388.788 722.662 384.203 720.669 380.484C718.676 376.766 714.018 375.491 710.316 377.475C706.614 379.459 705.097 384.044 707.09 387.763C709.083 391.482 713.741 392.757 717.443 390.772Z" fill="#279B61" stroke="#5CD398" stroke-width="4"/>
<path d="M683.486 371.898C686.311 370.384 687.488 366.871 685.951 364.004C684.415 361.137 680.838 360.172 678.013 361.687C675.187 363.201 674.011 366.714 675.547 369.581C677.084 372.447 680.66 373.413 683.486 371.898Z" fill="#279B61" stroke="#5CD398" stroke-width="4"/>
<path d="M694.368 383.941C696.171 382.974 696.95 380.712 695.947 378.839C694.943 376.967 692.627 376.363 690.825 377.329C689.022 378.295 688.243 380.558 689.246 382.431C690.25 384.303 692.566 384.907 694.368 383.941Z" fill="#279B61" stroke="#5CD398" stroke-width="4"/>
</svg>
