<svg width="125" height="129" viewBox="0 0 125 129" fill="none" xmlns="http://www.w3.org/2000/svg">
<ellipse cx="62.5" cy="64.5" rx="62.5" ry="64.5" fill="white"/>
<path d="M25.818 68.182C24.0607 66.4246 24.0607 63.5754 25.818 61.818L54.4558 33.1802C56.2132 31.4228 59.0624 31.4228 60.8198 33.1802C62.5772 34.9376 62.5772 37.7868 60.8198 39.5442L35.364 65L60.8198 90.4558C62.5772 92.2132 62.5772 95.0624 60.8198 96.8198C59.0624 98.5772 56.2132 98.5772 54.4558 96.8198L25.818 68.182ZM102 69.5L29 69.5L29 60.5L102 60.5L102 69.5Z" fill="#279B61"/>
<ellipse cx="62.5" cy="64.5" rx="62.5" ry="64.5" fill="white"/>
<path d="M25.818 68.182C24.0607 66.4246 24.0607 63.5754 25.818 61.818L54.4558 33.1802C56.2132 31.4228 59.0624 31.4228 60.8198 33.1802C62.5772 34.9376 62.5772 37.7868 60.8198 39.5442L35.364 65L60.8198 90.4558C62.5772 92.2132 62.5772 95.0624 60.8198 96.8198C59.0624 98.5772 56.2132 98.5772 54.4558 96.8198L25.818 68.182ZM102 69.5L29 69.5L29 60.5L102 60.5L102 69.5Z" fill="#279B61"/>
</svg>
