<svg width="1816" height="912" viewBox="0 0 1816 912" fill="none" xmlns="http://www.w3.org/2000/svg">
<ellipse cx="1217.23" cy="404.5" rx="78.229" ry="76.5" fill="#FF7E5F"/>
<path fill-rule="evenodd" clip-rule="evenodd" d="M1288.93 436.152C1276.07 446.545 1259.72 452.768 1241.91 452.768C1200.5 452.768 1166.94 419.129 1166.94 377.634C1166.94 363.378 1170.9 350.048 1177.78 338.692C1154.84 352.027 1139.47 376.508 1139.47 404.5C1139.47 446.75 1174.49 481 1217.69 481C1249.36 481 1276.62 462.607 1288.93 436.152Z" fill="#F43507"/>
<path d="M1202.33 448.393C1207.51 448.393 1211.78 444.277 1211.78 439.107C1211.78 433.937 1207.51 429.821 1202.33 429.821C1197.15 429.821 1192.88 433.937 1192.88 439.107C1192.88 444.277 1197.15 448.393 1202.33 448.393Z" fill="#F43507" stroke="#F43507" stroke-width="4"/>
<path d="M1169.03 378.723C1172.03 378.723 1174.53 376.341 1174.53 373.308C1174.53 370.276 1172.03 367.893 1169.03 367.893C1166.04 367.893 1163.54 370.276 1163.54 373.308C1163.54 376.341 1166.04 378.723 1169.03 378.723Z" fill="#F43507" stroke="#F43507" stroke-width="4"/>
<path d="M1221.65 345.027C1224.64 345.027 1227.14 342.644 1227.14 339.611C1227.14 336.579 1224.64 334.196 1221.65 334.196C1218.66 334.196 1216.16 336.579 1216.16 339.611C1216.16 342.644 1218.66 345.027 1221.65 345.027Z" fill="#F43507" stroke="#F43507" stroke-width="4"/>
<path d="M1231.43 386.464C1236.74 386.464 1241.11 382.247 1241.11 376.951C1241.11 371.655 1236.74 367.438 1231.43 367.438C1226.13 367.438 1221.75 371.655 1221.75 376.951C1221.75 382.247 1226.13 386.464 1231.43 386.464Z" fill="#F43507" stroke="#F43507" stroke-width="4"/>
<path d="M1267.75 421.527C1277.94 421.527 1286.28 413.436 1286.28 403.361C1286.28 393.287 1277.94 385.196 1267.75 385.196C1257.56 385.196 1249.22 393.287 1249.22 403.361C1249.22 413.436 1257.56 421.527 1267.75 421.527Z" fill="#F43507" stroke="#7AD6FF" stroke-width="4"/>
<path d="M1267.75 421.527C1277.94 421.527 1286.28 413.436 1286.28 403.361C1286.28 393.287 1277.94 385.196 1267.75 385.196C1257.56 385.196 1249.22 393.287 1249.22 403.361C1249.22 413.436 1257.56 421.527 1267.75 421.527Z" fill="#F43507" stroke="#F43507" stroke-width="4"/>
<path d="M1222.82 418.339C1228.77 418.339 1233.66 413.612 1233.66 407.687C1233.66 401.763 1228.77 397.036 1222.82 397.036C1216.87 397.036 1211.97 401.763 1211.97 407.687C1211.97 413.612 1216.87 418.339 1222.82 418.339Z" fill="#F43507" stroke="#F43507" stroke-width="4"/>
<path d="M1190.22 367.339C1194.63 367.339 1198.27 363.835 1198.27 359.42C1198.27 355.004 1194.63 351.5 1190.22 351.5C1185.82 351.5 1182.17 355.004 1182.17 359.42C1182.17 363.835 1185.82 367.339 1190.22 367.339Z" fill="#F43507" stroke="#F43507" stroke-width="4"/>
<path d="M1196.27 391.929C1198.88 391.929 1201.07 389.852 1201.07 387.196C1201.07 384.541 1198.88 382.464 1196.27 382.464C1193.67 382.464 1191.48 384.541 1191.48 387.196C1191.48 389.852 1193.67 391.929 1196.27 391.929Z" fill="#F43507" stroke="#F43507" stroke-width="4"/>
<ellipse cx="454.229" cy="789.5" rx="78.229" ry="76.5" transform="rotate(32.2518 454.229 789.5)" fill="#FF7E5F"/>
<path fill-rule="evenodd" clip-rule="evenodd" d="M497.981 854.533C481.558 856.46 464.403 852.993 449.343 843.49C414.327 821.395 403.892 775.035 426.035 739.942C433.643 727.885 444.107 718.727 455.986 712.795C429.468 711.829 403.402 724.329 388.464 748.002C365.918 783.733 377.261 831.389 413.799 854.445C440.576 871.341 473.452 870.337 497.981 854.533Z" fill="#F43507"/>
<path d="M418.204 818.669C422.582 821.431 428.393 820.231 431.152 815.859C433.911 811.486 432.493 805.725 428.115 802.963C423.737 800.2 417.926 801.4 415.167 805.773C412.408 810.145 413.826 815.906 418.204 818.669Z" fill="#F43507" stroke="#F43507" stroke-width="4"/>
<path d="M427.226 741.982C429.755 743.578 433.142 742.898 434.76 740.333C436.379 737.768 435.535 734.418 433.005 732.822C430.476 731.226 427.089 731.906 425.47 734.471C423.852 737.036 424.696 740.385 427.226 741.982Z" fill="#F43507" stroke="#F43507" stroke-width="4"/>
<path d="M489.708 741.563C492.237 743.159 495.624 742.479 497.242 739.914C498.861 737.35 498.017 734 495.487 732.404C492.958 730.808 489.571 731.488 487.952 734.052C486.334 736.617 487.178 739.967 489.708 741.563Z" fill="#F43507" stroke="#F43507" stroke-width="4"/>
<path d="M475.865 781.826C480.352 784.657 486.304 783.426 489.131 778.947C491.957 774.468 490.505 768.566 486.018 765.734C481.531 762.903 475.578 764.134 472.752 768.613C469.926 773.091 471.378 778.994 475.865 781.826Z" fill="#F43507" stroke="#F43507" stroke-width="4"/>
<path d="M487.871 830.86C496.49 836.299 507.86 833.906 513.236 825.386C518.612 816.867 515.878 805.574 507.258 800.135C498.639 794.697 487.269 797.089 481.893 805.609C476.517 814.129 479.252 825.422 487.871 830.86Z" fill="#F43507" stroke="#7AD6FF" stroke-width="4"/>
<path d="M487.871 830.86C496.49 836.299 507.86 833.906 513.236 825.386C518.612 816.867 515.878 805.574 507.258 800.135C498.639 794.697 487.269 797.089 481.893 805.609C476.517 814.129 479.252 825.422 487.871 830.86Z" fill="#F43507" stroke="#F43507" stroke-width="4"/>
<path d="M451.57 804.186C456.6 807.36 463.266 805.977 466.428 800.966C469.589 795.955 467.969 789.343 462.938 786.169C457.908 782.995 451.242 784.378 448.08 789.389C444.919 794.399 446.539 801.011 451.57 804.186Z" fill="#F43507" stroke="#F43507" stroke-width="4"/>
<path d="M451.219 743.66C454.945 746.011 459.9 744.994 462.256 741.26C464.613 737.525 463.397 732.615 459.672 730.265C455.946 727.914 450.991 728.93 448.634 732.665C446.278 736.399 447.493 741.309 451.219 743.66Z" fill="#F43507" stroke="#F43507" stroke-width="4"/>
<path d="M443.216 767.686C445.42 769.076 448.379 768.488 449.796 766.242C451.213 763.996 450.47 761.072 448.267 759.682C446.064 758.292 443.105 758.88 441.688 761.126C440.27 763.371 441.013 766.296 443.216 767.686Z" fill="#F43507" stroke="#F43507" stroke-width="4"/>
<ellipse cx="1043.98" cy="30.4431" rx="78.229" ry="76.5" transform="rotate(32.2518 1043.98 30.4431)" fill="#FF7E5F"/>
<path fill-rule="evenodd" clip-rule="evenodd" d="M1087.73 95.4762C1071.31 97.4033 1054.16 93.9367 1039.1 84.4336C1004.08 62.3385 993.645 15.9783 1015.79 -19.1147C1023.4 -31.1716 1033.86 -40.3299 1045.74 -46.262C1019.22 -47.2273 993.155 -34.728 978.217 -11.0547C955.671 24.6765 967.014 72.3327 1003.55 95.3884C1030.33 112.284 1063.21 111.28 1087.73 95.4762Z" fill="#F43507"/>
<path d="M1007.96 59.6121C1012.34 62.3747 1018.15 61.1747 1020.91 56.8021C1023.66 52.4296 1022.25 46.6686 1017.87 43.906C1013.49 41.1434 1007.68 42.3434 1004.92 46.7159C1002.16 51.0885 1003.58 56.8494 1007.96 59.6121Z" fill="#F43507" stroke="#F43507" stroke-width="4"/>
<path d="M1065.62 22.7689C1070.11 25.6001 1076.06 24.3695 1078.88 19.8906C1081.71 15.4117 1080.26 9.50893 1075.77 6.67769C1071.28 3.84645 1065.33 5.07703 1062.51 9.55592C1059.68 14.0348 1061.13 19.9376 1065.62 22.7689Z" fill="#F43507" stroke="#F43507" stroke-width="4"/>
<path d="M1077.62 71.8037C1086.24 77.2424 1097.61 74.8497 1102.99 66.3298C1108.37 57.8099 1105.63 46.5174 1097.01 41.0787C1088.39 35.6399 1077.02 38.0326 1071.65 46.5525C1066.27 55.0724 1069.01 66.3649 1077.62 71.8037Z" fill="#F43507" stroke="#7AD6FF" stroke-width="4"/>
<path d="M1077.62 71.8037C1086.24 77.2424 1097.61 74.8497 1102.99 66.3298C1108.37 57.8099 1105.63 46.5174 1097.01 41.0787C1088.39 35.6399 1077.02 38.0326 1071.65 46.5525C1066.27 55.0724 1069.01 66.3649 1077.62 71.8037Z" fill="#F43507" stroke="#F43507" stroke-width="4"/>
<path d="M1041.32 45.1291C1046.35 48.3034 1053.02 46.9199 1056.18 41.9093C1059.34 36.8987 1057.72 30.2867 1052.69 27.1124C1047.66 23.9381 1041 25.3215 1037.83 30.3322C1034.67 35.3428 1036.29 41.9547 1041.32 45.1291Z" fill="#F43507" stroke="#F43507" stroke-width="4"/>
<path d="M1032.97 8.62925C1035.17 10.0195 1038.13 9.43114 1039.55 7.18544C1040.97 4.93974 1040.22 2.01545 1038.02 0.625196C1035.82 -0.765055 1032.86 -0.17669 1031.44 2.06901C1030.02 4.3147 1030.77 7.239 1032.97 8.62925Z" fill="#F43507" stroke="#F43507" stroke-width="4"/>
<ellipse cx="40.4731" cy="822.443" rx="60.9736" ry="67.2867" transform="rotate(32.2518 40.4731 822.443)" fill="#FF7E5F"/>
<path fill-rule="evenodd" clip-rule="evenodd" d="M72.8829 875.812C59.5268 878.194 45.8237 876.019 34.0853 868.612C6.79272 851.391 0.45675 812.408 19.9335 781.541C26.625 770.936 35.4929 762.669 45.3587 757.084C23.9774 757.461 2.35254 769.276 -10.7862 790.099C-30.617 821.526 -23.6062 861.571 4.87296 879.542C25.743 892.711 52.3504 890.37 72.8829 875.812Z" fill="#F43507"/>
<path d="M9.92038 849.099C13.7198 851.496 18.6331 849.921 21.0098 846.154C23.3866 842.388 22.6937 837.275 18.8944 834.877C15.095 832.48 10.1816 834.055 7.80489 837.822C5.42816 841.589 6.12099 846.702 9.92038 849.099Z" fill="#F43507" stroke="#F43507" stroke-width="4"/>
<path d="M20.6748 783.427C23.0333 784.915 25.9652 783.892 27.3385 781.715C28.7119 779.538 28.3738 776.452 26.0153 774.963C23.6569 773.475 20.725 774.499 19.3516 776.675C17.9782 778.852 18.3163 781.939 20.6748 783.427Z" fill="#F43507" stroke="#F43507" stroke-width="4"/>
<path d="M71.1758 780.247C73.5342 781.735 76.4661 780.711 77.8395 778.535C79.2129 776.358 78.8748 773.271 76.5163 771.783C74.1578 770.295 71.2259 771.319 69.8526 773.495C68.4792 775.672 68.8173 778.759 71.1758 780.247Z" fill="#F43507" stroke="#F43507" stroke-width="4"/>
<path d="M58.1716 815.138C62.0558 817.589 67.0857 815.98 69.5214 812.12C71.9572 808.26 71.2435 803.028 67.3593 800.577C63.4752 798.126 58.4453 799.734 56.0095 803.594C53.5738 807.455 54.2875 812.687 58.1716 815.138Z" fill="#F43507" stroke="#F43507" stroke-width="4"/>
<path d="M65.6561 856.326C72.7611 860.809 82.2202 857.968 86.8987 850.553C91.5772 843.139 90.0706 833.377 82.9656 828.894C75.8606 824.411 66.4016 827.253 61.7231 834.667C57.0445 842.082 58.5511 851.843 65.6561 856.326Z" fill="#F43507" stroke="#7AD6FF" stroke-width="4"/>
<path d="M65.6561 856.326C72.7611 860.809 82.2202 857.968 86.8987 850.553C91.5772 843.139 90.0706 833.377 82.9656 828.894C75.8606 824.411 66.4016 827.253 61.7231 834.667C57.0445 842.082 58.5511 851.843 65.6561 856.326Z" fill="#F43507" stroke="#F43507" stroke-width="4"/>
<path d="M37.532 835.266C41.8399 837.984 47.4526 836.214 50.1834 831.886C52.9143 827.558 52.0963 821.73 47.7883 819.011C43.4804 816.293 37.8677 818.064 35.1368 822.391C32.406 826.719 33.224 832.547 37.532 835.266Z" fill="#F43507" stroke="#F43507" stroke-width="4"/>
<path d="M39.9841 783.771C43.2749 785.847 47.4889 784.467 49.5115 781.261C51.5341 778.056 50.9665 773.658 47.6757 771.581C44.3849 769.505 40.1708 770.886 38.1482 774.091C36.1256 777.296 36.6933 781.694 39.9841 783.771Z" fill="#F43507" stroke="#F43507" stroke-width="4"/>
<path d="M32.4327 804.58C34.5369 805.908 37.1192 804.981 38.3155 803.085C39.5118 801.189 39.2363 798.46 37.1321 797.132C35.0279 795.805 32.4457 796.731 31.2493 798.627C30.053 800.523 30.3285 803.252 32.4327 804.58Z" fill="#F43507" stroke="#F43507" stroke-width="4"/>
<ellipse cx="1735.52" cy="565.443" rx="57.7515" ry="57.4955" transform="rotate(32.2518 1735.52 565.443)" fill="#FF7E5F"/>
<path fill-rule="evenodd" clip-rule="evenodd" d="M1767.6 613.81C1755.4 615.35 1742.69 612.861 1731.57 605.845C1705.72 589.534 1698.26 554.93 1714.9 528.555C1720.62 519.493 1728.44 512.582 1737.29 508.074C1717.62 507.512 1698.2 517.016 1686.97 534.808C1670.03 561.662 1678.16 597.23 1705.13 614.251C1724.9 626.724 1749.3 625.775 1767.6 613.81Z" fill="#F43507"/>
<path d="M1708.35 587.892C1711.85 590.098 1716.48 589.071 1718.68 585.572C1720.89 582.073 1719.83 577.454 1716.33 575.248C1712.83 573.042 1708.2 574.069 1706 577.568C1703.79 581.066 1704.85 585.686 1708.35 587.892Z" fill="#F43507" stroke="#F43507" stroke-width="4"/>
<path d="M1715.51 530.493C1717.64 531.838 1720.46 531.214 1721.82 529.074C1723.17 526.934 1722.51 524.113 1720.38 522.768C1718.25 521.424 1715.42 522.047 1714.07 524.187C1712.72 526.328 1713.38 529.148 1715.51 530.493Z" fill="#F43507" stroke="#F43507" stroke-width="4"/>
<path d="M1761.87 529.804C1764 531.149 1766.83 530.525 1768.18 528.385C1769.53 526.245 1768.88 523.424 1766.75 522.079C1764.62 520.735 1761.79 521.358 1760.44 523.498C1759.09 525.639 1759.74 528.459 1761.87 529.804Z" fill="#F43507" stroke="#F43507" stroke-width="4"/>
<path d="M1751.36 559.995C1754.93 562.251 1759.67 561.2 1761.93 557.622C1764.19 554.043 1763.1 549.317 1759.52 547.06C1755.94 544.804 1751.21 545.855 1748.95 549.433C1746.69 553.012 1747.78 557.738 1751.36 559.995Z" fill="#F43507" stroke="#F43507" stroke-width="4"/>
<path d="M1759.97 596.589C1766.6 600.771 1775.36 598.818 1779.53 592.203C1783.71 585.587 1781.7 576.838 1775.07 572.657C1768.45 568.475 1759.69 570.428 1755.51 577.043C1751.34 583.659 1753.35 592.408 1759.97 596.589Z" fill="#F43507" stroke="#7AD6FF" stroke-width="4"/>
<path d="M1759.97 596.589C1766.6 600.771 1775.36 598.818 1779.53 592.203C1783.71 585.587 1781.7 576.838 1775.07 572.657C1768.45 568.475 1759.69 570.428 1755.51 577.043C1751.34 583.659 1753.35 592.408 1759.97 596.589Z" fill="#F43507" stroke="#F43507" stroke-width="4"/>
<path d="M1733.2 576.861C1737.17 579.371 1742.44 578.202 1744.95 574.223C1747.46 570.245 1746.25 564.99 1742.27 562.48C1738.29 559.97 1733.03 561.14 1730.52 565.118C1728.01 569.096 1729.22 574.351 1733.2 576.861Z" fill="#F43507" stroke="#F43507" stroke-width="4"/>
<path d="M1733.3 531.603C1736.31 533.505 1740.31 532.621 1742.21 529.601C1744.12 526.582 1743.2 522.597 1740.18 520.695C1737.17 518.793 1733.18 519.678 1731.27 522.697C1729.37 525.717 1730.29 529.701 1733.3 531.603Z" fill="#F43507" stroke="#F43507" stroke-width="4"/>
<path d="M1727.22 549.618C1729.11 550.811 1731.62 550.258 1732.82 548.358C1734.02 546.457 1733.43 543.955 1731.54 542.762C1729.65 541.569 1727.14 542.122 1725.94 544.022C1724.75 545.922 1725.33 548.425 1727.22 549.618Z" fill="#F43507" stroke="#F43507" stroke-width="4"/>
</svg>
