<svg width="125" height="129" viewBox="0 0 125 129" fill="none" xmlns="http://www.w3.org/2000/svg">
<ellipse cx="62.5" cy="64.5" rx="62.5" ry="64.5" transform="matrix(-1 0 0 1 125 0)" fill="white"/>
<path d="M99.182 68.182C100.939 66.4246 100.939 63.5754 99.182 61.818L70.5442 33.1802C68.7868 31.4228 65.9376 31.4228 64.1802 33.1802C62.4228 34.9376 62.4228 37.7868 64.1802 39.5442L89.636 65L64.1802 90.4558C62.4228 92.2132 62.4228 95.0624 64.1802 96.8198C65.9376 98.5772 68.7868 98.5772 70.5442 96.8198L99.182 68.182ZM23 69.5L96 69.5L96 60.5L23 60.5L23 69.5Z" fill="#279B61"/>
<path d="M99.182 68.182C100.939 66.4246 100.939 63.5754 99.182 61.818L70.5442 33.1802C68.7868 31.4228 65.9376 31.4228 64.1802 33.1802C62.4228 34.9376 62.4228 37.7868 64.1802 39.5442L89.636 65L64.1802 90.4558C62.4228 92.2132 62.4228 95.0624 64.1802 96.8198C65.9376 98.5772 68.7868 98.5772 70.5442 96.8198L99.182 68.182ZM23 69.5L96 69.5L96 60.5L23 60.5L23 69.5Z" fill="#279B61"/>
</svg>
