<svg width="236" height="287" viewBox="0 0 236 287" fill="none" xmlns="http://www.w3.org/2000/svg">
<path d="M125.777 83.2648C110.803 69.258 92.0191 70.3379 84.499 72.6287L102.609 92.2981L125.777 83.2648Z" fill="#ED1536"/>
<path d="M62.7033 152.202C46.2484 136.537 46.9195 118.901 49.312 112.041L69.7226 128.063L62.7033 152.202Z" fill="#ED1536"/>
<path d="M72.2446 129.398C50.6662 118.766 31.5218 91.6472 24.6469 79.4167C23.4353 75.8952 37.0803 50.4486 51.1288 49.9431C73.5872 56.6217 98.9076 88.1531 104.46 94.3704C108.902 99.3443 107.298 102.825 105.94 103.943C99.4505 110.95 85.7327 125.775 82.7811 129.019C79.0915 133.073 76.5856 132.094 72.2446 129.398Z" fill="#E6E6E6"/>
<path d="M71.918 129.41C50.3395 118.778 31.1951 91.6589 24.3203 79.4284C23.1086 75.9069 36.7536 50.4603 50.8022 49.9548C73.2605 56.6335 98.5809 88.1648 104.134 94.3822C108.576 99.3561 106.971 102.836 105.614 103.955C99.1239 110.962 85.4061 125.787 82.4544 129.031C78.7649 133.085 76.259 132.106 71.918 129.41Z" fill="#E6E6E6"/>
<path d="M103.378 94.4092C59.5782 109.39 34.689 84.4029 27.7193 70.0368C26.3777 71.5111 24.8586 76.9134 24.2668 79.4303C35.4948 102.556 58.7941 120.256 69.327 127.72C77.7532 133.692 82.0116 130.829 83.0875 128.651L103.883 105.799C108.713 100.492 105.559 95.9945 103.378 94.4092Z" fill="#D9D9D9"/>
<path d="M141.644 155.422C145.581 168.827 121.506 161.373 106.444 154.906C89.5892 147.669 88.8028 122.029 110.404 117.33C132.006 112.631 137.086 139.899 141.644 155.422Z" fill="#F8B729"/>
<path d="M131.255 146.72C134.204 156.498 116.093 151.079 104.765 146.373C92.0879 141.107 91.5223 122.401 107.784 118.955C124.045 115.509 127.84 135.399 131.255 146.72Z" fill="#F5991A"/>
<ellipse cx="14.4091" cy="14.608" rx="14.4091" ry="14.608" transform="matrix(0.999353 -0.0359579 0.0443464 0.999016 41.3506 67.4072)" fill="#D9D9D9"/>
<ellipse cx="10.5433" cy="10.6887" rx="10.5433" ry="10.6887" transform="matrix(0.999353 -0.0359579 0.0443464 0.999016 45.7231 70.8149)" fill="#D9D9D9"/>
<path d="M50.0751 49.9813C32.6899 57.737 25.837 71.8874 24.2482 78.3618C22.3657 75.5774 18.2848 62.8899 18.4658 51.1186C18.6106 41.7015 39.3491 46.0891 50.0751 49.9813Z" fill="#ED1536"/>
<rect width="10.9695" height="98.3042" rx="5.48476" transform="matrix(0.669235 -0.743051 0.733752 0.679418 143.097 137.117)" fill="url(#paint0_linear_521_307)"/>
<rect width="10.9695" height="98.3042" rx="5.48476" transform="matrix(0.669235 -0.743051 0.733752 0.679418 103.913 177.144)" fill="url(#paint1_linear_521_307)"/>
<rect width="10.9695" height="98.3042" rx="5.48476" transform="matrix(0.669235 -0.743051 0.733752 0.679418 144.559 173.542)" fill="url(#paint2_linear_521_307)"/>
<path d="M80.1726 121.755L78.28 123.671L72.071 117.538L74.0475 115.537C74.6424 114.935 75.2758 114.542 75.9477 114.359C76.6175 114.175 77.2966 114.197 77.9851 114.425C78.6715 114.652 79.3361 115.083 79.9788 115.718C80.6255 116.357 81.0686 117.022 81.3079 117.713C81.5451 118.403 81.5715 119.092 81.3869 119.78C81.2002 120.466 80.7955 121.125 80.1726 121.755ZM78.3557 122.261L79.4577 121.145C79.9648 120.632 80.286 120.108 80.4213 119.575C80.5567 119.042 80.5233 118.512 80.3212 117.985C80.119 117.458 79.7653 116.945 79.2601 116.445C78.7588 115.95 78.2464 115.606 77.723 115.412C77.1974 115.217 76.6769 115.186 76.1615 115.319C75.644 115.451 75.1457 115.76 74.6666 116.245L73.4807 117.445L78.3557 122.261ZM85.708 116.37C85.4166 116.665 85.0965 116.878 84.7477 117.008C84.397 117.137 84.0456 117.167 83.6936 117.099C83.3396 117.029 83.0111 116.844 82.7079 116.545C82.4411 116.281 82.2767 116.015 82.2148 115.746C82.1509 115.475 82.1583 115.205 82.2369 114.936C82.3156 114.666 82.4366 114.402 82.5997 114.144C82.7628 113.882 82.937 113.628 83.1224 113.384C83.3655 113.065 83.5648 112.809 83.7203 112.615C83.8758 112.417 83.9702 112.255 84.0036 112.128C84.0389 112 83.999 111.878 83.8838 111.764L83.8595 111.74C83.5604 111.445 83.2471 111.297 82.9197 111.297C82.5942 111.295 82.2688 111.459 81.9434 111.788C81.606 112.13 81.4162 112.472 81.3741 112.813C81.3321 113.155 81.357 113.449 81.4489 113.696L80.5355 114.135C80.3724 113.735 80.3118 113.355 80.3538 112.997C80.3957 112.636 80.5042 112.304 80.6791 112.001C80.854 111.695 81.0572 111.424 81.2888 111.19C81.4366 111.04 81.6244 110.886 81.8525 110.728C82.0805 110.566 82.3389 110.448 82.6277 110.374C82.9186 110.298 83.234 110.308 83.5741 110.404C83.9142 110.501 84.2692 110.732 84.639 111.097L87.7071 114.127L87.0004 114.843L86.3698 114.22L86.3339 114.256C86.387 114.405 86.4153 114.592 86.4187 114.819C86.4221 115.046 86.3714 115.294 86.2666 115.562C86.1617 115.829 85.9756 116.099 85.708 116.37ZM85.1731 115.626C85.4526 115.343 85.6326 115.049 85.7131 114.745C85.7956 114.44 85.7979 114.15 85.7198 113.878C85.6438 113.603 85.5088 113.37 85.3148 113.178L84.6599 112.531C84.6663 112.597 84.6338 112.697 84.5623 112.83C84.4908 112.959 84.4003 113.101 84.2907 113.257C84.1812 113.408 84.0726 113.554 83.965 113.695C83.8573 113.833 83.7706 113.945 83.7049 114.032C83.5455 114.241 83.4132 114.454 83.308 114.67C83.2029 114.881 83.1549 115.09 83.1642 115.294C83.1735 115.495 83.2691 115.686 83.451 115.865C83.6996 116.111 83.9784 116.204 84.2874 116.146C84.5964 116.084 84.8916 115.911 85.1731 115.626ZM88.9971 112.822L84.3404 108.222L85.0231 107.531L85.7265 108.225L85.7744 108.177C85.6279 107.864 85.5926 107.526 85.6687 107.162C85.7448 106.798 85.9206 106.476 86.1962 106.197C86.2481 106.145 86.314 106.08 86.3938 106.003C86.4737 105.927 86.5356 105.87 86.5796 105.834L87.3072 106.552C87.2772 106.57 87.2132 106.617 87.1152 106.692C87.0172 106.763 86.9213 106.846 86.8275 106.941C86.6039 107.167 86.4517 107.416 86.3711 107.688C86.2903 107.956 86.2819 108.223 86.3459 108.49C86.4097 108.752 86.5468 108.988 86.757 109.195L89.7038 112.106L88.9971 112.822ZM92.1347 109.645L87.478 105.045L88.1847 104.33L92.8415 108.93L92.1347 109.645ZM87.0612 103.915C86.9235 104.054 86.7572 104.128 86.5624 104.135C86.3696 104.14 86.2065 104.077 86.0731 103.945C85.9397 103.813 85.8744 103.651 85.8772 103.458C85.8821 103.263 85.9533 103.096 86.0911 102.957C86.2289 102.817 86.3941 102.745 86.587 102.74C86.7818 102.732 86.9459 102.795 87.0793 102.926C87.2127 103.058 87.277 103.221 87.2721 103.416C87.2693 103.609 87.199 103.775 87.0612 103.915ZM95.5986 106.357C95.3071 106.652 94.987 106.865 94.6383 106.995C94.2875 107.124 93.9362 107.154 93.5842 107.086C93.2302 107.016 92.9016 106.831 92.5985 106.532C92.3317 106.268 92.1673 106.002 92.1054 105.733C92.0414 105.462 92.0488 105.192 92.1275 104.923C92.2062 104.653 92.3271 104.389 92.4903 104.131C92.6534 103.869 92.8276 103.615 93.0129 103.371C93.256 103.052 93.4554 102.796 93.6109 102.602C93.7663 102.404 93.8608 102.242 93.8941 102.115C93.9295 101.987 93.8896 101.865 93.7744 101.751L93.7501 101.727C93.451 101.432 93.1377 101.284 92.8103 101.284C92.4848 101.282 92.1594 101.446 91.834 101.775C91.4966 102.117 91.3068 102.459 91.2647 102.8C91.2226 103.142 91.2475 103.436 91.3395 103.683L90.4261 104.122C90.2629 103.722 90.2023 103.342 90.2443 102.984C90.2863 102.623 90.3948 102.291 90.5697 101.988C90.7446 101.682 90.9478 101.411 91.1794 101.177C91.3271 101.027 91.515 100.873 91.7431 100.715C91.9711 100.553 92.2295 100.435 92.5183 100.361C92.8091 100.285 93.1246 100.295 93.4647 100.391C93.8048 100.488 94.1597 100.719 94.5296 101.084L97.5977 104.114L96.891 104.83L96.2604 104.207L96.2244 104.243C96.2776 104.392 96.3059 104.579 96.3093 104.806C96.3127 105.033 96.262 105.281 96.1571 105.549C96.0523 105.816 95.8661 106.086 95.5986 106.357ZM95.0637 105.613C95.3432 105.33 95.5232 105.036 95.6037 104.732C95.6862 104.427 95.6884 104.137 95.6104 103.865C95.5344 103.59 95.3994 103.357 95.2053 103.165L94.5505 102.518C94.5569 102.584 94.5244 102.684 94.4529 102.817C94.3814 102.946 94.2908 103.088 94.1813 103.244C94.0717 103.395 93.9632 103.541 93.8556 103.682C93.7479 103.82 93.6612 103.932 93.5955 104.019C93.436 104.228 93.3038 104.441 93.1986 104.657C93.0935 104.868 93.0455 105.077 93.0548 105.281C93.0641 105.482 93.1597 105.673 93.3416 105.852C93.5902 106.098 93.869 106.191 94.178 106.133C94.487 106.071 94.7822 105.898 95.0637 105.613Z" fill="#8B7272" fill-opacity="0.4"/>
<defs>
<linearGradient id="paint0_linear_521_307" x1="5.48476" y1="0" x2="5.48476" y2="98.3042" gradientUnits="userSpaceOnUse">
<stop stop-color="#F8B729"/>
<stop offset="1" stop-color="#F5991A"/>
</linearGradient>
<linearGradient id="paint1_linear_521_307" x1="5.48476" y1="0" x2="5.48476" y2="98.3042" gradientUnits="userSpaceOnUse">
<stop stop-color="#F8B729"/>
<stop offset="1" stop-color="#F5991A"/>
</linearGradient>
<linearGradient id="paint2_linear_521_307" x1="5.48476" y1="0" x2="5.48476" y2="98.3042" gradientUnits="userSpaceOnUse">
<stop stop-color="#F8B729"/>
<stop offset="1" stop-color="#F5991A"/>
</linearGradient>
</defs>
</svg>
