<svg width="1719" height="967" viewBox="0 0 1719 967" fill="none" xmlns="http://www.w3.org/2000/svg">
<path d="M805.528 299.928L837.421 330.955L878.491 309.938L857.132 350.131L889.026 381.158L843.932 374.972L822.574 415.166L816.063 371.149L770.969 364.963L812.039 343.945L805.528 299.928Z" fill="#FEAB05"/>
<path d="M629.528 676.928L661.421 707.955L702.491 686.938L681.132 727.131L713.026 758.158L667.932 751.972L646.574 792.166L640.063 748.149L594.969 741.963L636.039 720.945L629.528 676.928Z" fill="#FEAB05"/>
<path d="M1348.37 436.753L1345.64 481.165L1388.35 498.597L1343.95 508.613L1341.23 553.025L1316.51 514.803L1272.11 524.819L1301.24 491.181L1276.52 452.959L1319.24 470.391L1348.37 436.753Z" fill="#FEAB05"/>
<path d="M1204.89 23.9936L1202.16 68.4057L1244.88 85.8381L1200.48 95.8539L1197.75 140.266L1173.04 102.044L1128.64 112.06L1157.76 78.4215L1133.05 40.1995L1175.76 57.6319L1204.89 23.9936Z" fill="#FEAB05"/>
<path d="M694.062 91.4881L703.219 126.813L740.46 129.347L708.879 148.645L718.036 183.97L689.36 160.572L657.779 179.87L671.638 146.111L642.962 122.713L680.203 125.247L694.062 91.4881Z" fill="#FEAB05"/>
<path d="M251.062 549.488L260.219 584.813L297.46 587.347L265.879 606.645L275.036 641.97L246.36 618.572L214.779 637.87L228.638 604.111L199.962 580.713L237.203 583.247L251.062 549.488Z" fill="#FEAB05"/>
<path d="M1630.64 830.545L1655.05 857.675L1689.27 842.762L1670.13 874.442L1694.54 901.572L1658.31 894.022L1639.17 925.702L1635.91 889.356L1599.68 881.805L1633.9 866.892L1630.64 830.545Z" fill="#FEAB05"/>
<path d="M1672.54 295.817L1667.5 331.96L1700.94 348.538L1664.38 354.297L1659.34 390.44L1641.78 357.857L1605.22 363.617L1630.94 337.72L1613.38 305.137L1646.83 321.714L1672.54 295.817Z" fill="#FEAB05"/>
<path d="M35.7774 859.871L68.6571 875.703L94.6509 848.914L88.9779 885.487L121.858 901.319L85.4717 908.091L79.7987 944.664L62.9841 912.276L26.5983 919.048L52.592 892.259L35.7774 859.871Z" fill="#FEAB05"/>
</svg>
