<svg width="313" height="318" viewBox="0 0 313 318" fill="none" xmlns="http://www.w3.org/2000/svg">
<ellipse cx="118.729" cy="90" rx="165.729" ry="151" fill="#0AD4E2"/>
<ellipse cx="148.816" cy="35.6219" rx="16.277" ry="14.8304" fill="#0AD4E2"/>
<ellipse cx="38" cy="67" rx="45" ry="42" fill="#279B61"/>
<path d="M185.74 191.934C187.039 215.094 157.784 235.568 120.398 237.665C83.0115 239.762 51.6508 222.687 50.3519 199.527C49.053 176.368 78.3077 155.893 115.694 153.797C153.081 151.7 184.441 168.774 185.74 191.934Z" fill="#279B61"/>
<path d="M250.093 72.9341C251.392 96.0937 233.923 115.907 211.074 117.189C188.226 118.47 168.651 100.734 167.352 77.5747C166.053 54.4152 183.522 34.6018 206.371 33.3203C229.219 32.0389 248.794 49.7746 250.093 72.9341Z" fill="#279B61"/>
<line y1="-2" x2="136.784" y2="-2" transform="matrix(-0.571014 -0.820941 0.822427 -0.56887 286.312 258.84)" stroke="white" stroke-width="4"/>
<path d="M190.691 290.747L252.278 214.41L284.03 260.611L190.691 290.747Z" fill="#F43507"/>
</svg>
