<svg width="129" height="125" viewBox="0 0 129 125" fill="none" xmlns="http://www.w3.org/2000/svg">
<ellipse cx="62.5" cy="64.5" rx="62.5" ry="64.5" transform="matrix(0 1 1 0 0 0)" fill="white"/>
<ellipse cx="62.5" cy="64.5" rx="62.5" ry="64.5" transform="matrix(0 1 1 0 0 0)" fill="white"/>
<path d="M68.182 25.818C66.4246 24.0607 63.5754 24.0607 61.818 25.818L33.1802 54.4558C31.4228 56.2132 31.4228 59.0624 33.1802 60.8198C34.9376 62.5772 37.7868 62.5772 39.5442 60.8198L65 35.364L90.4558 60.8198C92.2132 62.5772 95.0624 62.5772 96.8198 60.8198C98.5772 59.0624 98.5772 56.2132 96.8198 54.4558L68.182 25.818ZM69.5 102L69.5 29L60.5 29L60.5 102L69.5 102Z" fill="#279B61"/>
<path d="M68.182 25.818C66.4246 24.0607 63.5754 24.0607 61.818 25.818L33.1802 54.4558C31.4228 56.2132 31.4228 59.0624 33.1802 60.8198C34.9376 62.5772 37.7868 62.5772 39.5442 60.8198L65 35.364L90.4558 60.8198C92.2132 62.5772 95.0624 62.5772 96.8198 60.8198C98.5772 59.0624 98.5772 56.2132 96.8198 54.4558L68.182 25.818ZM69.5 102L69.5 29L60.5 29L60.5 102L69.5 102Z" fill="#279B61"/>
</svg>
