<svg width="1366" height="180" viewBox="0 0 1366 180" fill="none" xmlns="http://www.w3.org/2000/svg">
<mask id="path-1-inside-1_350_280" fill="white">
<path d="M274.067 131.604C274.632 129.801 272.936 127.638 273.313 125.835C273.501 125.474 273.69 124.933 273.878 124.573C274.82 123.311 276.327 122.229 276.515 120.787C276.704 118.984 274.632 117.001 274.82 115.198C274.82 113.396 277.08 111.593 277.08 109.79C277.08 107.987 274.632 106.365 274.443 104.562C274.255 102.759 276.139 100.596 275.762 98.793C275.573 98.4324 275.385 97.8916 275.197 97.531C274.82 97.1705 274.443 96.81 274.067 96.4494C273.313 95.7283 272.56 95.0071 272.183 94.1057C271.618 92.3029 273.125 89.9594 272.56 88.3368C271.806 86.7143 268.981 85.8128 268.227 84.1903C267.474 82.5678 268.416 80.044 267.474 78.4215C268.416 77.8806 269.357 77.3398 269.734 76.6187C270.299 75.3567 269.357 73.3736 269.923 71.9314C270.488 70.6694 272.56 69.7681 273.125 68.5061C273.501 67.0639 272.183 65.2611 272.56 63.9991C272.936 62.5569 274.82 61.4752 275.008 60.033C275.197 58.771 273.878 57.3288 273.69 56.0668C273.69 55.8865 273.69 55.7063 273.69 55.526C273.69 55.3457 273.69 55.1655 273.878 54.9852C274.067 54.8049 274.067 54.6245 274.067 54.4442C274.067 54.264 274.255 54.0837 274.443 53.9034C274.632 53.5429 274.82 53.1824 275.008 52.8218C275.385 52.281 275.573 51.7401 275.573 51.1992C275.573 49.757 273.69 48.4951 273.501 47.0528C273.313 45.6106 274.82 43.9881 274.443 42.5459C274.066 41.1036 271.995 40.2023 271.618 38.76C271.241 37.3178 272.371 35.5149 271.806 34.0727C271.241 32.8108 268.981 32.0897 268.416 30.8277C267.851 29.5658 268.604 27.4024 267.851 26.1405C267.097 24.8785 264.837 24.6983 263.895 23.4363C262.953 22.3546 263.518 20.011 262.576 18.9293C262.388 18.749 262.2 18.749 262.2 18.5687C261.07 17.8476 259.186 17.8476 258.244 16.9462C257.114 15.8645 257.302 13.7012 256.172 12.7998C255.042 11.8984 252.782 12.2589 251.463 11.5378C250.333 10.6364 249.956 8.4731 248.638 7.75199C247.319 7.03087 245.247 7.75201 243.929 7.21117C242.61 6.67033 241.857 4.50689 240.538 3.96606C239.22 3.42522 237.148 4.50696 235.641 4.1464C234.134 3.78584 233.192 1.80277 231.685 1.44221C230.178 1.08165 228.483 2.52389 226.976 2.34361C225.469 2.16333 224.151 0.360514 222.644 0.180235C221.137 0.180235 219.63 1.80279 218.123 1.80279C216.616 1.80279 214.921 0.36047 213.414 0.36047C211.907 0.54075 210.777 2.52391 209.27 2.70419C207.763 3.06475 205.879 1.62243 204.561 2.16326C203.054 2.52382 202.301 4.68719 200.794 5.22803C199.475 5.76887 197.403 4.68726 195.896 5.40838C195.143 5.76894 194.766 6.49005 194.201 7.21117C193.636 7.21117 192.883 7.2111 192.506 7.03083C191.187 6.48999 190.434 4.32666 189.115 3.78582C187.797 3.24498 185.725 4.32661 184.218 3.96606C182.711 3.6055 181.769 1.62243 180.262 1.26187C178.755 0.901308 177.06 2.34354 175.553 2.16326C174.046 1.98298 172.728 0.180279 171.221 0C169.714 0 168.207 1.62245 166.7 1.62245C165.193 1.62245 163.498 0.180235 161.991 0.180235C160.484 0.360514 159.354 2.34356 157.847 2.52384C156.34 2.8844 154.457 1.44219 153.138 1.98303C151.631 2.34359 150.878 4.50696 149.371 5.0478C148.052 5.58863 145.98 4.50692 144.474 5.22803C143.155 5.76887 142.59 8.1125 141.271 8.83362C139.953 9.55473 137.693 8.83362 136.562 9.73501C135.432 10.6364 135.244 12.7998 134.114 13.7012C132.983 14.6026 130.723 14.2421 129.593 15.3237C128.463 16.4054 128.84 18.5687 127.898 19.6504C126.956 20.732 124.696 20.732 123.754 21.994C122.812 23.0757 123.565 25.239 122.812 26.501C122.058 27.7629 119.798 28.1235 119.045 29.3855C118.48 30.6475 119.421 32.6305 118.856 34.0727C118.291 35.3347 116.219 36.2361 115.654 37.4981C115.277 38.5797 116.031 40.0219 116.219 41.2839H116.031C114.147 41.4642 112.64 43.9881 110.757 44.3487C108.873 44.7092 106.424 43.0867 104.729 43.6275C102.846 44.1683 101.904 46.6923 100.02 47.4134C98.3249 48.1345 95.6878 46.8725 93.9926 47.5937C92.2973 48.3148 91.7322 51.1992 90.037 52.1006C88.3417 53.002 85.5163 52.281 84.0094 53.1824C82.5025 54.2641 82.3141 56.9682 80.8072 58.2302C79.3003 59.3119 76.4749 58.9513 75.1564 60.2132C73.8378 61.4752 74.2145 64.3596 72.896 65.6216C71.5775 67.0638 68.7521 67.0639 67.6219 68.5061C66.4917 69.9483 67.4335 72.6525 66.3033 74.275C65.3615 75.8975 62.5361 76.4384 61.5943 78.0609C61.2176 78.9623 61.4059 80.0439 61.4059 81.3059C59.5223 81.6665 58.2038 83.8298 56.3202 84.1903C54.4366 84.5509 52.1762 82.9284 50.2926 83.4693C48.409 84.0101 47.4672 86.534 45.5835 87.2551C43.8883 87.9762 41.2513 86.7143 39.556 87.4354C37.8607 88.1566 37.2956 91.041 35.6004 91.9424C33.9051 92.8438 31.0797 92.1227 29.5728 93.024C28.0659 94.1057 27.8776 96.8099 26.3707 98.0718C24.8638 99.1535 22.0383 98.793 20.7198 100.055C19.4013 101.317 19.778 104.021 18.4594 105.463C17.3293 106.906 14.3155 106.906 13.1853 108.348C12.0552 109.79 12.9969 112.494 11.8668 114.117C10.925 115.739 8.09954 116.28 7.15773 117.903C6.40428 119.525 7.53444 122.049 6.96936 123.672C6.21591 125.294 3.57883 126.376 3.01374 128.179C2.44866 129.981 4.14396 132.145 3.76724 133.947C3.39051 135.75 0.753425 137.192 0.565063 138.995C0.376701 140.798 2.44867 142.781 2.26031 144.584C2.26031 146.387 0 148.189 0 149.992C0 151.795 2.44869 153.418 2.63705 155.22C2.82542 157.023 0.941775 159.187 1.3185 160.989C1.69522 162.792 4.33228 164.054 4.89736 165.677C5.46245 167.479 3.95559 169.823 4.52067 171.446C5.27412 173.068 7.91116 173.969 8.85297 175.592C9.60642 177.214 8.66465 179.558 9.41809 181.181C9.41809 181.181 9.41805 181.361 9.60641 181.361C10.5482 182.983 13.562 183.344 14.5038 184.786C15.2573 185.868 15.2573 187.671 15.634 189.113C15.8224 189.654 16.0107 190.014 16.1991 190.375C17.3292 191.817 20.3431 191.637 21.6616 192.899C22.2267 193.44 22.4151 194.161 22.6034 194.882C22.9802 196.144 23.3568 197.406 24.1103 198.307C24.6754 198.668 25.4288 199.028 26.1823 199.028C26.7474 199.028 27.3125 199.209 27.8775 199.209C28.0659 199.209 28.4426 199.209 28.631 199.389C29.1961 199.569 29.5728 199.749 29.9495 199.93C30.1379 200.11 30.3262 200.29 30.5146 200.47C30.703 200.651 30.8913 200.831 30.8913 201.011C31.0797 201.372 31.4564 201.913 31.6448 202.454C32.2099 203.355 32.5866 204.256 33.34 204.797C33.9051 205.158 34.6586 205.158 35.6004 205.158C36.1655 205.158 36.7305 205.158 37.2956 205.158C37.484 205.158 37.8607 205.158 38.0491 205.158C38.6142 205.158 38.9909 205.338 39.556 205.518C40.3094 205.879 41.0628 206.78 41.6279 207.682C42.193 208.583 42.9465 209.304 43.8883 209.665C45.5836 210.386 48.2206 208.944 49.9159 209.484C51.7995 210.025 52.9296 212.549 54.8133 212.91C56.6969 213.27 58.9572 211.467 60.8409 211.648C62.7245 211.828 64.4197 214.172 66.3033 214.172C68.187 214.172 70.0706 212.189 71.9542 212.008C73.8378 212.008 75.9098 213.991 77.7934 213.631C79.6771 213.451 81.1839 210.927 83.0675 210.566C84.9512 210.206 87.2115 211.828 89.0951 211.287C90.9788 210.746 91.9206 208.222 93.8042 207.501C94.1809 207.321 94.746 207.321 95.3111 207.321C95.3111 208.223 95.3111 209.124 95.6878 209.845C95.6878 210.025 95.6878 210.025 95.8762 210.206C96.2529 210.746 96.6296 211.107 97.0064 211.287C97.5715 211.648 98.1365 211.828 98.7016 212.189C99.2667 212.549 99.8318 212.729 100.397 213.09C100.962 213.451 101.339 213.811 101.715 214.172C103.034 215.975 102.28 219.22 103.787 220.842C105.294 222.465 108.685 222.284 110.38 223.907C110.757 224.267 111.133 224.808 111.322 225.349C111.699 226.25 111.887 227.152 112.264 228.053C112.64 228.955 113.017 229.676 113.582 230.217C114.712 231.118 116.408 231.118 117.914 231.479C118.856 231.659 119.798 231.839 120.552 232.38C121.305 232.921 121.682 233.642 122.247 234.363C122.812 235.445 123.377 236.707 124.13 237.428C124.319 237.608 124.507 237.788 124.884 237.969C126.768 239.05 129.97 237.788 132.042 238.87C134.114 239.771 135.055 243.016 137.127 243.737C139.199 244.459 142.213 242.836 144.474 243.377C146.734 243.918 148.241 246.983 150.313 247.523C152.573 248.064 155.21 245.901 157.47 246.081C159.731 246.442 161.803 249.146 163.875 249.146C166.135 249.326 168.395 246.622 170.656 246.622C172.916 246.622 175.365 248.966 177.625 248.605C179.886 248.425 181.581 245.54 183.841 244.999C184.595 244.819 185.536 245 186.478 245.18C187.043 245.36 187.797 245.54 188.362 245.721C189.304 245.901 190.245 246.081 190.999 245.901C192.129 245.54 192.883 244.639 193.824 243.737C194.766 242.836 195.52 241.754 196.65 241.394C198.722 240.673 201.924 242.115 203.996 241.214C206.068 240.312 206.821 237.067 208.705 235.985C210.589 234.904 213.979 235.805 215.863 234.543C216.051 234.363 216.239 234.183 216.428 234.002C216.993 233.281 217.37 232.56 217.746 231.659C218.311 230.577 218.688 229.315 219.63 228.594C221.325 227.152 224.904 227.693 226.411 226.07C227.918 224.628 227.541 221.203 229.048 219.58C229.801 218.679 230.932 218.318 232.25 217.958C233.192 217.597 234.134 217.236 234.699 216.696C234.887 216.515 235.076 216.335 235.264 216.155C235.829 215.253 236.017 213.991 236.017 212.73C236.017 211.828 236.017 210.927 236.394 210.025C236.394 209.845 236.582 209.484 236.771 209.304C237.336 208.403 238.466 207.682 239.596 207.141C240.726 206.42 241.857 205.879 242.233 204.797C243.175 202.814 241.668 199.93 242.61 197.766C243.364 195.783 246.754 194.521 247.319 192.538C247.884 190.375 246.001 187.671 246.377 185.688C246.942 183.524 249.956 181.902 250.145 179.738C250.333 178.116 249.014 176.313 248.449 174.691C248.261 174.15 248.073 173.609 248.073 173.068C248.261 170.905 250.898 168.741 250.71 166.578C250.71 165.316 249.768 164.234 249.014 163.153C249.391 162.432 249.768 161.71 250.145 161.35C251.651 160.268 254.477 160.629 255.795 159.367C257.114 158.105 256.737 155.22 258.056 153.958C259.374 152.516 262.2 152.516 263.33 151.074C263.518 150.713 263.707 150.353 263.895 149.812C263.895 149.271 264.083 148.73 264.083 148.37C264.083 148.19 264.083 147.829 264.083 147.649C264.083 147.108 264.272 146.567 264.272 146.206C264.272 146.026 264.46 145.846 264.648 145.485C264.837 145.125 265.214 144.764 265.59 144.404C266.909 143.502 268.604 142.961 269.169 141.699C269.923 140.077 268.792 137.553 269.357 135.93C270.864 134.308 273.69 133.407 274.067 131.604Z"/>
</mask>
<path d="M274.067 131.604C274.632 129.801 272.936 127.638 273.313 125.835C273.501 125.474 273.69 124.933 273.878 124.573C274.82 123.311 276.327 122.229 276.515 120.787C276.704 118.984 274.632 117.001 274.82 115.198C274.82 113.396 277.08 111.593 277.08 109.79C277.08 107.987 274.632 106.365 274.443 104.562C274.255 102.759 276.139 100.596 275.762 98.793C275.573 98.4324 275.385 97.8916 275.197 97.531C274.82 97.1705 274.443 96.81 274.067 96.4494C273.313 95.7283 272.56 95.0071 272.183 94.1057C271.618 92.3029 273.125 89.9594 272.56 88.3368C271.806 86.7143 268.981 85.8128 268.227 84.1903C267.474 82.5678 268.416 80.044 267.474 78.4215C268.416 77.8806 269.357 77.3398 269.734 76.6187C270.299 75.3567 269.357 73.3736 269.923 71.9314C270.488 70.6694 272.56 69.7681 273.125 68.5061C273.501 67.0639 272.183 65.2611 272.56 63.9991C272.936 62.5569 274.82 61.4752 275.008 60.033C275.197 58.771 273.878 57.3288 273.69 56.0668C273.69 55.8865 273.69 55.7063 273.69 55.526C273.69 55.3457 273.69 55.1655 273.878 54.9852C274.067 54.8049 274.067 54.6245 274.067 54.4442C274.067 54.264 274.255 54.0837 274.443 53.9034C274.632 53.5429 274.82 53.1824 275.008 52.8218C275.385 52.281 275.573 51.7401 275.573 51.1992C275.573 49.757 273.69 48.4951 273.501 47.0528C273.313 45.6106 274.82 43.9881 274.443 42.5459C274.066 41.1036 271.995 40.2023 271.618 38.76C271.241 37.3178 272.371 35.5149 271.806 34.0727C271.241 32.8108 268.981 32.0897 268.416 30.8277C267.851 29.5658 268.604 27.4024 267.851 26.1405C267.097 24.8785 264.837 24.6983 263.895 23.4363C262.953 22.3546 263.518 20.011 262.576 18.9293C262.388 18.749 262.2 18.749 262.2 18.5687C261.07 17.8476 259.186 17.8476 258.244 16.9462C257.114 15.8645 257.302 13.7012 256.172 12.7998C255.042 11.8984 252.782 12.2589 251.463 11.5378C250.333 10.6364 249.956 8.4731 248.638 7.75199C247.319 7.03087 245.247 7.75201 243.929 7.21117C242.61 6.67033 241.857 4.50689 240.538 3.96606C239.22 3.42522 237.148 4.50696 235.641 4.1464C234.134 3.78584 233.192 1.80277 231.685 1.44221C230.178 1.08165 228.483 2.52389 226.976 2.34361C225.469 2.16333 224.151 0.360514 222.644 0.180235C221.137 0.180235 219.63 1.80279 218.123 1.80279C216.616 1.80279 214.921 0.36047 213.414 0.36047C211.907 0.54075 210.777 2.52391 209.27 2.70419C207.763 3.06475 205.879 1.62243 204.561 2.16326C203.054 2.52382 202.301 4.68719 200.794 5.22803C199.475 5.76887 197.403 4.68726 195.896 5.40838C195.143 5.76894 194.766 6.49005 194.201 7.21117C193.636 7.21117 192.883 7.2111 192.506 7.03083C191.187 6.48999 190.434 4.32666 189.115 3.78582C187.797 3.24498 185.725 4.32661 184.218 3.96606C182.711 3.6055 181.769 1.62243 180.262 1.26187C178.755 0.901308 177.06 2.34354 175.553 2.16326C174.046 1.98298 172.728 0.180279 171.221 0C169.714 0 168.207 1.62245 166.7 1.62245C165.193 1.62245 163.498 0.180235 161.991 0.180235C160.484 0.360514 159.354 2.34356 157.847 2.52384C156.34 2.8844 154.457 1.44219 153.138 1.98303C151.631 2.34359 150.878 4.50696 149.371 5.0478C148.052 5.58863 145.98 4.50692 144.474 5.22803C143.155 5.76887 142.59 8.1125 141.271 8.83362C139.953 9.55473 137.693 8.83362 136.562 9.73501C135.432 10.6364 135.244 12.7998 134.114 13.7012C132.983 14.6026 130.723 14.2421 129.593 15.3237C128.463 16.4054 128.84 18.5687 127.898 19.6504C126.956 20.732 124.696 20.732 123.754 21.994C122.812 23.0757 123.565 25.239 122.812 26.501C122.058 27.7629 119.798 28.1235 119.045 29.3855C118.48 30.6475 119.421 32.6305 118.856 34.0727C118.291 35.3347 116.219 36.2361 115.654 37.4981C115.277 38.5797 116.031 40.0219 116.219 41.2839H116.031C114.147 41.4642 112.64 43.9881 110.757 44.3487C108.873 44.7092 106.424 43.0867 104.729 43.6275C102.846 44.1683 101.904 46.6923 100.02 47.4134C98.3249 48.1345 95.6878 46.8725 93.9926 47.5937C92.2973 48.3148 91.7322 51.1992 90.037 52.1006C88.3417 53.002 85.5163 52.281 84.0094 53.1824C82.5025 54.2641 82.3141 56.9682 80.8072 58.2302C79.3003 59.3119 76.4749 58.9513 75.1564 60.2132C73.8378 61.4752 74.2145 64.3596 72.896 65.6216C71.5775 67.0638 68.7521 67.0639 67.6219 68.5061C66.4917 69.9483 67.4335 72.6525 66.3033 74.275C65.3615 75.8975 62.5361 76.4384 61.5943 78.0609C61.2176 78.9623 61.4059 80.0439 61.4059 81.3059C59.5223 81.6665 58.2038 83.8298 56.3202 84.1903C54.4366 84.5509 52.1762 82.9284 50.2926 83.4693C48.409 84.0101 47.4672 86.534 45.5835 87.2551C43.8883 87.9762 41.2513 86.7143 39.556 87.4354C37.8607 88.1566 37.2956 91.041 35.6004 91.9424C33.9051 92.8438 31.0797 92.1227 29.5728 93.024C28.0659 94.1057 27.8776 96.8099 26.3707 98.0718C24.8638 99.1535 22.0383 98.793 20.7198 100.055C19.4013 101.317 19.778 104.021 18.4594 105.463C17.3293 106.906 14.3155 106.906 13.1853 108.348C12.0552 109.79 12.9969 112.494 11.8668 114.117C10.925 115.739 8.09954 116.28 7.15773 117.903C6.40428 119.525 7.53444 122.049 6.96936 123.672C6.21591 125.294 3.57883 126.376 3.01374 128.179C2.44866 129.981 4.14396 132.145 3.76724 133.947C3.39051 135.75 0.753425 137.192 0.565063 138.995C0.376701 140.798 2.44867 142.781 2.26031 144.584C2.26031 146.387 0 148.189 0 149.992C0 151.795 2.44869 153.418 2.63705 155.22C2.82542 157.023 0.941775 159.187 1.3185 160.989C1.69522 162.792 4.33228 164.054 4.89736 165.677C5.46245 167.479 3.95559 169.823 4.52067 171.446C5.27412 173.068 7.91116 173.969 8.85297 175.592C9.60642 177.214 8.66465 179.558 9.41809 181.181C9.41809 181.181 9.41805 181.361 9.60641 181.361C10.5482 182.983 13.562 183.344 14.5038 184.786C15.2573 185.868 15.2573 187.671 15.634 189.113C15.8224 189.654 16.0107 190.014 16.1991 190.375C17.3292 191.817 20.3431 191.637 21.6616 192.899C22.2267 193.44 22.4151 194.161 22.6034 194.882C22.9802 196.144 23.3568 197.406 24.1103 198.307C24.6754 198.668 25.4288 199.028 26.1823 199.028C26.7474 199.028 27.3125 199.209 27.8775 199.209C28.0659 199.209 28.4426 199.209 28.631 199.389C29.1961 199.569 29.5728 199.749 29.9495 199.93C30.1379 200.11 30.3262 200.29 30.5146 200.47C30.703 200.651 30.8913 200.831 30.8913 201.011C31.0797 201.372 31.4564 201.913 31.6448 202.454C32.2099 203.355 32.5866 204.256 33.34 204.797C33.9051 205.158 34.6586 205.158 35.6004 205.158C36.1655 205.158 36.7305 205.158 37.2956 205.158C37.484 205.158 37.8607 205.158 38.0491 205.158C38.6142 205.158 38.9909 205.338 39.556 205.518C40.3094 205.879 41.0628 206.78 41.6279 207.682C42.193 208.583 42.9465 209.304 43.8883 209.665C45.5836 210.386 48.2206 208.944 49.9159 209.484C51.7995 210.025 52.9296 212.549 54.8133 212.91C56.6969 213.27 58.9572 211.467 60.8409 211.648C62.7245 211.828 64.4197 214.172 66.3033 214.172C68.187 214.172 70.0706 212.189 71.9542 212.008C73.8378 212.008 75.9098 213.991 77.7934 213.631C79.6771 213.451 81.1839 210.927 83.0675 210.566C84.9512 210.206 87.2115 211.828 89.0951 211.287C90.9788 210.746 91.9206 208.222 93.8042 207.501C94.1809 207.321 94.746 207.321 95.3111 207.321C95.3111 208.223 95.3111 209.124 95.6878 209.845C95.6878 210.025 95.6878 210.025 95.8762 210.206C96.2529 210.746 96.6296 211.107 97.0064 211.287C97.5715 211.648 98.1365 211.828 98.7016 212.189C99.2667 212.549 99.8318 212.729 100.397 213.09C100.962 213.451 101.339 213.811 101.715 214.172C103.034 215.975 102.28 219.22 103.787 220.842C105.294 222.465 108.685 222.284 110.38 223.907C110.757 224.267 111.133 224.808 111.322 225.349C111.699 226.25 111.887 227.152 112.264 228.053C112.64 228.955 113.017 229.676 113.582 230.217C114.712 231.118 116.408 231.118 117.914 231.479C118.856 231.659 119.798 231.839 120.552 232.38C121.305 232.921 121.682 233.642 122.247 234.363C122.812 235.445 123.377 236.707 124.13 237.428C124.319 237.608 124.507 237.788 124.884 237.969C126.768 239.05 129.97 237.788 132.042 238.87C134.114 239.771 135.055 243.016 137.127 243.737C139.199 244.459 142.213 242.836 144.474 243.377C146.734 243.918 148.241 246.983 150.313 247.523C152.573 248.064 155.21 245.901 157.47 246.081C159.731 246.442 161.803 249.146 163.875 249.146C166.135 249.326 168.395 246.622 170.656 246.622C172.916 246.622 175.365 248.966 177.625 248.605C179.886 248.425 181.581 245.54 183.841 244.999C184.595 244.819 185.536 245 186.478 245.18C187.043 245.36 187.797 245.54 188.362 245.721C189.304 245.901 190.245 246.081 190.999 245.901C192.129 245.54 192.883 244.639 193.824 243.737C194.766 242.836 195.52 241.754 196.65 241.394C198.722 240.673 201.924 242.115 203.996 241.214C206.068 240.312 206.821 237.067 208.705 235.985C210.589 234.904 213.979 235.805 215.863 234.543C216.051 234.363 216.239 234.183 216.428 234.002C216.993 233.281 217.37 232.56 217.746 231.659C218.311 230.577 218.688 229.315 219.63 228.594C221.325 227.152 224.904 227.693 226.411 226.07C227.918 224.628 227.541 221.203 229.048 219.58C229.801 218.679 230.932 218.318 232.25 217.958C233.192 217.597 234.134 217.236 234.699 216.696C234.887 216.515 235.076 216.335 235.264 216.155C235.829 215.253 236.017 213.991 236.017 212.73C236.017 211.828 236.017 210.927 236.394 210.025C236.394 209.845 236.582 209.484 236.771 209.304C237.336 208.403 238.466 207.682 239.596 207.141C240.726 206.42 241.857 205.879 242.233 204.797C243.175 202.814 241.668 199.93 242.61 197.766C243.364 195.783 246.754 194.521 247.319 192.538C247.884 190.375 246.001 187.671 246.377 185.688C246.942 183.524 249.956 181.902 250.145 179.738C250.333 178.116 249.014 176.313 248.449 174.691C248.261 174.15 248.073 173.609 248.073 173.068C248.261 170.905 250.898 168.741 250.71 166.578C250.71 165.316 249.768 164.234 249.014 163.153C249.391 162.432 249.768 161.71 250.145 161.35C251.651 160.268 254.477 160.629 255.795 159.367C257.114 158.105 256.737 155.22 258.056 153.958C259.374 152.516 262.2 152.516 263.33 151.074C263.518 150.713 263.707 150.353 263.895 149.812C263.895 149.271 264.083 148.73 264.083 148.37C264.083 148.19 264.083 147.829 264.083 147.649C264.083 147.108 264.272 146.567 264.272 146.206C264.272 146.026 264.46 145.846 264.648 145.485C264.837 145.125 265.214 144.764 265.59 144.404C266.909 143.502 268.604 142.961 269.169 141.699C269.923 140.077 268.792 137.553 269.357 135.93C270.864 134.308 273.69 133.407 274.067 131.604Z" fill="#23342B" stroke="#FFF6E9" stroke-width="2" mask="url(#path-1-inside-1_350_280)"/>
<mask id="path-2-inside-2_350_280" fill="white">
<path d="M1091.93 131.409C1091.37 129.609 1093.06 127.449 1092.69 125.648C1092.5 125.288 1092.31 124.748 1092.12 124.388C1091.18 123.128 1089.67 122.048 1089.48 120.608C1089.3 118.808 1091.37 116.828 1091.18 115.028C1091.18 113.228 1088.92 111.427 1088.92 109.627C1088.92 107.827 1091.37 106.207 1091.56 104.407C1091.75 102.607 1089.86 100.447 1090.24 98.6466C1090.43 98.2866 1090.61 97.7466 1090.8 97.3865C1091.18 97.0265 1091.56 96.6665 1091.93 96.3065C1092.69 95.5865 1093.44 94.8663 1093.82 93.9663C1094.38 92.1661 1092.88 89.8261 1093.44 88.206C1094.19 86.5858 1097.02 85.6857 1097.77 84.0656C1098.53 82.4455 1097.58 79.9254 1098.53 78.3053C1097.58 77.7653 1096.64 77.2252 1096.27 76.5052C1095.7 75.2451 1096.64 73.2649 1096.08 71.8248C1095.51 70.5647 1093.44 69.6647 1092.88 68.4046C1092.5 66.9645 1093.82 65.1644 1093.44 63.9043C1093.06 62.4642 1091.18 61.3841 1090.99 59.944C1090.8 58.6839 1092.12 57.2438 1092.31 55.9837C1092.31 55.8037 1092.31 55.6237 1092.31 55.4437C1092.31 55.2637 1092.31 55.0837 1092.12 54.9037C1091.93 54.7237 1091.93 54.5436 1091.93 54.3636C1091.93 54.1836 1091.75 54.0036 1091.56 53.8236C1091.37 53.4635 1091.18 53.1036 1090.99 52.7435C1090.61 52.2035 1090.43 51.6634 1090.43 51.1234C1090.43 49.6833 1092.31 48.4232 1092.5 46.9831C1092.69 45.543 1091.18 43.9229 1091.56 42.4828C1091.93 41.0427 1094.01 40.1427 1094.38 38.7026C1094.76 37.2625 1093.63 35.4623 1094.19 34.0222C1094.76 32.7621 1097.02 32.0421 1097.58 30.782C1098.15 29.5219 1097.4 27.3618 1098.15 26.1018C1098.9 24.8417 1101.16 24.6617 1102.11 23.4016C1103.05 22.3215 1102.48 19.9813 1103.42 18.9013C1103.61 18.7213 1103.8 18.7212 1103.8 18.5412C1104.93 17.8212 1106.81 17.8211 1107.76 16.9211C1108.89 15.841 1108.7 13.6809 1109.83 12.7808C1110.96 11.8808 1113.22 12.2408 1114.54 11.5207C1115.67 10.6207 1116.04 8.46055 1117.36 7.7405C1118.68 7.02045 1120.75 7.74052 1122.07 7.20049C1123.39 6.66045 1124.14 4.50022 1125.46 3.96018C1126.78 3.42014 1128.85 4.50028 1130.36 4.14026C1131.87 3.78023 1132.81 1.8001 1134.31 1.44008C1135.82 1.08005 1137.52 2.52015 1139.02 2.34014C1140.53 2.16012 1141.85 0.35998 1143.36 0.179968C1144.86 0.179968 1146.37 1.80012 1147.88 1.80012C1149.38 1.80012 1151.08 0.359936 1152.59 0.359936C1154.09 0.539949 1155.22 2.52017 1156.73 2.70018C1158.24 3.06021 1160.12 1.62002 1161.44 2.16006C1162.95 2.52008 1163.7 4.68025 1165.21 5.22029C1166.52 5.76032 1168.6 4.68032 1170.1 5.40036C1170.86 5.76039 1171.23 6.48044 1171.8 7.20049C1172.36 7.20049 1173.12 7.20042 1173.49 7.02041C1174.81 6.48037 1175.57 4.32025 1176.88 3.78021C1178.2 3.24017 1180.28 4.3202 1181.78 3.96018C1183.29 3.60016 1184.23 1.62002 1185.74 1.26C1187.24 0.899973 1188.94 2.34007 1190.45 2.16006C1191.95 1.98005 1193.27 0.180012 1194.78 0C1196.29 0 1197.79 1.62004 1199.3 1.62004C1200.81 1.62004 1202.5 0.179968 1204.01 0.179968C1205.52 0.35998 1206.65 2.34009 1208.15 2.5201C1209.66 2.88013 1211.54 1.44005 1212.86 1.98009C1214.37 2.34011 1215.12 4.50028 1216.63 5.04032C1217.95 5.58035 1220.02 4.50024 1221.53 5.22029C1222.84 5.76032 1223.41 8.10048 1224.73 8.82053C1226.05 9.54058 1228.31 8.82053 1229.44 9.72059C1230.57 10.6207 1230.76 12.7808 1231.89 13.6809C1233.02 14.5809 1235.28 14.221 1236.41 15.301C1237.54 16.3811 1237.16 18.5412 1238.1 19.6213C1239.04 20.7013 1241.3 20.7013 1242.25 21.9614C1243.19 23.0415 1242.43 25.2016 1243.19 26.4617C1243.94 27.7218 1246.2 28.0819 1246.96 29.342C1247.52 30.602 1246.58 32.5821 1247.14 34.0222C1247.71 35.2823 1249.78 36.1824 1250.35 37.4425C1250.72 38.5226 1249.97 39.9626 1249.78 41.2227H1249.97C1251.85 41.4027 1253.36 43.9229 1255.24 44.2829C1257.13 44.643 1259.58 43.0228 1261.27 43.5629C1263.15 44.1029 1264.1 46.6231 1265.98 47.3432C1267.68 48.0632 1270.31 46.8031 1272.01 47.5231C1273.7 48.2432 1274.27 51.1234 1275.96 52.0234C1277.66 52.9235 1280.48 52.2035 1281.99 53.1036C1283.5 54.1837 1283.69 56.8838 1285.19 58.1439C1286.7 59.224 1289.53 58.8639 1290.84 60.124C1292.16 61.3841 1291.79 64.2643 1293.1 65.5244C1294.42 66.9645 1297.25 66.9645 1298.38 68.4046C1299.51 69.8447 1298.57 72.5448 1299.7 74.1649C1300.64 75.785 1303.46 76.3251 1304.41 77.9452C1304.78 78.8453 1304.59 79.9254 1304.59 81.1854C1306.48 81.5455 1307.8 83.7056 1309.68 84.0656C1311.56 84.4256 1313.82 82.8056 1315.71 83.3456C1317.59 83.8856 1318.53 86.4058 1320.42 87.1258C1322.11 87.8459 1324.75 86.5858 1326.44 87.3059C1328.14 88.0259 1328.7 90.9061 1330.4 91.8062C1332.09 92.7063 1334.92 91.9862 1336.43 92.8862C1337.93 93.9663 1338.12 96.6665 1339.63 97.9265C1341.14 99.0066 1343.96 98.6467 1345.28 99.9067C1346.6 101.167 1346.22 103.867 1347.54 105.307C1348.67 106.747 1351.68 106.747 1352.81 108.187C1353.94 109.627 1353 112.328 1354.13 113.948C1355.08 115.568 1357.9 116.108 1358.84 117.728C1359.6 119.348 1358.47 121.868 1359.03 123.488C1359.78 125.108 1362.42 126.188 1362.99 127.989C1363.55 129.789 1361.86 131.949 1362.23 133.749C1362.61 135.549 1365.25 136.989 1365.43 138.789C1365.62 140.589 1363.55 142.57 1363.74 144.37C1363.74 146.17 1366 147.97 1366 149.77C1366 151.57 1363.55 153.19 1363.36 154.99C1363.17 156.791 1365.06 158.951 1364.68 160.751C1364.3 162.551 1361.67 163.811 1361.1 165.431C1360.54 167.231 1362.04 169.571 1361.48 171.192C1360.73 172.812 1358.09 173.712 1357.15 175.332C1356.39 176.952 1357.34 179.292 1356.58 180.912C1356.58 180.912 1356.58 181.092 1356.39 181.092C1355.45 182.712 1352.44 183.072 1351.5 184.512C1350.74 185.593 1350.74 187.393 1350.37 188.833C1350.18 189.373 1349.99 189.733 1349.8 190.093C1348.67 191.533 1345.66 191.353 1344.34 192.613C1343.77 193.153 1343.58 193.873 1343.4 194.593C1343.02 195.853 1342.64 197.113 1341.89 198.013C1341.32 198.373 1340.57 198.733 1339.82 198.733C1339.25 198.733 1338.69 198.913 1338.12 198.913C1337.93 198.913 1337.56 198.913 1337.37 199.093C1336.8 199.273 1336.43 199.453 1336.05 199.633C1335.86 199.813 1335.67 199.993 1335.49 200.173C1335.3 200.353 1335.11 200.534 1335.11 200.714C1334.92 201.074 1334.54 201.614 1334.36 202.154C1333.79 203.054 1333.41 203.954 1332.66 204.494C1332.09 204.854 1331.34 204.854 1330.4 204.854C1329.83 204.854 1329.27 204.854 1328.7 204.854C1328.52 204.854 1328.14 204.854 1327.95 204.854C1327.39 204.854 1327.01 205.034 1326.44 205.214C1325.69 205.574 1324.94 206.474 1324.37 207.374C1323.81 208.274 1323.05 208.994 1322.11 209.354C1320.42 210.074 1317.78 208.634 1316.08 209.174C1314.2 209.714 1313.07 212.234 1311.19 212.594C1309.3 212.954 1307.04 211.154 1305.16 211.334C1303.28 211.514 1301.58 213.854 1299.7 213.854C1297.81 213.854 1295.93 211.874 1294.05 211.694C1292.16 211.694 1290.09 213.674 1288.21 213.314C1286.32 213.134 1284.82 210.614 1282.93 210.254C1281.05 209.894 1278.79 211.514 1276.9 210.974C1275.02 210.434 1274.08 207.914 1272.2 207.194C1271.82 207.014 1271.25 207.014 1270.69 207.014C1270.69 207.914 1270.69 208.814 1270.31 209.534C1270.31 209.714 1270.31 209.714 1270.12 209.894C1269.75 210.434 1269.37 210.794 1268.99 210.974C1268.43 211.334 1267.86 211.514 1267.3 211.874C1266.73 212.234 1266.17 212.414 1265.6 212.774C1265.04 213.134 1264.66 213.494 1264.28 213.854C1262.97 215.655 1263.72 218.895 1262.21 220.515C1260.71 222.135 1257.32 221.955 1255.62 223.575C1255.24 223.935 1254.87 224.475 1254.68 225.015C1254.3 225.915 1254.11 226.815 1253.74 227.715C1253.36 228.615 1252.98 229.335 1252.42 229.875C1251.29 230.775 1249.59 230.776 1248.09 231.136C1247.14 231.316 1246.2 231.496 1245.45 232.036C1244.69 232.576 1244.32 233.296 1243.75 234.016C1243.19 235.096 1242.62 236.356 1241.87 237.076C1241.68 237.256 1241.49 237.436 1241.12 237.616C1239.23 238.696 1236.03 237.436 1233.96 238.516C1231.89 239.416 1230.94 242.656 1228.87 243.376C1226.8 244.096 1223.79 242.476 1221.53 243.016C1219.27 243.556 1217.76 246.617 1215.69 247.157C1213.43 247.697 1210.79 245.537 1208.53 245.717C1206.27 246.077 1204.2 248.777 1202.13 248.777C1199.86 248.957 1197.6 246.257 1195.34 246.257C1193.08 246.257 1190.64 248.597 1188.37 248.237C1186.11 248.057 1184.42 245.176 1182.16 244.636C1181.41 244.456 1180.46 244.637 1179.52 244.817C1178.96 244.997 1178.2 245.177 1177.64 245.357C1176.7 245.537 1175.75 245.717 1175 245.537C1173.87 245.176 1173.12 244.276 1172.18 243.376C1171.23 242.476 1170.48 241.396 1169.35 241.036C1167.28 240.316 1164.08 241.756 1162 240.856C1159.93 239.956 1159.18 236.716 1157.3 235.636C1155.41 234.556 1152.02 235.456 1150.14 234.196C1149.95 234.016 1149.76 233.836 1149.57 233.656C1149.01 232.936 1148.63 232.216 1148.25 231.316C1147.69 230.236 1147.31 228.975 1146.37 228.255C1144.67 226.815 1141.1 227.355 1139.59 225.735C1138.08 224.295 1138.46 220.875 1136.95 219.255C1136.2 218.355 1135.07 217.995 1133.75 217.635C1132.81 217.275 1131.87 216.915 1131.3 216.375C1131.11 216.195 1130.92 216.015 1130.74 215.835C1130.17 214.934 1129.98 213.674 1129.98 212.414C1129.98 211.514 1129.98 210.614 1129.61 209.714C1129.61 209.534 1129.42 209.174 1129.23 208.994C1128.66 208.094 1127.53 207.374 1126.4 206.834C1125.27 206.114 1124.14 205.574 1123.77 204.494C1122.82 202.514 1124.33 199.633 1123.39 197.473C1122.64 195.493 1119.25 194.233 1118.68 192.253C1118.12 190.093 1120 187.393 1119.62 185.413C1119.06 183.252 1116.04 181.632 1115.86 179.472C1115.67 177.852 1116.99 176.052 1117.55 174.432C1117.74 173.892 1117.93 173.352 1117.93 172.812C1117.74 170.652 1115.1 168.491 1115.29 166.331C1115.29 165.071 1116.23 163.991 1116.99 162.911C1116.61 162.191 1116.23 161.471 1115.86 161.111C1114.35 160.031 1111.52 160.391 1110.2 159.131C1108.89 157.871 1109.26 154.99 1107.94 153.73C1106.63 152.29 1103.8 152.29 1102.67 150.85C1102.48 150.49 1102.29 150.13 1102.11 149.59C1102.11 149.05 1101.92 148.51 1101.92 148.15C1101.92 147.97 1101.92 147.61 1101.92 147.43C1101.92 146.89 1101.73 146.35 1101.73 145.99C1101.73 145.81 1101.54 145.63 1101.35 145.27C1101.16 144.91 1100.79 144.55 1100.41 144.19C1099.09 143.29 1097.4 142.75 1096.83 141.49C1096.08 139.869 1097.21 137.349 1096.64 135.729C1095.14 134.109 1092.31 133.209 1091.93 131.409Z"/>
</mask>
<path d="M1091.93 131.409C1091.37 129.609 1093.06 127.449 1092.69 125.648C1092.5 125.288 1092.31 124.748 1092.12 124.388C1091.18 123.128 1089.67 122.048 1089.48 120.608C1089.3 118.808 1091.37 116.828 1091.18 115.028C1091.18 113.228 1088.92 111.427 1088.92 109.627C1088.92 107.827 1091.37 106.207 1091.56 104.407C1091.75 102.607 1089.86 100.447 1090.24 98.6466C1090.43 98.2866 1090.61 97.7466 1090.8 97.3865C1091.18 97.0265 1091.56 96.6665 1091.93 96.3065C1092.69 95.5865 1093.44 94.8663 1093.82 93.9663C1094.38 92.1661 1092.88 89.8261 1093.44 88.206C1094.19 86.5858 1097.02 85.6857 1097.77 84.0656C1098.53 82.4455 1097.58 79.9254 1098.53 78.3053C1097.58 77.7653 1096.64 77.2252 1096.27 76.5052C1095.7 75.2451 1096.64 73.2649 1096.08 71.8248C1095.51 70.5647 1093.44 69.6647 1092.88 68.4046C1092.5 66.9645 1093.82 65.1644 1093.44 63.9043C1093.06 62.4642 1091.18 61.3841 1090.99 59.944C1090.8 58.6839 1092.12 57.2438 1092.31 55.9837C1092.31 55.8037 1092.31 55.6237 1092.31 55.4437C1092.31 55.2637 1092.31 55.0837 1092.12 54.9037C1091.93 54.7237 1091.93 54.5436 1091.93 54.3636C1091.93 54.1836 1091.75 54.0036 1091.56 53.8236C1091.37 53.4635 1091.18 53.1036 1090.99 52.7435C1090.61 52.2035 1090.43 51.6634 1090.43 51.1234C1090.43 49.6833 1092.31 48.4232 1092.5 46.9831C1092.69 45.543 1091.18 43.9229 1091.56 42.4828C1091.93 41.0427 1094.01 40.1427 1094.38 38.7026C1094.76 37.2625 1093.63 35.4623 1094.19 34.0222C1094.76 32.7621 1097.02 32.0421 1097.58 30.782C1098.15 29.5219 1097.4 27.3618 1098.15 26.1018C1098.9 24.8417 1101.16 24.6617 1102.11 23.4016C1103.05 22.3215 1102.48 19.9813 1103.42 18.9013C1103.61 18.7213 1103.8 18.7212 1103.8 18.5412C1104.93 17.8212 1106.81 17.8211 1107.76 16.9211C1108.89 15.841 1108.7 13.6809 1109.83 12.7808C1110.96 11.8808 1113.22 12.2408 1114.54 11.5207C1115.67 10.6207 1116.04 8.46055 1117.36 7.7405C1118.68 7.02045 1120.75 7.74052 1122.07 7.20049C1123.39 6.66045 1124.14 4.50022 1125.46 3.96018C1126.78 3.42014 1128.85 4.50028 1130.36 4.14026C1131.87 3.78023 1132.81 1.8001 1134.31 1.44008C1135.82 1.08005 1137.52 2.52015 1139.02 2.34014C1140.53 2.16012 1141.85 0.35998 1143.36 0.179968C1144.86 0.179968 1146.37 1.80012 1147.88 1.80012C1149.38 1.80012 1151.08 0.359936 1152.59 0.359936C1154.09 0.539949 1155.22 2.52017 1156.73 2.70018C1158.24 3.06021 1160.12 1.62002 1161.44 2.16006C1162.95 2.52008 1163.7 4.68025 1165.21 5.22029C1166.52 5.76032 1168.6 4.68032 1170.1 5.40036C1170.86 5.76039 1171.23 6.48044 1171.8 7.20049C1172.36 7.20049 1173.12 7.20042 1173.49 7.02041C1174.81 6.48037 1175.57 4.32025 1176.88 3.78021C1178.2 3.24017 1180.28 4.3202 1181.78 3.96018C1183.29 3.60016 1184.23 1.62002 1185.74 1.26C1187.24 0.899973 1188.94 2.34007 1190.45 2.16006C1191.95 1.98005 1193.27 0.180012 1194.78 0C1196.29 0 1197.79 1.62004 1199.3 1.62004C1200.81 1.62004 1202.5 0.179968 1204.01 0.179968C1205.52 0.35998 1206.65 2.34009 1208.15 2.5201C1209.66 2.88013 1211.54 1.44005 1212.86 1.98009C1214.37 2.34011 1215.12 4.50028 1216.63 5.04032C1217.95 5.58035 1220.02 4.50024 1221.53 5.22029C1222.84 5.76032 1223.41 8.10048 1224.73 8.82053C1226.05 9.54058 1228.31 8.82053 1229.44 9.72059C1230.57 10.6207 1230.76 12.7808 1231.89 13.6809C1233.02 14.5809 1235.28 14.221 1236.41 15.301C1237.54 16.3811 1237.16 18.5412 1238.1 19.6213C1239.04 20.7013 1241.3 20.7013 1242.25 21.9614C1243.19 23.0415 1242.43 25.2016 1243.19 26.4617C1243.94 27.7218 1246.2 28.0819 1246.96 29.342C1247.52 30.602 1246.58 32.5821 1247.14 34.0222C1247.71 35.2823 1249.78 36.1824 1250.35 37.4425C1250.72 38.5226 1249.97 39.9626 1249.78 41.2227H1249.97C1251.85 41.4027 1253.36 43.9229 1255.24 44.2829C1257.13 44.643 1259.58 43.0228 1261.27 43.5629C1263.15 44.1029 1264.1 46.6231 1265.98 47.3432C1267.68 48.0632 1270.31 46.8031 1272.01 47.5231C1273.7 48.2432 1274.27 51.1234 1275.96 52.0234C1277.66 52.9235 1280.48 52.2035 1281.99 53.1036C1283.5 54.1837 1283.69 56.8838 1285.19 58.1439C1286.7 59.224 1289.53 58.8639 1290.84 60.124C1292.16 61.3841 1291.79 64.2643 1293.1 65.5244C1294.42 66.9645 1297.25 66.9645 1298.38 68.4046C1299.51 69.8447 1298.57 72.5448 1299.7 74.1649C1300.64 75.785 1303.46 76.3251 1304.41 77.9452C1304.78 78.8453 1304.59 79.9254 1304.59 81.1854C1306.48 81.5455 1307.8 83.7056 1309.68 84.0656C1311.56 84.4256 1313.82 82.8056 1315.71 83.3456C1317.59 83.8856 1318.53 86.4058 1320.42 87.1258C1322.11 87.8459 1324.75 86.5858 1326.44 87.3059C1328.14 88.0259 1328.7 90.9061 1330.4 91.8062C1332.09 92.7063 1334.92 91.9862 1336.43 92.8862C1337.93 93.9663 1338.12 96.6665 1339.63 97.9265C1341.14 99.0066 1343.96 98.6467 1345.28 99.9067C1346.6 101.167 1346.22 103.867 1347.54 105.307C1348.67 106.747 1351.68 106.747 1352.81 108.187C1353.94 109.627 1353 112.328 1354.13 113.948C1355.08 115.568 1357.9 116.108 1358.84 117.728C1359.6 119.348 1358.47 121.868 1359.03 123.488C1359.78 125.108 1362.42 126.188 1362.99 127.989C1363.55 129.789 1361.86 131.949 1362.23 133.749C1362.61 135.549 1365.25 136.989 1365.43 138.789C1365.62 140.589 1363.55 142.57 1363.74 144.37C1363.74 146.17 1366 147.97 1366 149.77C1366 151.57 1363.55 153.19 1363.36 154.99C1363.17 156.791 1365.06 158.951 1364.68 160.751C1364.3 162.551 1361.67 163.811 1361.1 165.431C1360.54 167.231 1362.04 169.571 1361.48 171.192C1360.73 172.812 1358.09 173.712 1357.15 175.332C1356.39 176.952 1357.34 179.292 1356.58 180.912C1356.58 180.912 1356.58 181.092 1356.39 181.092C1355.45 182.712 1352.44 183.072 1351.5 184.512C1350.74 185.593 1350.74 187.393 1350.37 188.833C1350.18 189.373 1349.99 189.733 1349.8 190.093C1348.67 191.533 1345.66 191.353 1344.34 192.613C1343.77 193.153 1343.58 193.873 1343.4 194.593C1343.02 195.853 1342.64 197.113 1341.89 198.013C1341.32 198.373 1340.57 198.733 1339.82 198.733C1339.25 198.733 1338.69 198.913 1338.12 198.913C1337.93 198.913 1337.56 198.913 1337.37 199.093C1336.8 199.273 1336.43 199.453 1336.05 199.633C1335.86 199.813 1335.67 199.993 1335.49 200.173C1335.3 200.353 1335.11 200.534 1335.11 200.714C1334.92 201.074 1334.54 201.614 1334.36 202.154C1333.79 203.054 1333.41 203.954 1332.66 204.494C1332.09 204.854 1331.34 204.854 1330.4 204.854C1329.83 204.854 1329.27 204.854 1328.7 204.854C1328.52 204.854 1328.14 204.854 1327.95 204.854C1327.39 204.854 1327.01 205.034 1326.44 205.214C1325.69 205.574 1324.94 206.474 1324.37 207.374C1323.81 208.274 1323.05 208.994 1322.11 209.354C1320.42 210.074 1317.78 208.634 1316.08 209.174C1314.2 209.714 1313.07 212.234 1311.19 212.594C1309.3 212.954 1307.04 211.154 1305.16 211.334C1303.28 211.514 1301.58 213.854 1299.7 213.854C1297.81 213.854 1295.93 211.874 1294.05 211.694C1292.16 211.694 1290.09 213.674 1288.21 213.314C1286.32 213.134 1284.82 210.614 1282.93 210.254C1281.05 209.894 1278.79 211.514 1276.9 210.974C1275.02 210.434 1274.08 207.914 1272.2 207.194C1271.82 207.014 1271.25 207.014 1270.69 207.014C1270.69 207.914 1270.69 208.814 1270.31 209.534C1270.31 209.714 1270.31 209.714 1270.12 209.894C1269.75 210.434 1269.37 210.794 1268.99 210.974C1268.43 211.334 1267.86 211.514 1267.3 211.874C1266.73 212.234 1266.17 212.414 1265.6 212.774C1265.04 213.134 1264.66 213.494 1264.28 213.854C1262.97 215.655 1263.72 218.895 1262.21 220.515C1260.71 222.135 1257.32 221.955 1255.62 223.575C1255.24 223.935 1254.87 224.475 1254.68 225.015C1254.3 225.915 1254.11 226.815 1253.74 227.715C1253.36 228.615 1252.98 229.335 1252.42 229.875C1251.29 230.775 1249.59 230.776 1248.09 231.136C1247.14 231.316 1246.2 231.496 1245.45 232.036C1244.69 232.576 1244.32 233.296 1243.75 234.016C1243.19 235.096 1242.62 236.356 1241.87 237.076C1241.68 237.256 1241.49 237.436 1241.12 237.616C1239.23 238.696 1236.03 237.436 1233.96 238.516C1231.89 239.416 1230.94 242.656 1228.87 243.376C1226.8 244.096 1223.79 242.476 1221.53 243.016C1219.27 243.556 1217.76 246.617 1215.69 247.157C1213.43 247.697 1210.79 245.537 1208.53 245.717C1206.27 246.077 1204.2 248.777 1202.13 248.777C1199.86 248.957 1197.6 246.257 1195.34 246.257C1193.08 246.257 1190.64 248.597 1188.37 248.237C1186.11 248.057 1184.42 245.176 1182.16 244.636C1181.41 244.456 1180.46 244.637 1179.52 244.817C1178.96 244.997 1178.2 245.177 1177.64 245.357C1176.7 245.537 1175.75 245.717 1175 245.537C1173.87 245.176 1173.12 244.276 1172.18 243.376C1171.23 242.476 1170.48 241.396 1169.35 241.036C1167.28 240.316 1164.08 241.756 1162 240.856C1159.93 239.956 1159.18 236.716 1157.3 235.636C1155.41 234.556 1152.02 235.456 1150.14 234.196C1149.95 234.016 1149.76 233.836 1149.57 233.656C1149.01 232.936 1148.63 232.216 1148.25 231.316C1147.69 230.236 1147.31 228.975 1146.37 228.255C1144.67 226.815 1141.1 227.355 1139.59 225.735C1138.08 224.295 1138.46 220.875 1136.95 219.255C1136.2 218.355 1135.07 217.995 1133.75 217.635C1132.81 217.275 1131.87 216.915 1131.3 216.375C1131.11 216.195 1130.92 216.015 1130.74 215.835C1130.17 214.934 1129.98 213.674 1129.98 212.414C1129.98 211.514 1129.98 210.614 1129.61 209.714C1129.61 209.534 1129.42 209.174 1129.23 208.994C1128.66 208.094 1127.53 207.374 1126.4 206.834C1125.27 206.114 1124.14 205.574 1123.77 204.494C1122.82 202.514 1124.33 199.633 1123.39 197.473C1122.64 195.493 1119.25 194.233 1118.68 192.253C1118.12 190.093 1120 187.393 1119.62 185.413C1119.06 183.252 1116.04 181.632 1115.86 179.472C1115.67 177.852 1116.99 176.052 1117.55 174.432C1117.74 173.892 1117.93 173.352 1117.93 172.812C1117.74 170.652 1115.1 168.491 1115.29 166.331C1115.29 165.071 1116.23 163.991 1116.99 162.911C1116.61 162.191 1116.23 161.471 1115.86 161.111C1114.35 160.031 1111.52 160.391 1110.2 159.131C1108.89 157.871 1109.26 154.99 1107.94 153.73C1106.63 152.29 1103.8 152.29 1102.67 150.85C1102.48 150.49 1102.29 150.13 1102.11 149.59C1102.11 149.05 1101.92 148.51 1101.92 148.15C1101.92 147.97 1101.92 147.61 1101.92 147.43C1101.92 146.89 1101.73 146.35 1101.73 145.99C1101.73 145.81 1101.54 145.63 1101.35 145.27C1101.16 144.91 1100.79 144.55 1100.41 144.19C1099.09 143.29 1097.4 142.75 1096.83 141.49C1096.08 139.869 1097.21 137.349 1096.64 135.729C1095.14 134.109 1092.31 133.209 1091.93 131.409Z" fill="#23342B" stroke="#FFF6E9" stroke-width="2" mask="url(#path-2-inside-2_350_280)"/>
<path d="M1158.49 100.878L1158.49 100.879C1159.06 101.071 1172.88 105.744 1184.29 113.378C1195.58 120.933 1199.69 126.441 1199.93 126.772C1200.13 127.076 1200.13 127.364 1200.02 127.589C1198.83 130.094 1196.52 131.786 1193.56 132.888C1190.59 133.991 1187.07 134.464 1183.61 134.585C1176.7 134.827 1170.31 133.654 1169.8 133.558L1169.8 133.558C1169.62 133.524 1169.44 133.419 1169.32 133.257C1168.81 132.601 1167.21 130.479 1165.3 127.555C1162.83 123.792 1159.89 118.746 1158.1 113.806C1156.28 108.793 1155.77 104.228 1157.67 101.16L1157.67 101.16C1157.83 100.895 1158.16 100.769 1158.49 100.878Z" fill="#EA83AA" stroke="#FFF6E9" stroke-width="2"/>
<path d="M1204.91 60.3974L1204.91 60.3991C1205.12 60.7677 1205.01 61.1843 1204.73 61.384L1204.73 61.3841C1204.18 61.7805 1191.3 70.969 1180.11 75.3834L1180.11 75.3834C1168.82 79.8372 1160.85 79.3205 1160.59 79.3025C1160.36 79.2851 1160.13 79.1535 1159.99 78.9365C1159.97 78.9096 1159.96 78.8897 1159.95 78.8743L1159.95 78.8742L1159.94 78.865C1158.62 76.3204 1158.58 73.3731 1159.39 70.27C1160.19 67.1635 1161.82 63.9882 1163.68 61.0897C1167.41 55.2965 1171.96 50.7956 1172.33 50.441C1172.44 50.3261 1172.6 50.2573 1172.77 50.2492C1173.29 50.2255 1179.82 49.9487 1187.02 51.1304C1190.62 51.7213 1194.35 52.6704 1197.56 54.1727C1200.78 55.6767 1203.4 57.6994 1204.91 60.3974Z" fill="#EA83AA" stroke="#FFF6E9" stroke-width="2"/>
<path d="M1220.88 75.8277C1220.88 75.8277 1220.88 75.8277 1220.88 75.8277L1220.87 74.8277C1220.49 74.8326 1220.13 74.9615 1219.84 75.195C1219.63 75.3645 1214.61 79.5154 1212.13 93.2626C1209.67 106.912 1215.16 119.607 1215.39 120.141M1220.88 75.8277C1220.73 75.8297 1220.58 75.8829 1220.46 75.9759L1220.46 75.9774C1220.46 75.9774 1220.44 75.9931 1220.4 76.0263C1220.37 76.0592 1220.31 76.1087 1220.24 76.1761C1220.1 76.3111 1219.9 76.518 1219.65 76.8079C1219.15 77.3874 1218.47 78.2999 1217.7 79.6342C1216.17 82.3017 1214.34 86.6659 1213.12 93.4398L1213.12 93.4399C1210.72 106.767 1216.08 119.215 1216.3 119.737M1220.88 75.8277C1223.24 75.7988 1225.43 76.9939 1227.45 79.0321C1229.47 81.0701 1231.23 83.8639 1232.71 86.8021C1235.66 92.6728 1237.35 98.8975 1237.68 100.169C1237.73 100.359 1237.71 100.55 1237.63 100.708L1220.88 75.8277ZM1216.3 119.737C1216.3 119.737 1216.3 119.737 1216.3 119.737L1215.39 120.141M1216.3 119.737C1216.3 119.738 1216.31 119.738 1216.31 119.739L1215.39 120.141M1216.3 119.737C1216.32 119.783 1216.35 119.824 1216.37 119.861C1216.53 120.105 1216.8 120.239 1217.06 120.227M1215.39 120.141C1215.43 120.235 1215.48 120.324 1215.53 120.409C1215.88 120.936 1216.48 121.255 1217.11 121.226M1217.11 121.226L1217.06 120.227C1217.06 120.227 1217.06 120.227 1217.06 120.227M1217.11 121.226L1217.06 120.227M1217.11 121.226L1237.63 100.709C1237.44 101.089 1234.98 105.9 1231.17 110.669C1229.26 113.055 1227.04 115.4 1224.62 117.174C1222.21 118.95 1219.65 120.107 1217.06 120.227" fill="#EA83AA" stroke="#FFF6E9" stroke-width="2"/>
<path d="M145.637 121.1L145.638 121.1C146.113 120.724 157.592 111.717 170.226 106.352C182.728 101.045 189.589 100.62 189.998 100.6C190.36 100.599 190.604 100.755 190.733 100.968C192.173 103.341 192.326 106.197 191.627 109.279C190.926 112.363 189.392 115.573 187.6 118.532C184.018 124.447 179.536 129.154 179.18 129.524L179.18 129.524C179.05 129.659 178.867 129.748 178.662 129.764C177.838 129.827 175.184 130.008 171.689 130.008C167.191 130.008 161.357 129.709 156.242 128.504C151.05 127.282 146.952 125.208 145.426 121.937L145.426 121.937C145.294 121.655 145.368 121.313 145.637 121.1Z" fill="#EA83AA" stroke="#FFF6E9" stroke-width="2"/>
<path d="M137.186 60.0851L137.188 60.0852C137.61 60.1135 137.897 60.436 137.912 60.7782L137.912 60.7784C137.941 61.4578 138.58 77.2615 136.146 89.0438L136.146 89.0439C133.69 100.93 128.895 107.314 128.737 107.522C128.594 107.71 128.359 107.829 128.099 107.829C128.067 107.829 128.044 107.827 128.027 107.825L128.027 107.825L128.017 107.824C125.16 107.542 122.675 105.957 120.519 103.586C118.36 101.211 116.593 98.1127 115.188 94.9657C112.381 88.6757 111.111 82.3971 111.013 81.8992C110.981 81.7379 111.009 81.5694 111.096 81.4219C111.357 80.9787 114.704 75.36 119.636 69.9799C122.103 67.2897 124.938 64.6907 127.953 62.8263C130.972 60.9598 134.101 59.8727 137.186 60.0851Z" fill="#EA83AA" stroke="#FFF6E9" stroke-width="2"/>
<path d="M158.843 55.1704C158.843 55.1706 158.843 55.1707 158.843 55.1708L157.999 54.6336C157.797 54.952 157.706 55.3256 157.742 55.6976C157.767 55.9687 158.492 62.4412 168.64 72.0403C178.715 81.5717 192.34 83.9355 192.915 84.0316M158.843 55.1704C158.759 55.3029 158.723 55.4545 158.737 55.6026L158.738 55.605C158.738 55.605 158.74 55.6301 158.747 55.6799C158.754 55.7292 158.766 55.802 158.784 55.8976C158.82 56.0886 158.883 56.3706 158.989 56.7376C159.201 57.4714 159.588 58.547 160.286 59.917C161.681 62.6562 164.327 66.5839 169.327 71.3138L169.327 71.3138C179.164 80.6199 192.516 82.9509 193.078 83.045M158.843 55.1704C160.109 53.1827 162.308 52.0054 165.12 51.43C167.932 50.8547 171.235 50.9095 174.502 51.2834C181.029 52.0305 187.166 54.0206 188.41 54.4405C188.597 54.5034 188.744 54.6267 188.833 54.7796L158.843 55.1704ZM193.078 83.045C193.078 83.045 193.078 83.045 193.078 83.045L192.915 84.0316M193.078 83.045C193.079 83.0451 193.079 83.0452 193.08 83.0453L192.915 84.0316M193.078 83.045C193.127 83.0531 193.173 83.0568 193.218 83.0568C193.509 83.0568 193.769 82.9056 193.903 82.6794M192.915 84.0316C193.016 84.0484 193.117 84.0568 193.218 84.0568C193.849 84.0568 194.443 83.731 194.764 83.1881M194.764 83.1881L193.902 82.6797C193.902 82.6796 193.903 82.6795 193.903 82.6794M194.764 83.1881L193.903 82.6794M194.764 83.1881L188.833 54.7804C189.046 55.1499 191.724 59.8438 193.629 65.6434C194.581 68.545 195.328 71.6867 195.489 74.6793C195.65 77.6767 195.22 80.447 193.903 82.6794" fill="#EA83AA" stroke="#FFF6E9" stroke-width="2"/>
</svg>
