<svg width="1811" height="124" viewBox="0 0 1811 124" fill="none" xmlns="http://www.w3.org/2000/svg">
<mask id="path-1-inside-1_56_1115" fill="white">
<path d="M0 89.4286C0 88.5161 1.35818 87.734 1.35818 86.8215C1.494 85.909 0.271638 84.8662 0.543273 84.0841C0.679091 83.1716 2.17308 82.5198 2.44472 81.7377C2.58054 81.477 2.44472 81.086 2.3089 80.6949C2.17309 80.4342 2.17308 80.1735 2.03727 79.9128C1.90145 79.5217 1.90145 79.1307 2.03727 78.87C2.17308 78.4789 2.71636 78.0878 3.25963 77.8271C3.8029 77.5664 4.21035 77.1754 4.48199 76.7843C4.88944 76.0022 4.21035 74.6986 4.75362 73.9165C5.29689 73.1344 6.92671 72.8737 7.46998 72.2219C8.01325 71.4398 7.6058 70.1363 8.28488 69.4845C8.96397 68.8328 10.5938 68.8328 11.4087 68.181C12.0878 67.5292 11.952 66.0954 12.7669 65.5739C13.5818 64.9222 15.2116 65.1829 16.0265 64.6614C16.8414 64.14 16.9772 62.7061 17.928 62.1847C18.0638 62.1847 18.1996 62.0544 18.3354 62.0544C19.2861 61.7937 20.5085 62.0544 21.3234 61.7937C22.2741 61.4026 22.6816 59.9687 23.6323 59.708C24.583 59.317 26.077 59.9687 27.1636 59.708C28.2501 59.4473 28.7934 58.1438 29.8799 57.8831C30.9665 57.6224 32.1888 58.5349 33.2754 58.4045C34.3619 58.2742 35.3126 57.1009 36.3992 56.9706C37.4857 56.8402 38.5723 57.8831 39.6588 57.8831C39.7946 57.8831 39.9304 57.8831 40.0663 57.8831C40.6095 57.2313 40.4737 56.3188 40.6095 55.5367C40.7453 55.0153 40.7453 54.6242 41.1528 54.2332C41.4244 53.9725 41.6961 53.8421 41.9677 53.7117C42.9184 53.3207 44.4124 53.1904 45.0915 52.5386C46.0422 51.7565 45.9064 49.9315 46.8571 49.1494C47.9437 48.3673 49.981 48.628 51.0675 47.9762C52.154 47.3245 52.2899 45.4995 53.5122 44.8477C53.648 44.7174 53.7839 44.7174 54.0555 44.7174C55.2779 44.4567 56.9077 44.8478 57.9942 44.3264C59.2166 43.805 59.7598 42.1103 60.9822 41.5889C62.2046 41.0675 64.106 41.98 65.4642 41.5889C66.8224 41.1978 67.6373 39.6336 68.9955 39.2426H69.1313C70.082 38.5908 71.0327 38.0694 71.4402 37.2873C72.2551 35.723 71.0327 33.3767 71.9834 31.9428C72.9342 30.5089 76.058 29.9875 77.1445 28.684C78.2311 27.2501 77.552 24.7734 78.7743 23.4698C79.9967 22.1663 83.1205 22.1663 84.6145 20.9931C85.9727 19.8199 85.701 17.2129 87.195 16.0397C87.6025 15.779 88.0099 15.5183 88.5532 15.3879C89.6398 15.1272 90.8621 14.9968 91.9487 14.8665C92.4919 14.7361 93.0352 14.6058 93.4427 14.3451C95.0725 13.3023 95.3441 10.6952 96.9739 9.78274C97.2456 9.65238 97.5172 9.52202 97.653 9.52202C99.4186 9.13096 101.863 9.65237 103.357 8.87025C105.123 8.08813 105.938 5.61142 107.839 4.95965C109.741 4.30788 112.457 5.48106 114.359 4.95965C116.26 4.43824 117.482 2.09188 119.52 1.70082C121.421 1.30976 124.002 2.87401 126.039 2.61331C128.076 2.3526 129.706 0.136593 131.743 0.00623974C133.781 -0.124114 135.818 1.83114 137.991 1.83114C140.164 1.83114 142.201 -0.124114 144.239 0.00623974C146.276 0.136593 148.041 2.3526 149.943 2.61331C151.98 2.87401 154.425 1.30976 156.462 1.70082C158.499 2.09188 159.722 4.43824 161.623 4.95965C163.525 5.48106 166.377 4.30788 168.142 4.95965C170.044 5.61142 170.723 8.08813 172.624 8.87025C174.39 9.65237 177.378 8.87027 179.144 9.78274C180.909 10.6952 181.045 13.3023 182.675 14.3451C184.305 15.3879 187.429 14.9969 188.923 16.0397C190.417 17.2129 190.145 19.6896 191.503 20.9931C192.861 22.1663 195.985 22.1663 197.343 23.4698C198.566 24.7734 197.751 27.2501 198.973 28.684C199.924 29.9875 202.504 30.3785 203.863 31.5517C203.998 31.5517 204.134 31.4214 204.27 31.4214C205.628 31.0303 207.394 31.1606 208.345 30.5089C209.703 29.5964 209.974 27.3804 211.333 26.7287C211.468 26.5983 211.74 26.5983 212.012 26.4679C213.506 26.0769 215.543 26.5983 216.901 25.9465C218.395 25.2947 219.074 23.0788 220.704 22.5573C222.334 22.0359 224.643 23.0788 226.272 22.5573C227.902 22.0359 228.989 20.0806 230.619 19.6896C232.248 19.2985 234.422 20.7324 236.051 20.4716C237.681 20.2109 239.175 18.3861 240.941 18.2557C242.706 18.1253 244.472 19.8199 246.238 19.8199C248.003 19.8199 249.769 18.2557 251.535 18.2557C253.3 18.3861 254.794 20.2109 256.424 20.4716C258.19 20.7324 260.227 19.2985 261.857 19.6896C263.487 20.0806 264.573 22.0359 266.203 22.5573C267.833 23.0788 270.142 22.0359 271.771 22.5573C273.401 23.0788 274.08 25.2947 275.574 25.9465C277.068 26.5983 279.649 25.9465 281.143 26.7287C282.637 27.5108 282.773 29.7267 284.131 30.5089C285.489 31.4213 288.205 31.0303 289.428 31.9428C290.65 32.8553 290.514 35.0712 291.601 36.114C292.823 37.1569 295.404 37.1569 296.49 38.3301C297.577 39.5032 296.898 41.5889 297.848 42.7621C298.799 43.9353 301.38 44.3263 302.33 45.4995C303.145 46.803 302.059 48.7583 302.738 50.0619C303.417 51.3654 305.998 52.0172 306.541 53.4511C307.084 54.7546 305.59 56.5796 305.998 58.0135C306.405 59.317 308.714 60.4901 309.121 61.7937C309.257 62.7061 308.578 63.6186 308.171 64.6614C308.578 65.0525 308.85 65.5739 309.257 65.7043C310.208 66.0953 311.702 65.7042 312.517 66.0953C313.332 66.6167 313.467 67.7899 314.282 68.3113C315.097 68.8327 316.591 68.5721 317.406 69.2238C318.221 69.7452 318.085 71.0488 318.764 71.7006C319.444 72.3523 321.073 72.3523 321.617 73.0041C322.296 73.6559 321.888 74.9594 322.431 75.6112C322.975 76.2629 324.605 76.5236 325.012 77.3057C325.555 78.0879 324.876 79.261 325.284 80.0431C325.691 80.8252 327.185 81.2163 327.457 81.9984C327.728 82.7805 326.913 83.8234 327.185 84.7359C327.457 85.518 328.815 86.1697 328.951 86.9518C329.087 87.7339 328 88.7768 328.136 89.5589C328.272 90.341 329.494 91.1232 329.494 92.0356C329.494 92.8178 328.272 93.7303 328.136 94.5124C328 95.2945 329.087 96.3373 328.951 97.1195C328.815 97.9016 327.457 98.5533 327.185 99.3354C326.913 100.118 327.864 101.291 327.457 102.073C327.185 102.855 325.691 103.246 325.284 104.028C324.876 104.81 325.555 105.983 325.012 106.766C324.469 107.548 322.975 107.678 322.431 108.46C321.888 109.112 322.296 110.415 321.617 111.067C320.937 111.719 319.444 111.719 318.764 112.371C318.085 112.892 318.221 114.196 317.542 114.717C317.542 114.717 317.542 114.717 317.406 114.847C317.135 115.108 316.727 115.108 316.32 115.239C315.912 115.369 315.505 115.369 315.097 115.499C314.826 115.499 314.554 115.63 314.418 115.76C314.011 116.021 313.739 116.412 313.603 116.933C313.467 117.194 313.332 117.324 313.196 117.585C313.06 117.715 312.924 117.976 312.653 118.106C311.838 118.497 310.344 118.106 309.393 118.497C308.442 118.888 308.171 120.192 307.22 120.453C306.269 120.844 304.911 120.192 303.96 120.453C303.01 120.713 302.33 121.887 301.38 122.147C300.429 122.408 299.207 121.495 298.12 121.756C297.848 121.756 297.577 121.887 297.441 122.017C297.169 122.147 297.034 122.278 296.762 122.408C296.49 122.538 296.354 122.669 296.083 122.799C295.811 122.929 295.54 122.929 295.404 123.06C294.725 123.06 294.181 122.799 293.502 122.408C293.095 122.278 292.687 122.147 292.28 122.147C291.872 122.147 291.465 122.278 291.058 122.408C290.786 122.538 290.514 122.669 290.243 122.799C289.835 122.929 289.428 123.06 289.156 123.06C288.07 122.929 287.255 121.887 286.304 121.756C286.032 121.756 285.761 121.756 285.489 121.756C284.946 121.887 284.402 122.017 283.859 122.147C283.588 122.147 283.316 122.147 283.044 122.147C282.637 122.017 282.365 121.887 282.094 121.626C281.55 121.235 281.143 120.713 280.464 120.453C279.513 120.192 278.155 120.844 277.204 120.453C276.253 120.062 275.846 118.888 275.031 118.497C274.488 118.237 273.673 118.367 272.858 118.237C272.586 118.367 272.315 118.628 272.043 118.628C270.413 119.149 268.104 118.106 266.475 118.628C265.524 118.888 264.709 119.801 263.758 120.583C263.215 120.974 262.672 121.365 261.993 121.495C260.363 121.887 258.19 120.453 256.56 120.713C254.93 120.974 253.436 122.799 251.67 122.929C249.905 123.06 248.139 121.365 246.374 121.365C244.608 121.365 242.842 122.929 241.077 122.929C240.398 122.929 239.854 122.538 239.175 122.278C238.768 122.017 238.36 121.756 237.953 121.495C237.41 121.104 236.73 120.844 236.051 120.713C234.286 120.453 232.248 121.887 230.619 121.495C228.989 121.104 227.902 119.149 226.272 118.628C224.643 118.106 222.334 119.149 220.704 118.628C219.074 118.106 218.395 115.89 216.901 115.239C216.358 114.978 215.543 114.978 214.728 114.847C214.321 115.499 213.913 116.542 213.234 116.933C212.962 117.063 212.691 117.194 212.283 117.194C212.012 117.194 211.604 117.194 211.197 117.194C211.061 117.194 210.789 117.194 210.653 117.194C210.246 117.194 209.974 117.194 209.703 117.324C209.567 117.324 209.431 117.455 209.295 117.455C209.024 117.585 208.752 117.715 208.616 117.976C208.345 118.237 208.073 118.628 207.665 119.019C207.53 119.279 207.258 119.41 206.986 119.671C206.851 119.801 206.715 119.801 206.579 119.931C205.492 120.322 203.863 119.54 202.64 119.931C201.554 120.192 200.739 121.626 199.516 121.887C198.294 122.147 196.8 121.235 195.578 121.365C194.355 121.495 193.405 122.799 192.182 122.929C190.96 123.06 189.737 121.887 188.515 121.887C187.293 121.887 186.07 123.06 184.848 122.929C183.626 122.799 182.539 121.495 181.453 121.365C180.23 121.235 178.736 122.147 177.514 121.887C177.242 121.887 176.971 121.626 176.699 121.495C175.884 120.974 175.341 120.062 174.39 119.931C174.118 119.801 173.847 119.801 173.439 119.801C172.489 119.801 171.266 120.192 170.451 119.931C169.501 119.54 169.093 118.497 168.278 117.846C168.278 117.846 168.278 117.846 168.142 117.846C167.735 117.976 167.192 118.106 166.648 118.106C165.019 118.106 163.117 117.455 161.623 117.846C160.672 118.106 159.858 118.888 159.043 119.54C158.635 119.931 158.228 120.192 157.82 120.583C157.413 120.844 157.005 121.104 156.462 121.235C154.561 121.626 151.98 120.062 149.943 120.322C147.906 120.583 146.276 122.799 144.239 122.929C142.201 123.06 140.164 121.104 137.991 121.104C135.818 121.104 133.781 123.06 131.743 122.929C130.657 122.799 129.842 122.278 128.891 121.756C127.94 121.104 126.99 120.583 126.039 120.453C124.817 120.322 123.323 120.844 121.964 121.235C121.421 121.365 120.878 121.495 120.335 121.495C120.063 121.495 119.791 121.495 119.52 121.365C117.482 120.974 116.26 118.628 114.359 118.106C112.457 117.585 109.605 118.758 107.839 118.106C107.16 117.846 106.617 117.324 106.074 116.803C105.938 116.803 105.802 116.933 105.666 116.933H105.53C105.395 116.933 105.259 117.063 105.259 117.063C105.259 117.063 105.123 117.063 105.123 117.194C104.444 117.715 104.036 118.497 103.357 119.149C103.086 119.41 102.814 119.54 102.542 119.671C101.32 120.192 99.4186 119.279 98.0605 119.671C96.7023 120.062 95.8874 121.626 94.5292 122.017C94.2576 122.147 93.8501 122.017 93.4427 122.017C92.7636 121.887 91.9487 121.626 91.1338 121.495C90.7263 121.365 90.4547 121.365 90.0472 121.495C88.689 121.626 87.4667 123.19 86.1085 123.32C85.4294 123.32 84.7503 123.06 83.9354 122.799C83.3921 122.538 82.8489 122.278 82.3056 122.147C82.1698 122.147 81.8981 122.147 81.7623 122.147C80.4041 122.147 78.9101 123.451 77.552 123.32C76.1938 123.19 74.9714 121.756 73.6133 121.495C72.2551 121.365 70.4894 122.408 69.1313 122.147C67.7731 121.887 66.9582 120.192 65.6 119.801C64.6493 119.54 63.2911 119.931 62.2046 119.931C61.7971 119.931 61.5255 119.931 61.118 119.801C60.9822 119.801 60.8464 119.671 60.7106 119.54C60.1673 119.149 59.8957 118.758 59.4882 118.237H59.3524C58.9449 118.237 58.4017 118.237 58.13 118.497C57.5868 118.758 57.1793 119.41 56.636 119.931C56.5002 120.062 56.5002 120.192 56.3644 120.192C56.2286 120.322 55.9569 120.583 55.6853 120.583C55.5495 120.583 55.4137 120.713 55.2778 120.713C54.7346 120.844 54.0555 120.713 53.5122 120.583C53.3764 120.583 53.2406 120.583 53.1048 120.583C52.9689 120.583 52.8331 120.583 52.6973 120.583C52.5615 120.583 52.4257 120.583 52.2899 120.713C51.475 120.974 50.9317 121.756 50.2526 122.147C49.981 122.278 49.8451 122.408 49.5735 122.538C48.487 122.799 47.2646 121.887 46.1781 122.017C45.0915 122.147 44.1408 123.32 43.0542 123.451C42.3752 123.451 41.6961 123.06 41.017 122.799C40.6095 122.669 40.2021 122.538 39.7946 122.538C39.523 122.538 39.2514 122.538 38.9797 122.669C38.5723 122.799 38.1648 123.06 37.7574 123.19C37.4857 123.32 37.2141 123.451 36.9424 123.451C36.8066 123.451 36.6708 123.451 36.535 123.451C35.4485 123.32 34.4977 122.278 33.4112 122.017C32.3246 121.887 30.9665 122.669 30.0157 122.538C29.2008 122.408 28.6576 121.626 27.9785 121.104C27.7068 120.974 27.571 120.844 27.2994 120.713C26.2128 120.453 24.8547 121.104 23.7681 120.713C22.8174 120.322 22.4099 119.019 21.4592 118.628C20.5085 118.237 18.8787 118.628 18.0638 118.106C17.7921 117.976 17.6563 117.846 17.5205 117.585C17.2489 117.194 16.9772 116.672 16.7056 116.281C16.5698 116.021 16.434 115.89 16.1623 115.76C15.3474 115.239 13.5818 115.499 12.9027 114.847C12.0878 114.196 12.2236 112.892 11.5445 112.24C11.0012 111.719 9.9147 111.589 9.09979 111.328C8.82816 111.198 8.55652 111.067 8.42071 110.937C7.74162 110.285 8.14907 108.851 7.6058 108.199C7.06252 107.417 5.29689 107.287 4.88944 106.505C4.34617 105.723 5.02526 104.419 4.61781 103.637C4.48199 103.376 4.07453 103.116 3.8029 102.855C3.53126 102.725 3.25963 102.594 3.12381 102.334C2.71636 102.073 2.44472 101.812 2.3089 101.551C1.90145 100.769 2.85218 99.5961 2.58054 98.6836C2.3089 97.7712 0.814907 97.1194 0.679089 96.3373C0.543271 95.4248 1.62981 94.5124 1.49399 93.5999C1.35818 91.1232 0 90.2107 0 89.4286Z"/>
</mask>
<path d="M0 89.4286C0 88.5161 1.35818 87.734 1.35818 86.8215C1.494 85.909 0.271638 84.8662 0.543273 84.0841C0.679091 83.1716 2.17308 82.5198 2.44472 81.7377C2.58054 81.477 2.44472 81.086 2.3089 80.6949C2.17309 80.4342 2.17308 80.1735 2.03727 79.9128C1.90145 79.5217 1.90145 79.1307 2.03727 78.87C2.17308 78.4789 2.71636 78.0878 3.25963 77.8271C3.8029 77.5664 4.21035 77.1754 4.48199 76.7843C4.88944 76.0022 4.21035 74.6986 4.75362 73.9165C5.29689 73.1344 6.92671 72.8737 7.46998 72.2219C8.01325 71.4398 7.6058 70.1363 8.28488 69.4845C8.96397 68.8328 10.5938 68.8328 11.4087 68.181C12.0878 67.5292 11.952 66.0954 12.7669 65.5739C13.5818 64.9222 15.2116 65.1829 16.0265 64.6614C16.8414 64.14 16.9772 62.7061 17.928 62.1847C18.0638 62.1847 18.1996 62.0544 18.3354 62.0544C19.2861 61.7937 20.5085 62.0544 21.3234 61.7937C22.2741 61.4026 22.6816 59.9687 23.6323 59.708C24.583 59.317 26.077 59.9687 27.1636 59.708C28.2501 59.4473 28.7934 58.1438 29.8799 57.8831C30.9665 57.6224 32.1888 58.5349 33.2754 58.4045C34.3619 58.2742 35.3126 57.1009 36.3992 56.9706C37.4857 56.8402 38.5723 57.8831 39.6588 57.8831C39.7946 57.8831 39.9304 57.8831 40.0663 57.8831C40.6095 57.2313 40.4737 56.3188 40.6095 55.5367C40.7453 55.0153 40.7453 54.6242 41.1528 54.2332C41.4244 53.9725 41.6961 53.8421 41.9677 53.7117C42.9184 53.3207 44.4124 53.1904 45.0915 52.5386C46.0422 51.7565 45.9064 49.9315 46.8571 49.1494C47.9437 48.3673 49.981 48.628 51.0675 47.9762C52.154 47.3245 52.2899 45.4995 53.5122 44.8477C53.648 44.7174 53.7839 44.7174 54.0555 44.7174C55.2779 44.4567 56.9077 44.8478 57.9942 44.3264C59.2166 43.805 59.7598 42.1103 60.9822 41.5889C62.2046 41.0675 64.106 41.98 65.4642 41.5889C66.8224 41.1978 67.6373 39.6336 68.9955 39.2426H69.1313C70.082 38.5908 71.0327 38.0694 71.4402 37.2873C72.2551 35.723 71.0327 33.3767 71.9834 31.9428C72.9342 30.5089 76.058 29.9875 77.1445 28.684C78.2311 27.2501 77.552 24.7734 78.7743 23.4698C79.9967 22.1663 83.1205 22.1663 84.6145 20.9931C85.9727 19.8199 85.701 17.2129 87.195 16.0397C87.6025 15.779 88.0099 15.5183 88.5532 15.3879C89.6398 15.1272 90.8621 14.9968 91.9487 14.8665C92.4919 14.7361 93.0352 14.6058 93.4427 14.3451C95.0725 13.3023 95.3441 10.6952 96.9739 9.78274C97.2456 9.65238 97.5172 9.52202 97.653 9.52202C99.4186 9.13096 101.863 9.65237 103.357 8.87025C105.123 8.08813 105.938 5.61142 107.839 4.95965C109.741 4.30788 112.457 5.48106 114.359 4.95965C116.26 4.43824 117.482 2.09188 119.52 1.70082C121.421 1.30976 124.002 2.87401 126.039 2.61331C128.076 2.3526 129.706 0.136593 131.743 0.00623974C133.781 -0.124114 135.818 1.83114 137.991 1.83114C140.164 1.83114 142.201 -0.124114 144.239 0.00623974C146.276 0.136593 148.041 2.3526 149.943 2.61331C151.98 2.87401 154.425 1.30976 156.462 1.70082C158.499 2.09188 159.722 4.43824 161.623 4.95965C163.525 5.48106 166.377 4.30788 168.142 4.95965C170.044 5.61142 170.723 8.08813 172.624 8.87025C174.39 9.65237 177.378 8.87027 179.144 9.78274C180.909 10.6952 181.045 13.3023 182.675 14.3451C184.305 15.3879 187.429 14.9969 188.923 16.0397C190.417 17.2129 190.145 19.6896 191.503 20.9931C192.861 22.1663 195.985 22.1663 197.343 23.4698C198.566 24.7734 197.751 27.2501 198.973 28.684C199.924 29.9875 202.504 30.3785 203.863 31.5517C203.998 31.5517 204.134 31.4214 204.27 31.4214C205.628 31.0303 207.394 31.1606 208.345 30.5089C209.703 29.5964 209.974 27.3804 211.333 26.7287C211.468 26.5983 211.74 26.5983 212.012 26.4679C213.506 26.0769 215.543 26.5983 216.901 25.9465C218.395 25.2947 219.074 23.0788 220.704 22.5573C222.334 22.0359 224.643 23.0788 226.272 22.5573C227.902 22.0359 228.989 20.0806 230.619 19.6896C232.248 19.2985 234.422 20.7324 236.051 20.4716C237.681 20.2109 239.175 18.3861 240.941 18.2557C242.706 18.1253 244.472 19.8199 246.238 19.8199C248.003 19.8199 249.769 18.2557 251.535 18.2557C253.3 18.3861 254.794 20.2109 256.424 20.4716C258.19 20.7324 260.227 19.2985 261.857 19.6896C263.487 20.0806 264.573 22.0359 266.203 22.5573C267.833 23.0788 270.142 22.0359 271.771 22.5573C273.401 23.0788 274.08 25.2947 275.574 25.9465C277.068 26.5983 279.649 25.9465 281.143 26.7287C282.637 27.5108 282.773 29.7267 284.131 30.5089C285.489 31.4213 288.205 31.0303 289.428 31.9428C290.65 32.8553 290.514 35.0712 291.601 36.114C292.823 37.1569 295.404 37.1569 296.49 38.3301C297.577 39.5032 296.898 41.5889 297.848 42.7621C298.799 43.9353 301.38 44.3263 302.33 45.4995C303.145 46.803 302.059 48.7583 302.738 50.0619C303.417 51.3654 305.998 52.0172 306.541 53.4511C307.084 54.7546 305.59 56.5796 305.998 58.0135C306.405 59.317 308.714 60.4901 309.121 61.7937C309.257 62.7061 308.578 63.6186 308.171 64.6614C308.578 65.0525 308.85 65.5739 309.257 65.7043C310.208 66.0953 311.702 65.7042 312.517 66.0953C313.332 66.6167 313.467 67.7899 314.282 68.3113C315.097 68.8327 316.591 68.5721 317.406 69.2238C318.221 69.7452 318.085 71.0488 318.764 71.7006C319.444 72.3523 321.073 72.3523 321.617 73.0041C322.296 73.6559 321.888 74.9594 322.431 75.6112C322.975 76.2629 324.605 76.5236 325.012 77.3057C325.555 78.0879 324.876 79.261 325.284 80.0431C325.691 80.8252 327.185 81.2163 327.457 81.9984C327.728 82.7805 326.913 83.8234 327.185 84.7359C327.457 85.518 328.815 86.1697 328.951 86.9518C329.087 87.7339 328 88.7768 328.136 89.5589C328.272 90.341 329.494 91.1232 329.494 92.0356C329.494 92.8178 328.272 93.7303 328.136 94.5124C328 95.2945 329.087 96.3373 328.951 97.1195C328.815 97.9016 327.457 98.5533 327.185 99.3354C326.913 100.118 327.864 101.291 327.457 102.073C327.185 102.855 325.691 103.246 325.284 104.028C324.876 104.81 325.555 105.983 325.012 106.766C324.469 107.548 322.975 107.678 322.431 108.46C321.888 109.112 322.296 110.415 321.617 111.067C320.937 111.719 319.444 111.719 318.764 112.371C318.085 112.892 318.221 114.196 317.542 114.717C317.542 114.717 317.542 114.717 317.406 114.847C317.135 115.108 316.727 115.108 316.32 115.239C315.912 115.369 315.505 115.369 315.097 115.499C314.826 115.499 314.554 115.63 314.418 115.76C314.011 116.021 313.739 116.412 313.603 116.933C313.467 117.194 313.332 117.324 313.196 117.585C313.06 117.715 312.924 117.976 312.653 118.106C311.838 118.497 310.344 118.106 309.393 118.497C308.442 118.888 308.171 120.192 307.22 120.453C306.269 120.844 304.911 120.192 303.96 120.453C303.01 120.713 302.33 121.887 301.38 122.147C300.429 122.408 299.207 121.495 298.12 121.756C297.848 121.756 297.577 121.887 297.441 122.017C297.169 122.147 297.034 122.278 296.762 122.408C296.49 122.538 296.354 122.669 296.083 122.799C295.811 122.929 295.54 122.929 295.404 123.06C294.725 123.06 294.181 122.799 293.502 122.408C293.095 122.278 292.687 122.147 292.28 122.147C291.872 122.147 291.465 122.278 291.058 122.408C290.786 122.538 290.514 122.669 290.243 122.799C289.835 122.929 289.428 123.06 289.156 123.06C288.07 122.929 287.255 121.887 286.304 121.756C286.032 121.756 285.761 121.756 285.489 121.756C284.946 121.887 284.402 122.017 283.859 122.147C283.588 122.147 283.316 122.147 283.044 122.147C282.637 122.017 282.365 121.887 282.094 121.626C281.55 121.235 281.143 120.713 280.464 120.453C279.513 120.192 278.155 120.844 277.204 120.453C276.253 120.062 275.846 118.888 275.031 118.497C274.488 118.237 273.673 118.367 272.858 118.237C272.586 118.367 272.315 118.628 272.043 118.628C270.413 119.149 268.104 118.106 266.475 118.628C265.524 118.888 264.709 119.801 263.758 120.583C263.215 120.974 262.672 121.365 261.993 121.495C260.363 121.887 258.19 120.453 256.56 120.713C254.93 120.974 253.436 122.799 251.67 122.929C249.905 123.06 248.139 121.365 246.374 121.365C244.608 121.365 242.842 122.929 241.077 122.929C240.398 122.929 239.854 122.538 239.175 122.278C238.768 122.017 238.36 121.756 237.953 121.495C237.41 121.104 236.73 120.844 236.051 120.713C234.286 120.453 232.248 121.887 230.619 121.495C228.989 121.104 227.902 119.149 226.272 118.628C224.643 118.106 222.334 119.149 220.704 118.628C219.074 118.106 218.395 115.89 216.901 115.239C216.358 114.978 215.543 114.978 214.728 114.847C214.321 115.499 213.913 116.542 213.234 116.933C212.962 117.063 212.691 117.194 212.283 117.194C212.012 117.194 211.604 117.194 211.197 117.194C211.061 117.194 210.789 117.194 210.653 117.194C210.246 117.194 209.974 117.194 209.703 117.324C209.567 117.324 209.431 117.455 209.295 117.455C209.024 117.585 208.752 117.715 208.616 117.976C208.345 118.237 208.073 118.628 207.665 119.019C207.53 119.279 207.258 119.41 206.986 119.671C206.851 119.801 206.715 119.801 206.579 119.931C205.492 120.322 203.863 119.54 202.64 119.931C201.554 120.192 200.739 121.626 199.516 121.887C198.294 122.147 196.8 121.235 195.578 121.365C194.355 121.495 193.405 122.799 192.182 122.929C190.96 123.06 189.737 121.887 188.515 121.887C187.293 121.887 186.07 123.06 184.848 122.929C183.626 122.799 182.539 121.495 181.453 121.365C180.23 121.235 178.736 122.147 177.514 121.887C177.242 121.887 176.971 121.626 176.699 121.495C175.884 120.974 175.341 120.062 174.39 119.931C174.118 119.801 173.847 119.801 173.439 119.801C172.489 119.801 171.266 120.192 170.451 119.931C169.501 119.54 169.093 118.497 168.278 117.846C168.278 117.846 168.278 117.846 168.142 117.846C167.735 117.976 167.192 118.106 166.648 118.106C165.019 118.106 163.117 117.455 161.623 117.846C160.672 118.106 159.858 118.888 159.043 119.54C158.635 119.931 158.228 120.192 157.82 120.583C157.413 120.844 157.005 121.104 156.462 121.235C154.561 121.626 151.98 120.062 149.943 120.322C147.906 120.583 146.276 122.799 144.239 122.929C142.201 123.06 140.164 121.104 137.991 121.104C135.818 121.104 133.781 123.06 131.743 122.929C130.657 122.799 129.842 122.278 128.891 121.756C127.94 121.104 126.99 120.583 126.039 120.453C124.817 120.322 123.323 120.844 121.964 121.235C121.421 121.365 120.878 121.495 120.335 121.495C120.063 121.495 119.791 121.495 119.52 121.365C117.482 120.974 116.26 118.628 114.359 118.106C112.457 117.585 109.605 118.758 107.839 118.106C107.16 117.846 106.617 117.324 106.074 116.803C105.938 116.803 105.802 116.933 105.666 116.933H105.53C105.395 116.933 105.259 117.063 105.259 117.063C105.259 117.063 105.123 117.063 105.123 117.194C104.444 117.715 104.036 118.497 103.357 119.149C103.086 119.41 102.814 119.54 102.542 119.671C101.32 120.192 99.4186 119.279 98.0605 119.671C96.7023 120.062 95.8874 121.626 94.5292 122.017C94.2576 122.147 93.8501 122.017 93.4427 122.017C92.7636 121.887 91.9487 121.626 91.1338 121.495C90.7263 121.365 90.4547 121.365 90.0472 121.495C88.689 121.626 87.4667 123.19 86.1085 123.32C85.4294 123.32 84.7503 123.06 83.9354 122.799C83.3921 122.538 82.8489 122.278 82.3056 122.147C82.1698 122.147 81.8981 122.147 81.7623 122.147C80.4041 122.147 78.9101 123.451 77.552 123.32C76.1938 123.19 74.9714 121.756 73.6133 121.495C72.2551 121.365 70.4894 122.408 69.1313 122.147C67.7731 121.887 66.9582 120.192 65.6 119.801C64.6493 119.54 63.2911 119.931 62.2046 119.931C61.7971 119.931 61.5255 119.931 61.118 119.801C60.9822 119.801 60.8464 119.671 60.7106 119.54C60.1673 119.149 59.8957 118.758 59.4882 118.237H59.3524C58.9449 118.237 58.4017 118.237 58.13 118.497C57.5868 118.758 57.1793 119.41 56.636 119.931C56.5002 120.062 56.5002 120.192 56.3644 120.192C56.2286 120.322 55.9569 120.583 55.6853 120.583C55.5495 120.583 55.4137 120.713 55.2778 120.713C54.7346 120.844 54.0555 120.713 53.5122 120.583C53.3764 120.583 53.2406 120.583 53.1048 120.583C52.9689 120.583 52.8331 120.583 52.6973 120.583C52.5615 120.583 52.4257 120.583 52.2899 120.713C51.475 120.974 50.9317 121.756 50.2526 122.147C49.981 122.278 49.8451 122.408 49.5735 122.538C48.487 122.799 47.2646 121.887 46.1781 122.017C45.0915 122.147 44.1408 123.32 43.0542 123.451C42.3752 123.451 41.6961 123.06 41.017 122.799C40.6095 122.669 40.2021 122.538 39.7946 122.538C39.523 122.538 39.2514 122.538 38.9797 122.669C38.5723 122.799 38.1648 123.06 37.7574 123.19C37.4857 123.32 37.2141 123.451 36.9424 123.451C36.8066 123.451 36.6708 123.451 36.535 123.451C35.4485 123.32 34.4977 122.278 33.4112 122.017C32.3246 121.887 30.9665 122.669 30.0157 122.538C29.2008 122.408 28.6576 121.626 27.9785 121.104C27.7068 120.974 27.571 120.844 27.2994 120.713C26.2128 120.453 24.8547 121.104 23.7681 120.713C22.8174 120.322 22.4099 119.019 21.4592 118.628C20.5085 118.237 18.8787 118.628 18.0638 118.106C17.7921 117.976 17.6563 117.846 17.5205 117.585C17.2489 117.194 16.9772 116.672 16.7056 116.281C16.5698 116.021 16.434 115.89 16.1623 115.76C15.3474 115.239 13.5818 115.499 12.9027 114.847C12.0878 114.196 12.2236 112.892 11.5445 112.24C11.0012 111.719 9.9147 111.589 9.09979 111.328C8.82816 111.198 8.55652 111.067 8.42071 110.937C7.74162 110.285 8.14907 108.851 7.6058 108.199C7.06252 107.417 5.29689 107.287 4.88944 106.505C4.34617 105.723 5.02526 104.419 4.61781 103.637C4.48199 103.376 4.07453 103.116 3.8029 102.855C3.53126 102.725 3.25963 102.594 3.12381 102.334C2.71636 102.073 2.44472 101.812 2.3089 101.551C1.90145 100.769 2.85218 99.5961 2.58054 98.6836C2.3089 97.7712 0.814907 97.1194 0.679089 96.3373C0.543271 95.4248 1.62981 94.5124 1.49399 93.5999C1.35818 91.1232 0 90.2107 0 89.4286Z" fill="#23342B" stroke="white" stroke-width="2" mask="url(#path-1-inside-1_56_1115)"/>
<mask id="path-2-inside-2_56_1115" fill="white">
<path d="M1810.72 89.7074C1810.72 88.7921 1809.37 88.0075 1809.37 87.0922C1809.23 86.1769 1810.45 85.1308 1810.18 84.3463C1810.04 83.431 1808.55 82.7771 1808.28 81.9926C1808.14 81.731 1808.28 81.3388 1808.41 80.9465C1808.55 80.685 1808.55 80.4235 1808.69 80.162C1808.82 79.7697 1808.82 79.3774 1808.69 79.1159C1808.55 78.7236 1808.01 78.3313 1807.46 78.0698C1806.92 77.8082 1806.51 77.416 1806.24 77.0237C1805.83 76.2391 1806.51 74.9315 1805.97 74.147C1805.43 73.3624 1803.8 73.1009 1803.25 72.4471C1802.71 71.6626 1803.12 70.355 1802.44 69.7012C1801.76 69.0474 1800.13 69.0474 1799.31 68.3936C1798.64 67.7398 1798.77 66.3014 1797.96 65.7784C1797.14 65.1246 1795.51 65.3861 1794.7 64.8631C1793.88 64.34 1793.75 62.9016 1792.8 62.3786C1792.66 62.3786 1792.52 62.2479 1792.39 62.2479C1791.44 61.9863 1790.22 62.2478 1789.4 61.9863C1788.45 61.5941 1788.04 60.1557 1787.09 59.8942C1786.14 59.5019 1784.65 60.1557 1783.56 59.8942C1782.47 59.6327 1781.93 58.3251 1780.84 58.0635C1779.76 57.802 1778.53 58.7174 1777.45 58.5866C1776.36 58.4558 1775.41 57.279 1774.32 57.1482C1773.24 57.0174 1772.15 58.0635 1771.06 58.0635C1770.93 58.0635 1770.79 58.0635 1770.66 58.0635C1770.11 57.4097 1770.25 56.4944 1770.11 55.7099C1769.98 55.1868 1769.98 54.7946 1769.57 54.4023C1769.3 54.1408 1769.03 54.01 1768.76 53.8792C1767.81 53.4869 1766.31 53.3562 1765.63 52.7024C1764.68 51.9179 1764.82 50.0872 1763.87 49.3026C1762.78 48.5181 1760.74 48.7796 1759.66 48.1258C1758.57 47.472 1758.43 45.6414 1757.21 44.9876C1757.08 44.8568 1756.94 44.8568 1756.67 44.8568C1755.45 44.5953 1753.82 44.9876 1752.73 44.4646C1751.51 43.9415 1750.96 42.2416 1749.74 41.7186C1748.52 41.1955 1746.62 42.1108 1745.26 41.7186C1743.9 41.3263 1743.09 39.7572 1741.73 39.3649H1741.59C1740.64 38.7111 1739.69 38.1881 1739.28 37.4035C1738.47 35.8344 1739.69 33.4808 1738.74 32.0424C1737.79 30.604 1734.67 30.081 1733.58 28.7734C1732.49 27.335 1733.17 24.8506 1731.95 23.543C1730.73 22.2354 1727.6 22.2354 1726.11 21.0585C1724.75 19.8817 1725.02 17.2665 1723.53 16.0897C1723.12 15.8282 1722.71 15.5667 1722.17 15.4359C1721.08 15.1744 1719.86 15.0436 1718.77 14.9128C1718.23 14.7821 1717.69 14.6514 1717.28 14.3898C1715.65 13.3438 1715.38 10.7286 1713.75 9.81324C1713.48 9.68248 1713.21 9.5517 1713.07 9.5517C1711.3 9.15942 1708.86 9.68246 1707.37 8.89791C1705.6 8.11335 1704.79 5.62891 1702.88 4.97511C1700.98 4.32131 1698.27 5.49815 1696.37 4.97511C1694.46 4.45207 1693.24 2.0984 1691.2 1.70612C1689.3 1.31384 1686.72 2.88297 1684.68 2.62145C1682.65 2.35993 1681.02 0.137019 1678.98 0.0062592C1676.94 -0.124501 1674.91 1.83685 1672.73 1.83685C1670.56 1.83685 1668.52 -0.124501 1666.49 0.0062592C1664.45 0.137019 1662.68 2.35993 1660.78 2.62145C1658.74 2.88297 1656.3 1.31384 1654.26 1.70612C1652.22 2.0984 1651 4.45207 1649.1 4.97511C1647.2 5.49815 1644.35 4.32131 1642.58 4.97511C1640.68 5.62891 1640 8.11335 1638.1 8.89791C1636.33 9.68246 1633.35 8.89792 1631.58 9.81324C1629.81 10.7286 1629.68 13.3438 1628.05 14.3898C1626.42 15.4359 1623.3 15.0436 1621.8 16.0897C1620.31 17.2665 1620.58 19.7509 1619.22 21.0585C1617.86 22.2354 1614.74 22.2354 1613.38 23.543C1612.16 24.8506 1612.97 27.335 1611.75 28.7734C1610.8 30.081 1608.22 30.4732 1606.86 31.6501C1606.73 31.6501 1606.59 31.5193 1606.45 31.5193C1605.1 31.127 1603.33 31.2578 1602.38 30.604C1601.02 29.6887 1600.75 27.4658 1599.39 26.812C1599.26 26.6812 1598.98 26.6812 1598.71 26.5505C1597.22 26.1582 1595.18 26.6812 1593.82 26.0274C1592.33 25.3736 1591.65 23.1507 1590.02 22.6277C1588.39 22.1046 1586.08 23.1507 1584.45 22.6277C1582.82 22.1046 1581.73 20.1432 1580.1 19.7509C1578.48 19.3587 1576.3 20.797 1574.67 20.5355C1573.04 20.274 1571.55 18.4434 1569.78 18.3126C1568.02 18.1819 1566.25 19.8817 1564.49 19.8817C1562.72 19.8817 1560.95 18.3126 1559.19 18.3126C1557.42 18.4434 1555.93 20.274 1554.3 20.5355C1552.53 20.797 1550.5 19.3587 1548.87 19.7509C1547.24 20.1432 1546.15 22.1046 1544.52 22.6277C1542.89 23.1507 1540.58 22.1046 1538.95 22.6277C1537.32 23.1507 1536.64 25.3736 1535.15 26.0274C1533.66 26.6812 1531.07 26.0274 1529.58 26.812C1528.09 27.5966 1527.95 29.8194 1526.59 30.604C1525.23 31.5193 1522.52 31.1271 1521.3 32.0424C1520.07 32.9577 1520.21 35.1806 1519.12 36.2266C1517.9 37.2727 1515.32 37.2727 1514.23 38.4496C1513.15 39.6264 1513.83 41.7186 1512.88 42.8954C1511.92 44.0723 1509.34 44.4645 1508.39 45.6414C1507.58 46.949 1508.66 48.9104 1507.99 50.218C1507.31 51.5256 1504.73 52.1794 1504.18 53.6178C1503.64 54.9254 1505.13 56.756 1504.73 58.1943C1504.32 59.5019 1502.01 60.6787 1501.6 61.9863C1501.47 62.9016 1502.15 63.817 1502.55 64.8631C1502.15 65.2553 1501.87 65.7784 1501.47 65.9091C1500.52 66.3014 1499.02 65.9091 1498.21 66.3014C1497.39 66.8244 1497.26 68.0013 1496.44 68.5243C1495.63 69.0474 1494.13 68.7859 1493.32 69.4397C1492.5 69.9627 1492.64 71.2703 1491.96 71.9241C1491.28 72.5779 1489.65 72.5779 1489.11 73.2317C1488.43 73.8855 1488.84 75.1931 1488.29 75.8469C1487.75 76.5007 1486.12 76.7622 1485.71 77.5468C1485.17 78.3313 1485.85 79.5081 1485.44 80.2927C1485.03 81.0772 1483.54 81.4695 1483.27 82.2541C1483 83.0387 1483.81 84.0848 1483.54 85.0001C1483.27 85.7846 1481.91 86.4384 1481.77 87.2229C1481.64 88.0075 1482.72 89.0536 1482.59 89.8381C1482.45 90.6227 1481.23 91.4073 1481.23 92.3226C1481.23 93.1072 1482.45 94.0225 1482.59 94.8071C1482.72 95.5916 1481.64 96.6377 1481.77 97.4223C1481.91 98.2068 1483.27 98.8606 1483.54 99.6451C1483.81 100.43 1482.86 101.607 1483.27 102.391C1483.54 103.176 1485.03 103.568 1485.44 104.353C1485.85 105.137 1485.17 106.314 1485.71 107.098C1486.25 107.883 1487.75 108.014 1488.29 108.798C1488.84 109.452 1488.43 110.76 1489.11 111.413C1489.79 112.067 1491.28 112.067 1491.96 112.721C1492.64 113.244 1492.5 114.552 1493.18 115.075C1493.18 115.075 1493.18 115.075 1493.32 115.206C1493.59 115.467 1494 115.467 1494.4 115.598C1494.81 115.729 1495.22 115.729 1495.63 115.859C1495.9 115.859 1496.17 115.99 1496.31 116.121C1496.71 116.382 1496.98 116.775 1497.12 117.298C1497.26 117.559 1497.39 117.69 1497.53 117.951C1497.66 118.082 1497.8 118.344 1498.07 118.475C1498.89 118.867 1500.38 118.475 1501.33 118.867C1502.28 119.259 1502.55 120.567 1503.5 120.828C1504.45 121.22 1505.81 120.567 1506.76 120.828C1507.71 121.09 1508.39 122.267 1509.34 122.528C1510.29 122.79 1511.52 121.874 1512.6 122.136C1512.88 122.136 1513.15 122.267 1513.28 122.397C1513.55 122.528 1513.69 122.659 1513.96 122.79C1514.23 122.92 1514.37 123.051 1514.64 123.182C1514.91 123.313 1515.18 123.313 1515.32 123.443C1516 123.443 1516.54 123.182 1517.22 122.79C1517.63 122.659 1518.04 122.528 1518.44 122.528C1518.85 122.528 1519.26 122.659 1519.67 122.79C1519.94 122.92 1520.21 123.051 1520.48 123.182C1520.89 123.313 1521.3 123.443 1521.57 123.443C1522.65 123.313 1523.47 122.267 1524.42 122.136C1524.69 122.136 1524.96 122.136 1525.23 122.136C1525.78 122.267 1526.32 122.397 1526.86 122.528C1527.14 122.528 1527.41 122.528 1527.68 122.528C1528.09 122.397 1528.36 122.267 1528.63 122.005C1529.17 121.613 1529.58 121.09 1530.26 120.828C1531.21 120.567 1532.57 121.22 1533.52 120.828C1534.47 120.436 1534.88 119.259 1535.69 118.867C1536.24 118.605 1537.05 118.736 1537.87 118.605C1538.14 118.736 1538.41 118.998 1538.68 118.998C1540.31 119.521 1542.62 118.475 1544.25 118.998C1545.2 119.259 1546.01 120.174 1546.97 120.959C1547.51 121.351 1548.05 121.744 1548.73 121.874C1550.36 122.267 1552.53 120.828 1554.16 121.09C1555.79 121.351 1557.29 123.182 1559.05 123.313C1560.82 123.443 1562.58 121.744 1564.35 121.744C1566.12 121.744 1567.88 123.313 1569.65 123.313C1570.33 123.313 1570.87 122.92 1571.55 122.659C1571.96 122.397 1572.36 122.136 1572.77 121.874C1573.31 121.482 1573.99 121.221 1574.67 121.09C1576.44 120.828 1578.48 122.267 1580.1 121.874C1581.73 121.482 1582.82 119.521 1584.45 118.998C1586.08 118.475 1588.39 119.521 1590.02 118.998C1591.65 118.475 1592.33 116.252 1593.82 115.598C1594.37 115.336 1595.18 115.336 1596 115.206C1596.4 115.859 1596.81 116.905 1597.49 117.298C1597.76 117.428 1598.03 117.559 1598.44 117.559C1598.71 117.559 1599.12 117.559 1599.53 117.559C1599.66 117.559 1599.93 117.559 1600.07 117.559C1600.48 117.559 1600.75 117.559 1601.02 117.69C1601.16 117.69 1601.29 117.821 1601.43 117.821C1601.7 117.952 1601.97 118.082 1602.11 118.344C1602.38 118.605 1602.65 118.998 1603.06 119.39C1603.19 119.651 1603.47 119.782 1603.74 120.044C1603.87 120.174 1604.01 120.174 1604.14 120.305C1605.23 120.697 1606.86 119.913 1608.08 120.305C1609.17 120.567 1609.98 122.005 1611.21 122.267C1612.43 122.528 1613.92 121.613 1615.15 121.744C1616.37 121.874 1617.32 123.182 1618.54 123.313C1619.76 123.443 1620.99 122.267 1622.21 122.267C1623.43 122.267 1624.65 123.443 1625.88 123.313C1627.1 123.182 1628.18 121.874 1629.27 121.744C1630.49 121.613 1631.99 122.528 1633.21 122.267C1633.48 122.267 1633.75 122.005 1634.02 121.874C1634.84 121.351 1635.38 120.436 1636.33 120.305C1636.61 120.174 1636.88 120.174 1637.28 120.174C1638.24 120.174 1639.46 120.567 1640.27 120.305C1641.22 119.913 1641.63 118.867 1642.45 118.213C1642.45 118.213 1642.45 118.213 1642.58 118.213C1642.99 118.344 1643.53 118.475 1644.08 118.475C1645.7 118.475 1647.61 117.821 1649.1 118.213C1650.05 118.475 1650.87 119.259 1651.68 119.913C1652.09 120.305 1652.5 120.567 1652.9 120.959C1653.31 121.221 1653.72 121.482 1654.26 121.613C1656.16 122.005 1658.74 120.436 1660.78 120.697C1662.82 120.959 1664.45 123.182 1666.49 123.313C1668.52 123.443 1670.56 121.482 1672.73 121.482C1674.91 121.482 1676.94 123.443 1678.98 123.313C1680.07 123.182 1680.88 122.659 1681.83 122.136C1682.78 121.482 1683.73 120.959 1684.68 120.828C1685.91 120.697 1687.4 121.221 1688.76 121.613C1689.3 121.744 1689.85 121.874 1690.39 121.874C1690.66 121.874 1690.93 121.874 1691.2 121.744C1693.24 121.351 1694.46 118.998 1696.37 118.475C1698.27 117.952 1701.12 119.128 1702.88 118.475C1703.56 118.213 1704.11 117.69 1704.65 117.167C1704.79 117.167 1704.92 117.298 1705.06 117.298H1705.19C1705.33 117.298 1705.46 117.428 1705.46 117.428C1705.46 117.428 1705.6 117.428 1705.6 117.559C1706.28 118.082 1706.69 118.867 1707.37 119.521C1707.64 119.782 1707.91 119.913 1708.18 120.044C1709.4 120.567 1711.31 119.651 1712.66 120.044C1714.02 120.436 1714.84 122.005 1716.19 122.397C1716.47 122.528 1716.87 122.397 1717.28 122.397C1717.96 122.267 1718.77 122.005 1719.59 121.874C1720 121.744 1720.27 121.744 1720.68 121.874C1722.03 122.005 1723.26 123.574 1724.62 123.705C1725.29 123.705 1725.97 123.443 1726.79 123.182C1727.33 122.92 1727.87 122.659 1728.42 122.528C1728.55 122.528 1728.83 122.528 1728.96 122.528C1730.32 122.528 1731.81 123.836 1733.17 123.705C1734.53 123.574 1735.75 122.136 1737.11 121.874C1738.47 121.744 1740.23 122.79 1741.59 122.528C1742.95 122.267 1743.77 120.567 1745.12 120.174C1746.07 119.913 1747.43 120.305 1748.52 120.305C1748.93 120.305 1749.2 120.305 1749.61 120.174C1749.74 120.174 1749.88 120.044 1750.01 119.913C1750.56 119.521 1750.83 119.128 1751.24 118.605H1751.37C1751.78 118.605 1752.32 118.605 1752.59 118.867C1753.14 119.128 1753.54 119.782 1754.09 120.305C1754.22 120.436 1754.22 120.567 1754.36 120.567C1754.5 120.697 1754.77 120.959 1755.04 120.959C1755.17 120.959 1755.31 121.09 1755.45 121.09C1755.99 121.221 1756.67 121.09 1757.21 120.959C1757.35 120.959 1757.48 120.959 1757.62 120.959C1757.75 120.959 1757.89 120.959 1758.03 120.959C1758.16 120.959 1758.3 120.959 1758.43 121.09C1759.25 121.351 1759.79 122.136 1760.47 122.528C1760.74 122.659 1760.88 122.79 1761.15 122.92C1762.24 123.182 1763.46 122.267 1764.55 122.397C1765.63 122.528 1766.58 123.705 1767.67 123.836C1768.35 123.836 1769.03 123.443 1769.71 123.182C1770.11 123.051 1770.52 122.92 1770.93 122.92C1771.2 122.92 1771.47 122.92 1771.74 123.051C1772.15 123.182 1772.56 123.443 1772.97 123.574C1773.24 123.705 1773.51 123.836 1773.78 123.836C1773.92 123.836 1774.05 123.836 1774.19 123.836C1775.28 123.705 1776.23 122.659 1777.31 122.397C1778.4 122.267 1779.76 123.051 1780.71 122.92C1781.52 122.79 1782.07 122.005 1782.75 121.482C1783.02 121.351 1783.15 121.221 1783.42 121.09C1784.51 120.828 1785.87 121.482 1786.96 121.09C1787.91 120.697 1788.31 119.39 1789.26 118.998C1790.22 118.605 1791.84 118.998 1792.66 118.475C1792.93 118.344 1793.07 118.213 1793.2 117.951C1793.47 117.559 1793.75 117.036 1794.02 116.644C1794.15 116.382 1794.29 116.252 1794.56 116.121C1795.38 115.598 1797.14 115.859 1797.82 115.206C1798.64 114.552 1798.5 113.244 1799.18 112.59C1799.72 112.067 1800.81 111.937 1801.62 111.675C1801.9 111.544 1802.17 111.414 1802.3 111.283C1802.98 110.629 1802.57 109.191 1803.12 108.537C1803.66 107.752 1805.43 107.621 1805.83 106.837C1806.38 106.052 1805.7 104.745 1806.11 103.96C1806.24 103.699 1806.65 103.437 1806.92 103.176C1807.19 103.045 1807.46 102.914 1807.6 102.653C1808.01 102.391 1808.28 102.13 1808.41 101.868C1808.82 101.083 1807.87 99.9066 1808.14 98.9913C1808.41 98.076 1809.91 97.4222 1810.04 96.6377C1810.18 95.7223 1809.09 94.8071 1809.23 93.8917C1809.37 91.4073 1810.72 90.492 1810.72 89.7074Z"/>
</mask>
<path d="M1810.72 89.7074C1810.72 88.7921 1809.37 88.0075 1809.37 87.0922C1809.23 86.1769 1810.45 85.1308 1810.18 84.3463C1810.04 83.431 1808.55 82.7771 1808.28 81.9926C1808.14 81.731 1808.28 81.3388 1808.41 80.9465C1808.55 80.685 1808.55 80.4235 1808.69 80.162C1808.82 79.7697 1808.82 79.3774 1808.69 79.1159C1808.55 78.7236 1808.01 78.3313 1807.46 78.0698C1806.92 77.8082 1806.51 77.416 1806.24 77.0237C1805.83 76.2391 1806.51 74.9315 1805.97 74.147C1805.43 73.3624 1803.8 73.1009 1803.25 72.4471C1802.71 71.6626 1803.12 70.355 1802.44 69.7012C1801.76 69.0474 1800.13 69.0474 1799.31 68.3936C1798.64 67.7398 1798.77 66.3014 1797.96 65.7784C1797.14 65.1246 1795.51 65.3861 1794.7 64.8631C1793.88 64.34 1793.75 62.9016 1792.8 62.3786C1792.66 62.3786 1792.52 62.2479 1792.39 62.2479C1791.44 61.9863 1790.22 62.2478 1789.4 61.9863C1788.45 61.5941 1788.04 60.1557 1787.09 59.8942C1786.14 59.5019 1784.65 60.1557 1783.56 59.8942C1782.47 59.6327 1781.93 58.3251 1780.84 58.0635C1779.76 57.802 1778.53 58.7174 1777.45 58.5866C1776.36 58.4558 1775.41 57.279 1774.32 57.1482C1773.24 57.0174 1772.15 58.0635 1771.06 58.0635C1770.93 58.0635 1770.79 58.0635 1770.66 58.0635C1770.11 57.4097 1770.25 56.4944 1770.11 55.7099C1769.98 55.1868 1769.98 54.7946 1769.57 54.4023C1769.3 54.1408 1769.03 54.01 1768.76 53.8792C1767.81 53.4869 1766.31 53.3562 1765.63 52.7024C1764.68 51.9179 1764.82 50.0872 1763.87 49.3026C1762.78 48.5181 1760.74 48.7796 1759.66 48.1258C1758.57 47.472 1758.43 45.6414 1757.21 44.9876C1757.08 44.8568 1756.94 44.8568 1756.67 44.8568C1755.45 44.5953 1753.82 44.9876 1752.73 44.4646C1751.51 43.9415 1750.96 42.2416 1749.74 41.7186C1748.52 41.1955 1746.62 42.1108 1745.26 41.7186C1743.9 41.3263 1743.09 39.7572 1741.73 39.3649H1741.59C1740.64 38.7111 1739.69 38.1881 1739.28 37.4035C1738.47 35.8344 1739.69 33.4808 1738.74 32.0424C1737.79 30.604 1734.67 30.081 1733.58 28.7734C1732.49 27.335 1733.17 24.8506 1731.95 23.543C1730.73 22.2354 1727.6 22.2354 1726.11 21.0585C1724.75 19.8817 1725.02 17.2665 1723.53 16.0897C1723.12 15.8282 1722.71 15.5667 1722.17 15.4359C1721.08 15.1744 1719.86 15.0436 1718.77 14.9128C1718.23 14.7821 1717.69 14.6514 1717.28 14.3898C1715.65 13.3438 1715.38 10.7286 1713.75 9.81324C1713.48 9.68248 1713.21 9.5517 1713.07 9.5517C1711.3 9.15942 1708.86 9.68246 1707.37 8.89791C1705.6 8.11335 1704.79 5.62891 1702.88 4.97511C1700.98 4.32131 1698.27 5.49815 1696.37 4.97511C1694.46 4.45207 1693.24 2.0984 1691.2 1.70612C1689.3 1.31384 1686.72 2.88297 1684.68 2.62145C1682.65 2.35993 1681.02 0.137019 1678.98 0.0062592C1676.94 -0.124501 1674.91 1.83685 1672.73 1.83685C1670.56 1.83685 1668.52 -0.124501 1666.49 0.0062592C1664.45 0.137019 1662.68 2.35993 1660.78 2.62145C1658.74 2.88297 1656.3 1.31384 1654.26 1.70612C1652.22 2.0984 1651 4.45207 1649.1 4.97511C1647.2 5.49815 1644.35 4.32131 1642.58 4.97511C1640.68 5.62891 1640 8.11335 1638.1 8.89791C1636.33 9.68246 1633.35 8.89792 1631.58 9.81324C1629.81 10.7286 1629.68 13.3438 1628.05 14.3898C1626.42 15.4359 1623.3 15.0436 1621.8 16.0897C1620.31 17.2665 1620.58 19.7509 1619.22 21.0585C1617.86 22.2354 1614.74 22.2354 1613.38 23.543C1612.16 24.8506 1612.97 27.335 1611.75 28.7734C1610.8 30.081 1608.22 30.4732 1606.86 31.6501C1606.73 31.6501 1606.59 31.5193 1606.45 31.5193C1605.1 31.127 1603.33 31.2578 1602.38 30.604C1601.02 29.6887 1600.75 27.4658 1599.39 26.812C1599.26 26.6812 1598.98 26.6812 1598.71 26.5505C1597.22 26.1582 1595.18 26.6812 1593.82 26.0274C1592.33 25.3736 1591.65 23.1507 1590.02 22.6277C1588.39 22.1046 1586.08 23.1507 1584.45 22.6277C1582.82 22.1046 1581.73 20.1432 1580.1 19.7509C1578.48 19.3587 1576.3 20.797 1574.67 20.5355C1573.04 20.274 1571.55 18.4434 1569.78 18.3126C1568.02 18.1819 1566.25 19.8817 1564.49 19.8817C1562.72 19.8817 1560.95 18.3126 1559.19 18.3126C1557.42 18.4434 1555.93 20.274 1554.3 20.5355C1552.53 20.797 1550.5 19.3587 1548.87 19.7509C1547.24 20.1432 1546.15 22.1046 1544.52 22.6277C1542.89 23.1507 1540.58 22.1046 1538.95 22.6277C1537.32 23.1507 1536.64 25.3736 1535.15 26.0274C1533.66 26.6812 1531.07 26.0274 1529.58 26.812C1528.09 27.5966 1527.95 29.8194 1526.59 30.604C1525.23 31.5193 1522.52 31.1271 1521.3 32.0424C1520.07 32.9577 1520.21 35.1806 1519.12 36.2266C1517.9 37.2727 1515.32 37.2727 1514.23 38.4496C1513.15 39.6264 1513.83 41.7186 1512.88 42.8954C1511.92 44.0723 1509.34 44.4645 1508.39 45.6414C1507.58 46.949 1508.66 48.9104 1507.99 50.218C1507.31 51.5256 1504.73 52.1794 1504.18 53.6178C1503.64 54.9254 1505.13 56.756 1504.73 58.1943C1504.32 59.5019 1502.01 60.6787 1501.6 61.9863C1501.47 62.9016 1502.15 63.817 1502.55 64.8631C1502.15 65.2553 1501.87 65.7784 1501.47 65.9091C1500.52 66.3014 1499.02 65.9091 1498.21 66.3014C1497.39 66.8244 1497.26 68.0013 1496.44 68.5243C1495.63 69.0474 1494.13 68.7859 1493.32 69.4397C1492.5 69.9627 1492.64 71.2703 1491.96 71.9241C1491.28 72.5779 1489.65 72.5779 1489.11 73.2317C1488.43 73.8855 1488.84 75.1931 1488.29 75.8469C1487.75 76.5007 1486.12 76.7622 1485.71 77.5468C1485.17 78.3313 1485.85 79.5081 1485.44 80.2927C1485.03 81.0772 1483.54 81.4695 1483.27 82.2541C1483 83.0387 1483.81 84.0848 1483.54 85.0001C1483.27 85.7846 1481.91 86.4384 1481.77 87.2229C1481.64 88.0075 1482.72 89.0536 1482.59 89.8381C1482.45 90.6227 1481.23 91.4073 1481.23 92.3226C1481.23 93.1072 1482.45 94.0225 1482.59 94.8071C1482.72 95.5916 1481.64 96.6377 1481.77 97.4223C1481.91 98.2068 1483.27 98.8606 1483.54 99.6451C1483.81 100.43 1482.86 101.607 1483.27 102.391C1483.54 103.176 1485.03 103.568 1485.44 104.353C1485.85 105.137 1485.17 106.314 1485.71 107.098C1486.25 107.883 1487.75 108.014 1488.29 108.798C1488.84 109.452 1488.43 110.76 1489.11 111.413C1489.79 112.067 1491.28 112.067 1491.96 112.721C1492.64 113.244 1492.5 114.552 1493.18 115.075C1493.18 115.075 1493.18 115.075 1493.32 115.206C1493.59 115.467 1494 115.467 1494.4 115.598C1494.81 115.729 1495.22 115.729 1495.63 115.859C1495.9 115.859 1496.17 115.99 1496.31 116.121C1496.71 116.382 1496.98 116.775 1497.12 117.298C1497.26 117.559 1497.39 117.69 1497.53 117.951C1497.66 118.082 1497.8 118.344 1498.07 118.475C1498.89 118.867 1500.38 118.475 1501.33 118.867C1502.28 119.259 1502.55 120.567 1503.5 120.828C1504.45 121.22 1505.81 120.567 1506.76 120.828C1507.71 121.09 1508.39 122.267 1509.34 122.528C1510.29 122.79 1511.52 121.874 1512.6 122.136C1512.88 122.136 1513.15 122.267 1513.28 122.397C1513.55 122.528 1513.69 122.659 1513.96 122.79C1514.23 122.92 1514.37 123.051 1514.64 123.182C1514.91 123.313 1515.18 123.313 1515.32 123.443C1516 123.443 1516.54 123.182 1517.22 122.79C1517.63 122.659 1518.04 122.528 1518.44 122.528C1518.85 122.528 1519.26 122.659 1519.67 122.79C1519.94 122.92 1520.21 123.051 1520.48 123.182C1520.89 123.313 1521.3 123.443 1521.57 123.443C1522.65 123.313 1523.47 122.267 1524.42 122.136C1524.69 122.136 1524.96 122.136 1525.23 122.136C1525.78 122.267 1526.32 122.397 1526.86 122.528C1527.14 122.528 1527.41 122.528 1527.68 122.528C1528.09 122.397 1528.36 122.267 1528.63 122.005C1529.17 121.613 1529.58 121.09 1530.26 120.828C1531.21 120.567 1532.57 121.22 1533.52 120.828C1534.47 120.436 1534.88 119.259 1535.69 118.867C1536.24 118.605 1537.05 118.736 1537.87 118.605C1538.14 118.736 1538.41 118.998 1538.68 118.998C1540.31 119.521 1542.62 118.475 1544.25 118.998C1545.2 119.259 1546.01 120.174 1546.97 120.959C1547.51 121.351 1548.05 121.744 1548.73 121.874C1550.36 122.267 1552.53 120.828 1554.16 121.09C1555.79 121.351 1557.29 123.182 1559.05 123.313C1560.82 123.443 1562.58 121.744 1564.35 121.744C1566.12 121.744 1567.88 123.313 1569.65 123.313C1570.33 123.313 1570.87 122.92 1571.55 122.659C1571.96 122.397 1572.36 122.136 1572.77 121.874C1573.31 121.482 1573.99 121.221 1574.67 121.09C1576.44 120.828 1578.48 122.267 1580.1 121.874C1581.73 121.482 1582.82 119.521 1584.45 118.998C1586.08 118.475 1588.39 119.521 1590.02 118.998C1591.65 118.475 1592.33 116.252 1593.82 115.598C1594.37 115.336 1595.18 115.336 1596 115.206C1596.4 115.859 1596.81 116.905 1597.49 117.298C1597.76 117.428 1598.03 117.559 1598.44 117.559C1598.71 117.559 1599.12 117.559 1599.53 117.559C1599.66 117.559 1599.93 117.559 1600.07 117.559C1600.48 117.559 1600.75 117.559 1601.02 117.69C1601.16 117.69 1601.29 117.821 1601.43 117.821C1601.7 117.952 1601.97 118.082 1602.11 118.344C1602.38 118.605 1602.65 118.998 1603.06 119.39C1603.19 119.651 1603.47 119.782 1603.74 120.044C1603.87 120.174 1604.01 120.174 1604.14 120.305C1605.23 120.697 1606.86 119.913 1608.08 120.305C1609.17 120.567 1609.98 122.005 1611.21 122.267C1612.43 122.528 1613.92 121.613 1615.15 121.744C1616.37 121.874 1617.32 123.182 1618.54 123.313C1619.76 123.443 1620.99 122.267 1622.21 122.267C1623.43 122.267 1624.65 123.443 1625.88 123.313C1627.1 123.182 1628.18 121.874 1629.27 121.744C1630.49 121.613 1631.99 122.528 1633.21 122.267C1633.48 122.267 1633.75 122.005 1634.02 121.874C1634.84 121.351 1635.38 120.436 1636.33 120.305C1636.61 120.174 1636.88 120.174 1637.28 120.174C1638.24 120.174 1639.46 120.567 1640.27 120.305C1641.22 119.913 1641.63 118.867 1642.45 118.213C1642.45 118.213 1642.45 118.213 1642.58 118.213C1642.99 118.344 1643.53 118.475 1644.08 118.475C1645.7 118.475 1647.61 117.821 1649.1 118.213C1650.05 118.475 1650.87 119.259 1651.68 119.913C1652.09 120.305 1652.5 120.567 1652.9 120.959C1653.31 121.221 1653.72 121.482 1654.26 121.613C1656.16 122.005 1658.74 120.436 1660.78 120.697C1662.82 120.959 1664.45 123.182 1666.49 123.313C1668.52 123.443 1670.56 121.482 1672.73 121.482C1674.91 121.482 1676.94 123.443 1678.98 123.313C1680.07 123.182 1680.88 122.659 1681.83 122.136C1682.78 121.482 1683.73 120.959 1684.68 120.828C1685.91 120.697 1687.4 121.221 1688.76 121.613C1689.3 121.744 1689.85 121.874 1690.39 121.874C1690.66 121.874 1690.93 121.874 1691.2 121.744C1693.24 121.351 1694.46 118.998 1696.37 118.475C1698.27 117.952 1701.12 119.128 1702.88 118.475C1703.56 118.213 1704.11 117.69 1704.65 117.167C1704.79 117.167 1704.92 117.298 1705.06 117.298H1705.19C1705.33 117.298 1705.46 117.428 1705.46 117.428C1705.46 117.428 1705.6 117.428 1705.6 117.559C1706.28 118.082 1706.69 118.867 1707.37 119.521C1707.64 119.782 1707.91 119.913 1708.18 120.044C1709.4 120.567 1711.31 119.651 1712.66 120.044C1714.02 120.436 1714.84 122.005 1716.19 122.397C1716.47 122.528 1716.87 122.397 1717.28 122.397C1717.96 122.267 1718.77 122.005 1719.59 121.874C1720 121.744 1720.27 121.744 1720.68 121.874C1722.03 122.005 1723.26 123.574 1724.62 123.705C1725.29 123.705 1725.97 123.443 1726.79 123.182C1727.33 122.92 1727.87 122.659 1728.42 122.528C1728.55 122.528 1728.83 122.528 1728.96 122.528C1730.32 122.528 1731.81 123.836 1733.17 123.705C1734.53 123.574 1735.75 122.136 1737.11 121.874C1738.47 121.744 1740.23 122.79 1741.59 122.528C1742.95 122.267 1743.77 120.567 1745.12 120.174C1746.07 119.913 1747.43 120.305 1748.52 120.305C1748.93 120.305 1749.2 120.305 1749.61 120.174C1749.74 120.174 1749.88 120.044 1750.01 119.913C1750.56 119.521 1750.83 119.128 1751.24 118.605H1751.37C1751.78 118.605 1752.32 118.605 1752.59 118.867C1753.14 119.128 1753.54 119.782 1754.09 120.305C1754.22 120.436 1754.22 120.567 1754.36 120.567C1754.5 120.697 1754.77 120.959 1755.04 120.959C1755.17 120.959 1755.31 121.09 1755.45 121.09C1755.99 121.221 1756.67 121.09 1757.21 120.959C1757.35 120.959 1757.48 120.959 1757.62 120.959C1757.75 120.959 1757.89 120.959 1758.03 120.959C1758.16 120.959 1758.3 120.959 1758.43 121.09C1759.25 121.351 1759.79 122.136 1760.47 122.528C1760.74 122.659 1760.88 122.79 1761.15 122.92C1762.24 123.182 1763.46 122.267 1764.55 122.397C1765.63 122.528 1766.58 123.705 1767.67 123.836C1768.35 123.836 1769.03 123.443 1769.71 123.182C1770.11 123.051 1770.52 122.92 1770.93 122.92C1771.2 122.92 1771.47 122.92 1771.74 123.051C1772.15 123.182 1772.56 123.443 1772.97 123.574C1773.24 123.705 1773.51 123.836 1773.78 123.836C1773.92 123.836 1774.05 123.836 1774.19 123.836C1775.28 123.705 1776.23 122.659 1777.31 122.397C1778.4 122.267 1779.76 123.051 1780.71 122.92C1781.52 122.79 1782.07 122.005 1782.75 121.482C1783.02 121.351 1783.15 121.221 1783.42 121.09C1784.51 120.828 1785.87 121.482 1786.96 121.09C1787.91 120.697 1788.31 119.39 1789.26 118.998C1790.22 118.605 1791.84 118.998 1792.66 118.475C1792.93 118.344 1793.07 118.213 1793.2 117.951C1793.47 117.559 1793.75 117.036 1794.02 116.644C1794.15 116.382 1794.29 116.252 1794.56 116.121C1795.38 115.598 1797.14 115.859 1797.82 115.206C1798.64 114.552 1798.5 113.244 1799.18 112.59C1799.72 112.067 1800.81 111.937 1801.62 111.675C1801.9 111.544 1802.17 111.414 1802.3 111.283C1802.98 110.629 1802.57 109.191 1803.12 108.537C1803.66 107.752 1805.43 107.621 1805.83 106.837C1806.38 106.052 1805.7 104.745 1806.11 103.96C1806.24 103.699 1806.65 103.437 1806.92 103.176C1807.19 103.045 1807.46 102.914 1807.6 102.653C1808.01 102.391 1808.28 102.13 1808.41 101.868C1808.82 101.083 1807.87 99.9066 1808.14 98.9913C1808.41 98.076 1809.91 97.4222 1810.04 96.6377C1810.18 95.7223 1809.09 94.8071 1809.23 93.8917C1809.37 91.4073 1810.72 90.492 1810.72 89.7074Z" fill="#23342B" stroke="white" stroke-width="2" mask="url(#path-2-inside-2_56_1115)"/>
</svg>
