<svg width="342" height="326" viewBox="0 0 342 326" fill="none" xmlns="http://www.w3.org/2000/svg">
<path d="M20.3358 226.428L20.3385 226.434C20.842 227.549 21.017 228.783 21.0446 230.039C21.0705 231.216 20.9667 232.446 20.8657 233.644L20.8462 233.876C20.6285 236.47 20.478 238.849 21.4665 240.686C21.9524 241.554 22.735 242.3 23.7138 242.992C24.6946 243.686 25.8386 244.303 27.023 244.931L27.2287 245.04C28.3375 245.628 29.4736 246.231 30.483 246.904C31.5535 247.617 32.5177 248.433 33.1785 249.437C33.8757 250.443 34.2596 251.633 34.4984 252.872C34.7215 254.029 34.8237 255.263 34.923 256.462L34.9441 256.716C35.0518 258.008 35.1659 259.253 35.4252 260.385C35.6838 261.514 36.0795 262.495 36.7263 263.271C37.3775 264.052 38.2903 264.658 39.3794 265.177C40.4695 265.696 41.7016 266.112 42.9759 266.534L43.1699 266.598C44.3718 266.996 45.6049 267.404 46.7304 267.906C47.9178 268.436 49.021 269.087 49.8714 269.977C50.7224 270.868 51.3065 271.983 51.7593 273.168C52.1864 274.286 52.5077 275.496 52.8192 276.669L52.8735 276.873C53.2056 278.123 53.5332 279.323 53.9767 280.388C54.4193 281.451 54.9637 282.344 55.7076 282.996L55.7083 282.997C57.2983 284.396 59.7542 284.865 62.4354 285.3C62.5709 285.322 62.7068 285.344 62.8431 285.366C64.0285 285.556 65.2383 285.751 66.3689 286.036C67.631 286.354 68.8333 286.794 69.8346 287.496L69.8434 287.502L69.852 287.509C70.8193 288.252 71.5651 289.258 72.2006 290.352C72.7591 291.314 73.2478 292.372 73.7259 293.407C73.7905 293.547 73.8548 293.686 73.9191 293.825C75.0233 296.205 76.1117 298.349 77.9574 299.424L77.9664 299.43L77.9752 299.435C78.8563 299.999 79.9214 300.302 81.121 300.46C82.3226 300.618 83.6237 300.627 84.9693 300.627L85.2125 300.627C86.4697 300.626 87.7608 300.626 88.9868 300.75C90.2928 300.882 91.5616 301.158 92.6781 301.748C93.7627 302.306 94.6713 303.168 95.4839 304.142C96.2269 305.033 96.9106 306.043 97.5795 307.031C97.641 307.122 97.7023 307.212 97.7635 307.303C99.2493 309.494 100.674 311.482 102.658 312.307L102.664 312.31C103.609 312.716 104.7 312.843 105.906 312.81C107.112 312.777 108.397 312.585 109.725 312.378L109.982 312.338C112.513 311.943 115.226 311.519 117.508 312.294C118.668 312.666 119.709 313.364 120.677 314.187C121.56 314.938 122.407 315.816 123.237 316.677C123.315 316.758 123.394 316.839 123.472 316.92C125.319 318.832 127.081 320.565 129.205 321.074L129.208 321.075C130.221 321.326 131.332 321.277 132.526 321.05C133.722 320.823 134.967 320.425 136.249 320.004C136.349 319.971 136.448 319.938 136.548 319.905C137.724 319.517 138.929 319.12 140.107 318.852C141.387 318.559 142.672 318.409 143.904 318.593C146.267 318.948 148.422 320.562 150.441 322.075L150.642 322.225C152.782 323.827 154.777 325.267 156.899 325.458C159.018 325.649 161.245 324.566 163.638 323.331C163.734 323.282 163.829 323.232 163.925 323.183C165.007 322.624 166.113 322.051 167.215 321.609C168.416 321.128 169.646 320.786 170.881 320.786C173.292 320.786 175.677 322.029 177.906 323.19C177.997 323.237 178.088 323.285 178.178 323.332C180.554 324.568 182.745 325.649 184.862 325.458C186.986 325.267 189.018 323.824 191.175 322.224L191.396 322.059C192.383 321.326 193.391 320.578 194.411 319.964C195.509 319.304 196.655 318.779 197.855 318.594L197.857 318.593C200.199 318.242 202.759 319.074 205.178 319.861C205.271 319.891 205.364 319.921 205.457 319.952C208.025 320.785 210.428 321.517 212.562 321.073C214.613 320.561 216.372 318.83 218.237 316.919L218.421 316.73C219.278 315.851 220.154 314.952 221.067 314.185C222.045 313.362 223.095 312.666 224.254 312.294C226.535 311.519 229.248 311.943 231.78 312.338L232.037 312.378C233.365 312.585 234.649 312.777 235.856 312.81C237.061 312.843 238.152 312.716 239.097 312.31L239.103 312.307C241.088 311.482 242.512 309.494 243.998 307.303C244.059 307.212 244.121 307.121 244.182 307.03C244.851 306.042 245.535 305.033 246.278 304.142C247.091 303.168 248 302.305 249.085 301.747C250.167 301.191 251.419 300.933 252.716 300.807C253.892 300.694 255.138 300.687 256.36 300.681C256.485 300.68 256.611 300.679 256.735 300.679C258.088 300.67 259.404 300.648 260.617 300.479C261.829 300.311 262.904 300 263.786 299.435C265.573 298.292 266.628 296.109 267.735 293.722L267.804 293.573C268.324 292.451 268.858 291.299 269.485 290.267C270.14 289.189 270.914 288.209 271.918 287.502C272.885 286.762 274.071 286.296 275.325 285.961C276.535 285.637 277.843 285.427 279.121 285.221L279.273 285.197C280.61 284.981 281.909 284.767 283.086 284.43C284.26 284.095 285.275 283.649 286.058 282.993C287.638 281.599 288.326 279.289 288.995 276.77C289.028 276.649 289.06 276.528 289.092 276.406C289.388 275.286 289.69 274.144 290.081 273.095C290.515 271.929 291.072 270.837 291.889 269.978L291.89 269.977C292.74 269.087 293.844 268.436 295.031 267.906C296.157 267.404 297.39 266.996 298.592 266.598L298.786 266.534C300.06 266.112 301.292 265.696 302.382 265.177C303.471 264.658 304.384 264.052 305.035 263.271C305.683 262.493 306.088 261.51 306.357 260.38C306.627 259.248 306.755 258.003 306.871 256.712C306.883 256.587 306.894 256.46 306.905 256.334C307.008 255.175 307.114 253.988 307.323 252.875C307.555 251.637 307.92 250.448 308.579 249.443L308.579 249.443L308.587 249.432C309.283 248.43 310.264 247.624 311.343 246.92C312.316 246.286 313.396 245.717 314.453 245.162C314.566 245.102 314.68 245.042 314.793 244.982C315.967 244.363 317.096 243.751 318.064 243.053C319.03 242.356 319.806 241.593 320.293 240.688L320.297 240.682C320.783 239.812 320.997 238.781 321.057 237.624C321.118 236.466 321.023 235.219 320.915 233.927L320.896 233.702C320.795 232.493 320.691 231.248 320.717 230.059C320.744 228.792 320.919 227.55 321.423 226.434L321.426 226.428C321.93 225.348 322.752 224.403 323.691 223.539C324.568 222.733 325.574 221.973 326.557 221.23C326.627 221.177 326.696 221.125 326.765 221.072C327.824 220.272 328.846 219.487 329.701 218.651C330.553 217.819 331.213 216.962 331.571 216.028C331.892 215.099 331.924 214.053 331.786 212.907C331.647 211.755 331.343 210.542 331.02 209.284L330.974 209.105C330.668 207.915 330.352 206.688 330.177 205.493C329.993 204.236 329.959 202.976 330.269 201.787L330.27 201.784C330.581 200.627 331.234 199.561 332.016 198.56C332.727 197.649 333.567 196.764 334.388 195.9C334.469 195.815 334.55 195.73 334.63 195.645C335.535 194.69 336.402 193.757 337.088 192.795C337.773 191.835 338.255 190.877 338.417 189.882C338.579 188.886 338.429 187.835 338.092 186.722C337.755 185.607 337.241 184.465 336.702 183.284L336.63 183.125C336.119 182.006 335.592 180.853 335.215 179.707C334.819 178.503 334.575 177.27 334.692 176.041L334.692 176.04C334.808 174.847 335.271 173.69 335.869 172.576C336.419 171.553 337.102 170.536 337.767 169.544C337.825 169.457 337.883 169.371 337.941 169.285C338.667 168.201 339.359 167.146 339.872 166.094C340.385 165.045 340.701 164.032 340.701 163.038C340.701 162.01 340.376 160.981 339.854 159.927C339.33 158.87 338.625 157.82 337.89 156.744C337.841 156.672 337.791 156.6 337.742 156.528C337.06 155.531 336.361 154.511 335.809 153.481C335.217 152.377 334.771 151.226 334.691 150.029C334.576 148.835 334.821 147.62 335.216 146.427C335.587 145.303 336.105 144.162 336.609 143.05C336.64 142.982 336.671 142.913 336.702 142.845C337.24 141.656 337.754 140.501 338.092 139.375C338.429 138.25 338.579 137.19 338.417 136.195C338.255 135.2 337.773 134.242 337.088 133.282C336.402 132.32 335.535 131.386 334.63 130.431C334.55 130.347 334.469 130.262 334.389 130.177C333.567 129.312 332.727 128.427 332.016 127.517C331.234 126.516 330.581 125.45 330.27 124.293C329.958 123.135 329.994 121.9 330.177 120.66C330.35 119.499 330.658 118.3 330.96 117.128C330.98 117.051 331 116.973 331.02 116.896C331.343 115.639 331.647 114.416 331.786 113.248C331.924 112.085 331.892 111.01 331.569 110.044C331.21 109.076 330.55 108.203 329.7 107.366C328.846 106.526 327.825 105.746 326.767 104.954C326.676 104.886 326.584 104.817 326.492 104.749C325.531 104.031 324.55 103.298 323.694 102.52C322.754 101.667 321.931 100.73 321.426 99.6488L321.423 99.6429C320.919 98.5275 320.744 97.2938 320.717 96.0376C320.691 94.8602 320.795 93.6303 320.896 92.4326C320.902 92.3552 320.909 92.2779 320.915 92.2007C321.133 89.6072 321.283 87.228 320.295 85.3913C319.809 84.5226 319.027 83.7767 318.048 83.0845C317.067 82.391 315.923 81.774 314.738 81.1453C314.67 81.1089 314.601 81.0725 314.532 81.036C313.424 80.4481 312.288 79.8457 311.278 79.173C310.208 78.4595 309.244 77.6441 308.583 76.6393C307.886 75.6332 307.502 74.4433 307.263 73.2045C307.04 72.0476 306.938 70.8136 306.838 69.614C306.831 69.5294 306.824 69.4451 306.817 69.3609C306.71 68.0691 306.595 66.8242 306.336 65.692C306.078 64.5626 305.682 63.5815 305.035 62.8055C304.384 62.0242 303.471 61.4184 302.382 60.8999C301.292 60.3809 300.06 59.965 298.786 59.5429C298.721 59.5215 298.656 59.5001 298.591 59.4786C297.389 59.081 296.156 58.673 295.031 58.1705C293.844 57.6403 292.74 56.99 291.89 56.0996C291.039 55.2086 290.455 54.0932 290.002 52.9086C289.575 51.7911 289.254 50.581 288.942 49.4076C288.924 49.3394 288.906 49.2712 288.888 49.2033C288.556 47.9541 288.228 46.7542 287.785 45.689C287.342 44.626 286.798 43.7323 286.054 43.0804L286.053 43.0798C284.463 41.6809 282.007 41.2115 279.326 40.7768C279.19 40.7549 279.054 40.733 278.918 40.711C277.733 40.5202 276.523 40.3255 275.393 40.0405C274.13 39.7223 272.928 39.2829 271.927 38.5806L271.918 38.5744L271.909 38.5679C270.942 37.8251 270.196 36.8187 269.561 35.7244C269.002 34.7626 268.514 33.7047 268.036 32.6697C267.971 32.5299 267.907 32.3904 267.842 32.2517C266.738 29.8715 265.65 27.7278 263.804 26.6523L263.795 26.647L263.786 26.6414C262.905 26.0776 261.84 25.775 260.64 25.6171C259.439 25.4588 258.138 25.4496 256.792 25.4496C256.711 25.4496 256.63 25.4497 256.549 25.4497C255.292 25.4502 254.001 25.4507 252.775 25.3269C251.468 25.1949 250.199 24.919 249.082 24.3282C247.998 23.7701 247.09 22.9079 246.278 21.9345C245.535 21.0443 244.851 20.0345 244.182 19.0465C244.121 18.9554 244.059 18.8646 243.998 18.774C242.512 16.5828 241.088 14.5949 239.103 13.7695L239.097 13.7671C238.152 13.3603 237.061 13.2334 235.856 13.2667C234.649 13.3 233.365 13.4921 232.037 13.6988C231.951 13.7121 231.866 13.7255 231.78 13.7389C229.248 14.1342 226.535 14.5579 224.253 13.7826C223.093 13.4105 222.052 12.7129 221.085 11.89C220.201 11.1386 219.355 10.2605 218.524 9.39981C218.446 9.31847 218.368 9.2373 218.289 9.15639C216.443 7.24503 214.681 5.51203 212.557 5.00244L212.553 5.00156C211.54 4.75068 210.43 4.80002 209.236 5.02677C208.04 5.25379 206.794 5.65133 205.512 6.07296C205.413 6.10563 205.314 6.13845 205.214 6.17133C204.037 6.55908 202.833 6.95612 201.655 7.22516C200.375 7.51738 199.089 7.66805 197.857 7.4833C195.495 7.12897 193.339 5.51435 191.32 4.00197C191.253 3.95183 191.186 3.9018 191.12 3.85194C188.979 2.25016 186.985 0.809402 184.862 0.618439C182.743 0.427789 180.516 1.5102 178.123 2.74547C178.028 2.79479 177.932 2.84432 177.836 2.89395C176.754 3.45327 175.648 4.02554 174.547 4.46732C173.346 4.94904 172.115 5.29098 170.881 5.29098C168.469 5.29098 166.084 4.04804 163.856 2.88677C163.765 2.83926 163.674 2.79189 163.583 2.74475C161.207 1.50895 159.017 0.427898 156.899 0.618439C154.775 0.809555 152.744 2.25248 150.586 3.85315C150.513 3.90791 150.439 3.96283 150.365 4.01783C149.378 4.75076 148.37 5.49914 147.35 6.11237C146.252 6.77246 145.106 7.29724 143.906 7.48295L143.904 7.4833C141.562 7.83445 139.003 7.00224 136.584 6.21577C136.49 6.18546 136.397 6.15521 136.305 6.1251C133.737 5.292 131.333 4.55917 129.199 5.00372C127.149 5.51534 125.389 7.24625 123.524 9.15814C123.463 9.22095 123.401 9.28392 123.34 9.34698C122.483 10.2259 121.607 11.1247 120.695 11.8919C119.716 12.7141 118.667 13.4109 117.508 13.7826C115.227 14.5579 112.513 14.1342 109.982 13.7389C109.896 13.7255 109.81 13.7121 109.725 13.6988C108.397 13.4921 107.112 13.3 105.906 13.2667C104.7 13.2334 103.609 13.3603 102.664 13.7671L102.658 13.7694C100.674 14.5949 99.2493 16.5828 97.7635 18.774C97.7021 18.8646 97.6406 18.9554 97.579 19.0465C96.9102 20.0345 96.2267 21.0443 95.4839 21.9345C94.6708 22.9088 93.7617 23.7716 92.6763 24.3297C91.5941 24.8861 90.3419 25.144 89.045 25.2692C87.8699 25.3825 86.6237 25.3893 85.4017 25.3959C85.2762 25.3966 85.151 25.3973 85.0262 25.3981C83.6731 25.4067 82.3578 25.4285 81.1447 25.5973C79.9328 25.7658 78.8575 26.0769 77.9752 26.6414C76.1887 27.7845 75.1338 29.9679 74.0265 32.3547L73.9574 32.5037C73.4371 33.6258 72.903 34.7776 72.2761 35.8101C71.6217 36.8876 70.8478 37.8674 69.8434 38.5744C68.8765 39.3142 67.6906 39.7804 66.4362 40.116C65.2269 40.4394 63.9183 40.6499 62.6406 40.8555L62.4886 40.88C61.1512 41.0953 59.852 41.3101 58.6753 41.6462C57.5012 41.9816 56.4863 42.428 55.7035 43.084C54.123 44.4779 53.4359 46.7873 52.7661 49.3063C52.7339 49.4274 52.7018 49.5489 52.6696 49.6707C52.3733 50.7902 52.071 51.9323 51.6803 52.9818C51.2464 54.1475 50.6895 55.2398 49.8721 56.0989L49.8714 56.0996C49.021 56.99 47.9178 57.6403 46.7304 58.1705C45.6051 58.673 44.3721 59.081 43.1703 59.4786L42.9759 59.5429C41.7016 59.965 40.4695 60.3809 39.3794 60.8999C38.2903 61.4184 37.3775 62.0242 36.7263 62.8055C36.078 63.5833 35.6736 64.5665 35.404 65.6964C35.1339 66.8287 35.0066 68.0742 34.8901 69.3643C34.8787 69.4904 34.8674 69.6169 34.8561 69.7437C34.7528 70.9021 34.6471 72.0884 34.4386 73.2019C34.2068 74.4394 33.8417 75.6283 33.1823 76.6338L33.1747 76.6447C32.4785 77.647 31.4973 78.4529 30.4184 79.1564C29.4458 79.7906 28.3651 80.3593 27.3087 80.9151C27.1949 80.975 27.0813 81.0347 26.9682 81.0944C25.7943 81.7137 24.6651 82.3257 23.6975 83.0237C22.7314 83.7207 21.9555 84.4835 21.468 85.3882L21.4644 85.3947C20.9789 86.2644 20.7646 87.296 20.7041 88.4524C20.6435 89.6111 20.7385 90.8575 20.8462 92.1495L20.8651 92.3751C20.9663 93.5839 21.0705 94.8284 21.0446 96.0181C21.017 97.2843 20.8423 98.527 20.3385 99.6429L20.3358 99.6487C19.8313 100.729 19.009 101.673 18.0699 102.537C17.1935 103.344 16.1879 104.104 15.2047 104.847L14.9961 105.004C13.9377 105.805 12.9158 106.59 12.0605 107.425C11.2081 108.258 10.5489 109.115 10.1906 110.048C9.86972 110.977 9.83777 112.024 9.97571 113.17C10.1143 114.321 10.4186 115.535 10.7418 116.793L10.7878 116.972C11.0939 118.162 11.4094 119.389 11.5842 120.584C11.7681 121.841 11.8026 123.1 11.4928 124.289L11.4918 124.293C11.1808 125.45 10.5276 126.516 9.74591 127.517C9.03482 128.427 8.19437 129.312 7.37289 130.177C7.29227 130.262 7.21182 130.347 7.13168 130.431C6.22629 131.386 5.35934 132.32 4.6734 133.282C3.9884 134.242 3.50616 135.2 3.34424 136.195C3.18216 137.19 3.3324 138.241 3.66922 139.354C4.00684 140.47 4.5202 141.612 5.05893 142.792L5.13168 142.952C5.64261 144.071 6.16895 145.223 6.54608 146.37C6.94196 147.574 7.18619 148.807 7.06982 150.036L7.06967 150.037C6.95322 151.229 6.49063 152.387 5.89206 153.501C5.3421 154.524 4.65982 155.541 3.9942 156.533C3.93625 156.619 3.87842 156.706 3.8208 156.792C3.09445 157.876 2.40192 158.931 1.88898 159.982C1.37671 161.032 1.06073 162.044 1.06073 163.038C1.06073 164.066 1.38547 165.095 1.90778 166.15C2.43121 167.206 3.1362 168.256 3.87183 169.333L4.01904 169.548C4.70132 170.545 5.39993 171.566 5.95261 172.596C6.54477 173.699 6.99091 174.851 7.07047 176.048C7.18546 177.242 6.94028 178.456 6.54581 179.649C6.17395 180.774 5.6568 181.914 5.15256 183.026L5.05951 183.232C4.52106 184.42 4.00739 185.576 3.66962 186.702C3.3324 187.826 3.18213 188.886 3.34424 189.882C3.50616 190.877 3.9884 191.835 4.6734 192.795C5.35934 193.757 6.22629 194.69 7.13168 195.645C7.21191 195.73 7.29248 195.815 7.37323 195.9C8.19458 196.765 9.03491 197.649 9.74591 198.56C10.5276 199.561 11.1808 200.627 11.4918 201.784C11.8031 202.941 11.7679 204.177 11.584 205.417C11.4119 206.577 11.1032 207.777 10.8018 208.948L10.7418 209.181C10.4189 210.438 10.1144 211.66 9.97583 212.829C9.8378 213.992 9.86914 215.067 10.1924 216.033C10.5516 217 11.2114 217.874 12.0619 218.711C12.9157 219.551 13.9364 220.331 14.994 221.122C15.0857 221.191 15.1776 221.26 15.2697 221.328C16.2307 222.046 17.211 222.778 18.0676 223.556C19.0073 224.41 19.8307 225.346 20.3358 226.428Z" fill="#23342B" stroke="#FFF6E9"/>
<path d="M176.181 71.8674C176.249 71.9557 176.294 72.0594 176.314 72.169C176.369 72.49 177.59 79.6608 176.959 86.5717L172.838 118.335L172.826 118.429L172.832 118.523C173.035 121.92 172.58 124.924 171.868 127.261C171.145 129.638 170.191 131.213 169.49 131.857L169.488 131.859C169.409 131.932 169.312 131.989 169.205 132.025L169.204 132.025C168.972 132.102 162.918 134.089 155.944 133.722L155.569 133.703L155.274 133.934L149.852 138.184L149.709 138.297L149.614 138.453C147.797 141.452 145.694 143.776 143.794 145.387C141.854 147.031 140.235 147.842 139.402 147.985L139.394 147.987C139.355 147.994 139.31 147.998 139.26 147.998C139.192 147.998 139.124 147.99 139.056 147.973C138.799 147.909 132.309 146.246 126.609 142.009L126.537 141.956L126.457 141.916L96.2251 126.923L96.041 126.832L95.8359 126.821C92.8161 126.654 90.0489 124.616 87.8844 122.313C85.7506 120.043 84.364 117.687 84.0906 117.206C84.0122 117.067 83.9851 116.912 84.0077 116.766L84.0077 116.766C84.0525 116.475 85.1325 109.614 87.7366 103.958L87.8225 103.771L87.8279 103.565L88.3444 83.6552L88.3507 83.4124L88.2449 83.1938C84.5248 75.5036 87.7784 68.7426 87.8886 68.5201L87.8904 68.5165C87.9223 68.4514 87.9669 68.3881 88.0235 68.3307L88.0239 68.3304C88.2188 68.1331 93.45 62.9237 100.97 62.05L101.037 62.0422L101.102 62.0256L134.787 53.4152L134.977 53.3666L135.135 53.25C142.193 48.0228 149.634 50.6471 149.894 50.7425L149.901 50.745C149.951 50.7629 150.001 50.7874 150.052 50.8189C150.293 50.9723 155.974 54.6426 158.484 61.3509L158.569 61.5764L158.746 61.7388L164.251 66.7676L164.468 66.9661L164.759 67.0152C173.528 68.4995 176.06 71.7083 176.181 71.867L176.181 71.8674ZM87.3124 67.6277C87.1819 67.7597 87.0734 67.9112 86.9924 68.0763L150.585 49.973C150.476 49.9048 150.36 49.8476 150.239 49.8038C149.902 49.6802 142.023 46.9039 134.54 52.4463L100.855 61.0567C92.9787 61.9717 87.541 67.3962 87.3124 67.6277ZM83.0194 116.613L83.0194 116.613L83.0194 116.613Z" fill="#EA83AA" stroke="#FFF6E9" stroke-width="2"/>
<path d="M167.31 75.6005L167.356 75.6388L167.407 75.6713C173.457 79.5508 177.097 86.2684 179.236 92.2458C181.364 98.1898 181.952 103.245 181.996 103.641C182.009 103.763 181.989 103.886 181.938 103.997C181.772 104.361 179.551 109.148 175.66 114.549C171.753 119.971 166.251 125.886 159.557 128.662L159.548 128.666L159.539 128.67L138.68 137.803L138.621 137.829L138.566 137.862C133.642 140.82 127.613 141.75 122.018 141.75C113.622 141.75 106.434 139.66 105.968 139.521C105.826 139.479 105.704 139.401 105.61 139.299C105.337 139 101.766 135.051 98.3158 129.376C94.8496 123.675 91.5962 116.378 91.7778 109.352L91.7781 109.339V109.333L91.7785 109.317L91.7785 109.316L93.4274 77.0175C94.2354 70.1444 98.8457 63.9288 103.491 59.3021C108.119 54.6931 112.636 51.8042 112.98 51.5873L112.981 51.5867C113.094 51.5148 113.23 51.4707 113.375 51.4627C113.827 51.4401 119.446 51.1735 126.438 52.0351C133.466 52.9012 141.718 54.8893 147.542 59.2721L167.31 75.6005Z" fill="#EA83AA" stroke="#FFF6E9" stroke-width="2"/>
<path d="M118.637 129.252L118.638 129.252C119.113 128.876 130.592 119.869 143.226 114.504C155.728 109.197 162.589 108.773 162.998 108.752C163.36 108.752 163.604 108.907 163.733 109.12C165.173 111.493 165.326 114.349 164.627 117.431C163.926 120.515 162.392 123.726 160.6 126.684C157.018 132.599 152.536 137.306 152.18 137.676L152.18 137.677C152.05 137.811 151.867 137.9 151.662 137.916C150.838 137.979 148.184 138.16 144.689 138.16C140.191 138.16 134.357 137.861 129.242 136.656C124.05 135.434 119.952 133.36 118.426 130.09L118.426 130.089C118.294 129.807 118.368 129.465 118.637 129.252Z" fill="#EA83AA" stroke="#FFF6E9" stroke-width="2"/>
<path d="M110.186 68.2372L110.188 68.2373C110.61 68.2656 110.897 68.5881 110.912 68.9303L110.912 68.9305C110.941 69.6099 111.58 85.4136 109.146 97.1959L109.146 97.196C106.69 109.082 101.895 115.467 101.737 115.674C101.594 115.862 101.359 115.981 101.099 115.981C101.067 115.981 101.044 115.979 101.027 115.977L101.027 115.977L101.017 115.976C98.1604 115.694 95.675 114.11 93.5186 111.738C91.3599 109.363 89.5928 106.265 88.1882 103.118C85.3809 96.8278 84.1106 90.5492 84.0126 90.0513C83.981 89.89 84.009 89.7215 84.0958 89.574C84.3575 89.1308 87.7035 83.5121 92.6364 78.132C95.103 75.4418 97.938 72.8428 100.953 70.9784C103.972 69.1119 107.101 68.0248 110.186 68.2372Z" fill="#EA83AA" stroke="#FFF6E9" stroke-width="2"/>
<path d="M131.843 63.3225C131.843 63.3227 131.843 63.3228 131.843 63.3229L130.999 62.7857C130.797 63.1041 130.706 63.4777 130.742 63.8497C130.767 64.1208 131.492 70.5933 141.64 80.1924C151.715 89.7238 165.34 92.0876 165.915 92.1837M131.843 63.3225C131.759 63.455 131.723 63.6066 131.737 63.7547L131.738 63.7571C131.738 63.7571 131.74 63.7822 131.747 63.832C131.754 63.8813 131.766 63.9541 131.784 64.0497C131.82 64.2407 131.883 64.5227 131.989 64.8897C132.201 65.6235 132.588 66.6991 133.286 68.0691C134.681 70.8083 137.327 74.736 142.327 79.4659L142.327 79.4659C152.164 88.772 165.516 91.103 166.078 91.1971M131.843 63.3225C133.109 61.3348 135.308 60.1575 138.12 59.5821C140.932 59.0068 144.235 59.0616 147.502 59.4355C154.029 60.1826 160.166 62.1727 161.41 62.5926C161.597 62.6555 161.744 62.7788 161.833 62.9317L131.843 63.3225ZM166.078 91.1971C166.078 91.1971 166.078 91.1971 166.078 91.1971L165.915 92.1837M166.078 91.1971C166.079 91.1972 166.079 91.1973 166.08 91.1974L165.915 92.1837M166.078 91.1971C166.127 91.2052 166.173 91.2089 166.218 91.2089C166.509 91.2089 166.769 91.0577 166.903 90.8315M165.915 92.1837C166.016 92.2005 166.117 92.2089 166.218 92.2089C166.849 92.2089 167.443 91.8831 167.764 91.3402M167.764 91.3402L166.902 90.8318C166.902 90.8317 166.903 90.8316 166.903 90.8315M167.764 91.3402L166.903 90.8315M167.764 91.3402L161.833 62.9325C162.046 63.302 164.724 67.9959 166.629 73.7955C167.581 76.6971 168.328 79.8388 168.489 82.8314C168.65 85.8288 168.22 88.5991 166.903 90.8315" fill="#EA83AA" stroke="#FFF6E9" stroke-width="2"/>
<path d="M142.522 73.0944L142.522 73.0947C142.209 73.3124 134.988 78.3204 129.22 81.1124C127.44 81.9734 124.766 82.3122 121.78 82.3122C115.553 82.3122 108.613 80.8537 107.511 80.613C107.278 80.5619 107.092 80.4173 106.991 80.2311C105.936 78.274 106.028 76.2319 106.875 74.1527C107.735 72.0449 109.354 69.9555 111.248 68.0487C115.028 64.2428 119.669 61.3917 120.63 60.8191C120.788 60.7266 120.987 60.6866 121.177 60.7123C122.355 60.8828 128.066 61.7768 133.376 63.761C136.039 64.7563 138.527 65.999 140.29 67.5083C142.044 69.0095 142.975 70.6739 142.833 72.5655L142.833 72.5656C142.818 72.7674 142.71 72.9637 142.522 73.0944Z" fill="#EA83AA" stroke="#FFF6E9" stroke-width="2"/>
<path d="M104.133 128.611C104.362 129.151 104.858 129.542 105.45 129.651C108.265 130.167 114.288 131.132 119.943 131.132C125.683 131.132 131.044 130.138 132.282 126.673C132.356 126.467 132.389 126.25 132.379 126.032L100.821 102.61M104.133 128.611L105.054 128.221M104.133 128.611L105.054 128.221C105.054 128.221 105.054 128.221 105.054 128.221M104.133 128.611C102.756 125.357 96.1061 108.828 100.52 102.923C100.606 102.807 100.708 102.701 100.821 102.61M105.054 128.221C105.147 128.441 105.358 128.617 105.63 128.667L105.63 128.667C108.429 129.181 114.381 130.132 119.943 130.132C122.773 130.132 125.433 129.885 127.506 129.246C129.6 128.601 130.879 127.63 131.341 126.337L131.341 126.336C131.371 126.251 131.384 126.164 131.38 126.079L131.38 126.078C131.354 125.518 130.567 112.035 117.609 106.534M105.054 128.221C104.373 126.612 102.391 121.724 101.127 116.525C100.494 113.923 100.052 111.284 100.029 108.96C100.005 106.61 100.413 104.736 101.321 103.521L101.321 103.522L101.324 103.518C101.357 103.473 101.399 103.429 101.45 103.387M117.609 106.534L117.999 105.613L117.609 106.534ZM117.609 106.534C111.478 103.931 107.558 103.013 105.091 102.824C102.633 102.636 101.713 103.177 101.45 103.387M101.45 103.387C101.45 103.387 101.451 103.387 101.451 103.386L100.821 102.61M101.45 103.387C101.449 103.388 101.449 103.388 101.449 103.388L100.821 102.61" fill="#EA83AA" stroke="#FFF6E9" stroke-width="2"/>
<path d="M169.522 98.1565L169.523 98.1586C169.576 98.3049 169.577 98.4627 169.525 98.6094L169.524 98.6113C169.399 98.9663 167.816 103.357 164.943 107.641C162.027 111.987 158.018 115.876 153.114 115.876C152.576 115.876 152.025 115.83 151.457 115.731C151.189 115.685 150.98 115.517 150.882 115.303L150.881 115.3C150.832 115.195 149.024 111.228 146.799 102.399C145.695 98.0154 147.039 92.5098 148.815 87.8864C150.573 83.3128 152.666 79.8204 152.828 79.5532C152.975 79.3114 153.28 79.1548 153.595 79.1876L153.596 79.1877C155.757 79.4119 157.792 80.5137 159.672 82.1687C161.551 83.8227 163.219 85.9813 164.633 88.2067C167.462 92.6578 169.187 97.2318 169.522 98.1565Z" fill="#EA83AA" stroke="#FFF6E9" stroke-width="2"/>
<path d="M125.599 81.4875L125.599 81.4872C124.423 78.7239 122.55 77.1224 120.021 76.5728L120.02 76.5727C118.023 76.1371 115.731 76.4197 113.332 77.1781C110.942 77.9339 108.518 79.1391 106.294 80.4614C101.847 83.1061 98.3106 86.1527 97.6077 86.7716L125.599 81.4875ZM125.599 81.4875C125.659 81.6282 125.67 81.7833 125.629 81.9322L117.992 109.651C117.992 109.651 117.992 109.652 117.992 109.652C117.949 109.806 117.852 109.948 117.709 110.049L117.709 110.049C115.508 111.604 113.461 112.324 111.579 112.324C110.596 112.324 109.635 112.129 108.693 111.731L108.693 111.731C106.69 110.888 104.969 109.158 103.505 106.881C102.047 104.612 100.895 101.877 100.001 99.1518C98.2126 93.7021 97.5007 88.4404 97.3693 87.3783L97.3693 87.3783M125.599 81.4875L97.3693 87.3783M97.3693 87.3783C97.3424 87.1603 97.4242 86.9333 97.6075 86.7718L97.3693 87.3783Z" fill="#EA83AA" stroke="#FFF6E9" stroke-width="2"/>
<path d="M154.502 104.93L154.502 104.93C153.826 102.408 151.769 100.547 147.996 99.538L154.502 104.93ZM154.502 104.93C155 106.784 154.69 108.949 153.811 111.265C152.936 113.57 151.535 115.925 149.99 118.097C146.902 122.44 143.339 125.917 142.613 126.61L142.613 126.61C142.474 126.742 142.282 126.824 142.076 126.829L142.071 126.83M154.502 104.93L142.071 126.83M142.071 126.83C142.004 126.832 141.742 126.838 141.318 126.838C139.564 126.838 135.153 126.731 130.578 125.798C125.943 124.853 121.425 123.114 119.151 120.055M142.071 126.83L119.151 120.055M147.479 99.5652C147.479 99.5652 147.479 99.5653 147.478 99.5654L118.844 110.653C118.633 110.735 118.478 110.896 118.407 111.082L147.479 99.5652ZM147.479 99.5652C147.642 99.5022 147.825 99.4923 147.996 99.538L147.479 99.5652ZM119.151 120.055C117.361 117.647 117.044 114.683 118.407 111.083L119.151 120.055Z" fill="#EA83AA" stroke="#FFF6E9" stroke-width="2"/>
<path d="M151.889 75.5361L151.888 75.5358C151.085 75.2372 147.049 73.7925 142.351 73.0288C140.003 72.6469 137.521 72.4408 135.214 72.6202C132.899 72.8 130.83 73.362 129.242 74.4543L151.889 75.5361ZM151.889 75.5361C152.122 75.6223 152.286 75.8026 152.35 76.0116L151.889 75.5361ZM125.999 81.7731L125.999 81.7739C126.005 81.97 126.099 82.1645 126.272 82.3024C126.273 82.3025 126.273 82.3027 126.273 82.3027L147.273 98.9345L147.273 98.9347C147.413 99.0456 147.592 99.1082 147.78 99.1082C147.83 99.1082 147.88 99.1037 147.932 99.0943L125.999 81.7731ZM125.999 81.7731C125.89 78.3758 127.021 75.9825 129.242 74.4544L125.999 81.7731ZM152.35 76.0118C152.43 76.2766 153.476 79.7577 153.987 83.9733C154.242 86.0813 154.361 88.3451 154.168 90.4667C153.975 92.5971 153.475 94.514 152.549 95.9839C151.476 97.6863 149.941 98.7233 147.932 99.0942L152.35 76.0118Z" fill="#EA83AA" stroke="#FFF6E9" stroke-width="2"/>
<path d="M132.55 90.2686L132.545 90.2611L132.54 90.2537C130.568 87.3288 132.242 84.1507 134.815 83.2985C141.727 85.0938 146.775 91.1878 146.775 98.3811C146.775 105.214 142.238 111.048 135.884 113.17C138.42 110.851 140.445 107.686 140.774 104.129C141.152 100.174 139.398 95.9664 134.38 92.1708C133.55 91.5404 132.958 90.8988 132.55 90.2686Z" fill="#EA83AA" stroke="#FFF6E9" stroke-width="2"/>
<path d="M130.489 90.7294C129.939 91.3045 129.26 91.6768 128.448 91.9921C127.985 92.1716 127.503 92.3241 126.978 92.4903C126.91 92.5116 126.842 92.5332 126.773 92.5551C126.181 92.7431 125.544 92.9508 124.911 93.22C123.624 93.767 122.332 94.5765 121.27 96.0522C120.432 97.2175 119.772 98.7486 119.338 100.796C117.389 99.1189 115.909 96.8484 115.082 93.9587C117.043 87.5144 123.237 82.762 130.605 82.762C131.013 82.762 131.417 82.7766 131.818 82.8053C129.802 84.6537 128.86 87.7354 130.489 90.7294Z" fill="#EA83AA" stroke="#FFF6E9" stroke-width="2"/>
<mask id="path-15-inside-1_365_278" fill="white">
<path d="M139.776 104.037C139.331 108.864 135.413 113.036 131.513 115.001C131.495 115.001 131.495 115.001 131.495 115.001C131.192 115.018 130.907 115.018 130.605 115.018C121.112 115.018 113.418 107.571 113.418 98.3817C113.418 96.8474 113.632 95.3648 114.042 93.9512C115.075 97.7956 117.194 100.675 120.043 102.588C125.03 105.967 132.243 106.398 139.776 104.037Z"/>
</mask>
<path d="M139.776 104.037C139.331 108.864 135.413 113.036 131.513 115.001C131.495 115.001 131.495 115.001 131.495 115.001C131.192 115.018 130.907 115.018 130.605 115.018C121.112 115.018 113.418 107.571 113.418 98.3817C113.418 96.8474 113.632 95.3648 114.042 93.9512C115.075 97.7956 117.194 100.675 120.043 102.588C125.03 105.967 132.243 106.398 139.776 104.037Z" fill="#EA83AA"/>
<path d="M139.776 104.037L141.768 104.22L142.044 101.23L139.178 102.128L139.776 104.037ZM131.513 115.001V117.001H131.988L132.413 116.787L131.513 115.001ZM131.495 115.001L131.608 116.998L131.495 113.001V115.001ZM114.042 93.9512L115.973 93.4322L114.114 86.514L112.121 93.3946L114.042 93.9512ZM120.043 102.588L121.165 100.933L121.159 100.928L120.043 102.588ZM137.785 103.853C137.424 107.769 134.13 111.443 130.613 113.215L132.413 116.787C136.697 114.629 141.239 109.958 141.768 104.22L137.785 103.853ZM131.513 113.001C131.513 113.001 131.513 113.001 131.513 113.001C131.513 113.001 131.513 113.001 131.513 113.001C131.513 113.001 131.513 113.001 131.513 113.001C131.512 113.001 131.512 113.001 131.512 113.001C131.512 113.001 131.512 113.001 131.512 113.001C131.512 113.001 131.512 113.001 131.512 113.001C131.512 113.001 131.512 113.001 131.512 113.001C131.512 113.001 131.512 113.001 131.512 113.001C131.512 113.001 131.512 113.001 131.512 113.001C131.512 113.001 131.512 113.001 131.512 113.001C131.512 113.001 131.512 113.001 131.512 113.001C131.512 113.001 131.512 113.001 131.512 113.001C131.512 113.001 131.512 113.001 131.512 113.001C131.511 113.001 131.511 113.001 131.511 113.001C131.511 113.001 131.511 113.001 131.511 113.001C131.511 113.001 131.511 113.001 131.511 113.001C131.511 113.001 131.511 113.001 131.511 113.001C131.511 113.001 131.511 113.001 131.511 113.001C131.511 113.001 131.511 113.001 131.511 113.001C131.511 113.001 131.511 113.001 131.511 113.001C131.511 113.001 131.511 113.001 131.511 113.001C131.511 113.001 131.511 113.001 131.511 113.001C131.511 113.001 131.511 113.001 131.511 113.001C131.511 113.001 131.51 113.001 131.51 113.001C131.51 113.001 131.51 113.001 131.51 113.001C131.51 113.001 131.51 113.001 131.51 113.001C131.51 113.001 131.51 113.001 131.51 113.001C131.51 113.001 131.51 113.001 131.51 113.001C131.51 113.001 131.51 113.001 131.51 113.001C131.51 113.001 131.51 113.001 131.51 113.001C131.51 113.001 131.51 113.001 131.51 113.001C131.51 113.001 131.51 113.001 131.51 113.001C131.51 113.001 131.51 113.001 131.51 113.001C131.51 113.001 131.51 113.001 131.51 113.001C131.509 113.001 131.509 113.001 131.509 113.001C131.509 113.001 131.509 113.001 131.509 113.001C131.509 113.001 131.509 113.001 131.509 113.001C131.509 113.001 131.509 113.001 131.509 113.001C131.509 113.001 131.509 113.001 131.509 113.001C131.509 113.001 131.509 113.001 131.509 113.001C131.509 113.001 131.509 113.001 131.509 113.001C131.509 113.001 131.509 113.001 131.509 113.001C131.509 113.001 131.509 113.001 131.509 113.001C131.509 113.001 131.509 113.001 131.509 113.001C131.509 113.001 131.509 113.001 131.509 113.001C131.509 113.001 131.508 113.001 131.508 113.001C131.508 113.001 131.508 113.001 131.508 113.001C131.508 113.001 131.508 113.001 131.508 113.001C131.508 113.001 131.508 113.001 131.508 113.001C131.508 113.001 131.508 113.001 131.508 113.001C131.508 113.001 131.508 113.001 131.508 113.001C131.508 113.001 131.508 113.001 131.508 113.001C131.508 113.001 131.508 113.001 131.508 113.001C131.508 113.001 131.508 113.001 131.508 113.001C131.508 113.001 131.508 113.001 131.508 113.001C131.508 113.001 131.508 113.001 131.508 113.001C131.508 113.001 131.508 113.001 131.508 113.001C131.508 113.001 131.507 113.001 131.507 113.001C131.507 113.001 131.507 113.001 131.507 113.001C131.507 113.001 131.507 113.001 131.507 113.001C131.507 113.001 131.507 113.001 131.507 113.001C131.507 113.001 131.507 113.001 131.507 113.001C131.507 113.001 131.507 113.001 131.507 113.001C131.507 113.001 131.507 113.001 131.507 113.001C131.507 113.001 131.507 113.001 131.507 113.001C131.507 113.001 131.507 113.001 131.507 113.001C131.507 113.001 131.507 113.001 131.507 113.001C131.507 113.001 131.507 113.001 131.507 113.001C131.507 113.001 131.507 113.001 131.507 113.001C131.507 113.001 131.507 113.001 131.506 113.001C131.506 113.001 131.506 113.001 131.506 113.001C131.506 113.001 131.506 113.001 131.506 113.001C131.506 113.001 131.506 113.001 131.506 113.001C131.506 113.001 131.506 113.001 131.506 113.001C131.506 113.001 131.506 113.001 131.506 113.001C131.506 113.001 131.506 113.001 131.506 113.001C131.506 113.001 131.506 113.001 131.506 113.001C131.506 113.001 131.506 113.001 131.506 113.001C131.506 113.001 131.506 113.001 131.506 113.001C131.506 113.001 131.506 113.001 131.506 113.001C131.506 113.001 131.506 113.001 131.506 113.001C131.506 113.001 131.506 113.001 131.506 113.001C131.506 113.001 131.506 113.001 131.506 113.001C131.505 113.001 131.505 113.001 131.505 113.001C131.505 113.001 131.505 113.001 131.505 113.001C131.505 113.001 131.505 113.001 131.505 113.001C131.505 113.001 131.505 113.001 131.505 113.001C131.505 113.001 131.505 113.001 131.505 113.001C131.505 113.001 131.505 113.001 131.505 113.001C131.505 113.001 131.505 113.001 131.505 113.001C131.505 113.001 131.505 113.001 131.505 113.001C131.505 113.001 131.505 113.001 131.505 113.001C131.505 113.001 131.505 113.001 131.505 113.001C131.505 113.001 131.505 113.001 131.505 113.001C131.505 113.001 131.505 113.001 131.505 113.001C131.505 113.001 131.505 113.001 131.505 113.001C131.505 113.001 131.505 113.001 131.505 113.001C131.505 113.001 131.504 113.001 131.504 113.001C131.504 113.001 131.504 113.001 131.504 113.001C131.504 113.001 131.504 113.001 131.504 113.001C131.504 113.001 131.504 113.001 131.504 113.001C131.504 113.001 131.504 113.001 131.504 113.001C131.504 113.001 131.504 113.001 131.504 113.001C131.504 113.001 131.504 113.001 131.504 113.001C131.504 113.001 131.504 113.001 131.504 113.001C131.504 113.001 131.504 113.001 131.504 113.001C131.504 113.001 131.504 113.001 131.504 113.001C131.504 113.001 131.504 113.001 131.504 113.001C131.504 113.001 131.504 113.001 131.504 113.001C131.504 113.001 131.504 113.001 131.504 113.001C131.504 113.001 131.504 113.001 131.504 113.001C131.504 113.001 131.504 113.001 131.504 113.001C131.504 113.001 131.503 113.001 131.503 113.001C131.503 113.001 131.503 113.001 131.503 113.001C131.503 113.001 131.503 113.001 131.503 113.001C131.503 113.001 131.503 113.001 131.503 113.001C131.503 113.001 131.503 113.001 131.503 113.001C131.503 113.001 131.503 113.001 131.503 113.001C131.503 113.001 131.503 113.001 131.503 113.001C131.503 113.001 131.503 113.001 131.503 113.001C131.503 113.001 131.503 113.001 131.503 113.001C131.503 113.001 131.503 113.001 131.503 113.001C131.503 113.001 131.503 113.001 131.503 113.001C131.503 113.001 131.503 113.001 131.503 113.001C131.503 113.001 131.503 113.001 131.503 113.001C131.503 113.001 131.503 113.001 131.503 113.001C131.503 113.001 131.503 113.001 131.503 113.001C131.503 113.001 131.503 113.001 131.503 113.001C131.503 113.001 131.503 113.001 131.503 113.001C131.502 113.001 131.502 113.001 131.502 113.001C131.502 113.001 131.502 113.001 131.502 113.001C131.502 113.001 131.502 113.001 131.502 113.001C131.502 113.001 131.502 113.001 131.502 113.001C131.502 113.001 131.502 113.001 131.502 113.001C131.502 113.001 131.502 113.001 131.502 113.001C131.502 113.001 131.502 113.001 131.502 113.001C131.502 113.001 131.502 113.001 131.502 113.001C131.502 113.001 131.502 113.001 131.502 113.001C131.502 113.001 131.502 113.001 131.502 113.001C131.502 113.001 131.502 113.001 131.502 113.001C131.502 113.001 131.502 113.001 131.502 113.001C131.502 113.001 131.502 113.001 131.502 113.001C131.502 113.001 131.502 113.001 131.502 113.001C131.502 113.001 131.502 113.001 131.502 113.001C131.502 113.001 131.502 113.001 131.502 113.001C131.502 113.001 131.502 113.001 131.502 113.001C131.502 113.001 131.502 113.001 131.502 113.001C131.501 113.001 131.501 113.001 131.501 113.001C131.501 113.001 131.501 113.001 131.501 113.001C131.501 113.001 131.501 113.001 131.501 113.001C131.501 113.001 131.501 113.001 131.501 113.001C131.501 113.001 131.501 113.001 131.501 113.001C131.501 113.001 131.501 113.001 131.501 113.001C131.501 113.001 131.501 113.001 131.501 113.001C131.501 113.001 131.501 113.001 131.501 113.001C131.501 113.001 131.501 113.001 131.501 113.001C131.501 113.001 131.501 113.001 131.501 113.001C131.501 113.001 131.501 113.001 131.501 113.001C131.501 113.001 131.501 113.001 131.501 113.001C131.501 113.001 131.501 113.001 131.501 113.001C131.501 113.001 131.501 113.001 131.501 113.001C131.501 113.001 131.501 113.001 131.501 113.001C131.501 113.001 131.501 113.001 131.501 113.001C131.501 113.001 131.501 113.001 131.501 113.001C131.501 113.001 131.501 113.001 131.501 113.001C131.501 113.001 131.501 113.001 131.501 113.001C131.501 113.001 131.501 113.001 131.501 113.001C131.5 113.001 131.5 113.001 131.5 113.001C131.5 113.001 131.5 113.001 131.5 113.001C131.5 113.001 131.5 113.001 131.5 113.001C131.5 113.001 131.5 113.001 131.5 113.001C131.5 113.001 131.5 113.001 131.5 113.001C131.5 113.001 131.5 113.001 131.5 113.001C131.5 113.001 131.5 113.001 131.5 113.001C131.5 113.001 131.5 113.001 131.5 113.001C131.5 113.001 131.5 113.001 131.5 113.001C131.5 113.001 131.5 113.001 131.5 113.001C131.5 113.001 131.5 113.001 131.5 113.001C131.5 113.001 131.5 113.001 131.5 113.001C131.5 113.001 131.5 113.001 131.5 113.001C131.5 113.001 131.5 113.001 131.5 113.001C131.5 113.001 131.5 113.001 131.5 113.001C131.5 113.001 131.5 113.001 131.5 113.001C131.5 113.001 131.5 113.001 131.5 113.001C131.5 113.001 131.5 113.001 131.5 113.001C131.5 113.001 131.5 113.001 131.5 113.001C131.5 113.001 131.5 113.001 131.5 113.001C131.5 113.001 131.5 113.001 131.5 113.001C131.5 113.001 131.5 113.001 131.5 113.001C131.5 113.001 131.5 113.001 131.499 113.001C131.499 113.001 131.499 113.001 131.499 113.001C131.499 113.001 131.499 113.001 131.499 113.001C131.499 113.001 131.499 113.001 131.499 113.001C131.499 113.001 131.499 113.001 131.499 113.001C131.499 113.001 131.499 113.001 131.499 113.001C131.499 113.001 131.499 113.001 131.499 113.001C131.499 113.001 131.499 113.001 131.499 113.001C131.499 113.001 131.499 113.001 131.499 113.001C131.499 113.001 131.499 113.001 131.499 113.001C131.499 113.001 131.499 113.001 131.499 113.001C131.499 113.001 131.499 113.001 131.499 113.001C131.499 113.001 131.499 113.001 131.499 113.001C131.499 113.001 131.499 113.001 131.499 113.001C131.499 113.001 131.499 113.001 131.499 113.001C131.499 113.001 131.499 113.001 131.499 113.001C131.499 113.001 131.499 113.001 131.499 113.001C131.499 113.001 131.499 113.001 131.499 113.001C131.499 113.001 131.499 113.001 131.499 113.001C131.499 113.001 131.499 113.001 131.499 113.001C131.499 113.001 131.499 113.001 131.499 113.001C131.499 113.001 131.499 113.001 131.499 113.001C131.499 113.001 131.499 113.001 131.499 113.001C131.499 113.001 131.499 113.001 131.499 113.001C131.499 113.001 131.499 113.001 131.499 113.001C131.499 113.001 131.499 113.001 131.499 113.001C131.499 113.001 131.499 113.001 131.499 113.001C131.498 113.001 131.498 113.001 131.498 113.001C131.498 113.001 131.498 113.001 131.498 113.001C131.498 113.001 131.498 113.001 131.498 113.001C131.498 113.001 131.498 113.001 131.498 113.001C131.498 113.001 131.498 113.001 131.498 113.001C131.498 113.001 131.498 113.001 131.498 113.001C131.498 113.001 131.498 113.001 131.498 113.001C131.498 113.001 131.498 113.001 131.498 113.001C131.498 113.001 131.498 113.001 131.498 113.001C131.498 113.001 131.498 113.001 131.498 113.001C131.498 113.001 131.498 113.001 131.498 113.001C131.498 113.001 131.498 113.001 131.498 113.001C131.498 113.001 131.498 113.001 131.498 113.001C131.498 113.001 131.498 113.001 131.498 113.001C131.498 113.001 131.498 113.001 131.498 113.001C131.498 113.001 131.498 113.001 131.498 113.001C131.498 113.001 131.498 113.001 131.498 113.001C131.498 113.001 131.498 113.001 131.498 113.001C131.498 113.001 131.498 113.001 131.498 113.001C131.498 113.001 131.498 113.001 131.498 113.001C131.498 113.001 131.498 113.001 131.498 113.001C131.498 113.001 131.498 113.001 131.498 113.001C131.498 113.001 131.498 113.001 131.498 113.001C131.498 113.001 131.498 113.001 131.498 113.001C131.498 113.001 131.498 113.001 131.498 113.001C131.498 113.001 131.498 113.001 131.498 113.001C131.498 113.001 131.498 113.001 131.498 113.001C131.498 113.001 131.498 113.001 131.498 113.001C131.498 113.001 131.498 113.001 131.498 113.001C131.498 113.001 131.498 113.001 131.498 113.001C131.498 113.001 131.498 113.001 131.498 113.001C131.498 113.001 131.498 113.001 131.498 113.001C131.497 113.001 131.497 113.001 131.497 113.001C131.497 113.001 131.497 113.001 131.497 113.001C131.497 113.001 131.497 113.001 131.497 113.001C131.497 113.001 131.497 113.001 131.497 113.001C131.497 113.001 131.497 113.001 131.497 113.001C131.497 113.001 131.497 113.001 131.497 113.001C131.497 113.001 131.497 113.001 131.497 113.001C131.497 113.001 131.497 113.001 131.497 113.001C131.497 113.001 131.497 113.001 131.497 113.001C131.497 113.001 131.497 113.001 131.497 113.001C131.497 113.001 131.497 113.001 131.497 113.001C131.497 113.001 131.497 113.001 131.497 113.001C131.497 113.001 131.497 113.001 131.497 113.001C131.497 113.001 131.497 113.001 131.497 113.001C131.497 113.001 131.497 113.001 131.497 113.001C131.497 113.001 131.497 113.001 131.497 113.001C131.497 113.001 131.497 113.001 131.497 113.001C131.497 113.001 131.497 113.001 131.497 113.001C131.497 113.001 131.497 113.001 131.497 113.001C131.497 113.001 131.497 113.001 131.497 113.001C131.497 113.001 131.497 113.001 131.497 113.001C131.497 113.001 131.497 113.001 131.497 113.001C131.497 113.001 131.497 113.001 131.497 113.001C131.497 113.001 131.497 113.001 131.497 113.001C131.497 113.001 131.497 113.001 131.497 113.001C131.497 113.001 131.497 113.001 131.497 113.001C131.497 113.001 131.497 113.001 131.497 113.001C131.497 113.001 131.497 113.001 131.497 113.001C131.497 113.001 131.497 113.001 131.497 113.001C131.497 113.001 131.497 113.001 131.497 113.001C131.497 113.001 131.497 113.001 131.497 113.001C131.497 113.001 131.497 113.001 131.497 113.001C131.497 113.001 131.497 113.001 131.497 113.001C131.497 113.001 131.497 113.001 131.497 113.001C131.497 113.001 131.497 113.001 131.497 113.001C131.497 113.001 131.497 113.001 131.497 113.001C131.497 113.001 131.497 113.001 131.497 113.001C131.497 113.001 131.497 113.001 131.497 113.001C131.497 113.001 131.497 113.001 131.497 113.001C131.497 113.001 131.497 113.001 131.497 113.001C131.497 113.001 131.497 113.001 131.497 113.001C131.497 113.001 131.497 113.001 131.497 113.001C131.497 113.001 131.497 113.001 131.496 113.001C131.496 113.001 131.496 113.001 131.496 113.001C131.496 113.001 131.496 113.001 131.496 113.001C131.496 113.001 131.496 113.001 131.496 113.001C131.496 113.001 131.496 113.001 131.496 113.001C131.496 113.001 131.496 113.001 131.496 113.001C131.496 113.001 131.496 113.001 131.496 113.001C131.496 113.001 131.496 113.001 131.496 113.001C131.496 113.001 131.496 113.001 131.496 113.001C131.496 113.001 131.496 113.001 131.496 113.001C131.496 113.001 131.496 113.001 131.496 113.001C131.496 113.001 131.496 113.001 131.496 113.001C131.496 113.001 131.496 113.001 131.496 113.001C131.496 113.001 131.496 113.001 131.496 113.001C131.496 113.001 131.496 113.001 131.496 113.001C131.496 113.001 131.496 113.001 131.496 113.001C131.496 113.001 131.496 113.001 131.496 113.001C131.496 113.001 131.496 113.001 131.496 113.001C131.496 113.001 131.496 113.001 131.496 113.001C131.496 113.001 131.496 113.001 131.496 113.001C131.496 113.001 131.496 113.001 131.496 113.001C131.496 113.001 131.496 113.001 131.496 113.001C131.496 113.001 131.496 113.001 131.496 113.001C131.496 113.001 131.496 113.001 131.496 113.001C131.496 113.001 131.496 113.001 131.496 113.001C131.496 113.001 131.496 113.001 131.496 113.001C131.496 113.001 131.496 113.001 131.496 113.001C131.496 113.001 131.496 113.001 131.496 113.001C131.496 113.001 131.496 113.001 131.496 113.001C131.496 113.001 131.496 113.001 131.496 113.001C131.496 113.001 131.496 113.001 131.496 113.001C131.496 113.001 131.496 113.001 131.496 113.001C131.496 113.001 131.496 113.001 131.496 113.001C131.496 113.001 131.496 113.001 131.496 113.001C131.496 113.001 131.496 113.001 131.496 113.001C131.496 113.001 131.496 113.001 131.496 113.001C131.496 113.001 131.496 113.001 131.496 113.001C131.496 113.001 131.496 113.001 131.496 113.001C131.496 113.001 131.496 113.001 131.496 113.001C131.496 113.001 131.496 113.001 131.496 113.001C131.496 113.001 131.496 113.001 131.496 113.001C131.496 113.001 131.496 113.001 131.496 113.001C131.496 113.001 131.496 113.001 131.496 113.001C131.496 113.001 131.496 113.001 131.496 113.001C131.496 113.001 131.496 113.001 131.496 113.001C131.496 113.001 131.496 113.001 131.496 113.001C131.496 113.001 131.496 113.001 131.496 113.001C131.496 113.001 131.496 113.001 131.496 113.001C131.496 113.001 131.496 113.001 131.496 113.001C131.496 113.001 131.496 113.001 131.496 113.001C131.496 113.001 131.496 113.001 131.496 113.001C131.496 113.001 131.496 113.001 131.496 113.001C131.496 113.001 131.496 113.001 131.496 113.001C131.496 113.001 131.496 113.001 131.496 113.001C131.496 113.001 131.496 113.001 131.496 113.001C131.496 113.001 131.496 113.001 131.496 113.001C131.496 113.001 131.496 113.001 131.496 113.001C131.496 113.001 131.496 113.001 131.496 113.001C131.496 113.001 131.496 113.001 131.496 113.001C131.496 113.001 131.496 113.001 131.496 113.001C131.496 113.001 131.496 113.001 131.496 113.001C131.496 113.001 131.496 113.001 131.496 113.001C131.496 113.001 131.496 113.001 131.496 113.001C131.496 113.001 131.496 113.001 131.496 113.001C131.496 113.001 131.496 113.001 131.496 113.001C131.496 113.001 131.496 113.001 131.496 113.001C131.496 113.001 131.496 113.001 131.496 113.001C131.496 113.001 131.496 113.001 131.496 113.001C131.496 113.001 131.496 113.001 131.496 113.001C131.496 113.001 131.496 113.001 131.496 113.001C131.496 113.001 131.496 113.001 131.496 113.001C131.496 113.001 131.496 113.001 131.496 113.001C131.496 113.001 131.496 113.001 131.496 113.001C131.496 113.001 131.496 113.001 131.495 113.001C131.495 113.001 131.495 113.001 131.495 113.001C131.495 113.001 131.495 113.001 131.495 113.001C131.495 113.001 131.495 113.001 131.495 113.001C131.495 113.001 131.495 113.001 131.495 113.001C131.495 113.001 131.495 113.001 131.495 113.001C131.495 113.001 131.495 113.001 131.495 113.001C131.495 113.001 131.495 113.001 131.495 113.001C131.495 113.001 131.495 113.001 131.495 113.001C131.495 113.001 131.495 113.001 131.495 113.001C131.495 113.001 131.495 113.001 131.495 113.001C131.495 113.001 131.495 113.001 131.495 113.001C131.495 113.001 131.495 113.001 131.495 113.001C131.495 113.001 131.495 113.001 131.495 113.001C131.495 113.001 131.495 113.001 131.495 113.001C131.495 113.001 131.495 113.001 131.495 113.001C131.495 113.001 131.495 113.001 131.495 113.001C131.495 113.001 131.495 113.001 131.495 113.001C131.495 113.001 131.495 113.001 131.495 113.001C131.495 113.001 131.495 113.001 131.495 113.001C131.495 113.001 131.495 113.001 131.495 113.001C131.495 113.001 131.495 113.001 131.495 113.001C131.495 113.001 131.495 113.001 131.495 113.001C131.495 113.001 131.495 113.001 131.495 113.001C131.495 113.001 131.495 113.001 131.495 113.001C131.495 113.001 131.495 113.001 131.495 113.001C131.495 113.001 131.495 113.001 131.495 113.001C131.495 113.001 131.495 113.001 131.495 113.001C131.495 113.001 131.495 113.001 131.495 113.001C131.495 113.001 131.495 113.001 131.495 113.001C131.495 113.001 131.495 113.001 131.495 113.001C131.495 113.001 131.495 113.001 131.495 113.001C131.495 113.001 131.495 113.001 131.495 113.001C131.495 113.001 131.495 113.001 131.495 113.001C131.495 113.001 131.495 113.001 131.495 113.001C131.495 113.001 131.495 113.001 131.495 113.001C131.495 113.001 131.495 113.001 131.495 113.001C131.495 113.001 131.495 113.001 131.495 113.001C131.495 113.001 131.495 113.001 131.495 113.001C131.495 113.001 131.495 113.001 131.495 113.001C131.495 113.001 131.495 113.001 131.495 113.001C131.495 113.001 131.495 113.001 131.495 113.001C131.495 113.001 131.495 113.001 131.495 113.001C131.495 113.001 131.495 113.001 131.495 113.001C131.495 113.001 131.495 113.001 131.495 113.001C131.495 113.001 131.495 113.001 131.495 113.001C131.495 113.001 131.495 113.001 131.495 113.001C131.495 113.001 131.495 113.001 131.495 113.001C131.495 113.001 131.495 113.001 131.495 113.001C131.495 113.001 131.495 113.001 131.495 113.001C131.495 113.001 131.495 113.001 131.495 113.001C131.495 113.001 131.495 113.001 131.495 113.001C131.495 113.001 131.495 113.001 131.495 113.001C131.495 113.001 131.495 113.001 131.495 113.001C131.495 113.001 131.495 113.001 131.495 113.001C131.495 113.001 131.495 113.001 131.495 113.001H131.495C131.495 113.001 131.495 113.001 131.495 113.001C131.495 113.001 131.495 113.001 131.495 113.001C131.495 113.001 131.495 113.001 131.495 113.001H131.495C131.495 113.001 131.495 113.001 131.495 113.001H131.495C131.495 113.001 131.495 113.001 131.495 113.001H131.495C131.495 113.001 131.495 113.001 131.495 113.001H131.495C131.495 113.001 131.495 113.001 131.495 113.001C131.495 113.001 131.495 113.001 131.495 113.001H131.495C131.495 113.001 131.495 113.001 131.495 113.001C131.495 113.001 131.495 113.001 131.495 113.001H131.495H131.495C131.495 113.001 131.495 113.001 131.495 113.001C131.495 113.001 131.495 113.001 131.495 113.001C131.495 113.001 131.495 113.001 131.495 113.001C131.495 113.001 131.495 113.001 131.495 113.001C131.495 113.001 131.495 113.001 131.495 113.001C131.495 113.001 131.495 113.001 131.495 113.001C131.495 113.001 131.495 113.001 131.495 113.001C131.495 113.001 131.495 113.001 131.495 113.001C131.495 113.001 131.495 113.001 131.495 113.001C131.495 113.001 131.495 113.001 131.495 113.001C131.495 113.001 131.495 113.001 131.495 113.001H131.495C131.495 113.001 131.495 113.001 131.495 113.001C131.495 113.001 131.495 113.001 131.495 113.001H131.495C131.495 113.001 131.495 113.001 131.495 113.001H131.495C131.495 113.001 131.495 113.001 131.495 113.001C131.495 113.001 131.495 113.001 131.495 113.001H131.495H131.495H131.495C131.495 113.001 131.495 113.001 131.495 113.001H131.495C131.495 113.001 131.495 113.001 131.495 113.001C131.495 113.001 131.495 113.001 131.495 113.001C131.495 113.001 131.495 113.001 131.495 113.001H131.495C131.495 115.001 131.495 117.001 131.495 115.001C131.495 113.001 131.495 115.001 131.495 117.001H131.495C131.495 117.001 131.495 117.001 131.495 117.001C131.495 117.001 131.495 117.001 131.495 117.001C131.495 117.001 131.495 117.001 131.495 117.001H131.495C131.495 117.001 131.495 117.001 131.495 117.001H131.495H131.495H131.495C131.495 117.001 131.495 117.001 131.495 117.001C131.495 117.001 131.495 117.001 131.495 117.001H131.495C131.495 117.001 131.495 117.001 131.495 117.001H131.495C131.495 117.001 131.495 117.001 131.495 117.001C131.495 117.001 131.495 117.001 131.495 117.001H131.495C131.495 117.001 131.495 117.001 131.495 117.001C131.495 117.001 131.495 117.001 131.495 117.001C131.495 117.001 131.495 117.001 131.495 117.001C131.495 117.001 131.495 117.001 131.495 117.001C131.495 117.001 131.495 117.001 131.495 117.001C131.495 117.001 131.495 117.001 131.495 117.001C131.495 117.001 131.495 117.001 131.495 117.001C131.495 117.001 131.495 117.001 131.495 117.001C131.495 117.001 131.495 117.001 131.495 117.001C131.495 117.001 131.495 117.001 131.495 117.001C131.495 117.001 131.495 117.001 131.495 117.001H131.495H131.495C131.495 117.001 131.495 117.001 131.495 117.001C131.495 117.001 131.495 117.001 131.495 117.001H131.495C131.495 117.001 131.495 117.001 131.495 117.001C131.495 117.001 131.495 117.001 131.495 117.001H131.495C131.495 117.001 131.495 117.001 131.495 117.001H131.495C131.495 117.001 131.495 117.001 131.495 117.001H131.495C131.495 117.001 131.495 117.001 131.495 117.001H131.495C131.495 117.001 131.495 117.001 131.495 117.001C131.495 117.001 131.495 117.001 131.495 117.001C131.495 117.001 131.495 117.001 131.495 117.001H131.495C131.495 117.001 131.495 117.001 131.495 117.001C131.495 117.001 131.495 117.001 131.495 117.001C131.495 117.001 131.495 117.001 131.495 117.001C131.495 117.001 131.495 117.001 131.495 117.001C131.495 117.001 131.495 117.001 131.495 117.001C131.495 117.001 131.495 117.001 131.495 117.001C131.495 117.001 131.495 117.001 131.495 117.001C131.495 117.001 131.495 117.001 131.495 117.001C131.495 117.001 131.495 117.001 131.495 117.001C131.495 117.001 131.495 117.001 131.495 117.001C131.495 117.001 131.495 117.001 131.495 117.001C131.495 117.001 131.495 117.001 131.495 117.001C131.495 117.001 131.495 117.001 131.495 117.001C131.495 117.001 131.495 117.001 131.495 117.001C131.495 117.001 131.495 117.001 131.495 117.001C131.495 117.001 131.495 117.001 131.495 117.001C131.495 117.001 131.495 117.001 131.495 117.001C131.495 117.001 131.495 117.001 131.495 117.001C131.495 117.001 131.495 117.001 131.495 117.001C131.495 117.001 131.495 117.001 131.495 117.001C131.495 117.001 131.495 117.001 131.495 117.001C131.495 117.001 131.495 117.001 131.495 117.001C131.495 117.001 131.495 117.001 131.495 117.001C131.495 117.001 131.495 117.001 131.495 117.001C131.495 117.001 131.495 117.001 131.495 117.001C131.495 117.001 131.495 117.001 131.495 117.001C131.495 117.001 131.495 117.001 131.495 117.001C131.495 117.001 131.495 117.001 131.495 117.001C131.495 117.001 131.495 117.001 131.495 117.001C131.495 117.001 131.495 117.001 131.495 117.001C131.495 117.001 131.495 117.001 131.495 117.001C131.495 117.001 131.495 117.001 131.495 117.001C131.495 117.001 131.495 117.001 131.495 117.001C131.495 117.001 131.495 117.001 131.495 117.001C131.495 117.001 131.495 117.001 131.495 117.001C131.495 117.001 131.495 117.001 131.495 117.001C131.495 117.001 131.495 117.001 131.495 117.001C131.495 117.001 131.495 117.001 131.495 117.001C131.495 117.001 131.495 117.001 131.495 117.001C131.495 117.001 131.495 117.001 131.495 117.001C131.495 117.001 131.495 117.001 131.495 117.001C131.495 117.001 131.495 117.001 131.495 117.001C131.495 117.001 131.495 117.001 131.495 117.001C131.495 117.001 131.495 117.001 131.495 117.001C131.495 117.001 131.495 117.001 131.495 117.001C131.495 117.001 131.495 117.001 131.495 117.001C131.495 117.001 131.495 117.001 131.495 117.001C131.495 117.001 131.495 117.001 131.495 117.001C131.495 117.001 131.495 117.001 131.495 117.001C131.495 117.001 131.495 117.001 131.495 117.001C131.495 117.001 131.495 117.001 131.495 117.001C131.495 117.001 131.495 117.001 131.495 117.001C131.495 117.001 131.495 117.001 131.495 117.001C131.495 117.001 131.495 117.001 131.495 117.001C131.495 117.001 131.495 117.001 131.495 117.001C131.496 117.001 131.496 117.001 131.496 117.001C131.496 117.001 131.496 117.001 131.496 117.001C131.496 117.001 131.496 117.001 131.496 117.001C131.496 117.001 131.496 117.001 131.496 117.001C131.496 117.001 131.496 117.001 131.496 117.001C131.496 117.001 131.496 117.001 131.496 117.001C131.496 117.001 131.496 117.001 131.496 117.001C131.496 117.001 131.496 117.001 131.496 117.001C131.496 117.001 131.496 117.001 131.496 117.001C131.496 117.001 131.496 117.001 131.496 117.001C131.496 117.001 131.496 117.001 131.496 117.001C131.496 117.001 131.496 117.001 131.496 117.001C131.496 117.001 131.496 117.001 131.496 117.001C131.496 117.001 131.496 117.001 131.496 117.001C131.496 117.001 131.496 117.001 131.496 117.001C131.496 117.001 131.496 117.001 131.496 117.001C131.496 117.001 131.496 117.001 131.496 117.001C131.496 117.001 131.496 117.001 131.496 117.001C131.496 117.001 131.496 117.001 131.496 117.001C131.496 117.001 131.496 117.001 131.496 117.001C131.496 117.001 131.496 117.001 131.496 117.001C131.496 117.001 131.496 117.001 131.496 117.001C131.496 117.001 131.496 117.001 131.496 117.001C131.496 117.001 131.496 117.001 131.496 117.001C131.496 117.001 131.496 117.001 131.496 117.001C131.496 117.001 131.496 117.001 131.496 117.001C131.496 117.001 131.496 117.001 131.496 117.001C131.496 117.001 131.496 117.001 131.496 117.001C131.496 117.001 131.496 117.001 131.496 117.001C131.496 117.001 131.496 117.001 131.496 117.001C131.496 117.001 131.496 117.001 131.496 117.001C131.496 117.001 131.496 117.001 131.496 117.001C131.496 117.001 131.496 117.001 131.496 117.001C131.496 117.001 131.496 117.001 131.496 117.001C131.496 117.001 131.496 117.001 131.496 117.001C131.496 117.001 131.496 117.001 131.496 117.001C131.496 117.001 131.496 117.001 131.496 117.001C131.496 117.001 131.496 117.001 131.496 117.001C131.496 117.001 131.496 117.001 131.496 117.001C131.496 117.001 131.496 117.001 131.496 117.001C131.496 117.001 131.496 117.001 131.496 117.001C131.496 117.001 131.496 117.001 131.496 117.001C131.496 117.001 131.496 117.001 131.496 117.001C131.496 117.001 131.496 117.001 131.496 117.001C131.496 117.001 131.496 117.001 131.496 117.001C131.496 117.001 131.496 117.001 131.496 117.001C131.496 117.001 131.496 117.001 131.496 117.001C131.496 117.001 131.496 117.001 131.496 117.001C131.496 117.001 131.496 117.001 131.496 117.001C131.496 117.001 131.496 117.001 131.496 117.001C131.496 117.001 131.496 117.001 131.496 117.001C131.496 117.001 131.496 117.001 131.496 117.001C131.496 117.001 131.496 117.001 131.496 117.001C131.496 117.001 131.496 117.001 131.496 117.001C131.496 117.001 131.496 117.001 131.496 117.001C131.496 117.001 131.496 117.001 131.496 117.001C131.496 117.001 131.496 117.001 131.496 117.001C131.496 117.001 131.496 117.001 131.496 117.001C131.496 117.001 131.496 117.001 131.496 117.001C131.496 117.001 131.496 117.001 131.496 117.001C131.496 117.001 131.496 117.001 131.496 117.001C131.496 117.001 131.496 117.001 131.496 117.001C131.496 117.001 131.496 117.001 131.496 117.001C131.496 117.001 131.496 117.001 131.496 117.001C131.496 117.001 131.496 117.001 131.496 117.001C131.496 117.001 131.496 117.001 131.496 117.001C131.496 117.001 131.496 117.001 131.496 117.001C131.496 117.001 131.496 117.001 131.496 117.001C131.496 117.001 131.496 117.001 131.496 117.001C131.496 117.001 131.496 117.001 131.496 117.001C131.496 117.001 131.496 117.001 131.496 117.001C131.496 117.001 131.496 117.001 131.496 117.001C131.496 117.001 131.496 117.001 131.496 117.001C131.497 117.001 131.497 117.001 131.497 117.001C131.497 117.001 131.497 117.001 131.497 117.001C131.497 117.001 131.497 117.001 131.497 117.001C131.497 117.001 131.497 117.001 131.497 117.001C131.497 117.001 131.497 117.001 131.497 117.001C131.497 117.001 131.497 117.001 131.497 117.001C131.497 117.001 131.497 117.001 131.497 117.001C131.497 117.001 131.497 117.001 131.497 117.001C131.497 117.001 131.497 117.001 131.497 117.001C131.497 117.001 131.497 117.001 131.497 117.001C131.497 117.001 131.497 117.001 131.497 117.001C131.497 117.001 131.497 117.001 131.497 117.001C131.497 117.001 131.497 117.001 131.497 117.001C131.497 117.001 131.497 117.001 131.497 117.001C131.497 117.001 131.497 117.001 131.497 117.001C131.497 117.001 131.497 117.001 131.497 117.001C131.497 117.001 131.497 117.001 131.497 117.001C131.497 117.001 131.497 117.001 131.497 117.001C131.497 117.001 131.497 117.001 131.497 117.001C131.497 117.001 131.497 117.001 131.497 117.001C131.497 117.001 131.497 117.001 131.497 117.001C131.497 117.001 131.497 117.001 131.497 117.001C131.497 117.001 131.497 117.001 131.497 117.001C131.497 117.001 131.497 117.001 131.497 117.001C131.497 117.001 131.497 117.001 131.497 117.001C131.497 117.001 131.497 117.001 131.497 117.001C131.497 117.001 131.497 117.001 131.497 117.001C131.497 117.001 131.497 117.001 131.497 117.001C131.497 117.001 131.497 117.001 131.497 117.001C131.497 117.001 131.497 117.001 131.497 117.001C131.497 117.001 131.497 117.001 131.497 117.001C131.497 117.001 131.497 117.001 131.497 117.001C131.497 117.001 131.497 117.001 131.497 117.001C131.497 117.001 131.497 117.001 131.497 117.001C131.497 117.001 131.497 117.001 131.497 117.001C131.497 117.001 131.497 117.001 131.497 117.001C131.497 117.001 131.497 117.001 131.497 117.001C131.497 117.001 131.497 117.001 131.497 117.001C131.497 117.001 131.497 117.001 131.497 117.001C131.497 117.001 131.497 117.001 131.497 117.001C131.497 117.001 131.497 117.001 131.497 117.001C131.497 117.001 131.497 117.001 131.497 117.001C131.497 117.001 131.497 117.001 131.498 117.001C131.498 117.001 131.498 117.001 131.498 117.001C131.498 117.001 131.498 117.001 131.498 117.001C131.498 117.001 131.498 117.001 131.498 117.001C131.498 117.001 131.498 117.001 131.498 117.001C131.498 117.001 131.498 117.001 131.498 117.001C131.498 117.001 131.498 117.001 131.498 117.001C131.498 117.001 131.498 117.001 131.498 117.001C131.498 117.001 131.498 117.001 131.498 117.001C131.498 117.001 131.498 117.001 131.498 117.001C131.498 117.001 131.498 117.001 131.498 117.001C131.498 117.001 131.498 117.001 131.498 117.001C131.498 117.001 131.498 117.001 131.498 117.001C131.498 117.001 131.498 117.001 131.498 117.001C131.498 117.001 131.498 117.001 131.498 117.001C131.498 117.001 131.498 117.001 131.498 117.001C131.498 117.001 131.498 117.001 131.498 117.001C131.498 117.001 131.498 117.001 131.498 117.001C131.498 117.001 131.498 117.001 131.498 117.001C131.498 117.001 131.498 117.001 131.498 117.001C131.498 117.001 131.498 117.001 131.498 117.001C131.498 117.001 131.498 117.001 131.498 117.001C131.498 117.001 131.498 117.001 131.498 117.001C131.498 117.001 131.498 117.001 131.498 117.001C131.498 117.001 131.498 117.001 131.498 117.001C131.498 117.001 131.498 117.001 131.498 117.001C131.498 117.001 131.498 117.001 131.498 117.001C131.498 117.001 131.498 117.001 131.498 117.001C131.498 117.001 131.498 117.001 131.498 117.001C131.498 117.001 131.498 117.001 131.498 117.001C131.498 117.001 131.498 117.001 131.498 117.001C131.498 117.001 131.498 117.001 131.498 117.001C131.498 117.001 131.498 117.001 131.499 117.001C131.499 117.001 131.499 117.001 131.499 117.001C131.499 117.001 131.499 117.001 131.499 117.001C131.499 117.001 131.499 117.001 131.499 117.001C131.499 117.001 131.499 117.001 131.499 117.001C131.499 117.001 131.499 117.001 131.499 117.001C131.499 117.001 131.499 117.001 131.499 117.001C131.499 117.001 131.499 117.001 131.499 117.001C131.499 117.001 131.499 117.001 131.499 117.001C131.499 117.001 131.499 117.001 131.499 117.001C131.499 117.001 131.499 117.001 131.499 117.001C131.499 117.001 131.499 117.001 131.499 117.001C131.499 117.001 131.499 117.001 131.499 117.001C131.499 117.001 131.499 117.001 131.499 117.001C131.499 117.001 131.499 117.001 131.499 117.001C131.499 117.001 131.499 117.001 131.499 117.001C131.499 117.001 131.499 117.001 131.499 117.001C131.499 117.001 131.499 117.001 131.499 117.001C131.499 117.001 131.499 117.001 131.499 117.001C131.499 117.001 131.499 117.001 131.499 117.001C131.499 117.001 131.499 117.001 131.499 117.001C131.499 117.001 131.499 117.001 131.499 117.001C131.499 117.001 131.499 117.001 131.499 117.001C131.499 117.001 131.499 117.001 131.499 117.001C131.499 117.001 131.499 117.001 131.499 117.001C131.499 117.001 131.499 117.001 131.499 117.001C131.499 117.001 131.499 117.001 131.499 117.001C131.5 117.001 131.5 117.001 131.5 117.001C131.5 117.001 131.5 117.001 131.5 117.001C131.5 117.001 131.5 117.001 131.5 117.001C131.5 117.001 131.5 117.001 131.5 117.001C131.5 117.001 131.5 117.001 131.5 117.001C131.5 117.001 131.5 117.001 131.5 117.001C131.5 117.001 131.5 117.001 131.5 117.001C131.5 117.001 131.5 117.001 131.5 117.001C131.5 117.001 131.5 117.001 131.5 117.001C131.5 117.001 131.5 117.001 131.5 117.001C131.5 117.001 131.5 117.001 131.5 117.001C131.5 117.001 131.5 117.001 131.5 117.001C131.5 117.001 131.5 117.001 131.5 117.001C131.5 117.001 131.5 117.001 131.5 117.001C131.5 117.001 131.5 117.001 131.5 117.001C131.5 117.001 131.5 117.001 131.5 117.001C131.5 117.001 131.5 117.001 131.5 117.001C131.5 117.001 131.5 117.001 131.5 117.001C131.5 117.001 131.5 117.001 131.5 117.001C131.5 117.001 131.5 117.001 131.5 117.001C131.5 117.001 131.5 117.001 131.5 117.001C131.5 117.001 131.5 117.001 131.5 117.001C131.5 117.001 131.5 117.001 131.501 117.001C131.501 117.001 131.501 117.001 131.501 117.001C131.501 117.001 131.501 117.001 131.501 117.001C131.501 117.001 131.501 117.001 131.501 117.001C131.501 117.001 131.501 117.001 131.501 117.001C131.501 117.001 131.501 117.001 131.501 117.001C131.501 117.001 131.501 117.001 131.501 117.001C131.501 117.001 131.501 117.001 131.501 117.001C131.501 117.001 131.501 117.001 131.501 117.001C131.501 117.001 131.501 117.001 131.501 117.001C131.501 117.001 131.501 117.001 131.501 117.001C131.501 117.001 131.501 117.001 131.501 117.001C131.501 117.001 131.501 117.001 131.501 117.001C131.501 117.001 131.501 117.001 131.501 117.001C131.501 117.001 131.501 117.001 131.501 117.001C131.501 117.001 131.501 117.001 131.501 117.001C131.501 117.001 131.501 117.001 131.501 117.001C131.501 117.001 131.501 117.001 131.501 117.001C131.501 117.001 131.501 117.001 131.501 117.001C131.501 117.001 131.501 117.001 131.501 117.001C131.501 117.001 131.501 117.001 131.502 117.001C131.502 117.001 131.502 117.001 131.502 117.001C131.502 117.001 131.502 117.001 131.502 117.001C131.502 117.001 131.502 117.001 131.502 117.001C131.502 117.001 131.502 117.001 131.502 117.001C131.502 117.001 131.502 117.001 131.502 117.001C131.502 117.001 131.502 117.001 131.502 117.001C131.502 117.001 131.502 117.001 131.502 117.001C131.502 117.001 131.502 117.001 131.502 117.001C131.502 117.001 131.502 117.001 131.502 117.001C131.502 117.001 131.502 117.001 131.502 117.001C131.502 117.001 131.502 117.001 131.502 117.001C131.502 117.001 131.502 117.001 131.502 117.001C131.502 117.001 131.502 117.001 131.502 117.001C131.502 117.001 131.502 117.001 131.502 117.001C131.502 117.001 131.502 117.001 131.502 117.001C131.502 117.001 131.502 117.001 131.502 117.001C131.502 117.001 131.502 117.001 131.502 117.001C131.502 117.001 131.502 117.001 131.503 117.001C131.503 117.001 131.503 117.001 131.503 117.001C131.503 117.001 131.503 117.001 131.503 117.001C131.503 117.001 131.503 117.001 131.503 117.001C131.503 117.001 131.503 117.001 131.503 117.001C131.503 117.001 131.503 117.001 131.503 117.001C131.503 117.001 131.503 117.001 131.503 117.001C131.503 117.001 131.503 117.001 131.503 117.001C131.503 117.001 131.503 117.001 131.503 117.001C131.503 117.001 131.503 117.001 131.503 117.001C131.503 117.001 131.503 117.001 131.503 117.001C131.503 117.001 131.503 117.001 131.503 117.001C131.503 117.001 131.503 117.001 131.503 117.001C131.503 117.001 131.503 117.001 131.503 117.001C131.503 117.001 131.503 117.001 131.503 117.001C131.503 117.001 131.503 117.001 131.503 117.001C131.503 117.001 131.503 117.001 131.503 117.001C131.503 117.001 131.504 117.001 131.504 117.001C131.504 117.001 131.504 117.001 131.504 117.001C131.504 117.001 131.504 117.001 131.504 117.001C131.504 117.001 131.504 117.001 131.504 117.001C131.504 117.001 131.504 117.001 131.504 117.001C131.504 117.001 131.504 117.001 131.504 117.001C131.504 117.001 131.504 117.001 131.504 117.001C131.504 117.001 131.504 117.001 131.504 117.001C131.504 117.001 131.504 117.001 131.504 117.001C131.504 117.001 131.504 117.001 131.504 117.001C131.504 117.001 131.504 117.001 131.504 117.001C131.504 117.001 131.504 117.001 131.504 117.001C131.504 117.001 131.504 117.001 131.504 117.001C131.504 117.001 131.504 117.001 131.504 117.001C131.504 117.001 131.504 117.001 131.504 117.001C131.504 117.001 131.505 117.001 131.505 117.001C131.505 117.001 131.505 117.001 131.505 117.001C131.505 117.001 131.505 117.001 131.505 117.001C131.505 117.001 131.505 117.001 131.505 117.001C131.505 117.001 131.505 117.001 131.505 117.001C131.505 117.001 131.505 117.001 131.505 117.001C131.505 117.001 131.505 117.001 131.505 117.001C131.505 117.001 131.505 117.001 131.505 117.001C131.505 117.001 131.505 117.001 131.505 117.001C131.505 117.001 131.505 117.001 131.505 117.001C131.505 117.001 131.505 117.001 131.505 117.001C131.505 117.001 131.505 117.001 131.505 117.001C131.505 117.001 131.505 117.001 131.505 117.001C131.505 117.001 131.505 117.001 131.505 117.001C131.505 117.001 131.505 117.001 131.506 117.001C131.506 117.001 131.506 117.001 131.506 117.001C131.506 117.001 131.506 117.001 131.506 117.001C131.506 117.001 131.506 117.001 131.506 117.001C131.506 117.001 131.506 117.001 131.506 117.001C131.506 117.001 131.506 117.001 131.506 117.001C131.506 117.001 131.506 117.001 131.506 117.001C131.506 117.001 131.506 117.001 131.506 117.001C131.506 117.001 131.506 117.001 131.506 117.001C131.506 117.001 131.506 117.001 131.506 117.001C131.506 117.001 131.506 117.001 131.506 117.001C131.506 117.001 131.506 117.001 131.506 117.001C131.506 117.001 131.506 117.001 131.506 117.001C131.506 117.001 131.506 117.001 131.506 117.001C131.507 117.001 131.507 117.001 131.507 117.001C131.507 117.001 131.507 117.001 131.507 117.001C131.507 117.001 131.507 117.001 131.507 117.001C131.507 117.001 131.507 117.001 131.507 117.001C131.507 117.001 131.507 117.001 131.507 117.001C131.507 117.001 131.507 117.001 131.507 117.001C131.507 117.001 131.507 117.001 131.507 117.001C131.507 117.001 131.507 117.001 131.507 117.001C131.507 117.001 131.507 117.001 131.507 117.001C131.507 117.001 131.507 117.001 131.507 117.001C131.507 117.001 131.507 117.001 131.507 117.001C131.507 117.001 131.507 117.001 131.507 117.001C131.507 117.001 131.508 117.001 131.508 117.001C131.508 117.001 131.508 117.001 131.508 117.001C131.508 117.001 131.508 117.001 131.508 117.001C131.508 117.001 131.508 117.001 131.508 117.001C131.508 117.001 131.508 117.001 131.508 117.001C131.508 117.001 131.508 117.001 131.508 117.001C131.508 117.001 131.508 117.001 131.508 117.001C131.508 117.001 131.508 117.001 131.508 117.001C131.508 117.001 131.508 117.001 131.508 117.001C131.508 117.001 131.508 117.001 131.508 117.001C131.508 117.001 131.508 117.001 131.508 117.001C131.508 117.001 131.508 117.001 131.508 117.001C131.508 117.001 131.509 117.001 131.509 117.001C131.509 117.001 131.509 117.001 131.509 117.001C131.509 117.001 131.509 117.001 131.509 117.001C131.509 117.001 131.509 117.001 131.509 117.001C131.509 117.001 131.509 117.001 131.509 117.001C131.509 117.001 131.509 117.001 131.509 117.001C131.509 117.001 131.509 117.001 131.509 117.001C131.509 117.001 131.509 117.001 131.509 117.001C131.509 117.001 131.509 117.001 131.509 117.001C131.509 117.001 131.509 117.001 131.509 117.001C131.509 117.001 131.509 117.001 131.509 117.001C131.509 117.001 131.509 117.001 131.51 117.001C131.51 117.001 131.51 117.001 131.51 117.001C131.51 117.001 131.51 117.001 131.51 117.001C131.51 117.001 131.51 117.001 131.51 117.001C131.51 117.001 131.51 117.001 131.51 117.001C131.51 117.001 131.51 117.001 131.51 117.001C131.51 117.001 131.51 117.001 131.51 117.001C131.51 117.001 131.51 117.001 131.51 117.001C131.51 117.001 131.51 117.001 131.51 117.001C131.51 117.001 131.51 117.001 131.51 117.001C131.51 117.001 131.51 117.001 131.51 117.001C131.51 117.001 131.511 117.001 131.511 117.001C131.511 117.001 131.511 117.001 131.511 117.001C131.511 117.001 131.511 117.001 131.511 117.001C131.511 117.001 131.511 117.001 131.511 117.001C131.511 117.001 131.511 117.001 131.511 117.001C131.511 117.001 131.511 117.001 131.511 117.001C131.511 117.001 131.511 117.001 131.511 117.001C131.511 117.001 131.511 117.001 131.511 117.001C131.511 117.001 131.511 117.001 131.511 117.001C131.511 117.001 131.511 117.001 131.511 117.001C131.511 117.001 131.511 117.001 131.512 117.001C131.512 117.001 131.512 117.001 131.512 117.001C131.512 117.001 131.512 117.001 131.512 117.001C131.512 117.001 131.512 117.001 131.512 117.001C131.512 117.001 131.512 117.001 131.512 117.001C131.512 117.001 131.512 117.001 131.512 117.001C131.512 117.001 131.512 117.001 131.512 117.001C131.512 117.001 131.512 117.001 131.512 117.001C131.512 117.001 131.512 117.001 131.512 117.001C131.512 117.001 131.512 117.001 131.512 117.001C131.512 117.001 131.512 117.001 131.513 117.001C131.513 117.001 131.513 117.001 131.513 117.001C131.513 117.001 131.513 117.001 131.513 117.001C131.513 117.001 131.513 117.001 131.513 117.001V113.001ZM131.382 113.004C131.144 113.018 130.915 113.018 130.605 113.018V117.018C130.9 117.018 131.24 117.019 131.608 116.998L131.382 113.004ZM130.605 113.018C122.155 113.018 115.418 106.405 115.418 98.3817H111.418C111.418 108.736 120.069 117.018 130.605 117.018V113.018ZM115.418 98.3817C115.418 97.0346 115.606 95.7395 115.963 94.5077L112.121 93.3946C111.658 94.9902 111.418 96.6602 111.418 98.3817H115.418ZM112.11 94.4702C113.264 98.7625 115.662 102.055 118.928 104.249L121.159 100.928C118.726 99.2943 116.886 96.8288 115.973 93.4322L112.11 94.4702ZM118.922 104.244C124.585 108.082 132.492 108.416 140.375 105.945L139.178 102.128C131.994 104.38 125.475 103.853 121.165 100.933L118.922 104.244Z" fill="#FFF6E9" mask="url(#path-15-inside-1_365_278)"/>
<path d="M133.168 93.7639L133.17 93.765C137.447 97.0007 138.878 100.327 138.818 103.281C131.98 105.278 125.615 104.853 121.127 102.097C121.512 99.7596 122.154 98.245 122.892 97.2198C123.682 96.1214 124.636 95.5086 125.691 95.06C126.229 94.8314 126.787 94.648 127.376 94.4609C127.443 94.4396 127.511 94.4183 127.579 94.3968C128.096 94.2331 128.643 94.0603 129.169 93.8561C130.031 93.5218 130.896 93.0827 131.656 92.3828C132.084 92.8616 132.587 93.3228 133.168 93.7639Z" fill="#EA83AA" stroke="#FFF6E9" stroke-width="2"/>
<path d="M233.269 189.628C233.496 189.396 238.879 183.972 246.676 183.057L280.024 174.446C287.433 168.904 295.233 171.68 295.566 171.804C295.687 171.848 295.802 171.905 295.909 171.973L233.269 189.628ZM233.269 189.628C233.14 189.76 233.033 189.911 232.953 190.076L233.269 189.628ZM314.654 254.974C314.387 255.064 308.253 257.097 301.162 256.721L295.795 260.971C292.083 267.158 287.186 270.593 285.006 270.971C284.903 270.989 284.801 270.998 284.697 270.998C284.548 270.998 284.4 270.979 284.256 270.943L314.654 254.974ZM314.654 254.974C314.893 254.894 315.112 254.765 315.295 254.594L314.654 254.974ZM321.239 193.864C321.305 193.952 321.351 194.056 321.371 194.167C321.425 194.485 322.635 201.659 322.009 208.573L317.93 240.336L317.918 240.429L317.924 240.522C318.124 243.92 317.674 246.926 316.969 249.264C316.252 251.641 315.308 253.217 314.615 253.861L314.613 253.862C314.535 253.935 314.441 253.991 314.337 254.026L314.336 254.026C314.107 254.103 308.116 256.089 301.215 255.722L300.838 255.702L300.541 255.937L295.174 260.187L295.031 260.3L294.937 260.457C293.138 263.456 291.056 265.779 289.176 267.39C287.255 269.035 285.655 269.843 284.835 269.986L284.827 269.987C284.789 269.994 284.746 269.998 284.697 269.998C284.632 269.998 284.566 269.99 284.499 269.973C284.234 269.906 277.818 268.243 272.183 264.012L272.111 263.958L272.03 263.918L242.101 248.925L241.916 248.832L241.709 248.821C238.727 248.655 235.99 246.621 233.846 244.317C231.733 242.045 230.36 239.689 230.09 239.209C230.012 239.069 229.985 238.913 230.008 238.764L230.008 238.764C230.052 238.473 231.122 231.611 233.7 225.954L233.784 225.769L233.79 225.565L234.301 205.655L234.307 205.414L234.203 205.197C230.519 197.504 233.741 190.739 233.85 190.517L233.852 190.513C233.884 190.447 233.928 190.384 233.984 190.327L233.984 190.327C234.178 190.129 239.354 184.923 246.793 184.05L246.86 184.042L246.926 184.025L280.274 175.415L280.465 175.365L280.623 175.247C287.604 170.025 294.963 172.647 295.218 172.741L295.225 172.744C295.274 172.761 295.323 172.786 295.372 172.817C295.614 172.972 301.235 176.641 303.719 183.348L303.802 183.573L303.978 183.735L309.428 188.764L309.646 188.965L309.938 189.015C318.614 190.498 321.119 193.705 321.238 193.863L321.239 193.864Z" fill="#EA83AA" stroke="#FFF6E9" stroke-width="2"/>
<path d="M312.457 197.597L312.503 197.636L312.554 197.669C318.542 201.547 322.145 208.264 324.264 214.243C326.371 220.189 326.953 225.246 326.996 225.64C327.009 225.764 326.989 225.888 326.939 226C326.774 226.365 324.576 231.152 320.723 236.553C316.855 241.976 311.408 247.889 304.784 250.664L304.775 250.668L304.766 250.672L284.116 259.804L284.057 259.83L284.001 259.864C279.13 262.821 273.165 263.75 267.628 263.75C259.32 263.75 252.206 261.66 251.745 261.522C251.607 261.481 251.488 261.404 251.395 261.303C251.125 261.004 247.59 257.055 244.174 251.38C240.743 245.68 237.521 238.381 237.701 231.351L237.701 231.339V231.333L237.701 231.316L237.701 231.316L239.334 199.017C240.134 192.141 244.699 185.924 249.298 181.299C253.879 176.69 258.35 173.802 258.69 173.585L258.691 173.584C258.801 173.514 258.933 173.47 259.073 173.463C259.52 173.44 265.082 173.174 272.001 174.035C278.957 174.901 287.124 176.888 292.887 181.269L312.457 197.597Z" fill="#EA83AA" stroke="#FFF6E9" stroke-width="2"/>
<path d="M288.63 236.503C301.001 231.198 307.791 230.773 308.198 230.752C308.549 230.752 308.787 230.903 308.915 231.116C310.341 233.491 310.493 236.35 309.8 239.433C309.107 242.518 307.587 245.729 305.813 248.688C302.267 254.603 297.83 259.31 297.477 259.68L297.477 259.68C297.349 259.814 297.171 259.901 296.973 259.916C296.158 259.979 293.531 260.16 290.072 260.16C285.62 260.16 279.846 259.861 274.783 258.657C269.647 257.435 265.593 255.364 264.082 252.093L264.082 252.093C263.949 251.805 264.026 251.46 264.291 251.249L264.291 251.249C264.762 250.873 276.125 241.867 288.63 236.503ZM288.63 236.503L288.236 235.584L288.63 236.503Z" fill="#EA83AA" stroke="#FFF6E9" stroke-width="2"/>
<path d="M255.913 190.237L255.915 190.237C256.32 190.265 256.608 190.58 256.623 190.93L256.623 190.93C256.652 191.609 257.284 207.414 254.874 219.198L254.874 219.198C252.443 231.082 247.697 237.467 247.539 237.678C247.397 237.865 247.168 237.981 246.918 237.981C246.887 237.981 246.865 237.979 246.849 237.978L246.849 237.978L246.838 237.976C244.017 237.695 241.559 236.113 239.424 233.742C237.287 231.367 235.538 228.269 234.147 225.121C231.367 218.831 230.11 212.551 230.013 212.053C229.981 211.889 230.009 211.718 230.096 211.57L229.232 211.065L230.096 211.57C230.355 211.127 233.667 205.508 238.551 200.128C240.993 197.438 243.799 194.84 246.783 192.976C249.771 191.11 252.864 190.025 255.913 190.237Z" fill="#EA83AA" stroke="#FFF6E9" stroke-width="2"/>
<path d="M276.519 184.786C276.319 185.104 276.229 185.478 276.264 185.85C276.289 186.121 277.007 192.593 287.053 202.192C297.028 211.724 310.516 214.088 311.085 214.184M276.519 184.786L277.365 185.319M276.519 184.786C282.326 175.577 304.438 182.792 306.943 183.645C307.35 183.784 307.691 184.063 307.902 184.432M276.519 184.786L306.62 184.592C306.8 184.653 306.945 184.775 307.033 184.928M277.365 185.319C277.282 185.452 277.246 185.605 277.26 185.756L277.26 185.758C277.26 185.758 277.261 185.764 277.262 185.777C277.264 185.79 277.266 185.809 277.269 185.833C277.276 185.883 277.288 185.956 277.306 186.051C277.342 186.243 277.404 186.525 277.509 186.892C277.72 187.627 278.103 188.702 278.794 190.073C280.175 192.812 282.794 196.74 287.744 201.469L287.744 201.469C297.483 210.776 310.702 213.105 311.251 213.197M277.365 185.319C278.618 183.332 280.793 182.156 283.573 181.582C286.354 181.007 289.622 181.062 292.855 181.435C299.314 182.182 305.388 184.172 306.62 184.592L277.365 185.319ZM311.251 213.197C311.251 213.197 311.25 213.197 311.25 213.197L311.085 214.184M311.251 213.197C311.251 213.198 311.252 213.198 311.252 213.198L311.085 214.184M311.251 213.197C311.298 213.205 311.343 213.209 311.386 213.209C311.666 213.209 311.92 213.062 312.052 212.836M311.085 214.184C311.186 214.201 311.286 214.209 311.386 214.209C312.01 214.209 312.598 213.883 312.916 213.34M312.916 213.34L312.052 212.836M312.916 213.34C318.671 203.493 308.344 185.206 307.902 184.432M312.916 213.34L312.053 212.835C312.052 212.835 312.052 212.835 312.052 212.836M312.052 212.836C313.358 210.602 313.784 207.83 313.624 204.831C313.464 201.837 312.725 198.695 311.782 195.793C309.895 189.988 307.241 185.292 307.033 184.928M307.902 184.432L307.034 184.929C307.034 184.928 307.034 184.928 307.033 184.928M307.902 184.432L307.033 184.928" fill="#EA83AA" stroke="#FFF6E9" stroke-width="2"/>
<path d="M251.879 202.706L252.761 202.235C251.716 200.276 251.807 198.23 252.647 196.15C253.498 194.041 255.101 191.952 256.976 190.045C260.717 186.24 265.311 183.389 266.263 182.817C266.416 182.726 266.608 182.687 266.792 182.712C267.959 182.883 273.61 183.777 278.865 185.76C281.501 186.755 283.962 187.997 285.706 189.505C287.44 191.005 288.365 192.67 288.224 194.566L288.224 194.566C288.209 194.772 288.101 194.968 287.917 195.097L287.916 195.098C287.607 195.315 280.459 200.323 274.75 203.114C272.991 203.974 270.347 204.312 267.392 204.312C261.23 204.312 254.362 202.855 253.27 202.614C253.044 202.564 252.861 202.422 252.761 202.234L251.879 202.706ZM251.879 202.706C252.119 203.155 252.549 203.478 253.054 203.59C254.152 203.832 261.113 205.312 267.392 205.312C270.381 205.312 273.216 204.976 275.189 204.013L266.933 181.722C266.528 181.666 266.104 181.747 265.749 181.959C263.816 183.122 247.008 193.575 251.879 202.706Z" fill="#EA83AA" stroke="#FFF6E9" stroke-width="2"/>
<path d="M247.149 225.518L247.149 225.518L247.151 225.515C247.184 225.469 247.226 225.425 247.276 225.384C247.533 225.176 248.439 224.636 250.868 224.824C253.308 225.013 257.186 225.93 263.255 228.533C276.079 234.032 276.861 247.513 276.886 248.077L276.886 248.078C276.89 248.165 276.878 248.253 276.847 248.339L276.847 248.34C276.389 249.634 275.124 250.604 273.056 251.247C271.006 251.885 268.374 252.132 265.574 252.132C260.069 252.132 254.178 251.181 251.408 250.667L251.408 250.667C251.145 250.619 250.937 250.446 250.844 250.224C250.17 248.615 248.207 243.727 246.956 238.527C246.33 235.925 245.892 233.286 245.869 230.961C245.845 228.608 246.249 226.733 247.149 225.518Z" fill="#EA83AA" stroke="#FFF6E9" stroke-width="2"/>
<path d="M314.646 220.154L314.647 220.156C314.7 220.304 314.701 220.464 314.649 220.613L314.648 220.614C314.524 220.97 312.957 225.361 310.112 229.645C307.224 233.994 303.258 237.876 298.413 237.876C297.881 237.876 297.337 237.83 296.775 237.732C296.518 237.686 296.312 237.522 296.214 237.307L296.212 237.303C296.164 237.198 294.374 233.231 292.172 224.401C291.078 220.015 292.409 214.507 294.168 209.883C295.908 205.308 297.981 201.815 298.14 201.549C298.286 201.307 298.585 201.156 298.887 201.188L298.888 201.188C301.022 201.411 303.034 202.511 304.895 204.166C306.755 205.819 308.406 207.977 309.806 210.203C312.607 214.654 314.315 219.229 314.646 220.154Z" fill="#EA83AA" stroke="#FFF6E9" stroke-width="2"/>
<path d="M271.162 203.484L271.162 203.484C269.997 200.718 268.143 199.12 265.646 198.572L265.645 198.572C263.673 198.138 261.408 198.419 259.035 199.177C256.67 199.932 254.271 201.137 252.07 202.459C247.668 205.103 244.168 208.149 243.472 208.768L271.162 203.484ZM271.162 203.484C271.222 203.626 271.233 203.784 271.192 203.935L263.632 231.654C263.632 231.654 263.632 231.654 263.632 231.654C263.589 231.811 263.491 231.952 263.352 232.052L263.352 232.052C261.174 233.607 259.151 234.324 257.293 234.324C256.323 234.324 255.374 234.129 254.443 233.733L254.443 233.733C252.464 232.89 250.76 231.163 249.311 228.885C247.867 226.615 246.727 223.88 245.841 221.155C244.071 215.704 243.366 210.442 243.236 209.38L243.236 209.379M271.162 203.484L243.236 209.379M243.236 209.379C243.208 209.157 243.292 208.929 243.472 208.768L243.236 209.379Z" fill="#EA83AA" stroke="#FFF6E9" stroke-width="2"/>
<path d="M299.777 226.928L299.777 226.928C299.106 224.403 297.071 222.545 293.341 221.537L299.777 226.928ZM299.777 226.928C300.271 228.784 299.963 230.952 299.093 233.268C298.226 235.574 296.839 237.929 295.31 240.101C292.252 244.444 288.726 247.921 288.007 248.613L288.007 248.613C287.87 248.745 287.684 248.824 287.485 248.829L287.48 248.83M299.777 226.928L287.48 248.83M287.48 248.83C287.414 248.832 287.155 248.838 286.735 248.838C284.999 248.838 280.634 248.731 276.107 247.799C271.52 246.854 267.05 245.117 264.801 242.059M287.48 248.83L264.801 242.059M292.841 221.564C292.841 221.564 292.841 221.564 292.841 221.564L264.493 232.652L292.841 221.564ZM292.841 221.564C292.999 221.502 293.176 221.493 293.341 221.537L292.841 221.564ZM264.801 242.059C263.028 239.65 262.714 236.683 264.064 233.079L264.801 242.059ZM264.064 233.079C264.134 232.891 264.287 232.732 264.492 232.652L264.064 233.079Z" fill="#EA83AA" stroke="#FFF6E9" stroke-width="2"/>
<path d="M297.193 197.535L297.192 197.535C296.397 197.236 292.403 195.792 287.754 195.028C285.43 194.647 282.975 194.441 280.692 194.62C278.404 194.8 276.359 195.361 274.789 196.452L297.193 197.535ZM297.193 197.535C297.418 197.619 297.581 197.797 297.645 198.009M297.193 197.535L297.645 198.009M271.578 203.773L271.578 203.774C271.585 203.974 271.679 204.169 271.85 204.306C271.85 204.306 271.85 204.306 271.85 204.306L292.639 220.938L292.64 220.938C292.777 221.047 292.95 221.108 293.131 221.108C293.18 221.108 293.229 221.104 293.279 221.095C295.262 220.725 296.78 219.69 297.842 217.988L271.578 203.773ZM271.578 203.773C271.471 200.372 272.593 197.978 274.788 196.452L271.578 203.773ZM297.645 198.009C297.725 198.272 298.76 201.755 299.266 205.972M297.645 198.009L299.266 205.972M299.266 205.972C299.519 208.081 299.637 210.345 299.446 212.468M299.266 205.972L299.446 212.468M299.446 212.468C299.255 214.599 298.759 216.517 297.842 217.988L299.446 212.468Z" fill="#EA83AA" stroke="#FFF6E9" stroke-width="2"/>
<path d="M278.065 212.272L278.06 212.265L278.055 212.258C276.098 209.326 277.765 206.151 280.297 205.299C287.128 207.094 292.127 213.183 292.127 220.381C292.127 227.214 287.642 233.039 281.368 235.164C283.879 232.845 285.881 229.681 286.206 226.128C286.58 222.178 284.846 217.971 279.877 214.174C279.056 213.544 278.47 212.903 278.065 212.272Z" fill="#EA83AA" stroke="#FFF6E9" stroke-width="2"/>
<path d="M276.006 212.73C275.462 213.306 274.79 213.678 273.986 213.993C273.529 214.172 273.052 214.325 272.532 214.491C272.465 214.512 272.398 214.534 272.33 214.556C271.743 214.744 271.112 214.952 270.484 215.221C269.208 215.769 267.928 216.58 266.876 218.056C266.048 219.218 265.397 220.744 264.968 222.784C263.046 221.109 261.587 218.842 260.771 215.958C262.713 209.509 268.844 204.762 276.129 204.762C276.53 204.762 276.928 204.776 277.322 204.805C275.322 206.655 274.393 209.739 276.006 212.73Z" fill="#EA83AA" stroke="#FFF6E9" stroke-width="2"/>
<path d="M276.764 236.011C276.563 236.018 276.36 236.018 276.129 236.018C267.262 236.018 260.114 228.997 260.114 220.382C260.114 220.177 260.118 219.973 260.126 219.771C261.34 222.123 263.04 224.01 265.11 225.415C270.027 228.779 276.865 229.34 283.951 227.445C283.003 231.129 279.939 234.332 276.764 236.011Z" fill="#EA83AA" stroke="#FFF6E9" stroke-width="2"/>
<path d="M274.715 215.855C275.565 215.522 276.418 215.084 277.169 214.39C277.591 214.865 278.086 215.323 278.657 215.761L278.658 215.762C282.892 218.997 284.311 222.324 284.25 225.283C277.486 227.278 271.193 226.851 266.755 224.1C267.137 221.759 267.773 220.242 268.504 219.216C269.286 218.118 270.23 217.506 271.272 217.059C271.804 216.83 272.355 216.647 272.939 216.46C273.005 216.439 273.072 216.417 273.139 216.396C273.651 216.232 274.193 216.059 274.715 215.855Z" fill="#EA83AA" stroke="#FFF6E9" stroke-width="2"/>
</svg>
