<svg width="1044" height="809" viewBox="0 0 1044 809" fill="none" xmlns="http://www.w3.org/2000/svg">
<path d="M1043 540.447L1022.07 573.343H897.03V540.447H1043Z" fill="#EA83AA" stroke="white" stroke-linecap="round" stroke-linejoin="round"/>
<path d="M301.524 458.318H228.066V490.609H301.524V458.318Z" fill="#EA83AA" stroke="white" stroke-linecap="round" stroke-linejoin="round"/>
<path d="M221.024 458.273L264.772 315.79L308.726 458.273H221.024Z" fill="#EA83AA" stroke="white" stroke-linecap="round" stroke-linejoin="round"/>
<path d="M289.554 536.063L298.428 777.007H147.254L156.131 536.063H289.554Z" fill="#EA83AA" stroke="white" stroke-linecap="round" stroke-linejoin="round"/>
<path d="M289.613 505.244H156.184V536.065H289.613V505.244Z" fill="#EA83AA" stroke="white" stroke-linecap="round" stroke-linejoin="round"/>
<path d="M263.543 450.278H164.08V481.041H263.543V450.278Z" fill="#EA83AA" stroke="white" stroke-linecap="round" stroke-linejoin="round"/>
<path d="M222.32 318.699L269.986 450.223H157.809L205.28 318.71L222.32 318.699Z" fill="#EA83AA" stroke="white" stroke-linecap="round" stroke-linejoin="round"/>
<path d="M164.079 480.91L153.166 505.244H292.517L281.831 480.91H164.079Z" fill="#EA83AA" stroke="white" stroke-linecap="round" stroke-linejoin="round"/>
<path d="M897.03 573.343L889.552 777.007H1029.58L1022.07 573.343H897.03Z" fill="#EA83AA" stroke="white" stroke-linecap="round" stroke-linejoin="round"/>
<path d="M1043 514.013H897.03V540.449H1043V514.013Z" fill="#EA83AA" stroke="white" stroke-linecap="round" stroke-linejoin="round"/>
<path d="M154.832 649.041L161.777 777.008H89.312L96.2573 649.041H154.832Z" fill="#EA83AA" stroke="white" stroke-linecap="round" stroke-linejoin="round"/>
<path d="M1020.7 467.695H897.03V494.132H1020.7V467.695Z" fill="#EA83AA" stroke="white" stroke-linecap="round" stroke-linejoin="round"/>
<path d="M1009.56 494.207H897.03V514.011H1009.56V494.207Z" fill="#EA83AA" stroke="white" stroke-linecap="round" stroke-linejoin="round"/>
<path d="M602.565 133.529H550.564V227.923H602.565V133.529Z" fill="#EA83AA" stroke="white" stroke-linecap="round" stroke-linejoin="round"/>
<path d="M605.352 133.534L576.534 53.498L547.777 133.529L605.352 133.534Z" fill="#EA83AA" stroke="white" stroke-linecap="round" stroke-linejoin="round"/>
<path d="M608.138 227.925L552.629 117.766H502.466L446.491 227.925H608.138Z" fill="#EA83AA" stroke="white"/>
<path d="M613.712 227.925H440.917V409.493H613.712V227.925Z" fill="#EA83AA" stroke="white"/>
<path d="M440.884 305.252H399.059V504.661H440.884V305.252Z" fill="#EA83AA" stroke="white"/>
<path d="M552.632 103.241H502.465V117.767H552.632V103.241Z" fill="#EA83AA" stroke="white"/>
<path d="M454.85 278.87L440.884 305.252H399.059L385.18 278.87H454.85Z" fill="#EA83AA" stroke="white" stroke-linecap="round" stroke-linejoin="round"/>
<path d="M454.85 210.275H385.18V278.871H454.85V210.275Z" fill="#EA83AA" stroke="white" stroke-linecap="round" stroke-linejoin="round"/>
<path d="M459.033 210.279L419.97 130.397L380.996 210.275L459.033 210.279Z" fill="#EA83AA" stroke="white" stroke-linecap="round" stroke-linejoin="round"/>
<path d="M429.825 150.55L419.953 130.397L410.137 150.545L429.825 150.55Z" fill="#EA83AA" stroke="white" stroke-linecap="round" stroke-linejoin="round"/>
<path d="M419.97 130.396V117.642" stroke="white" stroke-linecap="round" stroke-linejoin="round"/>
<path d="M419.97 119.286C421.509 119.286 422.757 118.305 422.757 117.094C422.757 115.884 421.509 114.902 419.97 114.902C418.43 114.902 417.183 115.884 417.183 117.094C417.183 118.305 418.43 119.286 419.97 119.286Z" fill="#EA83AA" stroke="white" stroke-linecap="round" stroke-linejoin="round"/>
<path d="M438.827 121.501H420.014V126.981H438.827V121.501Z" fill="#EA83AA" stroke="white"/>
<path d="M465.677 619.373V232.5" stroke="white"/>
<path d="M711.676 235.78H605.77V244.547H711.676V235.78Z" fill="#EA83AA" stroke="white" stroke-linecap="round" stroke-linejoin="round"/>
<path d="M706.102 244.547H611.344V504.661H706.102V244.547Z" fill="#EA83AA" stroke="white" stroke-linecap="round" stroke-linejoin="round"/>
<path d="M702.618 61.9784H614.827V218.152H702.618V61.9784Z" fill="#EA83AA" stroke="white" stroke-linecap="round" stroke-linejoin="round"/>
<path d="M650.175 634.899V777.005H645.995V807.697H527.546H409.098V777.005H404.917V634.899" fill="#EA83AA"/>
<path d="M650.175 634.899V777.005H645.995V807.697H527.546H409.098V777.005H404.917V634.899" stroke="white"/>
<path d="M641.814 456.875L552.63 304.563H502.463L413.279 456.875H641.814Z" fill="#EA83AA" stroke="white"/>
<path d="M448.387 685.665C448.387 655.594 483.83 635.601 527.547 635.601C571.264 635.601 606.707 655.594 606.707 685.665H629.273C629.273 647.023 583.728 620.078 527.547 620.078C471.366 620.078 425.821 647.023 425.821 685.665H448.387Z" fill="#EA83AA" stroke="white"/>
<path d="M404.917 511.942H438.362V588.882L404.917 600.197V511.942Z" fill="#EA83AA" stroke="white"/>
<path d="M650.176 511.942H616.731V588.882L650.176 600.197V511.942Z" fill="#EA83AA" stroke="white"/>
<path d="M438.362 588.882L404.917 600.197V634.899L460.658 609.692L449.975 588.882H438.362Z" fill="#EA83AA" stroke="white"/>
<path d="M515.933 588.882L505.25 609.692H460.658L449.975 588.882H515.933Z" fill="#EA83AA" stroke="white"/>
<path d="M527.547 620.078C471.366 620.078 425.821 647.023 425.821 685.665L527.547 620.078Z" fill="#EA83AA"/>
<path d="M527.547 620.078C471.366 620.078 425.821 647.023 425.821 685.665" stroke="white"/>
<path d="M448.465 685.664H425.821V800.295H448.465V685.664Z" fill="#EA83AA" stroke="white"/>
<path d="M629.272 685.664H606.628V800.295H629.272V685.664Z" fill="#EA83AA" stroke="white"/>
<path d="M606.628 800.295V685.665H606.706C606.706 655.594 571.264 635.601 527.546 635.601C483.829 635.601 448.387 655.594 448.387 685.665H448.465V800.295H606.628Z" fill="#EA83AA" stroke="white"/>
<path d="M584.43 800.295V729.008H584.488C584.488 715.915 539.89 691.112 524.562 691.112C509.233 691.112 464.635 715.915 464.635 729.008H464.694V800.295H584.43Z" fill="#EA83AA" stroke="white"/>
<path d="M429.649 666.927C440.458 641.562 473.041 624.072 513.149 620.681L505.25 609.691H460.658L404.917 634.898L429.649 666.927Z" fill="#EA83AA" stroke="white"/>
<path d="M616.731 588.882L650.175 600.197V634.899L594.435 609.692L605.118 588.882H616.731Z" fill="#EA83AA" stroke="white"/>
<path d="M539.16 588.882L549.843 609.692H594.435L605.118 588.882H539.16Z" fill="#EA83AA" stroke="white"/>
<path d="M625.444 666.927C614.636 641.562 582.052 624.072 541.947 620.681L549.843 609.691H594.435L650.176 634.898L625.444 666.927Z" fill="#EA83AA" stroke="white"/>
<path d="M470.608 456.875H404.917V511.942H438.362L470.608 456.875Z" fill="#EA83AA" stroke="white"/>
<path d="M584.491 456.875H650.176V511.942H616.731L584.491 456.875Z" fill="#EA83AA" stroke="white"/>
<path d="M616.731 557.45V511.942L527.546 359.63L438.362 511.942V557.45H616.731Z" fill="#EA83AA" stroke="white"/>
<path d="M527.546 557.45H438.362V588.887H527.546V557.45Z" fill="#EA83AA" stroke="white"/>
<path d="M616.732 557.45H527.547V588.887H616.732V557.45Z" fill="#EA83AA" stroke="white"/>
<path d="M527.546 488.294C549.61 488.294 567.495 474.227 567.495 456.875C567.495 439.523 549.61 425.456 527.546 425.456C505.483 425.456 487.597 439.523 487.597 456.875C487.597 474.227 505.483 488.294 527.546 488.294Z" fill="#EA83AA" stroke="white"/>
<path d="M527.549 482.95C545.86 482.95 560.704 471.276 560.704 456.875C560.704 442.474 545.86 430.8 527.549 430.8C509.239 430.8 494.395 442.474 494.395 456.875C494.395 471.276 509.239 482.95 527.549 482.95Z" fill="#EA83AA" stroke="white"/>
<path d="M438.362 511.942H616.731" stroke="white"/>
<path d="M452.763 557.451V512.319C452.763 503.247 466.28 495.893 482.955 495.893C499.629 495.893 513.149 503.247 513.149 512.319V557.451H452.763Z" fill="#EA83AA" stroke="white"/>
<path d="M602.334 557.451V512.319C602.334 503.247 588.814 495.893 572.139 495.893C555.464 495.893 541.947 503.247 541.947 512.319V557.451H602.334Z" fill="#EA83AA" stroke="white"/>
<path d="M527.546 620.078C532.435 620.078 537.242 620.285 541.944 620.681L549.842 609.691L539.16 588.885H515.93L505.25 609.691L513.146 620.681C517.85 620.285 522.658 620.078 527.546 620.078Z" fill="#EA83AA" stroke="white"/>
<path d="M552.63 290.037H502.463V304.563H552.63V290.037Z" fill="#EA83AA" stroke="white"/>
<path d="M404.918 529.867H392.376V539.73H378.441V529.867H365.899V777.005H404.918V529.867Z" fill="#EA83AA" stroke="white"/>
<path d="M404.918 529.867H392.376V539.73H378.441V529.867H365.899V504.66H404.918V529.867Z" fill="#EA83AA" stroke="white"/>
<path d="M404.918 573.167H365.899V588.883H404.918V573.167Z" fill="#EA83AA" stroke="white"/>
<path d="M689.194 529.867H676.652V539.73H662.717V529.867H650.176V777.005H689.194V529.867Z" fill="#EA83AA" stroke="white"/>
<path d="M689.194 529.867H676.652V539.73H662.717V529.867H650.176V504.66H689.194V529.867Z" fill="#EA83AA" stroke="white"/>
<path d="M689.194 573.167H650.176V588.883H689.194V573.167Z" fill="#EA83AA" stroke="white"/>
<path d="M611.622 250.036H454.85V258.803H611.622V250.036Z" fill="#EA83AA" stroke="white"/>
<path d="M613.713 227.925H454.85V233.405H613.713V227.925Z" fill="#EA83AA" stroke="white"/>
<path d="M561.456 227.926V151.946H549.614V183.181L527.315 143.178L505.019 183.181V151.946H493.174V227.926H561.456Z" fill="#EA83AA" stroke="white"/>
<path d="M539.856 179.524H514.773V199.251H539.856V179.524Z" fill="#EA83AA" stroke="white"/>
<path d="M539.856 202.566H514.773V222.293H539.856V202.566Z" fill="#EA83AA" stroke="white"/>
<path d="M706.102 55.403H611.344V61.9788H706.102V55.403Z" fill="#EA83AA" stroke="white" stroke-linecap="round" stroke-linejoin="round"/>
<path d="M708.889 37.8671H608.557V55.4024H708.889V37.8671Z" fill="#EA83AA" stroke="white" stroke-linecap="round" stroke-linejoin="round"/>
<path d="M717.25 218.245H600.195V235.78H717.25V218.245Z" fill="#EA83AA" stroke="white" stroke-linecap="round" stroke-linejoin="round"/>
<path d="M701.333 29.9219L681.573 -37.5101L661.872 29.9176L701.333 29.9219Z" fill="#EA83AA" stroke="white" stroke-linecap="round" stroke-linejoin="round"/>
<path d="M672.07 29.922H616.329V37.8677H672.07V29.922Z" fill="#EA83AA" stroke="white" stroke-linecap="round" stroke-linejoin="round"/>
<path d="M701.333 29.922H672.069V37.8677H701.333V29.922Z" fill="#EA83AA" stroke="white" stroke-linecap="round" stroke-linejoin="round"/>
<path d="M672.29 29.9211L644.169 -70.9377L616.109 29.9167L672.29 29.9211Z" fill="#EA83AA" stroke="white" stroke-linecap="round" stroke-linejoin="round"/>
<path d="M213.784 295.146V264.275" stroke="white" stroke-linecap="round" stroke-linejoin="round"/>
<path d="M213.784 266.467C215.323 266.467 216.571 265.486 216.571 264.275C216.571 263.065 215.323 262.083 213.784 262.083C212.244 262.083 210.997 263.065 210.997 264.275C210.997 265.486 212.244 266.467 213.784 266.467Z" fill="#EA83AA" stroke="white" stroke-linecap="round" stroke-linejoin="round"/>
<path d="M213.959 267.414C228.764 263.394 223.714 272.673 243.571 268.326C232.771 275.45 224.41 280.108 213.959 279.104V267.414Z" fill="#EA83AA" stroke="white" stroke-linecap="round" stroke-linejoin="round"/>
<path d="M326.649 273.229V242.359" stroke="white" stroke-linecap="round" stroke-linejoin="round"/>
<path d="M326.649 244.55C328.189 244.55 329.436 243.569 329.436 242.358C329.436 241.148 328.189 240.167 326.649 240.167C325.11 240.167 323.862 241.148 323.862 242.358C323.862 243.569 325.11 244.55 326.649 244.55Z" fill="#EA83AA" stroke="white" stroke-linecap="round" stroke-linejoin="round"/>
<path d="M326.825 245.497C341.63 241.477 336.58 250.755 356.437 246.409C345.638 253.533 337.277 258.19 326.825 257.186V245.497Z" fill="#EA83AA" stroke="white" stroke-linecap="round" stroke-linejoin="round"/>
<path d="M728.446 273.229V242.359" stroke="white" stroke-linecap="round" stroke-linejoin="round"/>
<path d="M728.446 244.55C729.985 244.55 731.233 243.569 731.233 242.358C731.233 241.148 729.985 240.167 728.446 240.167C726.907 240.167 725.659 241.148 725.659 242.358C725.659 243.569 726.907 244.55 728.446 244.55Z" fill="#EA83AA" stroke="white" stroke-linecap="round" stroke-linejoin="round"/>
<path d="M728.621 245.497C743.426 241.477 738.376 250.755 758.233 246.409C747.433 253.533 739.072 258.19 728.621 257.186V245.497Z" fill="#EA83AA" stroke="white" stroke-linecap="round" stroke-linejoin="round"/>
<path d="M688.907 543.504L679.333 777.006H777.554L767.983 543.504H688.907Z" fill="#EA83AA" stroke="white" stroke-linecap="round" stroke-linejoin="round"/>
<path d="M777.386 487.708H679.503V522.912H777.386V487.708Z" fill="#EA83AA" stroke="white" stroke-linecap="round" stroke-linejoin="round"/>
<path d="M768.396 428.359H688.442V463.506H768.396V428.359Z" fill="#EA83AA" stroke="white" stroke-linecap="round" stroke-linejoin="round"/>
<path d="M776.057 428.304L728.444 273.228L680.602 428.304H776.057Z" fill="#EA83AA" stroke="white" stroke-linecap="round" stroke-linejoin="round"/>
<path d="M768.393 463.375L781.397 487.709H675.49L688.266 463.375H768.393Z" fill="#EA83AA" stroke="white" stroke-linecap="round" stroke-linejoin="round"/>
<path d="M679.503 522.911L688.907 543.504H767.983L777.386 522.911H679.503Z" fill="#EA83AA" stroke="white" stroke-linecap="round" stroke-linejoin="round"/>
<path d="M366.189 543.504L375.759 777.006H277.539L287.112 543.504H366.189Z" fill="#EA83AA" stroke="white" stroke-linecap="round" stroke-linejoin="round"/>
<path d="M375.592 487.708H277.709V522.912H375.592V487.708Z" fill="#EA83AA" stroke="white" stroke-linecap="round" stroke-linejoin="round"/>
<path d="M366.654 428.359H286.7V463.506H366.654V428.359Z" fill="#EA83AA" stroke="white" stroke-linecap="round" stroke-linejoin="round"/>
<path d="M279.036 428.304L326.649 273.228L374.491 428.304H279.036Z" fill="#EA83AA" stroke="white" stroke-linecap="round" stroke-linejoin="round"/>
<path d="M286.7 463.375L273.696 487.709H379.603L366.827 463.375H286.7Z" fill="#EA83AA" stroke="white" stroke-linecap="round" stroke-linejoin="round"/>
<path d="M375.592 522.911L366.189 543.504H287.112L277.709 522.911H375.592Z" fill="#EA83AA" stroke="white" stroke-linecap="round" stroke-linejoin="round"/>
<path d="M286.238 568.038V557.079H272.302V568.038H258.367V557.079H244.432V568.038H230.497V557.079H216.562V589.958L223.53 600.262L208.561 777.007H277.539L286.238 568.038Z" fill="#EA83AA" stroke="white" stroke-linecap="round" stroke-linejoin="round"/>
<path d="M243.973 557.079H230.038V568.038H243.973V557.079Z" fill="#EA83AA" stroke="white" stroke-linecap="round" stroke-linejoin="round"/>
<path d="M271.843 557.079H257.908V568.038H271.843V557.079Z" fill="#EA83AA" stroke="white" stroke-linecap="round" stroke-linejoin="round"/>
<path d="M284.785 600.262H223.53L216.562 589.958H285.318L284.785 600.262Z" fill="#EA83AA" stroke="white" stroke-linecap="round" stroke-linejoin="round"/>
<path d="M768.392 568.038V557.079H782.327V568.038H796.262V557.079H810.197V568.038H824.132V557.079H838.068V589.958L885.447 600.262L900.416 777.007H777.09L768.392 568.038Z" fill="#EA83AA" stroke="white" stroke-linecap="round" stroke-linejoin="round"/>
<path d="M824.593 557.079H810.658V568.038H824.593V557.079Z" fill="#EA83AA" stroke="white" stroke-linecap="round" stroke-linejoin="round"/>
<path d="M796.722 557.079H782.787V568.038H796.722V557.079Z" fill="#EA83AA" stroke="white" stroke-linecap="round" stroke-linejoin="round"/>
<path d="M769.847 600.262H853.363V589.958H769.315L769.847 600.262Z" fill="#EA83AA" stroke="white" stroke-linecap="round" stroke-linejoin="round"/>
<path d="M205.28 318.71L213.783 295.147L222.32 318.71H205.28Z" fill="#EA83AA" stroke="white" stroke-linecap="round" stroke-linejoin="round"/>
<path d="M318.91 298.436L326.825 273.792L334.425 298.436H318.91Z" fill="#EA83AA" stroke="white" stroke-linecap="round" stroke-linejoin="round"/>
<path d="M720.572 298.436L728.487 273.792L736.085 298.436H720.572Z" fill="#EA83AA" stroke="white" stroke-linecap="round" stroke-linejoin="round"/>
<path d="M889.059 403.537V372.666" stroke="white" stroke-linecap="round" stroke-linejoin="round"/>
<path d="M889.059 374.858C890.598 374.858 891.846 373.877 891.846 372.666C891.846 371.456 890.598 370.474 889.059 370.474C887.519 370.474 886.271 371.456 886.271 372.666C886.271 373.877 887.519 374.858 889.059 374.858Z" fill="#EA83AA" stroke="white" stroke-linecap="round" stroke-linejoin="round"/>
<path d="M889.234 375.805C904.039 371.785 898.988 381.066 918.846 376.717C908.046 383.84 899.685 388.498 889.234 387.497V375.805Z" fill="#EA83AA" stroke="white" stroke-linecap="round" stroke-linejoin="round"/>
<path d="M848.341 543.271L888.987 403.537L929.861 543.271H848.341Z" fill="#EA83AA" stroke="white" stroke-linecap="round" stroke-linejoin="round"/>
<path d="M881.654 428.745L889.16 404.103L896.57 428.745H881.654Z" fill="#EA83AA" stroke="white" stroke-linecap="round" stroke-linejoin="round"/>
<path d="M924.431 543.272H853.362V604.646H924.431V543.272Z" fill="#EA83AA" stroke="white" stroke-linecap="round" stroke-linejoin="round"/>
<path d="M853.363 552.588H838.034V603.55H853.363V552.588Z" fill="#EA83AA" stroke="white" stroke-linecap="round" stroke-linejoin="round"/>
<path d="M911.804 635.409H867.298V684.179H911.804V635.409Z" fill="#EA83AA" stroke="white"/>
<path d="M925.005 609.031L911.037 635.41H867.242L853.362 609.031H925.005Z" fill="#EA83AA" stroke="white" stroke-linecap="round" stroke-linejoin="round"/>
<path d="M924.431 603.55H853.362V609.029H924.431V603.55Z" fill="#EA83AA" stroke="white"/>
<path d="M907.623 684.18H871.478V699.374H907.623V684.18Z" fill="#EA83AA" stroke="white" stroke-linecap="round" stroke-linejoin="round"/>
<path d="M1043 777.008H643.904V807.699H1043V777.008Z" fill="#EA83AA" stroke="white"/>
<path d="M1 807.699V799.916H10.9553V792.351H20.8492L20.8603 784.842H30.8183V777.008H411.244V807.699H1Z" fill="#EA83AA" stroke="white"/>
<path d="M154.832 649.041L175.766 616.141H75.3242L96.2575 649.041H154.832Z" fill="#EA83AA" stroke="white" stroke-linecap="round" stroke-linejoin="round"/>
<path d="M175.763 589.705H75.3242V616.142H175.763V589.705Z" fill="#EA83AA" stroke="white" stroke-linecap="round" stroke-linejoin="round"/>
</svg>
