<svg width="135" height="209" viewBox="0 0 135 209" fill="none" xmlns="http://www.w3.org/2000/svg">
<path d="M122.854 208.738C122.865 208.73 122.878 208.719 122.894 208.705C122.969 208.717 122.954 208.728 122.854 208.738C122.819 208.768 122.816 208.767 122.842 208.74C119.163 209.108 14.4509 209.088 14.7261 208.705C14.8478 208.536 15.095 207.62 15.2758 206.67C15.6275 204.816 15.9428 204.413 17.6376 203.654C19.9039 202.637 21.3705 202.423 24.5328 202.643L27.6324 202.859L27.4316 199.462C27.1317 194.387 26.5447 189.632 26.1367 188.978C25.8577 188.53 25.9685 188.201 26.6237 187.532C27.9968 186.132 28.6565 184.076 27.8877 183.594C27.3988 183.287 27.2698 182.704 27.2698 180.812C27.2698 177.156 26.531 176.49 21.2551 175.39C17.5858 174.626 15.6375 173.769 14.2281 172.302L13.1113 171.139L13.1313 165.542C13.1431 162.463 13.3012 159.719 13.4839 159.443C14.0891 158.527 17.8965 148.368 18.4072 146.305C19.3023 142.692 18.8452 141.143 15.8156 137.523C14.1327 135.513 13.1031 133.603 12.8451 132.016C12.7051 131.157 12.4698 130.725 12.1917 130.817C10.9795 131.217 10.8386 130.528 10.6387 123.233L10.4397 115.992L9.58191 115.712C8.73227 115.435 8.74318 115.41 10.8232 113.003C13.4739 109.935 14.2217 108.206 13.2849 107.317C12.6542 106.719 12.6697 106.652 13.7392 105.24C14.8297 103.801 14.9333 102.747 13.951 103.07C13.572 103.195 13.5057 103.042 13.6792 102.447C13.8483 101.869 13.6856 101.453 13.0704 100.892C12.6088 100.47 12.1863 99.8809 12.1317 99.5829C11.5911 96.6581 11.1367 95.266 10.4724 94.4938C9.62825 93.515 8.73226 93.2857 8.73226 94.0492C8.73226 94.3066 8.6096 94.5125 8.45966 94.5071C8.08891 94.4938 6.1879 91.7734 6.1879 91.2555C6.1879 91.027 5.95982 90.7649 5.67993 90.6729C5.3837 90.5754 5.06837 89.8149 4.92298 88.8455C4.78576 87.9329 4.43592 86.3762 4.14696 85.3864C3.39001 82.7994 4.01337 79.2397 5.79079 76.0076C6.18426 75.2924 6.60046 74.2153 6.71677 73.6148C6.83308 73.0142 7.45736 72.0019 8.10254 71.3646C10.3588 69.1402 13.164 63.7813 14.3562 59.4198C14.6843 58.2187 15.1068 56.8047 15.2958 56.2782C15.4839 55.751 15.6384 55.1629 15.6384 54.971C15.6384 54.6505 10.9259 48.4718 9.46014 46.8713C9.11029 46.4892 8.4642 45.3661 8.02439 44.3755C7.58367 43.3842 6.82491 41.8711 6.33693 41.0132C5.84896 40.1553 5.45186 39.3488 5.45549 39.2209C5.45822 39.093 4.88845 37.9239 4.18875 36.6237C3.48905 35.3235 2.91657 34.0577 2.91657 33.8104C2.91657 33.5632 2.77027 33.1179 2.59217 32.8199C1.75071 31.4168 1.27726 28.7978 0.34857 20.4227C-1.46247 4.09466 3.82618 1.87261 15.2213 14.1754C17.1323 16.2384 19.4204 18.6289 20.3046 19.4868C24.6273 23.6798 30.4148 33.8104 32.2459 40.3893C32.3413 40.7324 32.5521 41.294 32.7138 41.6372C32.8756 41.9803 33.2845 42.928 33.6226 43.743L34.2359 45.2249L36.296 45.2311C37.4291 45.2342 39.9916 45.4581 41.9908 45.728C48.7325 46.6381 48.1282 46.66 48.6098 45.4846C49.2241 43.9856 49.7139 41.1583 49.9792 37.5815C50.2064 34.5233 50.7207 32.2584 51.3204 31.6695C51.4867 31.5065 51.6231 31.1384 51.6231 30.8513C51.6231 29.0692 58.6773 17.7179 61.109 15.5871C61.4025 15.3297 62.0359 14.6278 62.5157 14.0272C63.5262 12.7637 76.4034 1.48029 77.87 0.572443C79.6574 -0.532735 82.2999 0.0311625 83.0305 1.67294C83.7839 3.36463 83.8184 12.3792 83.0878 16.2111C81.7011 23.4786 81.0605 27.2917 80.677 30.562C80.2953 33.8128 79.901 35.4288 78.8142 38.2054C77.9772 40.3417 76.3298 43.6611 75.7945 44.289C75.5755 44.5463 74.924 45.5291 74.3461 46.4728C73.2256 48.3041 72.1234 49.8375 68.465 54.6497C65.9642 57.9395 65.8461 58.2866 66.7984 59.529C67.1482 59.9853 67.6344 60.6389 67.8797 60.9813C68.7294 62.1699 70.6077 65.6781 72.2215 69.0911C73.1139 70.9786 74.3924 73.5056 75.063 74.7067C75.9436 76.2861 76.2816 77.3226 76.2807 78.4504C76.2807 79.3083 76.5215 80.5828 76.8168 81.2816C77.3175 82.4687 77.3075 82.5779 76.6651 82.9226C76.1044 83.2229 75.9763 83.6667 75.9763 85.3162C75.9763 87.1499 75.9054 87.3417 75.2312 87.3417C74.0508 87.3417 73.0875 89.4959 73.4746 91.2726C74.0889 94.0929 76.9477 97.6307 80.0682 99.4308C81.0905 100.02 81.3385 100.318 81.0523 100.614C80.6497 101.03 82.3645 102.654 87.9112 107.109C90.2775 109.01 93.0599 112.113 93.0599 112.851C93.0599 113.165 94.1549 115.216 95.5461 117.506C96.0859 118.396 97.3572 119.87 98.3704 120.782C102.267 124.288 105.519 127.945 106.514 129.938C107.407 131.726 107.407 131.731 106.46 131.473C104.675 130.987 107.577 135.334 110.314 137.248C115.097 140.592 117.995 143.551 116.855 143.927C116.354 144.092 116.354 144.204 116.855 145.036C117.162 145.546 117.413 146.12 117.413 146.313C117.413 146.734 119.787 149.838 122.894 153.481C125.202 156.187 127.691 159.634 128.753 161.592C133.758 170.829 134.962 175.007 134.999 183.275C135.032 190.411 133.981 195.458 131.458 200.288C131.049 201.072 123.26 208.301 122.842 208.74C122.846 208.739 122.85 208.739 122.854 208.738Z" fill="white"/>
<path d="M44.5264 75.0124C44.5264 72.9362 48.0094 69.9163 50.8437 69.5341C57.4009 68.6504 60.6513 72.8941 55.1864 75.2035C52.5302 76.3258 44.5264 76.1823 44.5264 75.0124Z" fill="#FCF2F7"/>
<ellipse cx="51.2514" cy="72.6908" rx="2.54437" ry="2.18384" fill="#EA83AA"/>
<ellipse cx="52.3417" cy="71.7546" rx="0.726962" ry="0.623953" fill="white"/>
<path d="M16.3674 74.5423C13.0588 74.5493 11.494 70.9093 13.8548 68.6958C15.8094 66.8622 18.7609 68.1436 20.1031 71.4085C21.2226 74.1312 20.7446 74.5321 16.3674 74.5423Z" fill="#FCF2F7"/>
<ellipse cx="16.7201" cy="71.7545" rx="2.54437" ry="2.18384" fill="#EA83AA"/>
<ellipse cx="17.8105" cy="70.8182" rx="0.726962" ry="0.623953" fill="white"/>
</svg>
