<svg width="202" height="131" viewBox="0 0 202 131" fill="none" xmlns="http://www.w3.org/2000/svg">
<path d="M10.6081 120.796C10.6168 120.804 10.6279 120.813 10.6416 120.825C10.6376 120.888 10.6263 120.877 10.6081 120.796C10.5783 120.769 10.5786 120.767 10.606 120.786C9.96035 117.784 1.14348 31.36 1.51499 31.5515C1.67914 31.6363 2.53244 31.7552 3.41136 31.8161C5.12721 31.934 5.51969 32.1568 6.35333 33.4849C7.46847 35.2609 7.7872 36.4514 7.85406 39.0818L7.91919 41.6601L10.9902 41.1786C15.5789 40.4594 19.8526 39.533 20.4131 39.1354C20.7966 38.8636 21.1051 38.9245 21.7681 39.4031C23.1574 40.4061 25.0815 40.7596 25.4556 40.0802C25.693 39.6483 26.2118 39.4876 27.9327 39.3117C31.2562 38.9719 31.7994 38.3003 32.354 33.8437C32.7393 30.7442 33.3535 29.0567 34.5683 27.7571L35.532 26.7272L40.622 26.2236C43.4218 25.9472 45.9303 25.8226 46.1968 25.9477C47.0803 26.3621 56.6373 28.5603 58.5559 28.79C61.9165 29.1929 63.2862 28.6717 66.3214 25.8349C68.0067 24.2591 69.6563 23.2318 71.0775 22.8713C71.8471 22.6759 72.2194 22.4416 72.1122 22.2207C71.6469 21.2573 72.2611 21.0771 78.8763 20.2341L85.4425 19.3968L85.6247 18.6628C85.8047 17.9359 85.8283 17.9426 88.1928 19.4355C91.2052 21.3381 92.8403 21.7946 93.5696 20.9387C94.0596 20.3627 94.1226 20.3691 95.4962 21.1207C96.8965 21.8869 97.8632 21.8745 97.4867 21.0937C97.3413 20.7926 97.4747 20.7236 98.0304 20.8116C98.5701 20.8973 98.9343 20.7245 99.3929 20.1645C99.7375 19.7443 100.237 19.3409 100.504 19.2682C103.117 18.5501 104.344 18.0457 104.99 17.4257C105.809 16.638 105.942 15.8772 105.248 15.9482C105.014 15.9721 104.816 15.89 104.808 15.7658C104.789 15.4585 107.102 13.6367 107.573 13.5886C107.781 13.5674 108 13.3548 108.06 13.1152C108.123 12.8617 108.788 12.5307 109.657 12.3206C110.475 12.1226 111.861 11.6891 112.736 11.3587C115.025 10.4935 118.313 10.6771 121.402 11.8437C122.085 12.1019 123.1 12.3453 123.655 12.3855C124.211 12.4257 125.184 12.8468 125.818 13.3201C128.031 14.9755 133.139 16.7926 137.205 17.3712C138.325 17.5304 139.646 17.7477 140.14 17.8547C140.636 17.961 141.183 18.0338 141.358 18.016C141.649 17.9862 146.869 13.5225 148.2 12.1641C148.518 11.8398 149.485 11.2022 150.348 10.7471C151.212 10.2913 152.524 9.52441 153.263 9.04193C154.001 8.55946 154.701 8.15676 154.818 8.14787C154.934 8.13823 155.949 7.55932 157.072 6.861C158.195 6.16268 159.298 5.57254 159.522 5.54956C159.747 5.52658 160.14 5.36445 160.395 5.18976C161.6 4.36487 163.941 3.73071 171.477 2.18583C186.169 -0.826452 188.635 3.3319 178.412 13.8801C176.697 15.649 174.717 17.7596 174.012 18.5691C170.564 22.5265 161.842 28.2446 156.016 30.3673C155.712 30.4779 155.219 30.7041 154.921 30.8695C154.623 31.0349 153.796 31.4605 153.083 31.8152L151.788 32.4592L151.956 34.16C152.048 35.0955 152.061 37.2312 151.985 38.9063C151.726 44.5549 151.655 44.0582 152.764 44.3465C154.179 44.7141 156.791 44.8556 160.065 44.7422C162.864 44.6454 164.967 44.8594 165.553 45.2997C165.715 45.4217 166.061 45.5 166.322 45.4734C167.942 45.3077 178.857 50.0748 181 51.8837C181.259 52.102 181.95 52.5595 182.537 52.8997C183.771 53.6162 195.115 63.1954 196.064 64.3215C197.22 65.694 196.93 67.9273 195.499 68.6829C194.025 69.4619 185.832 70.3282 182.287 70.0814C175.563 69.6124 172.042 69.438 169.037 69.4255C166.049 69.4127 164.547 69.2374 161.931 68.5984C159.918 68.1063 156.761 67.0551 156.145 66.6717C155.892 66.5149 154.944 66.0685 154.037 65.6792C152.278 64.9247 150.791 64.1575 146.107 61.5853C142.905 59.8272 142.58 59.7619 141.531 60.6634C141.145 60.9945 140.592 61.4565 140.302 61.6908C139.293 62.5025 136.262 64.3788 133.295 66.028C131.654 66.9399 129.465 68.23 128.429 68.8951C127.068 69.7686 126.154 70.1439 125.128 70.248C124.348 70.3277 123.21 70.6449 122.6 70.9536C121.563 71.4772 121.463 71.4791 121.095 70.9809C120.775 70.5461 120.36 70.4816 118.861 70.6349C117.194 70.8053 117.013 70.7646 116.956 70.2082C116.857 69.2339 114.817 68.6392 113.235 69.1238C110.722 69.8929 107.747 72.5812 106.374 75.3239C105.924 76.2224 105.674 76.4548 105.381 76.2461C104.969 75.9525 103.638 77.5186 100.055 82.5106C98.5264 84.6402 95.9405 87.225 95.2697 87.2936C94.984 87.3228 93.2115 88.4172 91.247 89.7782C90.4835 90.3064 89.2506 91.4926 88.5072 92.4136C85.648 95.9554 82.5982 98.9794 80.8698 99.986C79.32 100.889 79.315 100.89 79.4697 100.084C79.7609 98.5655 76.0541 101.365 74.545 103.802C71.908 108.06 69.4623 110.726 69.025 109.821C68.8324 109.422 68.7303 109.433 68.016 109.924C67.5789 110.225 67.0775 110.485 66.9023 110.503C66.5202 110.542 63.8976 112.79 60.8484 115.692C58.5826 117.849 55.6593 120.224 53.9683 121.282C45.9931 126.272 42.2961 127.654 34.7831 128.453C28.2978 129.143 23.6207 128.744 19.0166 127.111C18.2697 126.846 11.0398 121.09 10.606 120.786C10.6067 120.789 10.6074 120.793 10.6081 120.796Z" fill="white"/>
<path d="M125.575 43.7208C127.462 43.5278 130.502 46.1218 131.088 48.4255C132.445 53.7552 128.861 56.8323 126.3 52.5366C125.056 50.4487 124.511 43.8295 125.575 43.7208Z" fill="#FCF2F7"/>
<ellipse cx="128.253" cy="49.0551" rx="2.11088" ry="1.99576" transform="rotate(84.1628 128.253 49.0551)" fill="#EA83AA"/>
<ellipse cx="129.196" cy="49.8681" rx="0.603109" ry="0.570217" transform="rotate(84.1628 129.196 49.8681)" fill="white"/>
<path d="M123.626 20.4368C123.341 17.7068 126.518 16.077 128.73 17.8198C130.561 19.2625 129.645 21.8176 126.791 23.2287C124.41 24.4058 124.005 24.0485 123.626 20.4368Z" fill="#FCF2F7"/>
<ellipse cx="126.191" cy="20.4686" rx="2.11088" ry="1.99576" transform="rotate(84.1628 126.191 20.4686)" fill="#EA83AA"/>
<ellipse cx="127.134" cy="21.2815" rx="0.603109" ry="0.570217" transform="rotate(84.1628 127.134 21.2815)" fill="white"/>
</svg>
