<svg width="161" height="167" viewBox="0 0 161 167" fill="none" xmlns="http://www.w3.org/2000/svg">
<path d="M152.983 111.862C152.986 111.853 152.991 111.842 152.996 111.828C153.048 111.8 153.043 111.812 152.983 111.862C152.971 111.893 152.969 111.894 152.975 111.868C150.764 113.692 84.0659 160.241 84.1047 159.923C84.122 159.782 83.9534 159.205 83.7303 158.641C83.2939 157.538 83.3515 157.193 84.1603 156.052C85.2419 154.526 86.0996 153.764 88.192 152.47L90.243 151.202L88.9057 149.559C86.9076 147.104 84.8406 144.94 84.3477 144.788C84.0107 144.683 83.9641 144.466 84.1434 143.834C84.5191 142.509 84.2075 141.168 83.546 141.263C83.1255 141.324 82.8358 141.084 82.1618 140.119C80.8602 138.254 80.1525 138.243 76.4007 140.028C73.7916 141.27 72.2459 141.699 70.8258 141.578L69.7002 141.481L67.7201 138.617C66.6315 137.042 65.755 135.572 65.773 135.35C65.8324 134.614 64.6402 127.74 64.2309 126.461C63.5144 124.22 62.6717 123.633 59.4534 123.134C57.6659 122.857 56.33 122.34 55.6005 121.646C55.2054 121.27 54.9019 121.154 54.7576 121.325C54.1277 122.067 53.7928 121.779 51.068 118.147L48.3631 114.543L47.717 114.781C47.0773 115.018 47.0754 115 47.5428 112.847C48.1388 110.104 47.9995 108.89 47.0862 108.853C46.4718 108.829 46.4575 108.787 46.636 107.592C46.8181 106.373 46.5089 105.789 45.9983 106.391C45.8014 106.623 45.7047 106.574 45.6033 106.194C45.5052 105.824 45.2536 105.684 44.6618 105.671C44.2176 105.661 43.7388 105.549 43.598 105.421C42.2122 104.17 41.4271 103.662 40.7291 103.563C39.843 103.439 39.1907 103.721 39.4625 104.11C39.5542 104.242 39.5494 104.401 39.4519 104.465C39.2111 104.623 37.0317 104.081 36.8473 103.817C36.7659 103.7 36.5274 103.668 36.3163 103.746C36.0929 103.827 35.6214 103.58 35.1836 103.15C34.7713 102.746 33.9941 102.107 33.4577 101.731C32.0544 100.748 31.184 98.6553 31.1652 96.2166C31.1611 95.6768 31.0427 94.9424 30.9029 94.5844C30.7632 94.2264 30.8003 93.4325 30.9843 92.8206C31.6293 90.6829 31.5078 86.7024 30.7142 83.9479C30.4954 83.1894 30.2611 82.2804 30.194 81.9278C30.1261 81.5753 30.0151 81.2066 29.9467 81.1088C29.8326 80.9453 24.6312 79.8893 23.1278 79.7248C22.7689 79.6854 21.9575 79.3999 21.3247 79.0903C20.6911 78.7806 19.6691 78.3463 19.0528 78.1257C18.4365 77.9051 17.8965 77.6703 17.8532 77.6035C17.8094 77.537 17.0303 77.1941 16.1217 76.8421C15.2131 76.4901 14.3978 76.099 14.3098 75.9729C14.2217 75.8468 13.97 75.6847 13.7505 75.6119C12.7149 75.2705 11.4809 74.1452 7.90736 70.2866C0.940089 62.7642 3.51721 59.2793 15.1553 60.4874C17.1069 60.6899 19.4154 60.8917 20.284 60.9362C24.5301 61.1527 31.8233 63.7462 35.3319 66.2875C35.5149 66.4201 35.8491 66.6127 36.0743 66.7158C36.2995 66.819 36.8973 67.1205 37.4028 67.3858L38.3212 67.8689L39.6354 66.9561C40.3582 66.4539 42.07 65.4287 43.4393 64.6774C48.0571 62.1441 47.68 62.4239 47.5683 61.6103C47.4257 60.5726 46.731 58.9128 45.6264 56.9706C44.6822 55.3098 44.2033 53.926 44.3756 53.359C44.4235 53.2019 44.3792 52.9535 44.277 52.8071C43.6425 51.8982 44.0935 42.9722 44.8836 40.8042C44.9788 40.5424 45.1323 39.9028 45.224 39.3832C45.4177 38.2895 49.6015 26.809 50.2124 25.6938C50.9573 24.3354 52.8411 23.4481 53.891 23.9606C54.9731 24.4884 58.2048 29.0707 59.1039 31.3499C60.8084 35.6731 61.7581 37.9028 62.6783 39.7412C63.5927 41.5689 63.917 42.5685 64.2134 44.4678C64.441 45.9295 64.5737 48.355 64.4564 48.9132C64.4085 49.1419 64.3435 49.9328 64.3114 50.6711C64.2499 52.1032 64.0938 53.3754 63.4773 57.4564C63.0559 60.2462 63.1043 60.4758 64.1532 60.686C64.5385 60.7632 65.0808 60.8804 65.359 60.9459C66.3233 61.1744 68.7687 62.1285 71.0119 63.1516C72.2522 63.7175 73.9663 64.4379 74.8211 64.7523C75.9443 65.1663 76.5286 65.5446 76.9296 66.1203C77.2351 66.5578 77.8422 67.1007 78.2792 67.3259C79.0207 67.7087 79.0532 67.7688 78.7668 68.2303C78.5166 68.6327 78.593 68.916 79.1804 69.7574C79.8333 70.6926 79.8565 70.8219 79.427 71.1217C78.6752 71.6466 78.8288 73.1736 79.708 73.9076C81.1034 75.0729 84.1838 75.6062 86.8122 75.1368C87.6732 74.983 87.9373 75.0246 87.8603 75.3027C87.7519 75.6937 89.4222 75.7594 94.5414 75.5658C96.7252 75.4831 99.6021 75.8283 99.8648 76.2046C99.9767 76.3649 101.404 76.9242 103.106 77.4736C103.767 77.6874 105.101 77.874 106.071 77.8885C109.801 77.9445 113.175 78.3632 114.518 78.9376C115.723 79.4521 115.725 79.4549 115.03 79.7447C113.72 80.2904 117.116 81.2168 119.541 80.976C123.778 80.5552 126.677 80.776 126.085 81.474C125.824 81.7813 125.864 81.8386 126.48 82.04C126.857 82.1632 127.221 82.3449 127.29 82.4431C127.44 82.6575 130.057 83.1858 133.333 83.662C135.766 84.0161 138.579 84.6669 139.953 85.1938C146.429 87.6794 148.684 89.275 151.651 93.475C154.213 97.1002 155.34 100.142 155.454 103.727C155.472 104.309 153.086 111.459 152.975 111.868C152.978 111.866 152.98 111.864 152.983 111.862Z" fill="white"/>
<path d="M55.4813 78.4859C54.7421 77.4269 55.8851 74.338 57.5542 72.8829C61.4158 69.5166 64.997 70.2358 62.3387 73.8435C61.0466 75.5969 55.8979 79.0825 55.4813 78.4859Z" fill="#FCF2F7"/>
<ellipse cx="58.9376" cy="74.3117" rx="1.97633" ry="1.35839" transform="rotate(-34.92 58.9376 74.3117)" fill="#EA83AA"/>
<ellipse cx="59.2989" cy="73.3493" rx="0.564665" ry="0.38811" transform="rotate(-34.92 59.2989 73.3493)" fill="white"/>
<path d="M37.3798 90.7664C35.2751 92.2411 32.9824 91.0804 33.6979 88.9018C34.2899 87.0975 36.6259 86.4387 38.6432 87.5071C40.3257 88.398 40.164 88.815 37.3798 90.7664Z" fill="#FCF2F7"/>
<ellipse cx="36.6115" cy="89.1878" rx="1.97633" ry="1.35839" transform="rotate(-34.92 36.6115 89.1878)" fill="#EA83AA"/>
<ellipse cx="36.9728" cy="88.2253" rx="0.564665" ry="0.38811" transform="rotate(-34.92 36.9728 88.2253)" fill="white"/>
</svg>
