<svg width="126" height="174" viewBox="0 0 126 174" fill="none" xmlns="http://www.w3.org/2000/svg">
<path d="M95.7021 172.517C95.711 172.511 95.7222 172.504 95.7359 172.495C95.7936 172.512 95.781 172.519 95.7021 172.517C95.6714 172.536 95.6692 172.535 95.6924 172.516C92.7915 172.429 11.2505 161.893 11.5026 161.628C11.6141 161.511 11.8968 160.836 12.1313 160.128C12.588 158.747 12.8732 158.471 14.2678 158.061C16.1328 157.512 17.2961 157.496 19.737 157.981L22.1294 158.458L22.3078 155.843C22.5746 151.935 22.5861 148.243 22.3329 147.702C22.1598 147.332 22.2786 147.092 22.8547 146.647C24.062 145.715 24.7783 144.211 24.2272 143.765C23.8767 143.481 23.8337 143.023 24.0203 141.577C24.3806 138.784 23.8709 138.201 19.8708 136.831C17.0887 135.878 15.656 135.028 14.703 133.766L13.948 132.764L14.5153 128.49C14.8279 126.14 15.2216 124.059 15.391 123.866C15.9526 123.227 19.9189 115.848 20.52 114.324C21.5732 111.653 21.3699 110.423 19.3674 107.354C18.255 105.649 17.6415 104.086 17.597 102.848C17.5728 102.177 17.432 101.824 17.2064 101.866C16.223 102.049 16.1812 101.509 16.7446 95.9157L17.3034 90.3636L16.663 90.0635C16.0286 89.7666 16.0396 89.7486 17.8967 88.1181C20.2632 86.0408 21.016 84.7949 20.3741 84.0214C19.9419 83.5016 19.9606 83.4513 20.9326 82.4802C21.9236 81.4904 22.1082 80.6958 21.3114 80.8438C21.004 80.901 20.9674 80.7776 21.1612 80.3404C21.3498 79.9158 21.2641 79.5819 20.8404 79.091C20.5225 78.7223 20.2515 78.2299 20.2384 77.9968C20.1057 75.7079 19.8891 74.5986 19.4479 73.942C18.887 73.1093 18.2119 72.8441 18.1366 73.4275C18.1113 73.6241 17.9954 73.7691 17.8792 73.7499C17.5918 73.7025 16.3796 71.4331 16.4306 71.0374C16.4532 70.8628 16.3014 70.6397 16.0925 70.5413C15.8714 70.437 15.7008 69.8243 15.6831 69.069C15.6662 68.3581 15.5473 67.1336 15.4198 66.3483C15.0853 64.2958 15.9216 61.6388 17.6244 59.348C18.0013 58.8411 18.4315 58.06 18.5813 57.6129C18.7311 57.1658 19.317 56.455 19.8822 56.033C21.8586 54.5602 24.5713 50.7478 25.9296 47.5354C26.3034 46.6507 26.7719 45.6128 26.9709 45.2296C27.1694 44.8456 27.3477 44.4119 27.3666 44.2653C27.3982 44.0204 24.3374 38.8263 23.3538 37.4563C23.119 37.1292 22.7266 36.2062 22.4817 35.4053C22.2362 34.6036 21.7945 33.3714 21.499 32.6669C21.2036 31.9624 20.9739 31.3063 20.9893 31.209C21.004 31.1115 20.6756 30.1611 20.2589 29.0974C19.8421 28.0338 19.5211 27.0092 19.5455 26.8203C19.5698 26.6314 19.4998 26.2764 19.3905 26.0309C18.8735 24.8744 18.763 22.8258 18.8653 16.334C19.0645 3.67722 23.4019 2.5109 31.063 13.0552C32.3478 14.8233 33.894 16.8796 34.4979 17.6239C37.4509 21.2616 40.9592 29.583 41.7366 34.7932C41.7771 35.065 41.8859 35.5152 41.9781 35.7936C42.0702 36.0721 42.2952 36.8372 42.4781 37.4938L42.8097 38.6876L44.4133 38.8994C45.2954 39.0156 47.2689 39.4441 48.7991 39.8511C53.9593 41.2238 53.4866 41.1798 53.9775 40.3302C54.6036 39.2466 55.2637 37.1358 55.8229 34.4297C56.3012 32.1161 56.925 30.4373 57.4501 30.0477C57.5957 29.9398 57.7381 29.6723 57.7664 29.453C57.9421 28.0914 64.5543 20.1277 66.658 18.744C66.9119 18.5769 67.4743 18.1042 67.9072 17.6936C68.8186 16.8298 79.9587 9.50293 81.1903 8.95668C82.6911 8.29189 84.6934 8.98821 85.1005 10.3159C85.5204 11.6841 84.6587 18.5748 83.712 21.4289C81.9158 26.842 81.0411 29.6909 80.4201 32.1509C79.8025 34.5962 79.3361 35.7913 78.2161 37.8034C77.3538 39.3515 75.7436 41.722 75.2649 42.1479C75.069 42.3226 74.4648 43.0079 73.9217 43.6709C72.8687 44.9574 71.8592 46.0182 68.5359 49.3272C66.2642 51.5894 66.138 51.8427 66.7572 52.8876C66.9846 53.2714 67.2988 53.8195 67.4561 54.1058C68.0006 55.0993 69.1174 57.9683 70.0378 60.738C70.5466 62.2697 71.2932 64.3288 71.697 65.3138C72.2271 66.6089 72.3881 67.4348 72.2762 68.2964C72.1917 68.9518 72.2536 69.9497 72.4147 70.5133C72.6876 71.4705 72.669 71.553 72.1348 71.7518C71.6686 71.9249 71.525 72.2511 71.3624 73.5113C71.1817 74.9123 71.1076 75.0517 70.5825 74.984C69.6633 74.8654 68.7009 76.4144 68.8272 77.8108C69.0276 80.0272 70.9051 83.0173 73.1576 84.7061C73.8956 85.2593 74.0594 85.5119 73.8074 85.709C73.4529 85.9861 74.6282 87.399 78.5084 91.3606C80.1637 93.0505 82.0246 95.7004 81.9519 96.2641C81.9209 96.5043 82.5715 98.1814 83.4291 100.071C83.7617 100.805 84.6064 102.059 85.3056 102.857C87.9943 105.928 90.1665 109.048 90.7448 110.671C91.2642 112.127 91.2637 112.131 90.5511 111.838C89.2092 111.288 91.0409 114.9 92.9837 116.637C96.3783 119.673 98.3433 122.225 97.4189 122.397C97.012 122.473 97.0009 122.559 97.3095 123.245C97.4985 123.665 97.6371 124.129 97.6181 124.277C97.5767 124.598 99.119 127.208 101.179 130.303C102.71 132.603 104.309 135.486 104.943 137.089C107.93 144.649 108.456 147.962 107.67 154.282C106.992 159.738 105.676 163.488 103.235 166.925C102.839 167.482 96.0614 172.224 95.6924 172.516C95.6957 172.517 95.699 172.517 95.7021 172.517Z" fill="white"/>
<path d="M47.8872 62.4794C48.0919 60.8932 51.1019 58.9359 53.3467 58.9286C58.5401 58.9123 60.653 62.4811 56.1697 63.6964C53.9906 64.287 47.7719 63.3732 47.8872 62.4794Z" fill="#FCF2F7"/>
<ellipse cx="53.3525" cy="61.3813" rx="1.9978" ry="1.6823" transform="rotate(7.35149 53.3525 61.3813)" fill="#EA83AA"/>
<ellipse cx="54.2942" cy="60.7756" rx="0.5708" ry="0.480656" transform="rotate(7.35149 54.2942 60.7756)" fill="white"/>
<path d="M26.0055 59.2912C23.4283 58.9641 22.5686 56.0259 24.6252 54.572C26.3281 53.3675 28.5001 54.643 29.2235 57.2722C29.8269 59.4649 29.4152 59.7232 26.0055 59.2912Z" fill="#FCF2F7"/>
<ellipse cx="26.5547" cy="57.1967" rx="1.9978" ry="1.6823" transform="rotate(7.35149 26.5547 57.1967)" fill="#EA83AA"/>
<ellipse cx="27.4963" cy="56.5908" rx="0.5708" ry="0.480656" transform="rotate(7.35149 27.4963 56.5908)" fill="white"/>
</svg>
