<svg width="91" height="130" viewBox="0 0 91 130" fill="none" xmlns="http://www.w3.org/2000/svg">
<path d="M82.8129 129.839C82.8199 129.834 82.8287 129.827 82.8393 129.819C82.8902 129.826 82.8803 129.832 82.8129 129.839C82.7888 129.858 82.7869 129.857 82.8046 129.84C80.3251 130.069 9.74095 130.057 9.92646 129.819C10.0085 129.713 10.1751 129.144 10.297 128.553C10.5341 127.399 10.7466 127.149 11.889 126.676C13.4167 126.044 14.4053 125.911 16.5369 126.048L18.6263 126.182L18.4909 124.069C18.2888 120.912 17.8931 117.954 17.618 117.547C17.43 117.269 17.5047 117.064 17.9464 116.649C18.8719 115.777 19.3166 114.499 18.7984 114.199C18.4688 114.008 18.3819 113.646 18.3819 112.468C18.3819 110.194 17.8839 109.78 14.3275 109.096C11.8541 108.62 10.5408 108.088 9.59079 107.175L8.83799 106.451L8.85147 102.97C8.85943 101.055 8.96601 99.348 9.08913 99.1763C9.49708 98.6067 12.0636 92.2878 12.4078 91.0046C13.0112 88.757 12.7031 87.7935 10.6609 85.5419C9.52648 84.2917 8.83248 83.1036 8.65852 82.1164C8.56419 81.5818 8.40554 81.3135 8.21811 81.3707C7.40099 81.6191 7.30605 81.1907 7.17129 76.6532L7.03715 72.1492L6.45892 71.9751C5.8862 71.8028 5.89355 71.7873 7.29564 70.2897C9.08239 68.3816 9.58651 67.3061 8.95499 66.753C8.52989 66.3814 8.5403 66.3392 9.26125 65.4611C9.99629 64.566 10.0661 63.9106 9.40398 64.1115C9.14855 64.1891 9.10383 64.094 9.22082 63.7238C9.33475 63.3643 9.22511 63.1058 8.81043 62.7565C8.49926 62.494 8.21444 62.1277 8.17768 61.9424C7.81323 60.1231 7.50696 59.2572 7.0592 58.7769C6.49015 58.168 5.88619 58.0254 5.88619 58.5004C5.88619 58.6604 5.80351 58.7885 5.70244 58.7851C5.45253 58.7769 4.17111 57.0847 4.17111 56.7626C4.17111 56.6204 4.01736 56.4574 3.8287 56.4002C3.62901 56.3395 3.41646 55.8665 3.31845 55.2635C3.22596 54.6959 2.99014 53.7276 2.79536 53.1119C2.28512 51.5027 2.70531 49.2885 3.90342 47.2781C4.16865 46.8333 4.4492 46.1633 4.5276 45.7897C4.606 45.4162 5.02681 44.7865 5.46171 44.3901C6.98263 43.0065 8.87352 39.6731 9.67717 36.9602C9.89829 36.2131 10.1831 35.3336 10.3105 35.0061C10.4373 34.6781 10.5414 34.3123 10.5414 34.193C10.5414 33.9936 7.36485 30.1503 6.37684 29.1548C6.14101 28.9171 5.7055 28.2185 5.40903 27.6024C5.11195 26.9858 4.60049 26.0446 4.27156 25.511C3.94263 24.9773 3.67495 24.4757 3.6774 24.3961C3.67924 24.3166 3.29518 23.5893 2.82353 22.7806C2.35188 21.9719 1.96598 21.1845 1.96598 21.0307C1.96598 20.8769 1.86737 20.5999 1.74731 20.4146C1.18011 19.5418 0.860971 17.9127 0.234962 12.7033C-0.985816 2.54696 2.57913 1.1648 10.2603 8.81736C11.5485 10.1006 13.0908 11.5875 13.6868 12.1212C16.6006 14.7293 20.5018 21.0307 21.7361 25.1229C21.8004 25.3363 21.9425 25.6856 22.0516 25.8991C22.1606 26.1125 22.4362 26.702 22.6641 27.2089L23.0776 28.1307L24.4662 28.1346C25.23 28.1365 26.9573 28.2758 28.3049 28.4436C32.8493 29.0098 32.442 29.0234 32.7666 28.2923C33.1807 27.3598 33.5108 25.6012 33.6897 23.3764C33.8428 21.4741 34.1895 20.0653 34.5938 19.699C34.7059 19.5976 34.7978 19.3686 34.7978 19.1901C34.7978 18.0816 39.5529 11.0209 41.192 9.69546C41.3898 9.53537 41.8168 9.09874 42.1402 8.72519C42.8213 7.93926 51.5015 0.920771 52.4902 0.35607C53.695 -0.331371 55.4763 0.0193836 55.9687 1.0406C56.4765 2.09286 56.4998 7.70009 56.0073 10.0836C55.0726 14.6041 54.6408 16.9759 54.3823 19.0101C54.125 21.0322 53.8592 22.0374 53.1266 23.7645C52.5624 25.0933 51.4519 27.158 51.0911 27.5485C50.9435 27.7086 50.5043 28.3199 50.1148 28.9069C49.3595 30.046 48.6165 30.9998 46.1504 33.9931C44.4648 36.0394 44.3851 36.2553 45.0271 37.0281C45.2629 37.3119 45.5906 37.7185 45.756 37.9315C46.3287 38.6708 47.5948 40.853 48.6827 42.9759C49.2842 44.15 50.146 45.7218 50.598 46.4689C51.1916 47.4513 51.4195 48.0961 51.4188 48.7976C51.4188 49.3312 51.5812 50.124 51.7802 50.5586C52.1177 51.297 52.111 51.3649 51.6779 51.5794C51.3 51.7662 51.2136 52.0422 51.2136 53.0683C51.2136 54.2088 51.1659 54.3282 50.7114 54.3282C49.9157 54.3282 49.2664 55.6681 49.5273 56.7733C49.9414 58.5275 51.8684 60.7281 53.9719 61.8478C54.661 62.2146 54.8282 62.3999 54.6353 62.5838C54.3639 62.8423 55.5197 63.8524 59.2587 66.624C60.8537 67.8063 62.7293 69.7361 62.7293 70.1951C62.7293 70.3906 63.4674 71.6665 64.4052 73.0909C64.769 73.6444 65.6259 74.5613 66.3089 75.1285C68.9355 77.3096 71.1277 79.584 71.7984 80.824C72.4006 81.9359 72.4006 81.9393 71.7617 81.7787C70.5587 81.4765 72.5151 84.1802 74.36 85.3707C77.5838 87.451 79.5372 89.2916 78.7691 89.5249C78.4309 89.6278 78.4309 89.6976 78.7691 90.2153C78.9761 90.5321 79.1451 90.8896 79.1451 91.0095C79.1451 91.2709 80.7451 93.2023 82.8393 95.4679C84.3952 97.1513 86.0735 99.2951 86.789 100.513C90.1628 106.259 90.9744 108.858 90.9995 114C91.0216 118.439 90.3129 121.578 88.6125 124.583C88.3365 125.07 83.0866 129.567 82.8046 129.84C82.8075 129.84 82.8103 129.839 82.8129 129.839Z" fill="white"/>
<path d="M30.0142 46.6591C30.0142 45.3677 32.362 43.4892 34.2725 43.2515C38.6925 42.7019 40.8836 45.3415 37.1998 46.778C35.4094 47.4761 30.0142 47.3868 30.0142 46.6591Z" fill="#FCF2F7"/>
<ellipse cx="34.5471" cy="45.215" rx="1.71509" ry="1.35839" fill="#EA83AA"/>
<ellipse cx="35.2825" cy="44.6326" rx="0.490026" ry="0.38811" fill="white"/>
<path d="M11.0332 46.3666C8.80292 46.371 7.74814 44.1068 9.3395 42.73C10.6571 41.5894 12.6466 42.3865 13.5513 44.4173C14.3059 46.1109 13.9837 46.3603 11.0332 46.3666Z" fill="#FCF2F7"/>
<ellipse cx="11.2708" cy="44.6327" rx="1.71509" ry="1.35839" fill="#EA83AA"/>
<ellipse cx="12.0052" cy="44.0502" rx="0.490026" ry="0.38811" fill="white"/>
</svg>
