<svg width="127" height="184" viewBox="0 0 127 184" fill="none" xmlns="http://www.w3.org/2000/svg">
<path d="M115.574 183.77C115.584 183.763 115.596 183.753 115.611 183.741C115.682 183.751 115.668 183.761 115.574 183.77C115.54 183.796 115.538 183.796 115.562 183.771C112.102 184.096 13.5945 184.078 13.8534 183.741C13.968 183.592 14.2005 182.786 14.3706 181.95C14.7014 180.317 14.9981 179.963 16.5924 179.294C18.7244 178.399 20.1041 178.21 23.079 178.404L25.9949 178.594L25.806 175.604C25.5239 171.136 24.9716 166.949 24.5878 166.373C24.3254 165.979 24.4297 165.689 25.046 165.101C26.3377 163.867 26.9583 162.058 26.2351 161.633C25.7752 161.363 25.6538 160.85 25.6538 159.184C25.6538 155.966 24.9588 155.379 19.9955 154.411C16.5436 153.738 14.7108 152.984 13.385 151.693L12.3343 150.668L12.3531 145.741C12.3643 143.03 12.513 140.614 12.6848 140.371C13.2542 139.565 16.836 130.621 17.3164 128.805C18.1585 125.624 17.7285 124.26 14.8784 121.073C13.2952 119.304 12.3266 117.622 12.0839 116.225C11.9522 115.468 11.7308 115.089 11.4692 115.17C10.3289 115.521 10.1964 114.915 10.0083 108.493L9.82108 102.118L9.01409 101.871C8.2148 101.628 8.22506 101.606 10.1818 99.4859C12.6754 96.7853 13.379 95.263 12.4976 94.4802C11.9044 93.9542 11.9189 93.8945 12.925 92.6516C13.9509 91.3848 14.0483 90.4571 13.1242 90.7414C12.7678 90.8513 12.7053 90.7167 12.8686 90.1927C13.0276 89.6839 12.8746 89.318 12.2959 88.8236C11.8616 88.4521 11.4641 87.9337 11.4128 87.6714C10.9042 85.0964 10.4767 83.8708 9.85185 83.191C9.05769 82.3292 8.21479 82.1274 8.21479 82.7996C8.21479 83.0262 8.0994 83.2075 7.95835 83.2027C7.60957 83.191 5.82121 80.7959 5.82121 80.34C5.82121 80.1388 5.60664 79.9081 5.34335 79.8271C5.06466 79.7413 4.76802 79.0718 4.63125 78.2183C4.50216 77.4149 4.17305 76.0443 3.90121 75.173C3.18912 72.8954 3.77554 69.7615 5.44763 66.916C5.81778 66.2864 6.20932 65.3381 6.31874 64.8094C6.42816 64.2807 7.01544 63.3894 7.62239 62.8284C9.74499 60.8701 12.3839 56.1521 13.5055 52.3124C13.8141 51.2549 14.2116 50.01 14.3894 49.5465C14.5664 49.0824 14.7117 48.5646 14.7117 48.3957C14.7117 48.1135 10.2784 42.6739 8.89954 41.2649C8.57042 40.9284 7.96262 39.9396 7.54887 39.0676C7.13427 38.1948 6.42047 36.8627 5.96141 36.1074C5.50235 35.3521 5.12878 34.6421 5.1322 34.5295C5.13477 34.4169 4.59876 33.3876 3.94052 32.243C3.28229 31.0983 2.74373 29.9839 2.74373 29.7662C2.74373 29.5486 2.60611 29.1565 2.43856 28.8942C1.64696 27.6589 1.20157 25.3531 0.327914 17.9799C-1.37581 3.60488 3.59944 1.64862 14.3193 12.4798C16.1171 14.296 18.2696 16.4006 19.1014 17.1559C23.1679 20.8473 28.6125 29.7662 30.335 35.5581C30.4248 35.8602 30.6231 36.3546 30.7752 36.6567C30.9274 36.9589 31.3121 37.7932 31.6301 38.5107L32.2071 39.8153L34.1451 39.8208C35.2111 39.8236 37.6218 40.0206 39.5024 40.2582C45.8446 41.0595 45.2761 41.0788 45.7292 40.044C46.3071 38.7242 46.7679 36.2351 47.0175 33.0862C47.2312 30.3938 47.715 28.3998 48.2792 27.8814C48.4357 27.7379 48.5639 27.4138 48.5639 27.1611C48.5639 25.5921 55.2001 15.5986 57.4877 13.7227C57.7638 13.4961 58.3597 12.8781 58.811 12.3494C59.7616 11.237 71.8758 1.30323 73.2555 0.50397C74.937 -0.469012 77.4229 0.027435 78.1102 1.47283C78.8189 2.96217 78.8514 10.8985 78.1641 14.272C76.8596 20.6702 76.2569 24.0272 75.8961 26.9063C75.5371 29.7683 75.1661 31.191 74.1437 33.6355C73.3564 35.5162 71.8065 38.4386 71.303 38.9914C71.097 39.218 70.4841 40.0831 69.9404 40.914C68.8863 42.5262 67.8494 43.8762 64.4078 48.1128C62.0552 51.0091 61.9441 51.3147 62.84 52.4085C63.1691 52.8102 63.6264 53.3856 63.8572 53.687C64.6565 54.7335 66.4235 57.822 67.9417 60.8268C68.7812 62.4885 69.984 64.7132 70.6149 65.7707C71.4432 67.1611 71.7612 68.0737 71.7604 69.0666C71.7604 69.8219 71.9869 70.9439 72.2647 71.5591C72.7357 72.6042 72.7263 72.7004 72.122 73.0039C71.5945 73.2682 71.474 73.6589 71.474 75.1112C71.474 76.7255 71.4073 76.8944 70.773 76.8944C69.6626 76.8944 68.7564 78.7909 69.1206 80.3551C69.6985 82.838 72.3878 85.9527 75.3234 87.5375C76.2851 88.0566 76.5185 88.3189 76.2492 88.5791C75.8705 88.9451 77.4836 90.3747 82.7016 94.2975C84.9277 95.9709 87.5452 98.7024 87.5452 99.352C87.5452 99.6287 88.5753 101.435 89.8841 103.451C90.3919 104.234 91.5878 105.532 92.541 106.335C96.2066 109.422 99.2662 112.641 100.202 114.396C101.043 115.97 101.043 115.974 100.151 115.747C98.472 115.319 101.202 119.146 103.777 120.831C108.276 123.775 111.002 126.381 109.93 126.711C109.459 126.856 109.459 126.955 109.93 127.688C110.219 128.136 110.455 128.642 110.455 128.812C110.455 129.182 112.688 131.916 115.611 135.122C117.782 137.505 120.125 140.539 121.123 142.263C125.832 150.395 126.964 154.074 126.999 161.352C127.03 167.635 126.041 172.078 123.668 176.331C123.283 177.021 115.956 183.386 115.562 183.771C115.566 183.771 115.57 183.771 115.574 183.77Z" fill="white"/>
<path d="M41.8877 66.0399C41.8877 64.212 45.1643 61.5533 47.8306 61.2169C53.9993 60.4389 57.0571 64.175 51.916 66.2081C49.4172 67.1962 41.8877 67.0699 41.8877 66.0399Z" fill="#FCF2F7"/>
<ellipse cx="48.2139" cy="63.9959" rx="2.39359" ry="1.92262" fill="#EA83AA"/>
<ellipse cx="49.2395" cy="63.1716" rx="0.683883" ry="0.54932" fill="white"/>
<path d="M15.3979 65.6259C12.2854 65.6321 10.8133 62.4275 13.0342 60.4788C14.873 58.8645 17.6496 59.9926 18.9122 62.8669C19.9654 65.264 19.5157 65.617 15.3979 65.6259Z" fill="#FCF2F7"/>
<ellipse cx="15.729" cy="63.1716" rx="2.39359" ry="1.92262" fill="#EA83AA"/>
<ellipse cx="16.7547" cy="62.3473" rx="0.683883" ry="0.54932" fill="white"/>
</svg>
