<svg width="180" height="193" viewBox="0 0 180 193" fill="none" xmlns="http://www.w3.org/2000/svg">
<path d="M78.6926 186.937C78.703 186.936 78.7163 186.935 78.7325 186.934C78.7757 186.976 78.7613 186.976 78.6926 186.937C78.6565 186.939 78.655 186.937 78.6842 186.932C76.1667 185.488 9.2048 137.78 9.55202 137.665C9.70553 137.614 10.2728 137.152 10.813 136.639C11.8667 135.635 12.2482 135.526 13.6716 135.822C15.5752 136.216 16.609 136.75 18.5333 138.328L20.4191 139.875L21.8085 137.653C23.8847 134.331 25.6343 131.08 25.6657 130.484C25.6874 130.076 25.9054 129.92 26.6231 129.799C28.1272 129.545 29.4675 128.556 29.1916 127.903C29.0159 127.488 29.1937 127.064 30.0396 125.876C31.6732 123.582 31.4984 122.828 28.6155 119.735C26.6103 117.584 25.7469 116.159 25.5011 114.596L25.3069 113.358L27.8207 109.855C29.204 107.928 30.5316 106.278 30.7718 106.188C31.568 105.889 38.5429 101.249 39.7914 100.187C41.9786 98.3277 42.3785 97.1476 42.0584 93.4964C41.8802 91.4686 42.0753 89.8012 42.6195 88.6877C42.9141 88.0846 42.9563 87.7068 42.7374 87.6379C41.7836 87.3363 42.0013 86.84 45.1333 82.1717L48.2418 77.5375L47.8183 76.9711C47.3987 76.4103 47.4168 76.3996 49.823 75.8363C52.8891 75.1189 54.1401 74.3745 53.9383 73.3899C53.8019 72.7277 53.8421 72.6922 55.157 72.2936C56.4975 71.8873 57.0346 71.2733 56.2621 71.0285C55.9639 70.9342 55.9898 70.8081 56.3668 70.5137C56.7331 70.228 56.8149 69.8931 56.6724 69.2605C56.5657 68.7855 56.5586 68.2236 56.6568 68.0118C57.6181 65.9303 57.9496 64.8498 57.8698 64.0627C57.7673 63.064 57.2967 62.512 56.9555 62.9911C56.8405 63.1526 56.67 63.2259 56.5766 63.1542C56.3454 62.977 56.3453 60.4041 56.5767 60.0792C56.6788 59.9358 56.65 59.6675 56.5122 59.4822C56.3663 59.2861 56.5044 58.6653 56.8447 57.9908C57.1647 57.3557 57.6366 56.2195 57.8941 55.4668C58.5661 53.4987 60.5555 51.5491 63.1366 50.3306C63.7079 50.0611 64.4554 49.5748 64.7981 49.2509C65.1409 48.9271 65.9926 48.5762 66.69 48.4702C69.1271 48.1022 73.3159 46.0173 76.0275 43.8236C76.774 43.2194 77.6762 42.5246 78.0323 42.2803C78.3882 42.0351 78.7498 41.7365 78.8356 41.6161C78.9788 41.415 78.7259 35.3915 78.5037 33.7196C78.4507 33.3205 78.5394 32.3215 78.7007 31.4996C78.8619 30.6768 79.0527 29.3818 79.124 28.6212C79.1953 27.8606 79.3018 27.1737 79.3612 27.0951C79.4201 27.0161 79.5782 26.0229 79.7117 24.8884C79.8452 23.7539 80.0447 22.6988 80.1552 22.5437C80.2657 22.3886 80.3712 22.0425 80.3904 21.7744C80.4792 20.5107 81.3468 18.6517 84.4954 12.9736C90.6338 1.90317 95.0092 2.91779 96.7994 15.8278C97.0997 17.9927 97.4948 20.5349 97.6769 21.476C98.5679 26.0759 97.7422 35.0688 95.9734 40.0309C95.8811 40.2897 95.765 40.738 95.715 41.0271C95.6651 41.3161 95.5032 42.0969 95.3552 42.7623L95.0853 43.9716L96.4 44.9138C97.1233 45.4319 98.6622 46.7395 99.8202 47.8195C103.725 51.4613 103.329 51.1998 104.162 50.6816C105.225 50.0208 106.802 48.4699 108.57 46.3463C110.082 44.5309 111.423 43.344 112.07 43.2476C112.249 43.2211 112.5 43.0522 112.629 42.8721C113.425 41.7538 123.009 37.8443 125.517 37.6149C125.82 37.5871 126.538 37.4351 127.114 37.2768C128.324 36.9443 141.603 35.7296 142.946 35.828C144.583 35.9486 146.021 37.5061 145.755 38.869C145.481 40.2737 141.475 45.9458 139.295 48.0174C135.16 51.946 133.047 54.0469 131.34 55.9242C129.643 57.7902 128.669 58.6246 126.733 59.8718C125.243 60.8311 122.706 62.1635 122.083 62.3137C121.828 62.3754 120.972 62.6953 120.181 63.0242C118.646 63.663 117.256 64.1231 112.765 65.4763C109.696 66.4015 109.465 66.5655 109.519 67.7788C109.539 68.2245 109.558 68.856 109.562 69.1826C109.574 70.3155 109.207 73.3723 108.714 76.249C108.442 77.8398 108.13 80.0078 108.022 81.0669C107.88 82.459 107.633 83.2634 107.128 83.9706C106.745 84.509 106.329 85.4183 106.206 85.9913C105.996 86.9643 105.94 87.0282 105.375 86.9519C104.883 86.8849 104.602 87.105 103.865 88.1401C103.046 89.2907 102.915 89.3788 102.484 89.0717C101.729 88.534 100.15 89.447 99.6035 90.7381C98.736 92.7876 98.9835 96.3096 100.175 98.8605C100.565 99.6961 100.591 99.9961 100.275 100.051C99.8323 100.129 100.203 101.929 101.76 107.251C102.424 109.521 102.817 112.736 102.487 113.199C102.347 113.396 102.13 115.182 101.997 117.252C101.944 118.056 102.099 119.56 102.339 120.594C103.264 124.569 103.71 128.345 103.456 130.049C103.228 131.578 103.226 131.581 102.735 130.987C101.811 129.869 101.725 133.919 102.62 136.367C104.184 140.643 104.715 143.82 103.819 143.536C103.424 143.412 103.374 143.482 103.323 144.233C103.291 144.692 103.195 145.167 103.109 145.288C102.921 145.552 103.052 148.581 103.411 152.282C103.678 155.031 103.73 158.328 103.534 160.041C102.607 168.116 101.51 171.286 97.8393 176.491C94.6711 180.984 91.7433 183.672 87.9715 185.554C87.3596 185.859 79.1476 186.848 78.6842 186.932C78.687 186.934 78.6899 186.935 78.6926 186.937Z" fill="white"/>
<path d="M88.3555 67.3497C89.2833 66.0469 92.8605 65.7385 94.844 66.7896C99.4327 69.2219 99.6152 73.3652 95.0879 72.3251C92.8876 71.8195 87.8327 68.0838 88.3555 67.3497Z" fill="#FCF2F7"/>
<ellipse cx="93.6939" cy="68.9559" rx="1.9978" ry="1.6823" transform="rotate(35.4577 93.6939 68.9559)" fill="#EA83AA"/>
<ellipse cx="94.8096" cy="68.8651" rx="0.5708" ry="0.480656" transform="rotate(35.4577 94.8096 68.8651)" fill="white"/>
<path d="M70.5561 54.2287C68.4369 52.7261 69.0628 49.7293 71.5618 49.4158C73.6313 49.1555 74.9463 51.3039 74.3458 53.9639C73.845 56.1823 73.3602 56.2161 70.5561 54.2287Z" fill="#FCF2F7"/>
<ellipse cx="72.0274" cy="52.6399" rx="1.9978" ry="1.6823" transform="rotate(35.4577 72.0274 52.6399)" fill="#EA83AA"/>
<ellipse cx="73.1431" cy="52.5491" rx="0.5708" ry="0.480656" transform="rotate(35.4577 73.1431 52.5491)" fill="white"/>
</svg>
