<svg width="189" height="219" viewBox="0 0 189 219" fill="none" xmlns="http://www.w3.org/2000/svg">
<path d="M177.848 173.795C177.854 173.784 177.862 173.77 177.871 173.753C177.94 173.735 177.931 173.749 177.848 173.795C177.827 173.832 177.825 173.832 177.838 173.8C174.775 175.443 83.9854 213.666 84.0931 213.254C84.1408 213.073 84.0422 212.239 83.8743 211.403C83.5453 209.769 83.6812 209.328 84.8908 208.092C86.5083 206.44 87.7066 205.731 90.5233 204.754L93.2844 203.798L91.9495 201.115C89.9551 197.107 87.821 193.463 87.2436 193.081C86.8488 192.82 86.8324 192.512 87.172 191.731C87.8837 190.093 87.7533 188.185 86.9218 188.074C86.3932 188.003 86.0822 187.578 85.4353 186.042C84.186 183.076 83.3178 182.805 78.3679 183.84C74.9255 184.56 72.9438 184.576 71.2205 183.901L69.8546 183.365L67.9592 178.816C66.9173 176.314 66.1164 174.03 66.1804 173.739C66.3922 172.775 66.2213 163.142 65.9591 161.282C65.5001 158.023 64.5745 156.934 60.7109 155.103C58.5649 154.087 57.0195 152.913 56.2534 151.72C55.8383 151.073 55.4869 150.809 55.2773 150.986C54.3628 151.752 54.0053 151.245 51.339 145.399L48.6918 139.597L47.8524 139.683C47.0212 139.769 47.0221 139.745 48.0026 137.032C49.2523 133.575 49.3097 131.899 48.1936 131.52C47.4427 131.265 47.4329 131.204 47.8777 129.668C48.3313 128.103 48.061 127.21 47.3197 127.831C47.0339 128.07 46.9241 127.97 46.8712 127.424C46.8202 126.894 46.5371 126.616 45.8119 126.385C45.2674 126.211 44.6999 125.888 44.5508 125.666C43.0825 123.49 42.2128 122.527 41.373 122.143C40.3066 121.657 39.4514 121.798 39.7124 122.417C39.8003 122.626 39.7644 122.838 39.6325 122.888C39.3066 123.013 36.7287 121.5 36.5517 121.08C36.4736 120.894 36.1863 120.765 35.9122 120.793C35.6221 120.822 35.0888 120.32 34.6314 119.586C34.2006 118.896 33.3653 117.761 32.7765 117.063C31.2361 115.241 30.56 112.125 30.9964 108.854C31.0931 108.13 31.0858 107.104 30.9814 106.574C30.877 106.044 31.0723 104.995 31.4139 104.242C32.6098 101.614 33.2103 96.2412 32.7534 92.2672C32.6273 91.1729 32.5104 89.8713 32.4944 89.3752C32.4772 88.8787 32.4102 88.3452 32.3446 88.1895C32.2351 87.9294 26.0379 84.6373 24.2202 83.874C23.7862 83.6917 22.8423 83.0164 22.1224 82.3734C21.4016 81.73 20.2266 80.7795 19.5104 80.2616C18.7941 79.7437 18.1742 79.2344 18.1337 79.1293C18.0923 79.0245 17.1988 78.284 16.1478 77.4847C15.0969 76.6853 14.168 75.8673 14.0835 75.6667C13.999 75.4661 13.7199 75.1582 13.4637 74.9816C12.2547 74.1504 10.9491 72.1984 7.28177 65.7425C0.131452 53.1561 3.95715 49.4219 18.0409 55.2424C20.4027 56.2183 23.2034 57.3223 24.2631 57.6955C29.4438 59.5189 37.9236 65.6248 41.7594 70.2938C41.9594 70.5374 42.3341 70.9161 42.5916 71.1354C42.8491 71.3548 43.5275 71.9743 44.0991 72.5121L45.1373 73.4905L46.9254 72.7433C47.9089 72.332 50.207 71.5778 52.0324 71.0667C58.1883 69.3432 57.6719 69.5816 57.6877 68.4521C57.708 67.0115 57.1664 64.5388 56.174 61.5398C55.3258 58.9756 54.9977 56.9502 55.3164 56.2534C55.4049 56.0604 55.3972 55.7119 55.2991 55.4791C54.6901 54.0331 56.9265 42.2472 58.3065 39.6304C58.473 39.3144 58.7822 38.5135 58.993 37.8511C59.4372 36.4569 66.7452 22.5996 67.7065 21.3274C68.8784 19.778 71.3621 19.2705 72.5566 20.3358C73.7878 21.4332 76.8985 28.7345 77.5747 32.1103C78.8562 38.5131 79.6039 41.8409 80.3891 44.6343C81.1692 47.4111 81.3796 48.8663 81.3863 51.516C81.3907 53.5549 81.0969 56.8497 80.8474 57.5546C80.7455 57.8434 80.5165 58.8786 80.338 59.8554C79.9925 61.7504 79.5609 63.397 78.0337 68.6374C76.99 72.2198 77.0062 72.5445 78.2564 73.2048C78.7156 73.4472 79.3605 73.8 79.6902 73.9882C80.8331 74.6423 83.6604 76.8027 86.226 78.9825C87.6447 80.188 89.6167 81.7714 90.6086 82.501C91.9118 83.4609 92.5591 84.1784 92.9437 85.0938C93.2369 85.7899 93.8813 86.7359 94.3761 87.1951C95.2159 87.9754 95.2446 88.0676 94.8054 88.5819C94.4219 89.0303 94.4625 89.4371 95.0263 90.7755C95.6529 92.2632 95.657 92.4448 95.0725 92.691C94.0491 93.1221 93.9502 95.2216 94.893 96.5218C96.3894 98.5857 100.077 100.412 103.398 100.733C104.485 100.838 104.802 100.989 104.655 101.334C104.448 101.818 106.49 102.509 112.821 104.099C115.522 104.777 118.995 106.278 119.247 106.877C119.355 107.132 121.005 108.396 122.994 109.746C123.766 110.271 125.372 111.003 126.562 111.372C131.138 112.794 135.207 114.573 136.751 115.827C138.137 116.952 138.139 116.956 137.229 117.093C135.515 117.35 139.517 119.817 142.544 120.37C147.833 121.337 151.357 122.68 150.497 123.4C150.119 123.718 150.157 123.809 150.877 124.301C151.317 124.602 151.731 124.977 151.797 125.133C151.94 125.474 155.059 127.127 158.998 128.947C161.924 130.3 165.26 132.187 166.85 133.389C174.346 139.055 176.817 142.005 179.675 148.699C182.142 154.478 182.956 158.956 182.419 163.796C182.332 164.582 178.051 173.292 177.838 173.8C177.841 173.798 177.845 173.796 177.848 173.795Z" fill="white"/>
<path d="M64.2387 93.9005C63.5291 92.216 65.5167 88.4938 67.8433 87.1487C73.2262 84.0372 77.4945 86.2933 73.5458 90.1627C71.6266 92.0433 64.6385 94.8497 64.2387 93.9005Z" fill="#FCF2F7"/>
<ellipse cx="69.2755" cy="89.5611" rx="2.39359" ry="1.92262" transform="rotate(-22.8418 69.2755 89.5611)" fill="#EA83AA"/>
<ellipse cx="69.9011" cy="88.4034" rx="0.683883" ry="0.54932" transform="rotate(-22.8418 69.9011 88.4034)" fill="white"/>
<path d="M39.6654 103.802C36.7993 105.016 34.1987 102.634 35.489 99.9763C36.557 97.7748 39.5537 97.7366 41.8331 99.8954C43.7342 101.696 43.4568 102.195 39.6654 103.802Z" fill="#FCF2F7"/>
<ellipse cx="39.0181" cy="101.412" rx="2.39359" ry="1.92262" transform="rotate(-22.8418 39.0181 101.412)" fill="#EA83AA"/>
<ellipse cx="39.6433" cy="100.254" rx="0.683883" ry="0.54932" transform="rotate(-22.8418 39.6433 100.254)" fill="white"/>
</svg>
