<svg width="101" height="213" viewBox="0 0 101 213" fill="none" xmlns="http://www.w3.org/2000/svg">
<path d="M-46.183 25.7277C-46.1893 25.7374 -46.1973 25.7498 -46.2069 25.7651C-46.2701 25.7707 -46.2608 25.7579 -46.183 25.7277C-46.161 25.6941 -46.1585 25.6941 -46.1734 25.724C-43.3027 24.6344 40.8134 2.92452 40.6799 3.3206C40.6208 3.49563 40.6315 4.35711 40.7034 5.23521C40.8448 6.94927 40.6835 7.37079 39.4959 8.39462C37.9077 9.7641 36.7786 10.2582 34.1882 10.7197L31.6491 11.1718L32.5867 14.1355C33.9876 18.5639 35.5461 22.6497 36.0234 23.1441C36.3498 23.4823 36.336 23.7966 35.9625 24.5239C35.1797 26.0483 35.1195 28.0036 35.8474 28.2713C36.3102 28.4411 36.547 28.9298 36.9797 30.6048C37.8152 33.8393 38.5609 34.2754 43.0502 34.1537C46.1723 34.0686 47.933 34.4221 49.4005 35.4278L50.5636 36.2257L51.8268 41.1821C52.5209 43.9085 53.0212 46.3698 52.9376 46.652C52.6608 47.5878 51.9244 57.3666 51.9857 59.298C52.0926 62.681 52.8138 63.9567 56.0747 66.5309C57.886 67.9602 59.1496 69.4366 59.7197 70.7875C60.0285 71.5189 60.3162 71.8517 60.5185 71.7126C61.4009 71.1077 61.6715 71.6879 63.4994 78.1011L65.3143 84.4668L66.0674 84.5366C66.8132 84.6053 66.8101 84.6296 65.6896 87.1916C64.2616 90.4559 64.0561 92.141 65.0118 92.7334C65.655 93.1311 65.6581 93.1944 65.1216 94.6654C64.5746 96.165 64.7322 97.1188 65.4475 96.6293C65.7233 96.4402 65.8116 96.5617 65.8082 97.1243C65.8045 97.6708 66.0302 98.0048 66.6527 98.3741C67.12 98.6516 67.594 99.085 67.7059 99.3373C68.8087 101.813 69.4919 102.951 70.2019 103.496C71.1037 104.187 71.8759 104.204 71.7013 103.528C71.6425 103.301 71.694 103.093 71.8157 103.067C72.1165 103.001 74.2653 105.014 74.3837 105.472C74.4359 105.675 74.679 105.859 74.9249 105.882C75.1851 105.907 75.6122 106.515 75.9506 107.342C76.2694 108.121 76.9063 109.426 77.3646 110.242C78.564 112.374 78.8769 115.653 78.1879 118.882C78.0353 119.596 77.9472 120.636 77.991 121.191C78.0348 121.747 77.7648 122.772 77.3922 123.47C76.0882 125.906 75.0598 131.23 75.099 135.337C75.1101 136.467 75.0939 137.806 75.0624 138.311C75.0318 138.817 75.0421 139.369 75.086 139.539C75.1592 139.823 80.3569 144.312 81.9001 145.424C82.2685 145.689 83.0441 146.549 83.6238 147.334C84.2044 148.12 85.1598 149.301 85.7478 149.959C86.3359 150.617 86.8392 151.248 86.8655 151.362C86.8926 151.476 87.6175 152.392 88.4767 153.398C89.3359 154.403 90.0851 155.404 90.1416 155.623C90.1981 155.842 90.4174 156.205 90.6286 156.432C91.6252 157.499 92.6041 159.718 95.2644 166.936C100.451 181.008 96.711 184.071 84.7456 175.55C82.7391 174.121 80.3547 172.48 79.4484 171.905C75.0178 169.092 68.0533 161.329 65.0788 155.887C64.9237 155.604 64.626 155.15 64.4176 154.88C64.2093 154.61 63.6642 153.857 63.2064 153.206L62.375 152.022L60.7188 152.444C59.8079 152.676 57.6983 153.01 56.0308 153.186C50.4074 153.779 50.8878 153.634 50.7696 154.774C50.6188 156.228 50.8716 158.832 51.476 162.051C51.9926 164.805 52.0971 166.915 51.75 167.561C51.6536 167.74 51.6283 168.094 51.6939 168.348C52.1012 169.925 49.0294 181.432 47.5631 183.822C47.3862 184.111 47.0379 184.863 46.7897 185.494C46.2669 186.822 38.5021 199.478 37.5315 200.586C36.3484 201.934 34.0969 201.984 33.1347 200.683C32.143 199.342 30.0548 191.373 29.7658 187.831C29.2185 181.112 28.8616 177.606 28.4221 174.632C27.9856 171.677 27.9331 170.165 28.1714 167.483C28.3554 165.419 28.92 162.14 29.2064 161.473C29.3235 161.2 29.6223 160.195 29.8708 159.24C30.3522 157.387 30.8871 155.802 32.7259 150.785C33.9827 147.355 33.9982 147.023 32.9493 146.122C32.564 145.79 32.0241 145.313 31.7487 145.061C30.7946 144.185 28.484 141.471 26.4075 138.786C25.2593 137.301 23.6547 135.33 22.8415 134.407C21.7732 133.192 21.2647 132.345 21.0077 131.347C20.8116 130.588 20.3268 129.51 19.9299 128.953C19.2564 128.006 19.2394 127.908 19.6767 127.469C20.0584 127.087 20.0599 126.668 19.6829 125.209C19.2638 123.586 19.2768 123.402 19.8184 123.262C20.7666 123.017 21.048 120.911 20.3309 119.419C19.1929 117.051 16.0879 114.514 13.1699 113.569C12.2139 113.259 11.9465 113.047 12.1089 112.726C12.3372 112.274 10.5887 111.193 5.11478 108.402C2.77961 107.211 -0.164588 105.043 -0.333233 104.39C-0.405076 104.112 -1.75349 102.524 -3.39442 100.787C-4.0314 100.111 -5.3895 99.0708 -6.41177 98.4743C-10.3432 96.18 -13.7913 93.6196 -15.0463 92.0621C-16.1724 90.6657 -16.1736 90.6609 -15.3533 90.6926C-13.8087 90.7523 -17.1335 87.5085 -19.7696 86.3828C-24.3756 84.416 -27.3797 82.399 -26.5501 81.8306C-26.185 81.5802 -26.2106 81.4808 -26.8038 80.8485C-27.1669 80.4616 -27.4998 80.005 -27.5438 79.8346C-27.6399 79.4626 -30.2561 77.2078 -33.5843 74.6296C-36.0569 72.7138 -38.8447 70.1808 -40.1449 68.6682C-46.2766 61.5336 -48.1987 58.0865 -50.1183 50.779C-51.7758 44.4712 -52.0848 39.7873 -51.1626 34.99C-51.0128 34.2118 -46.4092 26.1986 -46.1734 25.724C-46.1767 25.7252 -46.1799 25.7265 -46.183 25.7277Z" fill="white"/>
<path d="M47.3007 127.8C47.7752 129.637 45.6677 133.032 43.4784 133.958C38.4132 136.101 34.8323 133.02 38.6942 129.843C40.5713 128.299 47.0333 126.765 47.3007 127.8Z" fill="#FCF2F7"/>
<ellipse cx="42.4297" cy="131.25" rx="2.11088" ry="1.99576" transform="rotate(165.516 42.4297 131.25)" fill="#EA83AA"/>
<ellipse cx="41.7676" cy="132.304" rx="0.603109" ry="0.570217" transform="rotate(165.516 41.7676 132.304)" fill="white"/>
<path d="M70.0269 122.373C72.683 121.68 74.7719 124.576 73.3815 127.025C72.2305 129.053 69.5668 128.531 67.7425 125.921C66.2209 123.744 66.5132 123.29 70.0269 122.373Z" fill="#FCF2F7"/>
<ellipse cx="70.3809" cy="124.913" rx="2.11088" ry="1.99576" transform="rotate(165.516 70.3809 124.913)" fill="#EA83AA"/>
<ellipse cx="69.7192" cy="125.968" rx="0.603109" ry="0.570217" transform="rotate(165.516 69.7192 125.968)" fill="white"/>
</svg>
