<svg width="125" height="160" viewBox="0 0 125 160" fill="none" xmlns="http://www.w3.org/2000/svg">
<path d="M114.554 160.815C114.561 160.807 114.57 160.798 114.581 160.786C114.641 160.788 114.631 160.798 114.554 160.815C114.529 160.841 114.526 160.841 114.544 160.817C111.709 161.436 30.049 171.007 30.2293 170.689C30.309 170.548 30.4195 169.825 30.4752 169.081C30.5829 167.63 30.7926 167.293 32.046 166.557C33.722 165.572 34.8465 165.274 37.3323 165.152L39.7689 165.034L39.3072 162.454C38.6175 158.598 37.7326 155.014 37.3557 154.55C37.0979 154.233 37.1548 153.971 37.6057 153.4C38.5506 152.203 38.8805 150.57 38.2376 150.271C37.8288 150.081 37.6759 149.647 37.5059 148.199C37.1775 145.402 36.5416 144.96 32.3285 144.602C29.3984 144.353 27.8022 143.876 26.5713 142.883L25.5959 142.095L25.1088 137.811C24.8415 135.454 24.7183 133.34 24.8359 133.112C25.2256 132.356 27.2823 124.235 27.4953 122.61C27.8688 119.764 27.3732 118.62 24.6855 116.128C23.1926 114.745 22.2181 113.378 21.8743 112.187C21.688 111.542 21.4657 111.234 21.2571 111.329C20.3477 111.746 20.176 111.232 19.3649 105.669L18.5593 100.147L17.8653 100.012C17.1778 99.8776 17.1841 99.8575 18.5899 97.825C20.3814 95.2354 20.8093 93.844 19.9989 93.2495C19.4534 92.8502 19.4594 92.7969 20.1667 91.6189C20.8878 90.4181 20.8739 89.6024 20.1369 89.9394C19.8526 90.0696 19.7871 89.9587 19.869 89.4875C19.9489 89.0299 19.7847 88.7267 19.2546 88.3534C18.8567 88.0728 18.4743 87.661 18.405 87.438C17.7207 85.2498 17.2413 84.2262 16.6539 83.6963C15.9077 83.0247 15.1884 82.9313 15.257 83.5155C15.2801 83.7124 15.2029 83.8812 15.0855 83.8907C14.7952 83.9145 13.0684 82.0072 13.0219 81.6109C13.0013 81.4361 12.7999 81.2565 12.5734 81.2117C12.3336 81.1642 12.0194 80.6113 11.819 79.8829C11.63 79.1973 11.2174 78.0382 10.9031 77.3075C10.0805 75.3974 10.2469 72.6169 11.3427 69.9814C11.5853 69.3982 11.8131 68.536 11.8498 68.0659C11.8866 67.5957 12.2825 66.764 12.7284 66.2175C14.2882 64.309 15.9944 59.9521 16.5324 56.5061C16.6803 55.5571 16.8828 54.4366 16.9829 54.0165C17.0823 53.5959 17.1499 53.1318 17.1327 52.985C17.1039 52.7398 12.8739 48.444 11.5872 47.3537C11.28 47.0933 10.6753 46.2932 10.2434 45.5756C9.81064 44.8575 9.08303 43.7693 8.62544 43.1576C8.16784 42.5459 7.78574 41.9652 7.77708 41.8671C7.76772 41.7689 7.21839 40.9266 6.55596 39.9959C5.89354 39.0653 5.33341 38.1492 5.3112 37.96C5.28899 37.7709 5.13491 37.4435 4.96926 37.2319C4.18704 36.2354 3.5826 34.275 2.10615 27.9524C-0.772709 15.6258 3.15196 13.4416 13.1432 21.8111C14.8188 23.2144 16.8178 24.8339 17.5844 25.4094C21.332 28.2216 26.7552 35.4426 28.774 40.3083C28.8792 40.5621 29.094 40.9725 29.251 41.2202C29.4079 41.468 29.8119 42.1556 30.1488 42.7482L30.7602 43.8258L32.3672 43.642C33.2512 43.5406 35.2696 43.4773 36.8529 43.5008C42.192 43.5799 41.7227 43.652 41.9927 42.7086C42.3371 41.5055 42.4651 39.2975 42.3508 36.5367C42.2532 34.1761 42.4509 32.3961 42.8657 31.8907C42.9807 31.7508 43.054 31.4566 43.0282 31.2371C42.8681 29.8735 47.3497 20.543 49.0546 18.6902C49.2604 18.4664 49.6913 17.8713 50.0115 17.3679C50.686 16.3087 59.7146 6.49707 60.7768 5.66822C62.0714 4.65902 64.1828 4.84854 64.9 6.03775C65.6394 7.26308 66.476 14.1568 66.2504 17.1554C65.8218 22.8426 65.6647 25.8187 65.6593 28.3558C65.6537 30.8779 65.4913 32.1504 64.8932 34.3742C64.4324 36.0853 63.4458 38.7758 63.0848 39.3051C62.9371 39.5221 62.5173 40.3336 62.1514 41.1086C61.4421 42.6122 60.7203 43.8863 58.2995 47.903C56.6448 50.6489 56.5839 50.9253 57.4381 51.7887C57.7519 52.1057 58.1898 52.5613 58.4118 52.8008C59.1812 53.6324 60.961 56.1445 62.5261 58.608C63.3915 59.9704 64.6155 61.7867 65.2464 62.6443C66.0749 63.772 66.4316 64.5341 66.5322 65.3971C66.6093 66.0535 66.9115 67.0065 67.2046 67.5141C67.7017 68.3765 67.7037 68.4609 67.2336 68.7835C66.8234 69.0646 66.7633 69.4158 66.9115 70.6779C67.0762 72.0808 67.0381 72.2341 66.5123 72.2958C65.5918 72.4039 65.0341 74.1402 65.4956 75.4641C66.228 77.5656 68.7751 80.0106 71.3702 81.1022C72.2204 81.4597 72.4406 81.6649 72.2439 81.9173C71.9673 82.2722 73.4504 83.3576 78.1761 86.2589C80.1921 87.4965 82.6406 89.6155 82.7069 90.18C82.7351 90.4205 83.7732 91.8896 85.0638 93.5142C85.5647 94.1457 86.6885 95.1571 87.5605 95.7619C90.9141 98.0881 93.7787 100.588 94.7337 102.022C95.5908 103.308 95.5913 103.312 94.829 103.201C93.3936 102.993 96.0474 106.053 98.3537 107.266C102.384 109.387 104.909 111.386 104.054 111.777C103.678 111.95 103.688 112.036 104.154 112.627C104.439 112.988 104.686 113.405 104.704 113.552C104.742 113.874 106.871 116.032 109.621 118.534C111.664 120.394 113.916 122.803 114.919 124.204C119.652 130.813 120.966 133.899 121.738 140.221C122.404 145.678 122.038 149.636 120.504 153.562C120.255 154.199 114.831 160.443 114.544 160.817C114.548 160.816 114.551 160.816 114.554 160.815Z" fill="white"/>
<path d="M41.4608 65.6738C41.2743 64.0853 43.7192 61.456 45.8951 60.9041C50.9293 59.6277 53.8452 62.5769 49.7909 64.8441C47.8204 65.946 41.5658 66.5689 41.4608 65.6738Z" fill="#FCF2F7"/>
<ellipse cx="46.4958" cy="63.2819" rx="1.9978" ry="1.6823" transform="rotate(-6.69562 46.4958 63.2819)" fill="#EA83AA"/>
<ellipse cx="47.2621" cy="62.4658" rx="0.5708" ry="0.480656" transform="rotate(-6.69562 47.2621 62.4658)" fill="white"/>
<path d="M19.4593 67.8919C16.8798 68.2002 15.3326 65.5585 16.9748 63.6489C18.3344 62.0671 20.7511 62.7773 22.091 65.1523C23.2086 67.133 22.8719 67.4834 19.4593 67.8919Z" fill="#FCF2F7"/>
<ellipse cx="19.4835" cy="65.7268" rx="1.9978" ry="1.6823" transform="rotate(-6.69562 19.4835 65.7268)" fill="#EA83AA"/>
<ellipse cx="20.2499" cy="64.9106" rx="0.5708" ry="0.480656" transform="rotate(-6.69562 20.2499 64.9106)" fill="white"/>
</svg>
