<svg width="189" height="258" viewBox="0 0 189 258" fill="none" xmlns="http://www.w3.org/2000/svg">
<path d="M86.9226 184.988C86.7961 182.262 86.7157 179.602 86.6771 177.009L86.6591 175.496C86.4241 148.665 93.12 111.994 96.8625 102.768C96.9963 102.438 97.3868 102.273 97.7348 102.4C98.0827 102.527 98.2563 102.897 98.1225 103.227C94.4057 112.39 87.6545 149.312 88.0218 176.632C88.0533 178.969 88.1188 181.362 88.2217 183.81L88.2886 185.299C89.2466 205.332 92.7064 228.933 100.41 255.189C100.51 255.529 100.3 255.882 99.9408 255.977C99.5816 256.072 99.2095 255.872 99.1096 255.532C91.3305 229.019 87.8602 205.194 86.9226 184.988Z" fill="#279B61" stroke="#279B61" stroke-width="4" stroke-linecap="round"/>
<path d="M82.4225 177.765C77.008 182.43 86.1754 195.968 89.1907 202.15L88.5042 202.592C76.8604 189.344 68.3221 190.648 65.502 190.488C50.6119 189.64 48.2055 184.48 48.5815 182.536C50.8376 175.645 63.2459 180.769 68.8861 184.657C61.6667 173.631 54.5977 169.814 51.9656 169.284C45.3854 167.87 33.1274 163.665 36.7371 158.152C40.3468 152.639 50.6495 158.682 55.3497 162.392C55.954 157.445 49.1455 147.839 41.8133 145.959C29.4049 142.779 28.4245 140.482 29.4049 138.538C31.6609 132.601 43.8813 136.771 49.7095 139.598C41.0612 133.767 29.9689 121.575 37.3011 117.334C45.6901 112.482 52.7176 129.526 53.6576 138.008C54.5977 132.177 57.9442 120.939 63.81 122.635C71.1422 124.755 62.6819 132.707 58.7338 141.188C55.5753 147.974 57.7938 155.324 59.2978 158.152C60.6515 147.974 66.066 145.429 67.7581 145.429C76.2184 145.429 72.2702 152.851 68.8861 163.453C66.1788 171.934 72.2703 180.416 75.6544 183.597C74.752 166.209 83.5506 157.436 88.6269 158.152C99.9071 159.742 89.1907 171.934 82.4225 177.765Z" fill="#279B61"/>
<path d="M94.0536 185.627C98.9189 189.819 90.6814 201.984 87.972 207.538L88.5889 207.936C99.0514 196.032 106.724 197.203 109.258 197.059C122.637 196.297 124.799 191.661 124.461 189.914C122.434 183.722 111.285 188.326 106.217 191.819C112.704 181.912 119.056 178.482 121.421 178.006C127.333 176.736 138.348 172.957 135.104 168.003C131.861 163.05 122.603 168.48 118.38 171.814C117.837 167.368 123.955 158.737 130.543 157.048C141.693 154.19 142.574 152.126 141.693 150.379C139.665 145.045 128.685 148.792 123.448 151.332C131.219 146.092 141.186 135.137 134.597 131.326C127.06 126.967 120.745 142.282 119.9 149.903C119.056 144.663 116.049 134.565 110.778 136.09C104.19 137.995 111.792 145.14 115.339 152.761C118.177 158.858 116.184 165.463 114.832 168.003C113.616 158.858 108.751 156.572 107.23 156.572C99.6284 156.571 103.176 163.24 106.217 172.766C108.649 180.388 103.176 188.009 100.135 190.867C100.946 175.243 93.04 167.36 88.4787 168.003C78.3428 169.432 87.972 180.388 94.0536 185.627Z" fill="#279B61"/>
<path d="M66.9187 3.75239C17.5443 30.3473 62.8042 94.3576 91.6059 123.038C169.782 114.239 193.441 70.2396 188.297 54.5956C184.183 42.0803 167.382 40.907 159.496 41.8848C155.381 9.81443 130.351 14.1818 118.35 20.3742C99.4235 -2.30969 76.1764 -0.158628 66.9187 3.75239Z" fill="#CDCDCD"/>
<path d="M81.3192 32.1076C105.184 28.1966 118.007 48.7295 121.436 59.4848C139.54 44.6229 150.238 49.7072 154.352 56.5515C170.811 89.7952 113.893 109.024 84.4051 110.328C55.6034 90.7729 51.4888 36.9964 81.3192 32.1076Z" fill="white"/>
<path fill-rule="evenodd" clip-rule="evenodd" d="M83.3764 42.8623C83.9445 42.8623 84.4051 43.3001 84.4051 43.8401V51.6621C84.4051 52.2021 83.9445 52.6398 83.3764 52.6398C82.8083 52.6398 82.3478 52.2021 82.3478 51.6621V43.8401C82.3478 43.3001 82.8083 42.8623 83.3764 42.8623ZM94.6914 49.7066C95.2595 49.7066 95.72 50.1443 95.72 50.6843V59.4841C95.72 60.0241 95.2595 60.4619 94.6914 60.4619C94.1233 60.4619 93.6628 60.0241 93.6628 59.4841V50.6843C93.6628 50.1443 94.1233 49.7066 94.6914 49.7066ZM73.8362 53.6552C74.3824 53.5069 74.9517 53.8075 75.1078 54.3267L77.1651 61.171C77.3211 61.6902 77.0048 62.2314 76.4586 62.3798C75.9124 62.5281 75.343 62.2275 75.187 61.7082L73.1297 54.864C72.9736 54.3447 73.2899 53.8036 73.8362 53.6552ZM138.404 58.6352C138.898 58.9031 139.069 59.5004 138.787 59.9692L134.673 66.8135C134.391 67.2824 133.762 67.4452 133.269 67.1773C132.776 66.9094 132.605 66.3121 132.886 65.8433L137.001 58.999C137.283 58.5302 137.911 58.3673 138.404 58.6352ZM86.4623 58.5064C87.0304 58.5064 87.491 58.9441 87.491 59.4841V66.3284C87.491 66.8684 87.0304 67.3062 86.4623 67.3062C85.8942 67.3062 85.4337 66.8684 85.4337 66.3284V59.4841C85.4337 58.9441 85.8942 58.5064 86.4623 58.5064ZM108.469 62.4964C108.991 62.7092 109.233 63.284 109.009 63.7803L105.923 70.6246C105.699 71.1209 105.095 71.3508 104.573 71.1381C104.05 70.9254 103.809 70.3506 104.032 69.8543L107.118 63.01C107.342 62.5136 107.947 62.2837 108.469 62.4964ZM115.646 70.3093C116.174 70.5099 116.43 71.0789 116.219 71.5803L114.162 76.4691C113.951 76.9704 113.352 77.2143 112.825 77.0138C112.297 76.8132 112.041 76.2442 112.252 75.7428L114.309 70.854C114.52 70.3527 115.119 70.1088 115.646 70.3093ZM130.125 72.2981C130.633 72.5396 130.839 73.127 130.585 73.6099L126.47 81.432C126.216 81.915 125.599 82.1107 125.09 81.8692C124.582 81.6277 124.376 81.0404 124.63 80.5574L128.745 72.7354C128.999 72.2524 129.617 72.0567 130.125 72.2981ZM79.1483 74.1564C79.7129 74.0968 80.2215 74.4835 80.2843 75.0202L81.3129 83.82C81.3756 84.3567 80.9688 84.8401 80.4041 84.8997C79.8395 84.9594 79.3309 84.5726 79.2682 84.0359L78.2396 75.2362C78.1768 74.6995 78.5837 74.216 79.1483 74.1564ZM88.5196 74.1504C89.0877 74.1504 89.5482 74.5882 89.5482 75.1282V84.9057C89.5482 85.4457 89.0877 85.8835 88.5196 85.8835C87.9515 85.8835 87.491 85.4457 87.491 84.9057V75.1282C87.491 74.5882 87.9515 74.1504 88.5196 74.1504ZM99.8346 80.017C100.403 80.017 100.863 80.4547 100.863 80.9947V89.7945C100.863 90.3345 100.403 90.7722 99.8346 90.7722C99.2665 90.7722 98.8059 90.3345 98.8059 89.7945V80.9947C98.8059 80.4547 99.2665 80.017 99.8346 80.017ZM135.268 82.0757C135.776 82.3172 135.982 82.9045 135.728 83.3875L133.671 87.2985C133.417 87.7815 132.799 87.9773 132.291 87.7358C131.783 87.4943 131.577 86.907 131.831 86.424L133.888 82.513C134.142 82.03 134.76 81.8342 135.268 82.0757ZM122.006 86.0477C122.479 86.3472 122.607 86.9543 122.292 87.4036L118.177 93.2701C117.862 93.7194 117.223 93.8408 116.751 93.5413C116.278 93.2418 116.15 92.6347 116.465 92.1854L120.58 86.3189C120.895 85.8696 121.534 85.7482 122.006 86.0477ZM128.285 90.0364C128.713 90.392 128.756 91.0097 128.382 91.4161L121.181 99.2381C120.807 99.6445 120.157 99.6857 119.73 99.3301C119.302 98.9745 119.259 98.3568 119.633 97.9504L126.834 90.1284C127.208 89.722 127.858 89.6808 128.285 90.0364Z" fill="#CDCDCD"/>
<path d="M98.1812 101.87C82.546 91.7012 66.6364 86.5517 61.1504 85.248L75.5513 106.759L93.038 124.358L114.639 120.447L133.155 114.581C127.394 106.759 107.439 102.848 98.1812 101.87Z" fill="#9B9B9B"/>
<g style="mix-blend-mode:multiply">
<path d="M66.9187 3.75239C17.5443 30.3473 62.8042 94.3576 91.6059 123.038C169.782 114.239 193.441 70.2396 188.297 54.5956C184.183 42.0803 167.382 40.907 159.496 41.8848C155.381 9.81443 130.351 14.1818 118.35 20.3742C99.4235 -2.30969 76.1764 -0.158628 66.9187 3.75239Z" fill="#FD5936"/>
<path d="M81.3192 32.1076C105.184 28.1966 118.007 48.7295 121.436 59.4848C139.54 44.6229 150.238 49.7072 154.352 56.5515C170.811 89.7952 113.893 109.024 84.4051 110.328C55.6034 90.7729 51.4888 36.9964 81.3192 32.1076Z" fill="#FD5936"/>
<path fill-rule="evenodd" clip-rule="evenodd" d="M83.3764 42.8623C83.9445 42.8623 84.4051 43.3001 84.4051 43.8401V51.6621C84.4051 52.2021 83.9445 52.6398 83.3764 52.6398C82.8083 52.6398 82.3478 52.2021 82.3478 51.6621V43.8401C82.3478 43.3001 82.8083 42.8623 83.3764 42.8623ZM94.6914 49.7066C95.2595 49.7066 95.72 50.1443 95.72 50.6843V59.4841C95.72 60.0241 95.2595 60.4619 94.6914 60.4619C94.1233 60.4619 93.6628 60.0241 93.6628 59.4841V50.6843C93.6628 50.1443 94.1233 49.7066 94.6914 49.7066ZM73.8362 53.6552C74.3824 53.5069 74.9517 53.8075 75.1078 54.3267L77.1651 61.171C77.3211 61.6902 77.0048 62.2314 76.4586 62.3798C75.9124 62.5281 75.343 62.2275 75.187 61.7082L73.1297 54.864C72.9736 54.3447 73.2899 53.8036 73.8362 53.6552ZM138.404 58.6352C138.898 58.9031 139.069 59.5004 138.787 59.9692L134.673 66.8135C134.391 67.2824 133.762 67.4452 133.269 67.1773C132.776 66.9094 132.605 66.3121 132.886 65.8433L137.001 58.999C137.283 58.5302 137.911 58.3673 138.404 58.6352ZM86.4623 58.5064C87.0304 58.5064 87.491 58.9441 87.491 59.4841V66.3284C87.491 66.8684 87.0304 67.3062 86.4623 67.3062C85.8942 67.3062 85.4337 66.8684 85.4337 66.3284V59.4841C85.4337 58.9441 85.8942 58.5064 86.4623 58.5064ZM108.469 62.4964C108.991 62.7092 109.233 63.284 109.009 63.7803L105.923 70.6246C105.699 71.1209 105.095 71.3508 104.573 71.1381C104.05 70.9254 103.809 70.3506 104.032 69.8543L107.118 63.01C107.342 62.5136 107.947 62.2837 108.469 62.4964ZM115.646 70.3093C116.174 70.5099 116.43 71.0789 116.219 71.5803L114.162 76.4691C113.951 76.9704 113.352 77.2143 112.825 77.0138C112.297 76.8132 112.041 76.2442 112.252 75.7428L114.309 70.854C114.52 70.3527 115.119 70.1088 115.646 70.3093ZM130.125 72.2981C130.633 72.5396 130.839 73.127 130.585 73.6099L126.47 81.432C126.216 81.915 125.599 82.1107 125.09 81.8692C124.582 81.6277 124.376 81.0404 124.63 80.5574L128.745 72.7354C128.999 72.2524 129.617 72.0567 130.125 72.2981ZM79.1483 74.1564C79.7129 74.0968 80.2215 74.4835 80.2843 75.0202L81.3129 83.82C81.3756 84.3567 80.9688 84.8401 80.4041 84.8997C79.8395 84.9594 79.3309 84.5726 79.2682 84.0359L78.2396 75.2362C78.1768 74.6995 78.5837 74.216 79.1483 74.1564ZM88.5196 74.1504C89.0877 74.1504 89.5482 74.5882 89.5482 75.1282V84.9057C89.5482 85.4457 89.0877 85.8835 88.5196 85.8835C87.9515 85.8835 87.491 85.4457 87.491 84.9057V75.1282C87.491 74.5882 87.9515 74.1504 88.5196 74.1504ZM99.8346 80.017C100.403 80.017 100.863 80.4547 100.863 80.9947V89.7945C100.863 90.3345 100.403 90.7722 99.8346 90.7722C99.2665 90.7722 98.8059 90.3345 98.8059 89.7945V80.9947C98.8059 80.4547 99.2665 80.017 99.8346 80.017ZM135.268 82.0757C135.776 82.3172 135.982 82.9045 135.728 83.3875L133.671 87.2985C133.417 87.7815 132.799 87.9773 132.291 87.7358C131.783 87.4943 131.577 86.907 131.831 86.424L133.888 82.513C134.142 82.03 134.76 81.8342 135.268 82.0757ZM122.006 86.0477C122.479 86.3472 122.607 86.9543 122.292 87.4036L118.177 93.2701C117.862 93.7194 117.223 93.8408 116.751 93.5413C116.278 93.2418 116.15 92.6347 116.465 92.1854L120.58 86.3189C120.895 85.8696 121.534 85.7482 122.006 86.0477ZM128.285 90.0364C128.713 90.392 128.756 91.0097 128.382 91.4161L121.181 99.2381C120.807 99.6445 120.157 99.6857 119.73 99.3301C119.302 98.9745 119.259 98.3568 119.633 97.9504L126.834 90.1284C127.208 89.722 127.858 89.6808 128.285 90.0364Z" fill="#FD5936"/>
<path d="M98.1812 101.87C82.546 91.7012 66.6364 86.5517 61.1504 85.248L75.5513 106.759L93.038 124.358L114.639 120.447L133.155 114.581C127.394 106.759 107.439 102.848 98.1812 101.87Z" fill="#FD5936"/>
</g>
<g style="mix-blend-mode:soft-light">
<path d="M66.9187 3.75239C17.5443 30.3473 62.8042 94.3576 91.6059 123.038C169.782 114.239 193.441 70.2396 188.297 54.5956C184.183 42.0803 167.382 40.907 159.496 41.8848C155.381 9.81443 130.351 14.1818 118.35 20.3742C99.4235 -2.30969 76.1764 -0.158628 66.9187 3.75239Z" fill="#FD5936"/>
<path d="M81.3192 32.1076C105.184 28.1966 118.007 48.7295 121.436 59.4848C139.54 44.6229 150.238 49.7072 154.352 56.5515C170.811 89.7952 113.893 109.024 84.4051 110.328C55.6034 90.7729 51.4888 36.9964 81.3192 32.1076Z" fill="#FD5936"/>
<path fill-rule="evenodd" clip-rule="evenodd" d="M83.3764 42.8623C83.9445 42.8623 84.4051 43.3001 84.4051 43.8401V51.6621C84.4051 52.2021 83.9445 52.6398 83.3764 52.6398C82.8083 52.6398 82.3478 52.2021 82.3478 51.6621V43.8401C82.3478 43.3001 82.8083 42.8623 83.3764 42.8623ZM94.6914 49.7066C95.2595 49.7066 95.72 50.1443 95.72 50.6843V59.4841C95.72 60.0241 95.2595 60.4619 94.6914 60.4619C94.1233 60.4619 93.6628 60.0241 93.6628 59.4841V50.6843C93.6628 50.1443 94.1233 49.7066 94.6914 49.7066ZM73.8362 53.6552C74.3824 53.5069 74.9517 53.8075 75.1078 54.3267L77.1651 61.171C77.3211 61.6902 77.0048 62.2314 76.4586 62.3798C75.9124 62.5281 75.343 62.2275 75.187 61.7082L73.1297 54.864C72.9736 54.3447 73.2899 53.8036 73.8362 53.6552ZM138.404 58.6352C138.898 58.9031 139.069 59.5004 138.787 59.9692L134.673 66.8135C134.391 67.2824 133.762 67.4452 133.269 67.1773C132.776 66.9094 132.605 66.3121 132.886 65.8433L137.001 58.999C137.283 58.5302 137.911 58.3673 138.404 58.6352ZM86.4623 58.5064C87.0304 58.5064 87.491 58.9441 87.491 59.4841V66.3284C87.491 66.8684 87.0304 67.3062 86.4623 67.3062C85.8942 67.3062 85.4337 66.8684 85.4337 66.3284V59.4841C85.4337 58.9441 85.8942 58.5064 86.4623 58.5064ZM108.469 62.4964C108.991 62.7092 109.233 63.284 109.009 63.7803L105.923 70.6246C105.699 71.1209 105.095 71.3508 104.573 71.1381C104.05 70.9254 103.809 70.3506 104.032 69.8543L107.118 63.01C107.342 62.5136 107.947 62.2837 108.469 62.4964ZM115.646 70.3093C116.174 70.5099 116.43 71.0789 116.219 71.5803L114.162 76.4691C113.951 76.9704 113.352 77.2143 112.825 77.0138C112.297 76.8132 112.041 76.2442 112.252 75.7428L114.309 70.854C114.52 70.3527 115.119 70.1088 115.646 70.3093ZM130.125 72.2981C130.633 72.5396 130.839 73.127 130.585 73.6099L126.47 81.432C126.216 81.915 125.599 82.1107 125.09 81.8692C124.582 81.6277 124.376 81.0404 124.63 80.5574L128.745 72.7354C128.999 72.2524 129.617 72.0567 130.125 72.2981ZM79.1483 74.1564C79.7129 74.0968 80.2215 74.4835 80.2843 75.0202L81.3129 83.82C81.3756 84.3567 80.9688 84.8401 80.4041 84.8997C79.8395 84.9594 79.3309 84.5726 79.2682 84.0359L78.2396 75.2362C78.1768 74.6995 78.5837 74.216 79.1483 74.1564ZM88.5196 74.1504C89.0877 74.1504 89.5482 74.5882 89.5482 75.1282V84.9057C89.5482 85.4457 89.0877 85.8835 88.5196 85.8835C87.9515 85.8835 87.491 85.4457 87.491 84.9057V75.1282C87.491 74.5882 87.9515 74.1504 88.5196 74.1504ZM99.8346 80.017C100.403 80.017 100.863 80.4547 100.863 80.9947V89.7945C100.863 90.3345 100.403 90.7722 99.8346 90.7722C99.2665 90.7722 98.8059 90.3345 98.8059 89.7945V80.9947C98.8059 80.4547 99.2665 80.017 99.8346 80.017ZM135.268 82.0757C135.776 82.3172 135.982 82.9045 135.728 83.3875L133.671 87.2985C133.417 87.7815 132.799 87.9773 132.291 87.7358C131.783 87.4943 131.577 86.907 131.831 86.424L133.888 82.513C134.142 82.03 134.76 81.8342 135.268 82.0757ZM122.006 86.0477C122.479 86.3472 122.607 86.9543 122.292 87.4036L118.177 93.2701C117.862 93.7194 117.223 93.8408 116.751 93.5413C116.278 93.2418 116.15 92.6347 116.465 92.1854L120.58 86.3189C120.895 85.8696 121.534 85.7482 122.006 86.0477ZM128.285 90.0364C128.713 90.392 128.756 91.0097 128.382 91.4161L121.181 99.2381C120.807 99.6445 120.157 99.6857 119.73 99.3301C119.302 98.9745 119.259 98.3568 119.633 97.9504L126.834 90.1284C127.208 89.722 127.858 89.6808 128.285 90.0364Z" fill="#FD5936"/>
<path d="M98.1812 101.87C82.546 91.7012 66.6364 86.5517 61.1504 85.248L75.5513 106.759L93.038 124.358L114.639 120.447L133.155 114.581C127.394 106.759 107.439 102.848 98.1812 101.87Z" fill="#FD5936"/>
</g>
<path d="M101.249 256.122C99.4166 243.58 101.564 230.476 107.301 219.207C113.038 207.938 122.331 198.557 133.484 192.784" stroke="#279B61" stroke-width="6" stroke-miterlimit="10"/>
<path d="M101.249 256.123C99.4166 243.581 101.564 230.477 107.301 219.208C113.038 207.939 122.331 198.558 133.484 192.785" stroke="#279B61" stroke-width="6" stroke-miterlimit="10"/>
<path d="M103.352 231.574C104.804 229.204 107.05 227.34 109.633 226.378L109.634 226.378C110.311 226.123 110.962 225.959 111.578 226.034L111.582 226.034C112.194 226.105 112.738 226.456 112.938 226.939C113.15 227.456 112.968 228.146 112.52 228.66C112.07 229.176 111.426 229.516 110.702 229.838L110.701 229.838C108.4 230.864 105.952 231.524 103.352 231.574Z" fill="#279B61" stroke="#279B61"/>
<path d="M98.9683 223.903L98.9686 223.903C100.925 225.863 102.201 228.503 102.551 231.266C100.212 230.127 98.2582 228.5 96.5792 226.599L96.5786 226.598C96.0511 226.003 95.6041 225.42 95.407 224.761L95.4071 224.761L95.4062 224.758C95.2064 224.103 95.3302 223.395 95.7318 223.018L95.7318 223.018L95.7325 223.018C96.1084 222.663 96.7428 222.572 97.3342 222.767C97.93 222.962 98.455 223.388 98.9683 223.903Z" fill="#279B61" stroke="#279B61"/>
<path d="M113.768 221.159L113.768 221.159C114.542 220.988 115.24 220.787 115.781 220.374C116.319 219.957 116.631 219.315 116.527 218.766L113.768 221.159ZM113.768 221.159C111.308 221.704 108.777 221.859 106.219 221.386M113.768 221.159L106.219 221.386M106.219 221.386C108.105 219.357 110.674 217.98 113.393 217.556C114.107 217.445 114.778 217.413 115.373 217.608C115.965 217.802 116.429 218.255 116.527 218.766L106.219 221.386Z" fill="#279B61" stroke="#279B61"/>
<path d="M104.804 211.189C105.234 211.644 105.494 212.274 105.706 212.977C106.503 215.644 106.383 218.577 105.389 221.173C103.869 219.04 102.918 216.668 102.338 214.188C102.156 213.406 102.035 212.679 102.172 212.003C102.308 211.329 102.75 210.771 103.277 210.634C103.769 210.507 104.374 210.734 104.804 211.189Z" fill="#279B61" stroke="#279B61"/>
<path d="M119.647 212.394L119.647 212.394C120.42 212.223 121.118 212.021 121.659 211.608C122.198 211.192 122.51 210.549 122.405 210.001L119.647 212.394ZM119.647 212.394C117.182 212.938 114.651 213.094 112.097 212.621M119.647 212.394L112.097 212.621M112.097 212.621C113.984 210.591 116.553 209.215 119.271 208.79C119.985 208.679 120.656 208.647 121.252 208.843C121.843 209.037 122.307 209.489 122.405 210.001L112.097 212.621Z" fill="#279B61" stroke="#279B61"/>
<path d="M110.677 202.424C111.107 202.879 111.368 203.509 111.579 204.212C112.377 206.878 112.256 209.812 111.263 212.408C109.743 210.279 108.791 207.902 108.212 205.423C108.029 204.641 107.909 203.914 108.046 203.238C108.182 202.564 108.624 202.005 109.15 201.868C109.643 201.741 110.248 201.969 110.677 202.424Z" fill="#279B61" stroke="#279B61"/>
<path d="M118.036 204.411C117.855 204.344 117.674 204.274 117.494 204.201C119.811 202.328 122.776 201.292 125.741 201.332C126.485 201.342 127.253 201.423 127.912 201.776C128.572 202.123 129.108 202.791 129.127 203.544C129.151 204.35 128.572 205.079 127.865 205.456C127.159 205.832 126.339 205.913 125.543 205.951C122.88 206.085 120.192 205.784 117.585 204.775C117.732 204.65 117.883 204.528 118.036 204.411ZM118.036 204.411C120.481 205.308 123.003 205.579 125.518 205.452L125.519 205.452C126.312 205.414 127.031 205.334 127.63 205.014C128.23 204.694 128.644 204.114 128.628 203.559L128.627 203.557C128.614 203.034 128.228 202.507 127.679 202.218L127.676 202.216L127.676 202.216C127.126 201.922 126.458 201.841 125.734 201.832L125.734 201.832C122.983 201.795 120.228 202.723 118.036 204.411Z" fill="#279B61" stroke="#279B61"/>
<path d="M117.545 193.872C117.974 194.327 118.235 194.957 118.447 195.66C119.244 198.327 119.123 201.26 118.13 203.856C116.61 201.727 115.658 199.351 115.079 196.871C114.897 196.089 114.776 195.362 114.913 194.686C115.049 194.012 115.491 193.453 116.017 193.317C116.51 193.19 117.115 193.417 117.545 193.872Z" fill="#279B61" stroke="#279B61"/>
<path d="M126.281 198.034C128.864 197.071 131.766 196.997 134.385 197.846L134.386 197.846C135.076 198.068 135.689 198.343 136.13 198.786C136.573 199.23 136.793 199.849 136.653 200.354L136.652 200.356C136.506 200.892 135.944 201.326 135.285 201.45C134.616 201.576 133.906 201.442 133.137 201.247C130.696 200.622 128.361 199.616 126.281 198.034Z" fill="#279B61" stroke="#279B61"/>
<path d="M125.095 187.312C125.525 187.767 125.785 188.397 125.997 189.1C126.794 191.767 126.674 194.701 125.68 197.297C124.16 195.167 123.209 192.791 122.629 190.311C122.447 189.529 122.326 188.803 122.463 188.126C122.599 187.452 123.041 186.894 123.568 186.757C124.06 186.63 124.665 186.857 125.095 187.312Z" fill="#279B61" stroke="#279B61"/>
<path d="M138.631 188.592L138.63 188.592C135.806 188.796 133.143 190.644 131.904 193.227C134.673 194.477 137.827 194.021 140.176 192.327L138.631 188.592ZM138.631 188.592C139.313 188.543 139.964 188.594 140.509 188.843C141.059 189.098 141.47 189.573 141.548 190.089L141.548 190.089M138.631 188.592L141.548 190.089M141.548 190.089C141.607 190.481 141.49 190.877 141.233 191.269M141.548 190.089L141.233 191.269M141.233 191.269C140.974 191.664 140.59 192.027 140.176 192.326L141.233 191.269Z" fill="#279B61" stroke="#279B61"/>
<path d="M103.352 231.574C104.804 229.204 107.05 227.34 109.633 226.378L109.634 226.378C110.311 226.123 110.962 225.959 111.578 226.034L111.582 226.034C112.194 226.105 112.738 226.456 112.938 226.939C113.15 227.456 112.968 228.146 112.52 228.66C112.07 229.176 111.426 229.516 110.702 229.838L110.701 229.838C108.4 230.864 105.952 231.524 103.352 231.574Z" fill="#279B61" stroke="#279B61"/>
<path d="M98.9683 223.903L98.9686 223.903C100.925 225.863 102.201 228.503 102.551 231.266C100.212 230.127 98.2582 228.5 96.5792 226.599L96.5786 226.598C96.0511 226.003 95.6041 225.42 95.407 224.761L95.4071 224.761L95.4062 224.758C95.2064 224.103 95.3302 223.395 95.7318 223.018L95.7318 223.018L95.7325 223.018C96.1084 222.663 96.7428 222.572 97.3342 222.767C97.93 222.962 98.455 223.388 98.9683 223.903Z" fill="#279B61" stroke="#279B61"/>
<path d="M113.768 221.159L113.768 221.159C114.542 220.988 115.24 220.787 115.781 220.374C116.319 219.957 116.631 219.315 116.527 218.766L113.768 221.159ZM113.768 221.159C111.308 221.704 108.777 221.859 106.219 221.386M113.768 221.159L106.219 221.386M106.219 221.386C108.105 219.357 110.674 217.98 113.393 217.556C114.107 217.445 114.778 217.413 115.373 217.608C115.965 217.802 116.429 218.255 116.527 218.766L106.219 221.386Z" fill="#279B61" stroke="#279B61"/>
<path d="M104.804 211.189C105.234 211.644 105.494 212.274 105.706 212.977C106.503 215.644 106.383 218.577 105.389 221.173C103.869 219.04 102.918 216.668 102.338 214.188C102.156 213.406 102.035 212.679 102.172 212.003C102.308 211.329 102.75 210.771 103.277 210.634C103.769 210.507 104.374 210.734 104.804 211.189Z" fill="#279B61" stroke="#279B61"/>
<path d="M119.647 212.394L119.647 212.394C120.42 212.223 121.118 212.021 121.659 211.608C122.198 211.192 122.51 210.549 122.405 210.001L119.647 212.394ZM119.647 212.394C117.182 212.938 114.651 213.094 112.097 212.621M119.647 212.394L112.097 212.621M112.097 212.621C113.984 210.591 116.553 209.215 119.271 208.79C119.985 208.679 120.656 208.647 121.252 208.843C121.843 209.037 122.307 209.489 122.405 210.001L112.097 212.621Z" fill="#279B61" stroke="#279B61"/>
<path d="M110.677 202.424C111.107 202.879 111.368 203.509 111.579 204.212C112.377 206.878 112.256 209.812 111.263 212.408C109.743 210.279 108.791 207.902 108.212 205.423C108.029 204.641 107.909 203.914 108.046 203.238C108.182 202.564 108.624 202.005 109.15 201.868C109.643 201.741 110.248 201.969 110.677 202.424Z" fill="#279B61" stroke="#279B61"/>
<path d="M118.036 204.411C117.855 204.344 117.674 204.274 117.494 204.201C119.811 202.328 122.776 201.292 125.741 201.332C126.485 201.342 127.253 201.423 127.912 201.776C128.572 202.123 129.108 202.791 129.127 203.544C129.151 204.35 128.572 205.079 127.865 205.456C127.159 205.832 126.339 205.913 125.543 205.951C122.88 206.085 120.192 205.784 117.585 204.775C117.732 204.65 117.883 204.528 118.036 204.411ZM118.036 204.411C120.481 205.308 123.003 205.579 125.518 205.452L125.519 205.452C126.312 205.414 127.031 205.334 127.63 205.014C128.23 204.694 128.644 204.114 128.628 203.559L128.627 203.557C128.614 203.034 128.228 202.507 127.679 202.218L127.676 202.216L127.676 202.216C127.126 201.922 126.458 201.841 125.734 201.832L125.734 201.832C122.983 201.795 120.228 202.723 118.036 204.411Z" fill="#279B61" stroke="#279B61"/>
<path d="M117.545 193.872C117.974 194.327 118.235 194.957 118.447 195.66C119.244 198.327 119.123 201.26 118.13 203.856C116.61 201.727 115.658 199.351 115.079 196.871C114.897 196.089 114.776 195.362 114.913 194.686C115.049 194.012 115.491 193.453 116.017 193.317C116.51 193.19 117.115 193.417 117.545 193.872Z" fill="#279B61" stroke="#279B61"/>
<path d="M126.281 198.034C128.864 197.071 131.766 196.997 134.385 197.846L134.386 197.846C135.076 198.068 135.689 198.343 136.13 198.786C136.573 199.23 136.793 199.849 136.653 200.354L136.652 200.356C136.506 200.892 135.944 201.326 135.285 201.45C134.616 201.576 133.906 201.442 133.137 201.247C130.696 200.622 128.361 199.616 126.281 198.034Z" fill="#279B61" stroke="#279B61"/>
<path d="M125.095 187.312C125.525 187.767 125.785 188.397 125.997 189.1C126.794 191.767 126.674 194.701 125.68 197.297C124.16 195.167 123.209 192.791 122.629 190.311C122.447 189.529 122.326 188.803 122.463 188.126C122.599 187.452 123.041 186.894 123.568 186.757C124.06 186.63 124.665 186.857 125.095 187.312Z" fill="#279B61" stroke="#279B61"/>
<path d="M138.631 188.592L138.63 188.592C135.806 188.796 133.143 190.644 131.904 193.227C134.673 194.477 137.827 194.021 140.176 192.327L138.631 188.592ZM138.631 188.592C139.313 188.543 139.964 188.594 140.509 188.843C141.059 189.098 141.47 189.573 141.548 190.089L141.548 190.089M138.631 188.592L141.548 190.089M141.548 190.089C141.607 190.481 141.49 190.877 141.233 191.269M141.548 190.089L141.233 191.269M141.233 191.269C140.974 191.664 140.59 192.027 140.176 192.326L141.233 191.269Z" fill="#279B61" stroke="#279B61"/>
<path d="M96.9683 256.865C97.5282 247.433 95.2406 237.834 90.5227 229.824C85.8048 221.814 78.6829 215.431 70.4572 211.846" stroke="#279B61" stroke-width="6" stroke-miterlimit="10"/>
<path d="M96.9688 256.865C97.5286 247.433 95.241 237.834 90.5231 229.824C85.8052 221.814 78.6834 215.431 70.4577 211.846" stroke="#279B61" stroke-width="6" stroke-miterlimit="10"/>
<path d="M93.7619 238.648C92.6207 237.116 91.0099 235.981 89.2367 235.472L89.235 235.472C88.7489 235.33 88.3114 235.261 87.9208 235.348L87.9176 235.349C87.5351 235.431 87.2196 235.691 87.1231 236.006C87.0201 236.348 87.1651 236.801 87.4883 237.127C87.8123 237.454 88.26 237.654 88.7876 237.842L88.7882 237.843C90.3796 238.414 92.04 238.733 93.7619 238.648Z" fill="#279B61" stroke="#279B61"/>
<path d="M96.7745 232.92C95.5774 234.409 94.8483 236.317 94.7138 238.271C96.1714 237.307 97.3691 236.048 98.3825 234.619L98.383 234.618C98.7193 234.146 98.9874 233.704 99.0829 233.23L99.0828 233.23L99.0834 233.227C99.1816 232.753 99.0514 232.289 98.7942 232.076L98.7942 232.076L98.7935 232.076C98.5605 231.882 98.1742 231.85 97.8079 232.014C97.4331 232.182 97.1051 232.508 96.7748 232.919L96.7745 232.92Z" fill="#279B61" stroke="#279B61"/>
<path d="M86.0749 231.552L86.0746 231.551C85.5212 231.477 85.047 231.377 84.6714 231.129C84.2983 230.879 84.0723 230.469 84.1084 230.114C84.1423 229.786 84.4048 229.462 84.7708 229.299C85.1436 229.133 85.5869 229.11 86.0903 229.145L86.0749 231.552ZM86.0749 231.552C87.7481 231.778 89.4412 231.742 91.1179 231.297M86.0749 231.552L91.1179 231.297M91.1179 231.297C89.714 230.042 87.9227 229.272 86.0905 229.145L91.1179 231.297Z" fill="#279B61" stroke="#279B61"/>
<path d="M91.3911 225.143C91.4996 224.609 91.6434 224.148 91.9026 223.808C92.1621 223.466 92.525 223.304 92.8027 223.352C93.1053 223.405 93.4263 223.732 93.557 224.204C93.6867 224.673 93.6471 225.2 93.5634 225.791L91.3911 225.143ZM91.3911 225.143C91.0054 227.054 91.217 229.091 91.9678 230.868C92.8216 229.276 93.3127 227.56 93.5634 225.791L91.3911 225.143Z" fill="#279B61" stroke="#279B61"/>
<path d="M81.4062 225.383L81.4062 225.383C80.8528 225.308 80.3786 225.208 80.003 224.96C79.6299 224.711 79.4038 224.3 79.44 223.945C79.4738 223.617 79.7364 223.293 80.1024 223.13C80.4751 222.964 80.9185 222.941 81.4219 222.976L81.4062 225.383ZM81.4062 225.383C83.0823 225.609 84.7755 225.573 86.4496 225.128M81.4062 225.383L86.4496 225.128M86.4496 225.128C85.0457 223.873 83.2543 223.103 81.4221 222.976L86.4496 225.128Z" fill="#279B61" stroke="#279B61"/>
<path d="M87.2375 217.639C86.9784 217.98 86.8346 218.44 86.726 218.973C86.3403 220.886 86.552 222.922 87.303 224.7C88.1567 223.11 88.6477 221.391 88.8984 219.622C88.9821 219.031 89.0216 218.504 88.8919 218.035C88.7613 217.563 88.4402 217.236 88.1376 217.183C87.8599 217.135 87.497 217.297 87.2375 217.639Z" fill="#279B61" stroke="#279B61"/>
<path d="M81.7681 219.432C80.188 218.442 78.3039 217.995 76.4766 218.19L76.4762 218.19C75.9731 218.243 75.5383 218.342 75.1994 218.571L75.1994 218.571L75.197 218.573C74.8608 218.798 74.6488 219.167 74.667 219.499L74.6671 219.501C74.685 219.852 74.9711 220.213 75.3764 220.393C75.7828 220.572 76.2625 220.587 76.823 220.563L76.8242 220.563C78.5129 220.497 80.1808 220.166 81.7681 219.432Z" fill="#279B61" stroke="#279B61"/>
<path d="M81.3733 213.024C81.4819 212.491 81.6257 212.03 81.8849 211.689C82.1444 211.348 82.5073 211.186 82.785 211.234C83.0877 211.287 83.4087 211.614 83.5394 212.086C83.6691 212.554 83.6295 213.081 83.5458 213.672L81.3733 213.024ZM81.3733 213.024C80.9875 214.936 81.1992 216.973 81.9502 218.751C82.804 217.161 83.295 215.442 83.5458 213.673L81.3733 213.024Z" fill="#279B61" stroke="#279B61"/>
<path d="M71.1532 217.905C72.7543 217.318 74.2646 216.485 75.5845 215.288C73.802 214.832 71.8781 214.984 70.1843 215.731L70.1833 215.731C69.7168 215.936 69.3269 216.166 69.0633 216.492C68.7983 216.82 68.697 217.244 68.8081 217.557L68.8088 217.559C68.9235 217.887 69.292 218.141 69.7186 218.184C70.1588 218.229 70.6221 218.097 71.1532 217.905Z" fill="#279B61" stroke="#279B61"/>
<path d="M75.6578 208.6C75.7664 208.067 75.9102 207.606 76.1694 207.265C76.4289 206.923 76.7919 206.761 77.0697 206.809C77.3723 206.862 77.6934 207.189 77.824 207.661C77.9537 208.13 77.9141 208.657 77.8304 209.248L75.6578 208.6ZM75.6578 208.6C75.272 210.512 75.4836 212.548 76.2346 214.326M75.6578 208.6L76.2346 214.326M76.2346 214.326C77.0885 212.736 77.5796 211.017 77.8304 209.248L76.2346 214.326Z" fill="#279B61" stroke="#279B61"/>
<path d="M66.5781 209.098L66.5778 209.098C66.107 209.104 65.6825 209.18 65.3464 209.379C65.0095 209.581 64.7755 209.921 64.7541 210.262L64.7541 210.263C64.7205 210.792 65.156 211.321 65.7941 211.724C67.4731 212.782 69.6071 212.93 71.4097 211.933C70.388 210.193 68.4819 209.072 66.5781 209.098Z" fill="#279B61" stroke="#279B61"/>
<path d="M93.7619 238.648C92.6207 237.116 91.0099 235.981 89.2367 235.472L89.235 235.472C88.7489 235.33 88.3114 235.261 87.9208 235.348L87.9176 235.349C87.5351 235.431 87.2196 235.691 87.1231 236.006C87.0201 236.348 87.1651 236.801 87.4883 237.127C87.8123 237.454 88.26 237.654 88.7876 237.842L88.7882 237.843C90.3796 238.414 92.04 238.733 93.7619 238.648Z" fill="#279B61" stroke="#279B61"/>
<path d="M96.7745 232.92C95.5774 234.409 94.8483 236.317 94.7138 238.271C96.1714 237.307 97.3691 236.048 98.3825 234.619L98.383 234.618C98.7193 234.146 98.9874 233.704 99.0829 233.23L99.0828 233.23L99.0834 233.227C99.1816 232.753 99.0514 232.289 98.7942 232.076L98.7942 232.076L98.7935 232.076C98.5605 231.882 98.1742 231.85 97.8079 232.014C97.4331 232.182 97.1051 232.508 96.7748 232.919L96.7745 232.92Z" fill="#279B61" stroke="#279B61"/>
<path d="M86.0749 231.552L86.0746 231.551C85.5212 231.477 85.047 231.377 84.6714 231.129C84.2983 230.879 84.0723 230.469 84.1084 230.114C84.1423 229.786 84.4048 229.462 84.7708 229.299C85.1436 229.133 85.5869 229.11 86.0903 229.145L86.0749 231.552ZM86.0749 231.552C87.7481 231.778 89.4412 231.742 91.1179 231.297M86.0749 231.552L91.1179 231.297M91.1179 231.297C89.714 230.042 87.9227 229.272 86.0905 229.145L91.1179 231.297Z" fill="#279B61" stroke="#279B61"/>
<path d="M91.3911 225.143C91.4996 224.609 91.6434 224.148 91.9026 223.808C92.1621 223.466 92.525 223.304 92.8027 223.352C93.1053 223.405 93.4263 223.732 93.557 224.204C93.6867 224.673 93.6471 225.2 93.5634 225.791L91.3911 225.143ZM91.3911 225.143C91.0054 227.054 91.217 229.091 91.9678 230.868C92.8216 229.276 93.3127 227.56 93.5634 225.791L91.3911 225.143Z" fill="#279B61" stroke="#279B61"/>
<path d="M81.4062 225.383L81.4062 225.383C80.8528 225.308 80.3786 225.208 80.003 224.96C79.6299 224.711 79.4038 224.3 79.44 223.945C79.4738 223.617 79.7364 223.293 80.1024 223.13C80.4751 222.964 80.9185 222.941 81.4219 222.976L81.4062 225.383ZM81.4062 225.383C83.0823 225.609 84.7755 225.573 86.4496 225.128M81.4062 225.383L86.4496 225.128M86.4496 225.128C85.0457 223.873 83.2543 223.103 81.4221 222.976L86.4496 225.128Z" fill="#279B61" stroke="#279B61"/>
<path d="M87.2375 217.639C86.9784 217.98 86.8346 218.44 86.726 218.973C86.3403 220.886 86.552 222.922 87.303 224.7C88.1567 223.11 88.6477 221.391 88.8984 219.622C88.9821 219.031 89.0216 218.504 88.8919 218.035C88.7613 217.563 88.4402 217.236 88.1376 217.183C87.8599 217.135 87.497 217.297 87.2375 217.639Z" fill="#279B61" stroke="#279B61"/>
<path d="M81.7681 219.432C80.188 218.442 78.3039 217.995 76.4766 218.19L76.4762 218.19C75.9731 218.243 75.5383 218.342 75.1994 218.571L75.1994 218.571L75.197 218.573C74.8608 218.798 74.6488 219.167 74.667 219.499L74.6671 219.501C74.685 219.852 74.9711 220.213 75.3764 220.393C75.7828 220.572 76.2625 220.587 76.823 220.563L76.8242 220.563C78.5129 220.497 80.1808 220.166 81.7681 219.432Z" fill="#279B61" stroke="#279B61"/>
<path d="M81.3733 213.024C81.4819 212.491 81.6257 212.03 81.8849 211.689C82.1444 211.348 82.5073 211.186 82.785 211.234C83.0877 211.287 83.4087 211.614 83.5394 212.086C83.6691 212.554 83.6295 213.081 83.5458 213.672L81.3733 213.024ZM81.3733 213.024C80.9875 214.936 81.1992 216.973 81.9502 218.751C82.804 217.161 83.295 215.442 83.5458 213.673L81.3733 213.024Z" fill="#279B61" stroke="#279B61"/>
<path d="M71.1532 217.905C72.7543 217.318 74.2646 216.485 75.5845 215.288C73.802 214.832 71.8781 214.984 70.1843 215.731L70.1833 215.731C69.7168 215.936 69.3269 216.166 69.0633 216.492C68.7983 216.82 68.697 217.244 68.8081 217.557L68.8088 217.559C68.9235 217.887 69.292 218.141 69.7186 218.184C70.1588 218.229 70.6221 218.097 71.1532 217.905Z" fill="#279B61" stroke="#279B61"/>
<path d="M75.6578 208.6C75.7664 208.067 75.9102 207.606 76.1694 207.265C76.4289 206.923 76.7919 206.761 77.0697 206.809C77.3723 206.862 77.6934 207.189 77.824 207.661C77.9537 208.13 77.9141 208.657 77.8304 209.248L75.6578 208.6ZM75.6578 208.6C75.272 210.512 75.4836 212.548 76.2346 214.326M75.6578 208.6L76.2346 214.326M76.2346 214.326C77.0885 212.736 77.5796 211.017 77.8304 209.248L76.2346 214.326Z" fill="#279B61" stroke="#279B61"/>
<path d="M66.5781 209.098L66.5778 209.098C66.107 209.104 65.6825 209.18 65.3464 209.379C65.0095 209.581 64.7755 209.921 64.7541 210.262L64.7541 210.263C64.7205 210.792 65.156 211.321 65.7941 211.724C67.4731 212.782 69.6071 212.93 71.4097 211.933C70.388 210.193 68.4819 209.072 66.5781 209.098Z" fill="#279B61" stroke="#279B61"/>
</svg>
