<svg width="143" height="104" viewBox="0 0 143 104" fill="none" xmlns="http://www.w3.org/2000/svg">
<path d="M96 52C96 79.7279 74.8471 102 49 102C23.1529 102 2 79.7279 2 52C2 24.2721 23.1529 2 49 2C74.8471 2 96 24.2721 96 52Z" stroke="white" stroke-width="4"/>
<path d="M42.7472 68.5909V68.2074C42.7898 64.1378 43.2159 60.8991 44.0256 58.4915C44.8352 56.0838 45.9858 54.1342 47.4773 52.6428C48.9688 51.1513 50.7585 49.777 52.8466 48.5199C54.1037 47.7528 55.233 46.8473 56.2344 45.8033C57.2358 44.7379 58.0241 43.5128 58.5994 42.1278C59.196 40.7429 59.4943 39.2088 59.4943 37.5256C59.4943 35.4375 59.0043 33.6264 58.0241 32.0923C57.044 30.5582 55.7337 29.3757 54.093 28.5447C52.4524 27.7138 50.6307 27.2983 48.6278 27.2983C46.8807 27.2983 45.1974 27.6605 43.5781 28.3849C41.9588 29.1094 40.6058 30.2493 39.5192 31.8047C38.4325 33.3601 37.804 35.3949 37.6335 37.9091H29.5795C29.75 34.2869 30.6875 31.1868 32.392 28.6087C34.1179 26.0305 36.3871 24.0597 39.1996 22.696C42.0334 21.3324 45.1761 20.6506 48.6278 20.6506C52.3778 20.6506 55.6378 21.3963 58.4077 22.8878C61.1989 24.3793 63.3509 26.4247 64.8636 29.0241C66.3977 31.6236 67.1648 34.5852 67.1648 37.9091C67.1648 40.2528 66.8026 42.3729 66.0781 44.2692C65.375 46.1655 64.3523 47.8594 63.0099 49.3509C61.6889 50.8423 60.0909 52.1634 58.2159 53.3139C56.3409 54.4858 54.8388 55.7216 53.7095 57.0213C52.5803 58.2997 51.7599 59.8232 51.2486 61.5916C50.7372 63.3601 50.4602 65.5653 50.4176 68.2074V68.5909H42.7472ZM46.8381 87.5114C45.2614 87.5114 43.9084 86.9467 42.7791 85.8175C41.6499 84.6882 41.0852 83.3352 41.0852 81.7585C41.0852 80.1818 41.6499 78.8288 42.7791 77.6996C43.9084 76.5703 45.2614 76.0057 46.8381 76.0057C48.4148 76.0057 49.7678 76.5703 50.897 77.6996C52.0263 78.8288 52.5909 80.1818 52.5909 81.7585C52.5909 82.8026 52.3246 83.7614 51.7919 84.6349C51.2805 85.5085 50.5881 86.2116 49.7145 86.7443C48.8622 87.2557 47.9034 87.5114 46.8381 87.5114Z" fill="white"/>
</svg>
