<svg width="246" height="257" viewBox="0 0 246 257" fill="none" xmlns="http://www.w3.org/2000/svg">
<ellipse cx="31.3894" cy="31.3983" rx="31.3894" ry="31.3983" transform="matrix(0.699933 0.714208 -0.699933 0.714208 100.699 105)" fill="#279B61"/>
<path d="M73.3316 182.582L74.5411 145.322L109.746 181.244L73.3316 182.582Z" fill="#279B61"/>
<ellipse cx="29.1958" cy="29.2041" rx="29.1958" ry="29.2041" transform="matrix(-0.675724 -0.737155 0.675724 -0.737155 149.457 157)" fill="#279B61"/>
<path d="M178.272 82.5214L177.186 118.291L145.574 83.8052L178.272 82.5214Z" fill="#279B61"/>
<ellipse cx="29.1753" cy="29.1836" rx="29.1753" ry="29.1836" transform="matrix(-0.691568 0.722311 -0.691568 -0.722311 136 112.854)" fill="#279B61"/>
<path d="M66.1763 82.0739L99.7101 83.2341L67.3799 117.002L66.1763 82.0739Z" fill="#279B61"/>
<ellipse cx="28.2189" cy="28.2269" rx="28.2189" ry="28.2269" transform="matrix(0.715007 -0.699117 0.715007 0.699117 111 152.456)" fill="#279B61"/>
<path d="M180.823 181.271L147.289 180.185L179.62 148.573L180.823 181.271Z" fill="#279B61"/>
<path d="M116.521 82.4954C117.059 75.0742 127.951 75.0742 128.489 82.4954L130.795 114.277C131.009 117.232 133.348 119.589 136.302 119.824L170.075 122.52C177.439 123.108 177.439 133.894 170.075 134.482L136.302 137.178C133.348 137.413 131.009 139.769 130.795 142.724L128.489 174.507C127.951 181.928 117.059 181.928 116.521 174.507L114.215 142.724C114.001 139.769 111.662 137.413 108.708 137.178L74.9352 134.482C67.5717 133.894 67.5717 123.108 74.9352 122.52L108.708 119.824C111.662 119.589 114.001 117.232 114.215 114.277L116.521 82.4954Z" fill="#F43507"/>
<path d="M115.939 124.882L119.056 121.612C120.962 119.613 124.051 119.613 125.957 121.612L129.074 124.882C130.979 126.881 130.979 130.121 129.074 132.12L125.957 135.39C124.051 137.389 120.962 137.389 119.056 135.39L115.939 132.12C114.033 130.121 114.033 126.881 115.939 124.882Z" fill="#F4B542" stroke="#DC8433" stroke-width="2"/>
</svg>
