<svg width="266" height="236" viewBox="0 0 266 236" fill="none" xmlns="http://www.w3.org/2000/svg">
<ellipse cx="133" cy="118" rx="133" ry="118" fill="#279B61"/>
<path fill-rule="evenodd" clip-rule="evenodd" d="M229 145.938L190.559 103.973C191.166 104.136 188.376 90.3036 190.559 79.8377C190.559 79.8377 192.832 71.1403 190.559 62.8778C189.341 58.4224 188.392 56.0626 185.805 52.0059C183.218 47.9493 171.338 36.7855 171.338 36.7855C167.956 33.6698 166.091 31.8722 162.451 29.1753C158.811 26.4785 151.911 23.7395 151.911 23.7395C148.41 22.2689 145.843 22.2201 141.37 22C136.71 22.0723 134.349 22.6221 130.21 23.7395L116.983 30.4799L107.476 36.7855L97.7621 43.7434C92.9841 47.5953 90.381 49.7901 86.8084 54.1803C83.5465 57.4679 82.165 59.3298 80.1948 62.6602C78.2792 65.4177 77.7847 66.9316 77.0947 69.6181C76.439 73.1305 76.6293 75.218 77.0947 78.9678L80.8148 89.1872L96.5221 120.28L116.363 157.896C116.642 158.998 116.187 159.168 114.709 158.984L97.7621 153.113L59.3208 140.719C58.2673 140.509 57.7233 140.319 57.254 139.197C57.5719 137.036 57.4125 136.026 56.4273 134.631L54.7739 132.674V129.847L50.0204 127.89L37 158.114L41.5468 159.853C42.6964 159.673 43.0172 159.32 43.2002 158.114C46.2478 158.493 47.7176 157.978 50.0204 156.157C50.9455 156.422 51.3781 156.384 52.0872 156.157L144.057 212.907C150.53 213.237 153.936 212.711 159.764 210.95C170.877 207.166 176.884 204 187.459 197.687C195.117 192.713 199.078 189.601 205.853 183.771C212.101 178.164 215.227 174.789 220.113 168.333C223.549 162.883 225.194 159.833 227.14 154.417C228.472 151.086 228.714 149.234 229 145.938ZM181.465 69.6181C181.124 77.7294 180.798 82.4071 179.812 91.1441L170.925 81.7944L149.431 57.0069C148.094 54.6844 147.19 53.5207 144.47 52.4408C139.307 51.5485 136.407 51.4837 131.243 52.4408C122.41 55.3011 117.647 57.4798 109.749 63.0951C102.479 69.5177 99.0928 73.4405 90.7352 78.9678C89.9259 78.8879 89.3842 78.6704 88.8751 77.4457C87.7689 74.569 87.9461 73.2333 88.4618 70.9227C92.2705 65.4408 94.6623 62.5333 100.036 58.0941C105.573 53.1001 108.853 50.3727 115.743 45.9178C122.872 40.9607 127.039 38.59 134.757 35.0461C137.187 34.2276 138.79 33.9841 142.197 33.9589C143.837 34.0255 144.25 33.8712 148.811 35.0461C152.986 37.3171 155.335 38.7896 159.558 42.0039L170.305 52.6582C173.423 55.6211 176.192 57.9535 179.812 63.3125C181.112 65.3724 181.221 66.9087 181.465 69.6181Z" fill="#F1F1F1"/>
<path d="M37 158.114L50.0204 127.89L54.7739 129.847V132.674L56.4273 134.631C57.4125 136.026 57.5719 137.036 57.254 139.197C57.7233 140.319 58.2673 140.509 59.3208 140.719L97.7621 153.113L114.709 158.984C116.187 159.168 116.642 158.998 116.363 157.896L96.5221 120.28L80.8149 89.1872L77.0947 78.9678C76.6293 75.218 76.439 73.1305 77.0947 69.6181C77.7847 66.9316 78.2792 65.4177 80.1948 62.6602C82.165 59.3298 83.5465 57.4679 86.8084 54.1803C90.381 49.7901 92.9841 47.5953 97.7621 43.7434L107.476 36.7855L116.983 30.4799L130.21 23.7395C134.349 22.6221 136.71 22.0723 141.37 22C145.843 22.2201 148.41 22.2689 151.911 23.7395C151.911 23.7395 158.811 26.4785 162.451 29.1753C166.091 31.8722 167.956 33.6698 171.338 36.7855C171.338 36.7855 183.218 47.9493 185.805 52.0059C188.392 56.0626 189.341 58.4224 190.559 62.8778C192.832 71.1403 190.559 79.8377 190.559 79.8377C188.376 90.3035 191.166 104.136 190.559 103.973L229 145.938C228.714 149.234 228.472 151.086 227.14 154.417C225.194 159.833 223.549 162.883 220.113 168.333C215.227 174.789 212.101 178.164 205.853 183.771C199.078 189.601 195.117 192.713 187.459 197.687C176.884 204 170.877 207.166 159.764 210.95C153.936 212.711 150.53 213.237 144.057 212.907L52.0872 156.157C51.3781 156.384 50.9455 156.422 50.0204 156.157C47.7176 157.978 46.2478 158.493 43.2002 158.114C43.0172 159.32 42.6964 159.673 41.5468 159.853M37 158.114C38.7756 158.793 39.7712 159.174 41.5468 159.853M37 158.114L41.5468 159.853M179.812 91.1441C180.798 82.4071 181.124 77.7294 181.465 69.6181C181.221 66.9087 181.112 65.3724 179.812 63.3125C176.192 57.9535 173.423 55.6211 170.305 52.6582L159.558 42.0039C155.335 38.7896 152.986 37.3171 148.811 35.0461C144.25 33.8712 143.837 34.0255 142.197 33.9589C138.79 33.9841 137.187 34.2276 134.757 35.0461C127.039 38.59 122.872 40.9607 115.743 45.9178C108.853 50.3727 105.573 53.1001 100.036 58.0941C94.6623 62.5333 92.2705 65.4408 88.4618 70.9227C87.9461 73.2333 87.7689 74.569 88.8751 77.4457C89.3842 78.6704 89.9259 78.8879 90.7352 78.9678C99.0928 73.4405 102.479 69.5177 109.749 63.0951C117.647 57.4798 122.41 55.3011 131.243 52.4408C136.407 51.4837 139.307 51.5485 144.47 52.4408C147.19 53.5207 148.094 54.6844 149.431 57.0069L170.925 81.7944L179.812 91.1441Z" stroke="#F1F1F1"/>
<path d="M152.735 124.67C150.473 121.519 149.232 117.053 149.232 112.103C149.232 104.813 153.803 101.467 160.01 101.467C166.476 101.467 170.787 104.813 170.787 112.103C170.787 117.063 169.469 121.533 167.361 124.67L161.619 134.449C161.027 135.459 158.998 135.457 158.408 134.447L152.735 124.67Z" fill="#F43507"/>
<path d="M148.459 138.64C144.865 139.892 140.377 139.733 135.828 138.204C129.128 135.951 127.465 130.418 129.383 124.31C131.382 117.945 135.789 114.736 142.489 116.989C147.048 118.522 150.748 121.2 152.979 124.244L160.193 132.918C160.937 133.813 160.309 135.809 159.198 136.077L148.459 138.64Z" fill="#F43507"/>
<path d="M160.098 148.036C160.139 151.961 158.606 156.329 155.794 160.334C151.653 166.232 146.055 166.158 141.034 162.383C135.802 158.449 134.215 153.12 138.355 147.222C141.173 143.209 144.778 140.395 148.265 139.14L158.465 134.72C159.518 134.264 161.159 135.499 161.062 136.675L160.098 148.036Z" fill="#F43507"/>
<path d="M172.001 138.925C175.62 140.098 179.161 142.957 181.973 146.962C186.114 152.859 184.316 158.347 179.295 162.122C174.063 166.056 168.675 165.971 164.534 160.073C161.717 156.06 160.244 151.642 160.168 147.822L159.259 136.418C159.165 135.241 160.807 134.008 161.858 134.466L172.001 138.925Z" fill="#F43507"/>
<path d="M167.244 124.363C169.44 121.163 173.161 118.562 177.711 117.032C184.411 114.779 188.898 118.244 190.816 124.353C192.815 130.717 191.072 135.994 184.372 138.247C179.813 139.78 175.298 139.863 171.764 138.758L161.002 136.129C159.891 135.858 159.265 133.86 160.011 132.968L167.244 124.363Z" fill="#F43507"/>
<g style="mix-blend-mode:multiply">
<path d="M153.758 132.73C152.585 136.298 154.429 140.173 157.877 141.387C161.324 142.6 165.07 140.692 166.242 137.124C167.415 133.557 165.571 129.681 162.123 128.467C158.676 127.254 154.93 129.162 153.758 132.73Z" fill="#F43507"/>
<path fill-rule="evenodd" clip-rule="evenodd" d="M134.872 134.145L184.318 134.846L184.307 135.699L134.86 134.998L134.872 134.145Z" fill="#F43507"/>
<path d="M184.708 136.557C184.025 136.548 183.479 135.967 183.488 135.261C183.498 134.554 184.059 133.989 184.741 133.999C185.424 134.008 185.97 134.589 185.961 135.296C185.951 136.002 185.39 136.567 184.708 136.557Z" fill="#F43507"/>
<path d="M135.261 135.857C134.578 135.847 134.033 135.266 134.042 134.56C134.051 133.853 134.612 133.288 135.295 133.298C135.978 133.308 136.524 133.888 136.514 134.595C136.505 135.301 135.944 135.866 135.261 135.857Z" fill="#F43507"/>
<path fill-rule="evenodd" clip-rule="evenodd" d="M140.116 119.009L179.721 149.652L179.227 150.335L139.622 119.692L140.116 119.009Z" fill="#F43507"/>
<path d="M179.063 151.274C178.517 150.851 178.405 150.049 178.814 149.483C179.223 148.917 179.997 148.802 180.544 149.225C181.091 149.648 181.203 150.449 180.794 151.015C180.385 151.581 179.61 151.697 179.063 151.274Z" fill="#F43507"/>
<path d="M139.459 120.631C138.912 120.208 138.8 119.406 139.209 118.84C139.618 118.274 140.392 118.158 140.939 118.581C141.486 119.004 141.598 119.806 141.189 120.372C140.78 120.938 140.005 121.054 139.459 120.631Z" fill="#F43507"/>
<path fill-rule="evenodd" clip-rule="evenodd" d="M152.955 109.953L167.591 158.835L166.804 159.087L152.168 110.206L152.955 109.953Z" fill="#F43507"/>
<path d="M166.138 159.747C165.936 159.072 166.301 158.355 166.953 158.146C167.606 157.937 168.298 158.315 168.5 158.99C168.702 159.665 168.337 160.381 167.685 160.59C167.033 160.799 166.34 160.422 166.138 159.747Z" fill="#F43507"/>
<path d="M151.503 110.866C151.3 110.191 151.665 109.474 152.318 109.265C152.97 109.056 153.662 109.433 153.864 110.108C154.066 110.783 153.702 111.5 153.049 111.709C152.397 111.918 151.705 111.541 151.503 110.866Z" fill="#F43507"/>
<path fill-rule="evenodd" clip-rule="evenodd" d="M168.486 110.437L152.562 158.885L151.782 158.611L167.706 110.162L168.486 110.437Z" fill="#F43507"/>
<path d="M150.869 158.74C151.089 158.071 151.791 157.713 152.438 157.94C153.084 158.168 153.43 158.895 153.21 159.564C152.99 160.232 152.288 160.59 151.641 160.363C150.995 160.135 150.649 159.409 150.869 158.74Z" fill="#F43507"/>
<path d="M166.793 110.291C167.013 109.623 167.715 109.265 168.361 109.492C169.008 109.72 169.354 110.446 169.134 111.115C168.914 111.784 168.212 112.142 167.565 111.915C166.919 111.687 166.573 110.96 166.793 110.291Z" fill="#F43507"/>
<path fill-rule="evenodd" clip-rule="evenodd" d="M180.776 120.275L140.375 149.785L139.9 149.088L180.301 119.578L180.776 120.275Z" fill="#F43507"/>
<path d="M139.088 148.637C139.646 148.23 140.417 148.367 140.811 148.945C141.205 149.522 141.072 150.32 140.514 150.728C139.956 151.135 139.185 150.997 138.791 150.42C138.397 149.843 138.53 149.045 139.088 148.637Z" fill="#F43507"/>
<path d="M179.489 119.128C180.047 118.72 180.818 118.858 181.212 119.435C181.606 120.012 181.473 120.811 180.915 121.218C180.357 121.625 179.586 121.488 179.192 120.91C178.798 120.333 178.931 119.535 179.489 119.128Z" fill="#F43507"/>
<path fill-rule="evenodd" clip-rule="evenodd" d="M185.131 135.71L135.685 135.009L135.696 134.157L185.142 134.857L185.131 135.71Z" fill="#F43507"/>
<path d="M135.295 133.298C135.978 133.308 136.524 133.888 136.514 134.595C136.505 135.301 135.944 135.866 135.261 135.857C134.578 135.847 134.033 135.266 134.042 134.56C134.051 133.853 134.612 133.288 135.295 133.298Z" fill="#F43507"/>
<path d="M184.741 133.999C185.424 134.008 185.97 134.589 185.961 135.296C185.951 136.002 185.39 136.567 184.708 136.557C184.025 136.548 183.479 135.967 183.488 135.261C183.498 134.554 184.059 133.989 184.741 133.999Z" fill="#F43507"/>
<path fill-rule="evenodd" clip-rule="evenodd" d="M179.887 150.846L140.282 120.203L140.776 119.52L180.381 150.163L179.887 150.846Z" fill="#F43507"/>
<path d="M140.939 118.581C141.486 119.004 141.598 119.806 141.189 120.372C140.78 120.938 140.005 121.054 139.459 120.631C138.912 120.208 138.8 119.406 139.209 118.84C139.618 118.274 140.392 118.158 140.939 118.581Z" fill="#F43507"/>
<path d="M180.544 149.225C181.091 149.648 181.203 150.449 180.794 151.015C180.385 151.581 179.61 151.697 179.063 151.274C178.517 150.851 178.405 150.049 178.814 149.483C179.223 148.917 179.997 148.802 180.544 149.225Z" fill="#F43507"/>
<path fill-rule="evenodd" clip-rule="evenodd" d="M167.048 159.902L152.412 111.021L153.199 110.768L167.835 159.65L167.048 159.902Z" fill="#F43507"/>
<path d="M153.864 110.108C154.066 110.783 153.702 111.5 153.049 111.709C152.397 111.918 151.705 111.541 151.503 110.866C151.3 110.191 151.665 109.474 152.318 109.265C152.97 109.056 153.662 109.433 153.864 110.108Z" fill="#F43507"/>
<path d="M168.5 158.99C168.702 159.665 168.337 160.381 167.685 160.59C167.033 160.799 166.34 160.422 166.138 159.747C165.936 159.072 166.301 158.355 166.953 158.146C167.606 157.937 168.298 158.315 168.5 158.99Z" fill="#F43507"/>
<path fill-rule="evenodd" clip-rule="evenodd" d="M151.517 159.418L167.44 110.97L168.221 111.245L152.297 159.693L151.517 159.418Z" fill="#F43507"/>
<path d="M169.134 111.115C168.914 111.784 168.212 112.142 167.565 111.915C166.919 111.687 166.573 110.96 166.793 110.291C167.013 109.623 167.715 109.265 168.361 109.492C169.008 109.72 169.354 110.446 169.134 111.115Z" fill="#F43507"/>
<path d="M153.21 159.564C152.99 160.232 152.288 160.59 151.641 160.363C150.995 160.135 150.649 159.409 150.869 158.74C151.089 158.071 151.791 157.713 152.438 157.94C153.084 158.168 153.43 158.895 153.21 159.564Z" fill="#F43507"/>
<path fill-rule="evenodd" clip-rule="evenodd" d="M139.227 149.58L179.627 120.07L180.103 120.767L139.702 150.277L139.227 149.58Z" fill="#F43507"/>
<path d="M180.915 121.218C180.357 121.625 179.586 121.488 179.192 120.91C178.798 120.333 178.931 119.535 179.489 119.128C180.047 118.72 180.818 118.858 181.212 119.435C181.606 120.012 181.473 120.811 180.915 121.218Z" fill="#F43507"/>
<path d="M140.514 150.728C139.956 151.135 139.185 150.997 138.791 150.42C138.397 149.843 138.53 149.045 139.088 148.637C139.646 148.23 140.417 148.367 140.811 148.945C141.205 149.522 141.072 150.32 140.514 150.728Z" fill="#F43507"/>
<ellipse cx="3.30883" cy="3.39986" rx="3.30883" ry="3.39986" transform="matrix(-0.943275 -0.332011 -0.312242 0.950002 164.183 132.795)" fill="#F43507"/>
</g>
<ellipse cx="29.5792" cy="9.6969" rx="29.5792" ry="9.6969" transform="matrix(0.818577 -0.574396 0.540132 0.841581 89.1455 81.9756)" fill="#B9B8B7"/>
<path d="M149.498 56.1095C149.472 55.8346 149.227 55.6331 148.952 55.6595C148.678 55.6859 148.476 55.9301 148.502 56.205L149.498 56.1095ZM129.667 87.8744L129.383 87.4624L129.374 87.4688L129.667 87.8744ZM112.333 96.9364L112.498 97.4086L112.523 97.4L112.546 97.3888L112.333 96.9364ZM94.6668 98.6791L94.7443 98.1852L94.6668 98.6791ZM148.502 56.205C149.17 63.1665 147.936 67.4827 144.92 71.9085L145.747 72.4716C148.906 67.8354 150.186 63.2816 149.498 56.1095L148.502 56.205ZM144.92 71.9085C141.855 76.4074 138.149 81.4315 129.383 87.4625L129.95 88.2863C138.849 82.1632 142.637 77.0348 145.747 72.4716L144.92 71.9085ZM129.374 87.4688C122.843 92.1776 118.836 93.3243 112.121 96.484L112.546 97.3888C119.165 94.2748 123.328 93.0609 129.959 88.28L129.374 87.4688ZM112.169 96.4643C108.689 97.6771 105.981 98.361 103.327 98.6171C100.675 98.8731 98.0535 98.7042 94.7443 98.1852L94.5894 99.1731C97.9468 99.6997 100.659 99.8793 103.423 99.6125C106.186 99.3458 108.978 98.6355 112.498 97.4086L112.169 96.4643ZM94.7443 98.1852C93.0104 97.9132 91.9586 97.2659 91.2559 96.4403C90.539 95.5979 90.1452 94.5248 89.8158 93.3192L88.8512 93.5828C89.1884 94.8171 89.628 96.0705 90.4944 97.0884C91.3751 98.1231 92.6566 98.8699 94.5894 99.1731L94.7443 98.1852Z" fill="#909DA3"/>
</svg>
