<svg width="467" height="622" viewBox="0 0 467 622" fill="none" xmlns="http://www.w3.org/2000/svg">
<rect width="466.301" height="621.693" rx="35" fill="#FFF6E9"/>
<rect x="2.82617" y="2.43805" width="460.649" height="616.817" rx="200" fill="white" fill-opacity="0.59"/>
<path d="M40.6788 119.808C40.6788 119.808 41.5539 115.179 43.2451 113.72C44.9363 112.261 47.9119 111.506 50.3024 111.506C52.6929 111.506 55.6685 112.261 57.3597 113.72C59.0509 115.179 59.926 117.746 59.926 119.808C59.926 121.871 58.6429 124.79 57.3597 125.897C56.0766 127.004 54.7934 127.557 53.5103 128.664C52.2271 129.771 51.5856 129.771 50.3024 130.878L47.0945 133.645C45.8114 134.752 43.8867 136.966 42.6035 139.18C41.3204 141.394 40.6788 144.715 40.6788 144.715C40.6788 144.715 40.0372 141.394 38.7541 139.18C37.471 136.966 35.5462 134.752 34.2631 133.645L31.0552 130.878C29.7721 129.771 29.1305 129.771 27.8474 128.664C26.5642 127.557 25.2811 127.004 23.9979 125.897C22.7148 124.79 21.4316 121.871 21.4316 119.808C21.4316 117.746 22.3067 115.179 23.9979 113.72C25.6891 112.261 28.6647 111.506 31.0552 111.506C33.4457 111.506 36.4213 112.261 38.1125 113.72C39.8037 115.179 40.6788 119.808 40.6788 119.808Z" fill="#EA83AA"/>
<path d="M425.622 501.707C425.622 501.707 426.497 506.336 428.188 507.795C429.88 509.254 432.855 510.009 435.246 510.009C437.636 510.009 440.612 509.254 442.303 507.795C443.994 506.336 444.869 503.769 444.869 501.707C444.869 499.645 443.586 496.726 442.303 495.619C441.02 494.512 439.737 493.958 438.454 492.852C437.17 491.745 436.529 491.745 435.246 490.638L432.038 487.87C430.755 486.763 428.83 484.549 427.547 482.335C426.264 480.122 425.622 476.801 425.622 476.801C425.622 476.801 424.981 480.122 423.697 482.335C422.414 484.549 420.49 486.763 419.206 487.87L415.999 490.638C414.715 491.745 414.074 491.745 412.791 492.852C411.508 493.958 410.224 494.512 408.941 495.619C407.658 496.726 406.375 499.645 406.375 501.707C406.375 503.769 407.25 506.336 408.941 507.795C410.632 509.254 413.608 510.009 415.999 510.009C418.389 510.009 421.365 509.254 423.056 507.795C424.747 506.336 425.622 501.707 425.622 501.707Z" fill="#EA83AA"/>
<path d="M60.3204 100.351H55.0324L51.3735 86.8089H35.2339L31.5749 100.351H26.5376L40.1209 51.7634H46.7371L60.3204 100.351ZM49.8447 81.2617L43.3037 57.4086L36.7376 81.2617H49.8447V81.2617Z" fill="#EA83AA"/>
<path d="M442.136 519.762H436.848L433.189 533.304H417.05L413.391 519.762H408.354L421.937 568.35H428.553L442.136 519.762ZM431.661 538.851L425.12 562.705L418.554 538.851H431.661V538.851Z" fill="#EA83AA"/>
<path fill-rule="evenodd" clip-rule="evenodd" d="M217.326 80.5274C216.971 81.4074 217.189 85.6645 217.654 86.9462C218.199 88.4499 218.04 88.5413 216.326 87.7091C213.102 86.1435 209.316 86.9799 207.628 89.6316C206.663 91.1469 206.776 91.1114 205.541 90.297C203.834 89.1711 200.688 88.8749 198.125 89.5997C195.631 90.3049 192.984 93.3086 190.248 98.5365C189.436 100.088 188.506 101.694 188.182 102.106C183.633 107.869 183.338 116.208 187.532 120.473L188.756 121.717L188.91 126.01C189.046 129.779 189.319 132.237 189.76 133.675C189.856 133.986 190.146 135.044 189.76 135.044C189.369 135.044 189.483 135.044 188.827 134.698C184.008 132.284 186.733 134.077 186.584 134.124C188.195 135.964 188.517 136.27 190.127 136.883C191.418 136.883 191.4 141.253 189.315 145.94C186.763 151.679 187.067 156.124 190.321 160.653C192.306 163.416 192.258 163.667 188.321 171.146C187.077 173.507 185.668 176.488 185.189 177.769L184.318 180.098L184.321 184.759C184.323 188.507 184.411 189.68 184.771 190.75L185.219 192.081L184.525 193.694C182.998 197.242 183.418 201.922 185.64 206.118L186.82 208.344L186.178 209.552C185.825 210.216 184.765 212.416 183.823 214.44C182.881 216.463 181.999 218.34 181.865 218.61C179.178 223.987 173.574 238.709 172.743 242.577C171.034 250.53 174.161 254.716 182.411 255.52C187.82 256.047 188.147 256.246 190.262 260.286C191.999 263.606 192.051 263.29 189.552 264.603C179.933 269.657 162.52 284.603 153.141 295.854C152.716 296.365 151.731 297.522 150.951 298.427C147.103 302.895 141.554 309.66 140.725 310.894C140.472 311.27 139.337 312.76 138.201 314.205C135.119 318.127 133.364 320.476 127.778 328.158C125.874 330.776 124.25 332.973 124.169 333.041C124.089 333.108 123.478 333.936 122.813 334.881C122.147 335.825 120.833 337.646 119.893 338.928C118.954 340.21 117.67 341.998 117.042 342.902C116.415 343.806 115.787 344.613 115.648 344.695C114.763 345.216 115.5 346.273 117.52 347.38C119.145 348.27 119.174 348.176 115.82 352.998C102.224 372.547 96.621 383.096 99.3168 384.072C100.883 384.639 108.632 389.256 111.994 391.625C114.054 393.077 114.047 393.059 113.462 395.592C113.259 396.469 113.09 398.238 113.085 399.523L113.076 401.86L114.686 402.529C116.07 403.103 122.311 406.316 124.847 407.758C125.889 408.351 135.022 413.354 138.584 415.282C155.277 424.323 174.959 432.213 189.6 435.734C194.122 436.822 193.601 436.343 194.097 439.868C194.861 445.31 197.999 456.532 199.652 459.737C199.791 460.007 200.592 462.104 201.432 464.398C203.599 470.318 204.62 472.816 210.579 486.79C214.543 496.084 214.242 501.574 209.509 506.274C207.921 507.851 201.722 513.198 200.164 514.335C196.628 516.914 195.126 519.309 196.031 520.92C197.54 523.604 210.108 523.127 214.818 520.208C220.856 516.464 222.191 516.067 222.458 517.934C222.549 518.575 223.206 521.307 223.916 524.005L225.208 528.911L225.389 534.553C225.594 540.923 225.717 541.375 227.715 543.093L228.765 543.997H233.579C239.822 543.997 240.895 543.745 242.652 541.867C245.216 539.129 245.247 536.195 242.77 530.726C241.829 528.648 240.684 525.845 240.224 524.496C239.765 523.146 238.915 520.796 238.336 519.273C235.805 512.614 236.328 507.528 240.688 496.409C242.774 491.087 244.826 485.897 245.367 484.572C252.31 467.577 256.859 451.861 258.156 440.395C258.446 437.828 258.547 437.466 259.019 437.301C259.313 437.199 262.511 436.554 266.124 435.868C279.453 433.338 294.307 429.303 305.546 425.159C313.204 422.335 318.664 420.234 322.809 418.515C323.872 418.074 325.901 417.25 327.318 416.683C328.735 416.116 330.04 415.54 330.217 415.404C330.665 415.058 330.626 411.6 330.15 409.461C329.941 408.523 329.858 407.671 329.966 407.568C330.329 407.223 333.91 405.644 337.452 404.267C347.499 400.363 348.503 399.26 346.41 394.424C344.892 390.916 344.989 390.244 347.307 388.233C348.011 387.623 348.503 387.266 352.182 384.703C356.518 381.682 357.402 379.907 355.583 377.878C352.21 374.116 345.976 364.911 340.002 354.872C339.159 353.456 338.122 351.772 337.698 351.132C337.273 350.49 336.678 349.525 336.373 348.986C336.069 348.448 335.125 346.82 334.275 345.369C333.425 343.917 332.683 342.62 332.626 342.485C332.427 342.013 328.684 335.913 327.603 334.3C327.003 333.405 326.44 332.488 326.351 332.263C325.978 331.313 318.855 320.655 316.543 317.587C315.133 315.717 314.454 314.648 314.608 314.544C314.654 314.512 315.231 314.193 315.888 313.835C318.774 312.262 323.212 306.637 323.018 304.797C322.941 304.063 322.852 304.01 320.619 303.379C318.077 302.66 315.291 301.354 313.204 299.904C312.464 299.389 311.222 298.548 310.445 298.036C309.667 297.524 303.579 291.962 296.918 285.676C283.043 272.585 281.604 271.291 278.131 268.773C275.073 266.557 275.065 266.516 277.624 266.164C281.74 265.599 286.434 264.144 287.381 263.138C289.623 260.756 286.537 243.945 280.716 226.839L280.095 225.012L281.654 224.141C282.512 223.662 283.82 222.746 284.56 222.105C285.815 221.02 286.002 220.94 287.288 220.939C290.375 220.937 294.701 216.214 296.316 211.08C296.504 210.483 297.182 209.5 297.963 208.695C300.363 206.221 300.908 204.541 300.908 199.632C300.908 193.372 299.712 190.143 294.487 182.306C293.227 180.417 291.844 178.32 291.414 177.645C290.982 176.97 290.047 175.535 289.334 174.456C283.091 164.994 278.207 154.731 275.385 145.143C269.366 124.682 262.352 110.638 255.014 104.356C253.542 103.095 247.899 99.5177 247.383 99.5177C247.302 99.5177 246.53 99.2019 245.666 98.8155C244.801 98.4298 243.196 97.8613 242.098 97.5535C239.848 96.9225 239.684 96.7047 241.067 96.1878C241.599 95.9891 242.207 95.7199 242.42 95.5893C242.632 95.4593 243.242 95.1281 243.774 94.854C247.78 92.7892 250.027 88.8227 248.855 85.8871L248.591 85.2254L245.956 85.3499C244.376 85.4254 242.301 85.3401 240.77 85.1384C238.265 84.8072 237.524 84.9053 237.524 85.5682C237.524 86.157 234.394 90.2951 232.678 91.9748C229.716 94.8742 229.018 94.4885 228.131 89.4605C227.905 88.1788 227.654 86.8187 227.574 86.4372C227.301 85.1525 225.983 84.0928 222.729 82.5425C221.018 81.7275 219.309 80.853 218.933 80.5997C218.098 80.0374 217.533 80.0116 217.326 80.5274Z" fill="#EA83AA"/>
</svg>
