<svg width="1615" height="622" viewBox="0 0 1615 622" fill="none" xmlns="http://www.w3.org/2000/svg">
<rect width="466.301" height="621.693" rx="35" fill="#FFF6E9"/>
<rect x="2.82617" y="2.43805" width="460.649" height="616.817" rx="200" fill="white" fill-opacity="0.59"/>
<path d="M40.6788 119.808C40.6788 119.808 41.5539 115.179 43.2451 113.72C44.9363 112.261 47.9119 111.506 50.3024 111.506C52.6929 111.506 55.6685 112.261 57.3597 113.72C59.0509 115.179 59.926 117.746 59.926 119.808C59.926 121.871 58.6429 124.79 57.3597 125.897C56.0766 127.004 54.7934 127.557 53.5103 128.664C52.2271 129.771 51.5856 129.771 50.3024 130.878L47.0945 133.645C45.8114 134.752 43.8867 136.966 42.6035 139.18C41.3204 141.394 40.6788 144.715 40.6788 144.715C40.6788 144.715 40.0372 141.394 38.7541 139.18C37.471 136.966 35.5462 134.752 34.2631 133.645L31.0552 130.878C29.7721 129.771 29.1305 129.771 27.8474 128.664C26.5642 127.557 25.2811 127.004 23.9979 125.897C22.7148 124.79 21.4316 121.871 21.4316 119.808C21.4316 117.746 22.3067 115.179 23.9979 113.72C25.6891 112.261 28.6647 111.506 31.0552 111.506C33.4457 111.506 36.4213 112.261 38.1125 113.72C39.8037 115.179 40.6788 119.808 40.6788 119.808Z" fill="#EA83AA"/>
<path d="M425.622 501.707C425.622 501.707 426.497 506.336 428.188 507.795C429.88 509.254 432.855 510.009 435.246 510.009C437.636 510.009 440.612 509.254 442.303 507.795C443.994 506.336 444.869 503.769 444.869 501.707C444.869 499.645 443.586 496.726 442.303 495.619C441.02 494.512 439.737 493.958 438.454 492.852C437.17 491.745 436.529 491.745 435.246 490.638L432.038 487.87C430.755 486.763 428.83 484.549 427.547 482.335C426.264 480.122 425.622 476.801 425.622 476.801C425.622 476.801 424.981 480.122 423.697 482.335C422.414 484.549 420.49 486.763 419.206 487.87L415.999 490.638C414.715 491.745 414.074 491.745 412.791 492.852C411.508 493.958 410.224 494.512 408.941 495.619C407.658 496.726 406.375 499.645 406.375 501.707C406.375 503.769 407.25 506.336 408.941 507.795C410.632 509.254 413.608 510.009 415.999 510.009C418.389 510.009 421.365 509.254 423.056 507.795C424.747 506.336 425.622 501.707 425.622 501.707Z" fill="#EA83AA"/>
<path d="M60.3204 100.351H55.0324L51.3735 86.8089H35.2339L31.5749 100.351H26.5376L40.1209 51.7634H46.7371L60.3204 100.351ZM49.8447 81.2617L43.3037 57.4086L36.7376 81.2617H49.8447V81.2617Z" fill="#EA83AA"/>
<path d="M442.136 519.762H436.848L433.189 533.304H417.05L413.391 519.762H408.354L421.937 568.35H428.553L442.136 519.762ZM431.661 538.851L425.12 562.705L418.554 538.851H431.661V538.851Z" fill="#EA83AA"/>
<path fill-rule="evenodd" clip-rule="evenodd" d="M217.326 80.5274C216.971 81.4074 217.189 85.6645 217.654 86.9462C218.199 88.4499 218.04 88.5413 216.326 87.7091C213.102 86.1435 209.316 86.9799 207.628 89.6316C206.663 91.1469 206.776 91.1114 205.541 90.297C203.834 89.1711 200.688 88.8749 198.125 89.5997C195.631 90.3049 192.984 93.3086 190.248 98.5365C189.436 100.088 188.506 101.694 188.182 102.106C183.633 107.869 183.338 116.208 187.532 120.473L188.756 121.717L188.91 126.01C189.046 129.779 189.319 132.237 189.76 133.675C189.856 133.986 190.146 135.044 189.76 135.044C189.369 135.044 189.483 135.044 188.827 134.698C184.008 132.284 186.733 134.077 186.584 134.124C188.195 135.964 188.517 136.27 190.127 136.883C191.418 136.883 191.4 141.253 189.315 145.94C186.763 151.679 187.067 156.124 190.321 160.653C192.306 163.416 192.258 163.667 188.321 171.146C187.077 173.507 185.668 176.488 185.189 177.769L184.318 180.098L184.321 184.759C184.323 188.507 184.411 189.68 184.771 190.75L185.219 192.081L184.525 193.694C182.998 197.242 183.418 201.922 185.64 206.118L186.82 208.344L186.178 209.552C185.825 210.216 184.765 212.416 183.823 214.44C182.881 216.463 181.999 218.34 181.865 218.61C179.178 223.987 173.574 238.709 172.743 242.577C171.034 250.53 174.161 254.716 182.411 255.52C187.82 256.047 188.147 256.246 190.262 260.286C191.999 263.606 192.051 263.29 189.552 264.603C179.933 269.657 162.52 284.603 153.141 295.854C152.716 296.365 151.731 297.522 150.951 298.427C147.103 302.895 141.554 309.66 140.725 310.894C140.472 311.27 139.337 312.76 138.201 314.205C135.119 318.127 133.364 320.476 127.778 328.158C125.874 330.776 124.25 332.973 124.169 333.041C124.089 333.108 123.478 333.936 122.813 334.881C122.147 335.825 120.833 337.646 119.893 338.928C118.954 340.21 117.67 341.998 117.042 342.902C116.415 343.806 115.787 344.613 115.648 344.695C114.763 345.216 115.5 346.273 117.52 347.38C119.145 348.27 119.174 348.176 115.82 352.998C102.224 372.547 96.621 383.096 99.3168 384.072C100.883 384.639 108.632 389.256 111.994 391.625C114.054 393.077 114.047 393.059 113.462 395.592C113.259 396.469 113.09 398.238 113.085 399.523L113.076 401.86L114.686 402.529C116.07 403.103 122.311 406.316 124.847 407.758C125.889 408.351 135.022 413.354 138.584 415.282C155.277 424.323 174.959 432.213 189.6 435.734C194.122 436.822 193.601 436.343 194.097 439.868C194.861 445.31 197.999 456.532 199.652 459.737C199.791 460.007 200.592 462.104 201.432 464.398C203.599 470.318 204.62 472.816 210.579 486.79C214.543 496.084 214.242 501.574 209.509 506.274C207.921 507.851 201.722 513.198 200.164 514.335C196.628 516.914 195.126 519.309 196.031 520.92C197.54 523.604 210.108 523.127 214.818 520.208C220.856 516.464 222.191 516.067 222.458 517.934C222.549 518.575 223.206 521.307 223.916 524.005L225.208 528.911L225.389 534.553C225.594 540.923 225.717 541.375 227.715 543.093L228.765 543.997H233.579C239.822 543.997 240.895 543.745 242.652 541.867C245.216 539.129 245.247 536.195 242.77 530.726C241.829 528.648 240.684 525.845 240.224 524.496C239.765 523.146 238.915 520.796 238.336 519.273C235.805 512.614 236.328 507.528 240.688 496.409C242.774 491.087 244.826 485.897 245.367 484.572C252.31 467.577 256.859 451.861 258.156 440.395C258.446 437.828 258.547 437.466 259.019 437.301C259.313 437.199 262.511 436.554 266.124 435.868C279.453 433.338 294.307 429.303 305.546 425.159C313.204 422.335 318.664 420.234 322.809 418.515C323.872 418.074 325.901 417.25 327.318 416.683C328.735 416.116 330.04 415.54 330.217 415.404C330.665 415.058 330.626 411.6 330.15 409.461C329.941 408.523 329.858 407.671 329.966 407.568C330.329 407.223 333.91 405.644 337.452 404.267C347.499 400.363 348.503 399.26 346.41 394.424C344.892 390.916 344.989 390.244 347.307 388.233C348.011 387.623 348.503 387.266 352.182 384.703C356.518 381.682 357.402 379.907 355.583 377.878C352.21 374.116 345.976 364.911 340.002 354.872C339.159 353.456 338.122 351.772 337.698 351.132C337.273 350.49 336.678 349.525 336.373 348.986C336.069 348.448 335.125 346.82 334.275 345.369C333.425 343.917 332.683 342.62 332.626 342.485C332.427 342.013 328.684 335.913 327.603 334.3C327.003 333.405 326.44 332.488 326.351 332.263C325.978 331.313 318.855 320.655 316.543 317.587C315.133 315.717 314.454 314.648 314.608 314.544C314.654 314.512 315.231 314.193 315.888 313.835C318.774 312.262 323.212 306.637 323.018 304.797C322.941 304.063 322.852 304.01 320.619 303.379C318.077 302.66 315.291 301.354 313.204 299.904C312.464 299.389 311.222 298.548 310.445 298.036C309.667 297.524 303.579 291.962 296.918 285.676C283.043 272.585 281.604 271.291 278.131 268.773C275.073 266.557 275.065 266.516 277.624 266.164C281.74 265.599 286.434 264.144 287.381 263.138C289.623 260.756 286.537 243.945 280.716 226.839L280.095 225.012L281.654 224.141C282.512 223.662 283.82 222.746 284.56 222.105C285.815 221.02 286.002 220.94 287.288 220.939C290.375 220.937 294.701 216.214 296.316 211.08C296.504 210.483 297.182 209.5 297.963 208.695C300.363 206.221 300.908 204.541 300.908 199.632C300.908 193.372 299.712 190.143 294.487 182.306C293.227 180.417 291.844 178.32 291.414 177.645C290.982 176.97 290.047 175.535 289.334 174.456C283.091 164.994 278.207 154.731 275.385 145.143C269.366 124.682 262.352 110.638 255.014 104.356C253.542 103.095 247.899 99.5177 247.383 99.5177C247.302 99.5177 246.53 99.2019 245.666 98.8155C244.801 98.4298 243.196 97.8613 242.098 97.5535C239.848 96.9225 239.684 96.7047 241.067 96.1878C241.599 95.9891 242.207 95.7199 242.42 95.5893C242.632 95.4593 243.242 95.1281 243.774 94.854C247.78 92.7892 250.027 88.8227 248.855 85.8871L248.591 85.2254L245.956 85.3499C244.376 85.4254 242.301 85.3401 240.77 85.1384C238.265 84.8072 237.524 84.9053 237.524 85.5682C237.524 86.157 234.394 90.2951 232.678 91.9748C229.716 94.8742 229.018 94.4885 228.131 89.4605C227.905 88.1788 227.654 86.8187 227.574 86.4372C227.301 85.1525 225.983 84.0928 222.729 82.5425C221.018 81.7275 219.309 80.853 218.933 80.5997C218.098 80.0374 217.533 80.0116 217.326 80.5274Z" fill="#EA83AA"/>
<rect x="573.384" width="466.301" height="621.693" rx="35" fill="#FFF6E9"/>
<rect x="576.21" y="2.43805" width="460.649" height="616.817" rx="200" fill="white" fill-opacity="0.59"/>
<path d="M614.063 119.808C614.063 119.808 614.938 115.179 616.629 113.72C618.32 112.261 621.296 111.506 623.686 111.506C626.077 111.506 629.052 112.261 630.744 113.72C632.435 115.179 633.31 117.746 633.31 119.808C633.31 121.871 632.027 124.79 630.744 125.897C629.46 127.004 628.177 127.557 626.894 128.664C625.611 129.771 624.969 129.771 623.686 130.878L620.478 133.645C619.195 134.752 617.27 136.966 615.987 139.18C614.704 141.394 614.063 144.715 614.063 144.715C614.063 144.715 613.421 141.394 612.138 139.18C610.855 136.966 608.93 134.752 607.647 133.645L604.439 130.878C603.156 129.771 602.514 129.771 601.231 128.664C599.948 127.557 598.665 127.004 597.382 125.897C596.099 124.79 594.815 121.871 594.815 119.808C594.815 117.746 595.691 115.179 597.382 113.72C599.073 112.261 602.049 111.506 604.439 111.506C606.83 111.506 609.805 112.261 611.496 113.72C613.188 115.179 614.063 119.808 614.063 119.808Z" fill="#48ABD7"/>
<path d="M999.006 501.707C999.006 501.707 999.881 506.336 1001.57 507.795C1003.26 509.254 1006.24 510.009 1008.63 510.009C1011.02 510.009 1014 509.254 1015.69 507.795C1017.38 506.336 1018.25 503.769 1018.25 501.707C1018.25 499.645 1016.97 496.726 1015.69 495.619C1014.4 494.512 1013.12 493.958 1011.84 492.851C1010.55 491.745 1009.91 491.745 1008.63 490.638L1005.42 487.87C1004.14 486.763 1002.21 484.549 1000.93 482.335C999.648 480.122 999.006 476.801 999.006 476.801C999.006 476.801 998.364 480.122 997.081 482.335C995.798 484.549 993.873 486.763 992.59 487.87L989.382 490.638C988.099 491.745 987.458 491.745 986.175 492.851C984.891 493.958 983.608 494.512 982.325 495.619C981.042 496.726 979.759 499.645 979.759 501.707C979.759 503.769 980.634 506.336 982.325 507.795C984.016 509.254 986.992 510.009 989.382 510.009C991.773 510.009 994.748 509.254 996.44 507.795C998.131 506.336 999.006 501.707 999.006 501.707Z" fill="#48ABD7"/>
<path d="M633.704 100.351H628.416L624.757 86.8089H608.618L604.959 100.351H599.921L613.505 51.7634H620.121L633.704 100.351ZM623.229 81.2617L616.687 57.4086L610.121 81.2617H623.229V81.2617Z" fill="#48ABD7"/>
<path d="M1015.52 519.762H1010.23L1006.57 533.304H990.434L986.775 519.762H981.737L995.321 568.35H1001.94L1015.52 519.762ZM1005.04 538.851L998.503 562.705L991.937 538.851H1005.04V538.851Z" fill="#48ABD7"/>
<rect x="1148.69" width="466.301" height="621.693" rx="35" fill="#FFF6E9"/>
<rect x="1151.51" y="2.43805" width="460.649" height="616.817" rx="200" fill="white" fill-opacity="0.59"/>
<path d="M1189.36 119.808C1189.36 119.808 1190.24 115.179 1191.93 113.72C1193.62 112.261 1196.6 111.506 1198.99 111.506C1201.38 111.506 1204.35 112.261 1206.04 113.72C1207.74 115.179 1208.61 117.746 1208.61 119.808C1208.61 121.871 1207.33 124.79 1206.04 125.897C1204.76 127.004 1203.48 127.557 1202.2 128.664C1200.91 129.771 1200.27 129.771 1198.99 130.878L1195.78 133.645C1194.5 134.752 1192.57 136.966 1191.29 139.18C1190.01 141.394 1189.36 144.715 1189.36 144.715C1189.36 144.715 1188.72 141.394 1187.44 139.18C1186.16 136.966 1184.23 134.752 1182.95 133.645L1179.74 130.878C1178.46 129.771 1177.82 129.771 1176.53 128.664C1175.25 127.557 1173.97 127.004 1172.68 125.897C1171.4 124.79 1170.12 121.871 1170.12 119.808C1170.12 117.746 1170.99 115.179 1172.68 113.72C1174.37 112.261 1177.35 111.506 1179.74 111.506C1182.13 111.506 1185.11 112.261 1186.8 113.72C1188.49 115.179 1189.36 119.808 1189.36 119.808Z" fill="#279B61"/>
<path d="M1574.31 501.707C1574.31 501.707 1575.18 506.336 1576.87 507.795C1578.56 509.254 1581.54 510.009 1583.93 510.009C1586.32 510.009 1589.3 509.254 1590.99 507.795C1592.68 506.336 1593.55 503.769 1593.55 501.707C1593.55 499.645 1592.27 496.726 1590.99 495.619C1589.7 494.512 1588.42 493.958 1587.14 492.851C1585.86 491.745 1585.21 491.745 1583.93 490.638L1580.72 487.87C1579.44 486.763 1577.52 484.549 1576.23 482.335C1574.95 480.122 1574.31 476.801 1574.31 476.801C1574.31 476.801 1573.67 480.122 1572.38 482.335C1571.1 484.549 1569.17 486.763 1567.89 487.87L1564.68 490.638C1563.4 491.745 1562.76 491.745 1561.48 492.851C1560.19 493.958 1558.91 494.512 1557.63 495.619C1556.34 496.726 1555.06 499.645 1555.06 501.707C1555.06 503.769 1555.94 506.336 1557.63 507.795C1559.32 509.254 1562.29 510.009 1564.68 510.009C1567.07 510.009 1570.05 509.254 1571.74 507.795C1573.43 506.336 1574.31 501.707 1574.31 501.707Z" fill="#279B61"/>
<path d="M1209.01 100.351H1203.72L1200.06 86.8089H1183.92L1180.26 100.351H1175.22L1188.81 51.7634H1195.42L1209.01 100.351ZM1198.53 81.2617L1191.99 57.4086L1185.42 81.2617H1198.53V81.2617Z" fill="#279B61"/>
<path d="M1590.82 519.762H1585.53L1581.87 533.304H1565.74L1562.08 519.762H1557.04L1570.62 568.35H1577.24L1590.82 519.762ZM1580.35 538.851L1573.81 562.705L1567.24 538.851H1580.35V538.851Z" fill="#279B61"/>
<mask id="path-20-inside-1_329_278" fill="white">
<path d="M857.076 92.9335L854.065 89.8831L851.748 88.1399L848.273 85.961H845.262H841.092L839.007 87.2684L836.227 91.8441V94.4588L837.617 97.5092L836.227 99.0345L834.606 100.778V102.739V104.482V106.225V108.622V110.365V112.326L833.679 113.197V115.158L831.363 116.684L828.583 120.17L827.424 122.131C827.424 122.131 827.454 124.062 827.424 126.053C827.395 128.044 826.729 132.154 826.729 132.154L826.961 135.422L826.729 138.909L826.035 140.87V143.048L828.119 145.445L831.594 147.188H835.301L832.984 148.932L832.753 150.457V152.2L830.204 154.379H827.656H823.255L824.181 152.2L823.255 147.188L820.706 143.702L818.622 141.741L816.768 140.87L814.22 140.216H807.271L804.954 141.741L801.479 144.356L799.163 146.753L797.773 150.021L797.078 152.2L795.919 155.25L794.761 158.083V161.351V163.748V165.709L789.433 169.631L783.873 173.335L779.009 176.604L775.534 175.078L772.754 177.257L771.596 177.475L767.658 180.308L763.488 180.744L759.318 181.397L755.843 181.615H754.917L753.063 178.347L752.137 175.514L749.588 171.592L737.079 152.2L729.666 137.601L727.35 133.461V130.629L727.118 128.014L725.265 125.617L719.473 121.041L716.23 119.734L712.755 116.902L710.902 115.594L709.512 114.723L709.281 115.812L709.049 117.337L709.281 118.645L710.902 119.298L712.524 120.388L713.682 121.259L714.84 123.002L704.184 121.695L698.856 120.388L696.771 119.734L695.15 118.645L691.212 117.337L689.127 116.902H688.663V118.209L689.358 119.08L689.59 119.952L691.212 121.695L694.223 124.092L697.235 126.489L698.161 128.45L699.319 130.629L700.709 131.282L706.501 132.154L710.902 132.808L714.84 133.897L718.083 136.294L720.863 139.78L723.18 145.009L726.886 158.737L731.056 173.989L734.531 182.487L739.627 194.035L742.176 197.957L744.492 199.918L751.905 200.354L758.16 199.7L765.109 197.957L770.206 196.65L774.144 195.56H780.399L783.873 195.124L785.495 193.381L785.032 192.51L789.896 189.677L793.14 188.588H794.993L796.846 191.202L800.089 198.175L801.711 203.404L802.869 211.03V217.131V219.964L801.711 222.361L800.553 225.411L798.236 228.898L797.541 229.769V230.423H794.761L791.286 230.641L788.97 231.294L786.19 232.384L782.947 233.691L778.545 236.524L776.229 237.613L770.437 241.971L766.963 245.239L764.646 247.636L760.476 251.994L757.928 255.262L755.612 259.838L752.832 264.85L750.515 270.079L749.125 274.655L748.43 279.666L747.967 285.113V289.035L748.894 292.304L749.82 294.265L746.577 298.841L744.26 302.109L741.481 306.903L738.237 311.696L725.728 335.228L718.315 352.878L710.902 374.013L705.574 390.137L702.563 395.366L692.37 406.261L682.177 414.759L668.278 423.474L659.938 428.268L656.927 434.587L656 440.47L656.463 447.006L659.938 451.8L663.413 455.068L668.046 458.555L670.363 461.605V465.091L668.973 467.27L668.046 469.667L667.583 475.114L668.046 478.165L670.363 483.83L675.459 489.931L679.397 492.328L686.81 495.378L693.528 496.904H702.794L709.976 495.378L717.852 492.981L727.813 490.367L742.639 488.406L747.504 490.149L750.978 491.892L755.612 495.378V497.121L754.685 499.3L748.662 504.312L739.627 508.016L738.237 511.938L740.786 514.771L746.577 517.385L751.905 519.128L760.476 520L770.437 519.782L791.981 514.117L798.236 512.81L808.429 512.592L819.317 514.117L828.351 516.296L840.629 518.911H846.188H853.138L862.173 516.95L870.512 513.681L880.473 507.362L884.18 505.183H894.836L907.809 507.362L918.696 508.234L926.341 507.798L936.534 505.401L941.399 503.222L949.275 496.686L951.591 492.11L952.286 487.534L951.591 484.484L954.835 481.651L958.309 480.78L966.186 478.383L975.452 471.192L978 465.745V462.695V459.862L956.224 440.47L941.167 422.167L933.059 402.339L930.279 394.059L927.499 382.293L926.109 374.013L923.329 361.811L919.16 348.302L918.001 346.123L916.843 343.508L918.696 333.485L921.245 323.244L922.635 318.669L923.329 314.093L923.793 300.584V294.483L921.245 285.767L918.001 280.102L916.148 275.526L913.137 272.476L909.199 269.861H908.504L908.67 269.51L905.26 267.246L890.203 267.9L887.423 269.861L882.79 270.951L881.632 267.246L876.535 261.799L873.292 257.441L861.246 244.804L853.138 239.792L842.945 234.998L837.617 233.473V229.987L835.532 224.54L839.007 219.746L842.019 213.863L849.2 210.159L854.296 203.622L856.15 202.533V210.159L854.296 211.902L854.991 213.863L856.15 216.042L858.235 218.221V224.54L860.319 230.859L865.416 234.998L892.519 251.558L907.577 261.799L909.43 264.414V267.9L908.67 269.51L909.199 269.861L913.137 272.476L916.148 275.526L918.001 280.102L921.245 285.767L923.793 294.483L925.414 292.304L926.573 288.818L927.268 285.767V280.538L926.573 278.795L929.353 279.012L930.742 281.191L932.827 283.152L934.681 284.024L935.376 283.588V282.717L931.901 278.359L930.047 276.398L926.109 274.001L921.245 269.207L917.538 260.928L909.43 251.558L904.102 246.329L891.824 233.473L882.79 224.976L875.377 219.746L873.524 213.863L873.292 209.287L874.45 206.891V204.712L872.134 204.276V202.533V196.214L876.535 192.946L882.558 185.973L886.033 177.257V167.67L880.242 162.659L873.524 161.133L864.258 163.748L860.088 165.927H858.466L853.37 160.044V153.725L854.528 148.278L858.466 147.188L862.404 143.702H868.427L872.134 142.685L882.558 136.294L889.74 127.578L892.056 119.08V116.684L895.531 108.622V102.739L892.056 97.5092H889.74V94.4588L887.886 89.8831L885.106 89.2294L881.4 88.1399L879.315 87.2684L876.999 85.0895L872.134 84L866.342 88.1399L865.647 90.9725V92.9335H857.076Z"/>
</mask>
<path d="M857.076 92.9335L854.065 89.8831L851.748 88.1399L848.273 85.961H845.262H841.092L839.007 87.2684L836.227 91.8441V94.4588L837.617 97.5092L836.227 99.0345L834.606 100.778V102.739V104.482V106.225V108.622V110.365V112.326L833.679 113.197V115.158L831.363 116.684L828.583 120.17L827.424 122.131C827.424 122.131 827.454 124.062 827.424 126.053C827.395 128.044 826.729 132.154 826.729 132.154L826.961 135.422L826.729 138.909L826.035 140.87V143.048L828.119 145.445L831.594 147.188H835.301L832.984 148.932L832.753 150.457V152.2L830.204 154.379H827.656H823.255L824.181 152.2L823.255 147.188L820.706 143.702L818.622 141.741L816.768 140.87L814.22 140.216H807.271L804.954 141.741L801.479 144.356L799.163 146.753L797.773 150.021L797.078 152.2L795.919 155.25L794.761 158.083V161.351V163.748V165.709L789.433 169.631L783.873 173.335L779.009 176.604L775.534 175.078L772.754 177.257L771.596 177.475L767.658 180.308L763.488 180.744L759.318 181.397L755.843 181.615H754.917L753.063 178.347L752.137 175.514L749.588 171.592L737.079 152.2L729.666 137.601L727.35 133.461V130.629L727.118 128.014L725.265 125.617L719.473 121.041L716.23 119.734L712.755 116.902L710.902 115.594L709.512 114.723L709.281 115.812L709.049 117.337L709.281 118.645L710.902 119.298L712.524 120.388L713.682 121.259L714.84 123.002L704.184 121.695L698.856 120.388L696.771 119.734L695.15 118.645L691.212 117.337L689.127 116.902H688.663V118.209L689.358 119.08L689.59 119.952L691.212 121.695L694.223 124.092L697.235 126.489L698.161 128.45L699.319 130.629L700.709 131.282L706.501 132.154L710.902 132.808L714.84 133.897L718.083 136.294L720.863 139.78L723.18 145.009L726.886 158.737L731.056 173.989L734.531 182.487L739.627 194.035L742.176 197.957L744.492 199.918L751.905 200.354L758.16 199.7L765.109 197.957L770.206 196.65L774.144 195.56H780.399L783.873 195.124L785.495 193.381L785.032 192.51L789.896 189.677L793.14 188.588H794.993L796.846 191.202L800.089 198.175L801.711 203.404L802.869 211.03V217.131V219.964L801.711 222.361L800.553 225.411L798.236 228.898L797.541 229.769V230.423H794.761L791.286 230.641L788.97 231.294L786.19 232.384L782.947 233.691L778.545 236.524L776.229 237.613L770.437 241.971L766.963 245.239L764.646 247.636L760.476 251.994L757.928 255.262L755.612 259.838L752.832 264.85L750.515 270.079L749.125 274.655L748.43 279.666L747.967 285.113V289.035L748.894 292.304L749.82 294.265L746.577 298.841L744.26 302.109L741.481 306.903L738.237 311.696L725.728 335.228L718.315 352.878L710.902 374.013L705.574 390.137L702.563 395.366L692.37 406.261L682.177 414.759L668.278 423.474L659.938 428.268L656.927 434.587L656 440.47L656.463 447.006L659.938 451.8L663.413 455.068L668.046 458.555L670.363 461.605V465.091L668.973 467.27L668.046 469.667L667.583 475.114L668.046 478.165L670.363 483.83L675.459 489.931L679.397 492.328L686.81 495.378L693.528 496.904H702.794L709.976 495.378L717.852 492.981L727.813 490.367L742.639 488.406L747.504 490.149L750.978 491.892L755.612 495.378V497.121L754.685 499.3L748.662 504.312L739.627 508.016L738.237 511.938L740.786 514.771L746.577 517.385L751.905 519.128L760.476 520L770.437 519.782L791.981 514.117L798.236 512.81L808.429 512.592L819.317 514.117L828.351 516.296L840.629 518.911H846.188H853.138L862.173 516.95L870.512 513.681L880.473 507.362L884.18 505.183H894.836L907.809 507.362L918.696 508.234L926.341 507.798L936.534 505.401L941.399 503.222L949.275 496.686L951.591 492.11L952.286 487.534L951.591 484.484L954.835 481.651L958.309 480.78L966.186 478.383L975.452 471.192L978 465.745V462.695V459.862L956.224 440.47L941.167 422.167L933.059 402.339L930.279 394.059L927.499 382.293L926.109 374.013L923.329 361.811L919.16 348.302L918.001 346.123L916.843 343.508L918.696 333.485L921.245 323.244L922.635 318.669L923.329 314.093L923.793 300.584V294.483L921.245 285.767L918.001 280.102L916.148 275.526L913.137 272.476L909.199 269.861H908.504L908.67 269.51L905.26 267.246L890.203 267.9L887.423 269.861L882.79 270.951L881.632 267.246L876.535 261.799L873.292 257.441L861.246 244.804L853.138 239.792L842.945 234.998L837.617 233.473V229.987L835.532 224.54L839.007 219.746L842.019 213.863L849.2 210.159L854.296 203.622L856.15 202.533V210.159L854.296 211.902L854.991 213.863L856.15 216.042L858.235 218.221V224.54L860.319 230.859L865.416 234.998L892.519 251.558L907.577 261.799L909.43 264.414V267.9L908.67 269.51L909.199 269.861L913.137 272.476L916.148 275.526L918.001 280.102L921.245 285.767L923.793 294.483L925.414 292.304L926.573 288.818L927.268 285.767V280.538L926.573 278.795L929.353 279.012L930.742 281.191L932.827 283.152L934.681 284.024L935.376 283.588V282.717L931.901 278.359L930.047 276.398L926.109 274.001L921.245 269.207L917.538 260.928L909.43 251.558L904.102 246.329L891.824 233.473L882.79 224.976L875.377 219.746L873.524 213.863L873.292 209.287L874.45 206.891V204.712L872.134 204.276V202.533V196.214L876.535 192.946L882.558 185.973L886.033 177.257V167.67L880.242 162.659L873.524 161.133L864.258 163.748L860.088 165.927H858.466L853.37 160.044V153.725L854.528 148.278L858.466 147.188L862.404 143.702H868.427L872.134 142.685L882.558 136.294L889.74 127.578L892.056 119.08V116.684L895.531 108.622V102.739L892.056 97.5092H889.74V94.4588L887.886 89.8831L885.106 89.2294L881.4 88.1399L879.315 87.2684L876.999 85.0895L872.134 84L866.342 88.1399L865.647 90.9725V92.9335H857.076Z" fill="#48ABD7"/>
<path d="M921.245 285.767L921.725 285.627L921.708 285.57L921.679 285.519L921.245 285.767ZM918.001 280.102L917.538 280.29L917.551 280.321L917.567 280.35L918.001 280.102ZM916.148 275.526L916.612 275.339L916.574 275.246L916.504 275.175L916.148 275.526ZM913.137 272.476L913.493 272.124L913.456 272.088L913.413 272.059L913.137 272.476ZM924.273 294.342L921.725 285.627L920.765 285.907L923.313 294.623L924.273 294.342ZM921.679 285.519L918.435 279.854L917.567 280.35L920.811 286.016L921.679 285.519ZM918.465 279.914L916.612 275.339L915.685 275.714L917.538 280.29L918.465 279.914ZM916.504 275.175L913.493 272.124L912.781 272.827L915.792 275.878L916.504 275.175ZM913.413 272.059L909.475 269.445L908.922 270.278L912.86 272.892L913.413 272.059ZM857.076 92.9335L856.365 93.6361L856.658 93.9335H857.076V92.9335ZM854.065 89.8831L854.776 89.1805L854.725 89.1282L854.666 89.084L854.065 89.8831ZM851.748 88.1399L852.349 87.3409L852.315 87.3153L852.279 87.2927L851.748 88.1399ZM848.273 85.961L848.805 85.1138L848.561 84.961H848.273V85.961ZM841.092 85.961V84.961H840.804L840.561 85.1138L841.092 85.961ZM839.007 87.2684L838.476 86.4212L838.275 86.5469L838.153 86.7491L839.007 87.2684ZM836.227 91.8441L835.373 91.3249L835.227 91.5641V91.8441H836.227ZM836.227 94.4588H835.227V94.6759L835.317 94.8734L836.227 94.4588ZM837.617 97.5092L838.356 98.1828L838.801 97.6951L838.527 97.0946L837.617 97.5092ZM836.227 99.0345L836.96 99.7156L836.966 99.708L836.227 99.0345ZM834.606 100.778L833.874 100.096L833.606 100.384V100.778H834.606ZM834.606 112.326L835.291 113.054L835.606 112.758V112.326H834.606ZM833.679 113.197L832.994 112.469L832.679 112.765V113.197H833.679ZM833.679 115.158L834.229 115.994L834.679 115.697V115.158H833.679ZM831.363 116.684L830.813 115.848L830.68 115.936L830.581 116.06L831.363 116.684ZM828.583 120.17L827.801 119.546L827.757 119.601L827.722 119.661L828.583 120.17ZM827.424 122.131L826.563 121.622L826.42 121.865L826.425 122.146L827.424 122.131ZM826.729 132.154L825.742 131.994L825.724 132.109L825.732 132.225L826.729 132.154ZM826.961 135.422L827.959 135.489L827.964 135.42L827.959 135.352L826.961 135.422ZM826.729 138.909L827.672 139.243L827.718 139.113L827.727 138.975L826.729 138.909ZM826.035 140.87L825.092 140.536L825.035 140.698V140.87H826.035ZM826.035 143.048H825.035V143.423L825.28 143.705L826.035 143.048ZM828.119 145.445L827.365 146.102L827.495 146.251L827.671 146.339L828.119 145.445ZM831.594 147.188L831.146 148.082L831.357 148.188H831.594V147.188ZM835.301 147.188L835.902 147.987L838.293 146.188H835.301V147.188ZM832.984 148.932L832.383 148.132L832.057 148.378L831.996 148.781L832.984 148.932ZM832.753 150.457L831.764 150.307L831.753 150.381V150.457H832.753ZM832.753 152.2L833.402 152.96L833.753 152.661V152.2H832.753ZM830.204 154.379V155.379H830.574L830.854 155.139L830.204 154.379ZM823.255 154.379L822.334 153.987L821.743 155.379H823.255V154.379ZM824.181 152.2L825.102 152.591L825.219 152.314L825.165 152.018L824.181 152.2ZM823.255 147.188L824.238 147.007L824.197 146.782L824.062 146.598L823.255 147.188ZM820.706 143.702L821.514 143.112L821.459 143.037L821.392 142.974L820.706 143.702ZM818.622 141.741L819.307 141.013L819.191 140.904L819.047 140.836L818.622 141.741ZM816.768 140.87L817.194 139.965L817.108 139.924L817.017 139.901L816.768 140.87ZM814.22 140.216L814.469 139.247L814.346 139.216H814.22V140.216ZM807.271 140.216V139.216H806.971L806.721 139.381L807.271 140.216ZM804.954 141.741L804.404 140.906L804.378 140.923L804.353 140.942L804.954 141.741ZM801.479 144.356L800.878 143.557L800.815 143.604L800.76 143.661L801.479 144.356ZM799.163 146.753L798.444 146.058L798.315 146.191L798.242 146.361L799.163 146.753ZM797.773 150.021L796.852 149.63L796.834 149.673L796.82 149.717L797.773 150.021ZM797.078 152.2L798.013 152.555L798.022 152.53L798.03 152.504L797.078 152.2ZM795.919 155.25L796.845 155.629L796.85 155.617L796.854 155.605L795.919 155.25ZM794.761 158.083L793.836 157.704L793.761 157.886V158.083H794.761ZM794.761 165.709L795.354 166.514L795.761 166.215V165.709H794.761ZM789.433 169.631L789.988 170.463L790.007 170.45L790.026 170.437L789.433 169.631ZM783.873 173.335L783.319 172.503L783.316 172.505L783.873 173.335ZM779.009 176.604L778.607 177.519L779.11 177.74L779.566 177.434L779.009 176.604ZM775.534 175.078L775.936 174.163L775.388 173.922L774.917 174.291L775.534 175.078ZM772.754 177.257L772.939 178.24L773.179 178.195L773.371 178.044L772.754 177.257ZM771.596 177.475L771.411 176.493L771.192 176.534L771.012 176.663L771.596 177.475ZM767.658 180.308L767.761 181.302L768.026 181.275L768.241 181.12L767.658 180.308ZM763.488 180.744L763.384 179.749L763.358 179.752L763.333 179.756L763.488 180.744ZM759.318 181.397L759.381 182.395L759.427 182.392L759.473 182.385L759.318 181.397ZM755.843 181.615V182.615H755.874L755.906 182.613L755.843 181.615ZM754.917 181.615L754.047 182.108L754.334 182.615H754.917V181.615ZM753.063 178.347L752.113 178.658L752.144 178.753L752.193 178.84L753.063 178.347ZM752.137 175.514L753.087 175.203L753.046 175.079L752.975 174.969L752.137 175.514ZM749.588 171.592L748.748 172.134L748.75 172.137L749.588 171.592ZM737.079 152.2L736.187 152.653L736.211 152.699L736.239 152.742L737.079 152.2ZM729.666 137.601L730.558 137.148L730.549 137.13L730.539 137.113L729.666 137.601ZM727.35 133.461H726.35V133.722L726.477 133.95L727.35 133.461ZM727.35 130.629H728.35V130.584L728.346 130.54L727.35 130.629ZM727.118 128.014L728.114 127.926L728.088 127.634L727.909 127.402L727.118 128.014ZM725.265 125.617L726.056 125.006L725.981 124.909L725.885 124.833L725.265 125.617ZM719.473 121.041L720.093 120.257L719.981 120.168L719.847 120.114L719.473 121.041ZM716.23 119.734L715.598 120.509L715.716 120.605L715.856 120.662L716.23 119.734ZM712.755 116.902L713.387 116.126L713.36 116.104L713.332 116.084L712.755 116.902ZM710.902 115.594L711.479 114.777L711.456 114.761L711.433 114.747L710.902 115.594ZM709.512 114.723L710.043 113.875L708.832 113.116L708.534 114.515L709.512 114.723ZM709.281 115.812L708.302 115.604L708.296 115.633L708.292 115.662L709.281 115.812ZM709.049 117.337L708.06 117.187L708.036 117.35L708.064 117.512L709.049 117.337ZM709.281 118.645L708.296 118.819L708.393 119.365L708.907 119.572L709.281 118.645ZM710.902 119.298L711.46 118.468L711.373 118.41L711.276 118.371L710.902 119.298ZM712.524 120.388L713.125 119.589L713.104 119.573L713.081 119.558L712.524 120.388ZM713.682 121.259L714.515 120.706L714.42 120.563L714.283 120.46L713.682 121.259ZM714.84 123.002L714.719 123.995L716.876 124.26L715.673 122.449L714.84 123.002ZM704.184 121.695L703.946 122.666L704.004 122.68L704.062 122.688L704.184 121.695ZM698.856 120.388L698.557 121.342L698.587 121.351L698.618 121.359L698.856 120.388ZM696.771 119.734L696.214 120.564L696.334 120.645L696.472 120.688L696.771 119.734ZM695.15 118.645L695.707 117.815L695.594 117.739L695.465 117.696L695.15 118.645ZM691.212 117.337L691.527 116.388L691.472 116.37L691.416 116.358L691.212 117.337ZM689.127 116.902L689.331 115.923L689.23 115.902H689.127V116.902ZM688.663 116.902V115.902H687.663V116.902H688.663ZM688.663 118.209H687.663V118.559L687.881 118.832L688.663 118.209ZM689.358 119.08L690.325 118.824L690.271 118.621L690.14 118.457L689.358 119.08ZM689.59 119.952L688.623 120.209L688.688 120.45L688.858 120.633L689.59 119.952ZM691.212 121.695L690.479 122.376L690.53 122.431L690.589 122.478L691.212 121.695ZM694.223 124.092L694.846 123.31L694.846 123.31L694.223 124.092ZM697.235 126.489L698.139 126.062L698.039 125.851L697.857 125.706L697.235 126.489ZM698.161 128.45L697.257 128.877L697.267 128.898L697.278 128.919L698.161 128.45ZM699.319 130.629L698.436 131.098L698.593 131.392L698.894 131.534L699.319 130.629ZM700.709 131.282L700.284 132.187L700.416 132.249L700.561 132.271L700.709 131.282ZM706.501 132.154L706.352 133.143L706.354 133.143L706.501 132.154ZM710.902 132.808L711.169 131.844L711.11 131.827L711.049 131.818L710.902 132.808ZM714.84 133.897L715.435 133.093L715.286 132.983L715.107 132.933L714.84 133.897ZM718.083 136.294L718.865 135.67L718.783 135.568L718.678 135.49L718.083 136.294ZM720.863 139.78L721.778 139.375L721.725 139.257L721.645 139.157L720.863 139.78ZM723.18 145.009L724.145 144.749L724.125 144.675L724.094 144.604L723.18 145.009ZM726.886 158.737L725.921 158.997L725.922 159L726.886 158.737ZM731.056 173.989L730.092 174.253L730.108 174.311L730.131 174.367L731.056 173.989ZM734.531 182.487L733.605 182.865L733.611 182.878L733.616 182.89L734.531 182.487ZM739.627 194.035L738.712 194.439L738.745 194.512L738.789 194.58L739.627 194.035ZM742.176 197.957L741.337 198.502L741.417 198.625L741.529 198.72L742.176 197.957ZM744.492 199.918L743.846 200.681L744.1 200.897L744.433 200.916L744.492 199.918ZM751.905 200.354L751.846 201.352L751.928 201.357L752.009 201.348L751.905 200.354ZM758.16 199.7L758.264 200.695L758.334 200.687L758.403 200.67L758.16 199.7ZM765.109 197.957L765.353 198.927L765.358 198.926L765.109 197.957ZM770.206 196.65L770.454 197.618L770.463 197.616L770.472 197.613L770.206 196.65ZM774.144 195.56V194.56H774.008L773.877 194.596L774.144 195.56ZM780.399 195.56V196.56H780.461L780.523 196.552L780.399 195.56ZM783.873 195.124L783.998 196.117L784.358 196.071L784.606 195.806L783.873 195.124ZM785.495 193.381L786.227 194.062L786.712 193.541L786.378 192.912L785.495 193.381ZM785.032 192.51L784.528 191.646L783.697 192.13L784.149 192.979L785.032 192.51ZM789.896 189.677L789.578 188.729L789.481 188.762L789.393 188.813L789.896 189.677ZM793.14 188.588V187.588H792.976L792.821 187.64L793.14 188.588ZM794.993 188.588L795.809 188.009L795.51 187.588H794.993V188.588ZM796.846 191.202L797.753 190.781L797.714 190.698L797.662 190.624L796.846 191.202ZM800.089 198.175L801.044 197.879L801.024 197.814L800.996 197.753L800.089 198.175ZM801.711 203.404L802.699 203.254L802.688 203.18L802.666 203.108L801.711 203.404ZM802.869 211.03H803.869V210.955L803.858 210.88L802.869 211.03ZM802.869 219.964L803.769 220.399L803.869 220.193V219.964H802.869ZM801.711 222.361L800.81 221.926L800.791 221.965L800.776 222.006L801.711 222.361ZM800.553 225.411L801.385 225.965L801.448 225.871L801.487 225.766L800.553 225.411ZM798.236 228.898L799.018 229.521L799.045 229.487L799.069 229.451L798.236 228.898ZM797.541 229.769L796.759 229.146L796.541 229.419V229.769H797.541ZM797.541 230.423V231.423H798.541V230.423H797.541ZM794.761 230.423V229.423H794.73L794.699 229.425L794.761 230.423ZM791.286 230.641L791.224 229.643L791.117 229.649L791.015 229.678L791.286 230.641ZM788.97 231.294L788.698 230.332L788.651 230.345L788.605 230.363L788.97 231.294ZM786.19 232.384L785.825 231.453L785.816 231.456L786.19 232.384ZM782.947 233.691L782.573 232.764L782.485 232.799L782.406 232.85L782.947 233.691ZM778.545 236.524L778.971 237.429L779.031 237.4L779.086 237.365L778.545 236.524ZM776.229 237.613L775.803 236.708L775.71 236.752L775.628 236.814L776.229 237.613ZM770.437 241.971L769.836 241.172L769.792 241.205L769.752 241.243L770.437 241.971ZM766.963 245.239L766.277 244.511L766.26 244.527L766.244 244.544L766.963 245.239ZM764.646 247.636L763.927 246.941L763.924 246.945L764.646 247.636ZM760.476 251.994L759.754 251.303L759.719 251.339L759.688 251.379L760.476 251.994ZM757.928 255.262L757.139 254.648L757.08 254.724L757.036 254.811L757.928 255.262ZM755.612 259.838L756.486 260.323L756.495 260.307L756.504 260.29L755.612 259.838ZM752.832 264.85L751.957 264.364L751.935 264.404L751.917 264.445L752.832 264.85ZM750.515 270.079L749.601 269.674L749.576 269.73L749.558 269.788L750.515 270.079ZM749.125 274.655L748.168 274.364L748.145 274.439L748.135 274.517L749.125 274.655ZM748.43 279.666L747.44 279.529L747.436 279.555L747.434 279.581L748.43 279.666ZM747.967 285.113L746.971 285.029L746.967 285.071V285.113H747.967ZM747.967 289.035H746.967V289.174L747.005 289.308L747.967 289.035ZM748.894 292.304L747.931 292.577L747.954 292.656L747.989 292.731L748.894 292.304ZM749.82 294.265L750.636 294.843L750.974 294.366L750.724 293.838L749.82 294.265ZM746.577 298.841L747.393 299.419L747.393 299.419L746.577 298.841ZM744.26 302.109L743.445 301.531L743.418 301.568L743.395 301.607L744.26 302.109ZM741.481 306.903L742.309 307.463L742.328 307.434L742.346 307.404L741.481 306.903ZM738.237 311.696L737.409 311.136L737.379 311.18L737.354 311.227L738.237 311.696ZM725.728 335.228L724.845 334.759L724.824 334.799L724.806 334.841L725.728 335.228ZM718.315 352.878L717.393 352.49L717.381 352.518L717.371 352.547L718.315 352.878ZM710.902 374.013L709.959 373.682L709.956 373.691L709.953 373.699L710.902 374.013ZM705.574 390.137L706.441 390.636L706.492 390.548L706.524 390.451L705.574 390.137ZM702.563 395.366L703.293 396.05L703.372 395.965L703.429 395.865L702.563 395.366ZM692.37 406.261L693.01 407.029L693.058 406.989L693.1 406.944L692.37 406.261ZM682.177 414.759L682.708 415.606L682.765 415.57L682.817 415.527L682.177 414.759ZM668.278 423.474L668.776 424.341L668.793 424.332L668.809 424.321L668.278 423.474ZM659.938 428.268L659.44 427.401L659.17 427.556L659.035 427.838L659.938 428.268ZM656.927 434.587L656.024 434.156L655.961 434.288L655.939 434.431L656.927 434.587ZM656 440.47L655.012 440.314L654.994 440.427L655.003 440.54L656 440.47ZM656.463 447.006L655.466 447.077L655.486 447.362L655.654 447.593L656.463 447.006ZM659.938 451.8L659.128 452.387L659.184 452.464L659.253 452.528L659.938 451.8ZM663.413 455.068L662.728 455.797L662.768 455.834L662.812 455.867L663.413 455.068ZM668.046 458.555L668.842 457.95L668.758 457.839L668.647 457.756L668.046 458.555ZM670.363 461.605H671.363V461.269L671.159 461L670.363 461.605ZM670.363 465.091L671.206 465.629L671.363 465.383V465.091H670.363ZM668.973 467.27L668.13 466.733L668.076 466.817L668.04 466.91L668.973 467.27ZM668.046 469.667L667.113 469.307L667.062 469.44L667.05 469.582L668.046 469.667ZM667.583 475.114L666.586 475.03L666.576 475.148L666.594 475.265L667.583 475.114ZM668.046 478.165L667.057 478.315L667.075 478.433L667.12 478.543L668.046 478.165ZM670.363 483.83L669.437 484.209L669.496 484.352L669.595 484.471L670.363 483.83ZM675.459 489.931L674.692 490.572L674.798 490.699L674.939 490.785L675.459 489.931ZM679.397 492.328L678.877 493.182L678.944 493.223L679.017 493.253L679.397 492.328ZM686.81 495.378L686.43 496.303L686.507 496.335L686.589 496.353L686.81 495.378ZM693.528 496.904L693.307 497.879L693.416 497.904H693.528V496.904ZM702.794 496.904V497.904H702.899L703.002 497.882L702.794 496.904ZM709.976 495.378L710.183 496.356L710.225 496.348L710.267 496.335L709.976 495.378ZM717.852 492.981L717.598 492.014L717.579 492.019L717.561 492.025L717.852 492.981ZM727.813 490.367L727.682 489.375L727.62 489.384L727.559 489.4L727.813 490.367ZM742.639 488.406L742.976 487.464L742.748 487.383L742.508 487.414L742.639 488.406ZM747.504 490.149L747.952 489.255L747.898 489.228L747.841 489.208L747.504 490.149ZM750.978 491.892L751.58 491.093L751.508 491.039L751.427 490.998L750.978 491.892ZM755.612 495.378H756.612V494.879L756.213 494.579L755.612 495.378ZM755.612 497.121L756.532 497.513L756.612 497.325V497.121H755.612ZM754.685 499.3L755.324 500.069L755.51 499.914L755.605 499.692L754.685 499.3ZM748.662 504.312L749.041 505.237L749.183 505.179L749.301 505.081L748.662 504.312ZM739.627 508.016L739.248 507.091L738.834 507.26L738.685 507.682L739.627 508.016ZM738.237 511.938L737.295 511.604L737.096 512.165L737.494 512.607L738.237 511.938ZM740.786 514.771L740.042 515.439L740.183 515.596L740.374 515.682L740.786 514.771ZM746.577 517.385L746.165 518.297L746.215 518.319L746.266 518.336L746.577 517.385ZM751.905 519.128L751.594 520.079L751.697 520.112L751.804 520.123L751.905 519.128ZM760.476 520L760.375 520.995L760.436 521.001L760.498 521L760.476 520ZM770.437 519.782L770.459 520.782L770.577 520.779L770.692 520.749L770.437 519.782ZM791.981 514.117L791.777 513.138L791.752 513.143L791.727 513.15L791.981 514.117ZM798.236 512.81L798.215 511.81L798.122 511.812L798.031 511.831L798.236 512.81ZM808.429 512.592L808.568 511.601L808.488 511.59L808.407 511.592L808.429 512.592ZM819.317 514.117L819.551 513.145L819.504 513.133L819.455 513.127L819.317 514.117ZM828.351 516.296L828.117 517.268L828.13 517.271L828.143 517.274L828.351 516.296ZM840.629 518.911L840.42 519.889L840.523 519.911H840.629V518.911ZM853.138 518.911V519.911H853.245L853.35 519.888L853.138 518.911ZM862.173 516.95L862.385 517.927L862.463 517.91L862.538 517.881L862.173 516.95ZM870.512 513.681L870.877 514.612L870.967 514.577L871.048 514.526L870.512 513.681ZM880.473 507.362L879.967 506.5L879.952 506.509L879.938 506.518L880.473 507.362ZM884.18 505.183V504.183H883.908L883.673 504.321L884.18 505.183ZM894.836 505.183L895.002 504.197L894.919 504.183H894.836V505.183ZM907.809 507.362L907.643 508.348L907.686 508.356L907.729 508.359L907.809 507.362ZM918.696 508.234L918.617 509.231L918.685 509.236L918.753 509.232L918.696 508.234ZM926.341 507.798L926.398 508.796L926.485 508.792L926.57 508.772L926.341 507.798ZM936.534 505.401L936.763 506.375L936.856 506.353L936.943 506.314L936.534 505.401ZM941.399 503.222L941.807 504.135L941.932 504.079L942.037 503.992L941.399 503.222ZM949.275 496.686L949.913 497.455L950.073 497.323L950.167 497.137L949.275 496.686ZM951.591 492.11L952.484 492.562L952.556 492.419L952.58 492.26L951.591 492.11ZM952.286 487.534L953.275 487.684L953.303 487.497L953.261 487.312L952.286 487.534ZM951.591 484.484L950.934 483.731L950.484 484.123L950.616 484.706L951.591 484.484ZM954.835 481.651L954.591 480.681L954.358 480.74L954.177 480.898L954.835 481.651ZM958.309 480.78L958.553 481.75L958.577 481.744L958.6 481.736L958.309 480.78ZM966.186 478.383L966.477 479.339L966.653 479.286L966.799 479.173L966.186 478.383ZM975.452 471.192L976.065 471.982L976.255 471.835L976.358 471.616L975.452 471.192ZM978 465.745L978.906 466.169L979 465.967V465.745H978ZM978 459.862H979V459.414L978.665 459.115L978 459.862ZM956.224 440.47L955.452 441.105L955.501 441.165L955.559 441.217L956.224 440.47ZM941.167 422.167L940.241 422.545L940.299 422.685L940.395 422.802L941.167 422.167ZM933.059 402.339L932.111 402.657L932.121 402.688L932.133 402.717L933.059 402.339ZM930.279 394.059L929.306 394.289L929.316 394.334L929.331 394.377L930.279 394.059ZM927.499 382.293L926.513 382.458L926.519 382.491L926.526 382.523L927.499 382.293ZM926.109 374.013L927.096 373.847L927.091 373.819L927.084 373.791L926.109 374.013ZM923.329 361.811L924.305 361.589L924.296 361.552L924.285 361.516L923.329 361.811ZM919.16 348.302L920.115 348.007L920.087 347.916L920.043 347.832L919.16 348.302ZM918.001 346.123L917.087 346.528L917.102 346.561L917.118 346.592L918.001 346.123ZM916.843 343.508L915.86 343.326L915.804 343.631L915.929 343.913L916.843 343.508ZM918.696 333.485L917.726 333.244L917.719 333.273L917.713 333.303L918.696 333.485ZM921.245 323.244L920.288 322.954L920.28 322.978L920.274 323.003L921.245 323.244ZM922.635 318.669L923.591 318.959L923.612 318.89L923.623 318.819L922.635 318.669ZM923.329 314.093L924.318 314.243L924.327 314.185L924.329 314.127L923.329 314.093ZM923.793 300.584L924.792 300.618L924.793 300.601V300.584H923.793ZM923.793 294.483L922.991 293.886L922.793 294.151V294.483H923.793ZM925.414 292.304L926.217 292.901L926.313 292.772L926.363 292.619L925.414 292.304ZM926.573 288.818L927.522 289.133L927.537 289.087L927.548 289.04L926.573 288.818ZM927.268 285.767L928.243 285.989L928.268 285.88V285.767H927.268ZM927.268 280.538H928.268V280.346L928.197 280.167L927.268 280.538ZM926.573 278.795L926.651 277.798L925.049 277.672L925.644 279.165L926.573 278.795ZM929.353 279.012L930.196 278.475L929.928 278.054L929.431 278.016L929.353 279.012ZM930.742 281.191L929.899 281.729L929.966 281.834L930.057 281.92L930.742 281.191ZM932.827 283.152L932.142 283.881L932.258 283.99L932.402 284.057L932.827 283.152ZM934.681 284.024L934.255 284.929L934.749 285.161L935.212 284.871L934.681 284.024ZM935.376 283.588L935.907 284.435L936.376 284.141V283.588H935.376ZM935.376 282.717H936.376V282.367L936.157 282.093L935.376 282.717ZM931.901 278.359L932.683 277.735L932.656 277.703L932.628 277.672L931.901 278.359ZM930.047 276.398L930.774 275.711L930.682 275.613L930.567 275.544L930.047 276.398ZM926.109 274.001L925.407 274.713L925.49 274.795L925.589 274.855L926.109 274.001ZM921.245 269.207L920.332 269.616L920.409 269.788L920.543 269.92L921.245 269.207ZM917.538 260.928L918.451 260.519L918.391 260.385L918.294 260.273L917.538 260.928ZM909.43 251.558L910.186 250.904L910.16 250.873L910.131 250.845L909.43 251.558ZM904.102 246.329L903.379 247.019L903.39 247.031L903.402 247.043L904.102 246.329ZM891.824 233.473L892.548 232.783L892.529 232.763L892.51 232.745L891.824 233.473ZM882.79 224.976L883.475 224.247L883.424 224.199L883.366 224.158L882.79 224.976ZM875.377 219.746L874.423 220.047L874.525 220.369L874.801 220.563L875.377 219.746ZM873.524 213.863L872.525 213.914L872.531 214.041L872.57 214.164L873.524 213.863ZM873.292 209.287L872.392 208.852L872.28 209.082L872.293 209.338L873.292 209.287ZM874.45 206.891L875.351 207.326L875.45 207.12V206.891H874.45ZM874.45 204.712H875.45V203.882L874.635 203.729L874.45 204.712ZM872.134 204.276H871.134V205.105L871.949 205.259L872.134 204.276ZM872.134 196.214L871.538 195.411L871.134 195.711V196.214H872.134ZM876.535 192.946L877.131 193.748L877.22 193.683L877.292 193.599L876.535 192.946ZM882.558 185.973L883.315 186.627L883.425 186.5L883.487 186.343L882.558 185.973ZM886.033 177.257L886.962 177.628L887.033 177.449V177.257H886.033ZM886.033 167.67H887.033V167.213L886.687 166.914L886.033 167.67ZM880.242 162.659L880.896 161.902L880.707 161.739L880.463 161.683L880.242 162.659ZM873.524 161.133L873.745 160.158L873.497 160.102L873.252 160.171L873.524 161.133ZM864.258 163.748L863.986 162.786L863.886 162.814L863.794 162.862L864.258 163.748ZM860.088 165.927V166.927H860.333L860.551 166.813L860.088 165.927ZM858.466 165.927L857.71 166.582L858.009 166.927H858.466V165.927ZM853.37 160.044H852.37V160.417L852.614 160.699L853.37 160.044ZM853.37 153.725L852.392 153.517L852.37 153.62V153.725H853.37ZM854.528 148.278L854.261 147.314L853.676 147.476L853.55 148.07L854.528 148.278ZM858.466 147.188L858.733 148.152L858.956 148.091L859.129 147.937L858.466 147.188ZM862.404 143.702V142.702H862.025L861.741 142.953L862.404 143.702ZM868.427 143.702V144.702H868.562L868.692 144.667L868.427 143.702ZM872.134 142.685L872.398 143.65L872.535 143.612L872.657 143.538L872.134 142.685ZM882.558 136.294L883.081 137.146L883.224 137.059L883.33 136.93L882.558 136.294ZM889.74 127.578L890.511 128.214L890.648 128.048L890.704 127.841L889.74 127.578ZM892.056 119.08L893.021 119.343L893.056 119.214V119.08H892.056ZM892.056 116.684L891.138 116.288L891.056 116.477V116.684H892.056ZM895.531 108.622L896.449 109.018L896.531 108.828V108.622H895.531ZM895.531 102.739H896.531V102.437L896.364 102.185L895.531 102.739ZM892.056 97.5092L892.889 96.9558L892.592 96.5092H892.056V97.5092ZM889.74 97.5092H888.74V98.5092H889.74V97.5092ZM889.74 94.4588H890.74V94.2639L890.666 94.0834L889.74 94.4588ZM887.886 89.8831L888.813 89.5077L888.619 89.0281L888.115 88.9096L887.886 89.8831ZM885.106 89.2294L884.824 90.1888L884.851 90.1965L884.878 90.2028L885.106 89.2294ZM881.4 88.1399L881.014 89.0626L881.065 89.0838L881.118 89.0993L881.4 88.1399ZM879.315 87.2684L878.63 87.9968L878.762 88.121L878.929 88.191L879.315 87.2684ZM876.999 85.0895L877.684 84.361L877.484 84.1735L877.217 84.1136L876.999 85.0895ZM872.134 84L872.352 83.0242L871.916 82.9265L871.552 83.1865L872.134 84ZM866.342 88.1399L865.761 87.3264L865.46 87.5419L865.371 87.9017L866.342 88.1399ZM865.647 90.9725L864.676 90.7342L864.647 90.8516V90.9725H865.647ZM865.647 92.9335V93.9335H866.647V92.9335H865.647ZM905.26 267.246L905.814 266.413L905.542 266.233L905.217 266.247L905.26 267.246ZM890.203 267.9L890.16 266.901L889.866 266.914L889.626 267.083L890.203 267.9ZM887.423 269.861L887.652 270.835L887.841 270.79L887.999 270.678L887.423 269.861ZM882.79 270.951L881.836 271.249L882.113 272.137L883.019 271.924L882.79 270.951ZM881.632 267.246L882.586 266.948L882.518 266.73L882.362 266.563L881.632 267.246ZM876.535 261.799L875.733 262.396L875.767 262.441L875.805 262.482L876.535 261.799ZM873.292 257.441L874.094 256.844L874.058 256.795L874.016 256.751L873.292 257.441ZM861.246 244.804L861.97 244.114L861.881 244.021L861.772 243.953L861.246 244.804ZM853.138 239.792L853.664 238.941L853.615 238.911L853.564 238.887L853.138 239.792ZM842.945 234.998L843.371 234.094L843.298 234.059L843.221 234.037L842.945 234.998ZM837.617 233.473H836.617V234.227L837.342 234.435L837.617 233.473ZM837.617 229.987H838.617V229.802L838.551 229.63L837.617 229.987ZM835.532 224.54L834.723 223.953L834.405 224.391L834.598 224.897L835.532 224.54ZM839.007 219.746L839.817 220.333L839.862 220.271L839.897 220.202L839.007 219.746ZM842.019 213.863L841.56 212.974L841.275 213.122L841.129 213.407L842.019 213.863ZM849.2 210.159L849.658 211.048L849.854 210.947L849.989 210.774L849.2 210.159ZM854.296 203.622L853.79 202.76L853.625 202.857L853.508 203.007L854.296 203.622ZM856.15 202.533H857.15V200.785L855.643 201.671L856.15 202.533ZM856.15 210.159L856.835 210.887L857.15 210.591V210.159H856.15ZM854.296 211.902L853.611 211.174L853.136 211.621L853.354 212.236L854.296 211.902ZM854.991 213.863L854.049 214.197L854.074 214.267L854.108 214.332L854.991 213.863ZM856.15 216.042L855.267 216.511L855.332 216.633L855.427 216.733L856.15 216.042ZM858.235 218.221H859.235V217.82L858.957 217.53L858.235 218.221ZM858.235 224.54H857.235V224.7L857.285 224.853L858.235 224.54ZM860.319 230.859L859.37 231.172L859.462 231.45L859.689 231.635L860.319 230.859ZM865.416 234.998L864.785 235.775L864.837 235.817L864.894 235.852L865.416 234.998ZM892.519 251.558L893.082 250.731L893.062 250.718L893.041 250.705L892.519 251.558ZM907.577 261.799L908.393 261.221L908.289 261.074L908.139 260.972L907.577 261.799ZM909.43 264.414H910.43V264.095L910.246 263.836L909.43 264.414ZM909.43 267.9L910.334 268.327L910.43 268.124V267.9H909.43ZM908.504 269.861L907.599 269.434L906.925 270.861H908.504V269.861ZM909.199 269.861V270.861H912.512L909.752 269.028L909.199 269.861ZM857.788 92.231L854.776 89.1805L853.353 90.5856L856.365 93.6361L857.788 92.231ZM854.666 89.084L852.349 87.3409L851.147 88.939L853.463 90.6821L854.666 89.084ZM852.279 87.2927L848.805 85.1138L847.742 86.8082L851.217 88.9871L852.279 87.2927ZM848.273 84.961H845.262V86.961H848.273V84.961ZM845.262 84.961H841.092V86.961H845.262V84.961ZM840.561 85.1138L838.476 86.4212L839.538 88.1156L841.623 86.8082L840.561 85.1138ZM838.153 86.7491L835.373 91.3249L837.082 92.3633L839.862 87.7876L838.153 86.7491ZM835.227 91.8441V94.4588H837.227V91.8441H835.227ZM835.317 94.8734L836.707 97.9239L838.527 97.0946L837.137 94.0441L835.317 94.8734ZM836.878 96.8357L835.488 98.3609L836.966 99.708L838.356 98.1828L836.878 96.8357ZM835.495 98.3534L833.874 100.096L835.338 101.459L836.96 99.7156L835.495 98.3534ZM833.606 100.778V102.739H835.606V100.778H833.606ZM833.606 102.739V104.482H835.606V102.739H833.606ZM833.606 104.482V106.225H835.606V104.482H833.606ZM833.606 106.225V108.622H835.606V106.225H833.606ZM833.606 108.622V110.365H835.606V108.622H833.606ZM833.606 110.365V112.326H835.606V110.365H833.606ZM833.921 111.597L832.994 112.469L834.364 113.926L835.291 113.054L833.921 111.597ZM832.679 113.197V115.158H834.679V113.197H832.679ZM833.129 114.323L830.813 115.848L831.913 117.519L834.229 115.994L833.129 114.323ZM830.581 116.06L827.801 119.546L829.365 120.793L832.144 117.307L830.581 116.06ZM827.722 119.661L826.563 121.622L828.285 122.639L829.444 120.678L827.722 119.661ZM827.424 122.131C826.425 122.146 826.425 122.146 826.425 122.146C826.425 122.146 826.425 122.146 826.425 122.146C826.425 122.146 826.425 122.146 826.425 122.146C826.425 122.147 826.425 122.147 826.425 122.147C826.425 122.148 826.425 122.15 826.425 122.151C826.425 122.155 826.425 122.16 826.425 122.167C826.425 122.182 826.425 122.203 826.426 122.231C826.426 122.287 826.428 122.369 826.429 122.475C826.431 122.685 826.434 122.987 826.436 123.35C826.439 124.078 826.439 125.052 826.425 126.038L828.424 126.068C828.439 125.063 828.439 124.076 828.436 123.34C828.434 122.972 828.431 122.667 828.429 122.453C828.427 122.346 828.426 122.262 828.426 122.205C828.425 122.176 828.425 122.154 828.425 122.139C828.425 122.131 828.424 122.126 828.424 122.122C828.424 122.12 828.424 122.118 828.424 122.117C828.424 122.117 828.424 122.116 828.424 122.116C828.424 122.116 828.424 122.116 828.424 122.116C828.424 122.116 828.424 122.116 828.424 122.116C828.424 122.116 828.424 122.116 827.424 122.131ZM826.425 126.038C826.411 126.967 826.245 128.438 826.075 129.718C825.991 130.349 825.907 130.919 825.845 131.331C825.814 131.537 825.788 131.704 825.77 131.818C825.761 131.876 825.754 131.92 825.749 131.95C825.747 131.965 825.745 131.976 825.744 131.983C825.743 131.987 825.743 131.99 825.743 131.992C825.743 131.993 825.742 131.993 825.742 131.994C825.742 131.994 825.742 131.994 825.742 131.994C825.742 131.994 825.742 131.994 825.742 131.994C825.742 131.994 825.742 131.994 826.729 132.154C827.717 132.314 827.717 132.314 827.717 132.314C827.717 132.314 827.717 132.314 827.717 132.313C827.717 132.313 827.717 132.313 827.717 132.313C827.717 132.312 827.717 132.311 827.717 132.31C827.718 132.308 827.718 132.305 827.719 132.301C827.72 132.293 827.722 132.281 827.724 132.265C827.729 132.233 827.737 132.188 827.746 132.129C827.765 132.011 827.791 131.84 827.823 131.63C827.886 131.209 827.971 130.627 828.057 129.982C828.227 128.709 828.409 127.13 828.424 126.068L826.425 126.038ZM825.732 132.225L825.964 135.493L827.959 135.352L827.727 132.083L825.732 132.225ZM825.963 135.356L825.732 138.842L827.727 138.975L827.959 135.489L825.963 135.356ZM825.787 138.575L825.092 140.536L826.977 141.204L827.672 139.243L825.787 138.575ZM825.035 140.87V143.048H827.035V140.87H825.035ZM825.28 143.705L827.365 146.102L828.874 144.789L826.789 142.392L825.28 143.705ZM827.671 146.339L831.146 148.082L832.043 146.295L828.568 144.551L827.671 146.339ZM831.594 148.188H835.301V146.188H831.594V148.188ZM834.699 146.389L832.383 148.132L833.585 149.731L835.902 147.987L834.699 146.389ZM831.996 148.781L831.764 150.307L833.741 150.607L833.973 149.082L831.996 148.781ZM831.753 150.457V152.2H833.753V150.457H831.753ZM832.103 151.44L829.554 153.619L830.854 155.139L833.402 152.96L832.103 151.44ZM830.204 153.379H827.656V155.379H830.204V153.379ZM827.656 153.379H823.255V155.379H827.656V153.379ZM824.175 154.77L825.102 152.591L823.261 151.809L822.334 153.987L824.175 154.77ZM825.165 152.018L824.238 147.007L822.271 147.37L823.198 152.382L825.165 152.018ZM824.062 146.598L821.514 143.112L819.899 144.292L822.447 147.779L824.062 146.598ZM821.392 142.974L819.307 141.013L817.936 142.47L820.021 144.431L821.392 142.974ZM819.047 140.836L817.194 139.965L816.343 141.774L818.196 142.646L819.047 140.836ZM817.017 139.901L814.469 139.247L813.972 141.185L816.52 141.838L817.017 139.901ZM814.22 139.216H807.271V141.216H814.22V139.216ZM806.721 139.381L804.404 140.906L805.504 142.576L807.82 141.051L806.721 139.381ZM804.353 140.942L800.878 143.557L802.08 145.155L805.555 142.54L804.353 140.942ZM800.76 143.661L798.444 146.058L799.882 147.448L802.198 145.051L800.76 143.661ZM798.242 146.361L796.852 149.63L798.693 150.412L800.083 147.144L798.242 146.361ZM796.82 149.717L796.125 151.896L798.03 152.504L798.725 150.325L796.82 149.717ZM796.143 151.845L794.985 154.895L796.854 155.605L798.013 152.555L796.143 151.845ZM794.994 154.872L793.836 157.704L795.687 158.461L796.845 155.629L794.994 154.872ZM793.761 158.083V161.351H795.761V158.083H793.761ZM793.761 161.351V163.748H795.761V161.351H793.761ZM793.761 163.748V165.709H795.761V163.748H793.761ZM794.168 164.904L788.84 168.826L790.026 170.437L795.354 166.514L794.168 164.904ZM788.879 168.799L783.319 172.503L784.428 174.168L789.988 170.463L788.879 168.799ZM783.316 172.505L778.451 175.774L779.566 177.434L784.431 174.165L783.316 172.505ZM779.411 175.688L775.936 174.163L775.132 175.994L778.607 177.519L779.411 175.688ZM774.917 174.291L772.137 176.47L773.371 178.044L776.151 175.865L774.917 174.291ZM772.569 176.275L771.411 176.493L771.781 178.458L772.939 178.24L772.569 176.275ZM771.012 176.663L767.074 179.496L768.241 181.12L772.18 178.287L771.012 176.663ZM767.554 179.313L763.384 179.749L763.592 181.738L767.761 181.302L767.554 179.313ZM763.333 179.756L759.163 180.409L759.473 182.385L763.643 181.732L763.333 179.756ZM759.255 180.399L755.781 180.617L755.906 182.613L759.381 182.395L759.255 180.399ZM755.843 180.615H754.917V182.615H755.843V180.615ZM755.786 181.122L753.933 177.854L752.193 178.84L754.047 182.108L755.786 181.122ZM754.014 178.036L753.087 175.203L751.186 175.825L752.113 178.658L754.014 178.036ZM752.975 174.969L750.427 171.047L748.75 172.137L751.298 176.059L752.975 174.969ZM750.429 171.05L737.919 151.658L736.239 152.742L748.748 172.134L750.429 171.05ZM737.971 151.747L730.558 137.148L728.775 138.054L736.187 152.653L737.971 151.747ZM730.539 137.113L728.222 132.973L726.477 133.95L728.794 138.09L730.539 137.113ZM728.35 133.461V130.629H726.35V133.461H728.35ZM728.346 130.54L728.114 127.926L726.122 128.102L726.354 130.717L728.346 130.54ZM727.909 127.402L726.056 125.006L724.474 126.229L726.327 128.626L727.909 127.402ZM725.885 124.833L720.093 120.257L718.853 121.826L724.645 126.402L725.885 124.833ZM719.847 120.114L716.604 118.807L715.856 120.662L719.1 121.969L719.847 120.114ZM716.862 118.959L713.387 116.126L712.124 117.677L715.598 120.509L716.862 118.959ZM713.332 116.084L711.479 114.777L710.326 116.411L712.179 117.719L713.332 116.084ZM711.433 114.747L710.043 113.875L708.981 115.57L710.371 116.441L711.433 114.747ZM708.534 114.515L708.302 115.604L710.259 116.02L710.49 114.931L708.534 114.515ZM708.292 115.662L708.06 117.187L710.038 117.487L710.269 115.962L708.292 115.662ZM708.064 117.512L708.296 118.819L710.265 118.47L710.034 117.163L708.064 117.512ZM708.907 119.572L710.528 120.226L711.276 118.371L709.654 117.717L708.907 119.572ZM710.344 120.128L711.966 121.218L713.081 119.558L711.46 118.468L710.344 120.128ZM711.922 121.187L713.081 122.058L714.283 120.46L713.125 119.589L711.922 121.187ZM712.849 121.813L714.007 123.556L715.673 122.449L714.515 120.706L712.849 121.813ZM714.962 122.01L704.306 120.703L704.062 122.688L714.719 123.995L714.962 122.01ZM704.422 120.724L699.094 119.417L698.618 121.359L703.946 122.666L704.422 120.724ZM699.155 119.434L697.07 118.78L696.472 120.688L698.557 121.342L699.155 119.434ZM697.329 118.904L695.707 117.815L694.592 119.475L696.214 120.564L697.329 118.904ZM695.465 117.696L691.527 116.388L690.896 118.286L694.835 119.594L695.465 117.696ZM691.416 116.358L689.331 115.923L688.922 117.88L691.007 118.316L691.416 116.358ZM689.127 115.902H688.663V117.902H689.127V115.902ZM687.663 116.902V118.209H689.663V116.902H687.663ZM687.881 118.832L688.576 119.704L690.14 118.457L689.445 117.585L687.881 118.832ZM688.392 119.337L688.623 120.209L690.556 119.695L690.325 118.824L688.392 119.337ZM688.858 120.633L690.479 122.376L691.944 121.014L690.322 119.271L688.858 120.633ZM690.589 122.478L693.6 124.874L694.846 123.31L691.834 120.913L690.589 122.478ZM693.6 124.874L696.612 127.271L697.857 125.706L694.846 123.31L693.6 124.874ZM696.33 126.916L697.257 128.877L699.065 128.023L698.139 126.062L696.33 126.916ZM697.278 128.919L698.436 131.098L700.202 130.159L699.044 127.98L697.278 128.919ZM698.894 131.534L700.284 132.187L701.135 130.377L699.745 129.724L698.894 131.534ZM700.561 132.271L706.352 133.143L706.65 131.165L700.858 130.293L700.561 132.271ZM706.354 133.143L710.755 133.797L711.049 131.818L706.648 131.165L706.354 133.143ZM710.636 133.771L714.574 134.861L715.107 132.933L711.169 131.844L710.636 133.771ZM714.246 134.701L717.489 137.098L718.678 135.49L715.435 133.093L714.246 134.701ZM717.302 136.917L720.081 140.404L721.645 139.157L718.865 135.67L717.302 136.917ZM719.949 140.185L722.266 145.415L724.094 144.604L721.778 139.375L719.949 140.185ZM722.214 145.27L725.921 158.997L727.852 158.476L724.145 144.749L722.214 145.27ZM725.922 159L730.092 174.253L732.021 173.725L727.851 158.473L725.922 159ZM730.131 174.367L733.605 182.865L735.457 182.108L731.982 173.611L730.131 174.367ZM733.616 182.89L738.712 194.439L740.542 193.631L735.446 182.083L733.616 182.89ZM738.789 194.58L741.337 198.502L743.014 197.412L740.466 193.49L738.789 194.58ZM741.529 198.72L743.846 200.681L745.138 199.155L742.822 197.194L741.529 198.72ZM744.433 200.916L751.846 201.352L751.964 199.356L744.551 198.92L744.433 200.916ZM752.009 201.348L758.264 200.695L758.056 198.706L751.801 199.359L752.009 201.348ZM758.403 200.67L765.353 198.927L764.866 196.987L757.916 198.73L758.403 200.67ZM765.358 198.926L770.454 197.618L769.957 195.681L764.861 196.988L765.358 198.926ZM770.472 197.613L774.411 196.524L773.877 194.596L769.939 195.686L770.472 197.613ZM774.144 196.56H780.399V194.56H774.144V196.56ZM780.523 196.552L783.998 196.117L783.749 194.132L780.274 194.568L780.523 196.552ZM784.606 195.806L786.227 194.062L784.763 192.7L783.141 194.443L784.606 195.806ZM786.378 192.912L785.915 192.04L784.149 192.979L784.612 193.851L786.378 192.912ZM785.535 193.374L790.4 190.541L789.393 188.813L784.528 191.646L785.535 193.374ZM790.215 190.625L793.458 189.536L792.821 187.64L789.578 188.729L790.215 190.625ZM793.14 189.588H794.993V187.588H793.14V189.588ZM794.177 189.166L796.03 191.781L797.662 190.624L795.809 188.009L794.177 189.166ZM795.939 191.624L799.182 198.597L800.996 197.753L797.753 190.781L795.939 191.624ZM799.134 198.471L800.756 203.7L802.666 203.108L801.044 197.879L799.134 198.471ZM800.722 203.554L801.88 211.181L803.858 210.88L802.699 203.254L800.722 203.554ZM801.869 211.03V217.131H803.869V211.03H801.869ZM801.869 217.131V219.964H803.869V217.131H801.869ZM801.969 219.529L800.81 221.926L802.611 222.796L803.769 220.399L801.969 219.529ZM800.776 222.006L799.618 225.056L801.487 225.766L802.646 222.716L800.776 222.006ZM799.72 224.858L797.403 228.344L799.069 229.451L801.385 225.965L799.72 224.858ZM797.454 228.274L796.759 229.146L798.323 230.393L799.018 229.521L797.454 228.274ZM796.541 229.769V230.423H798.541V229.769H796.541ZM797.541 229.423H794.761V231.423H797.541V229.423ZM794.699 229.425L791.224 229.643L791.349 231.639L794.824 231.421L794.699 229.425ZM791.015 229.678L788.698 230.332L789.241 232.257L791.558 231.603L791.015 229.678ZM788.605 230.363L785.825 231.453L786.555 233.315L789.335 232.225L788.605 230.363ZM785.816 231.456L782.573 232.764L783.321 234.619L786.564 233.311L785.816 231.456ZM782.406 232.85L778.004 235.683L779.086 237.365L783.488 234.532L782.406 232.85ZM778.12 235.619L775.803 236.708L776.654 238.518L778.971 237.429L778.12 235.619ZM775.628 236.814L769.836 241.172L771.039 242.77L776.83 238.412L775.628 236.814ZM769.752 241.243L766.277 244.511L767.648 245.968L771.123 242.699L769.752 241.243ZM766.244 244.544L763.927 246.941L765.365 248.331L767.682 245.934L766.244 244.544ZM763.924 246.945L759.754 251.303L761.199 252.685L765.369 248.328L763.924 246.945ZM759.688 251.379L757.139 254.648L758.717 255.877L761.265 252.609L759.688 251.379ZM757.036 254.811L754.719 259.386L756.504 260.29L758.82 255.714L757.036 254.811ZM754.737 259.353L751.957 264.364L753.706 265.335L756.486 260.323L754.737 259.353ZM751.917 264.445L749.601 269.674L751.429 270.484L753.746 265.255L751.917 264.445ZM749.558 269.788L748.168 274.364L750.082 274.945L751.472 270.37L749.558 269.788ZM748.135 274.517L747.44 279.529L749.421 279.804L750.116 274.792L748.135 274.517ZM747.434 279.581L746.971 285.029L748.963 285.198L749.427 279.751L747.434 279.581ZM746.967 285.113V289.035H748.967V285.113H746.967ZM747.005 289.308L747.931 292.577L749.856 292.031L748.929 288.763L747.005 289.308ZM747.989 292.731L748.916 294.692L750.724 293.838L749.798 291.877L747.989 292.731ZM749.004 293.687L745.761 298.262L747.393 299.419L750.636 294.843L749.004 293.687ZM745.761 298.262L743.445 301.531L745.076 302.687L747.393 299.419L745.761 298.262ZM743.395 301.607L740.616 306.401L742.346 307.404L745.125 302.611L743.395 301.607ZM740.652 306.342L737.409 311.136L739.066 312.257L742.309 307.463L740.652 306.342ZM737.354 311.227L724.845 334.759L726.611 335.698L739.12 312.166L737.354 311.227ZM724.806 334.841L717.393 352.49L719.237 353.265L726.65 335.616L724.806 334.841ZM717.371 352.547L709.959 373.682L711.846 374.344L719.259 353.209L717.371 352.547ZM709.953 373.699L704.625 389.823L706.524 390.451L711.852 374.327L709.953 373.699ZM704.708 389.638L701.696 394.867L703.429 395.865L706.441 390.636L704.708 389.638ZM701.832 394.683L691.64 405.578L693.1 406.944L703.293 396.05L701.832 394.683ZM691.729 405.493L681.537 413.991L682.817 415.527L693.01 407.029L691.729 405.493ZM681.646 413.911L667.746 422.627L668.809 424.321L682.708 415.606L681.646 413.911ZM667.779 422.607L659.44 427.401L660.436 429.135L668.776 424.341L667.779 422.607ZM659.035 427.838L656.024 434.156L657.829 435.017L660.841 428.698L659.035 427.838ZM655.939 434.431L655.012 440.314L656.988 440.625L657.914 434.742L655.939 434.431ZM655.003 440.54L655.466 447.077L657.461 446.936L656.997 440.399L655.003 440.54ZM655.654 447.593L659.128 452.387L660.748 451.213L657.273 446.42L655.654 447.593ZM659.253 452.528L662.728 455.797L664.098 454.34L660.623 451.072L659.253 452.528ZM662.812 455.867L667.445 459.354L668.647 457.756L664.014 454.269L662.812 455.867ZM667.25 459.16L669.566 462.21L671.159 461L668.842 457.95L667.25 459.16ZM669.363 461.605V465.091H671.363V461.605H669.363ZM669.52 464.554L668.13 466.733L669.816 467.808L671.206 465.629L669.52 464.554ZM668.04 466.91L667.113 469.307L668.979 470.028L669.905 467.631L668.04 466.91ZM667.05 469.582L666.586 475.03L668.579 475.199L669.042 469.752L667.05 469.582ZM666.594 475.265L667.057 478.315L669.035 478.015L668.571 474.964L666.594 475.265ZM667.12 478.543L669.437 484.209L671.288 483.452L668.972 477.786L667.12 478.543ZM669.595 484.471L674.692 490.572L676.226 489.29L671.13 483.189L669.595 484.471ZM674.939 490.785L678.877 493.182L679.917 491.474L675.979 489.077L674.939 490.785ZM679.017 493.253L686.43 496.303L687.191 494.454L679.778 491.403L679.017 493.253ZM686.589 496.353L693.307 497.879L693.749 495.928L687.031 494.403L686.589 496.353ZM693.528 497.904H702.794V495.904H693.528V497.904ZM703.002 497.882L710.183 496.356L709.768 494.4L702.586 495.925L703.002 497.882ZM710.267 496.335L718.143 493.938L717.561 492.025L709.684 494.422L710.267 496.335ZM718.106 493.949L728.067 491.334L727.559 489.4L717.598 492.014L718.106 493.949ZM727.944 491.358L742.77 489.397L742.508 487.414L727.682 489.375L727.944 491.358ZM742.302 489.347L747.166 491.09L747.841 489.208L742.976 487.464L742.302 489.347ZM747.055 491.043L750.53 492.786L751.427 490.998L747.952 489.255L747.055 491.043ZM750.377 492.691L755.01 496.177L756.213 494.579L751.58 491.093L750.377 492.691ZM754.612 495.378V497.121H756.612V495.378H754.612ZM754.691 496.73L753.765 498.909L755.605 499.692L756.532 497.513L754.691 496.73ZM754.045 498.532L748.022 503.543L749.301 505.081L755.324 500.069L754.045 498.532ZM748.283 503.387L739.248 507.091L740.007 508.941L749.041 505.237L748.283 503.387ZM738.685 507.682L737.295 511.604L739.18 512.272L740.57 508.35L738.685 507.682ZM737.494 512.607L740.042 515.439L741.529 514.102L738.981 511.269L737.494 512.607ZM740.374 515.682L746.165 518.297L746.988 516.474L741.197 513.859L740.374 515.682ZM746.266 518.336L751.594 520.079L752.216 518.178L746.888 516.435L746.266 518.336ZM751.804 520.123L760.375 520.995L760.577 519.005L752.006 518.134L751.804 520.123ZM760.498 521L770.459 520.782L770.416 518.782L760.454 519L760.498 521ZM770.692 520.749L792.236 515.084L791.727 513.15L770.183 518.815L770.692 520.749ZM792.186 515.096L798.441 513.788L798.031 511.831L791.777 513.138L792.186 515.096ZM798.257 513.809L808.45 513.591L808.407 511.592L798.215 511.81L798.257 513.809ZM808.29 513.582L819.178 515.107L819.455 513.127L808.568 511.601L808.29 513.582ZM819.082 515.089L828.117 517.268L828.586 515.324L819.551 513.145L819.082 515.089ZM828.143 517.274L840.42 519.889L840.837 517.932L828.559 515.318L828.143 517.274ZM840.629 519.911H846.188V517.911H840.629V519.911ZM846.188 519.911H853.138V517.911H846.188V519.911ZM853.35 519.888L862.385 517.927L861.961 515.972L852.926 517.933L853.35 519.888ZM862.538 517.881L870.877 514.612L870.147 512.75L861.808 516.018L862.538 517.881ZM871.048 514.526L881.009 508.207L879.938 506.518L869.977 512.837L871.048 514.526ZM880.98 508.224L884.687 506.045L883.673 504.321L879.967 506.5L880.98 508.224ZM884.18 506.183H894.836V504.183H884.18V506.183ZM894.67 506.17L907.643 508.348L907.974 506.376L895.002 504.197L894.67 506.17ZM907.729 508.359L918.617 509.231L918.776 507.237L907.888 506.365L907.729 508.359ZM918.753 509.232L926.398 508.796L926.284 506.8L918.639 507.235L918.753 509.232ZM926.57 508.772L936.763 506.375L936.305 504.428L926.112 506.825L926.57 508.772ZM936.943 506.314L941.807 504.135L940.99 502.31L936.125 504.489L936.943 506.314ZM942.037 503.992L949.913 497.455L948.636 495.916L940.76 502.453L942.037 503.992ZM950.167 497.137L952.484 492.562L950.699 491.658L948.383 496.234L950.167 497.137ZM952.58 492.26L953.275 487.684L951.298 487.384L950.603 491.96L952.58 492.26ZM953.261 487.312L952.566 484.262L950.616 484.706L951.311 487.756L953.261 487.312ZM952.249 485.237L955.492 482.404L954.177 480.898L950.934 483.731L952.249 485.237ZM955.078 482.621L958.553 481.75L958.066 479.81L954.591 480.681L955.078 482.621ZM958.6 481.736L966.477 479.339L965.894 477.426L958.018 479.823L958.6 481.736ZM966.799 479.173L976.065 471.982L974.839 470.402L965.573 477.593L966.799 479.173ZM976.358 471.616L978.906 466.169L977.094 465.321L974.546 470.769L976.358 471.616ZM979 465.745V462.695H977V465.745H979ZM979 462.695V459.862H977V462.695H979ZM978.665 459.115L956.89 439.723L955.559 441.217L977.335 460.609L978.665 459.115ZM956.997 439.834L941.939 421.532L940.395 422.802L955.452 441.105L956.997 439.834ZM942.093 421.788L933.985 401.96L932.133 402.717L940.241 422.545L942.093 421.788ZM934.007 402.021L931.227 393.741L929.331 394.377L932.111 402.657L934.007 402.021ZM931.252 393.829L928.472 382.063L926.526 382.523L929.306 394.289L931.252 393.829ZM928.485 382.127L927.096 373.847L925.123 374.179L926.513 382.458L928.485 382.127ZM927.084 373.791L924.305 361.589L922.354 362.033L925.134 374.235L927.084 373.791ZM924.285 361.516L920.115 348.007L918.204 348.597L922.374 362.106L924.285 361.516ZM920.043 347.832L918.884 345.654L917.118 346.592L918.277 348.771L920.043 347.832ZM918.916 345.718L917.757 343.103L915.929 343.913L917.087 346.528L918.916 345.718ZM917.826 343.69L919.68 333.667L917.713 333.303L915.86 343.326L917.826 343.69ZM919.667 333.727L922.215 323.486L920.274 323.003L917.726 333.244L919.667 333.727ZM922.201 323.535L923.591 318.959L921.678 318.378L920.288 322.954L922.201 323.535ZM923.623 318.819L924.318 314.243L922.341 313.943L921.646 318.518L923.623 318.819ZM924.329 314.127L924.792 300.618L922.793 300.549L922.33 314.059L924.329 314.127ZM924.793 300.584V294.483H922.793V300.584H924.793ZM924.595 295.08L926.217 292.901L924.612 291.707L922.991 293.886L924.595 295.08ZM926.363 292.619L927.522 289.133L925.624 288.502L924.465 291.989L926.363 292.619ZM927.548 289.04L928.243 285.989L926.293 285.545L925.598 288.595L927.548 289.04ZM928.268 285.767V280.538H926.268V285.767H928.268ZM928.197 280.167L927.502 278.424L925.644 279.165L926.339 280.908L928.197 280.167ZM926.495 279.792L929.274 280.009L929.431 278.016L926.651 277.798L926.495 279.792ZM928.509 279.55L929.899 281.729L931.586 280.654L930.196 278.475L928.509 279.55ZM930.057 281.92L932.142 283.881L933.512 282.424L931.428 280.463L930.057 281.92ZM932.402 284.057L934.255 284.929L935.106 283.119L933.253 282.248L932.402 284.057ZM935.212 284.871L935.907 284.435L934.844 282.741L934.149 283.177L935.212 284.871ZM936.376 283.588V282.717H934.376V283.588H936.376ZM936.157 282.093L932.683 277.735L931.119 278.982L934.594 283.34L936.157 282.093ZM932.628 277.672L930.774 275.711L929.321 277.085L931.174 279.046L932.628 277.672ZM930.567 275.544L926.629 273.147L925.589 274.855L929.528 277.252L930.567 275.544ZM926.811 273.289L921.946 268.495L920.543 269.92L925.407 274.713L926.811 273.289ZM922.157 268.799L918.451 260.519L916.625 261.336L920.332 269.616L922.157 268.799ZM918.294 260.273L910.186 250.904L908.674 252.213L916.782 261.582L918.294 260.273ZM910.131 250.845L904.803 245.615L903.402 247.043L908.73 252.272L910.131 250.845ZM904.825 245.638L892.548 232.783L891.101 234.164L903.379 247.019L904.825 245.638ZM892.51 232.745L883.475 224.247L882.105 225.704L891.139 234.202L892.51 232.745ZM883.366 224.158L875.953 218.929L874.801 220.563L882.213 225.793L883.366 224.158ZM876.331 219.446L874.478 213.563L872.57 214.164L874.423 220.047L876.331 219.446ZM874.522 213.813L874.291 209.237L872.293 209.338L872.525 213.914L874.522 213.813ZM874.192 209.722L875.351 207.326L873.55 206.455L872.392 208.852L874.192 209.722ZM875.45 206.891V204.712H873.45V206.891H875.45ZM874.635 203.729L872.319 203.293L871.949 205.259L874.265 205.694L874.635 203.729ZM873.134 204.276V202.533H871.134V204.276H873.134ZM873.134 202.533V196.214H871.134V202.533H873.134ZM872.73 197.017L877.131 193.748L875.939 192.143L871.538 195.411L872.73 197.017ZM877.292 193.599L883.315 186.627L881.802 185.319L875.778 192.292L877.292 193.599ZM883.487 186.343L886.962 177.628L885.104 176.887L881.629 185.603L883.487 186.343ZM887.033 177.257V167.67H885.033V177.257H887.033ZM886.687 166.914L880.896 161.902L879.587 163.415L885.379 168.426L886.687 166.914ZM880.463 161.683L873.745 160.158L873.302 162.109L880.02 163.634L880.463 161.683ZM873.252 160.171L863.986 162.786L864.529 164.711L873.795 162.096L873.252 160.171ZM863.794 162.862L859.625 165.041L860.551 166.813L864.721 164.634L863.794 162.862ZM860.088 164.927H858.466V166.927H860.088V164.927ZM859.222 165.272L854.126 159.389L852.614 160.699L857.71 166.582L859.222 165.272ZM854.37 160.044V153.725H852.37V160.044H854.37ZM854.348 153.933L855.506 148.486L853.55 148.07L852.392 153.517L854.348 153.933ZM854.795 149.242L858.733 148.152L858.2 146.225L854.261 147.314L854.795 149.242ZM859.129 147.937L863.067 144.451L861.741 142.953L857.803 146.44L859.129 147.937ZM862.404 144.702H868.427V142.702H862.404V144.702ZM868.692 144.667L872.398 143.65L871.869 141.721L868.163 142.738L868.692 144.667ZM872.657 143.538L883.081 137.146L882.036 135.441L871.611 141.833L872.657 143.538ZM883.33 136.93L890.511 128.214L888.968 126.942L881.787 135.658L883.33 136.93ZM890.704 127.841L893.021 119.343L891.091 118.817L888.775 127.315L890.704 127.841ZM893.056 119.08V116.684H891.056V119.08H893.056ZM892.974 117.079L896.449 109.018L894.613 108.226L891.138 116.288L892.974 117.079ZM896.531 108.622V102.739H894.531V108.622H896.531ZM896.364 102.185L892.889 96.9558L891.223 98.0627L894.698 103.292L896.364 102.185ZM892.056 96.5092H889.74V98.5092H892.056V96.5092ZM890.74 97.5092V94.4588H888.74V97.5092H890.74ZM890.666 94.0834L888.813 89.5077L886.959 90.2585L888.813 94.8342L890.666 94.0834ZM888.115 88.9096L885.335 88.2559L884.878 90.2028L887.657 90.8565L888.115 88.9096ZM885.388 88.27L881.682 87.1805L881.118 89.0993L884.824 90.1888L885.388 88.27ZM881.786 87.2173L879.701 86.3457L878.929 88.191L881.014 89.0626L881.786 87.2173ZM880 86.54L877.684 84.361L876.313 85.8179L878.63 87.9968L880 86.54ZM877.217 84.1136L872.352 83.0242L871.915 84.9758L876.78 86.0653L877.217 84.1136ZM871.552 83.1865L865.761 87.3264L866.924 88.9534L872.715 84.8135L871.552 83.1865ZM865.371 87.9017L864.676 90.7342L866.619 91.2108L867.314 88.3782L865.371 87.9017ZM864.647 90.9725V92.9335H866.647V90.9725H864.647ZM865.647 91.9335H857.076V93.9335H865.647V91.9335ZM905.217 266.247L890.16 266.901L890.246 268.899L905.304 268.245L905.217 266.247ZM889.626 267.083L886.847 269.044L887.999 270.678L890.779 268.717L889.626 267.083ZM887.194 268.888L882.561 269.977L883.019 271.924L887.652 270.835L887.194 268.888ZM883.744 270.652L882.586 266.948L880.677 267.545L881.836 271.249L883.744 270.652ZM882.362 266.563L877.265 261.116L875.805 262.482L880.901 267.93L882.362 266.563ZM877.337 261.202L874.094 256.844L872.49 258.038L875.733 262.396L877.337 261.202ZM874.016 256.751L861.97 244.114L860.522 245.494L872.568 258.131L874.016 256.751ZM861.772 243.953L853.664 238.941L852.612 240.643L860.72 245.654L861.772 243.953ZM853.564 238.887L843.371 234.094L842.52 235.903L852.713 240.697L853.564 238.887ZM843.221 234.037L837.892 232.512L837.342 234.435L842.67 235.96L843.221 234.037ZM838.617 233.473V229.987H836.617V233.473H838.617ZM838.551 229.63L836.466 224.182L834.598 224.897L836.683 230.344L838.551 229.63ZM836.342 225.127L839.817 220.333L838.198 219.159L834.723 223.953L836.342 225.127ZM839.897 220.202L842.909 214.319L841.129 213.407L838.117 219.29L839.897 220.202ZM842.477 214.752L849.658 211.048L848.742 209.27L841.56 212.974L842.477 214.752ZM849.989 210.774L855.085 204.237L853.508 203.007L848.411 209.544L849.989 210.774ZM854.803 204.484L856.656 203.395L855.643 201.671L853.79 202.76L854.803 204.484ZM855.15 202.533V210.159H857.15V202.533H855.15ZM855.464 209.431L853.611 211.174L854.982 212.63L856.835 210.887L855.464 209.431ZM853.354 212.236L854.049 214.197L855.934 213.529L855.239 211.568L853.354 212.236ZM854.108 214.332L855.267 216.511L857.033 215.573L855.874 213.394L854.108 214.332ZM855.427 216.733L857.512 218.912L858.957 217.53L856.872 215.351L855.427 216.733ZM857.235 218.221V224.54H859.235V218.221H857.235ZM857.285 224.853L859.37 231.172L861.269 230.545L859.184 224.226L857.285 224.853ZM859.689 231.635L864.785 235.775L866.046 234.222L860.95 230.082L859.689 231.635ZM864.894 235.852L891.998 252.412L893.041 250.705L865.937 234.145L864.894 235.852ZM891.957 252.385L907.015 262.626L908.139 260.972L893.082 250.731L891.957 252.385ZM906.761 262.377L908.614 264.992L910.246 263.836L908.393 261.221L906.761 262.377ZM908.43 264.414V267.9H910.43V264.414H908.43ZM908.504 270.861H909.199V268.861H908.504V270.861ZM909.408 270.288L909.574 269.937L907.765 269.083L907.599 269.434L909.408 270.288ZM909.223 268.677L905.814 266.413L904.707 268.079L908.116 270.343L909.223 268.677ZM908.526 267.473L907.765 269.083L909.574 269.937L910.334 268.327L908.526 267.473ZM908.116 270.343L908.645 270.694L909.752 269.028L909.223 268.677L908.116 270.343Z" fill="#48ABD7" mask="url(#path-20-inside-1_329_278)"/>
<mask id="path-22-outside-2_329_278" maskUnits="userSpaceOnUse" x="1268" y="106" width="328" height="440" fill="black">
<rect fill="white" x="1268" y="106" width="328" height="440"/>
<path d="M1326.67 126.943L1324.94 125.192L1323.64 118.628L1324.94 111.626V109L1321.48 111.626L1319.31 113.814L1316.29 120.378L1313.26 126.067V134.82L1311.96 146.636L1307.63 144.885L1304.61 141.822L1302.88 145.761L1301.15 150.574V158.452V161.515L1299.42 162.39V165.891H1302.88L1305.9 168.955L1307.63 170.705L1305.9 176.394L1304.61 183.834V191.274V196.963V204.84V208.779L1305.9 212.717L1308.5 219.282L1311.96 222.345V224.971V227.597L1311.09 231.098L1314.56 233.286V235.911V237.662L1311.09 241.163L1307.63 243.789L1305.9 246.852L1303.74 252.979L1304.61 256.918V262.607V269.171L1302.44 274.86L1299.85 283.613L1298.98 288.864V291.928V294.553L1301.15 296.741L1303.74 300.242L1304.61 303.743V311.183V319.498L1303.74 329.126L1302.01 340.066V344.88V354.946L1302.88 362.385V369.387L1304.61 375.952L1307.63 382.954V387.33L1305.9 390.393V395.645L1305.47 400.021L1304.61 407.898L1303.74 414.463L1299.42 430.217L1295.95 442.908L1291.2 454.287L1287.3 466.103L1284.28 477.481L1279.95 484.921L1279.52 487.109V488.422L1283.41 489.734L1285.57 491.047L1286.44 493.235L1283.41 495.206L1279.08 497.612L1270 505.489L1272.6 506.802L1279.52 505.927L1292.06 501.988L1300.28 498.925L1305.47 497.612L1308.93 499.362L1311.53 500.675L1314.99 501.55L1319.31 498.925L1321.91 500.237L1324.5 501.988L1322.34 510.303L1321.91 516.867V519.055L1326.67 520.368L1335.75 522.556L1342.24 523.432L1346.57 525.182L1342.24 529.121L1338.35 536.56L1336.18 541.812L1337.05 544L1341.38 543.125L1352.19 536.998L1363.44 526.933L1364.73 526.057H1374.68H1391.12L1399.34 523.432L1401.94 517.742L1400.64 509.865L1397.61 496.299L1392.85 471.792L1390.26 447.285L1388.09 431.968L1386.8 414.463L1385.07 399.584L1382.9 394.332L1382.04 391.269L1382.9 382.954L1388.09 372.888L1390.69 365.449L1391.99 357.134L1392.42 347.068L1394.15 336.128L1396.74 325.625L1397.61 318.623L1398.91 306.807L1399.77 304.619L1404.53 303.306V298.054L1399.77 286.676L1394.58 275.735L1386.8 266.545L1378.58 257.793L1371.22 252.979L1366.9 251.228L1365.17 249.04L1385.5 240.725L1403.23 235.036L1431.78 224.971L1465.96 214.468L1498.83 200.026L1511.81 192.587L1520.89 183.396L1527.82 174.206L1537.77 165.016L1558.96 151.887L1574.97 141.822L1590.54 130.444L1594 126.067L1590.97 125.63L1583.62 128.693L1561.56 135.695L1542.96 140.947H1537.77L1536.47 138.321L1540.36 130.444L1544.25 123.004V119.503H1542.96L1533.44 128.693L1519.6 140.509L1507.48 147.511L1495.81 154.075L1488.45 160.64L1480.66 168.517L1469.85 180.333L1462.5 187.773L1450.82 194.337L1437.84 200.026L1428.32 205.278L1416.64 210.967L1405.4 215.781L1393.28 220.595L1385.5 224.096L1376.85 225.846L1370.79 227.597H1366.46L1365.6 224.971L1364.3 221.907L1362.57 220.595V218.406L1370.79 213.593L1376.41 207.028L1378.14 202.214L1378.58 196.088L1382.9 193.024L1385.5 187.773L1387.23 183.834L1391.55 185.147L1393.28 181.646V174.644V172.018H1399.34L1404.1 170.268V166.767L1398.04 161.953L1395.45 158.014V154.951L1400.64 151.012L1398.04 146.636L1393.28 143.135L1388.96 142.26L1387.66 139.634L1388.96 135.258L1389.82 132.632L1382.9 132.194L1378.14 131.757L1378.58 124.317V120.816L1373.39 121.254L1368.63 123.442L1363.44 124.317L1360.84 122.566L1361.27 118.19L1362.57 116.002L1358.68 115.127L1353.92 117.315L1347 123.442L1344.4 125.192L1343.11 121.254L1341.81 117.315L1342.24 112.939L1341.81 111.626L1335.75 116.002L1333.59 122.129L1330.56 126.943H1326.67Z"/>
</mask>
<path d="M1326.67 126.943L1324.94 125.192L1323.64 118.628L1324.94 111.626V109L1321.48 111.626L1319.31 113.814L1316.29 120.378L1313.26 126.067V134.82L1311.96 146.636L1307.63 144.885L1304.61 141.822L1302.88 145.761L1301.15 150.574V158.452V161.515L1299.42 162.39V165.891H1302.88L1305.9 168.955L1307.63 170.705L1305.9 176.394L1304.61 183.834V191.274V196.963V204.84V208.779L1305.9 212.717L1308.5 219.282L1311.96 222.345V224.971V227.597L1311.09 231.098L1314.56 233.286V235.911V237.662L1311.09 241.163L1307.63 243.789L1305.9 246.852L1303.74 252.979L1304.61 256.918V262.607V269.171L1302.44 274.86L1299.85 283.613L1298.98 288.864V291.928V294.553L1301.15 296.741L1303.74 300.242L1304.61 303.743V311.183V319.498L1303.74 329.126L1302.01 340.066V344.88V354.946L1302.88 362.385V369.387L1304.61 375.952L1307.63 382.954V387.33L1305.9 390.393V395.645L1305.47 400.021L1304.61 407.898L1303.74 414.463L1299.42 430.217L1295.95 442.908L1291.2 454.287L1287.3 466.103L1284.28 477.481L1279.95 484.921L1279.52 487.109V488.422L1283.41 489.734L1285.57 491.047L1286.44 493.235L1283.41 495.206L1279.08 497.612L1270 505.489L1272.6 506.802L1279.52 505.927L1292.06 501.988L1300.28 498.925L1305.47 497.612L1308.93 499.362L1311.53 500.675L1314.99 501.55L1319.31 498.925L1321.91 500.237L1324.5 501.988L1322.34 510.303L1321.91 516.867V519.055L1326.67 520.368L1335.75 522.556L1342.24 523.432L1346.57 525.182L1342.24 529.121L1338.35 536.56L1336.18 541.812L1337.05 544L1341.38 543.125L1352.19 536.998L1363.44 526.933L1364.73 526.057H1374.68H1391.12L1399.34 523.432L1401.94 517.742L1400.64 509.865L1397.61 496.299L1392.85 471.792L1390.26 447.285L1388.09 431.968L1386.8 414.463L1385.07 399.584L1382.9 394.332L1382.04 391.269L1382.9 382.954L1388.09 372.888L1390.69 365.449L1391.99 357.134L1392.42 347.068L1394.15 336.128L1396.74 325.625L1397.61 318.623L1398.91 306.807L1399.77 304.619L1404.53 303.306V298.054L1399.77 286.676L1394.58 275.735L1386.8 266.545L1378.58 257.793L1371.22 252.979L1366.9 251.228L1365.17 249.04L1385.5 240.725L1403.23 235.036L1431.78 224.971L1465.96 214.468L1498.83 200.026L1511.81 192.587L1520.89 183.396L1527.82 174.206L1537.77 165.016L1558.96 151.887L1574.97 141.822L1590.54 130.444L1594 126.067L1590.97 125.63L1583.62 128.693L1561.56 135.695L1542.96 140.947H1537.77L1536.47 138.321L1540.36 130.444L1544.25 123.004V119.503H1542.96L1533.44 128.693L1519.6 140.509L1507.48 147.511L1495.81 154.075L1488.45 160.64L1480.66 168.517L1469.85 180.333L1462.5 187.773L1450.82 194.337L1437.84 200.026L1428.32 205.278L1416.64 210.967L1405.4 215.781L1393.28 220.595L1385.5 224.096L1376.85 225.846L1370.79 227.597H1366.46L1365.6 224.971L1364.3 221.907L1362.57 220.595V218.406L1370.79 213.593L1376.41 207.028L1378.14 202.214L1378.58 196.088L1382.9 193.024L1385.5 187.773L1387.23 183.834L1391.55 185.147L1393.28 181.646V174.644V172.018H1399.34L1404.1 170.268V166.767L1398.04 161.953L1395.45 158.014V154.951L1400.64 151.012L1398.04 146.636L1393.28 143.135L1388.96 142.26L1387.66 139.634L1388.96 135.258L1389.82 132.632L1382.9 132.194L1378.14 131.757L1378.58 124.317V120.816L1373.39 121.254L1368.63 123.442L1363.44 124.317L1360.84 122.566L1361.27 118.19L1362.57 116.002L1358.68 115.127L1353.92 117.315L1347 123.442L1344.4 125.192L1343.11 121.254L1341.81 117.315L1342.24 112.939L1341.81 111.626L1335.75 116.002L1333.59 122.129L1330.56 126.943H1326.67Z" fill="#279B61"/>
<path d="M1326.67 126.943L1324.94 125.192L1323.64 118.628L1324.94 111.626V109L1321.48 111.626L1319.31 113.814L1316.29 120.378L1313.26 126.067V134.82L1311.96 146.636L1307.63 144.885L1304.61 141.822L1302.88 145.761L1301.15 150.574V158.452V161.515L1299.42 162.39V165.891H1302.88L1305.9 168.955L1307.63 170.705L1305.9 176.394L1304.61 183.834V191.274V196.963V204.84V208.779L1305.9 212.717L1308.5 219.282L1311.96 222.345V224.971V227.597L1311.09 231.098L1314.56 233.286V235.911V237.662L1311.09 241.163L1307.63 243.789L1305.9 246.852L1303.74 252.979L1304.61 256.918V262.607V269.171L1302.44 274.86L1299.85 283.613L1298.98 288.864V291.928V294.553L1301.15 296.741L1303.74 300.242L1304.61 303.743V311.183V319.498L1303.74 329.126L1302.01 340.066V344.88V354.946L1302.88 362.385V369.387L1304.61 375.952L1307.63 382.954V387.33L1305.9 390.393V395.645L1305.47 400.021L1304.61 407.898L1303.74 414.463L1299.42 430.217L1295.95 442.908L1291.2 454.287L1287.3 466.103L1284.28 477.481L1279.95 484.921L1279.52 487.109V488.422L1283.41 489.734L1285.57 491.047L1286.44 493.235L1283.41 495.206L1279.08 497.612L1270 505.489L1272.6 506.802L1279.52 505.927L1292.06 501.988L1300.28 498.925L1305.47 497.612L1308.93 499.362L1311.53 500.675L1314.99 501.55L1319.31 498.925L1321.91 500.237L1324.5 501.988L1322.34 510.303L1321.91 516.867V519.055L1326.67 520.368L1335.75 522.556L1342.24 523.432L1346.57 525.182L1342.24 529.121L1338.35 536.56L1336.18 541.812L1337.05 544L1341.38 543.125L1352.19 536.998L1363.44 526.933L1364.73 526.057H1374.68H1391.12L1399.34 523.432L1401.94 517.742L1400.64 509.865L1397.61 496.299L1392.85 471.792L1390.26 447.285L1388.09 431.968L1386.8 414.463L1385.07 399.584L1382.9 394.332L1382.04 391.269L1382.9 382.954L1388.09 372.888L1390.69 365.449L1391.99 357.134L1392.42 347.068L1394.15 336.128L1396.74 325.625L1397.61 318.623L1398.91 306.807L1399.77 304.619L1404.53 303.306V298.054L1399.77 286.676L1394.58 275.735L1386.8 266.545L1378.58 257.793L1371.22 252.979L1366.9 251.228L1365.17 249.04L1385.5 240.725L1403.23 235.036L1431.78 224.971L1465.96 214.468L1498.83 200.026L1511.81 192.587L1520.89 183.396L1527.82 174.206L1537.77 165.016L1558.96 151.887L1574.97 141.822L1590.54 130.444L1594 126.067L1590.97 125.63L1583.62 128.693L1561.56 135.695L1542.96 140.947H1537.77L1536.47 138.321L1540.36 130.444L1544.25 123.004V119.503H1542.96L1533.44 128.693L1519.6 140.509L1507.48 147.511L1495.81 154.075L1488.45 160.64L1480.66 168.517L1469.85 180.333L1462.5 187.773L1450.82 194.337L1437.84 200.026L1428.32 205.278L1416.64 210.967L1405.4 215.781L1393.28 220.595L1385.5 224.096L1376.85 225.846L1370.79 227.597H1366.46L1365.6 224.971L1364.3 221.907L1362.57 220.595V218.406L1370.79 213.593L1376.41 207.028L1378.14 202.214L1378.58 196.088L1382.9 193.024L1385.5 187.773L1387.23 183.834L1391.55 185.147L1393.28 181.646V174.644V172.018H1399.34L1404.1 170.268V166.767L1398.04 161.953L1395.45 158.014V154.951L1400.64 151.012L1398.04 146.636L1393.28 143.135L1388.96 142.26L1387.66 139.634L1388.96 135.258L1389.82 132.632L1382.9 132.194L1378.14 131.757L1378.58 124.317V120.816L1373.39 121.254L1368.63 123.442L1363.44 124.317L1360.84 122.566L1361.27 118.19L1362.57 116.002L1358.68 115.127L1353.92 117.315L1347 123.442L1344.4 125.192L1343.11 121.254L1341.81 117.315L1342.24 112.939L1341.81 111.626L1335.75 116.002L1333.59 122.129L1330.56 126.943H1326.67Z" stroke="#279B61" stroke-width="2" mask="url(#path-22-outside-2_329_278)"/>
</svg>
