<svg width="467" height="622" viewBox="0 0 467 622" fill="none" xmlns="http://www.w3.org/2000/svg">
<rect width="466.301" height="621.693" rx="35" fill="#FFF6E9"/>
<rect x="2.82617" y="2.43805" width="460.649" height="616.817" rx="200" fill="white" fill-opacity="0.59"/>
<path d="M40.6788 119.808C40.6788 119.808 41.5539 115.179 43.2451 113.72C44.9363 112.261 47.9119 111.506 50.3024 111.506C52.6929 111.506 55.6685 112.261 57.3597 113.72C59.0509 115.179 59.926 117.746 59.926 119.808C59.926 121.871 58.6429 124.79 57.3597 125.897C56.0766 127.004 54.7934 127.557 53.5103 128.664C52.2271 129.771 51.5856 129.771 50.3024 130.878L47.0945 133.645C45.8114 134.752 43.8867 136.966 42.6035 139.18C41.3204 141.394 40.6788 144.715 40.6788 144.715C40.6788 144.715 40.0372 141.394 38.7541 139.18C37.471 136.966 35.5462 134.752 34.2631 133.645L31.0552 130.878C29.7721 129.771 29.1305 129.771 27.8474 128.664C26.5642 127.557 25.2811 127.004 23.9979 125.897C22.7148 124.79 21.4316 121.871 21.4316 119.808C21.4316 117.746 22.3067 115.179 23.9979 113.72C25.6891 112.261 28.6647 111.506 31.0552 111.506C33.4457 111.506 36.4213 112.261 38.1125 113.72C39.8037 115.179 40.6788 119.808 40.6788 119.808Z" fill="#48ABD7"/>
<path d="M425.622 501.707C425.622 501.707 426.497 506.336 428.188 507.795C429.88 509.254 432.855 510.009 435.246 510.009C437.636 510.009 440.612 509.254 442.303 507.795C443.994 506.336 444.869 503.769 444.869 501.707C444.869 499.645 443.586 496.726 442.303 495.619C441.02 494.512 439.737 493.958 438.454 492.851C437.17 491.745 436.529 491.745 435.246 490.638L432.038 487.87C430.755 486.763 428.83 484.549 427.547 482.335C426.264 480.122 425.622 476.801 425.622 476.801C425.622 476.801 424.981 480.122 423.697 482.335C422.414 484.549 420.49 486.763 419.206 487.87L415.999 490.638C414.715 491.745 414.074 491.745 412.791 492.851C411.508 493.958 410.224 494.512 408.941 495.619C407.658 496.726 406.375 499.645 406.375 501.707C406.375 503.769 407.25 506.336 408.941 507.795C410.632 509.254 413.608 510.009 415.999 510.009C418.389 510.009 421.365 509.254 423.056 507.795C424.747 506.336 425.622 501.707 425.622 501.707Z" fill="#48ABD7"/>
<path d="M60.3204 100.351H55.0324L51.3735 86.8089H35.2339L31.5749 100.351H26.5376L40.1209 51.7634H46.7371L60.3204 100.351ZM49.8447 81.2617L43.3037 57.4086L36.7376 81.2617H49.8447V81.2617Z" fill="#48ABD7"/>
<path d="M442.136 519.762H436.848L433.189 533.304H417.05L413.391 519.762H408.354L421.937 568.35H428.553L442.136 519.762ZM431.661 538.851L425.12 562.705L418.554 538.851H431.661V538.851Z" fill="#48ABD7"/>
<mask id="path-7-inside-1_333_280" fill="white">
<path d="M283.692 92.9335L280.681 89.8831L278.364 88.1399L274.89 85.961H271.878H267.708L265.623 87.2684L262.844 91.8441V94.4588L264.233 97.5092L262.844 99.0345L261.222 100.778V102.739V104.482V106.225V108.622V110.365V112.326L260.295 113.197V115.158L257.979 116.684L255.199 120.17L254.041 122.131C254.041 122.131 254.07 124.062 254.041 126.053C254.011 128.044 253.346 132.154 253.346 132.154L253.577 135.422L253.346 138.909L252.651 140.87V143.048L254.736 145.445L258.21 147.188H261.917L259.6 148.932L259.369 150.457V152.2L256.821 154.379H254.272H249.871L250.798 152.2L249.871 147.188L247.323 143.702L245.238 141.741L243.385 140.87L240.836 140.216H233.887L231.57 141.741L228.095 144.356L225.779 146.753L224.389 150.021L223.694 152.2L222.536 155.25L221.377 158.083V161.351V163.748V165.709L216.049 169.631L210.49 173.335L205.625 176.604L202.15 175.078L199.37 177.257L198.212 177.475L194.274 180.308L190.104 180.744L185.934 181.397L182.459 181.615H181.533L179.68 178.347L178.753 175.514L176.205 171.592L163.695 152.2L156.282 137.601L153.966 133.461V130.629L153.734 128.014L151.881 125.617L146.09 121.041L142.846 119.734L139.372 116.902L137.518 115.594L136.128 114.723L135.897 115.812L135.665 117.337L135.897 118.645L137.518 119.298L139.14 120.388L140.298 121.259L141.456 123.002L130.8 121.695L125.472 120.388L123.387 119.734L121.766 118.645L117.828 117.337L115.743 116.902H115.28V118.209L115.974 119.08L116.206 119.952L117.828 121.695L120.839 124.092L123.851 126.489L124.777 128.45L125.936 130.629L127.326 131.282L133.117 132.154L137.518 132.808L141.456 133.897L144.7 136.294L147.48 139.78L149.796 145.009L153.503 158.737L157.672 173.989L161.147 182.487L166.244 194.035L168.792 197.957L171.108 199.918L178.521 200.354L184.776 199.7L191.726 197.957L196.822 196.65L200.76 195.56H207.015L210.49 195.124L212.111 193.381L211.648 192.51L216.513 189.677L219.756 188.588H221.609L223.462 191.202L226.705 198.175L228.327 203.404L229.485 211.03V217.131V219.964L228.327 222.361L227.169 225.411L224.852 228.898L224.157 229.769V230.423H221.377L217.903 230.641L215.586 231.294L212.806 232.384L209.563 233.691L205.162 236.524L202.845 237.613L197.054 241.971L193.579 245.239L191.262 247.636L187.092 251.994L184.544 255.262L182.228 259.838L179.448 264.85L177.131 270.079L175.741 274.655L175.046 279.666L174.583 285.113V289.035L175.51 292.304L176.436 294.265L173.193 298.841L170.877 302.109L168.097 306.903L164.854 311.696L152.344 335.228L144.931 352.878L137.518 374.013L132.19 390.137L129.179 395.366L118.986 406.261L108.793 414.759L94.8939 423.474L86.5543 428.268L83.5428 434.587L82.6162 440.47L83.0795 447.006L86.5543 451.8L90.0292 455.068L94.6623 458.555L96.9788 461.605V465.091L95.5889 467.27L94.6623 469.667L94.1989 475.114L94.6623 478.165L96.9788 483.83L102.075 489.931L106.013 492.328L113.426 495.378L120.144 496.904H129.41L136.592 495.378L144.468 492.981L154.429 490.367L169.255 488.406L174.12 490.149L177.595 491.892L182.228 495.378V497.121L181.301 499.3L175.278 504.312L166.244 508.016L164.854 511.938L167.402 514.771L173.193 517.385L178.521 519.128L187.092 520L197.054 519.782L218.597 514.117L224.852 512.81L235.045 512.592L245.933 514.117L254.967 516.296L267.245 518.911H272.805H279.754L288.789 516.95L297.128 513.681L307.09 507.362L310.796 505.183H321.452L334.425 507.362L345.313 508.234L352.957 507.798L363.15 505.401L368.015 503.222L375.891 496.686L378.208 492.11L378.903 487.534L378.208 484.484L381.451 481.651L384.926 480.78L392.802 478.383L402.068 471.192L404.616 465.745V462.695V459.862L382.841 440.47L367.783 422.167L359.675 402.339L356.895 394.059L354.115 382.293L352.726 374.013L349.946 361.811L345.776 348.302L344.618 346.123L343.459 343.508L345.313 333.485L347.861 323.244L349.251 318.669L349.946 314.093L350.409 300.584V294.483L347.861 285.767L344.618 280.102L342.764 275.526L339.753 272.476L335.815 269.861H335.12L335.286 269.51L331.877 267.246L316.819 267.9L314.039 269.861L309.406 270.951L308.248 267.246L303.151 261.799L299.908 257.441L287.862 244.804L279.754 239.792L269.562 234.998L264.233 233.473V229.987L262.149 224.54L265.623 219.746L268.635 213.863L275.816 210.159L280.913 203.622L282.766 202.533V210.159L280.913 211.902L281.608 213.863L282.766 216.042L284.851 218.221V224.54L286.936 230.859L292.032 234.998L319.136 251.558L334.193 261.799L336.046 264.414V267.9L335.286 269.51L335.815 269.861L339.753 272.476L342.764 275.526L344.618 280.102L347.861 285.767L350.409 294.483L352.031 292.304L353.189 288.818L353.884 285.767V280.538L353.189 278.795L355.969 279.012L357.359 281.191L359.444 283.152L361.297 284.024L361.992 283.588V282.717L358.517 278.359L356.664 276.398L352.726 274.001L347.861 269.207L344.154 260.928L336.046 251.558L330.718 246.329L318.441 233.473L309.406 224.976L301.993 219.746L300.14 213.863L299.908 209.287L301.067 206.891V204.712L298.75 204.276V202.533V196.214L303.151 192.946L309.174 185.973L312.649 177.257V167.67L306.858 162.659L300.14 161.133L290.874 163.748L286.704 165.927H285.082L279.986 160.044V153.725L281.144 148.278L285.082 147.188L289.021 143.702H295.044L298.75 142.685L309.174 136.294L316.356 127.578L318.672 119.08V116.684L322.147 108.622V102.739L318.672 97.5092H316.356V94.4588L314.503 89.8831L311.723 89.2294L308.016 88.1399L305.931 87.2684L303.615 85.0895L298.75 84L292.959 88.1399L292.264 90.9725V92.9335H283.692Z"/>
</mask>
<path d="M283.692 92.9335L280.681 89.8831L278.364 88.1399L274.89 85.961H271.878H267.708L265.623 87.2684L262.844 91.8441V94.4588L264.233 97.5092L262.844 99.0345L261.222 100.778V102.739V104.482V106.225V108.622V110.365V112.326L260.295 113.197V115.158L257.979 116.684L255.199 120.17L254.041 122.131C254.041 122.131 254.07 124.062 254.041 126.053C254.011 128.044 253.346 132.154 253.346 132.154L253.577 135.422L253.346 138.909L252.651 140.87V143.048L254.736 145.445L258.21 147.188H261.917L259.6 148.932L259.369 150.457V152.2L256.821 154.379H254.272H249.871L250.798 152.2L249.871 147.188L247.323 143.702L245.238 141.741L243.385 140.87L240.836 140.216H233.887L231.57 141.741L228.095 144.356L225.779 146.753L224.389 150.021L223.694 152.2L222.536 155.25L221.377 158.083V161.351V163.748V165.709L216.049 169.631L210.49 173.335L205.625 176.604L202.15 175.078L199.37 177.257L198.212 177.475L194.274 180.308L190.104 180.744L185.934 181.397L182.459 181.615H181.533L179.68 178.347L178.753 175.514L176.205 171.592L163.695 152.2L156.282 137.601L153.966 133.461V130.629L153.734 128.014L151.881 125.617L146.09 121.041L142.846 119.734L139.372 116.902L137.518 115.594L136.128 114.723L135.897 115.812L135.665 117.337L135.897 118.645L137.518 119.298L139.14 120.388L140.298 121.259L141.456 123.002L130.8 121.695L125.472 120.388L123.387 119.734L121.766 118.645L117.828 117.337L115.743 116.902H115.28V118.209L115.974 119.08L116.206 119.952L117.828 121.695L120.839 124.092L123.851 126.489L124.777 128.45L125.936 130.629L127.326 131.282L133.117 132.154L137.518 132.808L141.456 133.897L144.7 136.294L147.48 139.78L149.796 145.009L153.503 158.737L157.672 173.989L161.147 182.487L166.244 194.035L168.792 197.957L171.108 199.918L178.521 200.354L184.776 199.7L191.726 197.957L196.822 196.65L200.76 195.56H207.015L210.49 195.124L212.111 193.381L211.648 192.51L216.513 189.677L219.756 188.588H221.609L223.462 191.202L226.705 198.175L228.327 203.404L229.485 211.03V217.131V219.964L228.327 222.361L227.169 225.411L224.852 228.898L224.157 229.769V230.423H221.377L217.903 230.641L215.586 231.294L212.806 232.384L209.563 233.691L205.162 236.524L202.845 237.613L197.054 241.971L193.579 245.239L191.262 247.636L187.092 251.994L184.544 255.262L182.228 259.838L179.448 264.85L177.131 270.079L175.741 274.655L175.046 279.666L174.583 285.113V289.035L175.51 292.304L176.436 294.265L173.193 298.841L170.877 302.109L168.097 306.903L164.854 311.696L152.344 335.228L144.931 352.878L137.518 374.013L132.19 390.137L129.179 395.366L118.986 406.261L108.793 414.759L94.8939 423.474L86.5543 428.268L83.5428 434.587L82.6162 440.47L83.0795 447.006L86.5543 451.8L90.0292 455.068L94.6623 458.555L96.9788 461.605V465.091L95.5889 467.27L94.6623 469.667L94.1989 475.114L94.6623 478.165L96.9788 483.83L102.075 489.931L106.013 492.328L113.426 495.378L120.144 496.904H129.41L136.592 495.378L144.468 492.981L154.429 490.367L169.255 488.406L174.12 490.149L177.595 491.892L182.228 495.378V497.121L181.301 499.3L175.278 504.312L166.244 508.016L164.854 511.938L167.402 514.771L173.193 517.385L178.521 519.128L187.092 520L197.054 519.782L218.597 514.117L224.852 512.81L235.045 512.592L245.933 514.117L254.967 516.296L267.245 518.911H272.805H279.754L288.789 516.95L297.128 513.681L307.09 507.362L310.796 505.183H321.452L334.425 507.362L345.313 508.234L352.957 507.798L363.15 505.401L368.015 503.222L375.891 496.686L378.208 492.11L378.903 487.534L378.208 484.484L381.451 481.651L384.926 480.78L392.802 478.383L402.068 471.192L404.616 465.745V462.695V459.862L382.841 440.47L367.783 422.167L359.675 402.339L356.895 394.059L354.115 382.293L352.726 374.013L349.946 361.811L345.776 348.302L344.618 346.123L343.459 343.508L345.313 333.485L347.861 323.244L349.251 318.669L349.946 314.093L350.409 300.584V294.483L347.861 285.767L344.618 280.102L342.764 275.526L339.753 272.476L335.815 269.861H335.12L335.286 269.51L331.877 267.246L316.819 267.9L314.039 269.861L309.406 270.951L308.248 267.246L303.151 261.799L299.908 257.441L287.862 244.804L279.754 239.792L269.562 234.998L264.233 233.473V229.987L262.149 224.54L265.623 219.746L268.635 213.863L275.816 210.159L280.913 203.622L282.766 202.533V210.159L280.913 211.902L281.608 213.863L282.766 216.042L284.851 218.221V224.54L286.936 230.859L292.032 234.998L319.136 251.558L334.193 261.799L336.046 264.414V267.9L335.286 269.51L335.815 269.861L339.753 272.476L342.764 275.526L344.618 280.102L347.861 285.767L350.409 294.483L352.031 292.304L353.189 288.818L353.884 285.767V280.538L353.189 278.795L355.969 279.012L357.359 281.191L359.444 283.152L361.297 284.024L361.992 283.588V282.717L358.517 278.359L356.664 276.398L352.726 274.001L347.861 269.207L344.154 260.928L336.046 251.558L330.718 246.329L318.441 233.473L309.406 224.976L301.993 219.746L300.14 213.863L299.908 209.287L301.067 206.891V204.712L298.75 204.276V202.533V196.214L303.151 192.946L309.174 185.973L312.649 177.257V167.67L306.858 162.659L300.14 161.133L290.874 163.748L286.704 165.927H285.082L279.986 160.044V153.725L281.144 148.278L285.082 147.188L289.021 143.702H295.044L298.75 142.685L309.174 136.294L316.356 127.578L318.672 119.08V116.684L322.147 108.622V102.739L318.672 97.5092H316.356V94.4588L314.503 89.8831L311.723 89.2294L308.016 88.1399L305.931 87.2684L303.615 85.0895L298.75 84L292.959 88.1399L292.264 90.9725V92.9335H283.692Z" fill="#48ABD7"/>
<path d="M347.861 285.767L348.341 285.627L348.324 285.57L348.295 285.519L347.861 285.767ZM344.618 280.102L344.154 280.29L344.167 280.321L344.184 280.35L344.618 280.102ZM342.764 275.526L343.228 275.339L343.19 275.246L343.12 275.175L342.764 275.526ZM339.753 272.476L340.109 272.124L340.072 272.088L340.029 272.059L339.753 272.476ZM350.889 294.342L348.341 285.627L347.381 285.907L349.929 294.623L350.889 294.342ZM348.295 285.519L345.052 279.854L344.184 280.35L347.427 286.016L348.295 285.519ZM345.081 279.914L343.228 275.339L342.301 275.714L344.154 280.29L345.081 279.914ZM343.12 275.175L340.109 272.124L339.397 272.827L342.409 275.878L343.12 275.175ZM340.029 272.059L336.091 269.445L335.538 270.278L339.476 272.892L340.029 272.059ZM283.692 92.9335L282.981 93.6361L283.274 93.9335H283.692V92.9335ZM280.681 89.8831L281.393 89.1805L281.341 89.1282L281.282 89.084L280.681 89.8831ZM278.364 88.1399L278.966 87.3409L278.932 87.3153L278.896 87.2927L278.364 88.1399ZM274.89 85.961L275.421 85.1138L275.177 84.961H274.89V85.961ZM267.708 85.961V84.961H267.421L267.177 85.1138L267.708 85.961ZM265.623 87.2684L265.092 86.4212L264.892 86.5469L264.769 86.7491L265.623 87.2684ZM262.844 91.8441L261.989 91.3249L261.844 91.5641V91.8441H262.844ZM262.844 94.4588H261.844V94.6759L261.934 94.8734L262.844 94.4588ZM264.233 97.5092L264.973 98.1828L265.417 97.6951L265.143 97.0946L264.233 97.5092ZM262.844 99.0345L263.576 99.7156L263.583 99.708L262.844 99.0345ZM261.222 100.778L260.49 100.096L260.222 100.384V100.778H261.222ZM261.222 112.326L261.907 113.054L262.222 112.758V112.326H261.222ZM260.295 113.197L259.61 112.469L259.295 112.765V113.197H260.295ZM260.295 115.158L260.845 115.994L261.295 115.697V115.158H260.295ZM257.979 116.684L257.429 115.848L257.296 115.936L257.197 116.06L257.979 116.684ZM255.199 120.17L254.417 119.546L254.373 119.601L254.338 119.661L255.199 120.17ZM254.041 122.131L253.18 121.622L253.036 121.865L253.041 122.146L254.041 122.131ZM253.346 132.154L252.359 131.994L252.34 132.109L252.348 132.225L253.346 132.154ZM253.577 135.422L254.575 135.489L254.58 135.42L254.575 135.352L253.577 135.422ZM253.346 138.909L254.288 139.243L254.334 139.113L254.343 138.975L253.346 138.909ZM252.651 140.87L251.708 140.536L251.651 140.698V140.87H252.651ZM252.651 143.048H251.651V143.423L251.896 143.705L252.651 143.048ZM254.736 145.445L253.981 146.102L254.111 146.251L254.287 146.339L254.736 145.445ZM258.21 147.188L257.762 148.082L257.974 148.188H258.21V147.188ZM261.917 147.188L262.518 147.987L264.909 146.188H261.917V147.188ZM259.6 148.932L258.999 148.132L258.673 148.378L258.612 148.781L259.6 148.932ZM259.369 150.457L258.38 150.307L258.369 150.381V150.457H259.369ZM259.369 152.2L260.019 152.96L260.369 152.661V152.2H259.369ZM256.821 154.379V155.379H257.19L257.47 155.139L256.821 154.379ZM249.871 154.379L248.951 153.987L248.359 155.379H249.871V154.379ZM250.798 152.2L251.718 152.591L251.836 152.314L251.781 152.018L250.798 152.2ZM249.871 147.188L250.854 147.007L250.813 146.782L250.678 146.598L249.871 147.188ZM247.323 143.702L248.13 143.112L248.075 143.037L248.008 142.974L247.323 143.702ZM245.238 141.741L245.923 141.013L245.807 140.904L245.663 140.836L245.238 141.741ZM243.385 140.87L243.81 139.965L243.725 139.924L243.633 139.901L243.385 140.87ZM240.836 140.216L241.085 139.247L240.963 139.216H240.836V140.216ZM233.887 140.216V139.216H233.587L233.337 139.381L233.887 140.216ZM231.57 141.741L231.02 140.906L230.994 140.923L230.969 140.942L231.57 141.741ZM228.095 144.356L227.494 143.557L227.431 143.604L227.376 143.661L228.095 144.356ZM225.779 146.753L225.06 146.058L224.931 146.191L224.859 146.361L225.779 146.753ZM224.389 150.021L223.469 149.63L223.45 149.673L223.436 149.717L224.389 150.021ZM223.694 152.2L224.629 152.555L224.638 152.53L224.647 152.504L223.694 152.2ZM222.536 155.25L223.461 155.629L223.466 155.617L223.471 155.605L222.536 155.25ZM221.377 158.083L220.452 157.704L220.377 157.886V158.083H221.377ZM221.377 165.709L221.97 166.514L222.377 166.215V165.709H221.377ZM216.049 169.631L216.604 170.463L216.623 170.45L216.642 170.437L216.049 169.631ZM210.49 173.335L209.935 172.503L209.932 172.505L210.49 173.335ZM205.625 176.604L205.223 177.519L205.726 177.74L206.183 177.434L205.625 176.604ZM202.15 175.078L202.552 174.163L202.004 173.922L201.533 174.291L202.15 175.078ZM199.37 177.257L199.555 178.24L199.795 178.195L199.987 178.044L199.37 177.257ZM198.212 177.475L198.027 176.493L197.808 176.534L197.628 176.663L198.212 177.475ZM194.274 180.308L194.378 181.302L194.642 181.275L194.858 181.12L194.274 180.308ZM190.104 180.744L190 179.749L189.974 179.752L189.949 179.756L190.104 180.744ZM185.934 181.397L185.997 182.395L186.043 182.392L186.089 182.385L185.934 181.397ZM182.459 181.615V182.615H182.491L182.522 182.613L182.459 181.615ZM181.533 181.615L180.663 182.108L180.95 182.615H181.533V181.615ZM179.68 178.347L178.729 178.658L178.76 178.753L178.81 178.84L179.68 178.347ZM178.753 175.514L179.703 175.203L179.663 175.079L179.591 174.969L178.753 175.514ZM176.205 171.592L175.364 172.134L175.366 172.137L176.205 171.592ZM163.695 152.2L162.804 152.653L162.827 152.699L162.855 152.742L163.695 152.2ZM156.282 137.601L157.174 137.148L157.165 137.13L157.155 137.113L156.282 137.601ZM153.966 133.461H152.966V133.722L153.093 133.95L153.966 133.461ZM153.966 130.629H154.966V130.584L154.962 130.54L153.966 130.629ZM153.734 128.014L154.73 127.926L154.704 127.634L154.525 127.402L153.734 128.014ZM151.881 125.617L152.672 125.006L152.597 124.909L152.501 124.833L151.881 125.617ZM146.09 121.041L146.71 120.257L146.597 120.168L146.463 120.114L146.09 121.041ZM142.846 119.734L142.215 120.509L142.332 120.605L142.473 120.662L142.846 119.734ZM139.372 116.902L140.003 116.126L139.976 116.104L139.948 116.084L139.372 116.902ZM137.518 115.594L138.095 114.777L138.073 114.761L138.05 114.747L137.518 115.594ZM136.128 114.723L136.66 113.875L135.448 113.116L135.15 114.515L136.128 114.723ZM135.897 115.812L134.919 115.604L134.913 115.633L134.908 115.662L135.897 115.812ZM135.665 117.337L134.676 117.187L134.652 117.35L134.68 117.512L135.665 117.337ZM135.897 118.645L134.912 118.819L135.009 119.365L135.523 119.572L135.897 118.645ZM137.518 119.298L138.076 118.468L137.989 118.41L137.892 118.371L137.518 119.298ZM139.14 120.388L139.741 119.589L139.72 119.573L139.698 119.558L139.14 120.388ZM140.298 121.259L141.131 120.706L141.036 120.563L140.899 120.46L140.298 121.259ZM141.456 123.002L141.335 123.995L143.493 124.26L142.289 122.449L141.456 123.002ZM130.8 121.695L130.562 122.666L130.62 122.68L130.679 122.688L130.8 121.695ZM125.472 120.388L125.173 121.342L125.203 121.351L125.234 121.359L125.472 120.388ZM123.387 119.734L122.83 120.564L122.95 120.645L123.088 120.688L123.387 119.734ZM121.766 118.645L122.324 117.815L122.21 117.739L122.081 117.696L121.766 118.645ZM117.828 117.337L118.143 116.388L118.088 116.37L118.032 116.358L117.828 117.337ZM115.743 116.902L115.947 115.923L115.846 115.902H115.743V116.902ZM115.28 116.902V115.902H114.28V116.902H115.28ZM115.28 118.209H114.28V118.559L114.498 118.832L115.28 118.209ZM115.974 119.08L116.941 118.824L116.887 118.621L116.756 118.457L115.974 119.08ZM116.206 119.952L115.24 120.209L115.304 120.45L115.474 120.633L116.206 119.952ZM117.828 121.695L117.096 122.376L117.146 122.431L117.205 122.478L117.828 121.695ZM120.839 124.092L121.462 123.31L121.462 123.31L120.839 124.092ZM123.851 126.489L124.755 126.062L124.655 125.851L124.473 125.706L123.851 126.489ZM124.777 128.45L123.873 128.877L123.883 128.898L123.894 128.919L124.777 128.45ZM125.936 130.629L125.053 131.098L125.209 131.392L125.51 131.534L125.936 130.629ZM127.326 131.282L126.9 132.187L127.032 132.249L127.177 132.271L127.326 131.282ZM133.117 132.154L132.968 133.143L132.97 133.143L133.117 132.154ZM137.518 132.808L137.785 131.844L137.726 131.827L137.665 131.818L137.518 132.808ZM141.456 133.897L142.051 133.093L141.902 132.983L141.723 132.933L141.456 133.897ZM144.7 136.294L145.482 135.67L145.4 135.568L145.294 135.49L144.7 136.294ZM147.48 139.78L148.394 139.375L148.342 139.257L148.261 139.157L147.48 139.78ZM149.796 145.009L150.761 144.749L150.741 144.675L150.71 144.604L149.796 145.009ZM153.503 158.737L152.537 158.997L152.538 159L153.503 158.737ZM157.672 173.989L156.708 174.253L156.724 174.311L156.747 174.367L157.672 173.989ZM161.147 182.487L160.222 182.865L160.227 182.878L160.232 182.89L161.147 182.487ZM166.244 194.035L165.329 194.439L165.361 194.512L165.405 194.58L166.244 194.035ZM168.792 197.957L167.953 198.502L168.033 198.625L168.146 198.72L168.792 197.957ZM171.108 199.918L170.462 200.681L170.717 200.897L171.05 200.916L171.108 199.918ZM178.521 200.354L178.463 201.352L178.544 201.357L178.625 201.348L178.521 200.354ZM184.776 199.7L184.88 200.695L184.95 200.687L185.019 200.67L184.776 199.7ZM191.726 197.957L191.969 198.927L191.974 198.926L191.726 197.957ZM196.822 196.65L197.07 197.618L197.08 197.616L197.089 197.613L196.822 196.65ZM200.76 195.56V194.56H200.624L200.493 194.596L200.76 195.56ZM207.015 195.56V196.56H207.077L207.139 196.552L207.015 195.56ZM210.49 195.124L210.614 196.117L210.974 196.071L211.222 195.806L210.49 195.124ZM212.111 193.381L212.843 194.062L213.329 193.541L212.994 192.912L212.111 193.381ZM211.648 192.51L211.145 191.646L210.313 192.13L210.765 192.979L211.648 192.51ZM216.513 189.677L216.194 188.729L216.098 188.762L216.009 188.813L216.513 189.677ZM219.756 188.588V187.588H219.592L219.437 187.64L219.756 188.588ZM221.609 188.588L222.425 188.009L222.126 187.588H221.609V188.588ZM223.462 191.202L224.369 190.781L224.331 190.698L224.278 190.624L223.462 191.202ZM226.705 198.175L227.661 197.879L227.641 197.814L227.612 197.753L226.705 198.175ZM228.327 203.404L229.316 203.254L229.304 203.18L229.282 203.108L228.327 203.404ZM229.485 211.03H230.485V210.955L230.474 210.88L229.485 211.03ZM229.485 219.964L230.386 220.399L230.485 220.193V219.964H229.485ZM228.327 222.361L227.427 221.926L227.408 221.965L227.392 222.006L228.327 222.361ZM227.169 225.411L228.002 225.965L228.064 225.871L228.104 225.766L227.169 225.411ZM224.852 228.898L225.634 229.521L225.661 229.487L225.685 229.451L224.852 228.898ZM224.157 229.769L223.375 229.146L223.157 229.419V229.769H224.157ZM224.157 230.423V231.423H225.157V230.423H224.157ZM221.377 230.423V229.423H221.346L221.315 229.425L221.377 230.423ZM217.903 230.641L217.84 229.643L217.734 229.649L217.631 229.678L217.903 230.641ZM215.586 231.294L215.314 230.332L215.267 230.345L215.221 230.363L215.586 231.294ZM212.806 232.384L212.441 231.453L212.432 231.456L212.806 232.384ZM209.563 233.691L209.189 232.764L209.101 232.799L209.022 232.85L209.563 233.691ZM205.162 236.524L205.587 237.429L205.647 237.4L205.703 237.365L205.162 236.524ZM202.845 237.613L202.419 236.708L202.326 236.752L202.244 236.814L202.845 237.613ZM197.054 241.971L196.452 241.172L196.408 241.205L196.368 241.243L197.054 241.971ZM193.579 245.239L192.894 244.511L192.876 244.527L192.86 244.544L193.579 245.239ZM191.262 247.636L190.543 246.941L190.54 246.945L191.262 247.636ZM187.092 251.994L186.37 251.303L186.335 251.339L186.304 251.379L187.092 251.994ZM184.544 255.262L183.756 254.648L183.696 254.724L183.652 254.811L184.544 255.262ZM182.228 259.838L183.102 260.323L183.111 260.307L183.12 260.29L182.228 259.838ZM179.448 264.85L178.573 264.364L178.552 264.404L178.534 264.445L179.448 264.85ZM177.131 270.079L176.217 269.674L176.192 269.73L176.174 269.788L177.131 270.079ZM175.741 274.655L174.785 274.364L174.762 274.439L174.751 274.517L175.741 274.655ZM175.046 279.666L174.056 279.529L174.052 279.555L174.05 279.581L175.046 279.666ZM174.583 285.113L173.587 285.029L173.583 285.071V285.113H174.583ZM174.583 289.035H173.583V289.174L173.621 289.308L174.583 289.035ZM175.51 292.304L174.548 292.577L174.57 292.656L174.606 292.731L175.51 292.304ZM176.436 294.265L177.252 294.843L177.59 294.366L177.34 293.838L176.436 294.265ZM173.193 298.841L174.009 299.419L174.009 299.419L173.193 298.841ZM170.877 302.109L170.061 301.531L170.034 301.568L170.012 301.607L170.877 302.109ZM168.097 306.903L168.925 307.463L168.944 307.434L168.962 307.404L168.097 306.903ZM164.854 311.696L164.025 311.136L163.996 311.18L163.971 311.227L164.854 311.696ZM152.344 335.228L151.461 334.759L151.44 334.799L151.422 334.841L152.344 335.228ZM144.931 352.878L144.009 352.49L143.998 352.518L143.988 352.547L144.931 352.878ZM137.518 374.013L136.575 373.682L136.572 373.691L136.569 373.699L137.518 374.013ZM132.19 390.137L133.057 390.636L133.108 390.548L133.14 390.451L132.19 390.137ZM129.179 395.366L129.909 396.05L129.988 395.965L130.045 395.865L129.179 395.366ZM118.986 406.261L119.626 407.029L119.674 406.989L119.716 406.944L118.986 406.261ZM108.793 414.759L109.324 415.606L109.382 415.57L109.434 415.527L108.793 414.759ZM94.8939 423.474L95.3922 424.341L95.4089 424.332L95.4252 424.321L94.8939 423.474ZM86.5543 428.268L86.056 427.401L85.7857 427.556L85.6516 427.838L86.5543 428.268ZM83.5428 434.587L82.6401 434.156L82.5776 434.288L82.555 434.431L83.5428 434.587ZM82.6162 440.47L81.6284 440.314L81.6107 440.427L81.6187 440.54L82.6162 440.47ZM83.0795 447.006L82.082 447.077L82.1022 447.362L82.2699 447.593L83.0795 447.006ZM86.5543 451.8L85.7447 452.387L85.8002 452.464L85.8692 452.528L86.5543 451.8ZM90.0292 455.068L89.344 455.797L89.384 455.834L89.4279 455.867L90.0292 455.068ZM94.6623 458.555L95.4586 457.95L95.3746 457.839L95.2635 457.756L94.6623 458.555ZM96.9788 461.605H97.9788V461.269L97.7752 461L96.9788 461.605ZM96.9788 465.091L97.8219 465.629L97.9788 465.383V465.091H96.9788ZM95.5889 467.27L94.7458 466.733L94.6921 466.817L94.6562 466.91L95.5889 467.27ZM94.6623 469.667L93.7295 469.307L93.678 469.44L93.6659 469.582L94.6623 469.667ZM94.1989 475.114L93.2025 475.03L93.1925 475.148L93.2103 475.265L94.1989 475.114ZM94.6623 478.165L93.6736 478.315L93.6915 478.433L93.7366 478.543L94.6623 478.165ZM96.9788 483.83L96.0532 484.209L96.1119 484.352L96.2113 484.471L96.9788 483.83ZM102.075 489.931L101.308 490.572L101.414 490.699L101.555 490.785L102.075 489.931ZM106.013 492.328L105.493 493.182L105.56 493.223L105.633 493.253L106.013 492.328ZM113.426 495.378L113.046 496.303L113.123 496.335L113.205 496.353L113.426 495.378ZM120.144 496.904L119.923 497.879L120.032 497.904H120.144V496.904ZM129.41 496.904V497.904H129.515L129.618 497.882L129.41 496.904ZM136.592 495.378L136.8 496.356L136.842 496.348L136.883 496.335L136.592 495.378ZM144.468 492.981L144.214 492.014L144.195 492.019L144.177 492.025L144.468 492.981ZM154.429 490.367L154.298 489.375L154.236 489.384L154.175 489.4L154.429 490.367ZM169.255 488.406L169.592 487.464L169.364 487.383L169.124 487.414L169.255 488.406ZM174.12 490.149L174.568 489.255L174.514 489.228L174.457 489.208L174.12 490.149ZM177.595 491.892L178.196 491.093L178.124 491.039L178.043 490.998L177.595 491.892ZM182.228 495.378H183.228V494.879L182.829 494.579L182.228 495.378ZM182.228 497.121L183.148 497.513L183.228 497.325V497.121H182.228ZM181.301 499.3L181.941 500.069L182.127 499.914L182.221 499.692L181.301 499.3ZM175.278 504.312L175.657 505.237L175.8 505.179L175.918 505.081L175.278 504.312ZM166.244 508.016L165.864 507.091L165.45 507.26L165.301 507.682L166.244 508.016ZM164.854 511.938L163.911 511.604L163.712 512.165L164.11 512.607L164.854 511.938ZM167.402 514.771L166.658 515.439L166.799 515.596L166.99 515.682L167.402 514.771ZM173.193 517.385L172.782 518.297L172.831 518.319L172.882 518.336L173.193 517.385ZM178.521 519.128L178.21 520.079L178.313 520.112L178.42 520.123L178.521 519.128ZM187.092 520L186.991 520.995L187.053 521.001L187.114 521L187.092 520ZM197.054 519.782L197.075 520.782L197.194 520.779L197.308 520.749L197.054 519.782ZM218.597 514.117L218.393 513.138L218.368 513.143L218.343 513.15L218.597 514.117ZM224.852 512.81L224.831 511.81L224.738 511.812L224.648 511.831L224.852 512.81ZM235.045 512.592L235.184 511.601L235.104 511.59L235.024 511.592L235.045 512.592ZM245.933 514.117L246.167 513.145L246.12 513.133L246.071 513.127L245.933 514.117ZM254.967 516.296L254.733 517.268L254.746 517.271L254.759 517.274L254.967 516.296ZM267.245 518.911L267.037 519.889L267.14 519.911H267.245V518.911ZM279.754 518.911V519.911H279.862L279.966 519.888L279.754 518.911ZM288.789 516.95L289.001 517.927L289.079 517.91L289.154 517.881L288.789 516.95ZM297.128 513.681L297.493 514.612L297.583 514.577L297.664 514.526L297.128 513.681ZM307.09 507.362L306.583 506.5L306.568 506.509L306.554 506.518L307.09 507.362ZM310.796 505.183V504.183H310.524L310.289 504.321L310.796 505.183ZM321.452 505.183L321.618 504.197L321.536 504.183H321.452V505.183ZM334.425 507.362L334.259 508.348L334.302 508.356L334.345 508.359L334.425 507.362ZM345.313 508.234L345.233 509.231L345.301 509.236L345.37 509.232L345.313 508.234ZM352.957 507.798L353.014 508.796L353.101 508.792L353.186 508.772L352.957 507.798ZM363.15 505.401L363.379 506.375L363.472 506.353L363.559 506.314L363.15 505.401ZM368.015 503.222L368.424 504.135L368.548 504.079L368.653 503.992L368.015 503.222ZM375.891 496.686L376.53 497.455L376.689 497.323L376.783 497.137L375.891 496.686ZM378.208 492.11L379.1 492.562L379.172 492.419L379.196 492.26L378.208 492.11ZM378.903 487.534L379.891 487.684L379.92 487.497L379.878 487.312L378.903 487.534ZM378.208 484.484L377.55 483.731L377.1 484.123L377.233 484.706L378.208 484.484ZM381.451 481.651L381.207 480.681L380.974 480.74L380.793 480.898L381.451 481.651ZM384.926 480.78L385.169 481.75L385.193 481.744L385.217 481.736L384.926 480.78ZM392.802 478.383L393.093 479.339L393.269 479.286L393.415 479.173L392.802 478.383ZM402.068 471.192L402.681 471.982L402.872 471.835L402.974 471.616L402.068 471.192ZM404.616 465.745L405.522 466.169L405.616 465.967V465.745H404.616ZM404.616 459.862H405.616V459.414L405.281 459.115L404.616 459.862ZM382.841 440.47L382.068 441.105L382.118 441.165L382.176 441.217L382.841 440.47ZM367.783 422.167L366.858 422.545L366.915 422.685L367.011 422.802L367.783 422.167ZM359.675 402.339L358.727 402.657L358.737 402.688L358.75 402.717L359.675 402.339ZM356.895 394.059L355.922 394.289L355.933 394.334L355.947 394.377L356.895 394.059ZM354.115 382.293L353.129 382.458L353.135 382.491L353.142 382.523L354.115 382.293ZM352.726 374.013L353.712 373.847L353.707 373.819L353.701 373.791L352.726 374.013ZM349.946 361.811L350.921 361.589L350.912 361.552L350.901 361.516L349.946 361.811ZM345.776 348.302L346.731 348.007L346.703 347.916L346.659 347.832L345.776 348.302ZM344.618 346.123L343.703 346.528L343.718 346.561L343.735 346.592L344.618 346.123ZM343.459 343.508L342.476 343.326L342.42 343.631L342.545 343.913L343.459 343.508ZM345.313 333.485L344.342 333.244L344.335 333.273L344.329 333.303L345.313 333.485ZM347.861 323.244L346.904 322.954L346.897 322.978L346.89 323.003L347.861 323.244ZM349.251 318.669L350.208 318.959L350.229 318.89L350.239 318.819L349.251 318.669ZM349.946 314.093L350.934 314.243L350.943 314.185L350.945 314.127L349.946 314.093ZM350.409 300.584L351.408 300.618L351.409 300.601V300.584H350.409ZM350.409 294.483L349.607 293.886L349.409 294.151V294.483H350.409ZM352.031 292.304L352.833 292.901L352.929 292.772L352.98 292.619L352.031 292.304ZM353.189 288.818L354.138 289.133L354.153 289.087L354.164 289.04L353.189 288.818ZM353.884 285.767L354.859 285.989L354.884 285.88V285.767H353.884ZM353.884 280.538H354.884V280.346L354.813 280.167L353.884 280.538ZM353.189 278.795L353.267 277.798L351.665 277.672L352.26 279.165L353.189 278.795ZM355.969 279.012L356.812 278.475L356.544 278.054L356.047 278.016L355.969 279.012ZM357.359 281.191L356.516 281.729L356.583 281.834L356.674 281.92L357.359 281.191ZM359.444 283.152L358.758 283.881L358.874 283.99L359.018 284.057L359.444 283.152ZM361.297 284.024L360.871 284.929L361.365 285.161L361.828 284.871L361.297 284.024ZM361.992 283.588L362.523 284.435L362.992 284.141V283.588H361.992ZM361.992 282.717H362.992V282.367L362.774 282.093L361.992 282.717ZM358.517 278.359L359.299 277.735L359.273 277.703L359.244 277.672L358.517 278.359ZM356.664 276.398L357.39 275.711L357.298 275.613L357.184 275.544L356.664 276.398ZM352.726 274.001L352.024 274.713L352.106 274.795L352.206 274.855L352.726 274.001ZM347.861 269.207L346.948 269.616L347.025 269.788L347.159 269.92L347.861 269.207ZM344.154 260.928L345.067 260.519L345.007 260.385L344.911 260.273L344.154 260.928ZM336.046 251.558L336.803 250.904L336.776 250.873L336.747 250.845L336.046 251.558ZM330.718 246.329L329.995 247.019L330.006 247.031L330.018 247.043L330.718 246.329ZM318.441 233.473L319.164 232.783L319.145 232.763L319.126 232.745L318.441 233.473ZM309.406 224.976L310.091 224.247L310.04 224.199L309.983 224.158L309.406 224.976ZM301.993 219.746L301.039 220.047L301.141 220.369L301.417 220.563L301.993 219.746ZM300.14 213.863L299.141 213.914L299.148 214.041L299.186 214.164L300.14 213.863ZM299.908 209.287L299.008 208.852L298.897 209.082L298.91 209.338L299.908 209.287ZM301.067 206.891L301.967 207.326L302.067 207.12V206.891H301.067ZM301.067 204.712H302.067V203.882L301.251 203.729L301.067 204.712ZM298.75 204.276H297.75V205.105L298.565 205.259L298.75 204.276ZM298.75 196.214L298.154 195.411L297.75 195.711V196.214H298.75ZM303.151 192.946L303.748 193.748L303.836 193.683L303.908 193.599L303.151 192.946ZM309.174 185.973L309.931 186.627L310.041 186.5L310.103 186.343L309.174 185.973ZM312.649 177.257L313.578 177.628L313.649 177.449V177.257H312.649ZM312.649 167.67H313.649V167.213L313.304 166.914L312.649 167.67ZM306.858 162.659L307.512 161.902L307.323 161.739L307.079 161.683L306.858 162.659ZM300.14 161.133L300.361 160.158L300.113 160.102L299.868 160.171L300.14 161.133ZM290.874 163.748L290.602 162.786L290.502 162.814L290.411 162.862L290.874 163.748ZM286.704 165.927V166.927H286.95L287.167 166.813L286.704 165.927ZM285.082 165.927L284.327 166.582L284.626 166.927H285.082V165.927ZM279.986 160.044H278.986V160.417L279.23 160.699L279.986 160.044ZM279.986 153.725L279.008 153.517L278.986 153.62V153.725H279.986ZM281.144 148.278L280.878 147.314L280.292 147.476L280.166 148.07L281.144 148.278ZM285.082 147.188L285.349 148.152L285.572 148.091L285.745 147.937L285.082 147.188ZM289.021 143.702V142.702H288.641L288.358 142.953L289.021 143.702ZM295.044 143.702V144.702H295.178L295.308 144.667L295.044 143.702ZM298.75 142.685L299.015 143.65L299.152 143.612L299.273 143.538L298.75 142.685ZM309.174 136.294L309.697 137.146L309.84 137.059L309.946 136.93L309.174 136.294ZM316.356 127.578L317.128 128.214L317.264 128.048L317.321 127.841L316.356 127.578ZM318.672 119.08L319.637 119.343L319.672 119.214V119.08H318.672ZM318.672 116.684L317.754 116.288L317.672 116.477V116.684H318.672ZM322.147 108.622L323.065 109.018L323.147 108.828V108.622H322.147ZM322.147 102.739H323.147V102.437L322.98 102.185L322.147 102.739ZM318.672 97.5092L319.505 96.9558L319.208 96.5092H318.672V97.5092ZM316.356 97.5092H315.356V98.5092H316.356V97.5092ZM316.356 94.4588H317.356V94.2639L317.283 94.0834L316.356 94.4588ZM314.503 89.8831L315.429 89.5077L315.235 89.0281L314.731 88.9096L314.503 89.8831ZM311.723 89.2294L311.441 90.1888L311.467 90.1965L311.494 90.2028L311.723 89.2294ZM308.016 88.1399L307.631 89.0626L307.681 89.0838L307.734 89.0993L308.016 88.1399ZM305.931 87.2684L305.246 87.9968L305.378 88.121L305.546 88.191L305.931 87.2684ZM303.615 85.0895L304.3 84.361L304.1 84.1735L303.833 84.1136L303.615 85.0895ZM298.75 84L298.969 83.0242L298.532 82.9265L298.168 83.1865L298.75 84ZM292.959 88.1399L292.377 87.3264L292.076 87.5419L291.987 87.9017L292.959 88.1399ZM292.264 90.9725L291.292 90.7342L291.264 90.8516V90.9725H292.264ZM292.264 92.9335V93.9335H293.264V92.9335H292.264ZM331.877 267.246L332.43 266.413L332.159 266.233L331.833 266.247L331.877 267.246ZM316.819 267.9L316.776 266.901L316.482 266.914L316.243 267.083L316.819 267.9ZM314.039 269.861L314.268 270.835L314.457 270.79L314.616 270.678L314.039 269.861ZM309.406 270.951L308.452 271.249L308.729 272.137L309.635 271.924L309.406 270.951ZM308.248 267.246L309.202 266.948L309.134 266.73L308.978 266.563L308.248 267.246ZM303.151 261.799L302.349 262.396L302.383 262.441L302.421 262.482L303.151 261.799ZM299.908 257.441L300.711 256.844L300.674 256.795L300.632 256.751L299.908 257.441ZM287.862 244.804L288.586 244.114L288.497 244.021L288.388 243.953L287.862 244.804ZM279.754 239.792L280.28 238.941L280.232 238.911L280.18 238.887L279.754 239.792ZM269.562 234.998L269.987 234.094L269.914 234.059L269.837 234.037L269.562 234.998ZM264.233 233.473H263.233V234.227L263.958 234.435L264.233 233.473ZM264.233 229.987H265.233V229.802L265.167 229.63L264.233 229.987ZM262.149 224.54L261.339 223.953L261.021 224.391L261.215 224.897L262.149 224.54ZM265.623 219.746L266.433 220.333L266.478 220.271L266.514 220.202L265.623 219.746ZM268.635 213.863L268.176 212.974L267.891 213.122L267.745 213.407L268.635 213.863ZM275.816 210.159L276.275 211.048L276.47 210.947L276.605 210.774L275.816 210.159ZM280.913 203.622L280.406 202.76L280.241 202.857L280.124 203.007L280.913 203.622ZM282.766 202.533H283.766V200.785L282.259 201.671L282.766 202.533ZM282.766 210.159L283.451 210.887L283.766 210.591V210.159H282.766ZM280.913 211.902L280.227 211.174L279.752 211.621L279.97 212.236L280.913 211.902ZM281.608 213.863L280.665 214.197L280.69 214.267L280.725 214.332L281.608 213.863ZM282.766 216.042L281.883 216.511L281.948 216.633L282.043 216.733L282.766 216.042ZM284.851 218.221H285.851V217.82L285.573 217.53L284.851 218.221ZM284.851 224.54H283.851V224.7L283.901 224.853L284.851 224.54ZM286.936 230.859L285.986 231.172L286.078 231.45L286.305 231.635L286.936 230.859ZM292.032 234.998L291.402 235.775L291.454 235.817L291.511 235.852L292.032 234.998ZM319.136 251.558L319.698 250.731L319.678 250.718L319.657 250.705L319.136 251.558ZM334.193 261.799L335.009 261.221L334.905 261.074L334.756 260.972L334.193 261.799ZM336.046 264.414H337.046V264.095L336.862 263.836L336.046 264.414ZM336.046 267.9L336.951 268.327L337.046 268.124V267.9H336.046ZM335.12 269.861L334.216 269.434L333.541 270.861H335.12V269.861ZM335.815 269.861V270.861H339.129L336.368 269.028L335.815 269.861ZM284.404 92.231L281.393 89.1805L279.969 90.5856L282.981 93.6361L284.404 92.231ZM281.282 89.084L278.966 87.3409L277.763 88.939L280.08 90.6821L281.282 89.084ZM278.896 87.2927L275.421 85.1138L274.358 86.8082L277.833 88.9871L278.896 87.2927ZM274.89 84.961H271.878V86.961H274.89V84.961ZM271.878 84.961H267.708V86.961H271.878V84.961ZM267.177 85.1138L265.092 86.4212L266.155 88.1156L268.24 86.8082L267.177 85.1138ZM264.769 86.7491L261.989 91.3249L263.698 92.3633L266.478 87.7876L264.769 86.7491ZM261.844 91.8441V94.4588H263.844V91.8441H261.844ZM261.934 94.8734L263.323 97.9239L265.143 97.0946L263.754 94.0441L261.934 94.8734ZM263.494 96.8357L262.104 98.3609L263.583 99.708L264.973 98.1828L263.494 96.8357ZM262.111 98.3534L260.49 100.096L261.954 101.459L263.576 99.7156L262.111 98.3534ZM260.222 100.778V102.739H262.222V100.778H260.222ZM260.222 102.739V104.482H262.222V102.739H260.222ZM260.222 104.482V106.225H262.222V104.482H260.222ZM260.222 106.225V108.622H262.222V106.225H260.222ZM260.222 108.622V110.365H262.222V108.622H260.222ZM260.222 110.365V112.326H262.222V110.365H260.222ZM260.537 111.597L259.61 112.469L260.98 113.926L261.907 113.054L260.537 111.597ZM259.295 113.197V115.158H261.295V113.197H259.295ZM259.745 114.323L257.429 115.848L258.529 117.519L260.845 115.994L259.745 114.323ZM257.197 116.06L254.417 119.546L255.981 120.793L258.761 117.307L257.197 116.06ZM254.338 119.661L253.18 121.622L254.902 122.639L256.06 120.678L254.338 119.661ZM254.041 122.131C253.041 122.146 253.041 122.146 253.041 122.146C253.041 122.146 253.041 122.146 253.041 122.146C253.041 122.146 253.041 122.146 253.041 122.146C253.041 122.147 253.041 122.147 253.041 122.147C253.041 122.148 253.041 122.15 253.041 122.151C253.041 122.155 253.041 122.16 253.041 122.167C253.041 122.182 253.042 122.203 253.042 122.231C253.043 122.287 253.044 122.369 253.045 122.475C253.047 122.685 253.05 122.987 253.052 123.35C253.055 124.078 253.055 125.052 253.041 126.038L255.041 126.068C255.055 125.063 255.055 124.076 255.052 123.34C255.05 122.972 255.047 122.667 255.045 122.453C255.044 122.346 255.043 122.262 255.042 122.205C255.041 122.176 255.041 122.154 255.041 122.139C255.041 122.131 255.041 122.126 255.041 122.122C255.041 122.12 255.041 122.118 255.041 122.117C255.041 122.117 255.041 122.116 255.041 122.116C255.041 122.116 255.041 122.116 255.041 122.116C255.041 122.116 255.041 122.116 255.041 122.116C255.041 122.116 255.041 122.116 254.041 122.131ZM253.041 126.038C253.027 126.967 252.861 128.438 252.691 129.718C252.607 130.349 252.524 130.919 252.461 131.331C252.43 131.537 252.404 131.704 252.386 131.818C252.377 131.876 252.37 131.92 252.366 131.95C252.363 131.965 252.361 131.976 252.36 131.983C252.36 131.987 252.359 131.99 252.359 131.992C252.359 131.993 252.359 131.993 252.359 131.994C252.359 131.994 252.359 131.994 252.359 131.994C252.359 131.994 252.359 131.994 252.359 131.994C252.359 131.994 252.359 131.994 253.346 132.154C254.333 132.314 254.333 132.314 254.333 132.314C254.333 132.314 254.333 132.314 254.333 132.313C254.333 132.313 254.333 132.313 254.333 132.313C254.333 132.312 254.333 132.311 254.333 132.31C254.334 132.308 254.334 132.305 254.335 132.301C254.336 132.293 254.338 132.281 254.341 132.265C254.346 132.233 254.353 132.188 254.362 132.129C254.381 132.011 254.407 131.84 254.439 131.63C254.502 131.209 254.587 130.627 254.673 129.982C254.843 128.709 255.025 127.13 255.041 126.068L253.041 126.038ZM252.348 132.225L252.58 135.493L254.575 135.352L254.343 132.083L252.348 132.225ZM252.58 135.356L252.348 138.842L254.343 138.975L254.575 135.489L252.58 135.356ZM252.403 138.575L251.708 140.536L253.593 141.204L254.288 139.243L252.403 138.575ZM251.651 140.87V143.048H253.651V140.87H251.651ZM251.896 143.705L253.981 146.102L255.49 144.789L253.405 142.392L251.896 143.705ZM254.287 146.339L257.762 148.082L258.659 146.295L255.184 144.551L254.287 146.339ZM258.21 148.188H261.917V146.188H258.21V148.188ZM261.316 146.389L258.999 148.132L260.202 149.731L262.518 147.987L261.316 146.389ZM258.612 148.781L258.38 150.307L260.357 150.607L260.589 149.082L258.612 148.781ZM258.369 150.457V152.2H260.369V150.457H258.369ZM258.719 151.44L256.171 153.619L257.47 155.139L260.019 152.96L258.719 151.44ZM256.821 153.379H254.272V155.379H256.821V153.379ZM254.272 153.379H249.871V155.379H254.272V153.379ZM250.791 154.77L251.718 152.591L249.877 151.809L248.951 153.987L250.791 154.77ZM251.781 152.018L250.854 147.007L248.888 147.37L249.814 152.382L251.781 152.018ZM250.678 146.598L248.13 143.112L246.515 144.292L249.064 147.779L250.678 146.598ZM248.008 142.974L245.923 141.013L244.553 142.47L246.638 144.431L248.008 142.974ZM245.663 140.836L243.81 139.965L242.959 141.774L244.812 142.646L245.663 140.836ZM243.633 139.901L241.085 139.247L240.588 141.185L243.136 141.838L243.633 139.901ZM240.836 139.216H233.887V141.216H240.836V139.216ZM233.337 139.381L231.02 140.906L232.12 142.576L234.437 141.051L233.337 139.381ZM230.969 140.942L227.494 143.557L228.697 145.155L232.171 142.54L230.969 140.942ZM227.376 143.661L225.06 146.058L226.498 147.448L228.814 145.051L227.376 143.661ZM224.859 146.361L223.469 149.63L225.309 150.412L226.699 147.144L224.859 146.361ZM223.436 149.717L222.741 151.896L224.647 152.504L225.342 150.325L223.436 149.717ZM222.759 151.845L221.601 154.895L223.471 155.605L224.629 152.555L222.759 151.845ZM221.61 154.872L220.452 157.704L222.303 158.461L223.461 155.629L221.61 154.872ZM220.377 158.083V161.351H222.377V158.083H220.377ZM220.377 161.351V163.748H222.377V161.351H220.377ZM220.377 163.748V165.709H222.377V163.748H220.377ZM220.785 164.904L215.456 168.826L216.642 170.437L221.97 166.514L220.785 164.904ZM215.495 168.799L209.935 172.503L211.044 174.168L216.604 170.463L215.495 168.799ZM209.932 172.505L205.067 175.774L206.183 177.434L211.047 174.165L209.932 172.505ZM206.027 175.688L202.552 174.163L201.748 175.994L205.223 177.519L206.027 175.688ZM201.533 174.291L198.753 176.47L199.987 178.044L202.767 175.865L201.533 174.291ZM199.185 176.275L198.027 176.493L198.397 178.458L199.555 178.24L199.185 176.275ZM197.628 176.663L193.69 179.496L194.858 181.12L198.796 178.287L197.628 176.663ZM194.17 179.313L190 179.749L190.208 181.738L194.378 181.302L194.17 179.313ZM189.949 179.756L185.779 180.409L186.089 182.385L190.259 181.732L189.949 179.756ZM185.872 180.399L182.397 180.617L182.522 182.613L185.997 182.395L185.872 180.399ZM182.459 180.615H181.533V182.615H182.459V180.615ZM182.403 181.122L180.549 177.854L178.81 178.84L180.663 182.108L182.403 181.122ZM180.63 178.036L179.703 175.203L177.802 175.825L178.729 178.658L180.63 178.036ZM179.591 174.969L177.043 171.047L175.366 172.137L177.914 176.059L179.591 174.969ZM177.045 171.05L164.536 151.658L162.855 152.742L175.364 172.134L177.045 171.05ZM164.587 151.747L157.174 137.148L155.391 138.054L162.804 152.653L164.587 151.747ZM157.155 137.113L154.839 132.973L153.093 133.95L155.41 138.09L157.155 137.113ZM154.966 133.461V130.629H152.966V133.461H154.966ZM154.962 130.54L154.73 127.926L152.738 128.102L152.97 130.717L154.962 130.54ZM154.525 127.402L152.672 125.006L151.09 126.229L152.943 128.626L154.525 127.402ZM152.501 124.833L146.71 120.257L145.47 121.826L151.261 126.402L152.501 124.833ZM146.463 120.114L143.22 118.807L142.473 120.662L145.716 121.969L146.463 120.114ZM143.478 118.959L140.003 116.126L138.74 117.677L142.215 120.509L143.478 118.959ZM139.948 116.084L138.095 114.777L136.942 116.411L138.795 117.719L139.948 116.084ZM138.05 114.747L136.66 113.875L135.597 115.57L136.987 116.441L138.05 114.747ZM135.15 114.515L134.919 115.604L136.875 116.02L137.107 114.931L135.15 114.515ZM134.908 115.662L134.676 117.187L136.654 117.487L136.885 115.962L134.908 115.662ZM134.68 117.512L134.912 118.819L136.881 118.47L136.65 117.163L134.68 117.512ZM135.523 119.572L137.144 120.226L137.892 118.371L136.271 117.717L135.523 119.572ZM136.961 120.128L138.582 121.218L139.698 119.558L138.076 118.468L136.961 120.128ZM138.539 121.187L139.697 122.058L140.899 120.46L139.741 119.589L138.539 121.187ZM139.465 121.813L140.624 123.556L142.289 122.449L141.131 120.706L139.465 121.813ZM141.578 122.01L130.922 120.703L130.679 122.688L141.335 123.995L141.578 122.01ZM131.039 120.724L125.711 119.417L125.234 121.359L130.562 122.666L131.039 120.724ZM125.771 119.434L123.687 118.78L123.088 120.688L125.173 121.342L125.771 119.434ZM123.945 118.904L122.324 117.815L121.208 119.475L122.83 120.564L123.945 118.904ZM122.081 117.696L118.143 116.388L117.513 118.286L121.451 119.594L122.081 117.696ZM118.032 116.358L115.947 115.923L115.538 117.88L117.623 118.316L118.032 116.358ZM115.743 115.902H115.28V117.902H115.743V115.902ZM114.28 116.902V118.209H116.28V116.902H114.28ZM114.498 118.832L115.193 119.704L116.756 118.457L116.061 117.585L114.498 118.832ZM115.008 119.337L115.24 120.209L117.173 119.695L116.941 118.824L115.008 119.337ZM115.474 120.633L117.096 122.376L118.56 121.014L116.938 119.271L115.474 120.633ZM117.205 122.478L120.217 124.874L121.462 123.31L118.45 120.913L117.205 122.478ZM120.217 124.874L123.228 127.271L124.473 125.706L121.462 123.31L120.217 124.874ZM122.947 126.916L123.873 128.877L125.682 128.023L124.755 126.062L122.947 126.916ZM123.894 128.919L125.053 131.098L126.819 130.159L125.66 127.98L123.894 128.919ZM125.51 131.534L126.9 132.187L127.751 130.377L126.361 129.724L125.51 131.534ZM127.177 132.271L132.968 133.143L133.266 131.165L127.474 130.293L127.177 132.271ZM132.97 133.143L137.371 133.797L137.665 131.818L133.264 131.165L132.97 133.143ZM137.252 133.771L141.19 134.861L141.723 132.933L137.785 131.844L137.252 133.771ZM140.862 134.701L144.105 137.098L145.294 135.49L142.051 133.093L140.862 134.701ZM143.918 136.917L146.698 140.404L148.261 139.157L145.482 135.67L143.918 136.917ZM146.565 140.185L148.882 145.415L150.71 144.604L148.394 139.375L146.565 140.185ZM148.831 145.27L152.537 158.997L154.468 158.476L150.761 144.749L148.831 145.27ZM152.538 159L156.708 174.253L158.637 173.725L154.467 158.473L152.538 159ZM156.747 174.367L160.222 182.865L162.073 182.108L158.598 173.611L156.747 174.367ZM160.232 182.89L165.329 194.439L167.158 193.631L162.062 182.083L160.232 182.89ZM165.405 194.58L167.953 198.502L169.63 197.412L167.082 193.49L165.405 194.58ZM168.146 198.72L170.462 200.681L171.754 199.155L169.438 197.194L168.146 198.72ZM171.05 200.916L178.463 201.352L178.58 199.356L171.167 198.92L171.05 200.916ZM178.625 201.348L184.88 200.695L184.672 198.706L178.417 199.359L178.625 201.348ZM185.019 200.67L191.969 198.927L191.482 196.987L184.533 198.73L185.019 200.67ZM191.974 198.926L197.07 197.618L196.573 195.681L191.477 196.988L191.974 198.926ZM197.089 197.613L201.027 196.524L200.493 194.596L196.555 195.686L197.089 197.613ZM200.76 196.56H207.015V194.56H200.76V196.56ZM207.139 196.552L210.614 196.117L210.365 194.132L206.89 194.568L207.139 196.552ZM211.222 195.806L212.843 194.062L211.379 192.7L209.757 194.443L211.222 195.806ZM212.994 192.912L212.531 192.04L210.765 192.979L211.228 193.851L212.994 192.912ZM212.151 193.374L217.016 190.541L216.009 188.813L211.145 191.646L212.151 193.374ZM216.831 190.625L220.074 189.536L219.437 187.64L216.194 188.729L216.831 190.625ZM219.756 189.588H221.609V187.588H219.756V189.588ZM220.793 189.166L222.646 191.781L224.278 190.624L222.425 188.009L220.793 189.166ZM222.556 191.624L225.799 198.597L227.612 197.753L224.369 190.781L222.556 191.624ZM225.75 198.471L227.372 203.7L229.282 203.108L227.661 197.879L225.75 198.471ZM227.338 203.554L228.497 211.181L230.474 210.88L229.316 203.254L227.338 203.554ZM228.485 211.03V217.131H230.485V211.03H228.485ZM228.485 217.131V219.964H230.485V217.131H228.485ZM228.585 219.529L227.427 221.926L229.227 222.796L230.386 220.399L228.585 219.529ZM227.392 222.006L226.234 225.056L228.104 225.766L229.262 222.716L227.392 222.006ZM226.336 224.858L224.019 228.344L225.685 229.451L228.002 225.965L226.336 224.858ZM224.07 228.274L223.375 229.146L224.939 230.393L225.634 229.521L224.07 228.274ZM223.157 229.769V230.423H225.157V229.769H223.157ZM224.157 229.423H221.377V231.423H224.157V229.423ZM221.315 229.425L217.84 229.643L217.965 231.639L221.44 231.421L221.315 229.425ZM217.631 229.678L215.314 230.332L215.858 232.257L218.174 231.603L217.631 229.678ZM215.221 230.363L212.441 231.453L213.171 233.315L215.951 232.225L215.221 230.363ZM212.432 231.456L209.189 232.764L209.937 234.619L213.18 233.311L212.432 231.456ZM209.022 232.85L204.62 235.683L205.703 237.365L210.104 234.532L209.022 232.85ZM204.736 235.619L202.419 236.708L203.271 238.518L205.587 237.429L204.736 235.619ZM202.244 236.814L196.452 241.172L197.655 242.77L203.446 238.412L202.244 236.814ZM196.368 241.243L192.894 244.511L194.264 245.968L197.739 242.699L196.368 241.243ZM192.86 244.544L190.543 246.941L191.981 248.331L194.298 245.934L192.86 244.544ZM190.54 246.945L186.37 251.303L187.815 252.685L191.985 248.328L190.54 246.945ZM186.304 251.379L183.756 254.648L185.333 255.877L187.881 252.609L186.304 251.379ZM183.652 254.811L181.336 259.386L183.12 260.29L185.436 255.714L183.652 254.811ZM181.353 259.353L178.573 264.364L180.322 265.335L183.102 260.323L181.353 259.353ZM178.534 264.445L176.217 269.674L178.046 270.484L180.362 265.255L178.534 264.445ZM176.174 269.788L174.785 274.364L176.698 274.945L178.088 270.37L176.174 269.788ZM174.751 274.517L174.056 279.529L176.037 279.804L176.732 274.792L174.751 274.517ZM174.05 279.581L173.587 285.029L175.58 285.198L176.043 279.751L174.05 279.581ZM173.583 285.113V289.035H175.583V285.113H173.583ZM173.621 289.308L174.548 292.577L176.472 292.031L175.545 288.763L173.621 289.308ZM174.606 292.731L175.532 294.692L177.34 293.838L176.414 291.877L174.606 292.731ZM175.62 293.687L172.377 298.262L174.009 299.419L177.252 294.843L175.62 293.687ZM172.377 298.262L170.061 301.531L171.692 302.687L174.009 299.419L172.377 298.262ZM170.012 301.607L167.232 306.401L168.962 307.404L171.742 302.611L170.012 301.607ZM167.269 306.342L164.025 311.136L165.682 312.257L168.925 307.463L167.269 306.342ZM163.971 311.227L151.461 334.759L153.227 335.698L165.737 312.166L163.971 311.227ZM151.422 334.841L144.009 352.49L145.853 353.265L153.266 335.616L151.422 334.841ZM143.988 352.547L136.575 373.682L138.462 374.344L145.875 353.209L143.988 352.547ZM136.569 373.699L131.241 389.823L133.14 390.451L138.468 374.327L136.569 373.699ZM131.324 389.638L128.312 394.867L130.045 395.865L133.057 390.636L131.324 389.638ZM128.449 394.683L118.256 405.578L119.716 406.944L129.909 396.05L128.449 394.683ZM118.346 405.493L108.153 413.991L109.434 415.527L119.626 407.029L118.346 405.493ZM108.262 413.911L94.3627 422.627L95.4252 424.321L109.324 415.606L108.262 413.911ZM94.3956 422.607L86.056 427.401L87.0527 429.135L95.3922 424.341L94.3956 422.607ZM85.6516 427.838L82.6401 434.156L84.4455 435.017L87.4571 428.698L85.6516 427.838ZM82.555 434.431L81.6284 440.314L83.604 440.625L84.5307 434.742L82.555 434.431ZM81.6187 440.54L82.082 447.077L84.077 446.936L83.6137 440.399L81.6187 440.54ZM82.2699 447.593L85.7447 452.387L87.364 451.213L83.8892 446.42L82.2699 447.593ZM85.8692 452.528L89.344 455.797L90.7143 454.34L87.2395 451.072L85.8692 452.528ZM89.4279 455.867L94.061 459.354L95.2635 457.756L90.6304 454.269L89.4279 455.867ZM93.8659 459.16L96.1824 462.21L97.7752 461L95.4586 457.95L93.8659 459.16ZM95.9788 461.605V465.091H97.9788V461.605H95.9788ZM96.1357 464.554L94.7458 466.733L96.4319 467.808L97.8219 465.629L96.1357 464.554ZM94.6562 466.91L93.7295 469.307L95.595 470.028L96.5216 467.631L94.6562 466.91ZM93.6659 469.582L93.2025 475.03L95.1953 475.199L95.6587 469.752L93.6659 469.582ZM93.2103 475.265L93.6736 478.315L95.6509 478.015L95.1876 474.964L93.2103 475.265ZM93.7366 478.543L96.0532 484.209L97.9044 483.452L95.5879 477.786L93.7366 478.543ZM96.2113 484.471L101.308 490.572L102.843 489.29L97.7463 483.189L96.2113 484.471ZM101.555 490.785L105.493 493.182L106.533 491.474L102.595 489.077L101.555 490.785ZM105.633 493.253L113.046 496.303L113.807 494.454L106.394 491.403L105.633 493.253ZM113.205 496.353L119.923 497.879L120.366 495.928L113.648 494.403L113.205 496.353ZM120.144 497.904H129.41V495.904H120.144V497.904ZM129.618 497.882L136.8 496.356L136.384 494.4L129.203 495.925L129.618 497.882ZM136.883 496.335L144.759 493.938L144.177 492.025L136.301 494.422L136.883 496.335ZM144.722 493.949L154.683 491.334L154.175 489.4L144.214 492.014L144.722 493.949ZM154.56 491.358L169.386 489.397L169.124 487.414L154.298 489.375L154.56 491.358ZM168.918 489.347L173.782 491.09L174.457 489.208L169.592 487.464L168.918 489.347ZM173.671 491.043L177.146 492.786L178.043 490.998L174.568 489.255L173.671 491.043ZM176.993 492.691L181.626 496.177L182.829 494.579L178.196 491.093L176.993 492.691ZM181.228 495.378V497.121H183.228V495.378H181.228ZM181.307 496.73L180.381 498.909L182.221 499.692L183.148 497.513L181.307 496.73ZM180.661 498.532L174.638 503.543L175.918 505.081L181.941 500.069L180.661 498.532ZM174.899 503.387L165.864 507.091L166.623 508.941L175.657 505.237L174.899 503.387ZM165.301 507.682L163.911 511.604L165.796 512.272L167.186 508.35L165.301 507.682ZM164.11 512.607L166.658 515.439L168.145 514.102L165.597 511.269L164.11 512.607ZM166.99 515.682L172.782 518.297L173.605 516.474L167.813 513.859L166.99 515.682ZM172.882 518.336L178.21 520.079L178.832 518.178L173.504 516.435L172.882 518.336ZM178.42 520.123L186.991 520.995L187.194 519.005L178.622 518.134L178.42 520.123ZM187.114 521L197.075 520.782L197.032 518.782L187.071 519L187.114 521ZM197.308 520.749L218.852 515.084L218.343 513.15L196.799 518.815L197.308 520.749ZM218.802 515.096L225.057 513.788L224.648 511.831L218.393 513.138L218.802 515.096ZM224.874 513.809L235.066 513.591L235.024 511.592L224.831 511.81L224.874 513.809ZM234.906 513.582L245.794 515.107L246.071 513.127L235.184 511.601L234.906 513.582ZM245.698 515.089L254.733 517.268L255.202 515.324L246.167 513.145L245.698 515.089ZM254.759 517.274L267.037 519.889L267.453 517.932L255.176 515.318L254.759 517.274ZM267.245 519.911H272.805V517.911H267.245V519.911ZM272.805 519.911H279.754V517.911H272.805V519.911ZM279.966 519.888L289.001 517.927L288.577 515.972L279.542 517.933L279.966 519.888ZM289.154 517.881L297.493 514.612L296.764 512.75L288.424 516.018L289.154 517.881ZM297.664 514.526L307.625 508.207L306.554 506.518L296.593 512.837L297.664 514.526ZM307.596 508.224L311.303 506.045L310.289 504.321L306.583 506.5L307.596 508.224ZM310.796 506.183H321.452V504.183H310.796V506.183ZM321.287 506.17L334.259 508.348L334.59 506.376L321.618 504.197L321.287 506.17ZM334.345 508.359L345.233 509.231L345.392 507.237L334.505 506.365L334.345 508.359ZM345.37 509.232L353.014 508.796L352.9 506.8L345.256 507.235L345.37 509.232ZM353.186 508.772L363.379 506.375L362.921 504.428L352.728 506.825L353.186 508.772ZM363.559 506.314L368.424 504.135L367.606 502.31L362.741 504.489L363.559 506.314ZM368.653 503.992L376.53 497.455L375.252 495.916L367.376 502.453L368.653 503.992ZM376.783 497.137L379.1 492.562L377.315 491.658L374.999 496.234L376.783 497.137ZM379.196 492.26L379.891 487.684L377.914 487.384L377.219 491.96L379.196 492.26ZM379.878 487.312L379.183 484.262L377.233 484.706L377.928 487.756L379.878 487.312ZM378.865 485.237L382.109 482.404L380.793 480.898L377.55 483.731L378.865 485.237ZM381.694 482.621L385.169 481.75L384.682 479.81L381.207 480.681L381.694 482.621ZM385.217 481.736L393.093 479.339L392.511 477.426L384.634 479.823L385.217 481.736ZM393.415 479.173L402.681 471.982L401.455 470.402L392.189 477.593L393.415 479.173ZM402.974 471.616L405.522 466.169L403.71 465.321L401.162 470.769L402.974 471.616ZM405.616 465.745V462.695H403.616V465.745H405.616ZM405.616 462.695V459.862H403.616V462.695H405.616ZM405.281 459.115L383.506 439.723L382.176 441.217L403.951 460.609L405.281 459.115ZM383.613 439.834L368.555 421.532L367.011 422.802L382.068 441.105L383.613 439.834ZM368.709 421.788L360.601 401.96L358.75 402.717L366.858 422.545L368.709 421.788ZM360.623 402.021L357.843 393.741L355.947 394.377L358.727 402.657L360.623 402.021ZM357.869 393.829L355.089 382.063L353.142 382.523L355.922 394.289L357.869 393.829ZM355.102 382.127L353.712 373.847L351.739 374.179L353.129 382.458L355.102 382.127ZM353.701 373.791L350.921 361.589L348.971 362.033L351.751 374.235L353.701 373.791ZM350.901 361.516L346.731 348.007L344.82 348.597L348.99 362.106L350.901 361.516ZM346.659 347.832L345.501 345.654L343.735 346.592L344.893 348.771L346.659 347.832ZM345.532 345.718L344.374 343.103L342.545 343.913L343.703 346.528L345.532 345.718ZM344.443 343.69L346.296 333.667L344.329 333.303L342.476 343.326L344.443 343.69ZM346.283 333.727L348.831 323.486L346.89 323.003L344.342 333.244L346.283 333.727ZM348.818 323.535L350.208 318.959L348.294 318.378L346.904 322.954L348.818 323.535ZM350.239 318.819L350.934 314.243L348.957 313.943L348.262 318.518L350.239 318.819ZM350.945 314.127L351.408 300.618L349.41 300.549L348.946 314.059L350.945 314.127ZM351.409 300.584V294.483H349.409V300.584H351.409ZM351.211 295.08L352.833 292.901L351.228 291.707L349.607 293.886L351.211 295.08ZM352.98 292.619L354.138 289.133L352.24 288.502L351.082 291.989L352.98 292.619ZM354.164 289.04L354.859 285.989L352.909 285.545L352.214 288.595L354.164 289.04ZM354.884 285.767V280.538H352.884V285.767H354.884ZM354.813 280.167L354.118 278.424L352.26 279.165L352.955 280.908L354.813 280.167ZM353.111 279.792L355.891 280.009L356.047 278.016L353.267 277.798L353.111 279.792ZM355.126 279.55L356.516 281.729L358.202 280.654L356.812 278.475L355.126 279.55ZM356.674 281.92L358.758 283.881L360.129 282.424L358.044 280.463L356.674 281.92ZM359.018 284.057L360.871 284.929L361.722 283.119L359.869 282.248L359.018 284.057ZM361.828 284.871L362.523 284.435L361.461 282.741L360.766 283.177L361.828 284.871ZM362.992 283.588V282.717H360.992V283.588H362.992ZM362.774 282.093L359.299 277.735L357.735 278.982L361.21 283.34L362.774 282.093ZM359.244 277.672L357.39 275.711L355.937 277.085L357.79 279.046L359.244 277.672ZM357.184 275.544L353.245 273.147L352.206 274.855L356.144 277.252L357.184 275.544ZM353.427 273.289L348.563 268.495L347.159 269.92L352.024 274.713L353.427 273.289ZM348.774 268.799L345.067 260.519L343.242 261.336L346.948 269.616L348.774 268.799ZM344.911 260.273L336.803 250.904L335.29 252.213L343.398 261.582L344.911 260.273ZM336.747 250.845L331.419 245.615L330.018 247.043L335.346 252.272L336.747 250.845ZM331.442 245.638L319.164 232.783L317.717 234.164L329.995 247.019L331.442 245.638ZM319.126 232.745L310.091 224.247L308.721 225.704L317.756 234.202L319.126 232.745ZM309.983 224.158L302.57 218.929L301.417 220.563L308.83 225.793L309.983 224.158ZM302.947 219.446L301.094 213.563L299.186 214.164L301.039 220.047L302.947 219.446ZM301.139 213.813L300.907 209.237L298.91 209.338L299.141 213.914L301.139 213.813ZM300.809 209.722L301.967 207.326L300.166 206.455L299.008 208.852L300.809 209.722ZM302.067 206.891V204.712H300.067V206.891H302.067ZM301.251 203.729L298.935 203.293L298.565 205.259L300.882 205.694L301.251 203.729ZM299.75 204.276V202.533H297.75V204.276H299.75ZM299.75 202.533V196.214H297.75V202.533H299.75ZM299.346 197.017L303.748 193.748L302.555 192.143L298.154 195.411L299.346 197.017ZM303.908 193.599L309.931 186.627L308.418 185.319L302.395 192.292L303.908 193.599ZM310.103 186.343L313.578 177.628L311.72 176.887L308.246 185.603L310.103 186.343ZM313.649 177.257V167.67H311.649V177.257H313.649ZM313.304 166.914L307.512 161.902L306.204 163.415L311.995 168.426L313.304 166.914ZM307.079 161.683L300.361 160.158L299.919 162.109L306.637 163.634L307.079 161.683ZM299.868 160.171L290.602 162.786L291.145 164.711L300.412 162.096L299.868 160.171ZM290.411 162.862L286.241 165.041L287.167 166.813L291.337 164.634L290.411 162.862ZM286.704 164.927H285.082V166.927H286.704V164.927ZM285.838 165.272L280.742 159.389L279.23 160.699L284.327 166.582L285.838 165.272ZM280.986 160.044V153.725H278.986V160.044H280.986ZM280.964 153.933L282.122 148.486L280.166 148.07L279.008 153.517L280.964 153.933ZM281.411 149.242L285.349 148.152L284.816 146.225L280.878 147.314L281.411 149.242ZM285.745 147.937L289.683 144.451L288.358 142.953L284.42 146.44L285.745 147.937ZM289.021 144.702H295.044V142.702H289.021V144.702ZM295.308 144.667L299.015 143.65L298.485 141.721L294.779 142.738L295.308 144.667ZM299.273 143.538L309.697 137.146L308.652 135.441L298.227 141.833L299.273 143.538ZM309.946 136.93L317.128 128.214L315.584 126.942L308.403 135.658L309.946 136.93ZM317.321 127.841L319.637 119.343L317.708 118.817L315.391 127.315L317.321 127.841ZM319.672 119.08V116.684H317.672V119.08H319.672ZM319.591 117.079L323.065 109.018L321.229 108.226L317.754 116.288L319.591 117.079ZM323.147 108.622V102.739H321.147V108.622H323.147ZM322.98 102.185L319.505 96.9558L317.839 98.0627L321.314 103.292L322.98 102.185ZM318.672 96.5092H316.356V98.5092H318.672V96.5092ZM317.356 97.5092V94.4588H315.356V97.5092H317.356ZM317.283 94.0834L315.429 89.5077L313.576 90.2585L315.429 94.8342L317.283 94.0834ZM314.731 88.9096L311.952 88.2559L311.494 90.2028L314.274 90.8565L314.731 88.9096ZM312.005 88.27L308.298 87.1805L307.734 89.0993L311.441 90.1888L312.005 88.27ZM308.402 87.2173L306.317 86.3457L305.546 88.191L307.631 89.0626L308.402 87.2173ZM306.616 86.54L304.3 84.361L302.93 85.8179L305.246 87.9968L306.616 86.54ZM303.833 84.1136L298.969 83.0242L298.531 84.9758L303.396 86.0653L303.833 84.1136ZM298.168 83.1865L292.377 87.3264L293.54 88.9534L299.332 84.8135L298.168 83.1865ZM291.987 87.9017L291.292 90.7342L293.235 91.2108L293.93 88.3782L291.987 87.9017ZM291.264 90.9725V92.9335H293.264V90.9725H291.264ZM292.264 91.9335H283.692V93.9335H292.264V91.9335ZM331.833 266.247L316.776 266.901L316.862 268.899L331.92 268.245L331.833 266.247ZM316.243 267.083L313.463 269.044L314.616 270.678L317.396 268.717L316.243 267.083ZM313.81 268.888L309.177 269.977L309.635 271.924L314.268 270.835L313.81 268.888ZM310.361 270.652L309.202 266.948L307.293 267.545L308.452 271.249L310.361 270.652ZM308.978 266.563L303.882 261.116L302.421 262.482L307.518 267.93L308.978 266.563ZM303.954 261.202L300.711 256.844L299.106 258.038L302.349 262.396L303.954 261.202ZM300.632 256.751L288.586 244.114L287.138 245.494L299.184 258.131L300.632 256.751ZM288.388 243.953L280.28 238.941L279.229 240.643L287.336 245.654L288.388 243.953ZM280.18 238.887L269.987 234.094L269.136 235.903L279.329 240.697L280.18 238.887ZM269.837 234.037L264.509 232.512L263.958 234.435L269.286 235.96L269.837 234.037ZM265.233 233.473V229.987H263.233V233.473H265.233ZM265.167 229.63L263.083 224.182L261.215 224.897L263.3 230.344L265.167 229.63ZM262.958 225.127L266.433 220.333L264.814 219.159L261.339 223.953L262.958 225.127ZM266.514 220.202L269.525 214.319L267.745 213.407L264.733 219.29L266.514 220.202ZM269.093 214.752L276.275 211.048L275.358 209.27L268.176 212.974L269.093 214.752ZM276.605 210.774L281.701 204.237L280.124 203.007L275.028 209.544L276.605 210.774ZM281.419 204.484L283.273 203.395L282.259 201.671L280.406 202.76L281.419 204.484ZM281.766 202.533V210.159H283.766V202.533H281.766ZM282.081 209.431L280.227 211.174L281.598 212.63L283.451 210.887L282.081 209.431ZM279.97 212.236L280.665 214.197L282.55 213.529L281.855 211.568L279.97 212.236ZM280.725 214.332L281.883 216.511L283.649 215.573L282.491 213.394L280.725 214.332ZM282.043 216.733L284.128 218.912L285.573 217.53L283.488 215.351L282.043 216.733ZM283.851 218.221V224.54H285.851V218.221H283.851ZM283.901 224.853L285.986 231.172L287.885 230.545L285.8 224.226L283.901 224.853ZM286.305 231.635L291.402 235.775L292.663 234.222L287.566 230.082L286.305 231.635ZM291.511 235.852L318.614 252.412L319.657 250.705L292.553 234.145L291.511 235.852ZM318.573 252.385L333.631 262.626L334.756 260.972L319.698 250.731L318.573 252.385ZM333.377 262.377L335.231 264.992L336.862 263.836L335.009 261.221L333.377 262.377ZM335.046 264.414V267.9H337.046V264.414H335.046ZM335.12 270.861H335.815V268.861H335.12V270.861ZM336.024 270.288L336.19 269.937L334.382 269.083L334.216 269.434L336.024 270.288ZM335.839 268.677L332.43 266.413L331.324 268.079L334.733 270.343L335.839 268.677ZM335.142 267.473L334.382 269.083L336.19 269.937L336.951 268.327L335.142 267.473ZM334.733 270.343L335.262 270.694L336.368 269.028L335.839 268.677L334.733 270.343Z" fill="#48ABD7" mask="url(#path-7-inside-1_333_280)"/>
</svg>
