<svg width="1892" height="1080" viewBox="0 0 1892 1080" fill="none" xmlns="http://www.w3.org/2000/svg">
<g filter="url(#filter0_f_315_279)">
<path d="M1561.56 208.393L1562.05 208.277C1562.05 208.277 1562.05 208.277 1562.05 208.276C1561.2 204.723 1560.09 201.989 1558.88 199.256C1558.65 198.754 1558.43 198.253 1558.2 197.747C1557.19 195.496 1556.13 193.154 1555.11 190.248L1555.11 190.248C1554.98 189.861 1554.84 189.483 1554.71 189.112C1553.6 185.987 1552.67 183.362 1552.38 180.508C1552.05 177.34 1552.51 173.864 1554.49 169.134C1557.69 161.439 1566.8 158.134 1574.51 161.346C1579.4 163.385 1582.67 167.684 1583.7 172.566L1584.69 172.499C1584.84 170.431 1584.88 168.369 1584.63 166.464C1584.13 162.436 1582.53 159.307 1581.06 157.187C1580.66 156.618 1580.27 156.121 1579.92 155.698L1591.74 160.623L1564.9 225.014L1564.51 225.937C1564.14 222.988 1562.95 214.173 1561.56 208.393ZM1561.56 208.393C1560.58 204.241 1559.21 201.218 1557.75 197.958C1556.73 195.706 1555.67 193.341 1554.64 190.413L1561.56 208.393Z" fill="#EA83AA" fill-opacity="0.53" stroke="#EA83AA"/>
<path d="M1566.71 225.77L1593.55 161.379L1605.37 166.304C1604.82 166.351 1604.19 166.427 1603.51 166.547C1600.97 166.995 1597.62 168.061 1594.4 170.536C1592.88 171.705 1591.44 173.184 1590.08 174.747L1590.73 175.495C1594.92 172.789 1600.27 172.086 1605.17 174.125C1612.87 177.336 1616.94 186.133 1613.73 193.828C1611.76 198.557 1609.61 201.331 1607.13 203.33C1604.9 205.131 1602.38 206.317 1599.38 207.731C1599.02 207.898 1598.66 208.069 1598.29 208.245L1598.29 208.245C1595.51 209.566 1593.1 210.467 1590.79 211.331C1590.27 211.526 1589.76 211.719 1589.24 211.914C1586.45 212.977 1583.72 214.11 1580.6 216.011C1577.49 217.896 1573.64 220.625 1570.58 222.875C1569.05 224.002 1567.71 225.011 1566.75 225.739C1566.74 225.749 1566.72 225.76 1566.71 225.77Z" fill="#EA83AA" fill-opacity="0.53" stroke="#EA83AA"/>
</g>
<g filter="url(#filter1_f_315_279)">
<path d="M1853.22 600.189L1853.23 599.69C1853.23 599.69 1853.23 599.69 1853.23 599.69C1849.57 599.628 1846.65 600.032 1843.7 600.529C1843.16 600.621 1842.62 600.715 1842.07 600.811C1839.64 601.235 1837.11 601.676 1834.04 601.945L1834.04 601.945C1833.63 601.981 1833.23 602.017 1832.84 602.053C1829.54 602.352 1826.77 602.604 1823.93 602.182C1820.78 601.713 1817.52 600.407 1813.43 597.326C1806.77 592.313 1805.82 582.669 1810.84 575.999C1814.03 571.764 1819 569.659 1823.99 569.872L1824.17 568.899C1822.2 568.241 1820.21 567.693 1818.31 567.456C1814.28 566.95 1810.85 567.726 1808.43 568.626C1807.78 568.867 1807.21 569.118 1806.71 569.356L1814.41 559.127L1870.15 601.074L1870.95 601.675C1868 601.31 1859.16 600.274 1853.22 600.189ZM1853.22 600.189C1848.95 600.118 1845.69 600.688 1842.16 601.302C1839.73 601.727 1837.18 602.172 1834.08 602.443L1853.22 600.189Z" fill="#EA83AA" fill-opacity="0.53" stroke="#EA83AA"/>
<path d="M1871.33 599.503L1815.59 557.557L1823.28 547.328C1823.19 547.872 1823.11 548.496 1823.06 549.187C1822.86 551.76 1823.07 555.268 1824.67 558.999C1825.43 560.764 1826.5 562.523 1827.68 564.23L1828.56 563.788C1826.98 559.058 1827.62 553.694 1830.81 549.46C1835.83 542.79 1845.36 541.029 1852.02 546.041C1856.12 549.123 1858.27 551.888 1859.59 554.785C1860.79 557.395 1861.31 560.129 1861.94 563.386C1862.01 563.772 1862.09 564.166 1862.17 564.568L1862.17 564.568C1862.76 567.591 1863.04 570.144 1863.3 572.598C1863.36 573.149 1863.42 573.696 1863.48 574.242C1863.82 577.212 1864.24 580.135 1865.31 583.626C1866.37 587.107 1868.06 591.511 1869.48 595.036C1870.19 596.8 1870.84 598.348 1871.31 599.455C1871.32 599.471 1871.32 599.487 1871.33 599.503Z" fill="#EA83AA" fill-opacity="0.53" stroke="#EA83AA"/>
</g>
<g filter="url(#filter2_f_315_279)">
<path d="M1592.56 1013.39L1593.05 1013.28C1593.05 1013.28 1593.05 1013.28 1593.05 1013.28C1592.2 1009.72 1591.09 1006.99 1589.88 1004.26C1589.65 1003.75 1589.43 1003.25 1589.2 1002.75C1588.19 1000.5 1587.13 998.154 1586.11 995.248L1586.11 995.248C1585.98 994.861 1585.84 994.483 1585.71 994.112C1584.6 990.987 1583.67 988.362 1583.38 985.508C1583.05 982.34 1583.51 978.864 1585.49 974.134C1588.69 966.439 1597.8 963.134 1605.51 966.346C1610.4 968.385 1613.67 972.684 1614.7 977.566L1615.69 977.499C1615.84 975.431 1615.88 973.369 1615.63 971.464C1615.13 967.436 1613.53 964.307 1612.06 962.187C1611.66 961.618 1611.27 961.121 1610.92 960.698L1622.74 965.623L1595.9 1030.01L1595.51 1030.94C1595.14 1027.99 1593.95 1019.17 1592.56 1013.39ZM1592.56 1013.39C1591.58 1009.24 1590.21 1006.22 1588.75 1002.96C1587.73 1000.71 1586.67 998.341 1585.64 995.413L1592.56 1013.39Z" fill="#EA83AA" fill-opacity="0.53" stroke="#EA83AA"/>
<path d="M1597.71 1030.77L1624.55 966.379L1636.37 971.304C1635.82 971.351 1635.19 971.426 1634.51 971.547C1631.97 971.995 1628.62 973.061 1625.4 975.535C1623.88 976.705 1622.44 978.184 1621.08 979.747L1621.73 980.495C1625.92 977.789 1631.27 977.086 1636.17 979.125C1643.87 982.336 1647.94 991.133 1644.73 998.828C1642.76 1003.56 1640.61 1006.33 1638.13 1008.33C1635.9 1010.13 1633.38 1011.32 1630.38 1012.73C1630.02 1012.9 1629.66 1013.07 1629.29 1013.24L1629.29 1013.24C1626.51 1014.57 1624.1 1015.47 1621.79 1016.33C1621.27 1016.53 1620.76 1016.72 1620.24 1016.91C1617.45 1017.98 1614.72 1019.11 1611.6 1021.01C1608.49 1022.9 1604.64 1025.62 1601.58 1027.88C1600.05 1029 1598.71 1030.01 1597.75 1030.74C1597.74 1030.75 1597.72 1030.76 1597.71 1030.77Z" fill="#EA83AA" fill-opacity="0.53" stroke="#EA83AA"/>
</g>
<path d="M586.44 1082.35L532.854 999.75L517.691 1009.59C518.597 1009.49 519.726 1009.41 521.025 1009.43C524.501 1009.49 529.206 1010.2 534.115 1012.84C536.438 1014.09 538.736 1015.78 540.965 1017.61L540.447 1018.46C534.093 1015.66 526.733 1015.89 520.749 1019.77C511.337 1025.88 508.27 1038.87 514.694 1048.77C518.611 1054.81 522.238 1058.14 526.109 1060.34C529.586 1062.32 533.276 1063.39 537.639 1064.66C538.158 1064.81 538.687 1064.96 539.225 1065.12L539.226 1065.12C543.286 1066.31 546.734 1067.01 550.038 1067.68C550.781 1067.83 551.516 1067.98 552.249 1068.13C556.243 1068.97 560.159 1069.91 564.799 1071.81C569.433 1073.69 575.277 1076.56 579.954 1078.95C582.295 1080.15 584.346 1081.23 585.813 1082.01C586.036 1082.13 586.245 1082.24 586.44 1082.35Z" fill="#EA83AA" fill-opacity="0.53" stroke="#EA83AA"/>
<path d="M546.219 1004.99C545.803 999.43 547.069 994.844 548.439 991.648C548.951 990.454 549.478 989.453 549.938 988.667L534.775 998.504L588.362 1081.1C588.346 1080.88 588.33 1080.64 588.312 1080.39C588.197 1078.73 588.046 1076.42 587.906 1073.79C587.626 1068.55 587.388 1062.04 587.557 1057.04C587.714 1052.03 588.45 1048.07 589.316 1044.08C589.475 1043.35 589.639 1042.62 589.804 1041.88C590.538 1038.59 591.304 1035.16 591.87 1030.96L591.871 1030.96C591.946 1030.41 592.021 1029.86 592.095 1029.33C592.718 1024.83 593.244 1021.02 592.857 1017.04C592.426 1012.61 590.856 1007.94 586.939 1001.9C580.515 991.996 567.401 989.503 557.99 995.609C552.006 999.491 548.802 1006.12 548.762 1013.06L547.78 1013.19C547.021 1010.41 546.414 1007.62 546.219 1004.99ZM546.219 1004.99C546.219 1004.99 546.219 1004.99 546.219 1004.99L546.718 1004.96L546.219 1004.99Z" fill="#EA83AA" fill-opacity="0.53" stroke="#EA83AA"/>
<path d="M1134.44 1050.35L1080.85 967.75L1065.69 977.587C1066.6 977.488 1067.73 977.415 1069.02 977.434C1072.5 977.485 1077.21 978.198 1082.12 980.845C1084.44 982.095 1086.74 983.785 1088.96 985.611L1088.45 986.456C1082.09 983.663 1074.73 983.888 1068.75 987.77C1059.34 993.876 1056.27 1006.87 1062.69 1016.77C1066.61 1022.81 1070.24 1026.14 1074.11 1028.34C1077.59 1030.32 1081.28 1031.39 1085.64 1032.66C1086.16 1032.81 1086.69 1032.96 1087.23 1033.12L1087.23 1033.12C1091.29 1034.31 1094.73 1035.01 1098.04 1035.68C1098.78 1035.83 1099.52 1035.98 1100.25 1036.13C1104.24 1036.97 1108.16 1037.91 1112.8 1039.81C1117.43 1041.69 1123.28 1044.56 1127.95 1046.95C1130.29 1048.15 1132.35 1049.23 1133.81 1050.01C1134.04 1050.13 1134.25 1050.24 1134.44 1050.35Z" fill="#EA83AA" fill-opacity="0.53" stroke="#EA83AA"/>
<path d="M1094.22 972.993C1093.8 967.43 1095.07 962.844 1096.44 959.648C1096.95 958.454 1097.48 957.453 1097.94 956.667L1082.77 966.504L1136.36 1049.1C1136.35 1048.88 1136.33 1048.64 1136.31 1048.39C1136.2 1046.73 1136.05 1044.42 1135.91 1041.79C1135.63 1036.55 1135.39 1030.04 1135.56 1025.04C1135.71 1020.03 1136.45 1016.07 1137.32 1012.08C1137.48 1011.35 1137.64 1010.62 1137.8 1009.88C1138.54 1006.59 1139.3 1003.16 1139.87 998.963L1139.87 998.962C1139.95 998.406 1140.02 997.861 1140.1 997.326C1140.72 992.826 1141.24 989.02 1140.86 985.039C1140.43 980.608 1138.86 975.936 1134.94 969.898C1128.51 959.996 1115.4 957.503 1105.99 963.609C1100.01 967.491 1096.8 974.12 1096.76 981.061L1095.78 981.19C1095.02 978.41 1094.41 975.623 1094.22 972.993ZM1094.22 972.993C1094.22 972.993 1094.22 972.992 1094.22 972.992L1094.72 972.955L1094.22 972.993Z" fill="#EA83AA" fill-opacity="0.53" stroke="#EA83AA"/>
<path d="M96.4396 777.347L42.8538 694.75L27.6909 704.587C28.5965 704.488 29.7253 704.415 31.0244 704.434C34.5008 704.485 39.2051 705.198 44.1148 707.845C46.4372 709.095 48.7351 710.785 50.9645 712.611L50.4464 713.456C44.0924 710.663 36.7321 710.888 30.7488 714.77C21.337 720.876 18.2694 733.867 24.6934 743.769C28.6109 749.807 32.2376 753.144 36.108 755.344C39.5855 757.32 43.2758 758.39 47.6384 759.656C48.1575 759.806 48.686 759.959 49.2249 760.117L49.2251 760.117C53.286 761.309 56.7338 762.009 60.0379 762.68C60.7801 762.83 61.5151 762.98 62.2482 763.133C66.2424 763.966 70.1587 764.908 74.7989 766.807C79.4326 768.69 85.2767 771.559 89.9537 773.953C92.2942 775.151 94.3459 776.231 95.8126 777.012C96.0355 777.131 96.2448 777.243 96.4396 777.347Z" fill="#EA83AA" fill-opacity="0.53" stroke="#EA83AA"/>
<path d="M56.2186 699.993C55.8027 694.43 57.0687 689.844 58.4385 686.648C58.9504 685.454 59.4772 684.453 59.9371 683.667L44.7744 693.504L98.3616 776.1C98.3458 775.879 98.3291 775.643 98.3115 775.391C98.196 773.733 98.0455 771.419 97.9056 768.794C97.6259 763.547 97.3873 757.041 97.5565 752.043C97.7133 747.031 98.4491 743.071 99.3158 739.084C99.4749 738.352 99.6382 737.62 99.8032 736.881C100.537 733.591 101.303 730.157 101.87 725.963L101.87 725.962C101.945 725.406 102.021 724.861 102.095 724.326C102.717 719.826 103.244 716.02 102.857 712.039C102.426 707.608 100.856 702.936 96.9385 696.898C90.5145 686.996 77.4008 684.503 67.9892 690.609C62.0059 694.491 58.8013 701.12 58.762 708.061L57.7796 708.19C57.0203 705.41 56.4135 702.623 56.2186 699.993ZM56.2186 699.993C56.2186 699.993 56.2186 699.992 56.2186 699.992L56.7172 699.955L56.2186 699.993Z" fill="#EA83AA" fill-opacity="0.53" stroke="#EA83AA"/>
<path d="M1208.11 242.368C1208.45 247.304 1210 252.08 1212.62 256.274C1215.25 260.468 1218.87 263.949 1223.16 266.41L1223.18 266.431C1229.38 270.013 1236.66 271.273 1243.7 269.987C1250.75 268.7 1257.1 264.951 1261.64 259.409C1266.17 253.867 1268.59 246.893 1268.46 239.733C1268.33 232.573 1265.65 225.693 1260.92 220.322C1260.91 220.275 1260.91 220.275 1260.87 220.279C1256.7 215.534 1251.14 212.219 1244.99 210.798C1238.83 209.378 1232.39 209.925 1226.56 212.362C1220.73 214.799 1215.81 219.003 1212.5 224.382C1209.19 229.761 1207.65 236.044 1208.1 242.345L1208.11 242.368Z" fill="#7AD6FF" fill-opacity="0.62"/>
<path d="M1212.93 224.644C1209.69 229.905 1208.17 236.046 1208.59 242.208L1208.6 242.231L1208.61 242.333C1208.94 247.188 1210.46 251.885 1213.05 256.009C1215.63 260.133 1219.19 263.556 1223.41 265.976L1223.47 266.01L1223.49 266.032C1229.58 269.529 1236.7 270.756 1243.61 269.495C1250.54 268.23 1256.79 264.543 1261.25 259.093C1265.71 253.642 1268.09 246.784 1267.96 239.742C1267.83 232.763 1265.25 226.055 1260.66 220.794L1260.65 220.795L1260.49 220.609C1256.39 215.943 1250.93 212.682 1244.87 211.286C1238.82 209.889 1232.48 210.427 1226.75 212.823C1221.02 215.22 1216.18 219.354 1212.93 224.644Z" stroke="#48ABD7" stroke-opacity="0.88"/>
<path d="M1215.67 248.556C1216.12 255.168 1218.75 261.445 1223.14 266.404L1223.18 266.432C1229.38 270.013 1236.65 271.273 1243.7 269.987C1250.74 268.701 1257.1 264.951 1261.64 259.409C1266.17 253.867 1268.59 246.893 1268.46 239.733C1268.33 232.573 1265.65 225.693 1260.92 220.322C1260.91 220.276 1260.91 220.276 1260.87 220.279C1256.12 217.549 1250.72 216.16 1245.25 216.261C1239.77 216.362 1234.43 217.949 1229.79 220.851C1225.14 223.754 1221.38 227.864 1218.89 232.741C1216.4 237.619 1215.29 243.08 1215.66 248.542L1215.67 248.556Z" fill="#48ABD7" fill-opacity="0.57"/>
<path d="M1219.34 232.968C1216.9 237.747 1215.8 243.095 1216.16 248.446L1216.16 248.46L1216.17 248.522C1216.61 255.001 1219.17 261.154 1223.47 266.022C1229.56 269.526 1236.7 270.757 1243.61 269.495C1250.54 268.23 1256.79 264.543 1261.25 259.093C1265.71 253.642 1268.09 246.784 1267.96 239.742C1267.83 232.715 1265.21 225.962 1260.57 220.685C1255.91 218.018 1250.62 216.662 1245.26 216.761C1239.87 216.86 1234.62 218.421 1230.05 221.275C1225.49 224.13 1221.78 228.172 1219.34 232.968Z" stroke="#48ABD7" stroke-opacity="0.88"/>
<path d="M1259.66 240.202C1259.18 243.277 1258.31 246.277 1257.06 249.127C1255.8 251.987 1253.83 254.477 1251.34 256.359C1249.39 257.657 1247.27 258.678 1245.05 259.392" stroke="#48ABD7" stroke-opacity="0.88" stroke-width="1.412" stroke-miterlimit="10"/>
<path d="M330.108 1022.37C330.446 1027.3 331.997 1032.08 334.622 1036.27C337.248 1040.47 340.867 1043.95 345.16 1046.41L345.181 1046.43C351.383 1050.01 358.656 1051.27 365.701 1049.99C372.746 1048.7 379.104 1044.95 383.639 1039.41C388.175 1033.87 390.592 1026.89 390.46 1019.73C390.328 1012.57 387.654 1005.69 382.917 1000.32C382.913 1000.28 382.913 1000.28 382.867 1000.28C378.696 995.534 373.142 992.219 366.986 990.798C360.831 989.378 354.386 989.925 348.558 992.362C342.73 994.799 337.813 999.003 334.501 1004.38C331.189 1009.76 329.649 1016.04 330.096 1022.34L330.108 1022.37Z" fill="#7AD6FF" fill-opacity="0.62"/>
<path d="M334.927 1004.64C331.688 1009.91 330.171 1016.05 330.588 1022.21L330.6 1022.23L330.607 1022.33C330.939 1027.19 332.464 1031.88 335.046 1036.01C337.628 1040.13 341.187 1043.56 345.408 1045.98L345.467 1046.01L345.489 1046.03C351.576 1049.53 358.704 1050.76 365.611 1049.49C372.539 1048.23 378.792 1044.54 383.252 1039.09C387.713 1033.64 390.09 1026.78 389.96 1019.74C389.831 1012.76 387.247 1006.05 382.665 1000.79L382.655 1000.79L382.491 1000.61C378.39 995.943 372.927 992.682 366.874 991.286C360.821 989.889 354.482 990.427 348.751 992.823C343.019 995.22 338.184 999.354 334.927 1004.64Z" stroke="#48ABD7" stroke-opacity="0.88"/>
<path d="M337.67 1028.56C338.118 1035.17 340.746 1041.44 345.142 1046.4L345.181 1046.43C351.382 1050.01 358.655 1051.27 365.7 1049.99C372.745 1048.7 379.103 1044.95 383.639 1039.41C388.175 1033.87 390.592 1026.89 390.46 1019.73C390.327 1012.57 387.654 1005.69 382.916 1000.32C382.913 1000.28 382.913 1000.28 382.867 1000.28C378.121 997.549 372.722 996.16 367.248 996.261C361.774 996.362 356.43 997.949 351.787 1000.85C347.145 1003.75 343.379 1007.86 340.892 1012.74C338.404 1017.62 337.289 1023.08 337.665 1028.54L337.67 1028.56Z" fill="#48ABD7" fill-opacity="0.57"/>
<path d="M341.337 1012.97C338.9 1017.75 337.802 1023.1 338.16 1028.45L338.164 1028.46L338.168 1028.52C338.607 1035 341.175 1041.15 345.472 1046.02C351.562 1049.53 358.698 1050.76 365.61 1049.5C372.539 1048.23 378.792 1044.54 383.252 1039.09C387.713 1033.64 390.09 1026.78 389.96 1019.74C389.83 1012.71 387.211 1005.96 382.57 1000.68C377.914 998.018 372.622 996.662 367.257 996.761C361.873 996.86 356.618 998.421 352.053 1001.28C347.487 1004.13 343.783 1008.17 341.337 1012.97Z" stroke="#48ABD7" stroke-opacity="0.88"/>
<path d="M381.663 1020.2C381.181 1023.28 380.306 1026.28 379.058 1029.13C377.8 1031.99 375.83 1034.48 373.336 1036.36C371.391 1037.66 369.274 1038.68 367.047 1039.39" stroke="#48ABD7" stroke-opacity="0.88" stroke-width="1.412" stroke-miterlimit="10"/>
<path d="M772.108 1032.37C772.446 1037.3 773.997 1042.08 776.622 1046.27C779.248 1050.47 782.867 1053.95 787.16 1056.41L787.181 1056.43C793.383 1060.01 800.656 1061.27 807.701 1059.99C814.746 1058.7 821.104 1054.95 825.639 1049.41C830.175 1043.87 832.592 1036.89 832.46 1029.73C832.328 1022.57 829.654 1015.69 824.917 1010.32C824.913 1010.28 824.913 1010.28 824.867 1010.28C820.696 1005.53 815.142 1002.22 808.986 1000.8C802.831 999.378 796.386 999.925 790.558 1002.36C784.73 1004.8 779.813 1009 776.501 1014.38C773.189 1019.76 771.649 1026.04 772.096 1032.34L772.108 1032.37Z" fill="#7AD6FF" fill-opacity="0.62"/>
<path d="M776.927 1014.64C773.688 1019.91 772.171 1026.05 772.588 1032.21L772.6 1032.23L772.607 1032.33C772.939 1037.19 774.464 1041.88 777.046 1046.01C779.628 1050.13 783.187 1053.56 787.408 1055.98L787.467 1056.01L787.489 1056.03C793.576 1059.53 800.704 1060.76 807.611 1059.49C814.539 1058.23 820.792 1054.54 825.252 1049.09C829.713 1043.64 832.09 1036.78 831.96 1029.74C831.831 1022.76 829.247 1016.05 824.665 1010.79L824.655 1010.79L824.491 1010.61C820.39 1005.94 814.927 1002.68 808.874 1001.29C802.821 999.889 796.482 1000.43 790.751 1002.82C785.019 1005.22 780.184 1009.35 776.927 1014.64Z" stroke="#48ABD7" stroke-opacity="0.88"/>
<path d="M779.67 1038.56C780.118 1045.17 782.746 1051.44 787.142 1056.4L787.181 1056.43C793.382 1060.01 800.655 1061.27 807.7 1059.99C814.745 1058.7 821.103 1054.95 825.639 1049.41C830.175 1043.87 832.592 1036.89 832.46 1029.73C832.327 1022.57 829.654 1015.69 824.916 1010.32C824.913 1010.28 824.913 1010.28 824.867 1010.28C820.121 1007.55 814.722 1006.16 809.248 1006.26C803.774 1006.36 798.43 1007.95 793.787 1010.85C789.145 1013.75 785.379 1017.86 782.892 1022.74C780.404 1027.62 779.289 1033.08 779.665 1038.54L779.67 1038.56Z" fill="#48ABD7" fill-opacity="0.57"/>
<path d="M783.337 1022.97C780.9 1027.75 779.802 1033.1 780.16 1038.45L780.164 1038.46L780.168 1038.52C780.607 1045 783.175 1051.15 787.472 1056.02C793.562 1059.53 800.698 1060.76 807.61 1059.5C814.539 1058.23 820.792 1054.54 825.252 1049.09C829.713 1043.64 832.09 1036.78 831.96 1029.74C831.83 1022.71 829.211 1015.96 824.57 1010.68C819.914 1008.02 814.622 1006.66 809.257 1006.76C803.873 1006.86 798.618 1008.42 794.053 1011.28C789.487 1014.13 785.783 1018.17 783.337 1022.97Z" stroke="#48ABD7" stroke-opacity="0.88"/>
<path d="M823.663 1030.2C823.181 1033.28 822.306 1036.28 821.058 1039.13C819.8 1041.99 817.83 1044.48 815.336 1046.36C813.391 1047.66 811.274 1048.68 809.047 1049.39" stroke="#48ABD7" stroke-opacity="0.88" stroke-width="1.412" stroke-miterlimit="10"/>
<g filter="url(#filter3_f_315_279)">
<path d="M1797.59 977.417C1798.01 983.492 1799.95 989.367 1803.25 994.524C1806.55 999.68 1811.1 1003.96 1816.51 1006.98L1816.53 1007C1824.34 1011.4 1833.5 1012.94 1842.38 1011.34C1851.26 1009.74 1859.27 1005.11 1865 998.283C1870.72 991.453 1873.78 982.864 1873.63 974.052C1873.48 965.239 1870.13 956.777 1864.17 950.177C1864.16 950.119 1864.16 950.119 1864.11 950.123C1858.86 944.293 1851.87 940.223 1844.12 938.487C1836.37 936.752 1828.25 937.438 1820.9 940.449C1813.55 943.46 1807.35 948.645 1803.17 955.272C1798.98 961.899 1797.03 969.635 1797.58 977.389L1797.59 977.417Z" fill="#7AD6FF" fill-opacity="0.62"/>
<path d="M1803.59 955.539C1799.48 962.047 1797.55 969.638 1798.07 977.25L1798.09 977.278L1798.09 977.383C1798.5 983.373 1800.42 989.168 1803.67 994.254C1806.93 999.34 1811.42 1003.56 1816.75 1006.54L1816.81 1006.57L1816.84 1006.6C1824.53 1010.91 1833.55 1012.42 1842.29 1010.85C1851.05 1009.27 1858.97 1004.7 1864.62 997.962C1870.26 991.223 1873.28 982.751 1873.13 974.061C1872.98 965.426 1869.72 957.131 1863.91 950.638L1863.9 950.639L1863.73 950.458C1858.56 944.705 1851.66 940.689 1844.01 938.975C1836.36 937.262 1828.34 937.939 1821.09 940.912C1813.84 943.884 1807.72 949.001 1803.59 955.539Z" stroke="#48ABD7" stroke-opacity="0.88"/>
<path d="M1807.11 985.018C1807.66 993.155 1810.96 1000.88 1816.49 1006.97L1816.53 1007C1824.34 1011.4 1833.5 1012.94 1842.38 1011.34C1851.26 1009.74 1859.27 1005.11 1865 998.283C1870.72 991.453 1873.78 982.864 1873.63 974.052C1873.48 965.24 1870.13 956.777 1864.17 950.177C1864.16 950.119 1864.16 950.119 1864.11 950.123C1858.13 946.773 1851.33 945.075 1844.44 945.21C1837.54 945.346 1830.8 947.309 1824.95 950.891C1819.1 954.473 1814.34 959.539 1811.2 965.547C1808.06 971.555 1806.64 978.28 1807.1 985.002L1807.11 985.018Z" fill="#48ABD7" fill-opacity="0.57"/>
<path d="M1811.64 965.779C1808.55 971.687 1807.15 978.296 1807.6 984.904L1807.6 984.92L1807.61 984.984C1808.15 992.987 1811.39 1000.58 1816.81 1006.59C1824.51 1010.91 1833.54 1012.42 1842.29 1010.85C1851.05 1009.27 1858.97 1004.7 1864.62 997.962C1870.26 991.223 1873.28 982.751 1873.13 974.061C1872.98 965.381 1869.68 957.044 1863.82 950.536C1857.93 947.245 1851.24 945.577 1844.45 945.71C1837.64 945.844 1830.99 947.782 1825.21 951.318C1819.43 954.853 1814.74 959.852 1811.64 965.779Z" stroke="#48ABD7" stroke-opacity="0.88"/>
<path d="M1862.55 974.647C1861.94 978.433 1860.83 982.126 1859.25 985.638C1857.66 989.16 1855.17 992.229 1852.02 994.55C1849.57 996.152 1846.9 997.412 1844.1 998.296" stroke="#48ABD7" stroke-opacity="0.88" stroke-width="1.412" stroke-miterlimit="10"/>
</g>
<g filter="url(#filter4_f_315_279)">
<path d="M1767.5 77L1778.61 109.822H1814.58L1785.48 130.107L1796.6 162.928L1767.5 142.643L1738.4 162.928L1749.52 130.107L1720.42 109.822H1756.39L1767.5 77Z" fill="#279B61" fill-opacity="0.76"/>
</g>
<g filter="url(#filter5_f_315_279)">
<path d="M193.5 944L204.613 976.822H240.577L211.482 997.107L222.595 1029.93L193.5 1009.64L164.405 1029.93L175.518 997.107L146.423 976.822H182.387L193.5 944Z" fill="#279B61" fill-opacity="0.76"/>
</g>
<g filter="url(#filter6_f_315_279)">
<path d="M1323.23 986.95L1356.28 997.36L1377.51 968.335L1376.71 1003.79L1409.76 1014.2L1376.21 1025.71L1375.4 1061.17L1355.47 1032.82L1321.92 1044.32L1343.15 1015.3L1323.23 986.95Z" fill="#279B61" fill-opacity="0.76"/>
</g>
<g filter="url(#filter7_f_315_279)">
<path d="M627.228 218.95L660.279 229.36L681.514 200.335L680.706 235.794L713.757 246.205L680.206 257.709L679.398 293.169L659.471 264.82L625.92 276.324L647.155 247.299L627.228 218.95Z" fill="#279B61" fill-opacity="0.76"/>
</g>
<g filter="url(#filter8_f_315_279)">
<path d="M29.2275 386.95L62.2789 397.36L83.514 368.335L82.7058 403.794L115.757 414.205L82.2064 425.709L81.3982 461.169L61.4708 432.82L27.9199 444.324L49.155 415.299L29.2275 386.95Z" fill="#279B61" fill-opacity="0.76"/>
</g>
<g filter="url(#filter9_f_315_279)">
<path d="M1883 235C1883 259.873 1863.06 280 1838.5 280C1813.94 280 1794 259.873 1794 235C1794 210.127 1813.94 190 1838.5 190C1863.06 190 1883 210.127 1883 235Z" stroke="white" stroke-width="4"/>
</g>
<g filter="url(#filter10_f_315_279)">
<path d="M1883 738C1883 759.011 1866.19 776 1845.5 776C1824.81 776 1808 759.011 1808 738C1808 716.989 1824.81 700 1845.5 700C1866.19 700 1883 716.989 1883 738Z" stroke="white" stroke-width="4"/>
</g>
<g filter="url(#filter11_f_315_279)">
<path d="M1546 1045C1546 1066.01 1529.19 1083 1508.5 1083C1487.81 1083 1471 1066.01 1471 1045C1471 1023.99 1487.81 1007 1508.5 1007C1529.19 1007 1546 1023.99 1546 1045Z" stroke="white" stroke-width="4"/>
</g>
<g filter="url(#filter12_f_315_279)">
<path d="M1264 698C1264 722.873 1244.06 743 1219.5 743C1194.94 743 1175 722.873 1175 698C1175 673.127 1194.94 653 1219.5 653C1244.06 653 1264 673.127 1264 698Z" stroke="white" stroke-width="4"/>
</g>
<g filter="url(#filter13_f_315_279)">
<path d="M751 974.5C751 1005.72 725.912 1031 695 1031C664.088 1031 639 1005.72 639 974.5C639 943.28 664.088 918 695 918C725.912 918 751 943.28 751 974.5Z" stroke="white" stroke-width="4"/>
</g>
<g filter="url(#filter14_f_315_279)">
<path d="M102 934C102 951.15 88.316 965 71.5 965C54.684 965 41 951.15 41 934C41 916.85 54.684 903 71.5 903C88.316 903 102 916.85 102 934Z" stroke="white" stroke-width="4"/>
</g>
<g filter="url(#filter15_f_315_279)">
<path d="M159 546C159 570.873 139.057 591 114.5 591C89.9434 591 70 570.873 70 546C70 521.127 89.9434 501 114.5 501C139.057 501 159 521.127 159 546Z" stroke="white" stroke-width="4"/>
</g>
<g filter="url(#filter16_f_315_279)">
<path d="M1499 261C1499 275.731 1485.76 288 1469 288C1452.24 288 1439 275.731 1439 261C1439 246.269 1452.24 234 1469 234C1485.76 234 1499 246.269 1499 261Z" stroke="white" stroke-width="4"/>
</g>
<path d="M129.901 237.658L167.782 146.78L151.099 139.826C151.692 140.517 152.39 141.407 153.109 142.49C155.03 145.388 157.099 149.672 157.689 155.218C157.97 157.841 157.873 160.692 157.626 163.563L156.636 163.613C155.351 156.792 151.008 150.846 144.424 148.102C134.069 143.785 121.616 148.593 117.075 159.488C114.306 166.131 113.601 171.009 113.973 175.446C114.307 179.431 115.508 183.081 116.929 187.396C117.098 187.909 117.27 188.432 117.444 188.965L117.444 188.966C118.755 192.99 120.125 196.23 121.438 199.335C121.733 200.033 122.026 200.724 122.314 201.415C123.882 205.181 125.317 208.945 126.372 213.847C127.436 218.734 128.37 225.177 129.037 230.388C129.371 232.996 129.639 235.3 129.823 236.951C129.851 237.202 129.877 237.438 129.901 237.658Z" fill="#EA83AA" fill-opacity="0.53" stroke="#EA83AA"/>
<path d="M171.006 160.77C175.361 157.284 179.861 155.738 183.271 155.063C184.546 154.81 185.669 154.68 186.578 154.615L169.895 147.661L132.016 238.539C132.188 238.401 132.374 238.254 132.572 238.097C133.875 237.065 135.699 235.634 137.786 234.035C141.957 230.841 147.191 226.968 151.411 224.284C155.635 221.582 159.318 219.952 163.098 218.415C163.791 218.133 164.488 217.854 165.191 217.572C168.321 216.319 171.587 215.012 175.367 213.11L175.368 213.11C175.869 212.857 176.362 212.612 176.845 212.37C180.91 210.342 184.348 208.626 187.414 206.058C190.826 203.199 193.795 199.265 196.564 192.621C201.105 181.726 195.754 169.497 185.399 165.181C178.816 162.437 171.535 163.538 165.786 167.426L165.124 166.689C166.989 164.492 168.946 162.416 171.006 160.77ZM171.006 160.77C171.006 160.77 171.006 160.77 171.007 160.77L171.319 161.16L171.006 160.77Z" fill="#EA83AA" fill-opacity="0.53" stroke="#EA83AA"/>
<path d="M288.442 114.295C288.994 122.354 291.578 130.149 295.966 136.99C300.353 143.83 306.408 149.504 313.594 153.509L313.63 153.544C324.012 159.374 336.197 161.41 348.007 159.289C359.817 157.167 370.483 151.026 378.101 141.963C385.718 132.899 389.79 121.503 389.59 109.812C389.39 98.1197 384.93 86.8931 377.007 78.1373C377.001 78.0612 377.001 78.0612 376.923 78.0666C369.948 70.3322 360.65 64.9342 350.339 62.6334C340.028 60.3326 329.225 61.2449 319.451 65.2418C309.677 69.2387 301.425 76.1187 295.859 84.9123C290.292 93.7059 287.692 103.97 288.423 114.258L288.442 114.295Z" fill="#7AD6FF" fill-opacity="0.62"/>
<path d="M296.281 85.1797C290.79 93.8544 288.216 103.973 288.914 114.118L288.934 114.156L288.941 114.26C289.487 122.236 292.044 129.95 296.386 136.72C300.729 143.49 306.722 149.107 313.838 153.072L313.897 153.105L313.934 153.141C324.201 158.889 336.244 160.894 347.918 158.797C359.615 156.695 370.177 150.614 377.718 141.641C385.259 132.668 389.288 121.39 389.09 109.82C388.893 98.2987 384.515 87.2322 376.734 78.581L376.715 78.5823L376.552 78.4015C369.647 70.7452 360.441 65.4 350.23 63.1214C340.019 60.8428 329.319 61.7464 319.64 65.7046C309.961 69.6628 301.791 76.4753 296.281 85.1797Z" stroke="#48ABD7" stroke-opacity="0.88"/>
<path d="M301.096 124.377C301.827 135.173 306.212 145.415 313.566 153.5L313.63 153.544C324.012 159.374 336.196 161.41 348.006 159.289C359.817 157.167 370.483 151.026 378.1 141.963C385.718 132.899 389.79 121.503 389.59 109.812C389.389 98.1197 384.929 86.8931 377.007 78.1373C377.001 78.0612 377.001 78.0612 376.923 78.0666C368.978 73.6233 359.935 71.3718 350.761 71.5528C341.587 71.7339 332.627 74.3408 324.838 79.0947C317.05 83.8487 310.726 90.5709 306.543 98.5429C302.36 106.515 300.475 115.437 301.089 124.355L301.096 124.377Z" fill="#48ABD7" fill-opacity="0.57"/>
<path d="M306.986 98.7752C302.855 106.647 300.989 115.453 301.583 124.258L301.591 124.279L301.595 124.343C302.317 135.006 306.642 145.125 313.897 153.121C324.172 158.884 336.229 160.897 347.918 158.797C359.615 156.695 370.177 150.614 377.718 141.641C385.259 132.668 389.288 121.39 389.09 109.82C388.892 98.256 384.483 87.1503 376.647 78.4851C368.787 74.0973 359.844 71.8736 350.77 72.0527C341.684 72.2321 332.811 74.814 325.099 79.5215C317.387 84.229 311.126 90.8845 306.986 98.7752Z" stroke="#48ABD7" stroke-opacity="0.88"/>
<path d="M374.845 110.604C374.03 115.626 372.554 120.527 370.454 125.186C368.337 129.86 365.028 133.932 360.843 137.013C357.579 139.138 354.029 140.811 350.295 141.984" stroke="#48ABD7" stroke-opacity="0.88" stroke-width="1.412" stroke-miterlimit="10"/>
<g filter="url(#filter17_f_315_279)">
<path d="M532 268C532 292.873 512.057 313 487.5 313C462.944 313 443 292.873 443 268C443 243.127 462.944 223 487.5 223C512.057 223 532 243.127 532 268Z" stroke="white" stroke-width="4"/>
</g>
<g filter="url(#filter18_f_315_279)">
<path d="M1004 290C1004 314.873 984.057 335 959.5 335C934.943 335 915 314.873 915 290C915 265.127 934.943 245 959.5 245C984.057 245 1004 265.127 1004 290Z" stroke="white" stroke-width="4"/>
</g>
<g filter="url(#filter19_f_315_279)">
<path d="M1676 11C1676 35.873 1656.06 56 1631.5 56C1606.94 56 1587 35.873 1587 11C1587 -13.873 1606.94 -34 1631.5 -34C1656.06 -34 1676 -13.873 1676 11Z" stroke="white" stroke-width="4"/>
</g>
<g filter="url(#filter20_f_315_279)">
<path d="M98 58C98 82.873 78.0566 103 53.5 103C28.9434 103 9 82.873 9 58C9 33.127 28.9434 13 53.5 13C78.0566 13 98 33.127 98 58Z" stroke="white" stroke-width="4"/>
</g>
<defs>
<filter id="filter0_f_315_279" x="1547.79" y="150.311" width="71.5474" height="80.9969" filterUnits="userSpaceOnUse" color-interpolation-filters="sRGB">
<feFlood flood-opacity="0" result="BackgroundImageFix"/>
<feBlend mode="normal" in="SourceGraphic" in2="BackgroundImageFix" result="shape"/>
<feGaussianBlur stdDeviation="2" result="effect1_foregroundBlur_315_279"/>
</filter>
<filter id="filter1_f_315_279" x="1800.86" y="538.656" width="75.6631" height="68.2489" filterUnits="userSpaceOnUse" color-interpolation-filters="sRGB">
<feFlood flood-opacity="0" result="BackgroundImageFix"/>
<feBlend mode="normal" in="SourceGraphic" in2="BackgroundImageFix" result="shape"/>
<feGaussianBlur stdDeviation="2" result="effect1_foregroundBlur_315_279"/>
</filter>
<filter id="filter2_f_315_279" x="1578.79" y="955.311" width="71.5474" height="80.9968" filterUnits="userSpaceOnUse" color-interpolation-filters="sRGB">
<feFlood flood-opacity="0" result="BackgroundImageFix"/>
<feBlend mode="normal" in="SourceGraphic" in2="BackgroundImageFix" result="shape"/>
<feGaussianBlur stdDeviation="2" result="effect1_foregroundBlur_315_279"/>
</filter>
<filter id="filter3_f_315_279" x="1793.49" y="933.55" width="84.1499" height="82.4036" filterUnits="userSpaceOnUse" color-interpolation-filters="sRGB">
<feFlood flood-opacity="0" result="BackgroundImageFix"/>
<feBlend mode="normal" in="SourceGraphic" in2="BackgroundImageFix" result="shape"/>
<feGaussianBlur stdDeviation="2" result="effect1_foregroundBlur_315_279"/>
</filter>
<filter id="filter4_f_315_279" x="1716.42" y="73" width="102.154" height="93.9283" filterUnits="userSpaceOnUse" color-interpolation-filters="sRGB">
<feFlood flood-opacity="0" result="BackgroundImageFix"/>
<feBlend mode="normal" in="SourceGraphic" in2="BackgroundImageFix" result="shape"/>
<feGaussianBlur stdDeviation="2" result="effect1_foregroundBlur_315_279"/>
</filter>
<filter id="filter5_f_315_279" x="142.423" y="940" width="102.154" height="93.9283" filterUnits="userSpaceOnUse" color-interpolation-filters="sRGB">
<feFlood flood-opacity="0" result="BackgroundImageFix"/>
<feBlend mode="normal" in="SourceGraphic" in2="BackgroundImageFix" result="shape"/>
<feGaussianBlur stdDeviation="2" result="effect1_foregroundBlur_315_279"/>
</filter>
<filter id="filter6_f_315_279" x="1317.92" y="964.335" width="95.8374" height="100.834" filterUnits="userSpaceOnUse" color-interpolation-filters="sRGB">
<feFlood flood-opacity="0" result="BackgroundImageFix"/>
<feBlend mode="normal" in="SourceGraphic" in2="BackgroundImageFix" result="shape"/>
<feGaussianBlur stdDeviation="2" result="effect1_foregroundBlur_315_279"/>
</filter>
<filter id="filter7_f_315_279" x="621.92" y="196.335" width="95.8374" height="100.834" filterUnits="userSpaceOnUse" color-interpolation-filters="sRGB">
<feFlood flood-opacity="0" result="BackgroundImageFix"/>
<feBlend mode="normal" in="SourceGraphic" in2="BackgroundImageFix" result="shape"/>
<feGaussianBlur stdDeviation="2" result="effect1_foregroundBlur_315_279"/>
</filter>
<filter id="filter8_f_315_279" x="23.9199" y="364.335" width="95.8374" height="100.834" filterUnits="userSpaceOnUse" color-interpolation-filters="sRGB">
<feFlood flood-opacity="0" result="BackgroundImageFix"/>
<feBlend mode="normal" in="SourceGraphic" in2="BackgroundImageFix" result="shape"/>
<feGaussianBlur stdDeviation="2" result="effect1_foregroundBlur_315_279"/>
</filter>
<filter id="filter9_f_315_279" x="1788" y="184" width="101" height="102" filterUnits="userSpaceOnUse" color-interpolation-filters="sRGB">
<feFlood flood-opacity="0" result="BackgroundImageFix"/>
<feBlend mode="normal" in="SourceGraphic" in2="BackgroundImageFix" result="shape"/>
<feGaussianBlur stdDeviation="2" result="effect1_foregroundBlur_315_279"/>
</filter>
<filter id="filter10_f_315_279" x="1802" y="694" width="87" height="88" filterUnits="userSpaceOnUse" color-interpolation-filters="sRGB">
<feFlood flood-opacity="0" result="BackgroundImageFix"/>
<feBlend mode="normal" in="SourceGraphic" in2="BackgroundImageFix" result="shape"/>
<feGaussianBlur stdDeviation="2" result="effect1_foregroundBlur_315_279"/>
</filter>
<filter id="filter11_f_315_279" x="1465" y="1001" width="87" height="88" filterUnits="userSpaceOnUse" color-interpolation-filters="sRGB">
<feFlood flood-opacity="0" result="BackgroundImageFix"/>
<feBlend mode="normal" in="SourceGraphic" in2="BackgroundImageFix" result="shape"/>
<feGaussianBlur stdDeviation="2" result="effect1_foregroundBlur_315_279"/>
</filter>
<filter id="filter12_f_315_279" x="1169" y="647" width="101" height="102" filterUnits="userSpaceOnUse" color-interpolation-filters="sRGB">
<feFlood flood-opacity="0" result="BackgroundImageFix"/>
<feBlend mode="normal" in="SourceGraphic" in2="BackgroundImageFix" result="shape"/>
<feGaussianBlur stdDeviation="2" result="effect1_foregroundBlur_315_279"/>
</filter>
<filter id="filter13_f_315_279" x="633" y="912" width="124" height="125" filterUnits="userSpaceOnUse" color-interpolation-filters="sRGB">
<feFlood flood-opacity="0" result="BackgroundImageFix"/>
<feBlend mode="normal" in="SourceGraphic" in2="BackgroundImageFix" result="shape"/>
<feGaussianBlur stdDeviation="2" result="effect1_foregroundBlur_315_279"/>
</filter>
<filter id="filter14_f_315_279" x="35" y="897" width="73" height="74" filterUnits="userSpaceOnUse" color-interpolation-filters="sRGB">
<feFlood flood-opacity="0" result="BackgroundImageFix"/>
<feBlend mode="normal" in="SourceGraphic" in2="BackgroundImageFix" result="shape"/>
<feGaussianBlur stdDeviation="2" result="effect1_foregroundBlur_315_279"/>
</filter>
<filter id="filter15_f_315_279" x="64" y="495" width="101" height="102" filterUnits="userSpaceOnUse" color-interpolation-filters="sRGB">
<feFlood flood-opacity="0" result="BackgroundImageFix"/>
<feBlend mode="normal" in="SourceGraphic" in2="BackgroundImageFix" result="shape"/>
<feGaussianBlur stdDeviation="2" result="effect1_foregroundBlur_315_279"/>
</filter>
<filter id="filter16_f_315_279" x="1433" y="228" width="72" height="66" filterUnits="userSpaceOnUse" color-interpolation-filters="sRGB">
<feFlood flood-opacity="0" result="BackgroundImageFix"/>
<feBlend mode="normal" in="SourceGraphic" in2="BackgroundImageFix" result="shape"/>
<feGaussianBlur stdDeviation="2" result="effect1_foregroundBlur_315_279"/>
</filter>
<filter id="filter17_f_315_279" x="437" y="217" width="101" height="102" filterUnits="userSpaceOnUse" color-interpolation-filters="sRGB">
<feFlood flood-opacity="0" result="BackgroundImageFix"/>
<feBlend mode="normal" in="SourceGraphic" in2="BackgroundImageFix" result="shape"/>
<feGaussianBlur stdDeviation="2" result="effect1_foregroundBlur_315_279"/>
</filter>
<filter id="filter18_f_315_279" x="909" y="239" width="101" height="102" filterUnits="userSpaceOnUse" color-interpolation-filters="sRGB">
<feFlood flood-opacity="0" result="BackgroundImageFix"/>
<feBlend mode="normal" in="SourceGraphic" in2="BackgroundImageFix" result="shape"/>
<feGaussianBlur stdDeviation="2" result="effect1_foregroundBlur_315_279"/>
</filter>
<filter id="filter19_f_315_279" x="1581" y="-40" width="101" height="102" filterUnits="userSpaceOnUse" color-interpolation-filters="sRGB">
<feFlood flood-opacity="0" result="BackgroundImageFix"/>
<feBlend mode="normal" in="SourceGraphic" in2="BackgroundImageFix" result="shape"/>
<feGaussianBlur stdDeviation="2" result="effect1_foregroundBlur_315_279"/>
</filter>
<filter id="filter20_f_315_279" x="3" y="7" width="101" height="102" filterUnits="userSpaceOnUse" color-interpolation-filters="sRGB">
<feFlood flood-opacity="0" result="BackgroundImageFix"/>
<feBlend mode="normal" in="SourceGraphic" in2="BackgroundImageFix" result="shape"/>
<feGaussianBlur stdDeviation="2" result="effect1_foregroundBlur_315_279"/>
</filter>
</defs>
</svg>
