<svg width="467" height="622" viewBox="0 0 467 622" fill="none" xmlns="http://www.w3.org/2000/svg">
<rect x="0.685059" width="466.301" height="621.693" rx="35" fill="#FFF6E9"/>
<rect x="3.51123" y="2.43805" width="460.649" height="616.817" rx="200" fill="white" fill-opacity="0.59"/>
<path d="M41.3639 119.808C41.3639 119.808 42.239 115.179 43.9302 113.72C45.6214 112.261 48.597 111.506 50.9875 111.506C53.378 111.506 56.3536 112.261 58.0448 113.72C59.736 115.179 60.6111 117.746 60.6111 119.808C60.6111 121.871 59.3279 124.79 58.0448 125.897C56.7616 127.004 55.4785 127.557 54.1953 128.664C52.9122 129.771 52.2706 129.771 50.9875 130.878L47.7796 133.645C46.4965 134.752 44.5717 136.966 43.2886 139.18C42.0055 141.394 41.3639 144.715 41.3639 144.715C41.3639 144.715 40.7223 141.394 39.4392 139.18C38.156 136.966 36.2313 134.752 34.9482 133.645L31.7403 130.878C30.4571 129.771 29.8156 129.771 28.5324 128.664C27.2493 127.557 25.9661 127.004 24.683 125.897C23.3998 124.79 22.1167 121.871 22.1167 119.808C22.1167 117.746 22.9918 115.179 24.683 113.72C26.3742 112.261 29.3498 111.506 31.7403 111.506C34.1308 111.506 37.1064 112.261 38.7976 113.72C40.4888 115.179 41.3639 119.808 41.3639 119.808Z" fill="#279B61"/>
<path d="M426.307 501.707C426.307 501.707 427.182 506.336 428.874 507.795C430.565 509.254 433.54 510.009 435.931 510.009C438.321 510.009 441.297 509.254 442.988 507.795C444.679 506.336 445.554 503.769 445.554 501.707C445.554 499.645 444.271 496.726 442.988 495.619C441.705 494.512 440.422 493.958 439.139 492.851C437.856 491.745 437.214 491.745 435.931 490.638L432.723 487.87C431.44 486.763 429.515 484.549 428.232 482.335C426.949 480.122 426.307 476.801 426.307 476.801C426.307 476.801 425.666 480.122 424.383 482.335C423.099 484.549 421.175 486.763 419.892 487.87L416.684 490.638C415.401 491.745 414.759 491.745 413.476 492.851C412.193 493.958 410.909 494.512 409.626 495.619C408.343 496.726 407.06 499.645 407.06 501.707C407.06 503.769 407.935 506.336 409.626 507.795C411.318 509.254 414.293 510.009 416.684 510.009C419.074 510.009 422.05 509.254 423.741 507.795C425.432 506.336 426.307 501.707 426.307 501.707Z" fill="#279B61"/>
<path d="M61.0055 100.351H55.7175L52.0585 86.8089H35.919L32.26 100.351H27.2227L40.806 51.7634H47.4222L61.0055 100.351ZM50.5298 81.2617L43.9888 57.4086L37.4227 81.2617H50.5298V81.2617Z" fill="#279B61"/>
<path d="M442.822 519.762H437.534L433.875 533.304H417.735L414.076 519.762H409.039L422.622 568.35H429.239L442.822 519.762ZM432.346 538.851L425.805 562.705L419.239 538.851H432.346V538.851Z" fill="#279B61"/>
<mask id="path-7-outside-1_333_281" maskUnits="userSpaceOnUse" x="120" y="106" width="328" height="440" fill="black">
<rect fill="white" x="120" y="106" width="328" height="440"/>
<path d="M178.668 126.943L176.937 125.192L175.64 118.628L176.937 111.626V109L173.477 111.626L171.314 113.814L168.286 120.378L165.258 126.067V134.82L163.96 146.636L159.634 144.885L156.606 141.822L154.876 145.761L153.146 150.574V158.452V161.515L151.415 162.39V165.891H154.876L157.904 168.955L159.634 170.705L157.904 176.394L156.606 183.834V191.274V196.963V204.84V208.779L157.904 212.717L160.499 219.282L163.96 222.345V224.971V227.597L163.095 231.098L166.555 233.286V235.911V237.662L163.095 241.163L159.634 243.789L157.904 246.852L155.741 252.979L156.606 256.918V262.607V269.171L154.443 274.86L151.848 283.613L150.983 288.864V291.928V294.553L153.146 296.741L155.741 300.242L156.606 303.743V311.183V319.498L155.741 329.126L154.011 340.066V344.88V354.946L154.876 362.385V369.387L156.606 375.952L159.634 382.954V387.33L157.904 390.393V395.645L157.471 400.021L156.606 407.898L155.741 414.463L151.415 430.217L147.955 442.908L143.196 454.287L139.303 466.103L136.275 477.481L131.949 484.921L131.517 487.109V488.422L135.41 489.734L137.573 491.047L138.438 493.235L135.41 495.206L131.084 497.612L122 505.489L124.595 506.802L131.517 505.927L144.061 501.988L152.28 498.925L157.471 497.612L160.932 499.362L163.527 500.675L166.988 501.55L171.314 498.925L173.909 500.237L176.505 501.988L174.342 510.303L173.909 516.867V519.055L178.668 520.368L187.752 522.556L194.24 523.432L198.566 525.182L194.24 529.121L190.347 536.56L188.184 541.812L189.049 544L193.375 543.125L204.19 536.998L215.437 526.933L216.734 526.057H226.684H243.121L251.34 523.432L253.936 517.742L252.638 509.865L249.61 496.299L244.852 471.792L242.256 447.285L240.093 431.968L238.796 414.463L237.065 399.584L234.903 394.332L234.037 391.269L234.903 382.954L240.093 372.888L242.689 365.449L243.987 357.134L244.419 347.068L246.15 336.128L248.745 325.625L249.61 318.623L250.908 306.807L251.773 304.619L256.531 303.306V298.054L251.773 286.676L246.582 275.735L238.796 266.545L230.577 257.793L223.223 252.979L218.897 251.228L217.167 249.04L237.498 240.725L255.234 235.036L283.784 224.971L317.957 214.468L350.833 200.026L363.81 192.587L372.895 183.396L379.816 174.206L389.765 165.016L410.961 151.887L426.967 141.822L442.539 130.444L446 126.067L442.972 125.63L435.618 128.693L413.557 135.695L394.956 140.947H389.765L388.467 138.321L392.36 130.444L396.254 123.004V119.503H394.956L385.439 128.693L371.597 140.509L359.485 147.511L347.805 154.075L340.451 160.64L332.665 168.517L321.85 180.333L314.497 187.773L302.817 194.337L289.84 200.026L280.323 205.278L268.644 210.967L257.397 215.781L245.284 220.595L237.498 224.096L228.846 225.846L222.79 227.597H218.465L217.599 224.971L216.302 221.907L214.571 220.595V218.406L222.79 213.593L228.414 207.028L230.144 202.214L230.577 196.088L234.903 193.024L237.498 187.773L239.228 183.834L243.554 185.147L245.284 181.646V174.644V172.018H251.34L256.099 170.268V166.767L250.043 161.953L247.447 158.014V154.951L252.638 151.012L250.043 146.636L245.284 143.135L240.959 142.26L239.661 139.634L240.959 135.258L241.824 132.632L234.903 132.194L230.144 131.757L230.577 124.317V120.816L225.386 121.254L220.628 123.442L215.437 124.317L212.841 122.566L213.274 118.19L214.571 116.002L210.678 115.127L205.92 117.315L198.999 123.442L196.403 125.192L195.105 121.254L193.808 117.315L194.24 112.939L193.808 111.626L187.752 116.002L185.589 122.129L182.561 126.943H178.668Z"/>
</mask>
<path d="M178.668 126.943L176.937 125.192L175.64 118.628L176.937 111.626V109L173.477 111.626L171.314 113.814L168.286 120.378L165.258 126.067V134.82L163.96 146.636L159.634 144.885L156.606 141.822L154.876 145.761L153.146 150.574V158.452V161.515L151.415 162.39V165.891H154.876L157.904 168.955L159.634 170.705L157.904 176.394L156.606 183.834V191.274V196.963V204.84V208.779L157.904 212.717L160.499 219.282L163.96 222.345V224.971V227.597L163.095 231.098L166.555 233.286V235.911V237.662L163.095 241.163L159.634 243.789L157.904 246.852L155.741 252.979L156.606 256.918V262.607V269.171L154.443 274.86L151.848 283.613L150.983 288.864V291.928V294.553L153.146 296.741L155.741 300.242L156.606 303.743V311.183V319.498L155.741 329.126L154.011 340.066V344.88V354.946L154.876 362.385V369.387L156.606 375.952L159.634 382.954V387.33L157.904 390.393V395.645L157.471 400.021L156.606 407.898L155.741 414.463L151.415 430.217L147.955 442.908L143.196 454.287L139.303 466.103L136.275 477.481L131.949 484.921L131.517 487.109V488.422L135.41 489.734L137.573 491.047L138.438 493.235L135.41 495.206L131.084 497.612L122 505.489L124.595 506.802L131.517 505.927L144.061 501.988L152.28 498.925L157.471 497.612L160.932 499.362L163.527 500.675L166.988 501.55L171.314 498.925L173.909 500.237L176.505 501.988L174.342 510.303L173.909 516.867V519.055L178.668 520.368L187.752 522.556L194.24 523.432L198.566 525.182L194.24 529.121L190.347 536.56L188.184 541.812L189.049 544L193.375 543.125L204.19 536.998L215.437 526.933L216.734 526.057H226.684H243.121L251.34 523.432L253.936 517.742L252.638 509.865L249.61 496.299L244.852 471.792L242.256 447.285L240.093 431.968L238.796 414.463L237.065 399.584L234.903 394.332L234.037 391.269L234.903 382.954L240.093 372.888L242.689 365.449L243.987 357.134L244.419 347.068L246.15 336.128L248.745 325.625L249.61 318.623L250.908 306.807L251.773 304.619L256.531 303.306V298.054L251.773 286.676L246.582 275.735L238.796 266.545L230.577 257.793L223.223 252.979L218.897 251.228L217.167 249.04L237.498 240.725L255.234 235.036L283.784 224.971L317.957 214.468L350.833 200.026L363.81 192.587L372.895 183.396L379.816 174.206L389.765 165.016L410.961 151.887L426.967 141.822L442.539 130.444L446 126.067L442.972 125.63L435.618 128.693L413.557 135.695L394.956 140.947H389.765L388.467 138.321L392.36 130.444L396.254 123.004V119.503H394.956L385.439 128.693L371.597 140.509L359.485 147.511L347.805 154.075L340.451 160.64L332.665 168.517L321.85 180.333L314.497 187.773L302.817 194.337L289.84 200.026L280.323 205.278L268.644 210.967L257.397 215.781L245.284 220.595L237.498 224.096L228.846 225.846L222.79 227.597H218.465L217.599 224.971L216.302 221.907L214.571 220.595V218.406L222.79 213.593L228.414 207.028L230.144 202.214L230.577 196.088L234.903 193.024L237.498 187.773L239.228 183.834L243.554 185.147L245.284 181.646V174.644V172.018H251.34L256.099 170.268V166.767L250.043 161.953L247.447 158.014V154.951L252.638 151.012L250.043 146.636L245.284 143.135L240.959 142.26L239.661 139.634L240.959 135.258L241.824 132.632L234.903 132.194L230.144 131.757L230.577 124.317V120.816L225.386 121.254L220.628 123.442L215.437 124.317L212.841 122.566L213.274 118.19L214.571 116.002L210.678 115.127L205.92 117.315L198.999 123.442L196.403 125.192L195.105 121.254L193.808 117.315L194.24 112.939L193.808 111.626L187.752 116.002L185.589 122.129L182.561 126.943H178.668Z" fill="#279B61"/>
<path d="M178.668 126.943L176.937 125.192L175.64 118.628L176.937 111.626V109L173.477 111.626L171.314 113.814L168.286 120.378L165.258 126.067V134.82L163.96 146.636L159.634 144.885L156.606 141.822L154.876 145.761L153.146 150.574V158.452V161.515L151.415 162.39V165.891H154.876L157.904 168.955L159.634 170.705L157.904 176.394L156.606 183.834V191.274V196.963V204.84V208.779L157.904 212.717L160.499 219.282L163.96 222.345V224.971V227.597L163.095 231.098L166.555 233.286V235.911V237.662L163.095 241.163L159.634 243.789L157.904 246.852L155.741 252.979L156.606 256.918V262.607V269.171L154.443 274.86L151.848 283.613L150.983 288.864V291.928V294.553L153.146 296.741L155.741 300.242L156.606 303.743V311.183V319.498L155.741 329.126L154.011 340.066V344.88V354.946L154.876 362.385V369.387L156.606 375.952L159.634 382.954V387.33L157.904 390.393V395.645L157.471 400.021L156.606 407.898L155.741 414.463L151.415 430.217L147.955 442.908L143.196 454.287L139.303 466.103L136.275 477.481L131.949 484.921L131.517 487.109V488.422L135.41 489.734L137.573 491.047L138.438 493.235L135.41 495.206L131.084 497.612L122 505.489L124.595 506.802L131.517 505.927L144.061 501.988L152.28 498.925L157.471 497.612L160.932 499.362L163.527 500.675L166.988 501.55L171.314 498.925L173.909 500.237L176.505 501.988L174.342 510.303L173.909 516.867V519.055L178.668 520.368L187.752 522.556L194.24 523.432L198.566 525.182L194.24 529.121L190.347 536.56L188.184 541.812L189.049 544L193.375 543.125L204.19 536.998L215.437 526.933L216.734 526.057H226.684H243.121L251.34 523.432L253.936 517.742L252.638 509.865L249.61 496.299L244.852 471.792L242.256 447.285L240.093 431.968L238.796 414.463L237.065 399.584L234.903 394.332L234.037 391.269L234.903 382.954L240.093 372.888L242.689 365.449L243.987 357.134L244.419 347.068L246.15 336.128L248.745 325.625L249.61 318.623L250.908 306.807L251.773 304.619L256.531 303.306V298.054L251.773 286.676L246.582 275.735L238.796 266.545L230.577 257.793L223.223 252.979L218.897 251.228L217.167 249.04L237.498 240.725L255.234 235.036L283.784 224.971L317.957 214.468L350.833 200.026L363.81 192.587L372.895 183.396L379.816 174.206L389.765 165.016L410.961 151.887L426.967 141.822L442.539 130.444L446 126.067L442.972 125.63L435.618 128.693L413.557 135.695L394.956 140.947H389.765L388.467 138.321L392.36 130.444L396.254 123.004V119.503H394.956L385.439 128.693L371.597 140.509L359.485 147.511L347.805 154.075L340.451 160.64L332.665 168.517L321.85 180.333L314.497 187.773L302.817 194.337L289.84 200.026L280.323 205.278L268.644 210.967L257.397 215.781L245.284 220.595L237.498 224.096L228.846 225.846L222.79 227.597H218.465L217.599 224.971L216.302 221.907L214.571 220.595V218.406L222.79 213.593L228.414 207.028L230.144 202.214L230.577 196.088L234.903 193.024L237.498 187.773L239.228 183.834L243.554 185.147L245.284 181.646V174.644V172.018H251.34L256.099 170.268V166.767L250.043 161.953L247.447 158.014V154.951L252.638 151.012L250.043 146.636L245.284 143.135L240.959 142.26L239.661 139.634L240.959 135.258L241.824 132.632L234.903 132.194L230.144 131.757L230.577 124.317V120.816L225.386 121.254L220.628 123.442L215.437 124.317L212.841 122.566L213.274 118.19L214.571 116.002L210.678 115.127L205.92 117.315L198.999 123.442L196.403 125.192L195.105 121.254L193.808 117.315L194.24 112.939L193.808 111.626L187.752 116.002L185.589 122.129L182.561 126.943H178.668Z" stroke="#279B61" stroke-width="2" mask="url(#path-7-outside-1_333_281)"/>
</svg>
