<svg width="1918" height="1080" viewBox="0 0 1918 1080" fill="none" xmlns="http://www.w3.org/2000/svg">
<rect x="286" y="167" width="1354" height="756" rx="30" fill="white"/>
<path d="M6 0L5 516.098" stroke="white" stroke-width="8" stroke-linecap="square"/>
<rect x="202.5" y="108.5" width="1513" height="863" stroke="#FFF6E9" stroke-width="7"/>
<path d="M84.1304 531L83.2463 970.098" stroke="white" stroke-width="8" stroke-linecap="square"/>
<path d="M83.8354 677.416L-32.0001 677" stroke="white" stroke-width="8" stroke-linecap="square"/>
<path d="M692 105L692.837 -93" stroke="white" stroke-width="8" stroke-linecap="square"/>
<path d="M692.279 38.9774L802 39.165" stroke="white" stroke-width="8" stroke-linecap="square"/>
<path d="M1283 104V49" stroke="white" stroke-width="8" stroke-linecap="square"/>
<path d="M82 1081.83L82.9159 966" stroke="white" stroke-width="8" stroke-linecap="square"/>
<path d="M199.082 970.514L83.2465 970.078" stroke="white" stroke-width="8" stroke-linecap="square"/>
<path d="M-262 523H199.1" stroke="#FFF6E9" stroke-width="8" stroke-linecap="square"/>
<path d="M346.7 1027.93H491.7" stroke="#FFF6E9" stroke-width="8" stroke-linecap="square"/>
<path d="M5 222L141 222" stroke="#FFF6E9" stroke-width="8" stroke-linecap="square"/>
<path d="M1798.13 556.833L1797.25 117.735" stroke="white" stroke-width="8" stroke-linecap="square"/>
<path d="M1797.84 410.417L1720 410" stroke="white" stroke-width="8" stroke-linecap="square"/>
<path d="M1796 6L1796.92 121.833" stroke="white" stroke-width="8" stroke-linecap="square"/>
<path d="M1913.08 117.318L1797.25 117.755" stroke="white" stroke-width="8" stroke-linecap="square"/>
<path d="M1723 564L1913.1 564.833" stroke="#FFF6E9" stroke-width="8" stroke-linecap="square"/>
<path d="M1719 865.833H1855" stroke="#FFF6E9" stroke-width="8" stroke-linecap="square"/>
<path d="M1003 49L1712 49" stroke="#FFF6E9" stroke-width="8" stroke-linecap="square"/>
<path d="M1351 975V1030" stroke="white" stroke-width="8" stroke-linecap="square"/>
<path d="M1631 1030L922 1030" stroke="#FFF6E9" stroke-width="8" stroke-linecap="square"/>
<path d="M203 -31L203 105" stroke="#FFF6E9" stroke-width="8" stroke-linecap="square"/>
<path d="M346.7 974.933V1081.93" stroke="#FFF6E9" stroke-width="8" stroke-linecap="square"/>
<path d="M1720 1087.83L1719 571.735" stroke="white" stroke-width="8" stroke-linecap="square"/>
</svg>
