<svg width="239" height="216" viewBox="0 0 239 216" fill="none" xmlns="http://www.w3.org/2000/svg">
<path d="M33.3362 115.131L33.3359 115.131C32.3409 114.129 31.3628 113.151 30.4026 112.19C22.2369 104.02 15.364 97.1435 10.3341 88.743C4.75664 79.4279 1.42 68.172 1.42 51.1475C1.42 23.3992 27.6662 1.42 58.5527 1.42C89.3338 1.42 114.319 23.6096 116.228 51.1963V210.332C115.95 209.895 115.652 209.429 115.336 208.935C113.13 205.489 110.026 200.693 106.433 195.29C99.2551 184.494 90.1005 171.236 82.2537 161.489C74.369 151.692 66.7431 144.75 58.7918 137.933C57.3416 136.69 55.882 135.452 54.4085 134.202C47.7972 128.595 40.907 122.751 33.3362 115.131Z" fill="white" stroke="#23342B" stroke-width="2.84"/>
<path d="M205.32 115.131L205.321 115.131C206.316 114.129 207.294 113.151 208.254 112.19C216.42 104.02 223.292 97.1435 228.322 88.743C233.9 79.4279 237.236 68.172 237.236 51.1475C237.236 23.3992 210.99 1.42 180.104 1.42C149.324 1.42 124.338 23.6096 122.43 51.1963V210.332C122.708 209.895 123.006 209.429 123.322 208.935C125.528 205.489 128.632 200.693 132.224 195.29C139.402 184.494 148.557 171.236 156.403 161.489C164.288 151.692 171.914 144.75 179.865 137.933C181.315 136.69 182.775 135.452 184.248 134.202C190.86 128.595 197.75 122.751 205.32 115.131Z" fill="white" stroke="#23342B" stroke-width="2.84"/>
</svg>
