<svg width="239" height="216" viewBox="0 0 239 216" fill="none" xmlns="http://www.w3.org/2000/svg">
<path d="M81.1476 162.38C96.7557 181.767 117.648 215.233 117.648 215.233V51.1475C115.708 22.7054 90.0065 0 58.5527 0C27.0922 0 0 22.4201 0 51.1475C0 85.6118 13.5325 97.2218 32.3288 116.132C50.9487 134.874 65.5394 142.986 81.1476 162.38Z" fill="#23342B"/>
<path d="M157.51 162.38C141.902 181.767 121.01 215.233 121.01 215.233V51.1475C122.95 22.7054 148.651 1.90735e-05 180.104 1.90735e-05C211.564 1.90735e-05 238.656 22.4201 238.656 51.1475C238.656 85.6118 225.124 97.2218 206.328 116.132C187.708 134.874 173.118 142.986 157.51 162.38Z" fill="#23342B"/>
</svg>
