<svg width="239" height="216" viewBox="0 0 239 216" fill="none" xmlns="http://www.w3.org/2000/svg">
<path d="M205.32 115.131L205.32 115.131C206.315 114.129 207.293 113.151 208.254 112.19C216.419 104.02 223.292 97.1435 228.322 88.743C233.9 79.4279 237.236 68.172 237.236 51.1475C237.236 23.3992 210.99 1.42 180.104 1.42C149.322 1.42 124.337 23.6096 122.428 51.1963V210.332C122.706 209.895 123.004 209.429 123.321 208.935C125.526 205.489 128.63 200.693 132.223 195.29C139.401 184.494 148.556 171.236 156.403 161.489C164.287 151.692 171.913 144.75 179.864 137.933C181.315 136.69 182.774 135.452 184.248 134.202C190.859 128.595 197.749 122.751 205.32 115.131Z" fill="white" stroke="#EA83AA" stroke-width="2.84"/>
<path d="M33.3358 115.131L33.3355 115.131C32.3405 114.129 31.3625 113.151 30.4023 112.19C22.2367 104.02 15.3638 97.1435 10.334 88.743C4.7566 79.4279 1.42 68.172 1.42 51.1475C1.42 23.3992 27.6659 1.42 58.552 1.42C89.3327 1.42 114.318 23.6096 116.227 51.1963V210.332C115.948 209.895 115.651 209.429 115.334 208.935C113.129 205.489 110.025 200.693 106.432 195.29C99.254 184.494 90.0996 171.236 82.2529 161.489C74.3683 151.692 66.7424 144.75 58.7911 137.933C57.341 136.69 55.8814 135.452 54.4079 134.202C47.7967 128.595 40.9066 122.751 33.3358 115.131Z" fill="white" stroke="#EA83AA" stroke-width="2.84"/>
</svg>
