<svg width="228" height="216" viewBox="0 0 228 216" fill="none" xmlns="http://www.w3.org/2000/svg">
<path d="M117.26 5.44065L117.258 214.58H162.631C160.881 213.808 158.906 212.855 156.794 211.697C149.266 207.57 139.951 200.814 132.927 190.315C129.597 185.347 126.956 179.622 124.666 173.75L127.095 172.345C136.96 184.633 153.349 192.811 172.018 192.811C201.481 192.811 226.288 173.03 226.288 148.305C226.288 133.044 223.115 122.959 217.823 114.612C213.047 107.08 206.527 100.91 198.773 93.5734C197.853 92.7028 196.916 91.8157 195.962 90.908L195.962 90.9076C188.78 84.0684 182.241 78.8207 175.968 73.7855C174.557 72.6537 173.161 71.5327 171.773 70.4068C164.219 64.2774 156.976 58.0336 149.505 49.2274C142.032 40.467 133.315 28.5376 126.481 18.8236C123.061 13.961 120.105 9.64399 118.005 6.54233C117.743 6.15582 117.495 5.78816 117.26 5.44065Z" fill="#EA83AA" stroke="white" stroke-width="2.83939"/>
<path d="M111.054 5.44071L111.056 214.58H65.6835C67.4338 213.808 69.409 212.855 71.5206 211.697C79.0483 207.57 88.3634 200.814 95.3879 190.315C98.7169 185.347 101.358 179.622 103.649 173.75L101.219 172.345C91.354 184.633 74.9652 192.811 56.2968 192.811C26.8341 192.811 2.02712 173.03 2.02712 148.305C2.02712 133.043 5.20044 122.959 10.4926 114.612C15.2679 107.08 21.7885 100.91 29.5416 93.5734C30.4617 92.7028 31.3992 91.8157 32.3531 90.908L32.3535 90.9076C39.5351 84.0684 46.0736 78.8207 52.3473 73.7855C53.7574 72.6538 55.1542 71.5327 56.5419 70.4068C64.0959 64.2775 71.3385 58.0339 78.8094 49.2281C86.2824 40.4676 94.9996 28.5379 101.833 18.8236C105.254 13.961 108.209 9.64399 110.309 6.54234C110.571 6.15584 110.819 5.7882 111.054 5.44071Z" fill="#EA83AA" stroke="white" stroke-width="2.83939"/>
</svg>
