<svg width="228" height="216" viewBox="0 0 228 216" fill="none" xmlns="http://www.w3.org/2000/svg">
<path d="M162.632 214.58C160.882 213.808 158.907 212.855 156.795 211.697C149.267 207.57 139.952 200.814 132.927 190.315C129.598 185.347 126.957 179.622 124.667 173.75L127.096 172.345C136.961 184.633 153.35 192.811 172.019 192.811C201.482 192.811 226.289 173.03 226.289 148.305C226.289 133.044 223.116 122.959 217.824 114.612C213.048 107.08 206.528 100.91 198.774 93.5734C197.854 92.7028 196.917 91.8157 195.963 90.908L195.963 90.9076C188.781 84.0684 182.242 78.8207 175.969 73.7855C174.558 72.6537 173.162 71.5327 171.774 70.4068C164.22 64.2774 156.977 58.0336 149.506 49.2274C142.033 40.467 133.316 28.5376 126.482 18.8236C123.062 13.961 120.106 9.64399 118.006 6.54233C117.744 6.15582 117.496 5.78816 117.261 5.44065L117.259 214.58H162.632Z" stroke="#EA83AA" stroke-width="2.83939"/>
<path d="M65.6854 214.58C67.4358 213.808 69.4109 212.855 71.5226 211.697C79.0503 207.57 88.3654 200.814 95.3898 190.315C98.7189 185.347 101.36 179.622 103.651 173.75L101.221 172.345C91.356 184.633 74.9671 192.811 56.2987 192.811C26.836 192.811 2.02907 173.03 2.02907 148.305C2.02907 133.043 5.2024 122.959 10.4946 114.612C15.2698 107.08 21.7904 100.91 29.5436 93.5734C30.4637 92.7028 31.4011 91.8157 32.3551 90.908L32.3555 90.9076C39.5371 84.0684 46.0756 78.8207 52.3492 73.7855C53.7594 72.6537 55.1561 71.5327 56.5438 70.4068C64.0979 64.2775 71.3404 58.0339 78.8114 49.2281C86.2843 40.4676 95.0015 28.5379 101.835 18.8236C105.256 13.961 108.211 9.64398 110.311 6.54233C110.573 6.15583 110.821 5.78819 111.056 5.4407L111.058 214.58H65.6854Z" stroke="#EA83AA" stroke-width="2.83939"/>
</svg>
