<svg width="228" height="216" viewBox="0 0 228 216" fill="none" xmlns="http://www.w3.org/2000/svg">
<path d="M110.435 1.43662C110.434 12.1913 110.433 47.4874 110.432 86.6659L110.431 103.65C110.429 149.828 110.427 197.25 110.427 213.813H95.3713C96.6729 211.952 97.8981 209.544 99.0419 206.808C100.822 202.549 102.486 197.293 103.95 191.577C106.878 180.147 109.043 166.751 109.74 155.561L106.973 155.034C100.356 175.368 81.3851 188.462 56.8099 188.462C26.0455 188.462 1.4197 166.134 1.4197 138.971C1.4197 111.738 26.0442 89.4788 56.8099 89.4788C62.8217 89.4788 68.5987 90.3037 73.9922 91.8797L75.3111 89.4363C64.3877 80.1289 57.5387 66.8175 57.5387 52.0348C57.5387 24.6271 81.0022 2.13928 110.435 1.43662Z" fill="#FEFEFE" stroke="#EA83AA" stroke-width="2.83939"/>
<path d="M116.636 1.43662C116.636 12.1913 116.638 47.4874 116.639 86.6659L116.64 103.65C116.642 149.828 116.643 197.25 116.643 213.813H131.699C130.397 211.952 129.172 209.544 128.029 206.808C126.248 202.549 124.585 197.293 123.121 191.577C120.192 180.147 118.028 166.751 117.331 155.561L120.098 155.034C126.715 175.368 145.685 188.462 170.26 188.462C201.024 188.462 225.65 166.134 225.65 138.971C225.65 111.738 201.025 89.4788 170.26 89.4788C164.248 89.4788 158.471 90.3037 153.078 91.8797L151.759 89.4363C162.682 80.1289 169.531 66.8175 169.531 52.0348C169.531 24.627 146.068 2.13928 116.636 1.43662Z" fill="#FEFEFE" stroke="#EA83AA" stroke-width="2.83939"/>
</svg>
