<svg width="239" height="216" viewBox="0 0 239 216" fill="none" xmlns="http://www.w3.org/2000/svg">
<path d="M157.51 162.38C141.901 181.767 121.009 215.233 121.009 215.233V51.1475C122.949 22.7054 148.651 0 180.105 0C211.565 0 238.657 22.4201 238.657 51.1475C238.657 85.6118 225.125 97.2218 206.328 116.132C187.709 134.874 173.118 142.986 157.51 162.38Z" fill="#EA83AA"/>
<path d="M81.1471 162.38C96.7551 181.767 117.647 215.233 117.647 215.233V51.1475C115.707 22.7054 90.0059 0 58.5525 0C27.0923 0 0.000488281 22.4201 0.000488281 51.1475C0.000488281 85.6118 13.5328 97.2218 32.3289 116.132C50.9486 134.874 65.5391 142.986 81.1471 162.38Z" fill="#EA83AA"/>
</svg>
