<svg width="228" height="216" viewBox="0 0 228 216" fill="none" xmlns="http://www.w3.org/2000/svg">
<path d="M111.366 2.20423C111.366 12.9589 111.365 48.255 111.363 87.4335L111.363 104.418C111.361 150.595 111.359 198.018 111.359 214.58H96.303C97.6045 212.719 98.8298 210.312 99.9735 207.576C101.754 203.317 103.417 198.061 104.882 192.345C107.81 180.915 109.975 167.519 110.671 156.329L107.905 155.801C101.288 176.135 82.3167 189.23 57.7415 189.23C26.9772 189.23 2.35134 166.902 2.35134 139.738C2.35134 112.506 26.9758 90.2464 57.7415 90.2464C63.7533 90.2464 69.5303 91.0713 74.9238 92.6473L76.2427 90.204C65.3193 80.8965 58.4703 67.5851 58.4703 52.8025C58.4703 25.3947 81.9339 2.90689 111.366 2.20423Z" fill="#FFF600" stroke="white" stroke-width="2.83939"/>
<path d="M117.567 2.20417C117.567 12.9588 117.568 48.255 117.57 87.4334L117.57 104.418C117.572 150.595 117.574 198.018 117.574 214.58H132.63C131.328 212.719 130.103 210.312 128.959 207.576C127.179 203.317 125.515 198.06 124.051 192.345C121.123 180.915 118.958 167.519 118.261 156.329L121.028 155.801C127.645 176.135 146.616 189.23 171.191 189.23C201.955 189.23 226.58 166.902 226.58 139.738C226.58 112.506 201.956 90.2464 171.191 90.2464C165.179 90.2464 159.402 91.0713 154.009 92.6472L152.69 90.2039C163.613 80.8965 170.462 67.5851 170.462 52.8024C170.462 25.3946 146.999 2.90683 117.567 2.20417Z" fill="#FFF600" stroke="white" stroke-width="2.83939"/>
</svg>
