<svg width="65" height="65" viewBox="0 0 65 65" fill="none" xmlns="http://www.w3.org/2000/svg">
<path d="M2.36568 34.2196C2.07066 29.2806 2.99859 24.3452 5.06709 19.8505C7.13559 15.3559 10.2808 11.4409 14.2241 8.45248L14.2428 8.42798C19.9362 4.08381 26.9886 1.90528 34.1402 2.28152C41.2917 2.65775 48.0767 5.56426 53.2828 10.4818C58.489 15.3994 61.7772 22.0077 62.5602 29.1262C63.3432 36.2448 61.57 43.4098 57.5572 49.3414C57.5599 49.388 57.5599 49.388 57.5133 49.3908C53.9823 54.6287 48.8968 58.6266 42.9733 60.8213C37.0499 63.0159 30.5872 63.2965 24.4958 61.6237C18.4044 59.9508 12.9915 56.4088 9.01971 51.4967C5.04797 46.5847 2.71763 40.5501 2.35709 34.2435L2.36568 34.2196Z" fill="#61901A"/>
<path d="M9.07571 27.1166C8.67565 20.5012 10.4807 13.9399 14.2081 8.46002L14.2429 8.42788C19.9363 4.08372 26.9887 1.90519 34.1403 2.28142C41.2919 2.65765 48.0768 5.56416 53.2829 10.4817C58.4891 15.3993 61.7773 22.0076 62.5604 29.1261C63.3434 36.2447 61.5701 43.4097 57.5573 49.3413C57.5601 49.388 57.56 49.388 57.5134 49.3907C53.1548 52.7042 47.9776 54.7709 42.5354 55.3698C37.0932 55.9688 31.5905 55.0776 26.6156 52.7913C21.6407 50.5051 17.3806 46.91 14.2907 42.3901C11.2009 37.8702 9.39742 32.5956 9.07314 27.1301L9.07571 27.1166Z" fill="#71B71E"/>
<path d="M53.7749 29.7839C52.9051 26.796 51.654 23.9326 50.0523 21.2644C48.4393 18.5884 46.1673 16.3706 43.4532 14.8225C41.3581 13.7835 39.1286 13.0414 36.8287 12.6174" stroke="#9FD327" stroke-width="1.412" stroke-miterlimit="10"/>
</svg>
