<svg width="98" height="104" viewBox="0 0 98 104" fill="none" xmlns="http://www.w3.org/2000/svg">
<path d="M15.0077 35.4906H42.5747C46.588 35.4906 48.6023 40.3462 45.7606 43.1838L20.9812 67.9604C17.3701 71.5673 17.3701 77.4203 20.9812 81.0272C24.5924 84.6341 30.4421 84.6341 34.0494 81.0272L58.8249 56.2506C61.6667 53.413 66.5189 55.4233 66.5189 59.4361V87C76.726 87 85 78.727 85 68.5171V35.4829C85 25.2769 76.726 17 66.5189 17H33.4849C23.2778 17 15 25.273 15 35.4829L15.0077 35.4906Z" fill="white"/>
<path d="M96 52C96 79.7279 74.8471 102 49 102C23.1529 102 2 79.7279 2 52C2 24.2721 23.1529 2 49 2C74.8471 2 96 24.2721 96 52Z" stroke="white" stroke-width="4"/>
</svg>
