<svg width="92" height="92" viewBox="0 0 92 92" fill="none" xmlns="http://www.w3.org/2000/svg">
<path d="M43.1372 2.61095C19.3132 4.00959 1.13392 24.4566 2.53257 48.2806C3.93121 72.1046 24.3782 90.2839 48.2022 88.8853C72.0262 87.4866 90.2055 67.0396 88.8069 43.2156C87.4082 19.3916 66.9612 1.2123 43.1372 2.61095Z" fill="#FFC60B"/>
<path d="M2.54685 48.5206C1.98709 38.9742 4.60992 29.5117 10.0043 21.6156C15.3987 13.7195 23.26 7.83589 32.3567 4.88645C41.4533 1.93701 51.2714 2.08837 60.2728 5.31686C69.2742 8.54535 76.9503 14.6686 82.0987 22.7272C78.5146 22.0222 74.8548 21.7798 71.209 22.006C63.6867 22.4501 56.4113 24.8535 50.1048 28.9777C43.7983 33.102 38.6799 38.8037 35.2576 45.5171C31.8353 52.2305 30.228 59.7221 30.5952 67.2485C30.9625 74.7749 33.2916 82.0745 37.3513 88.4227C27.9488 86.568 19.4287 81.6427 13.1291 74.4204C6.82944 67.1981 3.10715 58.0879 2.54685 48.5206Z" fill="#FEAB05"/>
<path d="M64.9885 77.3034C64.1752 78.4202 63.1846 79.3964 62.056 80.1932" stroke="#FAFDC6" stroke-width="0.285" stroke-miterlimit="10"/>
<path d="M44.9614 79.1174C43.8755 79.1333 42.7989 78.9149 41.8051 78.4771" stroke="#FAFDC6" stroke-width="0.285" stroke-miterlimit="10"/>
<path d="M19.5938 63.9861C19.4323 63.16 19.4279 62.3109 19.5806 61.4831" stroke="#FAFDC6" stroke-width="0.285" stroke-miterlimit="10"/>
<path d="M80.479 40.6897L80.3091 37.7948" stroke="#FAFDC6" stroke-width="0.285" stroke-miterlimit="10"/>
<path d="M54.6714 7.53296L50.1341 7.79933" stroke="#FAFDC6" stroke-width="0.285" stroke-miterlimit="10"/>
<path d="M12.2122 34.7089C12.5345 33.5425 12.9708 32.4107 13.5148 31.3298" stroke="#FAFDC6" stroke-width="0.285" stroke-miterlimit="10"/>
<path d="M59.7998 40.6835C59.4073 41.914 59.0901 43.1673 58.8501 44.4364" stroke="#FAFDC6" stroke-width="0.285" stroke-miterlimit="10"/>
<path d="M75.7299 51.3541L75.208 53.0562" stroke="#FAFDC6" stroke-width="0.285" stroke-miterlimit="10"/>
<path d="M69.5054 58.7562L68.919 59.4157" stroke="#FAFDC6" stroke-width="0.285" stroke-miterlimit="10"/>
<path d="M59.2709 64.5787C57.9765 65.37 56.625 66.0639 55.2276 66.6546" stroke="#FAFDC6" stroke-width="0.285" stroke-miterlimit="10"/>
<path d="M42.9928 51.2872C43.4226 50.9778 42.9465 50.2136 42.4182 50.268C41.8899 50.3224 41.5389 50.8344 41.3409 51.334C41.2009 51.8434 40.9488 52.3151 40.603 52.7145" stroke="#FAFDC6" stroke-width="0.285" stroke-miterlimit="10"/>
<path d="M43.5299 66.1244C43.7634 66.7993 43.0365 67.4002 42.3814 67.6861C41.0958 68.2442 39.7046 68.5175 38.3034 68.4871" stroke="#FAFDC6" stroke-width="0.285" stroke-miterlimit="10"/>
<path d="M79.7494 60.0369C79.3986 61.4201 78.9322 62.7715 78.3553 64.0766" stroke="#FAFDC6" stroke-width="0.285" stroke-miterlimit="10"/>
<path d="M54.6885 53.6093C54.5705 54.4317 54.1692 55.187 53.5537 55.7451" stroke="#F51059" stroke-width="0.285" stroke-miterlimit="10"/>
<path d="M26.104 51.55L28.7277 50.3463" stroke="#F51059" stroke-width="0.285" stroke-miterlimit="10"/>
<path d="M71.9378 29.3573L72.0835 31.8391" stroke="#F51059" stroke-width="0.285" stroke-miterlimit="10"/>
<path d="M55.1334 15.3982L52.2676 16.3487" stroke="#F51059" stroke-width="0.285" stroke-miterlimit="10"/>
<path d="M69.2035 45.9243L69.0477 46.9697" stroke="#F51059" stroke-width="0.285" stroke-miterlimit="10"/>
<path d="M47.3562 38.6627L46.1256 38.9389" stroke="#802A91" stroke-width="0.285" stroke-miterlimit="10"/>
<path d="M56.3734 75.526L55.7745 75.9724" stroke="#802A91" stroke-width="0.285" stroke-miterlimit="10"/>
<path d="M28.3646 43.759L29.7093 42.0087" stroke="#802A91" stroke-width="0.285" stroke-miterlimit="10"/>
<path d="M39.6159 58.6759L37.608 59.8334" stroke="#802A91" stroke-width="0.285" stroke-miterlimit="10"/>
<path d="M25.6587 68.6177C24.9324 68.5832 24.2192 68.4119 23.5565 68.1126" stroke="#802A91" stroke-width="0.285" stroke-miterlimit="10"/>
<path d="M41.8493 26.1099L35.9158 27.5312" stroke="#802A91" stroke-width="0.285" stroke-miterlimit="10"/>
<path d="M59.4249 28.4305L59.4736 29.26" stroke="#802A91" stroke-width="0.285" stroke-miterlimit="10"/>
</svg>
