<svg width="1782" height="421" viewBox="0 0 1782 421" fill="none" xmlns="http://www.w3.org/2000/svg">
<path d="M180.906 420.402H155.465C95.5854 420.402 43.1124 391.573 27.3481 350.013L5.22705 291.703H331.15L309.023 350.005C293.259 391.573 240.786 420.402 180.906 420.402Z" fill="#D9B935"/>
<path opacity="0.15" d="M189.004 420.234C186.32 420.336 183.61 420.404 180.9 420.404H155.454C95.5834 420.404 43.1124 391.57 27.3267 350.006L5.22705 291.705H46.8587L68.9836 350.004C84.0388 389.69 132.528 417.76 189.004 420.234Z" fill="#FFC60B"/>
<path d="M337 288.61C337 335.131 261.566 372.834 168.514 372.834C75.461 372.834 0 335.129 0 288.61C0 242.12 75.461 204.416 168.514 204.416C261.566 204.416 337 242.12 337 288.61Z" fill="#F7F9EF"/>
<path d="M323.938 288.047C323.938 303.091 313.613 316.998 296.04 328.447C267.987 346.702 221.398 358.654 168.691 358.654C82.9515 358.654 13.446 327.045 13.446 288.047C13.4413 286.787 13.52 285.528 13.6817 284.279C17.9676 247.044 85.7315 217.461 168.691 217.461C254.43 217.461 323.938 249.072 323.938 288.047Z" fill="#FFF6E9"/>
<path opacity="0.74" d="M302.658 319.656C302.663 320.915 302.584 322.174 302.423 323.423C274.37 341.679 227.782 353.63 175.075 353.63C89.3358 353.63 19.8283 322.022 19.8283 283.023C19.8245 281.763 19.9032 280.505 20.064 279.256C48.1171 261 94.7068 249.046 147.414 249.046C233.153 249.05 302.658 280.661 302.658 319.656Z" fill="white"/>
<path d="M296.282 324.673C296.287 325.933 296.208 327.192 296.046 328.441C275.903 341.553 246.192 351.402 211.532 355.947C197.324 357.764 183.018 358.667 168.699 358.65C84.9853 358.65 16.7266 328.513 13.594 290.764C13.4984 289.858 13.4509 288.947 13.4518 288.035C13.4481 286.776 13.5269 285.518 13.6875 284.269C41.7407 266.012 88.3303 254.06 141.037 254.06C226.776 254.066 296.282 285.675 296.282 324.673Z" fill="white"/>
<path opacity="0.26" d="M211.533 355.947C197.324 357.764 183.018 358.667 168.699 358.65C84.9856 358.65 16.7268 328.513 13.5942 290.764C27.795 288.945 42.0933 288.043 56.4045 288.061C140.141 288.067 208.392 318.226 211.533 355.947Z" fill="white"/>
<path d="M326.003 286.354C326.003 296.81 320.922 306.759 311.836 315.67C311.836 276.694 247.822 245.085 168.857 245.085C89.8909 245.085 25.8518 276.694 25.8518 315.662C16.7404 306.751 11.6851 296.802 11.6851 286.346C11.6851 247.347 82.0419 215.737 168.857 215.737C255.671 215.737 326.003 247.355 326.003 286.354Z" fill="#BDB6A3"/>
<path d="M654.906 420.402H629.465C569.585 420.402 517.112 391.573 501.348 350.013L479.227 291.703H805.15L783.023 350.005C767.259 391.573 714.786 420.402 654.906 420.402Z" fill="#853C07"/>
<path opacity="0.15" d="M663.004 420.234C660.32 420.336 657.61 420.404 654.9 420.404H629.454C569.583 420.404 517.112 391.57 501.327 350.006L479.227 291.705H520.859L542.984 350.004C558.039 389.69 606.528 417.76 663.004 420.234Z" fill="#F1D4C1"/>
<path d="M811 288.61C811 335.131 735.566 372.834 642.514 372.834C549.461 372.834 474 335.129 474 288.61C474 242.12 549.461 204.416 642.514 204.416C735.566 204.416 811 242.12 811 288.61Z" fill="#F7F9EF"/>
<path d="M797.938 288.047C797.938 303.091 787.613 316.998 770.04 328.447C741.987 346.702 695.398 358.654 642.691 358.654C556.952 358.654 487.446 327.045 487.446 288.047C487.441 286.787 487.52 285.528 487.682 284.279C491.968 247.044 559.732 217.461 642.691 217.461C728.43 217.461 797.938 249.072 797.938 288.047Z" fill="#FFF6E9"/>
<path opacity="0.74" d="M776.658 319.656C776.663 320.915 776.584 322.174 776.423 323.423C748.37 341.679 701.782 353.63 649.075 353.63C563.336 353.63 493.828 322.022 493.828 283.023C493.824 281.763 493.903 280.505 494.064 279.256C522.117 261 568.707 249.046 621.414 249.046C707.153 249.05 776.658 280.661 776.658 319.656Z" fill="white"/>
<path d="M770.282 324.673C770.287 325.933 770.208 327.192 770.046 328.441C749.903 341.553 720.192 351.402 685.532 355.947C671.324 357.764 657.018 358.667 642.699 358.65C558.985 358.65 490.727 328.513 487.594 290.764C487.498 289.858 487.451 288.947 487.452 288.035C487.448 286.776 487.527 285.518 487.688 284.269C515.741 266.012 562.33 254.06 615.037 254.06C700.776 254.066 770.282 285.675 770.282 324.673Z" fill="white"/>
<path opacity="0.26" d="M685.533 355.947C671.324 357.764 657.018 358.667 642.699 358.65C558.986 358.65 490.727 328.513 487.594 290.764C501.795 288.945 516.093 288.043 530.405 288.061C614.141 288.067 682.392 318.226 685.533 355.947Z" fill="white"/>
<path d="M800.003 286.354C800.003 296.81 794.922 306.759 785.836 315.67C785.836 276.694 721.822 245.085 642.857 245.085C563.891 245.085 499.852 276.694 499.852 315.662C490.74 306.751 485.685 296.802 485.685 286.346C485.685 247.347 556.042 215.737 642.857 215.737C729.671 215.737 800.003 247.355 800.003 286.354Z" fill="#BDB6A3"/>
<path d="M1134.95 420.402H1108.66C1046.78 420.402 992.553 393.041 976.262 353.598L953.401 298.257H1290.22L1267.35 353.59C1251.06 393.041 1196.83 420.402 1134.95 420.402Z" fill="#F4AD3D"/>
<path opacity="0.15" d="M1143.32 420.243C1140.55 420.339 1137.75 420.404 1134.95 420.404H1108.65C1046.78 420.404 992.553 393.039 976.24 353.592L953.401 298.259H996.424L1019.29 353.59C1034.85 391.254 1084.96 417.895 1143.32 420.243Z" fill="#F1D4C1"/>
<path d="M1296.26 295.322C1296.26 339.474 1218.31 375.257 1122.15 375.257C1025.98 375.257 948 339.472 948 295.322C948 251.2 1025.98 215.416 1122.15 215.416C1218.31 215.416 1296.26 251.2 1296.26 295.322Z" fill="#F7F9EF"/>
<path d="M1282.76 294.787C1282.76 309.066 1272.09 322.264 1253.93 333.13C1224.94 350.455 1176.8 361.798 1122.33 361.798C1033.72 361.798 961.895 331.799 961.895 294.787C961.89 293.591 961.972 292.397 962.139 291.211C966.568 255.872 1036.6 227.797 1122.33 227.797C1210.93 227.797 1282.76 257.798 1282.76 294.787Z" fill="#FFF6E9"/>
<path opacity="0.74" d="M1260.77 324.786C1260.78 325.982 1260.7 327.177 1260.53 328.362C1231.54 345.688 1183.39 357.031 1128.93 357.031C1040.32 357.031 968.491 327.032 968.491 290.02C968.487 288.824 968.568 287.629 968.734 286.444C997.725 269.118 1045.87 257.773 1100.34 257.773C1188.94 257.777 1260.77 287.778 1260.77 324.786Z" fill="white"/>
<path d="M1254.18 329.549C1254.19 330.744 1254.11 331.939 1253.94 333.124C1233.12 345.569 1202.42 354.916 1166.6 359.229C1151.92 360.954 1137.13 361.811 1122.34 361.795C1035.83 361.795 965.286 333.193 962.048 297.367C961.95 296.506 961.901 295.642 961.901 294.776C961.898 293.581 961.979 292.387 962.145 291.202C991.136 273.875 1039.28 262.532 1093.75 262.532C1182.36 262.537 1254.18 292.536 1254.18 329.549Z" fill="white"/>
<path opacity="0.26" d="M1166.6 359.229C1151.92 360.954 1137.13 361.811 1122.34 361.795C1035.83 361.795 965.286 333.193 962.048 297.367C976.724 295.64 991.5 294.783 1006.29 294.801C1092.82 294.806 1163.36 323.43 1166.6 359.229Z" fill="white"/>
<path d="M1284.9 293.181C1284.9 303.104 1279.65 312.547 1270.26 321.004C1270.26 284.013 1204.1 254.014 1122.5 254.014C1040.9 254.014 974.716 284.013 974.716 320.997C965.3 312.539 960.076 303.097 960.076 293.173C960.076 256.161 1032.78 226.16 1122.5 226.16C1212.22 226.16 1284.9 256.168 1284.9 293.181Z" fill="#BDB6A3"/>
<path d="M1620.21 420.402H1593.92C1532.04 420.402 1477.82 393.041 1461.52 353.598L1438.66 298.257H1775.48L1752.61 353.59C1736.32 393.041 1682.1 420.402 1620.21 420.402Z" fill="#71B71E"/>
<path opacity="0.15" d="M1628.58 420.243C1625.81 420.339 1623.01 420.404 1620.21 420.404H1593.91C1532.04 420.404 1477.82 393.039 1461.5 353.592L1438.66 298.259H1481.69L1504.55 353.59C1520.11 391.254 1570.22 417.895 1628.58 420.243Z" fill="#F1D4C1"/>
<path d="M1781.53 295.322C1781.53 339.474 1703.57 375.257 1607.41 375.257C1511.25 375.257 1433.26 339.472 1433.26 295.322C1433.26 251.2 1511.25 215.416 1607.41 215.416C1703.57 215.416 1781.53 251.2 1781.53 295.322Z" fill="#F7F9EF"/>
<path d="M1768.03 294.787C1768.03 309.066 1757.36 322.264 1739.2 333.13C1710.21 350.455 1662.06 361.798 1607.59 361.798C1518.99 361.798 1447.16 331.799 1447.16 294.787C1447.15 293.591 1447.23 292.397 1447.4 291.211C1451.83 255.872 1521.86 227.797 1607.59 227.797C1696.2 227.797 1768.03 257.798 1768.03 294.787Z" fill="#FFF6E9"/>
<path opacity="0.74" d="M1746.04 324.786C1746.04 325.982 1745.96 327.177 1745.79 328.362C1716.8 345.688 1668.66 357.031 1614.19 357.031C1525.58 357.031 1453.75 327.032 1453.75 290.02C1453.75 288.824 1453.83 287.629 1454 286.444C1482.99 269.118 1531.13 257.773 1585.6 257.773C1674.21 257.777 1746.04 287.778 1746.04 324.786Z" fill="white"/>
<path d="M1739.45 329.549C1739.45 330.744 1739.37 331.939 1739.2 333.124C1718.39 345.569 1687.68 354.916 1651.86 359.229C1637.18 360.954 1622.4 361.811 1607.6 361.795C1521.09 361.795 1450.55 333.193 1447.31 297.367C1447.21 296.506 1447.16 295.642 1447.16 294.776C1447.16 293.581 1447.24 292.387 1447.41 291.202C1476.4 273.875 1524.55 262.532 1579.01 262.532C1667.62 262.537 1739.45 292.536 1739.45 329.549Z" fill="white"/>
<path opacity="0.26" d="M1651.86 359.229C1637.18 360.954 1622.4 361.811 1607.6 361.795C1521.09 361.795 1450.55 333.193 1447.31 297.367C1461.99 295.64 1476.76 294.783 1491.55 294.801C1578.09 294.806 1648.62 323.43 1651.86 359.229Z" fill="white"/>
<path d="M1770.16 293.181C1770.16 303.104 1764.91 312.547 1755.52 321.004C1755.52 284.013 1689.37 254.014 1607.76 254.014C1526.16 254.014 1459.98 284.013 1459.98 320.997C1450.56 312.539 1445.34 303.097 1445.34 293.173C1445.34 256.161 1518.05 226.16 1607.76 226.16C1697.48 226.16 1770.16 256.168 1770.16 293.181Z" fill="#BDB6A3"/>
<ellipse cx="160.5" cy="60" rx="61.5" ry="60" fill="white"/>
<ellipse cx="641.5" cy="60" rx="61.5" ry="60" fill="white"/>
<ellipse cx="1122.5" cy="60" rx="61.5" ry="60" fill="white"/>
<ellipse cx="1603.5" cy="60" rx="61.5" ry="60" fill="white"/>
<path d="M211.07 60.2276C206.861 56.0234 177.187 27.2477 140.054 35.2371C129.689 37.5265 119.923 42.2932 111.446 49.2003C114.273 60.764 120.244 71.124 128.559 78.8922C136.874 86.6605 147.135 91.4661 157.97 92.6657C168.804 93.8653 179.694 91.4014 189.18 85.6041C198.666 79.8067 206.296 70.9529 211.047 60.2283L211.07 60.2276Z" fill="#D9B935"/>
<path d="M647.857 84.6023C654.954 84.4811 661.995 83.2959 668.752 81.085C668.527 79.2463 668.47 77.3902 668.581 75.5407C669.098 67.9455 672.349 66.9632 674.158 59.6272C674.788 57.0941 675.025 54.4768 674.86 51.8698C666.539 46.8947 657.35 43.6002 647.797 42.1674C639.365 40.7513 630.73 41.2303 622.499 43.5708C625.841 48.9615 627.55 55.2307 627.415 61.6004C627.28 67.9702 625.306 74.1601 621.739 79.4024C630.009 82.9079 638.894 84.6768 647.857 84.6023Z" fill="#B85E19"/>
<path d="M621.746 79.4169C625.313 74.1732 627.287 67.982 627.422 61.6112C627.557 55.2404 625.847 48.9702 622.505 43.5781C618.004 44.9897 614.104 47.9051 611.439 51.8509C608.704 55.9989 607.683 61.0711 608.595 65.9749C609.634 69.085 611.358 71.9127 613.637 74.2423C615.916 76.5719 618.69 78.3419 621.746 79.4169Z" fill="#D49D3A"/>
<path d="M622.831 61.1452C622.76 66.8433 620.645 71.4371 618.105 71.4057C615.566 71.3743 613.565 66.7296 613.635 61.0315C613.706 55.3334 615.821 50.7396 618.36 50.771C620.9 50.8023 622.901 55.447 622.831 61.1452Z" fill="#853C07"/>
<path d="M1126.1 104.211C1102.29 105.866 1081.65 87.908 1080 64.1005C1078.34 40.2929 1096.3 19.6515 1120.11 17.9965C1143.91 16.3416 1164.56 34.2998 1166.21 58.1074C1167.87 81.915 1149.91 102.556 1126.1 104.211Z" fill="#FFC60B"/>
<path d="M1126.1 104.211C1102.29 105.866 1081.65 87.908 1080 64.1005C1078.34 40.2929 1096.3 19.6515 1120.11 17.9965C1143.91 16.3416 1164.56 34.2998 1166.21 58.1074C1167.87 81.915 1149.91 102.556 1126.1 104.211Z" fill="#FFC60B"/>
<path d="M1079.98 63.8602C1080.64 73.4 1084.45 82.4501 1090.81 89.5927C1097.17 96.7354 1105.72 101.567 1115.12 103.331C1124.52 105.094 1134.23 103.691 1142.75 99.3392C1151.27 94.9877 1158.1 87.9345 1162.17 79.2844C1158.71 80.4413 1155.11 81.149 1151.47 81.3902C1143.95 81.9103 1136.43 80.4556 1129.64 77.1704C1122.86 73.8852 1117.06 68.8837 1112.81 62.6623C1108.55 56.4409 1106 49.2158 1105.41 41.7041C1104.81 34.1924 1106.19 26.6552 1109.4 19.8405C1100.32 22.8807 1092.49 28.8536 1087.17 36.8212C1081.84 44.7888 1079.31 54.2997 1079.98 63.8602Z" fill="#FEAB05"/>
<path d="M1138.24 27.3398C1137.29 26.336 1136.18 25.4942 1134.96 24.8481" stroke="#FAFDC6" stroke-width="0.285" stroke-miterlimit="10"/>
<path d="M1118.14 28.0981C1117.06 28.221 1116.02 28.5751 1115.09 29.1363" stroke="#FAFDC6" stroke-width="0.285" stroke-miterlimit="10"/>
<path d="M1094.91 46.345C1094.86 47.1849 1094.96 48.0276 1095.22 48.8291" stroke="#FAFDC6" stroke-width="0.285" stroke-miterlimit="10"/>
<path d="M1158.27 61.676L1158.48 64.5689" stroke="#FAFDC6" stroke-width="0.285" stroke-miterlimit="10"/>
<path d="M1136.91 97.8564L1132.38 98.1716" stroke="#FAFDC6" stroke-width="0.285" stroke-miterlimit="10"/>
<path d="M1091.33 76.3249C1091.8 77.4405 1092.38 78.5073 1093.05 79.51" stroke="#FAFDC6" stroke-width="0.285" stroke-miterlimit="10"/>
<path d="M1137.77 64.3228C1137.22 63.1525 1136.74 61.9499 1136.34 60.7219" stroke="#FAFDC6" stroke-width="0.285" stroke-miterlimit="10"/>
<path d="M1152.2 51.7048L1151.47 50.0833" stroke="#FAFDC6" stroke-width="0.285" stroke-miterlimit="10"/>
<path d="M1145.08 45.1582L1144.42 44.5789" stroke="#FAFDC6" stroke-width="0.285" stroke-miterlimit="10"/>
<path d="M1134.19 40.6908C1132.8 40.0712 1131.38 39.5556 1129.91 39.1482" stroke="#FAFDC6" stroke-width="0.285" stroke-miterlimit="10"/>
<path d="M1119.74 55.9514C1120.21 56.2033 1119.83 57.0221 1119.3 57.0356C1118.77 57.0491 1118.36 56.5862 1118.1 56.1159C1117.89 55.6285 1117.58 55.1929 1117.19 54.8409" stroke="#FAFDC6" stroke-width="0.285" stroke-miterlimit="10"/>
<path d="M1118.38 41.1674C1118.52 40.4682 1117.73 39.965 1117.04 39.7652C1115.69 39.3757 1114.28 39.2824 1112.89 39.4915" stroke="#FAFDC6" stroke-width="0.285" stroke-miterlimit="10"/>
<path d="M1155.08 42.5802C1154.56 41.2531 1153.92 39.9724 1153.18 38.7516" stroke="#FAFDC6" stroke-width="0.285" stroke-miterlimit="10"/>
<path d="M1131.05 52.1552C1130.82 51.3546 1130.33 50.6566 1129.65 50.1817" stroke="#F51059" stroke-width="0.285" stroke-miterlimit="10"/>
<path d="M1102.96 57.8479L1105.71 58.7067" stroke="#F51059" stroke-width="0.285" stroke-miterlimit="10"/>
<path d="M1151.25 74.0057L1151.08 71.5256" stroke="#F51059" stroke-width="0.285" stroke-miterlimit="10"/>
<path d="M1136.37 89.9967L1133.4 89.42" stroke="#F51059" stroke-width="0.285" stroke-miterlimit="10"/>
<path d="M1146.42 57.9238L1146.13 56.9069" stroke="#F51059" stroke-width="0.285" stroke-miterlimit="10"/>
<path d="M1125.68 67.916L1124.43 67.7992" stroke="#802A91" stroke-width="0.285" stroke-miterlimit="10"/>
<path d="M1129.92 30.2029L1129.27 29.8367" stroke="#802A91" stroke-width="0.285" stroke-miterlimit="10"/>
<path d="M1106.19 65.2867L1107.75 66.851" stroke="#802A91" stroke-width="0.285" stroke-miterlimit="10"/>
<path d="M1115.45 49.0546L1113.31 48.163" stroke="#802A91" stroke-width="0.285" stroke-miterlimit="10"/>
<path d="M1100.34 40.9766C1099.62 41.1035 1098.93 41.3645 1098.32 41.7459" stroke="#802A91" stroke-width="0.285" stroke-miterlimit="10"/>
<path d="M1121.82 81.0693L1115.76 80.4173" stroke="#802A91" stroke-width="0.285" stroke-miterlimit="10"/>
<path d="M1138.96 76.5233L1138.9 75.6943" stroke="#802A91" stroke-width="0.285" stroke-miterlimit="10"/>
<path d="M1574.11 62.3675C1574.45 67.3037 1576 72.0803 1578.62 76.274C1581.25 80.4677 1584.87 83.9491 1589.16 86.4095L1589.18 86.4314C1595.38 90.013 1602.66 91.2732 1609.7 89.9868C1616.75 88.7005 1623.1 84.9514 1627.64 79.4093C1632.17 73.8672 1634.59 66.8931 1634.46 59.7329C1634.33 52.5726 1631.65 45.6927 1626.92 40.322C1626.91 40.2754 1626.91 40.2754 1626.87 40.2786C1622.7 35.5345 1617.14 32.2186 1610.99 30.7984C1604.83 29.3781 1598.39 29.925 1592.56 32.3619C1586.73 34.7989 1581.81 39.0031 1578.5 44.3822C1575.19 49.7612 1573.65 56.0439 1574.1 62.3449L1574.11 62.3675Z" fill="#61901A"/>
<path d="M1581.67 68.5556C1582.12 75.1679 1584.75 81.445 1589.14 86.4041L1589.18 86.4315C1595.38 90.0131 1602.65 91.2733 1609.7 89.9869C1616.74 88.7006 1623.1 84.9515 1627.64 79.4094C1632.17 73.8673 1634.59 66.8932 1634.46 59.733C1634.33 52.5727 1631.65 45.6928 1626.92 40.3221C1626.91 40.2755 1626.91 40.2755 1626.87 40.2787C1622.12 37.549 1616.72 36.1603 1611.25 36.2611C1605.77 36.362 1600.43 37.9486 1595.79 40.8513C1591.14 43.7541 1587.38 47.8638 1584.89 52.7412C1582.4 57.6186 1581.29 63.0804 1581.66 68.5425L1581.67 68.5556Z" fill="#71B71E"/>
<path d="M1625.66 60.2024C1625.18 63.2769 1624.31 66.2767 1623.06 69.1275C1621.8 71.9876 1619.83 74.4774 1617.34 76.3593C1615.39 77.6573 1613.27 78.6781 1611.05 79.3923" stroke="#9FD327" stroke-width="1.412" stroke-miterlimit="10"/>
</svg>
