<svg width="47" height="69" viewBox="0 0 47 69" fill="none" xmlns="http://www.w3.org/2000/svg">
<path d="M1.57688 29.1494C1.36967 22.0542 2.22784 14.9659 4.12378 8.11398C5.97091 8.25395 7.82771 8.2252 9.67009 8.02817C17.2332 7.16093 18.0641 3.86763 25.3086 1.72123C27.8098 0.974745 30.4134 0.617238 33.0251 0.661603C38.3798 8.74271 42.0959 17.7698 43.9691 27.2462C45.7738 35.6034 45.6948 44.2517 43.7375 52.5822C38.198 49.493 31.8565 48.0755 25.4998 48.5051C19.1431 48.9348 13.0511 51.1928 7.97953 54.9992C4.09512 46.8996 1.91713 38.1063 1.57688 29.1494Z" fill="#B85E19"/>
<path d="M7.9649 54.9929C13.0379 51.1867 19.1312 48.9287 25.4889 48.4991C31.8466 48.0694 38.1892 49.487 43.7301 52.5759C42.5283 57.1381 39.7964 61.1689 35.9782 64.0136C31.9611 66.9371 26.9416 68.1916 22.0009 67.5073C18.846 66.6139 15.9416 65.0222 13.5091 62.8534C11.0765 60.6845 9.18006 57.9958 7.9649 54.9929Z" fill="#D49D3A"/>
<path d="M26.1665 53.0642C20.4777 53.3981 15.9867 55.724 16.1356 58.2591C16.2844 60.7942 21.0167 62.5786 26.7054 62.2446C32.3942 61.9106 36.8852 59.5848 36.7364 57.0497C36.5875 54.5146 31.8552 52.7302 26.1665 53.0642Z" fill="#853C07"/>
</svg>
